<svg width="276" height="238" viewBox="0 0 276 238" fill="none" xmlns="http://www.w3.org/2000/svg">
<g filter="url(#filter0_d)">
<path fill-rule="evenodd" clip-rule="evenodd" d="M272 118L271.999 190.56L271.997 195.767L271.994 198.985L271.989 201.347L271.983 203.227L271.976 204.793L271.967 206.14L271.957 207.322L271.946 208.378L271.933 209.333L271.919 210.204L271.903 211.006L271.887 211.75L271.868 212.443L271.849 213.092L271.828 213.703L271.806 214.279L271.782 214.826L271.757 215.345L271.73 215.839L271.703 216.311L271.673 216.762L271.643 217.194L271.611 217.61L271.577 218.009L271.543 218.393L271.506 218.764L271.469 219.122L271.43 219.468L271.389 219.802L271.347 220.126L271.304 220.44L271.259 220.744L271.212 221.04L271.165 221.327L271.115 221.606L271.064 221.878L271.012 222.142L270.958 222.399L270.903 222.65L270.846 222.894L270.787 223.133L270.727 223.365L270.665 223.592L270.602 223.814L270.537 224.031L270.471 224.242L270.403 224.449L270.333 224.651L270.262 224.849L270.188 225.042L270.114 225.232L270.037 225.417L269.959 225.598L269.879 225.776L269.797 225.95L269.714 226.12L269.628 226.287L269.541 226.451L269.452 226.611L269.361 226.769L269.269 226.923L269.174 227.074L269.077 227.222L268.979 227.367L268.878 227.51L268.776 227.649L268.671 227.786L268.564 227.921L268.455 228.053L268.344 228.182L268.231 228.309L268.116 228.434L267.998 228.556L267.879 228.676L267.756 228.794L267.632 228.909L267.505 229.022L267.376 229.134L267.244 229.243L267.109 229.35L266.973 229.455L266.833 229.558L266.691 229.659L266.546 229.758L266.398 229.855L266.248 229.95L266.094 230.044L265.938 230.136L265.778 230.226L265.616 230.314L265.45 230.4L265.281 230.485L265.108 230.568L264.933 230.649L264.753 230.729L264.571 230.807L264.384 230.884L264.194 230.959L263.999 231.032L263.801 231.104L263.599 231.174L263.392 231.243L263.181 231.31L262.966 231.376L262.745 231.44L262.52 231.503L262.29 231.565L262.055 231.624L261.815 231.683L261.569 231.74L261.317 231.796L261.059 231.85L260.795 231.903L260.524 231.955L260.247 232.005L259.963 232.054L259.671 232.102L259.372 232.148L259.065 232.193L258.749 232.237L258.425 232.28L258.091 232.321L257.747 232.361L257.393 232.399L257.029 232.437L256.652 232.473L256.263 232.508L255.861 232.541L255.446 232.574L255.015 232.605L254.568 232.635L254.105 232.664L253.622 232.691L253.12 232.718L252.596 232.743L252.048 232.767L251.474 232.79L250.872 232.811L250.238 232.832L249.569 232.851L248.861 232.869L248.108 232.886L247.305 232.901L246.444 232.916L245.515 232.929L244.506 232.942L243.403 232.953L242.183 232.962L240.818 232.971L239.267 232.979L237.465 232.985L235.309 232.99L232.612 232.995L228.97 232.998L223.198 232.999L203.647 233L54.1505 233L47.7514 232.998L43.8886 232.995L41.0771 232.991L38.8513 232.986L37.0016 232.98L35.4152 232.972L34.0238 232.964L32.7831 232.954L31.6625 232.943L30.6401 232.931L29.6994 232.918L28.828 232.904L28.016 232.888L27.2557 232.872L26.5406 232.854L25.8657 232.835L25.2266 232.814L24.6195 232.793L24.0414 232.771L23.4897 232.747L22.962 232.722L22.4563 232.696L21.971 232.668L21.5043 232.64L21.055 232.61L20.6219 232.579L20.2038 232.547L19.7998 232.513L19.409 232.479L19.0307 232.443L18.664 232.405L18.3083 232.367L17.9631 232.327L17.6277 232.286L17.3018 232.244L16.9847 232.201L16.6761 232.156L16.3757 232.11L16.0829 232.062L15.7975 232.013L15.5192 231.963L15.2477 231.912L14.9827 231.859L14.724 231.805L14.4712 231.749L14.2242 231.692L13.9828 231.634L13.7468 231.574L13.516 231.513L13.2902 231.45L13.0692 231.386L12.8529 231.321L12.6412 231.254L12.4338 231.185L12.2308 231.115L12.0319 231.044L11.837 230.971L11.646 230.896L11.4589 230.82L11.2755 230.742L11.0956 230.662L10.9193 230.581L10.7464 230.498L10.5769 230.414L10.4106 230.328L10.2475 230.24L10.0875 230.15L9.93062 230.059L9.77668 229.965L9.62565 229.87L9.47747 229.773L9.33208 229.675L9.18944 229.574L9.04947 229.471L8.91214 229.367L8.77739 229.26L8.64517 229.151L8.51544 229.04L8.38815 228.927L8.26326 228.812L8.14073 228.695L8.02052 228.575L7.90259 228.453L7.78691 228.329L7.67343 228.203L7.56213 228.074L7.45298 227.942L7.34593 227.808L7.24097 227.671L7.13806 227.532L7.03717 227.39L6.93827 227.245L6.84135 227.097L6.74636 226.947L6.6533 226.793L6.56213 226.637L6.47283 226.477L6.38539 226.314L6.29977 226.147L6.21596 225.977L6.13393 225.804L6.05368 225.627L5.97517 225.446L5.89839 225.261L5.82333 225.073L5.74997 224.88L5.67828 224.683L5.60826 224.481L5.53989 224.275L5.47315 224.065L5.40804 223.849L5.34453 223.628L5.28261 223.402L5.22228 223.17L5.16351 222.933L5.1063 222.689L5.05064 222.44L4.9965 222.183L4.9439 221.92L4.8928 221.65L4.8432 221.372L4.7951 221.086L4.74848 220.792L4.70334 220.489L4.65966 220.177L4.61744 219.854L4.57668 219.522L4.53735 219.178L4.49946 218.822L4.46299 218.453L4.42795 218.071L4.39433 217.674L4.36211 217.262L4.33129 216.832L4.30188 216.384L4.27385 215.915L4.24722 215.425L4.22196 214.91L4.19809 214.368L4.17559 213.797L4.15446 213.192L4.13469 212.549L4.11629 211.863L4.09925 211.128L4.08357 210.336L4.06924 209.476L4.05626 208.536L4.04463 207.498L4.03435 206.338L4.02541 205.021L4.01782 203.494L4.01158 201.673L4.00667 199.405L4.00311 196.366L4.00088 191.64L4 178.382L4.00046 46.6879L4.00225 40.8751L4.00539 37.4556L4.00987 34.9903L4.01569 33.0483L4.02285 31.4394L4.03136 30.0624L4.04121 28.8566L4.05241 27.7826L4.06496 26.8135L4.07885 25.9299L4.09411 25.1174L4.11071 24.3651L4.12868 23.6645L4.14801 23.0087L4.16871 22.3921L4.19077 21.8103L4.21421 21.2594L4.23902 20.7364L4.26522 20.2384L4.2928 19.7631L4.32177 19.3087L4.35214 18.8733L4.38391 18.4554L4.41709 18.0537L4.45168 17.6669L4.48769 17.2942L4.52512 16.9344L4.56399 16.5867L4.6043 16.2505L4.64606 15.9249L4.68927 15.6094L4.73395 15.3035L4.78009 15.0065L4.82772 14.718L4.87684 14.4377L4.92746 14.165L4.97958 13.8996L5.03323 13.6412L5.0884 13.3894L5.14512 13.144L5.20339 12.9047L5.26323 12.6712L5.32464 12.4434L5.38764 12.2209L5.45224 12.0036L5.51846 11.7912L5.5863 11.5837L5.6558 11.3808L5.72695 11.1823L5.79978 10.9882L5.8743 10.7982L5.95053 10.6123L6.02848 10.4302L6.10818 10.252L6.18964 10.0775L6.27288 9.90649L6.35792 9.73897L6.44478 9.57482L6.53348 9.41395L6.62405 9.25626L6.71651 9.10169L6.81088 8.95013L6.90719 8.80153L7.00545 8.6558L7.1057 8.51288L7.20797 8.3727L7.31228 8.23521L7.41865 8.10033L7.52713 7.96801L7.63775 7.83819L7.75052 7.71083L7.8655 7.58587L7.98271 7.46327L8.10219 7.34297L8.22398 7.22493L8.34811 7.10911L8.47463 6.99546L8.60358 6.88396L8.735 6.77455L8.86894 6.66721L9.00544 6.56189L9.14456 6.45857L9.28635 6.35721L9.43086 6.25778L9.57814 6.16024L9.72826 6.06458L9.88127 5.97075L10.0372 5.87874L10.1962 5.78852L10.3583 5.70006L10.5236 5.61334L10.6921 5.52833L10.8639 5.44501L11.0391 5.36337L11.2178 5.28337L11.4001 5.205L11.586 5.12823L11.7758 5.05306L11.9694 4.97946L12.167 4.90741L12.3687 4.83689L12.5747 4.76789L12.785 4.7004L12.9998 4.63439L13.2193 4.56986L13.4435 4.50678L13.6727 4.44514L13.9071 4.38494L14.1467 4.32615L14.3919 4.26877L14.6428 4.21277L14.8996 4.15816L15.1626 4.10491L15.432 4.05303L15.7081 4.00249L15.9912 3.95328L16.2816 3.9054L16.5796 3.85884L16.8855 3.81359L17.1998 3.76963L17.5229 3.72697L17.8552 3.68559L18.1972 3.64548L18.5495 3.60663L18.9126 3.56905L19.2872 3.53272L19.6739 3.49763L20.0736 3.46378L20.4871 3.43116L20.9154 3.39977L21.3594 3.3696L21.8204 3.34065L22.2996 3.3129L22.7986 3.28636L23.3191 3.26102L23.8629 3.23688L24.4324 3.21392L25.0299 3.19215L25.6584 3.17157L26.3215 3.15217L27.0233 3.13394L27.7685 3.11688L28.5633 3.101L29.4148 3.08628L30.3322 3.07273L31.3271 3.06034L32.4143 3.04911L33.6139 3.03904L34.9533 3.03012L36.4716 3.02236L38.2279 3.01575L40.3174 3.0103L42.9095 3.006L46.3559 3.00285L51.6212 3.00085L64.73 3L220.271 3.0003L227.471 3.00175L231.585 3.00435L234.522 3.0081L236.823 3.01301L238.724 3.01906L240.347 3.02627L241.766 3.03463L243.028 3.04415L244.166 3.05483L245.203 3.06666L246.156 3.07966L247.037 3.09382L247.858 3.10915L248.626 3.12564L249.348 3.14331L250.029 3.16215L250.674 3.18217L251.286 3.20337L251.868 3.22576L252.424 3.24934L252.955 3.27411L253.465 3.30007L253.953 3.32724L254.423 3.35562L254.875 3.38521L255.31 3.41601L255.731 3.44804L256.137 3.4813L256.53 3.5158L256.91 3.55154L257.278 3.58852L257.636 3.62676L257.983 3.66626L258.32 3.70704L258.647 3.74909L258.965 3.79243L259.275 3.83706L259.577 3.88299L259.871 3.93024L260.158 3.97881L260.437 4.02871L260.709 4.07995L260.975 4.13255L261.235 4.18651L261.489 4.24184L261.737 4.29856L261.979 4.35667L262.216 4.4162L262.448 4.47715L262.674 4.53954L262.896 4.60337L263.113 4.66868L263.325 4.73546L263.533 4.80374L263.737 4.87352L263.937 4.94484L264.132 5.0177L264.324 5.09212L264.512 5.16812L264.696 5.24572L264.876 5.32494L265.053 5.4058L265.226 5.48831L265.396 5.57251L265.563 5.65841L265.727 5.74604L265.887 5.83541L266.045 5.92657L266.199 6.01952L266.35 6.1143L266.499 6.21094L266.645 6.30946L266.788 6.4099L266.928 6.51228L267.066 6.61664L267.201 6.72301L267.334 6.83143L267.464 6.94192L267.592 7.05454L267.717 7.16931L267.84 7.28629L267.96 7.4055L268.079 7.527L268.195 7.65083L268.309 7.77704L268.42 7.90567L268.53 8.03679L268.637 8.17044L268.742 8.30668L268.846 8.44557L268.947 8.58717L269.046 8.73155L269.143 8.87877L269.239 9.0289L269.332 9.18202L269.423 9.33821L269.513 9.49755L269.601 9.66012L269.687 9.82602L269.771 9.99533L269.853 10.1682L269.934 10.3446L270.012 10.5248L270.089 10.7089L270.165 10.8969L270.238 11.089L270.31 11.2854L270.381 11.4861L270.449 11.6915L270.516 11.9015L270.582 12.1164L270.645 12.3364L270.708 12.5617L270.768 12.7924L270.827 13.0289L270.885 13.2714L270.941 13.5201L270.995 13.7753L271.048 14.0373L271.099 14.3064L271.149 14.5831L271.197 14.8676L271.244 15.1605L271.29 15.4621L271.333 15.773L271.376 16.0936L271.417 16.4247L271.456 16.7668L271.495 17.1207L271.531 17.4871L271.567 17.8671L271.6 18.2615L271.633 18.6715L271.664 19.0984L271.694 19.5435L271.722 20.0086L271.749 20.4954L271.774 21.0062L271.798 21.5434L271.821 22.11L271.842 22.7095L271.862 23.3459L271.881 24.0244L271.898 24.751L271.914 25.5335L271.929 26.3816L271.942 27.3078L271.954 28.3289L271.964 29.4677L271.973 30.757L271.981 32.2456L271.988 34.0118L271.993 36.1941L271.996 39.0749L271.999 43.4057L272 53.2838L272 118Z" fill="white"/>
</g>
<defs>
<filter id="filter0_d" x="0" y="0" width="276" height="238" filterUnits="userSpaceOnUse" color-interpolation-filters="sRGB">
<feFlood flood-opacity="0" result="BackgroundImageFix"/>
<feColorMatrix in="SourceAlpha" type="matrix" values="0 0 0 0 0 0 0 0 0 0 0 0 0 0 0 0 0 0 127 0"/>
<feOffset dy="1"/>
<feGaussianBlur stdDeviation="2"/>
<feColorMatrix type="matrix" values="0 0 0 0 0 0 0 0 0 0 0 0 0 0 0 0 0 0 0.25 0"/>
<feBlend mode="normal" in2="BackgroundImageFix" result="effect1_dropShadow"/>
<feBlend mode="normal" in="SourceGraphic" in2="effect1_dropShadow" result="shape"/>
</filter>
</defs>
</svg>
