<svg width="40" height="40" viewBox="0 0 40 40" fill="none" xmlns="http://www.w3.org/2000/svg">
<path d="M14.4554 20.5503L14.3426 20.7427L12.5364 26.882C12.5126 26.9628 12.5111 27.0485 12.5319 27.1301C12.5527 27.2117 12.5951 27.2862 12.6546 27.3457C12.7142 27.4053 12.7887 27.4477 12.8703 27.4685C12.9518 27.4893 13.0375 27.4877 13.1183 27.464L19.2576 25.6577C19.2683 25.6545 19.2783 25.6499 19.2889 25.6463L19.4504 25.5448C19.4525 25.5427 19.455 25.5414 19.4571 25.5393L38.3072 6.68905C38.3951 6.60114 38.4444 6.48192 38.4444 6.3576C38.4444 6.23329 38.3951 6.11407 38.3072 6.02616L33.9742 1.69319C33.8863 1.60529 33.7671 1.55591 33.6427 1.55591C33.5184 1.55591 33.3992 1.60529 33.3113 1.69319L14.4611 20.5436C14.4588 20.5457 14.4575 20.5482 14.4554 20.5503ZM13.6783 26.322L14.0263 25.1393L14.861 25.9741L13.6783 26.322ZM19.1251 24.5451L18.457 23.8769L33.9355 8.39866L34.6036 9.06678L19.1251 24.5451ZM17.7941 23.2141L16.7863 22.2062L32.2647 6.7278L33.2725 7.73561L17.7941 23.2141ZM33.6427 2.68772L37.3126 6.35764L35.2665 8.40382L31.5965 4.73382L33.6427 2.68772ZM30.9336 5.39671L31.6017 6.06483L16.1234 21.5432L15.4553 20.8751L30.9336 5.39671ZM18.2356 24.9812L15.8855 25.6726L14.3277 24.1149L15.0192 21.7648L18.2356 24.9812Z" fill="#FE9393"/>
<path d="M3.41828 37H30.1025C30.1573 37.0004 30.2117 36.9899 30.2624 36.969C30.3131 36.9481 30.3591 36.9172 30.3977 36.8782C30.4362 36.8392 30.4666 36.7929 30.4869 36.742C30.5073 36.691 30.5172 36.6365 30.5161 36.5817V19.1039H29.6673V36.1511H3.84885V10.3327H20.8961V9.48384H3.41828C3.36345 9.48277 3.30896 9.49271 3.25803 9.51306C3.2071 9.53341 3.16077 9.56376 3.12178 9.60233C3.08279 9.64089 3.05192 9.68689 3.03101 9.73759C3.01009 9.78829 2.99956 9.84266 3.00002 9.8975V36.5817C2.99945 36.6368 3.00987 36.6914 3.03068 36.7424C3.0515 36.7935 3.08229 36.8398 3.12124 36.8787C3.1602 36.9177 3.20653 36.9485 3.25754 36.9693C3.30855 36.9901 3.3632 37.0005 3.41828 37Z" fill="#FE9393"/>
</svg>
