<svg width="316" height="668" viewBox="0 0 316 668" fill="none" xmlns="http://www.w3.org/2000/svg">
<path opacity="0.7" fill-rule="evenodd" clip-rule="evenodd" d="M316 334L315.999 514.75L315.996 532.25L315.99 543.26L315.983 551.44L315.974 558.002L315.962 563.508L315.948 568.268L315.932 572.468L315.915 576.233L315.895 579.65L315.872 582.78L315.848 585.67L315.822 588.356L315.793 590.867L315.762 593.224L315.729 595.446L315.694 597.548L315.657 599.544L315.618 601.443L315.576 603.255L315.533 604.988L315.487 606.648L315.439 608.241L315.389 609.773L315.336 611.247L315.281 612.669L315.224 614.042L315.165 615.369L315.104 616.652L315.04 617.895L314.974 619.1L314.906 620.269L314.836 621.404L314.763 622.507L314.688 623.58L314.61 624.623L314.531 625.639L314.449 626.629L314.364 627.593L314.277 628.534L314.188 629.451L314.096 630.347L314.002 631.221L313.905 632.075L313.806 632.91L313.705 633.726L313.6 634.523L313.494 635.304L313.385 636.067L313.273 636.814L313.158 637.545L313.041 638.261L312.922 638.963L312.799 639.649L312.674 640.322L312.546 640.982L312.416 641.628L312.282 642.262L312.146 642.883L312.007 643.492L311.865 644.089L311.72 644.675L311.573 645.25L311.422 645.814L311.268 646.367L311.111 646.91L310.951 647.442L310.788 647.965L310.622 648.478L310.452 648.981L310.279 649.475L310.103 649.96L309.923 650.436L309.74 650.903L309.554 651.361L309.364 651.811L309.17 652.253L308.973 652.686L308.772 653.112L308.567 653.53L308.359 653.94L308.146 654.342L307.929 654.737L307.709 655.124L307.484 655.504L307.255 655.877L307.022 656.243L306.784 656.602L306.542 656.954L306.295 657.3L306.043 657.639L305.787 657.971L305.526 658.297L305.259 658.616L304.988 658.929L304.711 659.235L304.429 659.536L304.141 659.83L303.848 660.119L303.549 660.401L303.243 660.678L302.932 660.948L302.614 661.213L302.29 661.472L301.959 661.726L301.62 661.974L301.275 662.216L300.922 662.453L300.562 662.684L300.193 662.91L299.817 663.13L299.432 663.346L299.037 663.556L298.634 663.76L298.221 663.96L297.799 664.154L297.365 664.343L296.921 664.527L296.466 664.706L295.999 664.88L295.519 665.049L295.027 665.214L294.52 665.373L294 665.527L293.464 665.676L292.912 665.821L292.344 665.96L291.757 666.095L291.152 666.226L290.526 666.351L289.878 666.472L289.207 666.588L288.512 666.699L287.789 666.805L287.038 666.907L286.255 667.005L285.439 667.097L284.585 667.185L283.69 667.269L282.75 667.348L281.759 667.422L280.713 667.492L279.603 667.557L278.422 667.618L277.158 667.674L275.799 667.726L274.328 667.773L272.724 667.816L270.957 667.855L268.988 667.888L266.761 667.918L264.188 667.943L261.131 667.963L257.338 667.979L252.272 667.99L244.383 667.997L219.02 668L73.4362 667.998L64.7236 667.992L59.3628 667.981L55.4145 667.966L52.2614 667.946L49.6232 667.922L47.3474 667.893L45.3418 667.86L43.5459 667.823L41.9177 667.781L40.4272 667.734L39.0516 667.683L37.7738 667.627L36.58 667.567L35.4596 667.503L34.4035 667.434L33.4046 667.36L32.4568 667.282L31.5549 667.199L30.6946 667.112L29.8722 667.02L29.0843 666.923L28.3282 666.822L27.6014 666.716L26.9017 666.606L26.2271 666.49L25.576 666.37L24.9467 666.246L24.3379 666.116L23.7484 665.982L23.177 665.843L22.6226 665.7L22.0844 665.551L21.5614 665.398L21.053 665.239L20.5583 665.076L20.0767 664.908L19.6076 664.734L19.1504 664.556L18.7046 664.373L18.2697 664.185L17.8453 663.991L17.4308 663.792L17.0261 663.589L16.6305 663.379L16.2439 663.165L15.8659 662.945L15.4962 662.72L15.1345 662.49L14.7805 662.254L14.434 662.013L14.0947 661.766L13.7624 661.513L13.437 661.255L13.1181 660.991L12.8056 660.721L12.4994 660.446L12.1992 660.164L11.9049 659.877L11.6163 659.583L11.3332 659.284L11.0557 658.978L10.7834 658.666L10.5163 658.348L10.2542 658.023L9.99713 657.692L9.74484 657.354L9.49726 657.01L9.2543 656.659L9.01585 656.301L8.78183 655.936L8.55213 655.564L8.32668 655.185L8.10539 654.799L7.88819 654.405L7.67499 654.004L7.46573 653.595L7.26033 653.179L7.05872 652.755L6.86085 652.322L6.66664 651.882L6.47604 651.433L6.28899 650.976L6.10544 650.511L5.92532 650.036L5.7486 649.553L5.57521 649.06L5.40511 648.558L5.23826 648.047L5.0746 647.526L4.9141 646.995L4.75672 646.454L4.60241 645.903L4.45113 645.341L4.30285 644.768L4.15753 644.184L4.01513 643.588L3.87563 642.981L3.73899 642.362L3.60517 641.73L3.47415 641.086L3.3459 640.428L3.22039 639.758L3.09759 639.073L2.97747 638.374L2.86001 637.66L2.74518 636.932L2.63297 636.187L2.52334 635.426L2.41627 634.649L2.31175 633.854L2.20975 633.041L2.11025 632.21L2.01323 631.359L1.91867 630.488L1.82655 629.596L1.73686 628.682L1.64959 627.745L1.5647 626.784L1.48219 625.799L1.40204 624.787L1.32424 623.748L1.24877 622.68L1.17562 621.582L1.10478 620.452L1.03623 619.289L0.969963 618.09L0.905963 616.853L0.844222 615.576L0.784728 614.256L0.727471 612.891L0.672441 611.477L0.61963 610.011L0.569027 608.489L0.520624 606.906L0.474414 605.257L0.430388 603.536L0.388539 601.737L0.34886 599.853L0.311344 597.873L0.275986 595.788L0.242779 593.586L0.211718 591.252L0.182798 588.767L0.156014 586.111L0.131363 583.255L0.108839 580.166L0.0884387 576.799L0.0701598 573.094L0.0539989 568.97L0.0399533 564.31L0.0280209 558.94L0.0181996 552.574L0.010488 544.708L0.00488468 534.285L0.00138888 518.347L0 475.48L0.000717821 157.382L0.00354246 137.931L0.00847436 126.255L0.0155143 117.734L0.0246635 110.962L0.0359232 105.312L0.0492955 100.449L0.0647823 96.1691L0.0823863 92.341L0.10211 88.8736L0.123957 85.7014L0.147931 82.7756L0.174035 80.059L0.202274 77.5223L0.232652 75.1422L0.265175 72.8995L0.299847 70.7788L0.336675 68.767L0.375664 66.8532L0.416821 65.0279L0.460153 63.2832L0.505667 61.6121L0.553371 60.0086L0.603272 58.4674L0.655379 56.9838L0.709701 55.5537L0.766247 54.1734L0.825028 52.8396L0.886052 51.5494L0.949331 50.3L1.01488 49.0891L1.0827 47.9144L1.15281 46.774L1.22522 45.666L1.29995 44.5888L1.37701 43.5408L1.4564 42.5206L1.53816 41.5269L1.62229 40.5584L1.7088 39.6142L1.79772 38.6931L1.88906 37.7941L1.98284 36.9164L2.07907 36.0591L2.17778 35.2215L2.27899 34.4028L2.3827 33.6023L2.48896 32.8194L2.59777 32.0534L2.70916 31.3038L2.82315 30.57L2.93977 29.8516L3.05903 29.1481L3.18098 28.4589L3.30563 27.7838L3.433 27.1222L3.56314 26.4737L3.69606 25.8381L3.8318 25.215L3.97039 24.604L4.11186 24.0048L4.25624 23.4171L4.40357 22.8406L4.55389 22.2751L4.70723 21.7204L4.86364 21.176L5.02314 20.6419L5.18578 20.1177L5.35162 19.6034L5.52067 19.0986L5.69301 18.6031L5.86867 18.1168L6.0477 17.6395L6.23015 17.1711L6.41608 16.7112L6.60554 16.2599L6.79859 15.8168L6.99529 15.382L7.1957 14.9552L7.39989 14.5363L7.60791 14.1251L7.81985 13.7216L8.03577 13.3256L8.25575 12.937L8.47986 12.5557L8.70819 12.1815L8.94083 11.8144L9.17786 11.4543L9.41938 11.1011L9.66547 10.7546L9.91625 10.4148L10.1718 10.0815L10.4323 9.75481L10.6978 9.43451L10.9684 9.12056L11.2442 8.81287L11.5255 8.51137L11.8123 8.21598L12.1048 7.92665L12.4031 7.6433L12.7074 7.36587L13.0179 7.09429L13.3347 6.8285L13.658 6.56846L13.9881 6.31409L14.3251 6.06534L14.6693 5.82217L15.0209 5.58451L15.3801 5.35233L15.7473 5.12557L16.1226 4.90419L16.5064 4.68814L16.8991 4.47739L17.3009 4.27188L17.7122 4.07157L18.1334 3.87644L18.5649 3.68644L19.0072 3.50153L19.4607 3.32169L19.9259 3.14687L20.4035 2.97705L20.8939 2.81219L21.3979 2.65227L21.9162 2.49725L22.4494 2.3471L22.9986 2.20181L23.5645 2.06134L24.1481 1.92567L24.7506 1.79477L25.3732 1.66863L26.0172 1.54721L26.6842 1.43051L27.3757 1.3185L28.0936 1.21116L28.8402 1.10847L29.6176 1.01041L30.4287 0.916979L31.2766 0.828147L32.1648 0.743904L33.0974 0.664235L34.0794 0.589128L35.1166 0.518569L36.2156 0.452548L37.3849 0.391053L38.6347 0.334076L39.9774 0.281605L41.4292 0.233633L43.0107 0.190152L44.7493 0.151155L46.6826 0.116636L48.8642 0.0865884L51.3741 0.0610085L54.341 0.0398918L57.9923 0.023235L62.7956 0.0110352L70.018 0.00329063L87.3543 0L240.448 0.00116278L250.206 0.00677917L255.903 0.0168501L260.02 0.031377L263.276 0.0503625L265.984 0.0738094L268.31 0.101722L270.354 0.134103L272.18 0.17096L273.833 0.212298L275.344 0.258123L276.736 0.308443L278.029 0.363267L279.235 0.422602L280.366 0.486459L281.432 0.554848L282.44 0.627781L283.395 0.705269L284.304 0.787324L285.171 0.873962L285.999 0.965196L286.792 1.06104L287.553 1.16151L288.285 1.26663L288.989 1.37641L289.667 1.49087L290.322 1.61003L290.954 1.73391L291.566 1.86253L292.159 1.99592L292.733 2.13409L293.29 2.27708L293.831 2.4249L294.356 2.57759L294.867 2.73517L295.364 2.89766L295.847 3.06511L296.318 3.23754L296.778 3.41498L297.225 3.59746L297.662 3.78502L298.088 3.9777L298.504 4.17553L298.91 4.37854L299.307 4.58679L299.695 4.8003L300.074 5.01913L300.445 5.24331L300.808 5.4729L301.164 5.70793L301.511 5.94846L301.852 6.19454L302.185 6.44621L302.512 6.70354L302.832 6.96658L303.145 7.23538L303.452 7.51001L303.753 7.79052L304.049 8.07699L304.338 8.36947L304.622 8.66804L304.9 8.97277L305.174 9.28372L305.441 9.60098L305.704 9.92462L305.962 10.2547L306.215 10.5914L306.464 10.9347L306.707 11.2847L306.946 11.6415L307.181 12.0053L307.412 12.376L307.638 12.7539L307.86 13.139L308.077 13.5315L308.291 13.9314L308.501 14.3389L308.707 14.754L308.909 15.1771L309.108 15.6081L309.303 16.0472L309.494 16.4945L309.681 16.9503L309.866 17.4146L310.046 17.8877L310.223 18.3696L310.397 18.8607L310.568 19.361L310.735 19.8708L310.899 20.3902L311.06 20.9195L311.218 21.459L311.373 22.0088L311.525 22.5691L311.674 23.1403L311.819 23.7226L311.962 24.3162L312.102 24.9215L312.239 25.5389L312.374 26.1685L312.505 26.8107L312.634 27.466L312.76 28.1346L312.883 28.817L313.004 29.5137L313.121 30.2249L313.237 30.9513L313.349 31.6932L313.459 32.4513L313.567 33.2261L313.672 34.0181L313.774 34.828L313.874 35.6565L313.971 36.5043L314.066 37.3721L314.159 38.2608L314.249 39.1712L314.337 40.1043L314.422 41.0611L314.505 42.0426L314.585 43.05L314.663 44.0845L314.739 45.1476L314.813 46.2407L314.884 47.3654L314.953 48.5235L315.02 49.7168L315.084 50.9475L315.146 52.2179L315.206 53.5305L315.264 54.8882L315.319 56.2941L315.372 57.7516L315.423 59.2647L315.472 60.8378L315.518 62.4759L315.563 64.1847L315.605 65.9705L315.645 67.841L315.683 69.8047L315.718 71.8719L315.752 74.0545L315.783 76.3668L315.813 78.8261L315.84 81.4535L315.865 84.2752L315.888 87.3244L315.908 90.6438L315.927 94.29L315.944 98.3406L315.958 102.905L315.97 108.147L315.98 114.329L315.988 121.906L315.994 131.805L315.998 146.462L316 178.821L316 334Z" fill="white"/>
</svg>
