<svg width="1008" height="668" viewBox="0 0 1008 668" fill="none" xmlns="http://www.w3.org/2000/svg">
<path fill-rule="evenodd" clip-rule="evenodd" d="M1008 334L1008 565.071L1007.99 578.245L1007.98 586.296L1007.97 592.168L1007.95 596.815L1007.93 600.672L1007.9 603.977L1007.87 606.87L1007.84 609.448L1007.8 611.772L1007.76 613.89L1007.71 615.837L1007.66 617.638L1007.6 619.314L1007.54 620.882L1007.48 622.355L1007.41 623.744L1007.34 625.059L1007.27 626.306L1007.19 627.492L1007.11 628.624L1007.02 629.706L1006.93 630.741L1006.83 631.734L1006.73 632.689L1006.62 633.607L1006.51 634.492L1006.4 635.345L1006.28 636.169L1006.16 636.966L1006.03 637.737L1005.9 638.483L1005.77 639.207L1005.63 639.909L1005.48 640.591L1005.34 641.254L1005.18 641.898L1005.02 642.524L1004.86 643.134L1004.7 643.727L1004.52 644.306L1004.35 644.87L1004.17 645.42L1003.98 645.957L1003.79 646.48L1003.59 646.992L1003.39 647.491L1003.19 647.979L1002.98 648.456L1002.76 648.923L1002.54 649.379L1002.32 649.825L1002.09 650.262L1001.85 650.689L1001.61 651.107L1001.36 651.516L1001.11 651.917L1000.85 652.31L1000.59 652.695L1000.32 653.072L1000.04 653.441L999.764 653.803L999.478 654.158L999.186 654.506L998.888 654.847L998.584 655.181L998.274 655.509L997.958 655.83L997.635 656.146L997.306 656.455L996.97 656.758L996.628 657.056L996.279 657.348L995.923 657.634L995.56 657.915L995.19 658.19L994.813 658.461L994.429 658.726L994.037 658.986L993.637 659.241L993.23 659.491L992.815 659.737L992.392 659.978L991.961 660.214L991.521 660.445L991.073 660.673L990.615 660.895L990.15 661.114L989.674 661.328L989.19 661.538L988.696 661.744L988.192 661.946L987.679 662.144L987.155 662.337L986.62 662.527L986.075 662.713L985.518 662.896L984.95 663.074L984.371 663.249L983.779 663.42L983.175 663.587L982.558 663.751L981.928 663.911L981.285 664.068L980.627 664.221L979.955 664.371L979.268 664.517L978.566 664.66L977.847 664.8L977.112 664.937L976.36 665.07L975.589 665.2L974.801 665.326L973.992 665.45L973.164 665.57L972.315 665.687L971.444 665.801L970.549 665.912L969.631 666.02L968.688 666.125L967.719 666.227L966.721 666.325L965.695 666.421L964.638 666.514L963.548 666.604L962.424 666.691L961.264 666.775L960.065 666.856L958.825 666.934L957.541 667.01L956.21 667.082L954.828 667.152L953.393 667.219L951.899 667.283L950.341 667.344L948.715 667.402L947.014 667.458L945.23 667.511L943.356 667.561L941.381 667.609L939.294 667.653L937.082 667.695L934.728 667.734L932.212 667.771L929.51 667.805L926.592 667.836L923.418 667.864L919.938 667.89L916.082 667.913L911.758 667.933L906.828 667.951L901.084 667.966L894.185 667.978L885.509 667.987L873.715 667.994L854.826 667.998L788.785 668L157.625 667.999L136.634 667.995L124.108 667.989L115.055 667.979L107.926 667.968L102.026 667.953L96.9824 667.936L92.572 667.916L88.6491 667.894L85.114 667.868L81.895 667.84L78.9388 667.81L76.2048 667.776L73.6613 667.74L71.283 667.702L69.0494 667.66L66.9437 667.616L64.9518 667.569L63.0621 667.519L61.2646 667.467L59.5506 667.411L57.9128 667.353L56.3449 667.293L54.8411 667.229L53.3965 667.163L52.0067 667.093L50.668 667.021L49.3767 666.946L48.1298 666.869L46.9244 666.788L45.7581 666.704L44.6286 666.618L43.5336 666.528L42.4714 666.436L41.4402 666.341L40.4384 666.242L39.4645 666.141L38.5171 666.037L37.5951 665.929L36.6972 665.819L35.8224 665.705L34.9696 665.589L34.138 665.469L33.3267 665.346L32.5348 665.22L31.7616 665.091L31.0065 664.958L30.2686 664.822L29.5475 664.683L28.8425 664.54L28.1531 664.395L27.4787 664.245L26.8188 664.093L26.1731 663.936L25.541 663.777L24.9221 663.613L24.316 663.447L23.7225 663.276L23.141 663.102L22.5713 662.924L22.013 662.743L21.4659 662.557L20.9297 662.368L20.404 662.175L19.8886 661.978L19.3833 661.776L18.8878 661.571L18.4019 661.362L17.9254 661.148L17.458 660.931L16.9996 660.708L16.55 660.482L16.1089 660.251L15.6762 660.016L15.2518 659.775L14.8354 659.531L14.4269 659.281L14.0262 659.027L13.6332 658.768L13.2476 658.503L12.8693 658.234L12.4983 657.959L12.1343 657.679L11.7773 657.394L11.4272 657.103L11.0838 656.806L10.7471 656.504L10.4169 656.195L10.0932 655.881L9.77575 655.56L9.46459 655.234L9.1596 654.9L8.86069 654.56L8.56777 654.214L8.28076 653.86L7.99959 653.499L7.72419 653.131L7.45448 652.755L7.19039 652.372L6.93186 651.98L6.67881 651.581L6.43119 651.173L6.18895 650.756L5.95201 650.33L5.72032 649.895L5.49383 649.451L5.27248 648.996L5.05623 648.531L4.84502 648.056L4.63881 647.57L4.43755 647.072L4.2412 646.563L4.04971 646.041L3.86304 645.506L3.68115 644.959L3.50401 644.397L3.33157 643.821L3.16381 643.229L3.00067 642.622L2.84215 641.998L2.68819 641.357L2.53876 640.698L2.39385 640.019L2.25342 639.32L2.11743 638.6L1.98588 637.857L1.85872 637.09L1.73594 636.298L1.61751 635.478L1.5034 634.63L1.39361 633.75L1.2881 632.837L1.18686 631.889L1.08986 630.902L0.997093 629.873L0.908538 628.8L0.824179 627.676L0.744 626.499L0.667986 625.262L0.596124 623.958L0.5284 622.582L0.464803 621.123L0.405321 619.571L0.349943 617.913L0.298659 616.133L0.25146 614.211L0.208337 612.122L0.169284 609.833L0.134293 607.3L0.103357 604.462L0.0764715 601.231L0.0536318 597.474L0.0348335 592.975L0.0200734 587.342L0.00934896 579.747L0.00265821 567.819L0 533.488L0.00137386 106.113L0.00678002 91.3703L0.0162195 82.8019L0.0296938 76.6695L0.0472055 71.8645L0.0687575 67.9004L0.0943537 64.5193L0.123999 61.5671L0.157698 58.9445L0.195456 56.5832L0.237282 54.4347L0.283181 52.4629L0.333163 50.6402L0.387236 48.9452L0.44541 47.3609L0.507695 45.8735L0.574103 44.4717L0.644646 43.146L0.719335 41.8885L0.798186 40.6927L0.881212 39.5526L0.968429 38.4634L1.05985 37.4208L1.1555 36.4209L1.25539 35.4606L1.35954 34.5368L1.46797 33.647L1.58069 32.7889L1.69774 31.9603L1.81914 31.1594L1.9449 30.3844L2.07505 29.634L2.20962 28.9066L2.34863 28.201L2.49212 27.516L2.6401 26.8506L2.79261 26.2038L2.94968 25.5746L3.11134 24.9622L3.27763 24.366L3.44857 23.785L3.62421 23.2188L3.80458 22.6666L3.98973 22.1278L4.17968 21.6021L4.37448 21.0887L4.57417 20.5873L4.7788 20.0975L4.98841 19.6187L5.20305 19.1507L5.42277 18.693L5.64761 18.2453L5.87764 17.8072L6.1129 17.3786L6.35345 16.9589L6.59935 16.5481L6.85066 16.1458L7.10744 15.7518L7.36975 15.3659L7.63766 14.9877L7.91125 14.6171L8.19057 14.254L8.47571 13.8981L8.76674 13.5491L9.06373 13.2071L9.36678 12.8717L9.67596 12.5428L9.99137 12.2203L10.3131 11.904L10.6412 11.5938L10.9759 11.2895L11.3171 10.9911L11.6651 10.6984L12.0198 10.4112L12.3816 10.1295L12.7503 9.85313L13.1263 9.58203L13.5095 9.31608L13.9002 9.05519L14.2985 8.79926L14.7044 8.54821L15.1183 8.30194L15.5401 8.06038L15.9702 7.82344L16.4085 7.59106L16.8554 7.36316L17.311 7.13966L17.7755 6.9205L18.2491 6.70561L18.732 6.49493L19.2244 6.2884L19.7266 6.08596L20.2387 5.88755L20.7611 5.69312L21.2939 5.50261L21.8376 5.31597L22.3922 5.13316L22.9583 4.95413L23.5359 4.77882L24.1256 4.6072L24.7277 4.43922L25.3424 4.27484L25.9703 4.11402L26.6116 3.95672L27.2669 3.8029L27.9366 3.65253L28.6212 3.50558L29.3212 3.362L30.0372 3.22177L30.7696 3.08485L31.5192 2.95122L32.2865 2.82084L33.0724 2.69368L33.8774 2.56972L34.7025 2.44893L35.5484 2.33129L36.4161 2.21677L37.3065 2.10535L38.2207 1.997L39.1599 1.8917L40.1252 1.78943L41.118 1.69017L42.1397 1.5939L43.1918 1.5006L44.2761 1.41025L45.3945 1.32283L46.5488 1.23833L47.7415 1.15673L48.9748 1.07802L50.2517 1.00218L51.575 0.92919L52.948 0.859043L54.3747 0.791725L55.8591 0.727222L57.4061 0.665523L59.021 0.606616L60.7099 0.55049L62.48 0.497135L64.3393 0.446541L66.2974 0.3987L68.3655 0.353601L70.5567 0.311238L72.8869 0.271602L75.3753 0.234687L78.0455 0.200485L80.927 0.168991L84.0572 0.140199L87.4849 0.114104L91.275 0.0907011L95.517 0.0699862L100.339 0.0519557L105.935 0.0366064L112.618 0.0239357L120.949 0.0139412L132.096 0.00662116L149.291 0.00197438L193.052 0L845.15 0.000697671L868.831 0.00406752L882.192 0.0101101L891.657 0.0188266L899.034 0.0302184L905.099 0.0442876L910.261 0.0610367L914.761 0.0804685L918.754 0.102587L922.346 0.127395L925.611 0.154898L928.606 0.1851L931.373 0.218007L933.945 0.253625L936.348 0.291961L938.604 0.33302L940.729 0.37681L942.738 0.42334L944.643 0.472618L946.455 0.524652L948.182 0.579453L949.831 0.637029L951.41 0.697393L952.923 0.760555L954.377 0.826527L955.775 0.895321L957.122 0.96695L958.421 1.04143L959.674 1.11877L960.886 1.19898L962.059 1.2821L963.194 1.36812L964.294 1.45706L965.361 1.54895L966.398 1.6438L967.404 1.74163L968.382 1.84246L969.334 1.94631L970.26 2.0532L971.161 2.16315L972.04 2.27619L972.896 2.39234L973.731 2.51162L974.545 2.63406L975.34 2.75968L976.116 2.88852L976.874 3.02059L977.615 3.15594L978.339 3.29458L979.046 3.43656L979.738 3.5819L980.415 3.73063L981.077 3.88279L981.725 4.03842L982.359 4.19756L982.98 4.36023L983.588 4.52648L984.184 4.69636L984.767 4.8699L985.339 5.04715L985.899 5.22815L986.448 5.41295L986.986 5.60161L987.513 5.79416L988.03 5.99066L988.537 6.19117L989.034 6.39574L989.521 6.60443L989.999 6.81729L990.468 7.03441L990.928 7.25582L991.379 7.48161L991.821 7.71185L992.255 7.9466L992.681 8.18594L993.099 8.42995L993.508 8.67871L993.91 8.9323L994.305 9.19081L994.691 9.45433L995.071 9.72295L995.443 9.99678L995.808 10.2759L996.166 10.5605L996.517 10.8505L996.862 11.1462L997.2 11.4477L997.531 11.755L997.856 12.0684L998.174 12.3879L998.486 12.7137L998.792 13.046L999.092 13.3849L999.386 13.7305L999.674 14.083L999.956 14.4427L1000.23 14.8097L1000.5 15.1842L1000.77 15.5664L1001.03 15.9566L1001.28 16.3549L1001.53 16.7616L1001.77 17.177L1002.01 17.6013L1002.24 18.0348L1002.47 18.4778L1002.69 18.9307L1002.91 19.3938L1003.12 19.8674L1003.33 20.3519L1003.53 20.8477L1003.73 21.3553L1003.92 21.875L1004.11 22.4075L1004.29 22.9532L1004.47 23.5127L1004.64 24.0865L1004.81 24.6754L1004.97 25.2799L1005.13 25.901L1005.29 26.5393L1005.44 27.1957L1005.58 27.8712L1005.72 28.5668L1005.86 29.2836L1005.99 30.0229L1006.12 30.786L1006.24 31.5742L1006.36 32.3894L1006.48 33.2332L1006.59 34.1076L1006.7 35.0148L1006.8 35.9573L1006.89 36.9379L1006.99 37.9597L1007.08 39.0261L1007.16 40.1413L1007.24 41.3098L1007.32 42.5371L1007.39 43.8293L1007.46 45.1937L1007.53 46.6389L1007.59 48.1754L1007.64 49.8156L1007.69 51.5748L1007.74 53.4724L1007.79 55.5326L1007.82 57.787L1007.86 60.2777L1007.89 63.0623L1007.92 66.2233L1007.94 69.8847L1007.96 74.2458L1007.98 79.6593L1007.99 86.8501L1008 97.7603L1008 123.138L1008 334Z" fill="white"/>
</svg>
