<svg width="37" height="32" viewBox="0 0 37 32" fill="none" xmlns="http://www.w3.org/2000/svg">
<g clip-path="url(#clip0)">
<path d="M29.643 4.0683C27.666 4.0683 26.0576 5.67664 26.0576 7.65364C26.0576 9.63064 27.666 11.239 29.643 11.239C31.62 11.239 33.2283 9.63064 33.2283 7.65364C33.2283 5.67664 31.62 4.0683 29.643 4.0683ZM29.643 10.1951C28.2413 10.1951 27.1015 9.05501 27.1015 7.65364C27.1015 6.25227 28.2416 5.11214 29.643 5.11214C31.0443 5.11214 32.1845 6.25227 32.1845 7.65364C32.1845 9.05501 31.0443 10.1951 29.643 10.1951Z" fill="#FE9393"/>
<path d="M33.7138 0.652802H7.29776C5.83047 0.652802 4.63689 1.84638 4.63689 3.31367V4.62335H3.48047C2.01319 4.62335 0.819336 5.81693 0.819336 7.28449V28.7754C0.819336 30.243 2.01319 31.4366 3.48047 31.4366H20.9629C21.2512 31.4366 21.4848 31.203 21.4848 30.9146C21.4848 30.6266 21.2512 30.393 20.9629 30.393H3.48047C2.58854 30.393 1.8629 29.6673 1.8629 28.7754V7.28449C1.8629 6.39256 2.58854 5.66692 3.48047 5.66692H4.63689V24.8051C4.63689 26.2724 5.83047 27.466 7.29776 27.466H31.5138V28.7754C31.5138 29.6673 30.7882 30.393 29.8965 30.393H24.268C23.9796 30.393 23.7461 30.6266 23.7461 30.9146C23.7461 31.203 23.9796 31.4366 24.268 31.4366H29.8965C31.3638 31.4366 32.5574 30.243 32.5574 28.7754V27.466H33.7138C35.1811 27.466 36.375 26.2724 36.375 24.8051V3.31367C36.375 1.84638 35.1811 0.652802 33.7138 0.652802ZM35.3314 20.231L28.3753 12.3919C28.2171 12.2134 27.9893 12.1068 27.7508 12.0998C27.5126 12.0911 27.2785 12.1852 27.1098 12.3539L22.7966 16.6652L17.0949 10.2394C16.9367 10.0609 16.7089 9.95458 16.4704 9.94753C16.2295 9.93885 15.9981 10.033 15.8294 10.2017L11.7862 14.2431C11.5822 14.4468 11.5822 14.7772 11.7859 14.9812C11.9896 15.1852 12.32 15.1849 12.5237 14.9812L16.4368 11.0703L23.8475 19.4221C23.9506 19.5382 24.0941 19.5973 24.2382 19.5973C24.3613 19.5973 24.485 19.5542 24.5843 19.466C24.8 19.2745 24.8195 18.9449 24.6282 18.7293L23.4905 17.447L27.7172 13.2225L35.3314 21.8036V24.8049C35.3314 25.6968 34.6057 26.4224 33.7138 26.4224H7.29776C6.4061 26.4224 5.68046 25.6968 5.68046 24.8049V21.8215L10.2695 17.2349C10.4732 17.0309 10.4735 16.7005 10.2698 16.4967C10.0658 16.2928 9.73537 16.2928 9.53165 16.4965L5.68046 20.346V3.31367C5.68046 2.42201 6.4061 1.69637 7.29776 1.69637H33.7138C34.6057 1.69637 35.3314 2.42201 35.3314 3.31367V20.231Z" fill="#FE9393"/>
</g>
<defs>
<clipPath id="clip0">
<rect width="36.4444" height="32" fill="white"/>
</clipPath>
</defs>
</svg>
