<svg width="48" height="48" viewBox="0 0 48 48" fill="none" xmlns="http://www.w3.org/2000/svg">
<path d="M12 0C10.35 0 9 1.35 9 3V45C9 46.65 10.35 48 12 48H42C43.65 48 45 46.65 45 45V12L33 0H12Z" fill="#E2E5E7"/>
<path d="M36 12H45L33 0V9C33 10.65 34.35 12 36 12Z" fill="#B0B7BD"/>
<path d="M45 21L36 12H45V21Z" fill="#CAD1D8"/>
<path d="M39 39C39 39.825 38.325 40.5 37.5 40.5H4.5C3.675 40.5 3 39.825 3 39V24C3 23.175 3.675 22.5 4.5 22.5H37.5C38.325 22.5 39 23.175 39 24V39Z" fill="#FE9393"/>
<path d="M8.70142 28.4205C8.70142 28.0245 9.01192 27.591 9.51592 27.591H12.2879C13.8464 27.591 15.2504 28.635 15.2504 30.6375C15.2504 32.5335 13.8464 33.588 12.2879 33.588H10.2824V35.172C10.2824 35.7015 9.94942 36 9.51592 36C9.11992 36 8.70142 35.7015 8.70142 35.172V28.4205ZM10.2824 29.103V32.0895H12.2864C13.0889 32.0895 13.7249 31.3815 13.7249 30.6375C13.7249 29.7975 13.0889 29.103 12.2864 29.103H10.2824Z" fill="white"/>
<path d="M16.7788 28.5405C16.7788 28.107 16.8748 27.6885 17.4988 27.6885C17.9293 27.6885 18.0268 27.7965 18.3493 28.107L22.3183 33.0735V28.4205C22.3183 28.0245 22.6648 27.591 23.0743 27.591C23.5063 27.591 23.9248 28.0245 23.9248 28.4205V35.172C23.9248 35.7015 23.6008 35.9025 23.2888 36C22.8703 36 22.6648 35.904 22.3183 35.5815L18.3493 30.543V35.1735C18.3493 35.703 18.0253 36.0015 17.5933 36.0015C17.1613 36.0015 16.7773 35.703 16.7773 35.1735V28.5405H16.7788Z" fill="white"/>
<path d="M32.9474 35.0775C32.0954 35.784 31.0514 36.0855 29.9969 36.0855C27.4769 36.0855 25.6904 34.6455 25.6904 31.791C25.6904 29.3685 27.5744 27.486 30.1034 27.486C31.0514 27.486 32.0939 27.81 32.8379 28.542C33.5699 29.2605 32.5139 30.3285 31.7954 29.694C31.3514 29.2605 30.7274 28.938 30.1034 28.938C28.6529 28.938 27.2504 30.1005 27.2504 31.791C27.2504 33.567 28.4249 34.6455 29.9969 34.6455C30.7274 34.6455 31.3514 34.4295 31.7954 34.1055V32.6325H29.9969C28.9289 32.6325 29.0369 31.167 29.9969 31.167H32.3954C32.8394 31.167 33.2459 31.5045 33.2459 31.8765V34.431C33.2459 34.6455 33.1514 34.848 32.9474 35.0775Z" fill="white"/>
<path d="M37.5 40.5H9V42H37.5C38.325 42 39 41.325 39 40.5V39C39 39.825 38.325 40.5 37.5 40.5Z" fill="#CAD1D8"/>
</svg>
