<svg width="40" height="40" viewBox="0 0 40 40" fill="none" xmlns="http://www.w3.org/2000/svg">
<path d="M4.45031 17.6795C4.55807 18.0421 4.70274 18.3927 4.88203 18.7258C4.9304 19.9699 5.20243 21.1952 5.68508 22.343C6.37461 23.9254 7.26023 24.563 8.03742 24.7805C8.12172 25.5924 8.34836 26.8456 8.54016 27.5133C9.58836 31.1631 12.1109 34.1611 15.6429 35.9548C17.5854 36.9352 19.7085 37.5064 21.8807 37.6331C24.0529 37.7599 26.228 37.4395 28.2714 36.6918C32.307 35.2125 35.5946 32.1272 37.2912 28.2264C38.8849 24.5623 38.9246 20.5569 37.4032 16.9476C37.4016 16.9437 37.3999 16.9398 37.3982 16.9361C36.1054 14.0555 33.7911 11.8635 30.8816 10.7642C27.9759 9.66617 24.7875 9.77437 21.9038 11.0689C18.7284 12.4939 16.2095 15.3069 15.1653 18.5935C14.2623 21.4362 14.5531 24.3357 15.9843 26.7568C16.4836 27.6017 18.3696 30.4148 21.6718 31.1382L21.6815 31.1402C23.9216 31.5887 26.6183 31.23 27.9642 29.5116C28.1023 29.5857 28.2581 29.6204 28.4146 29.6119C28.5711 29.6035 28.7222 29.5522 28.8516 29.4637L31.0194 27.9891C31.1305 27.9981 31.2422 28.0034 31.3548 28.0034C31.4173 28.0034 31.48 28.002 31.543 27.9992C32.6227 27.9492 33.6385 27.473 34.3675 26.6751C35.0966 25.8771 35.4794 24.8225 35.4319 23.7427C35.4046 23.1512 35.2488 22.5727 34.9752 22.0475C34.7017 21.5222 34.317 21.0629 33.848 20.7014C33.3789 20.3399 32.8368 20.085 32.2592 19.9543C31.6816 19.8236 31.0825 19.8203 30.5035 19.9446C29.9245 20.0689 29.3796 20.3178 28.9066 20.6741C28.4335 21.0304 28.0438 21.4854 27.7645 22.0076C27.4852 22.5297 27.3229 23.1065 27.2891 23.6977C27.2553 24.2889 27.3507 24.8804 27.5686 25.431L26.8145 27.9284C26.7645 28.0917 26.7646 28.2662 26.8148 28.4295C26.865 28.5928 26.963 28.7372 27.0962 28.8442C26.0337 30.182 23.7308 30.4339 21.9009 30.0687C19.033 29.4382 17.3677 26.9487 16.9254 26.2004C15.6548 24.0505 15.3998 21.4666 16.2073 18.9248C17.1586 15.9301 19.4553 13.3664 22.3512 12.0669C24.9692 10.8916 27.8612 10.7924 30.4945 11.7875C33.1279 12.7826 35.2241 14.7681 36.3973 17.3785C37.7988 20.708 37.7601 24.4056 36.288 27.7905C34.7098 31.418 31.6509 34.288 27.8948 35.6647C25.9925 36.3611 23.9675 36.6596 21.9452 36.5418C19.9229 36.4239 17.9463 35.8922 16.1378 34.9795C12.8796 33.3248 10.5546 30.5659 9.59094 27.2112C9.39126 26.4359 9.24251 25.6484 9.14563 24.8537C11.7828 24.5352 12.5452 21.049 12.5784 18.8439C12.7941 18.4717 12.9542 18.0699 13.0537 17.6514C13.6355 15.324 15.9723 5.82804 15.9958 5.73242C16.0062 5.68964 16.0115 5.64575 16.0114 5.60171C16.0114 4.58867 15.4071 3.40281 14.287 3.20046C13.7948 3.11156 13.2604 3.13875 12.8902 3.16617V2.89148C12.8902 2.74644 12.8326 2.60734 12.7301 2.50478C12.6275 2.40222 12.4884 2.3446 12.3434 2.3446C12.1983 2.3446 12.0592 2.40222 11.9567 2.50478C11.8541 2.60734 11.7965 2.74644 11.7965 2.89148V4.68835C11.7965 4.83339 11.8541 4.97249 11.9567 5.07505C12.0592 5.17761 12.1983 5.23523 12.3434 5.23523C12.4884 5.23523 12.6275 5.17761 12.7301 5.07505C12.8326 4.97249 12.8902 4.83339 12.8902 4.68835V4.26312C13.2223 4.23726 13.6949 4.20492 14.0927 4.27679C14.5839 4.36554 14.8947 4.98898 14.9164 5.54031C14.702 6.41187 12.5473 15.1653 11.9923 17.3856C11.6449 18.7769 10.9471 18.9842 10.5625 18.9842H6.93406C6.76477 18.9842 6.3432 18.9842 5.93305 18.3514C5.91137 18.2981 5.88139 18.2485 5.84422 18.2045C5.69861 17.9353 5.5818 17.6515 5.4957 17.3578C4.76078 14.9692 2.77641 6.42171 2.57977 5.5721C2.6143 4.96085 3.20531 4.3364 3.48875 4.29195C3.8085 4.25085 4.13151 4.24132 4.45312 4.26351V4.68835C4.45312 4.83339 4.51074 4.97249 4.6133 5.07505C4.71586 5.17761 4.85496 5.23523 5 5.23523C5.14504 5.23523 5.28414 5.17761 5.3867 5.07505C5.48926 4.97249 5.54688 4.83339 5.54688 4.68835V2.89148C5.54688 2.74644 5.48926 2.60734 5.3867 2.50478C5.28414 2.40222 5.14504 2.3446 5 2.3446C4.85496 2.3446 4.71586 2.40222 4.6133 2.50478C4.51074 2.60734 4.45312 2.74644 4.45312 2.89148V3.16843C4.07466 3.14552 3.69486 3.15992 3.31922 3.2114C2.89461 3.27804 2.44008 3.5864 2.07227 4.05757C1.6932 4.54304 1.48438 5.10078 1.48438 5.62781C1.48436 5.66923 1.48908 5.71051 1.49844 5.75085C1.58672 6.13304 3.66906 15.1405 4.45031 17.6795ZM31.2249 20.9463C31.2705 20.9443 31.3158 20.9433 31.361 20.9433C32.1284 20.9446 32.8657 21.2413 33.4203 21.7717C33.9748 22.302 34.304 23.0255 34.3395 23.792C34.3589 24.2306 34.2815 24.6681 34.1125 25.0733C33.9436 25.4785 33.6873 25.8415 33.362 26.1363C33.0367 26.4312 32.6504 26.6506 32.2306 26.7791C31.8108 26.9075 31.3678 26.9417 30.9332 26.8794C30.9317 26.8794 30.9302 26.8789 30.9287 26.8788C30.4409 26.8071 29.9783 26.6159 29.5822 26.3222C29.1862 26.0286 28.8688 25.6417 28.6583 25.1958C28.6537 25.1844 28.6487 25.1734 28.6434 25.1624C28.4419 24.7182 28.3522 24.2314 28.3823 23.7445C28.4123 23.2577 28.5613 22.7856 28.816 22.3696C29.0707 21.9536 29.4235 21.6063 29.8435 21.3582C30.2635 21.1101 30.7379 20.9687 31.2252 20.9463H31.2249ZM28.6094 26.9365C28.9113 27.2125 29.253 27.4416 29.623 27.6162L28.3785 28.4627L27.9078 28.0916L28.3387 26.6646C28.4244 26.7587 28.5146 26.8493 28.6094 26.9365ZM6.93406 20.078H10.5625C10.8523 20.0798 11.1395 20.024 11.4076 19.9139C11.1893 21.6649 10.4756 23.7832 8.74852 23.7832C7.23625 23.7832 6.41375 21.6235 6.11078 19.9203C6.37207 20.0268 6.6519 20.0804 6.93406 20.078Z" fill="#FE9393"/>
</svg>
