<svg width="40" height="40" viewBox="0 0 40 40" fill="none" xmlns="http://www.w3.org/2000/svg">
<path d="M24.0493 30.4137C23.9043 30.4137 23.7652 30.4713 23.6626 30.5739C23.5601 30.6764 23.5024 30.8155 23.5024 30.9606C23.5024 31.1056 23.5601 31.2447 23.6626 31.3473C23.7652 31.4498 23.9043 31.5074 24.0493 31.5074H26.6305C26.7755 31.5074 26.9146 31.4498 27.0172 31.3473C27.1197 31.2447 27.1774 31.1056 27.1774 30.9606C27.1774 30.8155 27.1197 30.6764 27.0172 30.5739C26.9146 30.4713 26.7755 30.4137 26.6305 30.4137H24.0493Z" fill="#FE9393"/>
<path d="M13.3696 31.5074H21.8514C21.9964 31.5074 22.1355 31.4498 22.2381 31.3473C22.3406 31.2447 22.3982 31.1056 22.3982 30.9606C22.3982 30.8155 22.3406 30.6764 22.2381 30.5739C22.1355 30.4713 21.9964 30.4137 21.8514 30.4137H13.3696C13.2246 30.4137 13.0855 30.4713 12.9829 30.5739C12.8804 30.6764 12.8228 30.8155 12.8228 30.9606C12.8228 31.1056 12.8804 31.2447 12.9829 31.3473C13.0855 31.4498 13.2246 31.5074 13.3696 31.5074Z" fill="#FE9393"/>
<path d="M25.0561 1.875H14.9443C14.7993 1.875 14.6602 1.93262 14.5576 2.03518C14.4551 2.13773 14.3975 2.27683 14.3975 2.42188V4.33992H10.7256C9.75208 4.34102 8.81876 4.72823 8.13039 5.4166C7.44202 6.10497 7.05481 7.03829 7.05371 8.0118V34.4531C7.05481 35.4266 7.44202 36.36 8.13039 37.0483C8.81876 37.7367 9.75208 38.1239 10.7256 38.125H29.275C30.2485 38.1239 31.1818 37.7367 31.8702 37.0483C32.5585 36.36 32.9457 35.4266 32.9468 34.4531V8.0118C32.9457 7.03829 32.5585 6.10497 31.8702 5.4166C31.1818 4.72823 30.2485 4.34102 29.275 4.33992H25.6031V2.42188C25.6031 2.35005 25.5889 2.27892 25.5614 2.21256C25.5339 2.1462 25.4937 2.0859 25.4429 2.03512C25.3921 1.98434 25.3317 1.94406 25.2654 1.91658C25.199 1.88911 25.1279 1.87498 25.0561 1.875ZM15.4912 2.96875H24.5092V6.6725H15.4912V2.96875ZM29.275 5.43367C29.9585 5.43444 30.6138 5.70631 31.0971 6.18963C31.5804 6.67296 31.8523 7.32827 31.8531 8.0118V34.4531C31.8523 35.1366 31.5804 35.7919 31.0971 36.2753C30.6138 36.7586 29.9585 37.0305 29.275 37.0312H10.7254C10.0419 37.0305 9.38661 36.7586 8.90329 36.2753C8.41997 35.7919 8.14809 35.1366 8.1473 34.4531V8.0118C8.14807 7.32827 8.41994 6.67296 8.90326 6.18963C9.38659 5.70631 10.0419 5.43444 10.7254 5.43367H14.3973V7.21937C14.3973 7.36442 14.4549 7.50352 14.5575 7.60607C14.66 7.70863 14.7991 7.76625 14.9442 7.76625H25.0559C25.2009 7.76625 25.34 7.70863 25.4426 7.60607C25.5452 7.50352 25.6028 7.36442 25.6028 7.21937V5.43367H29.275Z" fill="#FE9393"/>
<path d="M22.3472 22.4615V21.536C22.8347 21.2207 23.2535 20.8103 23.5787 20.3294C23.9038 19.8484 24.1286 19.3069 24.2396 18.737L24.3618 18.3161C24.701 18.169 24.9772 17.9068 25.1416 17.5757C25.306 17.2446 25.3481 16.8661 25.2603 16.507C25.2171 16.3257 25.1355 16.1559 25.0209 16.0089C24.9063 15.862 24.7615 15.7414 24.5962 15.6554V13.9952C24.5987 13.3902 24.4817 12.7907 24.2519 12.231C24.0221 11.6713 23.684 11.1625 23.2571 10.7338C22.8301 10.3051 22.3228 9.96493 21.764 9.73282C21.2053 9.50071 20.6062 9.38123 20.0012 9.38123C19.3962 9.38123 18.7971 9.50071 18.2383 9.73282C17.6796 9.96493 17.1722 10.3051 16.7453 10.7338C16.3183 11.1625 15.9803 11.6713 15.7505 12.231C15.5207 12.7907 15.4036 13.3902 15.4061 13.9952V15.6543C15.2404 15.7402 15.0952 15.8609 14.9803 16.008C14.8654 16.1551 14.7835 16.3253 14.7403 16.5069C14.6525 16.866 14.6945 17.2446 14.8589 17.5756C15.0234 17.9067 15.2996 18.169 15.6387 18.3161L15.761 18.737C15.872 19.3069 16.0968 19.8484 16.4219 20.3294C16.7471 20.8103 17.1659 21.2207 17.6533 21.536V22.4615L15.0507 23.3052C14.6299 23.4377 14.2487 23.6729 13.9416 23.9897C13.6345 24.3064 13.4113 24.6947 13.292 25.1195C13.2829 25.1527 13.2744 25.186 13.2667 25.2195C13.2235 25.4093 13.2026 25.6034 13.2042 25.7981V27.8306C13.2042 27.9757 13.2618 28.1148 13.3644 28.2173C13.4669 28.3199 13.606 28.3775 13.7511 28.3775H26.2498C26.3949 28.3775 26.534 28.3199 26.6365 28.2173C26.7391 28.1148 26.7967 27.9757 26.7967 27.8306V25.7981C26.7983 25.6037 26.7773 25.4097 26.7342 25.22C26.7264 25.1863 26.7179 25.153 26.7086 25.1193C26.5893 24.6947 26.3661 24.3064 26.0591 23.9897C25.752 23.673 25.3709 23.4379 24.9501 23.3055L22.3472 22.4615ZM23.5019 13.9952V15.5044C22.703 15.4589 21.1279 15.2652 19.7086 14.4774C20.7586 14.312 21.9833 13.9452 23.0065 13.1604C23.0947 13.0927 23.1601 12.9997 23.1941 12.8939C23.228 12.788 23.2289 12.6743 23.1965 12.5679C23.3981 13.0167 23.5022 13.5032 23.5019 13.9952ZM20.0007 10.4939C20.6491 10.4946 21.2846 10.6751 21.8365 11.0154C22.3884 11.3557 22.8351 11.8425 23.1268 12.4215C23.1205 12.4122 23.1146 12.4027 23.1076 12.3937C23.0194 12.2786 22.889 12.2033 22.7452 12.1843C22.6014 12.1653 22.456 12.2043 22.3409 12.2925C20.4196 13.7659 17.4737 13.4878 17.4447 13.4854C17.3686 13.4775 17.2916 13.4858 17.2189 13.5095C17.1461 13.5333 17.0791 13.572 17.0223 13.6233C16.9654 13.6746 16.92 13.7372 16.8889 13.8072C16.8578 13.8771 16.8417 13.9528 16.8417 14.0294V14.6213C16.8416 14.756 16.8107 14.8889 16.7514 15.0099C16.692 15.1308 16.6058 15.2366 16.4993 15.3192V13.9952C16.5004 13.067 16.8696 12.177 17.526 11.5206C18.1824 10.8642 19.0724 10.495 20.0007 10.4939ZM16.8299 18.508C16.8266 18.4907 16.8225 18.4735 16.8175 18.4564L16.6186 17.7717C16.5964 17.6643 16.5424 17.566 16.4637 17.4896C16.385 17.4132 16.2851 17.3622 16.1771 17.3433C16.1137 17.3319 16.0533 17.3077 15.9996 17.2721C15.946 17.2365 15.9002 17.1903 15.865 17.1363C15.8299 17.0824 15.8062 17.0218 15.7954 16.9583C15.7845 16.8948 15.7868 16.8298 15.8021 16.7672C15.8089 16.7359 15.8229 16.7066 15.8429 16.6816C15.8629 16.6565 15.8884 16.6365 15.9175 16.6229C15.9291 16.6237 15.9409 16.6247 15.9525 16.6247C16.0158 16.6246 16.0787 16.6134 16.1383 16.5917C16.6292 16.5457 17.0854 16.3183 17.4177 15.954C17.75 15.5896 17.9345 15.1145 17.9351 14.6213V14.6034L17.982 14.6038C20.3685 16.6663 23.732 16.6194 24.0499 16.6106C24.0863 16.621 24.1192 16.6411 24.1452 16.6687C24.1712 16.6962 24.1893 16.7303 24.1975 16.7673C24.2128 16.8298 24.2151 16.8949 24.2043 16.9583C24.1934 17.0218 24.1697 17.0824 24.1346 17.1364C24.0995 17.1903 24.0537 17.2365 24 17.2721C23.9463 17.3077 23.8859 17.3319 23.8225 17.3433C23.7188 17.3623 23.6226 17.4107 23.5455 17.4827C23.4684 17.5547 23.4136 17.6473 23.3875 17.7495L23.1821 18.4564C23.1772 18.4735 23.173 18.4907 23.1697 18.508C23.0308 19.2471 22.6379 19.9144 22.0591 20.3945C21.4803 20.8746 20.7519 21.1374 19.9998 21.1374C19.2478 21.1374 18.5194 20.8746 17.9405 20.3945C17.3617 19.9144 16.9689 19.2471 16.8299 18.508ZM19.9998 22.2313C20.4246 22.2312 20.8471 22.1683 21.2535 22.0447V22.5169C20.4508 22.8493 19.5489 22.8493 18.7461 22.5169V22.0447C19.1526 22.1683 19.575 22.2312 19.9998 22.2313ZM25.6536 25.4085C25.659 25.4281 25.6641 25.4475 25.6688 25.4682C25.6927 25.5765 25.7042 25.6872 25.7029 25.7981V27.2838H14.2967V25.7981C14.2955 25.6871 14.307 25.5763 14.3309 25.4679C14.3355 25.4479 14.3406 25.4281 14.3459 25.4088C14.4175 25.159 14.5502 24.9311 14.7319 24.7455C14.9137 24.5599 15.1389 24.4225 15.3871 24.3458L18.1508 23.4498C18.7297 23.72 19.3609 23.8601 19.9998 23.8601C20.6387 23.8601 21.2699 23.72 21.8489 23.4498L24.6126 24.3458C24.8608 24.4225 25.0859 24.5598 25.2676 24.7454C25.4493 24.9309 25.582 25.1588 25.6536 25.4085Z" fill="#FE9393"/>
<path d="M26.6305 33.8512H22.1743C22.0293 33.8512 21.8902 33.9088 21.7876 34.0114C21.6851 34.1139 21.6274 34.253 21.6274 34.3981C21.6274 34.5431 21.6851 34.6822 21.7876 34.7848C21.8902 34.8873 22.0293 34.945 22.1743 34.945H26.6305C26.7755 34.945 26.9146 34.8873 27.0172 34.7848C27.1197 34.6822 27.1774 34.5431 27.1774 34.3981C27.1774 34.253 27.1197 34.1139 27.0172 34.0114C26.9146 33.9088 26.7755 33.8512 26.6305 33.8512Z" fill="#FE9393"/>
<path d="M20.2889 33.8512H17.9106C17.7656 33.8512 17.6265 33.9088 17.5239 34.0114C17.4214 34.1139 17.3638 34.253 17.3638 34.3981C17.3638 34.5431 17.4214 34.6822 17.5239 34.7848C17.6265 34.8873 17.7656 34.945 17.9106 34.945H20.2889C20.434 34.945 20.5731 34.8873 20.6756 34.7848C20.7782 34.6822 20.8358 34.5431 20.8358 34.3981C20.8358 34.253 20.7782 34.1139 20.6756 34.0114C20.5731 33.9088 20.434 33.8512 20.2889 33.8512Z" fill="#FE9393"/>
<path d="M15.9524 33.8512H13.3696C13.2246 33.8512 13.0855 33.9088 12.9829 34.0114C12.8804 34.1139 12.8228 34.253 12.8228 34.3981C12.8228 34.5431 12.8804 34.6822 12.9829 34.7848C13.0855 34.8873 13.2246 34.945 13.3696 34.945H15.9524C16.0975 34.945 16.2366 34.8873 16.3391 34.7848C16.4417 34.6822 16.4993 34.5431 16.4993 34.3981C16.4993 34.253 16.4417 34.1139 16.3391 34.0114C16.2366 33.9088 16.0975 33.8512 15.9524 33.8512Z" fill="#FE9393"/>
</svg>
