<svg width="40" height="40" viewBox="0 0 40 40" fill="none" xmlns="http://www.w3.org/2000/svg">
<path d="M36.297 7.08246L36.2931 7.07973L36.2864 7.07488C35.1539 6.28398 33.754 5.97454 32.3937 6.21442C31.0334 6.45431 29.8237 7.22394 29.0301 8.35449L23.2032 16.6745V8.6077C23.2032 7.21707 22.6823 5.9202 21.7365 4.98129C21.2587 4.51108 20.6929 4.1396 20.0715 3.88809C19.4501 3.63657 18.7853 3.50994 18.1149 3.51543H18.1066C15.1444 3.51543 12.7345 5.81527 12.7345 8.6077V23.242L8.04508 21.9806C6.71432 21.6259 5.2973 21.812 4.10323 22.4982C2.90916 23.1844 2.03499 24.3151 1.67148 25.6435C1.66836 25.6529 1.66547 25.6625 1.66289 25.6721C1.30703 27.0069 1.49513 28.4283 2.18591 29.6245C2.8767 30.8207 4.01376 31.6941 5.34766 32.053L21.1116 36.2775C21.554 36.3965 22.0101 36.4569 22.4682 36.4572C23.6102 36.4543 24.7196 36.0766 25.6262 35.3823C26.5329 34.6879 27.1866 33.7152 27.487 32.6135C27.49 32.6045 27.4927 32.5954 27.4948 32.5861C27.8274 31.339 27.6863 30.0131 27.0988 28.8639C27.528 28.5381 27.9036 28.1469 28.2117 27.7047L37.5735 14.3357C38.3655 13.2044 38.6759 11.805 38.4365 10.4449C38.1971 9.08482 37.4276 7.87542 36.297 7.08246ZM13.8282 24.94V17.4217H22.1095V24.94C22.1095 27.2715 20.3152 29.1404 18.1098 29.1404H18.1016C15.8251 29.1404 13.8282 27.1925 13.8282 24.94ZM18.1066 4.60918H18.1149C20.3922 4.60918 22.1095 6.3441 22.1095 8.6077V16.3279H13.8282V8.6077C13.8282 6.41832 15.7474 4.60918 18.1066 4.60918ZM2.71406 25.9752C2.71695 25.9664 2.71961 25.9574 2.72188 25.9484C3.00525 24.8948 3.69497 23.9965 4.63974 23.4508C5.58451 22.905 6.70718 22.7562 7.76149 23.0371L12.7345 24.3748V24.94C12.7345 26.219 13.2453 27.4926 14.1442 28.4767L12.9438 32.9565L5.63055 30.9967C4.58013 30.714 3.68408 30.0275 3.13775 29.0868C2.59142 28.1462 2.43912 27.0277 2.71406 25.9752ZM26.4436 32.2846C26.4409 32.293 26.4384 32.3016 26.4358 32.3102C26.2959 32.8324 26.0546 33.3219 25.7255 33.7508C25.3964 34.1797 24.9861 34.5396 24.518 34.8099C24.0498 35.0802 23.533 35.2557 22.997 35.3263C22.4611 35.3968 21.9165 35.3611 21.3943 35.2212L14.0001 33.2396L15.061 29.2661C15.9518 29.892 17.013 30.2298 18.1016 30.2342H18.1101C20.1973 30.2342 21.9943 28.9295 22.7802 27.0473L23.5276 27.2548C24.5792 27.5385 25.4759 28.2265 26.0222 29.1688C26.5685 30.111 26.7201 31.2311 26.4438 32.2846H26.4436ZM27.3158 27.0779C27.087 27.4055 26.8115 27.6976 26.4979 27.9451C25.8075 27.0969 24.867 26.4882 23.8104 26.2057L23.0987 26.0148C23.1683 25.6608 23.2033 25.3008 23.2032 24.94V18.5779C23.2098 18.5696 23.2167 18.5614 23.223 18.5525L24.9555 16.0786L31.7072 20.8061L27.3158 27.0779ZM36.6775 13.7084L32.3345 19.9105L25.583 15.1831L29.926 8.98191C30.5526 8.08922 31.5076 7.4813 32.5816 7.29136C33.6556 7.10141 34.7611 7.34493 35.6559 7.96855L35.6595 7.97121L35.6663 7.97606C36.5605 8.60213 37.1694 9.55779 37.359 10.6328C37.5487 11.7078 37.3035 12.8141 36.6775 13.7084Z" fill="#FE9393"/>
</svg>
