<svg width="52" height="56" viewBox="0 0 52 56" fill="none" xmlns="http://www.w3.org/2000/svg">
<circle cx="44" cy="8" r="7.5" fill="white" stroke="#FE9393"/>
<path d="M47.416 10.241L45.138 7.96298L47.379 5.722L46.2781 4.62115L44.0371 6.86213L41.7591 4.58413L40.5842 5.75902L42.8622 8.03702L40.6213 10.278L41.7221 11.3789L43.9631 9.13787L46.2411 11.4159L47.416 10.241Z" fill="#FE9393"/>
<path d="M12 8C10.35 8 9 9.35 9 11V53C9 54.65 10.35 56 12 56H42C43.65 56 45 54.65 45 53V20L33 8H12Z" fill="#E2E5E7"/>
<path d="M36 20H45L33 8V17C33 18.65 34.35 20 36 20Z" fill="#B0B7BD"/>
<path d="M45 29L36 20H45V29Z" fill="#CAD1D8"/>
<path d="M39 47C39 47.825 38.325 48.5 37.5 48.5H4.5C3.675 48.5 3 47.825 3 47V32C3 31.175 3.675 30.5 4.5 30.5H37.5C38.325 30.5 39 31.175 39 32V47Z" fill="#FE9393"/>
<path d="M8.70142 36.4204C8.70142 36.0244 9.01192 35.5909 9.51592 35.5909H12.2879C13.8464 35.5909 15.2504 36.6349 15.2504 38.6374C15.2504 40.5334 13.8464 41.5879 12.2879 41.5879H10.2824V43.1719C10.2824 43.7014 9.94942 43.9999 9.51592 43.9999C9.11992 43.9999 8.70142 43.7014 8.70142 43.1719V36.4204ZM10.2824 37.1029V40.0894H12.2864C13.0889 40.0894 13.7249 39.3814 13.7249 38.6374C13.7249 37.7974 13.0889 37.1029 12.2864 37.1029H10.2824Z" fill="white"/>
<path d="M16.7788 36.5404C16.7788 36.1069 16.8748 35.6884 17.4988 35.6884C17.9293 35.6884 18.0268 35.7964 18.3493 36.1069L22.3183 41.0734V36.4204C22.3183 36.0244 22.6648 35.5909 23.0743 35.5909C23.5063 35.5909 23.9248 36.0244 23.9248 36.4204V43.1719C23.9248 43.7014 23.6008 43.9024 23.2888 43.9999C22.8703 43.9999 22.6648 43.9039 22.3183 43.5814L18.3493 38.5429V43.1734C18.3493 43.7029 18.0253 44.0014 17.5933 44.0014C17.1613 44.0014 16.7773 43.7029 16.7773 43.1734V36.5404H16.7788Z" fill="white"/>
<path d="M32.9474 43.0775C32.0954 43.784 31.0514 44.0855 29.9969 44.0855C27.4769 44.0855 25.6904 42.6455 25.6904 39.791C25.6904 37.3685 27.5744 35.486 30.1034 35.486C31.0514 35.486 32.0939 35.81 32.8379 36.542C33.5699 37.2605 32.5139 38.3285 31.7954 37.694C31.3514 37.2605 30.7274 36.938 30.1034 36.938C28.6529 36.938 27.2504 38.1005 27.2504 39.791C27.2504 41.567 28.4249 42.6455 29.9969 42.6455C30.7274 42.6455 31.3514 42.4295 31.7954 42.1055V40.6325H29.9969C28.9289 40.6325 29.0369 39.167 29.9969 39.167H32.3954C32.8394 39.167 33.2459 39.5045 33.2459 39.8765V42.431C33.2459 42.6455 33.1514 42.848 32.9474 43.0775Z" fill="white"/>
<path d="M37.5 48.5H9V50H37.5C38.325 50 39 49.325 39 48.5V47C39 47.825 38.325 48.5 37.5 48.5Z" fill="#CAD1D8"/>
</svg>
