<svg width="40" height="40" viewBox="0 0 40 40" fill="none" xmlns="http://www.w3.org/2000/svg">
<path d="M6.08984 38.5156H18.1889C18.2545 38.5156 18.3252 38.549 18.397 38.549C18.4617 38.5504 18.5263 38.5402 18.5874 38.5187C18.5922 38.5167 18.5974 38.5157 18.6026 38.5156H21.348C21.3765 38.5156 21.4066 38.5395 21.4386 38.5513C21.4993 38.5753 21.5637 38.5883 21.6289 38.5897C21.7279 38.5897 21.8242 38.5156 21.909 38.5156H33.9101C34.9733 38.5156 35.906 37.5196 35.906 36.3935C35.9061 36.3481 35.9008 36.3028 35.8904 36.2586C35.8826 36.2263 35.0864 32.9936 34.442 30.3095C34.0514 28.6817 32.8526 27.1621 31.0664 25.9442C30.4676 23.5117 29.8664 19.8791 29.8471 17.1016L29.8445 16.7133C29.8223 13.1664 29.797 9.14541 28.1258 5.90408C26.6309 3.00377 23.1902 1.17181 19.7595 1.44931C19.5549 1.46596 19.3558 1.52347 19.174 1.61844C18.9921 1.71341 18.8311 1.84391 18.7005 2.00221C18.57 2.16052 18.4725 2.34341 18.4139 2.54005C18.3553 2.7367 18.3368 2.94311 18.3594 3.14705C18.3672 3.21735 18.3579 3.2885 18.3323 3.35444C18.3068 3.42039 18.2656 3.47918 18.2124 3.52582C18.1593 3.57245 18.0956 3.60556 18.0269 3.62231C17.9582 3.63907 17.8864 3.63898 17.8177 3.62205C16.1323 3.20799 14.2768 3.75642 12.8545 5.08916C11.752 6.1222 10.9795 7.53877 10.5576 9.29947C10.08 11.2941 10.0798 13.6667 10.5569 16.3514C10.982 18.7431 10.5273 21.9717 9.24312 25.6967C7.30398 26.9587 5.99312 28.5801 5.55891 30.3452C4.97922 32.7003 4.10937 36.2555 4.10937 36.2555C4.09899 36.3008 4.09375 36.3471 4.09375 36.3935C4.09375 37.5196 5.02664 38.5156 6.08984 38.5156ZM14.8178 26.968C14.8088 26.9613 13.9155 26.2842 13.4823 25.5035C13.43 25.4152 13.3966 25.317 13.3843 25.2151C13.372 25.1132 13.3811 25.0099 13.4109 24.9117C13.4951 24.6318 13.743 24.3668 14.0934 24.1826C14.2207 24.1286 14.8959 23.901 15.6346 23.6582L16.1517 27.2564C16.1489 27.3243 16.1586 27.3921 16.1805 27.4563L16.218 27.7178C16.2197 27.7295 16.2217 27.7412 16.2241 27.7523L17.4336 35.403L13.6849 29.3582C13.6795 29.3495 13.6738 29.3409 13.668 29.3324C13.4409 29.0088 13.3754 28.6724 13.411 28.4825C13.4144 28.4452 13.4289 28.4098 13.4527 28.381C13.7006 28.2156 14.3054 28.0193 14.6282 27.9345C14.7277 27.9084 14.8178 27.8548 14.8882 27.7799C14.9586 27.7049 15.0065 27.6116 15.0263 27.5107C15.0461 27.4098 15.037 27.3054 15.0001 27.2094C14.9633 27.1134 14.9001 27.0297 14.8178 26.968ZM14.2916 12.3332C14.1523 11.5153 13.9917 9.15416 14.9102 8.06603C15.2473 7.66658 15.7036 7.47228 16.3052 7.47228C16.7177 7.47228 16.9592 7.83166 17.4117 8.65064C17.9982 9.71267 18.8014 11.1671 20.9418 11.1671C21.8302 11.1671 22.7673 10.8624 23.5941 10.594C24.2799 10.3712 25.2191 10.066 25.4584 10.2537C25.8479 10.5591 25.8392 11.6659 25.7109 12.317C25.6876 12.4333 25.7027 12.554 25.7541 12.6609C25.8054 12.7679 25.8901 12.8552 25.9954 12.9098C26.1007 12.9644 26.2209 12.9833 26.3378 12.9636C26.4548 12.9439 26.5622 12.8868 26.6438 12.8007C26.7309 12.7088 26.9568 12.5076 27.1699 12.6228C27.3574 12.7239 27.5068 13.0467 27.3934 13.5273C27.0285 15.0716 26.0845 16.0937 25.425 16.0937H25.4133C25.2703 16.0939 25.1328 16.149 25.0292 16.2475C24.9255 16.346 24.8636 16.4806 24.8562 16.6234C24.8249 17.075 24.5766 19.3898 22.7149 20.5651C21.9805 21.0291 21.0673 21.2656 19.9998 21.2656C18.9288 21.2656 18.0129 21.036 17.2778 20.582C15.3413 19.3849 15.158 16.9124 15.1435 16.6343C15.1394 16.492 15.08 16.3569 14.9779 16.2577C14.8758 16.1585 14.739 16.103 14.5966 16.1031H14.5864C13.9271 16.1166 12.9733 15.0853 12.6062 13.5328C12.4927 13.0501 12.6409 12.6906 12.8461 12.5849C13.0373 12.4862 13.2387 12.6685 13.3416 12.7857C13.4201 12.8752 13.5257 12.9367 13.6424 12.9607C13.759 12.9847 13.8803 12.97 13.9878 12.9187C14.0953 12.8675 14.1832 12.7826 14.238 12.6769C14.2929 12.5712 14.3117 12.4505 14.2917 12.3331L14.2916 12.3332ZM25.1191 27.4999C25.1395 27.6016 25.1885 27.6954 25.2602 27.7704C25.3318 27.8453 25.4234 27.8983 25.5241 27.9232C25.7946 27.9902 26.4363 28.1837 26.6925 28.3546C26.717 28.3816 26.7318 28.4159 26.7346 28.4521C26.7659 28.6195 26.7173 28.9365 26.4768 29.2792C26.4714 29.287 26.4663 29.2948 26.4612 29.3026L22.5648 35.5107L23.7879 27.4596L24.3607 23.5647C25.1781 23.8542 25.9294 24.126 26.0565 24.1827C26.4044 24.3663 26.6513 24.6306 26.7345 24.9085C26.7638 25.0063 26.7724 25.1091 26.7599 25.2104C26.7474 25.3117 26.7141 25.4093 26.662 25.4971C26.2297 26.2761 25.3376 26.947 25.3291 26.9534C25.2459 27.0152 25.182 27.0994 25.1448 27.1962C25.1077 27.293 25.0987 27.3983 25.1191 27.4999ZM17.2129 26.9513L16.652 23.049L17.2373 21.8009C18.0364 22.1727 18.9627 22.3606 19.9998 22.3606C21.0405 22.3606 21.97 22.1667 22.7716 21.7834L23.3502 22.9208L22.7589 26.9413C21.9406 27.3738 20.2539 27.8398 19.9291 27.8422C19.6166 27.8342 17.9872 27.3628 17.2129 26.9513V26.9513ZM17.4082 28.2463C18.3709 28.6317 19.5556 28.94 19.9275 28.94C20.3266 28.94 21.5681 28.6296 22.5655 28.2348L21.1709 37.4218H18.8575L17.4082 28.2463ZM33.3783 30.5624C33.9699 33.0268 34.6891 35.959 34.8104 36.4521C34.7791 36.9542 34.3564 37.4215 33.9101 37.4215H22.667L27.3808 29.9029C27.7445 29.3785 27.9048 28.7606 27.8095 28.2538C27.7829 28.0919 27.724 27.937 27.6363 27.7982C27.5486 27.6595 27.434 27.5398 27.2991 27.4462C27.1215 27.3338 26.9331 27.2396 26.7366 27.1649C27.0799 26.827 27.3765 26.4448 27.6186 26.0284C27.7145 25.8574 27.7837 25.6728 27.8238 25.4809C27.8978 25.51 27.9717 25.5392 28.0446 25.5692C28.8057 27.2188 29.3123 29.2865 29.4118 31.1267C28.8976 31.2535 28.4473 31.5633 28.1451 31.9981C27.8429 32.433 27.7096 32.9631 27.77 33.4892C27.8305 34.0152 28.0806 34.5013 28.4736 34.8562C28.8666 35.2112 29.3755 35.4107 29.905 35.4175C30.4345 35.4243 30.9483 35.2379 31.3503 34.8931C31.7522 34.5484 32.0147 34.0689 32.0887 33.5446C32.1626 33.0202 32.0429 32.4869 31.752 32.0444C31.461 31.6019 31.0188 31.2807 30.508 31.1408C30.4115 29.4799 30.0765 27.8415 29.5134 26.276C31.5788 27.4274 32.9948 28.9647 33.3783 30.5624ZM29.9317 32.1562C30.0922 32.1561 30.2507 32.1916 30.3957 32.2603C30.5408 32.3289 30.6687 32.4289 30.7704 32.5531C30.8721 32.6772 30.9449 32.8224 30.9836 32.9781C31.0223 33.1339 31.0259 33.2962 30.9942 33.4535C30.9537 33.6545 30.8569 33.8399 30.7152 33.988C30.5735 34.1362 30.3926 34.2411 30.1936 34.2906C29.9946 34.34 29.7857 34.3319 29.5911 34.2673C29.3965 34.2027 29.2243 34.0842 29.0944 33.9256C28.9645 33.767 28.8822 33.5747 28.8573 33.3712C28.8323 33.1677 28.8656 32.9613 28.9533 32.776C29.041 32.5907 29.1795 32.434 29.3527 32.3243C29.5259 32.2146 29.7267 32.1562 29.9317 32.1561V32.1562ZM11.6337 16.16C10.5166 9.87361 12.3875 7.02549 13.6025 5.88728C14.7367 4.82478 16.2521 4.36385 17.557 4.68416C17.7966 4.74307 18.0469 4.74328 18.2867 4.68476C18.5264 4.62623 18.7484 4.51071 18.9339 4.34801C19.1194 4.18531 19.2629 3.98023 19.3522 3.7502C19.4415 3.52017 19.474 3.27199 19.4468 3.02674C19.4403 2.96824 19.4456 2.90903 19.4623 2.85261C19.4791 2.79619 19.507 2.7437 19.5444 2.69826C19.5818 2.65281 19.6279 2.61533 19.6801 2.58803C19.7322 2.56073 19.7893 2.54416 19.848 2.53931C22.8038 2.30127 25.8762 3.92611 27.154 6.40502C28.7049 9.41377 28.7294 13.2956 28.7509 16.7199L28.7534 17.1087C28.7708 19.5985 29.2385 22.7433 29.7638 25.1627C29.4185 24.9815 29.057 24.8111 28.682 24.6503C28.6795 24.6492 28.677 24.6482 28.6742 24.6471C28.3403 24.5044 27.9953 24.3705 27.6392 24.2453C27.393 23.7986 27.0163 23.4378 26.5595 23.211C26.4059 23.1297 25.2921 22.7318 24.3047 22.3846L23.7052 21.2059C25.3027 19.962 25.7667 18.0553 25.8999 17.134C27.0179 16.8371 28.0466 15.5246 28.458 13.7837C28.6718 12.8774 28.3633 12.0245 27.6902 11.6606C27.4441 11.5254 27.1625 11.4691 26.8834 11.4994C26.8839 11.4547 26.8839 11.4093 26.8834 11.3632C26.8705 10.4361 26.6183 9.7733 26.1334 9.39306C25.4355 8.84619 24.4255 9.17431 23.2561 9.55392C22.4699 9.80931 21.657 10.0735 20.9418 10.0735C19.4468 10.0735 18.9234 9.12556 18.3691 8.12197C17.9178 7.30463 17.4062 6.37869 16.3052 6.37869C15.3748 6.37869 14.6242 6.709 14.0744 7.36049C13.1276 8.4822 13.0463 10.3156 13.1066 11.4684C12.8441 11.4397 12.5789 11.4899 12.3451 11.6127C11.6438 11.974 11.3209 12.8464 11.5416 13.7839C11.9523 15.5217 12.9774 16.8324 14.093 17.1323C14.2142 18.0596 14.6609 19.9854 16.2961 21.2321L15.7096 22.4828C14.4355 22.8974 13.7245 23.1413 13.5991 23.2069C13.1897 23.4105 12.8418 23.7193 12.5912 24.1017C11.9289 24.3248 11.2817 24.5909 10.6541 24.8984C11.7062 21.4773 12.0455 18.477 11.6337 16.16ZM6.62094 30.6068C6.99594 29.0817 8.17266 27.6671 9.92672 26.5521C9.96635 26.5337 10.0036 26.5107 10.0378 26.4835C10.2436 26.3559 10.4568 26.2324 10.6773 26.1131C10.3566 26.9108 10.0896 27.7291 9.87813 28.5624L9.35734 28.5256C8.66141 28.4763 8.06969 28.9585 7.88602 29.7256C7.66852 30.6337 6.78242 33.5597 6.77352 33.5891C6.76172 33.6281 6.75431 33.6684 6.75141 33.7091C6.73851 33.8912 6.76162 34.0742 6.81943 34.2474C6.87723 34.4206 6.9686 34.5807 7.0883 34.7186C7.20801 34.8565 7.35371 34.9695 7.51709 35.0511C7.68046 35.1327 7.85831 35.1812 8.04047 35.1941C8.18474 35.2036 8.3269 35.1556 8.43585 35.0605C8.54481 34.9655 8.6117 34.8312 8.62189 34.6869C8.63209 34.5427 8.58475 34.4003 8.49025 34.2909C8.39574 34.1815 8.26175 34.114 8.11758 34.1031C8.04706 34.098 7.98066 34.068 7.93032 34.0183C7.87998 33.9687 7.849 33.9027 7.84297 33.8323C7.98648 33.3575 8.74227 30.8479 8.95008 29.9807C8.95937 29.9417 9.04594 29.6004 9.28055 29.617L11.1734 29.7509C11.4052 29.7673 11.4455 30.1185 11.4495 30.1585C11.5406 31.1061 11.9286 33.6424 12.0032 34.1273C11.9874 34.1961 11.9475 34.2571 11.8907 34.2991C11.8339 34.3411 11.7639 34.3614 11.6934 34.3564C11.5488 34.3462 11.4059 34.3938 11.2964 34.4889C11.1868 34.5839 11.1195 34.7186 11.1093 34.8633C11.099 35.0079 11.1466 35.1508 11.2417 35.2603C11.3367 35.3699 11.4714 35.4372 11.6161 35.4474C11.6497 35.4498 11.6832 35.451 11.7165 35.451C12.0678 35.4504 12.4059 35.3167 12.6628 35.077C12.9196 34.8372 13.0762 34.5092 13.101 34.1587C13.1039 34.1179 13.1022 34.0769 13.0959 34.0365C13.0913 34.0067 12.634 31.0502 12.5381 30.0541C12.4625 29.2688 11.9453 28.7085 11.25 28.6595L10.9877 28.6409C11.2973 27.4768 11.7544 26.2557 12.204 25.4065C12.236 25.3938 12.2686 25.3817 12.3009 25.3692C12.3338 25.603 12.4101 25.8286 12.5259 26.0344C12.7711 26.4553 13.0712 26.8417 13.4184 27.1834C13.2186 27.2603 13.0268 27.3565 12.8458 27.4706C12.7102 27.5638 12.5951 27.6837 12.5074 27.8229C12.4197 27.9621 12.3614 28.1177 12.3359 28.2803C12.2386 28.7982 12.3984 29.4281 12.763 29.9549L17.3885 37.4218H6.08984C5.64344 37.4218 5.22047 36.9542 5.18953 36.4521C5.31508 35.9391 6.08977 32.7647 6.62094 30.6068Z" fill="#FE9393"/>
</svg>
