<svg width="367" height="48" viewBox="0 0 367 48" fill="none" xmlns="http://www.w3.org/2000/svg">
<path fill-rule="evenodd" clip-rule="evenodd" d="M367 24L366.999 39.1429L366.996 40.2297L366.992 40.9012L366.985 41.3942L366.977 41.7865L366.967 42.1134L366.955 42.3944L366.941 42.6412L366.926 42.8615L366.908 43.0607L366.889 43.2426L366.868 43.41L366.845 43.5652L366.82 43.7098L366.793 43.8453L366.764 43.9727L366.734 44.0931L366.701 44.2071L366.667 44.3154L366.631 44.4185L366.593 44.517L366.553 44.6112L366.511 44.7014L366.467 44.7881L366.421 44.8714L366.374 44.9516L366.324 45.029L366.273 45.1037L366.219 45.1758L366.163 45.2456L366.106 45.3132L366.047 45.3788L365.985 45.4423L365.921 45.504L365.856 45.5639L365.788 45.6222L365.719 45.6788L365.647 45.734L365.573 45.7877L365.497 45.84L365.419 45.891L365.339 45.9408L365.257 45.9893L365.172 46.0367L365.086 46.0829L364.997 46.1281L364.906 46.1723L364.813 46.2154L364.717 46.2576L364.619 46.2989L364.519 46.3393L364.417 46.3788L364.312 46.4174L364.205 46.4553L364.095 46.4924L363.983 46.5287L363.869 46.5643L363.752 46.5991L363.633 46.6332L363.511 46.6667L363.387 46.6995L363.26 46.7317L363.13 46.7632L362.998 46.7941L362.863 46.8244L362.725 46.8542L362.584 46.8833L362.441 46.9119L362.295 46.94L362.146 46.9675L361.994 46.9946L361.839 47.021L361.681 47.0471L361.52 47.0726L361.356 47.0976L361.189 47.1222L361.018 47.1462L360.845 47.1699L360.667 47.1931L360.487 47.2159L360.303 47.2382L360.115 47.2601L359.924 47.2816L359.73 47.3027L359.531 47.3234L359.329 47.3437L359.123 47.3636L358.912 47.3831L358.698 47.4022L358.48 47.421L358.257 47.4394L358.03 47.4575L357.799 47.4751L357.563 47.4925L357.322 47.5095L357.077 47.5261L356.826 47.5424L356.571 47.5584L356.31 47.574L356.044 47.5893L355.772 47.6043L355.495 47.619L355.212 47.6333L354.923 47.6473L354.628 47.6611L354.327 47.6745L354.018 47.6876L353.703 47.7004L353.381 47.7129L353.052 47.7252L352.715 47.7371L352.37 47.7487L352.017 47.7601L351.656 47.7711L351.285 47.7819L350.906 47.7924L350.517 47.8027L350.117 47.8126L349.707 47.8223L349.287 47.8317L348.854 47.8408L348.41 47.8497L347.953 47.8583L347.482 47.8666L346.998 47.8747L346.498 47.8825L345.982 47.89L345.45 47.8973L344.9 47.9043L344.33 47.9111L343.741 47.9176L343.129 47.9238L342.494 47.9298L341.833 47.9356L341.146 47.9411L340.428 47.9463L339.678 47.9513L338.892 47.9561L338.068 47.9606L337.2 47.9648L336.283 47.9689L335.314 47.9726L334.283 47.9761L333.183 47.9794L332.003 47.9825L330.731 47.9852L329.35 47.9878L327.839 47.9901L326.168 47.9922L324.299 47.994L322.175 47.9956L319.707 47.9969L316.756 47.998L313.062 47.9989L308.075 47.9995L300.171 47.9999L273.397 48L68.6763 47.9999L59.9133 47.9996L54.6235 47.999L50.7735 47.9982L47.7255 47.9971L45.1925 47.9958L43.02 47.9942L41.1147 47.9925L39.4157 47.9904L37.8811 47.9882L36.481 47.9857L35.1928 47.9829L33.9995 47.9799L32.8876 47.9767L31.8464 47.9732L30.8672 47.9695L29.943 47.9655L29.0677 47.9613L28.2364 47.9568L27.4448 47.9521L26.6893 47.9472L25.9666 47.9419L25.2742 47.9365L24.6095 47.9308L23.9705 47.9248L23.3552 47.9186L22.7621 47.9121L22.1895 47.9054L21.6363 47.8984L21.1012 47.8912L20.583 47.8837L20.0809 47.8759L19.5938 47.8679L19.1211 47.8596L18.6618 47.8511L18.2155 47.8422L17.7813 47.8332L17.3587 47.8238L16.9473 47.8142L16.5464 47.8043L16.1556 47.7941L15.7745 47.7836L15.4027 47.7729L15.0398 47.7619L14.6854 47.7506L14.3393 47.739L14.0011 47.7271L13.6705 47.7149L13.3473 47.7024L13.0312 47.6897L12.722 47.6766L12.4194 47.6632L12.1232 47.6496L11.8333 47.6356L11.5493 47.6213L11.2713 47.6066L10.9989 47.5917L10.732 47.5765L10.4705 47.5609L10.2142 47.545L9.96303 47.5287L9.71676 47.5121L9.47532 47.4952L9.23857 47.4779L9.0064 47.4603L8.7787 47.4423L8.55537 47.424L8.33631 47.4053L8.12141 47.3862L7.9106 47.3667L7.70378 47.3469L7.50086 47.3266L7.30177 47.306L7.10643 47.285L6.91476 47.2636L6.7267 47.2417L6.54217 47.2194L6.36111 47.1968L6.18345 47.1736L6.00914 47.15L5.83812 47.126L5.67033 47.1015L5.50571 47.0766L5.34422 47.0511L5.1858 47.0252L5.03041 46.9988L4.878 46.9719L4.72852 46.9444L4.58193 46.9165L4.43819 46.8879L4.29726 46.8589L4.1591 46.8292L4.02368 46.799L3.89095 46.7682L3.76088 46.7367L3.63344 46.7047L3.50859 46.672L3.38631 46.6386L3.26656 46.6046L3.14931 46.5699L3.03454 46.5344L2.92221 46.4982L2.81231 46.4613L2.7048 46.4235L2.59966 46.385L2.49687 46.3456L2.39641 46.3054L2.29824 46.2643L2.20236 46.2222L2.10873 46.1792L2.01734 46.1352L1.92817 46.0902L1.8412 46.0441L1.75642 45.9969L1.67379 45.9486L1.59332 45.899L1.51497 45.8482L1.43875 45.7961L1.36462 45.7426L1.29257 45.6877L1.2226 45.6313L1.15469 45.5733L1.08882 45.5137L1.02498 45.4523L0.963157 45.389L0.903346 45.3238L0.845531 45.2566L0.789701 45.1871L0.735847 45.1153L0.683958 45.0411L0.634025 44.9642L0.586038 44.8844L0.53999 44.8016L0.495871 44.7155L0.453674 44.6258L0.413391 44.5323L0.375015 44.4345L0.338538 44.3321L0.303956 44.2247L0.271261 44.1117L0.240448 43.9924L0.211512 43.8661L0.184447 43.732L0.159248 43.5889L0.135912 43.4355L0.114434 43.2701L0.0948114 43.0907L0.0770395 42.8946L0.0611157 42.6779L0.0470375 42.4358L0.0348022 42.1609L0.024408 41.8423L0.0158529 41.4623L0.00913555 40.9888L0.00425479 40.3545L0.00120978 39.3684L0 36.6015L0.000625255 9.11747L0.00308565 7.90437L0.00738159 7.19074L0.0135138 6.67624L0.0214834 6.27095L0.0312916 5.93519L0.0429402 5.64782L0.0564312 5.39616L0.0717668 5.17202L0.0889497 4.96977L0.107983 4.78536L0.128869 4.61581L0.151613 4.45881L0.176218 4.31259L0.202688 4.17572L0.231028 4.04705L0.261242 3.92563L0.293337 3.81066L0.327318 3.7015L0.36319 3.59757L0.40096 3.4984L0.440635 3.40355L0.482222 3.31269L0.525728 3.22547L0.571161 3.14164L0.618529 3.06093L0.667841 2.98313L0.719106 2.90804L0.772333 2.83549L0.827532 2.76531L0.884714 2.69737L0.943888 2.63153L1.00507 2.56768L1.06826 2.5057L1.13348 2.4455L1.20075 2.38699L1.27006 2.33008L1.34144 2.2747L1.41491 2.22077L1.49046 2.16822L1.56813 2.11701L1.64793 2.06707L1.72986 2.01835L1.81396 1.97079L1.90023 1.92436L1.9887 1.879L2.07938 1.83469L2.17229 1.79137L2.26745 1.74903L2.36489 1.70761L2.46462 1.66709L2.56667 1.62745L2.67106 1.58865L2.77781 1.55066L2.88694 1.51346L2.99849 1.47704L3.11248 1.44135L3.22894 1.40639L3.34789 1.37214L3.46936 1.33856L3.59339 1.30566L3.72 1.2734L3.84923 1.24177L3.98111 1.21075L4.11567 1.18034L4.25296 1.15051L4.393 1.12126L4.53584 1.09256L4.68151 1.06442L4.83007 1.0368L4.98154 1.00971L5.13598 0.98313L5.29343 0.957052L5.45393 0.931464L5.61755 0.906358L5.78432 0.881724L5.95431 0.857553L6.12757 0.833836L6.30415 0.810565L6.48412 0.787733L6.66754 0.765331L6.85447 0.743352L7.04498 0.721789L7.23914 0.700635L7.43703 0.679884L7.63872 0.659529L7.84429 0.639564L8.05382 0.619983L8.26741 0.600781L8.48513 0.581952L8.70709 0.563491L8.93339 0.545392L9.16412 0.527651L9.3994 0.510264L9.63934 0.493224L9.88406 0.476529L10.1337 0.460173L10.3883 0.444153L10.6482 0.428465L10.9133 0.413104L11.1839 0.398067L11.4601 0.383351L11.7422 0.368952L12.0302 0.354866L12.3243 0.341091L12.6249 0.327622L12.932 0.314458L13.2459 0.301595L13.5668 0.289031L13.895 0.276762L14.2307 0.264786L14.5743 0.2531L14.926 0.241703L15.2861 0.230591L15.6551 0.219762L16.0332 0.209215L16.4208 0.198946L16.8184 0.188954L17.2265 0.179237L17.6455 0.169792L18.0759 0.160619L18.5183 0.151715L18.9734 0.143079L19.4417 0.134708L19.9241 0.126602L20.4214 0.118758L20.9343 0.111176L21.464 0.103853L22.0113 0.0967892L22.5775 0.0899822L23.1639 0.0834311L23.772 0.0771348L24.4032 0.0710919L25.0595 0.0653016L25.7429 0.0597626L26.4556 0.0544741L27.2004 0.049435L27.9801 0.0446445L28.7984 0.0401018L29.6591 0.035806L30.5672 0.0317564L31.5281 0.0279523L32.5487 0.0243929L33.637 0.0210778L34.8031 0.0180063L36.0594 0.0151779L37.4218 0.0125921L38.9106 0.0102484L40.5534 0.00814653L42.3875 0.00628602L44.4667 0.00466659L46.8718 0.00328796L49.7332 0.00214989L53.2828 0.00125219L58.0023 0.000594714L65.2126 0.00017734L83.1639 0L296.163 6.2665e-05L306.022 0.000365345L311.656 0.000908092L315.677 0.001691L318.829 0.0027142L321.431 0.00397786L323.654 0.00548221L325.597 0.00722749L327.326 0.00921402L328.884 0.0114421L330.304 0.0139122L331.609 0.0166246L332.816 0.0195799L333.94 0.0227786L334.992 0.0262211L335.981 0.0299082L336.913 0.0338405L337.796 0.0380185L338.634 0.0424432L339.432 0.0471152L340.193 0.0520353L340.92 0.0572046L341.617 0.0626238L342.286 0.0682939L342.929 0.074216L343.548 0.080391L344.145 0.0868203L344.721 0.0935049L345.277 0.100446L345.815 0.107645L346.336 0.115103L346.84 0.122822L347.33 0.130802L347.805 0.139046L348.266 0.147556L348.714 0.156332L349.15 0.165376L349.575 0.17469L349.988 0.184277L350.39 0.194137L350.783 0.204274L351.165 0.214688L351.539 0.225382L351.903 0.236358L352.259 0.247619L352.606 0.259167L352.946 0.271003L353.277 0.283132L353.602 0.295555L353.919 0.308275L354.229 0.321295L354.533 0.334617L354.83 0.348246L355.121 0.362183L355.406 0.376432L355.685 0.390996L355.958 0.405879L356.226 0.421085L356.488 0.436616L356.745 0.452477L356.997 0.468672L357.244 0.485205L357.487 0.502079L357.724 0.5193L357.957 0.536871L358.185 0.554798L358.409 0.573086L358.629 0.591738L358.845 0.610761L359.056 0.630161L359.264 0.649941L359.467 0.670109L359.667 0.69067L359.863 0.711631L360.055 0.732998L360.244 0.754777L360.429 0.776976L360.61 0.799602L360.788 0.822662L360.963 0.846165L361.135 0.870118L361.303 0.89453L361.468 0.919409L361.63 0.944765L361.789 0.970608L361.945 0.996947L362.098 1.02379L362.248 1.05116L362.395 1.07905L362.539 1.10748L362.68 1.13647L362.819 1.16602L362.955 1.19615L363.088 1.22687L363.219 1.25821L363.346 1.29016L363.472 1.32276L363.594 1.35601L363.715 1.38994L363.832 1.42456L363.947 1.4599L364.06 1.49597L364.17 1.53279L364.278 1.5704L364.384 1.60881L364.487 1.64804L364.588 1.68814L364.686 1.72912L364.783 1.77102L364.876 1.81387L364.968 1.8577L365.058 1.90255L365.145 1.94847L365.23 1.99548L365.313 2.04364L365.394 2.09299L365.473 2.14359L365.549 2.19549L365.624 2.24875L365.696 2.30343L365.766 2.3596L365.835 2.41734L365.901 2.47672L365.965 2.53784L366.027 2.60078L366.087 2.66566L366.145 2.73258L366.202 2.80167L366.256 2.87307L366.308 2.94692L366.358 3.0234L366.406 3.1027L366.453 3.18501L366.497 3.27058L366.54 3.35966L366.58 3.45256L366.619 3.54962L366.656 3.65122L366.691 3.75782L366.724 3.86994L366.755 3.98818L366.784 4.11328L366.811 4.24611L366.837 4.3877L366.86 4.53935L366.882 4.70265L366.902 4.87964L366.92 5.07294L366.936 5.28603L366.951 5.5237L366.963 5.79276L366.974 6.10342L366.983 6.47204L366.99 6.92747L366.995 7.52867L366.998 8.43249L367 10.494L367 24Z" fill="#68A9FE"/>
</svg>
