<svg width="336" height="48" viewBox="0 0 336 48" fill="none" xmlns="http://www.w3.org/2000/svg">
<path fill-rule="evenodd" clip-rule="evenodd" d="M336 24L335.999 39.1429L335.997 40.2297L335.992 40.9012L335.987 41.3942L335.979 41.7865L335.97 42.1134L335.959 42.3944L335.946 42.6412L335.932 42.8615L335.916 43.0607L335.898 43.2426L335.879 43.41L335.858 43.5652L335.835 43.7098L335.81 43.8453L335.784 43.9727L335.756 44.0931L335.727 44.2071L335.695 44.3154L335.662 44.4185L335.627 44.517L335.591 44.6112L335.552 44.7014L335.512 44.7881L335.47 44.8714L335.427 44.9516L335.381 45.029L335.334 45.1037L335.285 45.1758L335.234 45.2456L335.181 45.3132L335.127 45.3788L335.071 45.4423L335.013 45.504L334.953 45.5639L334.891 45.6222L334.827 45.6788L334.761 45.734L334.694 45.7877L334.624 45.84L334.553 45.891L334.479 45.9408L334.404 45.9893L334.327 46.0367L334.248 46.0829L334.166 46.1281L334.083 46.1723L333.997 46.2154L333.91 46.2576L333.82 46.2989L333.729 46.3393L333.635 46.3788L333.539 46.4174L333.441 46.4553L333.341 46.4924L333.238 46.5287L333.134 46.5643L333.027 46.5991L332.917 46.6332L332.806 46.6667L332.692 46.6995L332.576 46.7317L332.457 46.7632L332.336 46.7941L332.212 46.8244L332.086 46.8542L331.957 46.8833L331.826 46.9119L331.692 46.94L331.556 46.9675L331.417 46.9946L331.275 47.021L331.13 47.0471L330.983 47.0726L330.833 47.0976L330.68 47.1222L330.524 47.1462L330.364 47.1699L330.202 47.1931L330.037 47.2159L329.869 47.2382L329.697 47.2601L329.522 47.2816L329.344 47.3027L329.162 47.3234L328.977 47.3437L328.788 47.3636L328.596 47.3831L328.399 47.4022L328.199 47.421L327.996 47.4394L327.788 47.4575L327.576 47.4751L327.36 47.4925L327.139 47.5095L326.915 47.5261L326.685 47.5424L326.452 47.5584L326.213 47.574L325.969 47.5893L325.721 47.6043L325.467 47.619L325.208 47.6333L324.943 47.6473L324.673 47.6611L324.397 47.6745L324.115 47.6876L323.827 47.7004L323.532 47.7129L323.23 47.7252L322.922 47.7371L322.606 47.7487L322.283 47.7601L321.952 47.7711L321.613 47.7819L321.265 47.7924L320.909 47.8027L320.543 47.8126L320.168 47.8223L319.783 47.8317L319.387 47.8408L318.98 47.8497L318.562 47.8583L318.131 47.8666L317.687 47.8747L317.23 47.8825L316.758 47.89L316.27 47.8973L315.767 47.9043L315.245 47.9111L314.705 47.9176L314.145 47.9238L313.564 47.9298L312.959 47.9356L312.329 47.9411L311.672 47.9463L310.986 47.9513L310.266 47.9561L309.511 47.9606L308.717 47.9648L307.878 47.9689L306.99 47.9726L306.046 47.9761L305.039 47.9794L303.959 47.9825L302.795 47.9852L301.53 47.9878L300.147 47.9901L298.617 47.9922L296.906 47.994L294.961 47.9956L292.702 47.9969L290 47.998L286.618 47.9989L282.053 47.9995L274.816 47.9999L250.304 48L62.8753 47.9999L54.8525 47.9996L50.0095 47.999L46.4847 47.9982L43.6941 47.9971L41.3752 47.9958L39.3862 47.9942L37.6418 47.9925L36.0863 47.9904L34.6814 47.9882L33.3995 47.9857L32.2201 47.9829L31.1276 47.9799L30.1096 47.9767L29.1563 47.9732L28.2599 47.9695L27.4137 47.9655L26.6124 47.9613L25.8513 47.9568L25.1266 47.9521L24.4349 47.9472L23.7733 47.9419L23.1393 47.9365L22.5308 47.9308L21.9457 47.9248L21.3824 47.9186L20.8394 47.9121L20.3152 47.9054L19.8087 47.8984L19.3188 47.8912L18.8444 47.8837L18.3847 47.8759L17.9388 47.8679L17.5059 47.8596L17.0855 47.8511L16.6768 47.8422L16.2793 47.8332L15.8925 47.8238L15.5157 47.8142L15.1487 47.8043L14.7909 47.7941L14.442 47.7836L14.1016 47.7729L13.7694 47.7619L13.445 47.7506L13.1281 47.739L12.8184 47.7271L12.5158 47.7149L12.2199 47.7024L11.9305 47.6897L11.6474 47.6766L11.3703 47.6632L11.0992 47.6496L10.8337 47.6356L10.5738 47.6213L10.3192 47.6066L10.0698 47.5917L9.8255 47.5765L9.58609 47.5609L9.35145 47.545L9.12146 47.5287L8.896 47.5121L8.67495 47.4952L8.4582 47.4779L8.24564 47.4603L8.03718 47.4423L7.83271 47.424L7.63215 47.4053L7.43541 47.3862L7.2424 47.3667L7.05305 47.3469L6.86727 47.3266L6.685 47.306L6.50616 47.285L6.33068 47.2636L6.1585 47.2417L5.98956 47.2194L5.82379 47.1968L5.66114 47.1736L5.50156 47.15L5.34498 47.126L5.19136 47.1015L5.04065 47.0766L4.8928 47.0511L4.74776 47.0252L4.6055 46.9988L4.46596 46.9719L4.32911 46.9444L4.1949 46.9165L4.0633 46.8879L3.93428 46.8589L3.80779 46.8292L3.6838 46.799L3.56228 46.7682L3.4432 46.7367L3.32652 46.7047L3.21222 46.672L3.10027 46.6386L2.99063 46.6046L2.88329 46.5699L2.77821 46.5344L2.67538 46.4982L2.57476 46.4613L2.47633 46.4235L2.38007 46.385L2.28597 46.3456L2.19399 46.3054L2.10411 46.2643L2.01633 46.2222L1.93061 46.1792L1.84694 46.1352L1.7653 46.0902L1.68568 46.0441L1.60805 45.9969L1.53241 45.9486L1.45873 45.899L1.38701 45.8482L1.31722 45.7961L1.24935 45.7426L1.18339 45.6877L1.11933 45.6313L1.05715 45.5733L0.996845 45.5137L0.938398 45.4523L0.881801 45.389L0.827041 45.3238L0.77411 45.2566L0.722996 45.1871L0.673691 45.1153L0.626185 45.0411L0.58047 44.9642L0.536537 44.8844L0.494378 44.8016L0.453985 44.7155L0.415353 44.6258L0.378472 44.5323L0.343338 44.4345L0.309943 44.3321L0.278281 44.2247L0.248348 44.1117L0.220138 43.9924L0.193646 43.8661L0.168867 43.732L0.145797 43.5889L0.124432 43.4355L0.104768 43.2701L0.0868028 43.0907L0.070532 42.8946L0.0559534 42.6779L0.0430643 42.4358L0.0318625 42.1609L0.0223463 41.8423L0.0145138 41.4623L0.00836388 40.9888L0.00389539 40.3545L0.00110759 39.3684L0 36.6015L0.00057244 9.11747L0.00282501 7.90437L0.00675808 7.19074L0.0123723 6.67624L0.0196687 6.27095L0.0286485 5.93519L0.0393131 5.64782L0.0516645 5.39616L0.0657048 5.17202L0.0814362 4.96977L0.0988616 4.78536L0.117984 4.61581L0.138807 4.45881L0.161333 4.31259L0.185567 4.17572L0.211513 4.04705L0.239176 3.92563L0.268559 3.81066L0.29967 3.7015L0.332512 3.59757L0.367092 3.4984L0.403415 3.40355L0.441489 3.31269L0.48132 3.22547L0.522915 3.14164L0.566283 3.06093L0.611429 2.98313L0.658364 2.90804L0.707095 2.83549L0.757632 2.76531L0.809983 2.69737L0.864159 2.63153L0.92017 2.56768L0.978026 2.5057L1.03774 2.4455L1.09932 2.38699L1.16278 2.33008L1.22813 2.2747L1.29539 2.22077L1.36457 2.16822L1.43567 2.11701L1.50873 2.06707L1.58375 2.01835L1.66074 1.97079L1.73972 1.92436L1.82072 1.879L1.90374 1.83469L1.9888 1.79137L2.07593 1.74903L2.16513 1.70761L2.25644 1.66709L2.34987 1.62745L2.44544 1.58865L2.54317 1.55066L2.64309 1.51346L2.74521 1.47704L2.84958 1.44135L2.95619 1.40639L3.0651 1.37214L3.17631 1.33856L3.28986 1.30566L3.40578 1.2734L3.52409 1.24177L3.64483 1.21075L3.76803 1.18034L3.89372 1.15051L4.02193 1.12126L4.1527 1.09256L4.28607 1.06442L4.42208 1.0368L4.56076 1.00971L4.70215 0.98313L4.8463 0.957052L4.99325 0.931464L5.14304 0.906358L5.29573 0.881724L5.45136 0.857553L5.60998 0.833836L5.77165 0.810565L5.93642 0.787733L6.10434 0.765331L6.27548 0.743352L6.4499 0.721789L6.62766 0.700635L6.80884 0.679884L6.99349 0.659529L7.18169 0.639564L7.37353 0.619983L7.56907 0.600781L7.7684 0.581952L7.97162 0.563491L8.1788 0.545392L8.39004 0.527651L8.60544 0.510264L8.82512 0.493224L9.04916 0.476529L9.2777 0.460173L9.51084 0.444153L9.74872 0.428465L9.99146 0.413104L10.2392 0.398067L10.4921 0.383351L10.7503 0.368952L11.014 0.354866L11.2833 0.341091L11.5585 0.327622L11.8396 0.314458L12.127 0.301595L12.4208 0.289031L12.7213 0.276762L13.0287 0.264786L13.3432 0.2531L13.6652 0.241703L13.9949 0.230591L14.3327 0.219762L14.6789 0.209215L15.0338 0.198946L15.3978 0.188954L15.7714 0.179237L16.155 0.169792L16.549 0.160619L16.9541 0.151715L17.3707 0.143079L17.7995 0.134708L18.2412 0.126602L18.6964 0.118758L19.166 0.111176L19.6509 0.103853L20.152 0.0967892L20.6704 0.0899822L21.2073 0.0834311L21.764 0.0771348L22.3419 0.0710919L22.9428 0.0653016L23.5684 0.0597626L24.221 0.0544741L24.9028 0.049435L25.6167 0.0446445L26.3658 0.0401018L27.1539 0.035806L27.9852 0.0317564L28.865 0.0279523L29.7993 0.0243929L30.7957 0.0210778L31.8633 0.0180063L33.0135 0.0151779L34.2608 0.0125921L35.6239 0.0102484L37.1279 0.00814653L38.8071 0.00628602L40.7107 0.00466659L42.9126 0.00328796L45.5323 0.00214989L48.7821 0.00125219L53.1029 0.000594714L59.7042 0.00017734L76.1391 0L271.146 6.2665e-05L280.172 0.000365345L285.331 0.000908092L289.013 0.001691L291.898 0.0027142L294.28 0.00397786L296.315 0.00548221L298.094 0.00722749L299.677 0.00921402L301.104 0.0114421L302.404 0.0139122L303.598 0.0166246L304.704 0.0195799L305.733 0.0227786L306.696 0.0262211L307.601 0.0299082L308.455 0.0338405L309.263 0.0380185L310.03 0.0424432L310.76 0.0471152L311.457 0.0520353L312.123 0.0572046L312.761 0.0626238L313.374 0.0682939L313.963 0.074216L314.529 0.080391L315.075 0.0868203L315.603 0.0935049L316.112 0.100446L316.604 0.107645L317.081 0.115103L317.543 0.122822L317.991 0.130802L318.426 0.139046L318.848 0.147556L319.259 0.156332L319.658 0.165376L320.047 0.17469L320.425 0.184277L320.793 0.194137L321.153 0.204274L321.503 0.214688L321.845 0.225382L322.178 0.236358L322.504 0.247619L322.822 0.259167L323.133 0.271003L323.436 0.283132L323.733 0.295555L324.024 0.308275L324.308 0.321295L324.586 0.334617L324.858 0.348246L325.124 0.362183L325.385 0.376432L325.641 0.390996L325.891 0.405879L326.136 0.421085L326.376 0.436616L326.611 0.452477L326.842 0.468672L327.068 0.485205L327.29 0.502079L327.508 0.5193L327.721 0.536871L327.93 0.554798L328.135 0.573086L328.336 0.591738L328.534 0.610761L328.727 0.630161L328.917 0.649941L329.103 0.670109L329.286 0.69067L329.466 0.711631L329.642 0.732998L329.814 0.754777L329.984 0.776976L330.15 0.799602L330.313 0.822662L330.473 0.846165L330.63 0.870118L330.784 0.89453L330.936 0.919409L331.084 0.944765L331.229 0.970608L331.372 0.996947L331.512 1.02379L331.649 1.05116L331.784 1.07905L331.916 1.10748L332.045 1.13647L332.172 1.16602L332.297 1.19615L332.419 1.22687L332.538 1.25821L332.655 1.29016L332.77 1.32276L332.882 1.35601L332.992 1.38994L333.1 1.42456L333.205 1.4599L333.308 1.49597L333.409 1.53279L333.508 1.5704L333.605 1.60881L333.699 1.64804L333.792 1.68814L333.882 1.72912L333.97 1.77102L334.056 1.81387L334.14 1.8577L334.222 1.90255L334.302 1.94847L334.38 1.99548L334.456 2.04364L334.53 2.09299L334.602 2.14359L334.672 2.19549L334.74 2.24875L334.806 2.30343L334.871 2.3596L334.933 2.41734L334.994 2.47672L335.052 2.53784L335.109 2.60078L335.164 2.66566L335.218 2.73258L335.269 2.80167L335.319 2.87307L335.366 2.94692L335.412 3.0234L335.457 3.1027L335.499 3.18501L335.54 3.27058L335.579 3.35966L335.616 3.45256L335.651 3.54962L335.685 3.65122L335.717 3.75782L335.747 3.86994L335.775 3.98818L335.802 4.11328L335.827 4.24611L335.851 4.3877L335.872 4.53935L335.892 4.70265L335.91 4.87964L335.927 5.07294L335.942 5.28603L335.955 5.5237L335.966 5.79276L335.976 6.10342L335.984 6.47204L335.991 6.92747L335.996 7.52867L335.999 8.43249L336 10.494L336 24Z" fill="#68A9FE"/>
</svg>
