<svg width="136" height="135" viewBox="0 0 136 135" fill="none" xmlns="http://www.w3.org/2000/svg">
<g filter="url(#filter0_d)">
<path fill-rule="evenodd" clip-rule="evenodd" d="M123 66L122.999 74.7168L122.996 77.5017L122.99 79.5265L122.982 81.1754L122.972 82.5912L122.96 83.8451L122.946 84.9784L122.93 86.0177L122.911 86.9809L122.89 87.8813L122.867 88.7284L122.841 89.5298L122.814 90.2913L122.784 91.0176L122.752 91.7127L122.718 92.3796L122.681 93.0212L122.643 93.6396L122.602 94.2369L122.559 94.8148L122.513 95.3746L122.466 95.9177L122.416 96.4452L122.364 96.9582L122.31 97.4576L122.253 97.9441L122.194 98.4185L122.133 98.8814L122.07 99.3334L122.004 99.7752L121.936 100.207L121.866 100.63L121.793 101.043L121.718 101.448L121.641 101.845L121.562 102.234L121.48 102.615L121.396 102.989L121.309 103.356L121.22 103.716L121.129 104.07L121.036 104.417L120.94 104.758L120.841 105.093L120.741 105.423L120.638 105.746L120.532 106.064L120.424 106.377L120.314 106.685L120.201 106.987L120.086 107.285L119.968 107.578L119.848 107.866L119.725 108.15L119.599 108.429L119.472 108.703L119.341 108.974L119.208 109.24L119.073 109.502L118.935 109.759L118.794 110.013L118.651 110.263L118.505 110.509L118.356 110.752L118.205 110.99L118.051 111.225L117.894 111.456L117.735 111.684L117.572 111.908L117.407 112.129L117.239 112.347L117.069 112.561L116.895 112.771L116.719 112.979L116.539 113.183L116.357 113.384L116.172 113.582L115.983 113.776L115.792 113.968L115.597 114.157L115.4 114.342L115.199 114.525L114.995 114.705L114.788 114.881L114.577 115.055L114.364 115.226L114.147 115.394L113.926 115.559L113.702 115.722L113.475 115.882L113.244 116.039L113.009 116.193L112.771 116.344L112.529 116.493L112.283 116.639L112.033 116.783L111.78 116.924L111.522 117.062L111.261 117.198L110.995 117.331L110.725 117.461L110.451 117.589L110.172 117.715L109.889 117.838L109.601 117.958L109.309 118.076L109.011 118.192L108.709 118.305L108.402 118.415L108.089 118.524L107.772 118.629L107.449 118.733L107.12 118.833L106.785 118.932L106.444 119.028L106.098 119.122L105.745 119.213L105.385 119.302L105.019 119.389L104.645 119.473L104.265 119.555L103.876 119.635L103.48 119.712L103.076 119.787L102.663 119.86L102.241 119.93L101.81 119.999L101.369 120.064L100.918 120.128L100.456 120.189L99.9823 120.248L99.4968 120.305L98.9985 120.36L98.4866 120.412L97.9602 120.462L97.4184 120.51L96.8599 120.555L96.2836 120.599L95.6879 120.64L95.0712 120.678L94.4316 120.715L93.7667 120.749L93.074 120.782L92.3503 120.812L91.5918 120.839L90.7938 120.865L89.9506 120.888L89.0548 120.909L88.0969 120.928L87.0643 120.945L85.9393 120.959L84.6963 120.972L83.2954 120.982L81.6689 120.99L79.6827 120.995L76.9881 120.999L71.1681 121L59.5677 120.999L56.6836 120.996L54.6182 120.991L52.946 120.983L51.5148 120.973L50.2498 120.961L49.108 120.947L48.062 120.931L47.0932 120.912L46.1883 120.892L45.3372 120.869L44.5324 120.844L43.7679 120.816L43.039 120.787L42.3415 120.755L41.6724 120.721L41.0289 120.684L40.4087 120.646L39.8098 120.605L39.2305 120.562L38.6693 120.517L38.1249 120.47L37.5961 120.42L37.082 120.368L36.5816 120.314L36.0941 120.258L35.6188 120.199L35.155 120.138L34.7021 120.075L34.2596 120.009L33.8269 119.941L33.4036 119.871L32.9893 119.799L32.5837 119.724L32.1862 119.647L31.7967 119.568L31.4148 119.486L31.0402 119.402L30.6727 119.316L30.312 119.228L29.958 119.137L29.6102 119.043L29.2687 118.947L28.9331 118.849L28.6034 118.749L28.2793 118.646L27.9607 118.541L27.6474 118.433L27.3394 118.323L27.0364 118.21L26.7383 118.095L26.4451 117.977L26.1566 117.857L25.8727 117.735L25.5933 117.61L25.3183 117.482L25.0477 117.352L24.7813 117.219L24.519 117.084L24.2608 116.946L24.0066 116.805L23.7564 116.662L23.51 116.517L23.2674 116.368L23.0285 116.217L22.7933 116.063L22.5618 115.907L22.3337 115.747L22.1092 115.585L21.8882 115.421L21.6706 115.253L21.4563 115.082L21.2453 114.909L21.0376 114.733L20.8332 114.554L20.6319 114.372L20.4338 114.186L20.2389 113.998L20.047 113.807L19.8581 113.613L19.6723 113.416L19.4895 113.215L19.3096 113.011L19.1327 112.805L18.9586 112.594L18.7875 112.381L18.6191 112.164L18.4536 111.944L18.2909 111.72L18.131 111.493L17.9738 111.262L17.8194 111.028L17.6676 110.79L17.5185 110.548L17.3722 110.303L17.2284 110.053L17.0873 109.8L16.9488 109.543L16.8129 109.282L16.6796 109.016L16.5488 108.747L16.4206 108.473L16.2949 108.194L16.1718 107.912L16.0511 107.624L15.9329 107.332L15.8172 107.035L15.704 106.733L15.5932 106.427L15.4849 106.115L15.379 105.797L15.2755 105.474L15.1744 105.146L15.0757 104.812L14.9794 104.472L14.8854 104.126L14.7939 103.773L14.7047 103.414L14.6178 103.048L14.5333 102.675L14.4511 102.295L14.3713 101.907L14.2938 101.512L14.2185 101.108L14.1456 100.696L14.075 100.275L14.0067 99.8446L13.9406 99.4045L13.8769 98.9541L13.8154 98.4929L13.7561 98.0204L13.6992 97.5359L13.6445 97.0387L13.592 96.5279L13.5418 96.0027L13.4939 95.4622L13.4482 94.9051L13.4047 94.3302L13.3635 93.7361L13.3244 93.1212L13.2876 92.4835L13.2531 91.8207L13.2207 91.1303L13.1906 90.4092L13.1627 89.6536L13.137 88.8589L13.1135 88.0196L13.0922 87.1283L13.0732 86.1758L13.0563 85.1497L13.0417 84.0328L13.0292 82.8004L13.0189 81.4141L13.0109 79.8092L13.005 77.8596L13.0014 75.2476L12.9999 70.1803L13.0007 57.8675L13.0036 54.8737L13.0088 52.7653L13.0161 51.0691L13.0257 49.622L13.0374 48.3456L13.0514 47.1952L13.0676 46.1423L13.0859 45.1679L13.1065 44.2583L13.1293 43.4032L13.1543 42.595L13.1815 41.8275L13.2109 41.0958L13.2425 40.396L13.2764 39.7248L13.3125 39.0793L13.3508 38.4573L13.3913 37.8568L13.4341 37.276L13.4791 36.7134L13.5263 36.1677L13.5758 35.6377L13.6275 35.1225L13.6815 34.621L13.7378 34.1325L13.7963 33.6563L13.857 33.1916L13.9201 32.7378L13.9854 32.2945L14.053 31.861L14.1229 31.437L14.1951 31.022L14.2695 30.6157L14.3463 30.2176L14.4255 29.8275L14.5069 29.445L14.5907 29.0698L14.6768 28.7018L14.7652 28.3405L14.856 27.9859L14.9492 27.6377L15.0447 27.2957L15.1427 26.9597L15.243 26.6295L15.3457 26.3049L15.4509 25.9859L15.5584 25.6722L15.6684 25.3637L15.7809 25.0603L15.8958 24.7619L16.0132 24.4683L16.1331 24.1794L16.2554 23.8952L16.3803 23.6154L16.5077 23.3401L16.6377 23.0691L16.7702 22.8024L16.9052 22.5398L17.0429 22.2813L17.1832 22.0268L17.3261 21.7762L17.4716 21.5295L17.6198 21.2866L17.7707 21.0474L17.9243 20.812L18.0806 20.5801L18.2397 20.3518L18.4015 20.127L18.5661 19.9057L18.7335 19.6878L18.9038 19.4732L19.0769 19.262L19.2529 19.0541L19.4319 18.8494L19.6138 18.6479L19.7986 18.4495L19.9865 18.2543L20.1774 18.0622L20.3714 17.8731L20.5685 17.687L20.7687 17.504L20.9722 17.3239L21.1788 17.1467L21.3887 16.9724L21.6019 16.801L21.8185 16.6325L22.0385 16.4667L22.2619 16.3038L22.4888 16.1436L22.7192 15.9862L22.9532 15.8316L23.1909 15.6796L23.4323 15.5303L23.6775 15.3837L23.9265 15.2398L24.1794 15.0985L24.4363 14.9598L24.6973 14.8237L24.9624 14.6901L25.2317 14.5592L25.5052 14.4307L25.7832 14.3049L26.0657 14.1815L26.3527 14.0606L26.6444 13.9423L26.9409 13.8264L27.2423 13.7129L27.5487 13.602L27.8603 13.4934L28.1772 13.3873L28.4996 13.2836L28.8275 13.1824L29.1612 13.0835L29.5008 12.987L29.8465 12.8929L30.1985 12.8011L30.5571 12.7117L30.9224 12.6247L31.2947 12.54L31.6743 12.4576L32.0613 12.3776L32.4562 12.2999L32.8592 12.2245L33.2707 12.1514L33.6911 12.0806L34.1207 12.0121L34.56 11.9458L35.0096 11.8819L35.4699 11.8202L35.9414 11.7608L36.425 11.7037L36.9212 11.6488L37.4308 11.5962L37.9548 11.5458L38.4941 11.4976L39.0498 11.4518L39.6232 11.4081L40.2157 11.3667L40.829 11.3275L41.4648 11.2905L42.1255 11.2558L42.8135 11.2233L43.5321 11.193L44.2848 11.1649L45.0761 11.139L45.9117 11.1153L46.7986 11.0939L47.7458 11.0746L48.7655 11.0576L49.8743 11.0428L51.0963 11.0301L52.4685 11.0197L54.0526 11.0115L55.9673 11.0055L58.5033 11.0016L63.0835 11L75.8151 11.0006L78.9312 11.0033L81.085 11.0083L82.8063 11.0155L84.2697 11.0249L85.5577 11.0365L86.717 11.0502L87.7768 11.0662L88.7569 11.0844L89.6713 11.1048L90.5304 11.1274L91.3421 11.1522L92.1127 11.1793L92.8471 11.2085L93.5493 11.24L94.2227 11.2736L94.8701 11.3095L95.4939 11.3477L96.0961 11.388L96.6784 11.4306L97.2424 11.4754L97.7894 11.5225L98.3205 11.5718L98.8369 11.6234L99.3395 11.6772L99.829 11.7332L100.306 11.7915L100.772 11.8521L101.226 11.915L101.671 11.9801L102.105 12.0475L102.529 12.1173L102.945 12.1893L103.352 12.2636L103.751 12.3402L104.142 12.4191L104.525 12.5003L104.9 12.5839L105.269 12.6698L105.631 12.7581L105.986 12.8487L106.335 12.9417L106.677 13.0371L107.014 13.1348L107.344 13.235L107.669 13.3375L107.989 13.4424L108.303 13.5498L108.612 13.6596L108.916 13.7719L109.214 13.8866L109.508 14.0038L109.798 14.1234L110.082 14.2456L110.362 14.3703L110.638 14.4975L110.909 14.6272L111.176 14.7595L111.439 14.8944L111.698 15.0319L111.953 15.1719L112.204 15.3146L112.451 15.46L112.694 15.608L112.934 15.7586L113.169 15.912L113.401 16.0681L113.63 16.2269L113.855 16.3885L114.077 16.5529L114.295 16.7201L114.51 16.8902L114.721 17.0631L114.929 17.2388L115.134 17.4175L115.336 17.5992L115.535 17.7838L115.73 17.9714L115.923 18.1621L116.112 18.3559L116.298 18.5527L116.481 18.7527L116.662 18.9559L116.839 19.1623L117.014 19.3719L117.185 19.5849L117.354 19.8012L117.52 20.0208L117.683 20.244L117.844 20.4706L118.001 20.7007L118.156 20.9345L118.308 21.1719L118.458 21.413L118.605 21.6579L118.749 21.9066L118.89 22.1592L119.029 22.4158L119.166 22.6764L119.299 22.9411L119.43 23.2101L119.559 23.4833L119.685 23.7609L119.809 24.043L119.93 24.3297L120.048 24.621L120.164 24.9171L120.278 25.2181L120.389 25.5242L120.498 25.8354L120.604 26.1518L120.708 26.4737L120.81 26.8012L120.909 27.1344L121.005 27.4735L121.1 27.8188L121.192 28.1703L121.281 28.5283L121.368 28.8931L121.453 29.2648L121.536 29.6438L121.616 30.0302L121.694 30.4245L121.77 30.8268L121.843 31.2376L121.914 31.6573L121.983 32.0862L122.049 32.5247L122.113 32.9734L122.175 33.4328L122.234 33.9035L122.292 34.386L122.347 34.8812L122.4 35.3898L122.45 35.9126L122.499 36.4506L122.545 37.005L122.588 37.5769L122.63 38.1678L122.669 38.7793L122.707 39.4133L122.741 40.0719L122.774 40.7577L122.805 41.4737L122.833 42.2235L122.859 43.0116L122.883 43.8434L122.904 44.7259L122.924 45.6679L122.941 46.6813L122.956 47.7823L122.969 48.9942L122.979 50.3525L122.988 51.9165L122.994 53.7979L122.998 56.2637L123 60.484L123 66Z" fill="url(#paint0_linear)"/>
</g>
<defs>
<filter id="filter0_d" x="0.730699" y="0.423069" width="134.539" height="134.538" filterUnits="userSpaceOnUse" color-interpolation-filters="sRGB">
<feFlood flood-opacity="0" result="BackgroundImageFix"/>
<feColorMatrix in="SourceAlpha" type="matrix" values="0 0 0 0 0 0 0 0 0 0 0 0 0 0 0 0 0 0 127 0"/>
<feOffset dy="1.69231"/>
<feGaussianBlur stdDeviation="6.13462"/>
<feColorMatrix type="matrix" values="0 0 0 0 0.319514 0 0 0 0 0.464977 0 0 0 0 0.891667 0 0 0 1 0"/>
<feBlend mode="normal" in2="BackgroundImageFix" result="effect1_dropShadow"/>
<feBlend mode="normal" in="SourceGraphic" in2="effect1_dropShadow" result="shape"/>
</filter>
<linearGradient id="paint0_linear" x1="115.173" y1="16.2884" x2="22.5192" y2="116.135" gradientUnits="userSpaceOnUse">
<stop stop-color="#99B4FF"/>
<stop offset="1" stop-color="#99CEFF"/>
</linearGradient>
</defs>
</svg>
