<svg width="368" height="666" viewBox="0 0 368 666" fill="none" xmlns="http://www.w3.org/2000/svg">
<path fill-rule="evenodd" clip-rule="evenodd" d="M368 333L367.999 543.108L367.996 558.188L367.992 567.504L367.985 574.345L367.977 579.787L367.967 584.324L367.955 588.222L367.941 591.647L367.925 594.704L367.908 597.467L367.888 599.99L367.867 602.313L367.844 604.466L367.819 606.473L367.792 608.353L367.764 610.122L367.733 611.792L367.701 613.373L367.666 614.876L367.63 616.307L367.592 617.673L367.552 618.98L367.51 620.232L367.466 621.435L367.42 622.591L367.372 623.704L367.322 624.777L367.271 625.813L367.217 626.815L367.161 627.783L367.104 628.721L367.044 629.63L366.982 630.512L366.918 631.368L366.853 632.199L366.785 633.008L366.715 633.794L366.643 634.559L366.569 635.304L366.493 636.03L366.415 636.738L366.335 637.428L366.252 638.102L366.167 638.759L366.081 639.401L365.992 640.028L365.9 640.64L365.807 641.239L365.711 641.825L365.613 642.397L365.512 642.957L365.41 643.506L365.305 644.042L365.197 644.567L365.087 645.082L364.975 645.586L364.861 646.079L364.743 646.562L364.624 647.036L364.501 647.501L364.377 647.956L364.249 648.402L364.119 648.839L363.987 649.268L363.851 649.689L363.713 650.102L363.572 650.506L363.429 650.903L363.282 651.293L363.133 651.675L362.98 652.049L362.825 652.417L362.667 652.778L362.505 653.132L362.341 653.479L362.173 653.82L362.002 654.154L361.828 654.482L361.65 654.804L361.469 655.12L361.285 655.43L361.097 655.734L360.905 656.032L360.71 656.325L360.511 656.612L360.308 656.893L360.101 657.17L359.89 657.44L359.676 657.706L359.457 657.966L359.233 658.222L359.006 658.472L358.774 658.717L358.537 658.958L358.296 659.194L358.049 659.424L357.798 659.651L357.542 659.872L357.281 660.089L357.014 660.302L356.742 660.51L356.464 660.713L356.18 660.912L355.89 661.107L355.594 661.297L355.292 661.483L354.983 661.665L354.667 661.843L354.344 662.017L354.014 662.187L353.676 662.352L353.33 662.514L352.976 662.671L352.614 662.825L352.242 662.974L351.862 663.12L351.472 663.262L351.071 663.4L350.66 663.534L350.238 663.664L349.805 663.791L349.359 663.914L348.901 664.033L348.429 664.149L347.943 664.261L347.442 664.369L346.925 664.474L346.391 664.575L345.84 664.672L345.269 664.766L344.677 664.856L344.064 664.943L343.427 665.026L342.765 665.106L342.075 665.183L341.355 665.255L340.603 665.325L339.816 665.391L338.989 665.453L338.118 665.512L337.2 665.568L336.227 665.62L335.194 665.669L334.091 665.714L332.908 665.757L331.632 665.795L330.248 665.831L328.732 665.863L327.057 665.891L325.183 665.916L323.052 665.938L320.578 665.957L317.619 665.972L313.915 665.984L308.915 665.993L300.989 665.998L274.142 666L68.8634 665.999L60.0765 665.994L54.7723 665.986L50.9118 665.974L47.8555 665.96L45.3157 665.942L43.1373 665.92L41.2267 665.895L39.5231 665.867L37.9843 665.836L36.5804 665.801L35.2887 665.763L34.0921 665.721L32.9772 665.676L31.9331 665.628L30.9513 665.576L30.0246 665.521L29.1469 665.463L28.3133 665.401L27.5196 665.336L26.762 665.267L26.0374 665.194L25.343 665.119L24.6765 665.039L24.0358 664.957L23.4188 664.87L22.8241 664.781L22.25 664.687L21.6953 664.591L21.1587 664.49L20.6391 664.386L20.1356 664.278L19.6472 664.167L19.1732 664.052L18.7127 663.933L18.2651 663.811L17.8297 663.685L17.406 663.555L16.9934 663.422L16.5914 663.284L16.1996 663.143L15.8175 662.998L15.4446 662.849L15.0808 662.696L14.7254 662.539L14.3784 662.378L14.0392 662.213L13.7078 662.044L13.3837 661.871L13.0667 661.694L12.7566 661.513L12.4532 661.327L12.1562 661.137L11.8655 660.943L11.5808 660.745L11.302 660.542L11.0289 660.335L10.7613 660.123L10.4991 659.907L10.2421 659.686L9.99017 659.461L9.74324 659.231L9.50113 658.996L9.26374 658.756L9.03094 658.512L8.80262 658.262L8.57868 658.007L8.35902 657.748L8.14354 657.483L7.93215 657.213L7.72477 656.938L7.5213 656.657L7.32166 656.371L7.12579 656.079L6.9336 655.782L6.74502 655.479L6.55999 655.17L6.37844 654.855L6.2003 654.534L6.02552 654.207L5.85403 653.873L5.68578 653.534L5.52071 653.188L5.35878 652.835L5.19993 652.475L5.04412 652.108L4.89129 651.735L4.7414 651.354L4.59442 650.966L4.45029 650.57L4.30897 650.167L4.17044 649.755L4.03464 649.336L3.90155 648.908L3.77113 648.472L3.64334 648.027L3.51815 647.574L3.39553 647.111L3.27546 646.639L3.15789 646.157L3.0428 645.665L2.93017 645.163L2.81997 644.65L2.71217 644.126L2.60675 643.592L2.50368 643.045L2.40294 642.487L2.3045 641.917L2.20836 641.333L2.11448 640.737L2.02284 640.126L1.93343 639.501L1.84622 638.862L1.7612 638.207L1.67835 637.536L1.59766 636.849L1.5191 636.144L1.44267 635.421L1.36833 634.679L1.2961 633.917L1.22593 633.134L1.15783 632.33L1.09178 631.502L1.02777 630.65L0.965782 629.772L0.905807 628.868L0.847834 627.935L0.791853 626.971L0.737852 625.975L0.685822 624.945L0.635752 623.878L0.587635 622.771L0.541461 621.622L0.497222 620.427L0.45491 619.183L0.414517 617.885L0.376036 616.529L0.339461 615.108L0.304784 613.618L0.272 612.049L0.241103 610.394L0.212088 608.642L0.184949 606.781L0.159682 604.795L0.136283 602.667L0.114746 600.373L0.0950697 597.884L0.0772494 595.162L0.0612823 592.156L0.0471656 588.796L0.0348971 584.982L0.0244745 580.562L0.0158961 575.289L0.00916044 568.719L0.00426638 559.919L0.00121307 546.236L0 507.846L0.000626958 126.505L0.00309405 109.673L0.0074017 99.7715L0.0135506 92.6328L0.0215419 87.0094L0.0313769 82.3507L0.0430572 78.3634L0.056585 74.8717L0.0719623 71.7618L0.089192 68.9556L0.108277 66.3969L0.129221 64.0443L0.152026 61.866L0.176698 59.8372L0.20324 57.9381L0.231657 56.1528L0.261954 54.4681L0.294136 52.873L0.32821 51.3583L0.364179 49.9163L0.402053 48.5402L0.441836 47.2243L0.483536 45.9635L0.52716 44.7534L0.572717 43.5902L0.620214 42.4704L0.669661 41.3909L0.721065 40.349L0.774437 39.3424L0.829787 38.3687L0.887124 37.426L0.94646 36.5125L1.00781 35.6266L1.07117 34.7666L1.13657 33.9314L1.20402 33.1195L1.27352 32.3299L1.3451 31.5614L1.41876 30.8131L1.49453 30.0841L1.57241 29.3735L1.65242 28.6806L1.73458 28.0045L1.8189 27.3447L1.90541 26.7004L1.99412 26.0712L2.08504 25.4563L2.17821 24.8553L2.27363 24.2677L2.37133 23.6931L2.47134 23.1309L2.57366 22.5809L2.67833 22.0425L2.78537 21.5154L2.89481 20.9993L3.00666 20.4939L3.12096 19.9988L3.23774 19.5137L3.35701 19.0384L3.47881 18.5726L3.60318 18.116L3.73014 17.6684L3.85972 17.2295L3.99196 16.7992L4.12689 16.3772L4.26454 15.9634L4.40497 15.5575L4.5482 15.1593L4.69427 14.7688L4.84323 14.3856L4.99511 14.0097L5.14997 13.6409L5.30785 13.2791L5.46879 12.9241L5.63286 12.5757L5.80009 12.2339L5.97054 11.8985L6.14426 11.5695L6.32133 11.2466L6.50179 10.9298L6.6857 10.619L6.87314 10.314L7.06418 10.0148L7.25887 9.72131L7.4573 9.43338L7.65953 9.15096L7.86566 8.87395L8.07577 8.60226L8.28993 8.33584L8.50825 8.07458L8.73082 7.81843L8.95773 7.56732L9.18909 7.32116L9.42501 7.07991L9.6656 6.84349L9.91099 6.61184L10.1613 6.3849L10.4166 6.16263L10.6772 5.94495L10.943 5.73182L11.2144 5.52318L11.4914 5.319L11.7742 5.11921L12.063 4.92377L12.3579 4.73263L12.6593 4.54576L12.9672 4.36311L13.282 4.18463L13.6038 4.0103L13.9328 3.84007L14.2695 3.6739L14.614 3.51177L14.9667 3.35363L15.3278 3.19945L15.6977 3.0492L16.0769 2.90285L16.4656 2.76037L16.8643 2.62173L17.2734 2.48691L17.6935 2.35587L18.1251 2.22859L18.5688 2.10505L19.0251 1.98522L19.4947 1.86908L19.9784 1.7566L20.477 1.64777L20.9914 1.54257L21.5224 1.44096L22.0713 1.34295L22.639 1.2485L23.2271 1.15761L23.8368 1.07024L24.4697 0.9864L25.1278 0.906059L25.8131 0.829206L26.5277 0.755827L27.2745 0.685911L28.0564 0.619443L28.8768 0.556412L29.7399 0.496808L30.6505 0.44062L31.614 0.387838L32.6374 0.338452L33.7287 0.292455L34.8979 0.249838L36.1577 0.210593L37.5237 0.174715L39.0167 0.142197L40.6639 0.113033L42.503 0.0872186L44.5879 0.064749L46.9995 0.0456204L49.8687 0.0298297L53.428 0.0173742L58.1603 0.00825165L65.3903 0.00246059L83.3905 0L296.97 0.000869478L306.855 0.00506917L312.505 0.0125998L316.538 0.0234626L319.698 0.0376595L322.307 0.0551928L324.536 0.0760656L326.484 0.100281L328.218 0.127844L329.78 0.158759L331.204 0.193031L332.512 0.230667L333.723 0.271671L334.85 0.316053L335.905 0.363818L336.896 0.414977L337.831 0.469536L338.716 0.527507L339.557 0.588899L340.356 0.653723L341.12 0.72199L341.849 0.793713L342.548 0.868905L343.219 0.947577L343.864 1.02975L344.484 1.11543L345.083 1.20463L345.66 1.29738L346.218 1.39369L346.757 1.49357L347.279 1.59705L347.785 1.70415L348.276 1.81488L348.752 1.92927L349.215 2.04733L349.664 2.1691L350.102 2.29459L350.527 2.42383L350.942 2.55684L351.345 2.69365L351.739 2.8343L352.122 2.97879L352.497 3.12717L352.862 3.27947L353.218 3.43571L353.567 3.59594L353.907 3.76017L354.24 3.92846L354.565 4.10082L354.883 4.27731L355.194 4.45796L355.499 4.64282L355.797 4.83191L356.089 5.02529L356.374 5.22299L356.654 5.42507L356.928 5.63158L357.196 5.84255L357.46 6.05805L357.717 6.27812L357.97 6.50282L358.218 6.73221L358.461 6.96635L358.699 7.20528L358.932 7.44909L359.161 7.69783L359.386 7.95156L359.606 8.21037L359.822 8.47432L360.034 8.74348L360.242 9.01793L360.447 9.29776L360.647 9.58305L360.843 9.87388L361.036 10.1703L361.225 10.4725L361.411 10.7805L361.593 11.0945L361.772 11.4144L361.947 11.7405L362.119 12.0729L362.288 12.4116L362.453 12.7568L362.616 13.1086L362.775 13.4672L362.931 13.8326L363.085 14.2051L363.235 14.5848L363.382 14.9718L363.527 15.3663L363.669 15.7685L363.808 16.1785L363.944 16.5966L364.077 17.0229L364.208 17.4576L364.336 17.901L364.462 18.3533L364.585 18.8146L364.706 19.2854L364.824 19.7658L364.939 20.2561L365.052 20.7565L365.163 21.2675L365.271 21.7893L365.377 22.3222L365.48 22.8666L365.581 23.423L365.68 23.9916L365.776 24.5729L365.871 25.1674L365.963 25.7756L366.052 26.3979L366.14 27.035L366.225 27.6873L366.309 28.3555L366.39 29.0403L366.468 29.7424L366.545 30.4625L366.62 31.2014L366.693 31.9601L366.763 32.7395L366.831 33.5406L366.898 34.3645L366.962 35.2125L367.024 36.0859L367.085 36.986L367.143 37.9146L367.199 38.8732L367.254 39.8638L367.306 40.8886L367.356 41.9497L367.405 43.0499L367.451 44.192L367.496 45.3793L367.538 46.6153L367.579 47.9043L367.618 49.251L367.655 50.6607L367.69 52.1398L367.723 53.6954L367.754 55.336L367.783 57.0718L367.811 58.9147L367.836 60.8793L367.86 62.9835L367.882 65.2493L367.902 67.705L367.92 70.387L367.936 73.3437L367.951 76.6413L367.963 80.3745L367.974 84.6849L367.983 89.7995L367.99 96.1186L367.995 104.46L367.998 117.001L368 145.604L368 333Z" fill="white"/>
</svg>
