<svg width="48" height="48" viewBox="0 0 48 48" fill="none" xmlns="http://www.w3.org/2000/svg">
<g clip-path="url(#clip0)">
<path d="M40.1707 39.05C39.4032 39.4521 38.5612 39.7012 37.6683 39.7906C37.4766 39.8098 37.3011 39.9068 37.1829 40.0591C37.0647 40.2113 37.0142 40.4054 37.0432 40.596C37.0837 40.8616 37.1024 41.0805 37.1024 41.2849C37.1024 44.2123 34.3213 46.5938 30.9028 46.5938C28.4126 46.5938 26.1721 45.324 25.195 43.3586C25.0838 43.1351 24.9121 42.9545 24.7032 42.8302V33.9458C24.7566 33.944 24.8099 33.9421 24.8645 33.9402C26.2385 33.8915 27.9476 33.8301 28.8996 34.7488C29.3897 35.2217 29.6752 35.9596 29.753 36.945C28.9453 37.2412 28.3675 38.0173 28.3675 38.9256C28.3675 40.0886 29.3146 41.0348 30.4787 41.0348C31.6428 41.0348 32.59 40.0886 32.59 38.9256C32.59 38.0016 31.9918 37.2151 31.1623 36.9306C31.0692 35.5445 30.6378 34.4718 29.8762 33.7368C28.4942 32.4033 26.3674 32.4794 24.8144 32.5348C24.7768 32.5361 24.7403 32.5374 24.7033 32.5387V28.1184C31.8757 28.133 35.4959 28.427 35.8094 32.2914C35.0019 32.5878 34.4241 33.3637 34.4241 34.2721C34.4241 35.435 35.3713 36.3813 36.5353 36.3813C37.6994 36.3813 38.6466 35.435 38.6466 34.2721C38.6466 33.3476 38.0479 32.5609 37.2178 32.2767C37.0444 29.7843 35.7407 28.1935 33.2454 27.4242C31.0808 26.7569 28.1254 26.7144 24.7033 26.7118V22.3186C28.1254 22.3159 31.0808 22.2735 33.2454 21.6062C35.7407 20.8369 37.0444 19.2461 37.2178 16.7537C38.0479 16.4695 38.6466 15.6827 38.6466 14.7582C38.6466 13.5953 37.6994 12.6491 36.5353 12.6491C35.3713 12.6491 34.4241 13.5953 34.4241 14.7582C34.4241 15.6666 35.0019 16.4426 35.8094 16.739C35.4959 20.6034 31.8757 20.8974 24.7033 20.912V16.6312C24.7403 16.6326 24.7768 16.6338 24.8144 16.6352C25.1435 16.6469 25.4983 16.6597 25.8662 16.6597C27.2353 16.6597 28.787 16.4842 29.8762 15.4332C30.6379 14.6983 31.0692 13.6254 31.1623 12.2394C31.9918 11.9549 32.59 11.1683 32.59 10.2443C32.59 9.08138 31.6428 8.13525 30.4787 8.13525C29.3146 8.13525 28.3675 9.08138 28.3675 10.2443C28.3675 11.1527 28.9453 11.9288 29.753 12.2251C29.6752 13.2105 29.3897 13.9484 28.8996 14.4212C27.9476 15.3398 26.2379 15.2784 24.8646 15.2298C24.81 15.2278 24.7567 15.2259 24.7032 15.2242V12.1778C24.7032 11.7894 24.3884 11.4747 24 11.4747C23.6116 11.4747 23.2969 11.7894 23.2969 12.1778V42.8304C23.0879 42.9547 22.9162 43.1354 22.805 43.359C21.8279 45.324 19.5875 46.5938 17.0972 46.5938C13.6787 46.5938 10.8976 44.2123 10.8976 41.2849C10.8976 41.0805 10.9164 40.8616 10.9569 40.596C10.9585 40.5844 11.1293 39.419 11.9307 38.646C12.2101 38.3765 12.2181 37.9313 11.9485 37.6519C11.6788 37.3725 11.2336 37.3642 10.9543 37.634C10.264 38.3 9.9065 39.1263 9.72828 39.7017C8.09131 39.3914 6.63481 38.5089 5.75413 37.2681C5.52941 36.9517 5.09038 36.8771 4.77369 37.1018C4.4571 37.3266 4.38256 37.7656 4.60738 38.0823C5.71925 39.6485 7.47463 40.7219 9.49541 41.0917C9.49288 41.157 9.49156 41.2212 9.49156 41.285C9.49156 44.9878 12.9036 48.0003 17.0974 48.0003C20.0648 48.0003 22.7572 46.478 24.0002 44.1107C25.2432 46.4779 27.9355 48.0001 30.9028 48.0001C35.0967 48.0001 38.5087 44.9876 38.5087 41.2849C38.5087 41.221 38.5074 41.1569 38.5048 41.0915C39.3216 40.9417 40.0989 40.6752 40.8233 40.2957C41.1673 40.1155 41.3 39.6905 41.1198 39.3466C40.9396 39.0025 40.5148 38.8698 40.1707 39.05ZM30.4786 38.2229C30.8673 38.2229 31.1836 38.5382 31.1836 38.9257C31.1836 39.3134 30.8674 39.6287 30.4786 39.6287C30.0898 39.6287 29.7736 39.3134 29.7736 38.9257C29.7737 38.5382 30.0899 38.2229 30.4786 38.2229ZM36.5353 33.5692C36.9239 33.5692 37.2403 33.8845 37.2403 34.2721C37.2403 34.6597 36.924 34.975 36.5353 34.975C36.1465 34.975 35.8303 34.6597 35.8303 34.2721C35.8303 33.8846 36.1466 33.5692 36.5353 33.5692ZM36.5353 14.0554C36.9239 14.0554 37.2403 14.3707 37.2403 14.7582C37.2403 15.1459 36.924 15.4612 36.5353 15.4612C36.1465 15.4612 35.8303 15.1459 35.8303 14.7582C35.8303 14.3707 36.1466 14.0554 36.5353 14.0554ZM30.4786 9.54132C30.8673 9.54132 31.1836 9.8566 31.1836 10.2442C31.1836 10.6318 30.8674 10.9471 30.4786 10.9471C30.0898 10.9471 29.7736 10.6318 29.7736 10.2442C29.7737 9.85669 30.0899 9.54132 30.4786 9.54132Z" fill="#FE9393"/>
<path d="M4.85766 34.5211C4.85766 33.2494 5.39212 31.9824 6.32409 31.0452C6.50391 30.8643 6.57178 30.6003 6.50128 30.3551C6.43078 30.11 6.23306 29.9223 5.98453 29.8646C3.28894 29.2384 1.40625 27.1358 1.40625 24.7514C1.40625 23.2683 2.09709 21.8588 3.35147 20.7827C3.50166 20.6539 3.59053 20.4679 3.59644 20.2702C3.60244 20.0726 3.52491 19.8815 3.38297 19.744C2.66475 19.0482 2.26922 18.1577 2.26922 17.2363C2.26922 15.1707 4.17253 13.5018 6.60216 13.4372C6.61312 13.4373 7.68553 13.455 8.43919 14.1215C8.57297 14.2398 8.73919 14.298 8.90475 14.298C9.09919 14.298 9.29278 14.2178 9.43172 14.0607C9.68897 13.7698 9.66169 13.3254 9.37087 13.0682C8.56069 12.3516 7.55541 12.1304 6.99975 12.0619C6.72769 11.5627 6.58341 11.0196 6.58341 10.4728C6.58341 9.31103 7.19784 8.22681 8.26912 7.49819C8.59022 7.27985 8.67347 6.8425 8.45503 6.52141C8.23669 6.20031 7.79925 6.11697 7.47825 6.3355C6.01575 7.3301 5.17706 8.83816 5.17706 10.4729C5.17706 11.0433 5.28384 11.6086 5.49028 12.146C2.82375 12.6506 0.862969 14.7293 0.862969 17.2365C0.862969 18.3071 1.23112 19.3399 1.91184 20.208C0.673875 21.4845 0 23.0745 0 24.7514C0 27.4604 1.84762 29.871 4.60819 30.9137C3.86437 31.9781 3.45141 33.2459 3.45141 34.5211C3.45141 34.9095 3.76612 35.2242 4.15453 35.2242C4.54294 35.2242 4.85766 34.9094 4.85766 34.5211Z" fill="#FE9393"/>
<path d="M48 24.7515C48 23.0744 47.3262 21.4844 46.0881 20.2079C46.7688 19.3398 47.137 18.3069 47.137 17.2364C47.137 14.7293 45.1761 12.6505 42.5096 12.146C42.7161 11.6085 42.8229 11.0431 42.8229 10.4728C42.8229 7.59881 40.185 5.26059 36.9427 5.26059C36.878 5.26059 36.8085 5.26209 36.736 5.26472C36.5562 3.93863 35.8639 2.70094 34.7471 1.72969C33.4891 0.635719 31.8514 0.0215625 30.1356 0.00065625C30.1044 0.0001875 30.0731 0 30.0419 0C27.4856 0 25.1365 1.28728 24 3.30731C22.8636 1.28719 20.5148 0 17.9581 0C17.9271 0 17.8956 0.0001875 17.8645 0.00065625C16.1486 0.0216563 14.5108 0.635719 13.2529 1.72969C12.1362 2.70075 11.4441 3.93834 11.2641 5.26472C11.1915 5.26209 11.1221 5.26059 11.0574 5.26059C10.669 5.26059 10.3542 5.57531 10.3542 5.96372C10.3542 6.35213 10.669 6.66684 11.0574 6.66684C11.2722 6.66684 11.5715 6.68869 11.8385 6.72384C12.05 6.75169 12.2607 6.68278 12.4144 6.53681C12.5683 6.39075 12.648 6.18309 12.6313 5.97159L12.6271 5.92359C12.626 5.91094 12.6245 5.89838 12.624 5.89247C12.6668 3.49538 15.0746 1.44113 17.8817 1.40663C20.0023 1.38506 21.9406 2.43047 22.8208 4.08131C22.9319 4.28972 23.0978 4.45903 23.297 4.57772V8.93147C23.297 9.31988 23.6117 9.63459 24.0001 9.63459C24.3885 9.63459 24.7032 9.31988 24.7032 8.93147V4.57781C24.9025 4.45922 25.0683 4.28981 25.1794 4.08141C26.0488 2.45063 27.9513 1.40625 30.0412 1.40625C30.0669 1.40625 30.0926 1.40644 30.1183 1.40672C32.9255 1.44113 35.3333 3.49538 35.376 5.88572C35.3647 5.87766 35.3561 7.29525 34.6001 8.19872C34.351 8.49656 34.3904 8.93991 34.6882 9.18909C34.8197 9.29925 34.9797 9.35297 35.139 9.35297C35.34 9.35297 35.5395 9.26728 35.6786 9.10097C36.3334 8.31844 36.5996 7.34513 36.7079 6.67369C36.7924 6.66928 36.8724 6.66675 36.9428 6.66675C39.4096 6.66675 41.4167 8.37413 41.4167 10.4727C41.4167 11.124 41.2145 11.771 40.832 12.3437C40.6897 12.5566 40.6745 12.8301 40.7922 13.0574C40.9099 13.2848 41.1419 13.4303 41.398 13.4371C43.8276 13.5018 45.7309 15.1706 45.7309 17.2362C45.7309 18.1576 45.3354 19.0481 44.6171 19.7439C44.61 19.7513 43.858 20.4998 42.8771 20.5778C42.4901 20.6085 42.2012 20.9472 42.232 21.3344C42.2613 21.7026 42.5691 21.9818 42.9322 21.9818C42.9508 21.9818 42.9697 21.981 42.9887 21.9796C43.8795 21.9088 44.6116 21.5102 45.0741 21.1832C46.0579 22.1976 46.5938 23.4458 46.5938 24.7515C46.5938 27.136 44.7111 29.2386 42.0155 29.8646C41.7671 29.9223 41.5692 30.1101 41.4987 30.3551C41.4282 30.6003 41.496 30.8644 41.6759 31.0452C42.6078 31.9825 43.1424 33.2495 43.1424 34.5211C43.1424 35.4107 42.8796 36.2906 42.3826 37.0659C42.173 37.3928 42.2681 37.8278 42.5951 38.0373C42.7125 38.1127 42.844 38.1487 42.9739 38.1487C43.2055 38.1487 43.4322 38.0344 43.5664 37.8249C44.209 36.8228 44.5487 35.6803 44.5487 34.5212C44.5487 33.2461 44.1357 31.9783 43.3918 30.9138C46.1524 29.8712 48 27.4606 48 24.7515Z" fill="#FE9393"/>
<path d="M7.9418 24.055C7.92005 24.4428 8.21677 24.7747 8.60433 24.7965C8.61783 24.7972 8.63114 24.7976 8.64445 24.7976C9.01467 24.7976 9.3248 24.5082 9.3458 24.134C9.34777 24.0986 9.58505 20.5942 13.1316 19.7316C13.509 19.6398 13.7404 19.2595 13.6486 18.8822C13.5569 18.5048 13.1769 18.2731 12.7993 18.3651C10.4224 18.9433 9.2258 20.4599 8.64042 21.6304C8.01398 22.8831 7.94442 24.0078 7.9418 24.055Z" fill="#FE9393"/>
<path d="M18.83 7.79289C18.4455 7.7568 18.1006 8.04021 18.064 8.42692C17.8558 10.6336 15.5706 11.4789 15.4705 11.5148C15.1053 11.644 14.9134 12.0444 15.0416 12.4102C15.143 12.6998 15.4147 12.8809 15.7051 12.8809C15.7822 12.8809 15.8608 12.868 15.9376 12.8411C16.0695 12.7949 19.1702 11.6737 19.464 8.55892C19.5004 8.1723 19.2167 7.82936 18.83 7.79289Z" fill="#FE9393"/>
<path d="M18.264 39.1255C18.3616 39.1719 18.4645 39.1939 18.5657 39.1939C18.8285 39.1939 19.0806 39.0459 19.2011 38.7927C19.3678 38.4421 19.2189 38.0225 18.8682 37.8557C16.1623 36.5682 16.3939 33.5074 16.4053 33.3748C16.4402 32.9891 16.1565 32.6475 15.7706 32.6113C15.3847 32.5764 15.0411 32.8592 15.0049 33.2459C14.9892 33.4151 14.6584 37.4099 18.264 39.1255Z" fill="#FE9393"/>
<path d="M16.5979 26.0747C16.2472 26.2415 16.0982 26.661 16.265 27.0116C16.3854 27.2648 16.6376 27.4129 16.9003 27.4129C17.0016 27.4129 17.1044 27.3909 17.2019 27.3445C19.4783 26.2615 19.2701 23.7455 19.26 23.639C19.2237 23.2522 18.8799 22.9695 18.4944 23.0044C18.1077 23.0407 17.8237 23.3834 17.8598 23.77C17.8614 23.7863 17.9966 25.4092 16.5979 26.0747Z" fill="#FE9393"/>
<path d="M33.313 24.585C33.313 24.9733 33.6278 25.2881 34.0162 25.2881C34.4046 25.2881 34.7194 24.9733 34.7194 24.585C34.7194 24.1966 34.4046 23.8818 34.0162 23.8818C33.6278 23.8818 33.313 24.1966 33.313 24.585Z" fill="#FE9393"/>
<path d="M38.7965 25.2881C39.1849 25.2881 39.4997 24.9733 39.4997 24.585C39.4997 24.1966 39.1849 23.8818 38.7965 23.8818C38.4081 23.8818 38.0933 24.1966 38.0933 24.585C38.0933 24.9733 38.4082 25.2881 38.7965 25.2881Z" fill="#FE9393"/>
<path d="M29.7758 43.9443C29.7758 44.3326 30.0906 44.6475 30.479 44.6475C30.8674 44.6475 31.1822 44.3326 31.1822 43.9443C31.1822 43.556 30.8674 43.2412 30.479 43.2412C30.0906 43.2412 29.7758 43.556 29.7758 43.9443Z" fill="#FE9393"/>
<path d="M31.1822 5.22559C31.1822 4.83727 30.8674 4.52246 30.479 4.52246C30.0906 4.52246 29.7758 4.83727 29.7758 5.22559C29.7758 5.6139 30.0906 5.92871 30.479 5.92871C30.8674 5.92871 31.1822 5.6139 31.1822 5.22559Z" fill="#FE9393"/>
</g>
<defs>
<clipPath id="clip0">
<rect width="48" height="48" fill="white"/>
</clipPath>
</defs>
</svg>
