<svg width="660" height="744" viewBox="0 0 660 744" fill="none" xmlns="http://www.w3.org/2000/svg">
<path fill-rule="evenodd" clip-rule="evenodd" d="M660 372L659.998 606.716L659.993 623.561L659.985 633.968L659.974 641.611L659.959 647.691L659.941 652.758L659.919 657.113L659.894 660.939L659.866 664.354L659.835 667.441L659.8 670.26L659.762 672.855L659.72 675.26L659.676 677.502L659.628 679.602L659.576 681.578L659.521 683.443L659.463 685.21L659.401 686.888L659.336 688.487L659.268 690.013L659.196 691.473L659.12 692.872L659.042 694.215L658.959 695.507L658.874 696.751L658.784 697.95L658.692 699.107L658.595 700.226L658.496 701.308L658.392 702.355L658.285 703.371L658.175 704.356L658.06 705.312L657.943 706.241L657.821 707.144L657.696 708.022L657.567 708.877L657.434 709.709L657.298 710.52L657.157 711.311L657.013 712.082L656.865 712.834L656.713 713.568L656.558 714.285L656.398 714.986L656.234 715.67L656.066 716.339L655.895 716.993L655.719 717.633L655.539 718.259L655.355 718.871L655.166 719.471L654.973 720.057L654.776 720.632L654.575 721.195L654.37 721.746L654.159 722.286L653.945 722.815L653.726 723.334L653.502 723.843L653.273 724.341L653.04 724.83L652.802 725.309L652.559 725.779L652.312 726.24L652.059 726.692L651.802 727.135L651.539 727.57L651.271 727.997L650.997 728.416L650.719 728.826L650.435 729.229L650.145 729.625L649.85 730.013L649.549 730.393L649.243 730.767L648.93 731.133L648.612 731.493L648.287 731.846L647.956 732.192L647.619 732.532L647.275 732.865L646.925 733.192L646.568 733.512L646.204 733.827L645.834 734.135L645.456 734.438L645.07 734.735L644.677 735.026L644.277 735.311L643.869 735.591L643.453 735.865L643.028 736.133L642.595 736.397L642.154 736.654L641.704 736.907L641.244 737.155L640.775 737.397L640.297 737.634L639.809 737.867L639.31 738.094L638.802 738.316L638.282 738.534L637.751 738.747L637.209 738.955L636.654 739.158L636.088 739.357L635.509 739.551L634.916 739.74L634.31 739.925L633.69 740.105L633.055 740.281L632.405 740.453L631.739 740.62L631.057 740.783L630.357 740.941L629.639 741.095L628.902 741.245L628.145 741.391L627.368 741.533L626.569 741.67L625.746 741.803L624.9 741.932L624.029 742.057L623.13 742.178L622.203 742.295L621.245 742.408L620.256 742.517L619.232 742.622L618.171 742.723L617.071 742.82L615.929 742.913L614.741 743.002L613.504 743.087L612.214 743.168L610.865 743.246L609.452 743.319L607.969 743.389L606.408 743.455L604.76 743.517L603.016 743.576L601.162 743.63L599.184 743.681L597.063 743.728L594.775 743.771L592.292 743.811L589.574 743.846L586.57 743.879L583.209 743.907L579.388 743.931L574.951 743.952L569.643 743.969L563.001 743.982L554.032 743.992L539.817 743.998L491.668 744L123.505 743.999L107.746 743.993L98.233 743.984L91.3093 743.971L85.8278 743.955L81.2727 743.935L77.3657 743.911L73.9392 743.883L70.8837 743.852L68.1241 743.817L65.6061 743.778L63.2895 743.735L61.1435 743.689L59.1438 743.639L57.2714 743.585L55.5105 743.527L53.8484 743.465L52.2743 743.4L50.7794 743.331L49.3558 743.258L47.997 743.181L46.6975 743.1L45.4522 743.016L44.2568 742.927L43.1076 742.835L42.0012 742.738L40.9345 742.638L39.9049 742.534L38.91 742.426L37.9476 742.313L37.0158 742.197L36.1127 742.077L35.2369 741.952L34.3867 741.824L33.5608 741.691L32.7581 741.555L31.9772 741.414L31.2173 741.269L30.4774 741.12L29.7564 740.966L29.0536 740.808L28.3683 740.646L27.6996 740.48L27.047 740.309L26.4098 740.134L25.7873 739.954L25.1791 739.77L24.5846 739.581L24.0033 739.388L23.4349 739.19L22.8788 738.987L22.3346 738.78L21.8019 738.568L21.2805 738.351L20.7699 738.13L20.2699 737.903L19.78 737.672L19.3001 737.435L18.8298 737.194L18.3689 736.947L17.9172 736.695L17.4743 736.438L17.0401 736.176L16.6143 735.908L16.1968 735.635L15.7873 735.356L15.3857 735.071L14.9917 734.781L14.6053 734.486L14.2261 734.184L13.8542 733.876L13.4893 733.563L13.1312 733.243L12.78 732.917L12.4353 732.585L12.0971 732.247L11.7652 731.901L11.4396 731.55L11.1201 731.191L10.8066 730.826L10.4991 730.453L10.1973 730.074L9.90128 729.687L9.61086 729.293L9.32596 728.891L9.04651 728.482L8.77242 728.064L8.5036 727.639L8.23999 727.205L7.98149 726.763L7.72805 726.312L7.47959 725.853L7.23604 725.384L6.99734 724.907L6.76343 724.419L6.53424 723.923L6.30972 723.416L6.08981 722.899L5.87446 722.371L5.66361 721.833L5.4572 721.283L5.2552 720.722L5.05756 720.15L4.86422 719.565L4.67515 718.967L4.49029 718.357L4.30962 717.734L4.13308 717.096L3.96064 716.444L3.79227 715.778L3.62792 715.096L3.46756 714.398L3.31116 713.684L3.15868 712.952L3.01009 712.203L2.86537 711.435L2.72448 710.647L2.58739 709.84L2.45408 709.011L2.32452 708.16L2.19868 707.285L2.07655 706.386L1.95809 705.462L1.84328 704.51L1.73211 703.53L1.62455 702.519L1.52057 701.477L1.42017 700.4L1.32332 699.288L1.23001 698.137L1.14021 696.944L1.05391 695.708L0.971099 694.424L0.891757 693.09L0.815871 691.7L0.743427 690.25L0.674413 688.735L0.608816 687.148L0.546624 685.483L0.487827 683.731L0.432414 681.882L0.380375 679.925L0.331703 677.845L0.286387 675.627L0.24442 673.25L0.205795 670.687L0.170505 667.906L0.138545 664.866L0.109908 661.508L0.0845905 657.754L0.0625871 653.493L0.0438945 648.556L0.0285093 642.665L0.0164291 635.326L0.00765166 625.495L0.00217562 610.21L0 567.324L0.00112444 141.321L0.00554912 122.518L0.0132748 111.456L0.0243028 103.482L0.038635 97.1997L0.0562738 91.9954L0.0772222 87.5411L0.101484 83.6405L0.129063 80.1664L0.159964 77.0315L0.194192 74.1732L0.231754 71.545L0.272656 69.1116L0.316904 66.8452L0.364507 64.7237L0.415472 62.7293L0.469809 60.8472L0.527527 59.0653L0.588637 57.3733L0.653148 55.7624L0.721073 54.2251L0.792423 52.7551L0.867211 51.3466L0.94545 49.9948L1.02716 48.6954L1.11234 47.4444L1.20102 46.2385L1.29321 45.0746L1.38894 43.9501L1.4882 42.8624L1.59104 41.8093L1.69746 40.7888L1.80748 39.799L1.92112 38.8384L2.03842 37.9053L2.15938 36.9983L2.28403 36.1162L2.4124 35.2578L2.54452 34.4219L2.6804 33.6075L2.82008 32.8137L2.96358 32.0396L3.11093 31.2844L3.26216 30.5472L3.41731 29.8275L3.57641 29.1245L3.73948 28.4377L3.90657 27.7663L4.07771 27.1099L4.25294 26.468L4.43229 25.84L4.61581 25.2255L4.80353 24.624L4.99551 24.0352L5.19178 23.4587L5.39239 22.8941L5.59738 22.341L5.80681 21.7991L6.02072 21.2681L6.23918 20.7477L6.46222 20.2377L6.68992 19.7376L6.92232 19.2474L7.15949 18.7667L7.40148 18.2953L7.64837 17.833L7.90022 17.3795L8.15709 16.9348L8.41907 16.4984L8.68622 16.0704L8.95863 15.6505L9.23637 15.2385L9.51952 14.8343L9.80817 14.4377L10.1024 14.0485L10.4023 13.6667L10.708 13.2921L11.0196 12.9245L11.3372 12.5638L11.6608 12.2099L11.9907 11.8626L12.3268 11.522L12.6694 11.1877L13.0186 10.8598L13.3745 10.5382L13.7372 10.2227L14.1069 9.91324L14.4837 9.60974L14.8678 9.31211L15.2594 9.02026L15.6585 8.73411L16.0655 8.45358L16.4804 8.1786L16.9036 7.90909L17.335 7.64498L17.7751 7.3862L18.224 7.13269L18.682 6.88437L19.1493 6.6412L19.6261 6.40311L20.1127 6.17004L20.6095 5.94194L21.1167 5.71875L21.6347 5.50042L22.1637 5.2869L22.7041 5.07815L23.2564 4.8741L23.8209 4.67473L24.398 4.47998L24.9883 4.28981L25.592 4.10418L26.2099 3.92306L26.8424 3.74639L27.4901 3.57416L28.1535 3.40631L28.8335 3.24283L29.5306 3.08366L30.2457 2.92879L30.9795 2.77817L31.733 2.63178L32.507 2.4896L33.3027 2.35159L34.121 2.21772L34.9633 2.08798L35.8309 1.96233L36.7251 1.84075L37.6476 1.72323L38.6 1.60973L39.5843 1.50023L40.6026 1.39472L41.6572 1.29318L42.7507 1.19559L43.886 1.10192L45.0662 1.01217L46.2952 0.92632L47.5769 0.844348L48.9162 0.766243L50.3185 0.69199L51.79 0.621578L53.3379 0.554993L54.9709 0.492224L56.6991 0.43326L58.5344 0.378091L60.4916 0.326706L62.5887 0.279098L64.848 0.235258L67.298 0.195177L69.9755 0.158851L72.9298 0.126271L76.2282 0.0974334L79.9674 0.0723322L84.2927 0.0509634L89.4384 0.0333233L95.822 0.019409L104.309 0.00921807L117.276 0.00274876L149.559 0L532.609 0.000971308L550.338 0.00566285L560.471 0.0140754L567.703 0.0262105L573.371 0.0420701L578.051 0.0616569L582.048 0.0849742L585.542 0.112026L588.651 0.142817L591.454 0.177353L594.007 0.215639L596.354 0.257682L598.525 0.303489L600.547 0.353068L602.438 0.406428L604.216 0.463577L605.893 0.524527L607.48 0.589287L608.987 0.657869L610.422 0.730285L611.791 0.806548L613.099 0.886671L614.353 0.970668L615.556 1.05856L616.712 1.15035L617.825 1.24606L618.898 1.34571L619.933 1.44933L620.934 1.55691L621.901 1.6685L622.838 1.7841L623.745 1.90373L624.625 2.02743L625.48 2.15522L626.309 2.28711L627.116 2.42314L627.9 2.56333L628.663 2.7077L629.406 2.85629L630.13 3.00913L630.836 3.16624L631.524 3.32766L632.195 3.49342L632.85 3.66355L633.49 3.83809L634.115 4.01708L634.725 4.20055L635.322 4.38855L635.905 4.5811L636.475 4.77826L637.033 4.98007L637.58 5.18657L638.114 5.39781L638.637 5.61383L639.149 5.83469L639.651 6.06044L640.143 6.29113L640.624 6.52682L641.096 6.76755L641.558 7.0134L642.011 7.26442L642.456 7.52067L642.891 7.78223L643.318 8.04915L643.737 8.32151L644.148 8.59937L644.551 8.88283L644.946 9.17194L645.334 9.4668L645.714 9.76749L646.087 10.0741L646.453 10.3867L646.812 10.7054L647.164 11.0303L647.51 11.3615L647.849 11.699L648.182 12.0431L648.509 12.3938L648.829 12.7513L649.144 13.1156L649.452 13.4868L649.755 13.8652L650.052 14.2508L650.343 14.6439L650.629 15.0444L650.909 15.4527L651.184 15.8688L651.454 16.2929L651.718 16.7252L651.978 17.166L652.232 17.6152L652.481 18.0733L652.725 18.5403L652.965 19.0165L653.2 19.5022L653.43 19.9975L653.655 20.5027L653.875 21.0182L654.092 21.5441L654.303 22.0807L654.51 22.6284L654.713 23.1875L654.911 23.7583L655.105 24.3412L655.295 24.9365L655.48 25.5447L655.662 26.1662L655.839 26.8014L656.012 27.4508L656.181 28.115L656.346 28.7944L656.507 29.4896L656.664 30.2012L656.817 30.9299L656.966 31.6764L657.112 32.4414L657.253 33.2257L657.391 34.0301L657.525 34.8556L657.655 35.7032L657.781 36.5739L657.904 37.4688L658.023 38.3892L658.139 39.3365L658.25 40.3122L658.359 41.3177L658.463 42.355L658.564 43.4259L658.661 44.5326L658.755 45.6773L658.846 46.8628L658.933 48.0918L659.016 49.3677L659.096 50.694L659.172 52.0748L659.245 53.5147L659.315 55.0191L659.381 56.594L659.444 58.2462L659.503 59.984L659.559 61.8168L659.612 63.7559L659.661 65.8146L659.707 68.0093L659.749 70.3599L659.788 72.8911L659.824 75.6344L659.857 78.6305L659.886 81.9335L659.912 85.6174L659.934 89.7878L659.953 94.603L659.969 100.317L659.982 107.376L659.991 116.694L659.997 130.704L660 162.657L660 372Z" fill="white"/>
</svg>
