<svg width="56" height="56" viewBox="0 0 56 56" fill="none" xmlns="http://www.w3.org/2000/svg">
<path d="M17.8281 53.9219H38.6094C40.4786 53.9219 41.7812 51.9621 41.7812 50.2031V22.9688C41.7812 20.2171 39.9007 17.4375 37.706 15.8294C38.3779 15.6259 38.9665 15.2119 39.3852 14.6485C39.8038 14.085 40.0303 13.4019 40.0312 12.7V5.34691C40.0303 4.48028 39.6856 3.64943 39.0728 3.03662C38.46 2.42382 37.6292 2.07911 36.7626 2.07812H19.2374C18.3708 2.07911 17.54 2.42382 16.9272 3.03662C16.3144 3.64943 15.9697 4.48028 15.9688 5.34691V12.7C15.9699 13.4896 16.2565 14.2521 16.7756 14.8471C17.2947 15.4421 18.0114 15.8293 18.7936 15.9375C18.3146 16.2588 17.8582 16.6125 17.4275 16.996C15.443 18.7615 14.2734 20.9309 14.2188 22.9481C14.2188 22.9549 14.2188 22.9618 14.2188 22.9688V50.2031C14.2188 52.0451 16.0403 53.9219 17.8281 53.9219ZM40.25 41.4531H15.75V25.0469H40.25V41.4531ZM38.6094 52.3906H17.8281C16.8959 52.3906 15.75 51.1844 15.75 50.2031V42.9844H40.25V50.2031C40.25 51.194 39.5182 52.3906 38.6094 52.3906ZM19.2374 14.4375C18.7767 14.4371 18.3351 14.2539 18.0093 13.9281C17.6836 13.6023 17.5004 13.1606 17.5 12.7V5.34691C17.5004 4.88623 17.6836 4.44453 18.0093 4.11877C18.3351 3.79301 18.7767 3.60981 19.2374 3.60938H36.7626C37.2233 3.60981 37.6649 3.79301 37.9907 4.11877C38.3164 4.44453 38.4996 4.88623 38.5 5.34691V12.7C38.4996 13.1606 38.3164 13.6023 37.9907 13.9281C37.6649 14.2539 37.2233 14.4371 36.7626 14.4375H19.2374ZM22.8713 15.9688H34.1353C35.2531 15.9688 36.7897 16.8347 38.0503 18.175C39.4483 19.6613 40.25 21.4085 40.25 22.9688V23.5156H15.75V22.9797C15.8527 19.5008 20.389 15.9688 22.8713 15.9688Z" fill="#FE9393"/>
<path d="M20.2344 5.03125C20.0313 5.03125 19.8366 5.11191 19.693 5.2555C19.5494 5.39908 19.4688 5.59382 19.4688 5.79688V11.5938C19.4688 11.7968 19.5494 11.9915 19.693 12.1351C19.8366 12.2787 20.0313 12.3594 20.2344 12.3594C20.4374 12.3594 20.6322 12.2787 20.7758 12.1351C20.9193 11.9915 21 11.7968 21 11.5938V5.79688C21 5.59382 20.9193 5.39908 20.7758 5.2555C20.6322 5.11191 20.4374 5.03125 20.2344 5.03125Z" fill="#FE9393"/>
<path d="M24.1719 5.03125C23.9688 5.03125 23.7741 5.11191 23.6305 5.2555C23.4869 5.39908 23.4062 5.59382 23.4062 5.79688V11.5938C23.4062 11.7968 23.4869 11.9915 23.6305 12.1351C23.7741 12.2787 23.9688 12.3594 24.1719 12.3594C24.3749 12.3594 24.5697 12.2787 24.7133 12.1351C24.8568 11.9915 24.9375 11.7968 24.9375 11.5938V5.79688C24.9375 5.59382 24.8568 5.39908 24.7133 5.2555C24.5697 5.11191 24.3749 5.03125 24.1719 5.03125Z" fill="#FE9393"/>
<path d="M27.8906 5.03125C27.6876 5.03125 27.4928 5.11191 27.3492 5.2555C27.2057 5.39908 27.125 5.59382 27.125 5.79688V11.5938C27.125 11.7968 27.2057 11.9915 27.3492 12.1351C27.4928 12.2787 27.6876 12.3594 27.8906 12.3594C28.0937 12.3594 28.2884 12.2787 28.432 12.1351C28.5756 11.9915 28.6562 11.7968 28.6562 11.5938V5.79688C28.6562 5.59382 28.5756 5.39908 28.432 5.2555C28.2884 5.11191 28.0937 5.03125 27.8906 5.03125Z" fill="#FE9393"/>
<path d="M31.8281 5.03125C31.6251 5.03125 31.4303 5.11191 31.2867 5.2555C31.1432 5.39908 31.0625 5.59382 31.0625 5.79688V11.5938C31.0625 11.7968 31.1432 11.9915 31.2867 12.1351C31.4303 12.2787 31.6251 12.3594 31.8281 12.3594C32.0312 12.3594 32.2259 12.2787 32.3695 12.1351C32.5131 11.9915 32.5938 11.7968 32.5938 11.5938V5.79688C32.5938 5.59382 32.5131 5.39908 32.3695 5.2555C32.2259 5.11191 32.0312 5.03125 31.8281 5.03125Z" fill="#FE9393"/>
<path d="M35.6562 12.3594C35.8593 12.3594 36.054 12.2787 36.1976 12.1351C36.3412 11.9915 36.4219 11.7968 36.4219 11.5938V5.79688C36.4219 5.59382 36.3412 5.39908 36.1976 5.2555C36.054 5.11191 35.8593 5.03125 35.6562 5.03125C35.4532 5.03125 35.2585 5.11191 35.1149 5.2555C34.9713 5.39908 34.8906 5.59382 34.8906 5.79688V11.5938C34.8906 11.7968 34.9713 11.9915 35.1149 12.1351C35.2585 12.2787 35.4532 12.3594 35.6562 12.3594Z" fill="#FE9393"/>
<path d="M22.4219 35.875H25.5938V39.0469C25.594 39.3079 25.6978 39.5581 25.8824 39.7426C26.0669 39.9272 26.3171 40.031 26.5781 40.0312H29.3125C29.5735 40.031 29.8237 39.9272 30.0082 39.7426C30.1928 39.5581 30.2966 39.3079 30.2969 39.0469V35.875H33.4688C33.7297 35.8747 33.9799 35.7709 34.1645 35.5864C34.349 35.4018 34.4528 35.1516 34.4531 34.8906V32.1562C34.4528 31.8953 34.349 31.6451 34.1645 31.4605C33.9799 31.276 33.7297 31.1722 33.4688 31.1719H30.2969V28C30.2966 27.739 30.1928 27.4888 30.0082 27.3043C29.8237 27.1197 29.5735 27.0159 29.3125 27.0156H26.5781C26.3171 27.0159 26.0669 27.1197 25.8824 27.3043C25.6978 27.4888 25.594 27.739 25.5938 28V31.1719H22.4219C22.1609 31.1722 21.9107 31.276 21.7261 31.4605C21.5416 31.6451 21.4378 31.8953 21.4375 32.1562V34.8906C21.4378 35.1516 21.5416 35.4018 21.7261 35.5864C21.9107 35.7709 22.1609 35.8747 22.4219 35.875ZM22.9688 32.7031H26.1406C26.4016 32.7028 26.6518 32.599 26.8364 32.4145C27.0209 32.2299 27.1247 31.9797 27.125 31.7188V28.5469H28.7656V31.7188C28.7659 31.9797 28.8697 32.2299 29.0543 32.4145C29.2388 32.599 29.489 32.7028 29.75 32.7031H32.9219V34.3438H29.75C29.489 34.344 29.2388 34.4478 29.0543 34.6324C28.8697 34.8169 28.7659 35.0671 28.7656 35.3281V38.5H27.125V35.3281C27.1247 35.0671 27.0209 34.8169 26.8364 34.6324C26.6518 34.4478 26.4016 34.344 26.1406 34.3438H22.9688V32.7031Z" fill="#FE9393"/>
</svg>
