<svg width="26" height="24" viewBox="0 0 26 24" fill="none" xmlns="http://www.w3.org/2000/svg">
<path d="M4.42857 10.1423H10C10.237 10.1423 10.4286 9.9503 10.4286 9.71373C10.4286 9.47716 10.237 9.28516 10 9.28516H4.42857C4.19157 9.28516 4 9.47716 4 9.71373C4 9.9503 4.19157 10.1423 4.42857 10.1423Z" fill="black"/>
<path d="M15.5714 11.8574H4.42857C4.19157 11.8574 4 12.0494 4 12.286C4 12.5226 4.19157 12.7146 4.42857 12.7146H15.5714C15.8084 12.7146 16 12.5226 16 12.286C16 12.0494 15.8084 11.8574 15.5714 11.8574Z" fill="black"/>
<path d="M15.5714 14.4287H4.42857C4.19157 14.4287 4 14.6207 4 14.8573C4 15.0939 4.19157 15.2859 4.42857 15.2859H15.5714C15.8084 15.2859 16 15.0939 16 14.8573C16 14.6207 15.8084 14.4287 15.5714 14.4287Z" fill="black"/>
<path d="M23.3182 0.315156L8.68596 0.285156C7.28453 0.285156 6.14453 1.42516 6.14453 2.82659V5.02258L2.68596 5.02987C1.28453 5.02987 0.144531 6.16987 0.144531 7.5713V16.6317C0.144531 18.0332 1.28453 19.1727 2.68596 19.1727H5.28739V23.4584C5.28739 23.6354 5.39625 23.7944 5.56167 23.8583C5.61182 23.8776 5.6641 23.887 5.71596 23.887C5.83425 23.887 5.95039 23.8377 6.0331 23.7469L10.192 19.1719L17.3174 19.1427C18.7188 19.1427 19.8588 18.0027 19.8588 16.6017V16.5533L22.1131 19.033C22.1958 19.1239 22.312 19.1732 22.4302 19.1732C22.4821 19.1732 22.5344 19.1637 22.5845 19.1444C22.75 19.0806 22.8588 18.9216 22.8588 18.7446V14.4589H23.3174C24.7188 14.4589 25.8588 13.3189 25.8588 11.9179V2.85658C25.8588 1.45558 24.7192 0.315585 23.3182 0.315156ZM19.0017 16.6013C19.0017 17.53 18.2461 18.2852 17.3157 18.2852L9.99996 18.3152C9.87996 18.3156 9.7651 18.3666 9.68453 18.4553L6.14453 22.3497V18.7437C6.14453 18.5072 5.95296 18.3152 5.71596 18.3152H2.68596C1.75725 18.3152 1.00167 17.5596 1.00167 16.6313V7.57087C1.00167 6.64216 1.75725 5.88658 2.68682 5.88658L6.5731 5.87844C6.57353 5.87844 6.57353 5.87844 6.57396 5.87844L17.3174 5.85616C18.2461 5.85616 19.0017 6.61173 19.0017 7.54044V15.4437V16.6013ZM25.0017 11.917C25.0017 12.8457 24.2461 13.6009 23.3174 13.6009H22.4302C22.1932 13.6009 22.0017 13.7929 22.0017 14.0294V17.6354L19.8588 15.2783V7.54087C19.8588 6.13944 18.7188 4.99944 17.3165 4.99944L7.00167 5.02044V2.82616C7.00167 1.89744 7.75725 1.14187 8.6851 1.14187L23.317 1.17187C23.3174 1.17187 23.3174 1.17187 23.3178 1.17187C24.2465 1.17187 25.0021 1.92744 25.0021 2.85616V11.917H25.0017Z" fill="black"/>
</svg>
