<svg width="26" height="26" viewBox="0 0 26 26" fill="none" xmlns="http://www.w3.org/2000/svg">
<g clip-path="url(#clip0)">
<path d="M20.4634 14.8547C20.1762 14.8548 19.8931 14.9226 19.6371 15.0527C19.3811 15.1828 19.1594 15.3716 18.9901 15.6035C18.821 15.3712 18.5993 15.1822 18.3432 15.0519C18.0871 14.9215 17.8038 14.8536 17.5164 14.8535C16.9098 14.8535 16.4156 15.1035 16.0873 15.5763C15.832 15.944 15.6914 16.4351 15.6914 16.9587C15.6914 19.2204 18.672 21.1755 18.7989 21.2578C18.8559 21.2947 18.9225 21.3143 18.9904 21.3142C19.0584 21.3141 19.1248 21.2943 19.1818 21.2572C19.3086 21.1746 22.2884 19.2073 22.2884 16.9586C22.2882 15.9386 21.6488 14.8547 20.4634 14.8547ZM18.9893 20.5345C18.3593 20.0824 16.3945 18.5447 16.3945 16.9586C16.3945 16.7244 16.4486 15.5565 17.5164 15.5565C17.814 15.5569 18.0992 15.6754 18.3095 15.8859C18.5199 16.0964 18.6381 16.3817 18.6383 16.6793C18.6383 16.7725 18.6753 16.8619 18.7413 16.9279C18.8072 16.9938 18.8966 17.0308 18.9899 17.0308C19.0831 17.0308 19.1725 16.9938 19.2385 16.9279C19.3044 16.8619 19.3414 16.7725 19.3414 16.6793C19.3418 16.3819 19.4602 16.0968 19.6705 15.8865C19.8808 15.6762 20.166 15.558 20.4634 15.5577C21.2807 15.5577 21.5853 16.4168 21.5853 16.9583C21.5851 18.5349 19.6192 20.08 18.9893 20.5345Z" fill="black"/>
<path d="M18.9906 12.1626C17.8814 12.1636 16.7948 12.4758 15.8543 13.0636C14.9137 13.6515 14.157 14.4914 13.6701 15.488C13.6158 15.471 13.5633 15.4545 13.5136 15.4383L13.0704 14.4406C14.1179 13.6467 14.4055 12.4157 14.4842 11.8186C15.1963 11.626 15.8506 10.789 16.1127 9.68009C16.2538 9.08083 16.0472 8.523 15.5986 8.29182C15.474 8.22719 15.3355 8.19375 15.1951 8.19439C15.2184 8.02002 15.2427 7.80662 15.2678 7.5443C15.3264 6.93263 15.3639 6.31484 15.3639 6.15814C15.3639 5.50323 15.1408 4.50936 14.5151 3.684C13.4736 2.31069 11.8299 2.02246 10.6343 2.02246C9.45841 2.02246 7.8243 2.29136 6.71738 3.5723C5.8459 4.58078 5.65646 5.81225 5.74169 6.39409C5.7448 6.41513 5.76354 6.51427 5.79347 6.66228C5.79508 6.68175 5.7983 6.70105 5.80311 6.71999C5.80392 6.723 5.80638 6.73209 5.8104 6.74545C5.88704 7.11886 6.01782 7.71978 6.15297 8.21699C6.03066 8.22765 5.91189 8.26356 5.80417 8.32246C5.37355 8.5552 5.17613 9.10092 5.31283 9.6803C5.57535 10.7913 6.23157 11.629 6.94509 11.8198C7.02911 12.4001 7.32096 13.6033 8.32121 14.3984L7.84845 15.4174C7.51407 15.5219 7.14643 15.6243 6.7572 15.7319C4.36839 16.3923 1.09961 17.2968 1.09961 20.3056V22.4753C1.09961 23.2105 2.0432 23.9981 2.71127 23.9981H18.746C18.8272 24.0014 18.9086 24.0035 18.9906 24.0035C19.7695 24.0058 20.5412 23.8543 21.2615 23.5578C21.9818 23.2613 22.6365 22.8255 23.1881 22.2756C23.7397 21.7256 24.1774 21.0721 24.476 20.3527C24.7746 19.6333 24.9283 18.862 24.9283 18.0831C24.9283 17.3041 24.7746 16.5328 24.476 15.8134C24.1774 15.094 23.7397 14.4406 23.1881 13.8906C22.6365 13.3406 21.9818 12.9048 21.2615 12.6083C20.5412 12.3118 19.7695 12.1604 18.9906 12.1626ZM7.24914 4.03229C7.99822 3.16539 9.13708 2.72584 10.6342 2.72584C12.1414 2.72584 13.2586 3.19126 13.9547 4.10913C14.2032 4.43931 14.3906 4.81121 14.5082 5.20732C14.1923 4.86482 13.827 4.57151 13.4244 4.3371C13.3779 4.31102 13.3261 4.29591 13.273 4.29294C13.2198 4.28998 13.1666 4.29923 13.1176 4.31998C13.0685 4.34074 13.0249 4.37245 12.99 4.41268C12.9551 4.45292 12.9298 4.50061 12.9162 4.5521C12.9122 4.56617 12.4793 5.97508 9.74714 7.21062C8.72505 7.67267 7.90134 7.76383 7.29871 7.48107C7.1065 7.3877 6.93516 7.25643 6.79499 7.09515C6.65481 6.93386 6.5487 6.7459 6.48304 6.54255L6.48263 6.54124C6.46089 6.43321 6.44497 6.34668 6.43698 6.29239C6.31213 5.4394 6.93022 4.40133 7.24914 4.03229ZM7.61612 11.4949C7.61189 11.4043 7.57307 11.3188 7.50765 11.2561C7.44224 11.1933 7.35523 11.158 7.26456 11.1575H7.2505C6.83063 11.1575 6.22936 10.5028 5.99683 9.51873C5.92475 9.21322 6.01958 9.00515 6.1382 8.94116C6.2726 8.86854 6.41564 8.99605 6.47088 9.05431C6.53194 9.11875 6.61511 9.15771 6.7037 9.16336C6.79229 9.16901 6.87974 9.14093 6.94849 9.08477C7.01724 9.02861 7.0622 8.94853 7.07434 8.86059C7.08648 8.77265 7.0649 8.68338 7.01395 8.61069C6.97126 8.53164 6.90345 8.30805 6.82917 8.0278C6.8794 8.05708 6.93183 8.08506 6.98682 8.11132C7.32701 8.26974 7.69858 8.34931 8.07381 8.34411C8.65434 8.34411 9.31075 8.17968 10.0369 7.85127C12.2032 6.87156 13.0743 5.75972 13.4064 5.16392C13.5665 5.28094 13.7181 5.40936 13.8598 5.54818C14.3526 6.03309 14.6034 6.53944 14.6056 7.05327C14.5535 7.68885 14.473 8.4429 14.4014 8.62596C14.3544 8.70083 14.3374 8.79064 14.3536 8.87751C14.3699 8.96438 14.4183 9.04193 14.4892 9.09472C14.5601 9.14751 14.6482 9.17167 14.7361 9.16239C14.824 9.15311 14.9052 9.11106 14.9635 9.04462C15.0288 8.97029 15.156 8.85503 15.2765 8.917C15.4066 8.984 15.5005 9.21237 15.4283 9.51873C15.1944 10.5088 14.5874 11.1647 14.1672 11.1575C14.0746 11.1558 13.985 11.1907 13.9179 11.2546C13.8509 11.3186 13.8117 11.4064 13.809 11.499C13.794 11.7884 13.6567 13.2693 12.4483 14.0162C11.9796 14.3057 11.3956 14.4525 10.7126 14.4525C10.0319 14.4525 9.44942 14.3025 8.98114 14.0066C7.79436 13.2574 7.63586 11.7828 7.61612 11.4949ZM8.4214 15.8534L8.92107 14.7761C9.43802 15.0279 10.0387 15.1556 10.7126 15.1556C11.3688 15.1556 11.9554 15.0375 12.4626 14.8044L12.9343 15.8661C12.954 15.9106 12.9828 15.9505 13.0188 15.9833C13.0547 16.0161 13.0971 16.041 13.1432 16.0566C13.2233 16.0836 13.3076 16.111 13.3982 16.1396C13.342 16.301 13.2926 16.4654 13.2502 16.6327C12.868 17.3302 11.9836 18.128 10.7126 18.128C9.05431 18.128 8.21433 16.826 8.04553 16.0924C8.10153 16.075 8.15693 16.0572 8.21127 16.0398C8.25722 16.0248 8.2996 16.0005 8.33576 15.9685C8.37191 15.9364 8.40107 15.8972 8.4214 15.8534ZM2.71127 23.295C2.37804 23.295 1.80273 22.774 1.80273 22.4753V20.3056C1.80273 19.2064 2.32079 18.381 3.43911 17.708C4.45131 17.0989 5.77449 16.7327 6.94318 16.4096C7.08883 16.3694 7.23046 16.3299 7.37008 16.2907C7.6335 17.3601 8.76985 18.8312 10.7129 18.8312C11.5812 18.8329 12.4202 18.5173 13.072 17.9436C13.0709 17.99 13.0702 18.0364 13.0702 18.0831C13.0709 19.1519 13.3607 20.2006 13.9089 21.1181C14.4571 22.0356 15.2432 22.7878 16.184 23.295H2.71127ZM18.9906 23.3004H18.9822C18.9627 23.2969 18.943 23.2952 18.9232 23.2951H18.7581C17.3873 23.2325 16.0964 22.6318 15.1657 21.6233C14.235 20.6149 13.7396 19.2802 13.7869 17.9087C13.8342 16.5373 14.4205 15.2398 15.4185 14.2979C16.4164 13.3561 17.7456 12.8458 19.1175 12.8778C20.4894 12.9098 21.7933 13.4815 22.7462 14.4689C23.6992 15.4564 24.2243 16.7797 24.2076 18.1519C24.1908 19.524 23.6337 20.8343 22.6569 21.7982C21.6802 22.7621 20.3628 23.3019 18.9905 23.3005L18.9906 23.3004Z" fill="black"/>
</g>
<defs>
<clipPath id="clip0">
<rect width="25.7143" height="25.7143" fill="white" transform="translate(0.144531 0.142578)"/>
</clipPath>
</defs>
</svg>
