<svg width="26" height="26" viewBox="0 0 26 26" fill="none" xmlns="http://www.w3.org/2000/svg">
<g clip-path="url(#clip0)">
<g clip-path="url(#clip1)">
<path d="M23.1152 5.06128H23.9097C24.1868 5.06128 24.4116 4.83652 24.4116 4.55937C24.4116 4.28222 24.1868 4.05747 23.9097 4.05747H22.0024C21.7253 4.05747 21.5005 4.28222 21.5005 4.55937V6.4666C21.5005 6.74375 21.7253 6.96851 22.0024 6.96851C22.2796 6.96851 22.5044 6.74375 22.5044 6.4666V5.91436C24.0272 7.95314 24.855 10.4269 24.855 12.9997C24.855 19.5357 19.5377 24.8531 13.0017 24.8531C6.4657 24.8531 1.14834 19.5357 1.14834 12.9997C1.14834 6.46374 6.4657 1.14638 13.0017 1.14638C13.4851 1.14638 13.9716 1.17575 14.4478 1.23361C14.7225 1.26684 14.9731 1.07115 15.0066 0.795955C15.0401 0.520812 14.8441 0.270563 14.5689 0.237137C14.0527 0.174399 13.5254 0.142578 13.0017 0.142578C9.5674 0.142578 6.33866 1.47995 3.91031 3.90835C1.4819 6.33671 0.144531 9.56545 0.144531 12.9997C0.144531 16.434 1.4819 19.6627 3.91031 22.0911C6.33866 24.5195 9.5674 25.8569 13.0017 25.8569C16.4359 25.8569 19.6647 24.5195 22.093 22.0911C24.5214 19.6627 25.8588 16.434 25.8588 12.9997C25.8588 10.1017 24.8906 7.31954 23.1152 5.06128Z" fill="black"/>
<path d="M5.58893 7.72206C5.35469 7.5738 5.04466 7.64357 4.89635 7.87765C3.75056 9.68732 3.24333 11.8637 3.46814 14.0058C3.69625 16.1798 4.67471 18.2299 6.22328 19.7785C8.09212 21.6473 10.547 22.5817 13.0019 22.5817C15.4568 22.5817 17.9116 21.6474 19.7805 19.7785C23.5182 16.0408 23.5182 9.95899 19.7805 6.22132C18.2343 4.67516 16.1876 3.69706 14.0172 3.46718C11.879 3.24057 9.70503 3.74383 7.89612 4.88401C7.66158 5.03182 7.59137 5.34174 7.73913 5.57623C7.88694 5.81077 8.19686 5.88098 8.43135 5.73322C11.8412 3.58408 16.2161 4.07659 19.0706 6.93112C22.417 10.2775 22.417 15.7223 19.0706 19.0686C15.7244 22.415 10.2794 22.415 6.93312 19.0686C4.11805 16.2536 3.61815 11.7729 5.74452 8.41469C5.89273 8.18045 5.82311 7.87038 5.58893 7.72206Z" fill="black"/>
<path d="M19.5273 13.5097H20.1462C20.4234 13.5097 20.6481 13.2849 20.6481 13.0078C20.6481 12.7306 20.4234 12.5059 20.1462 12.5059H19.5273C19.2501 12.5059 19.0254 12.7306 19.0254 13.0078C19.0254 13.2849 19.2501 13.5097 19.5273 13.5097Z" fill="black"/>
<path d="M5.35547 12.9912C5.35547 13.2683 5.58022 13.4931 5.85737 13.4931H6.47632C6.75347 13.4931 6.97822 13.2683 6.97822 12.9912C6.97822 12.714 6.75347 12.4893 6.47632 12.4893H5.85737C5.58022 12.4893 5.35547 12.714 5.35547 12.9912Z" fill="black"/>
<path d="M13.5116 6.47534V5.85639C13.5116 5.57924 13.2869 5.35449 13.0097 5.35449C12.7326 5.35449 12.5078 5.57924 12.5078 5.85639V6.47534C12.5078 6.75249 12.7326 6.97724 13.0097 6.97724C13.2869 6.97724 13.5116 6.75249 13.5116 6.47534Z" fill="black"/>
<path d="M12.4922 19.5244V20.1433C12.4922 20.4205 12.7169 20.6452 12.9941 20.6452C13.2712 20.6452 13.496 20.4205 13.496 20.1433V19.5244C13.496 19.2472 13.2712 19.0225 12.9941 19.0225C12.7169 19.0225 12.4922 19.2472 12.4922 19.5244Z" fill="black"/>
<path d="M10.4857 9.77363C10.2897 9.57769 9.97199 9.57769 9.7759 9.77363C9.57991 9.96962 9.57991 10.2874 9.7759 10.4835L11.4769 12.1845C11.3466 12.4274 11.2724 12.7048 11.2724 12.9992C11.2724 13.9526 12.0481 14.7283 13.0015 14.7283C13.9549 14.7283 14.7305 13.9526 14.7305 12.9992C14.7305 12.7048 14.6564 12.4274 14.5261 12.1845L17.9582 8.75231C18.1542 8.55631 18.1542 8.23851 17.9582 8.04246C17.7622 7.84652 17.4445 7.84652 17.2484 8.04246L13.8162 11.4746C13.5733 11.3443 13.2959 11.2702 13.0015 11.2702C12.7071 11.2702 12.4297 11.3443 12.1867 11.4746L10.4857 9.77363ZM13.7267 12.9992C13.7267 13.3991 13.4014 13.7245 13.0015 13.7245C12.6016 13.7245 12.2762 13.3991 12.2762 12.9992C12.2762 12.5993 12.6016 12.274 13.0015 12.274C13.4014 12.274 13.7267 12.5993 13.7267 12.9992Z" fill="black"/>
<path d="M6.93291 6.93097C7.02677 6.83761 7.08042 6.70812 7.08042 6.57612C7.08042 6.44412 7.02677 6.31513 6.93291 6.22128C6.83956 6.12797 6.71052 6.07422 6.57807 6.07422C6.44607 6.07422 6.31658 6.12792 6.22323 6.22128C6.12993 6.31463 6.07617 6.44412 6.07617 6.57612C6.07617 6.70862 6.12988 6.83761 6.22323 6.93097C6.31658 7.02427 6.44607 7.07802 6.57807 7.07802C6.71052 7.07802 6.83956 7.02427 6.93291 6.93097Z" fill="black"/>
<path d="M16.4785 1.64248C16.611 1.64248 16.7405 1.58923 16.8338 1.49542C16.9272 1.40207 16.9809 1.27303 16.9809 1.14057C16.9809 1.00857 16.9272 0.879083 16.8338 0.785729C16.7405 0.692426 16.611 0.638672 16.4785 0.638672C16.3465 0.638672 16.217 0.692375 16.1237 0.785729C16.0303 0.879083 15.9766 1.00857 15.9766 1.14057C15.9766 1.27308 16.0303 1.40207 16.1237 1.49542C16.217 1.58923 16.3465 1.64248 16.4785 1.64248Z" fill="black"/>
</g>
</g>
<defs>
<clipPath id="clip0">
<rect width="25.7143" height="25.7143" fill="white" transform="translate(0.144531 0.142578)"/>
</clipPath>
<clipPath id="clip1">
<rect width="25.7143" height="25.7143" fill="white" transform="translate(0.144531 0.142578)"/>
</clipPath>
</defs>
</svg>
