<svg width="27" height="26" viewBox="0 0 27 26" fill="none" xmlns="http://www.w3.org/2000/svg">
<g clip-path="url(#clip0)">
<g clip-path="url(#clip1)">
<path d="M26.2535 15.1194C26.0634 13.8029 25.0293 12.7687 23.7128 12.5787V11.7996C23.7128 9.6499 22.0787 7.89964 20.07 7.89964C18.1192 7.89964 16.4859 9.59676 16.4272 11.683H16.4521L16.4272 11.6873V20.133C16.4272 22.833 14.4087 25.0255 11.9273 25.0255C9.44589 25.0255 7.42735 22.83 7.42735 20.133V19.4015C8.04877 19.4015 8.71305 18.9511 8.71305 17.6872V16.6094C11.4636 15.9061 13.4273 13.5443 13.4273 10.8666V9.97304H12.5701L12.5521 4.39527C12.5459 3.3628 11.805 2.48124 10.789 2.29744C10.5699 1.62604 9.84788 1.2594 9.17643 1.47861C8.50503 1.69777 8.13839 2.41974 8.3576 3.0912C8.57676 3.7626 9.29873 4.12924 9.97019 3.91002C10.3297 3.79265 10.6188 3.52217 10.7599 3.17129C11.3089 3.3275 11.6893 3.82699 11.6937 4.39784L11.713 9.97304H10.8559V10.879C10.8217 12.3697 9.82228 13.6652 8.38905 14.0766C7.62219 14.3199 6.79881 14.3199 6.03194 14.0766C4.60038 13.6638 3.60321 12.3686 3.57027 10.879V9.97304H2.28457V4.4017C2.28704 3.82244 2.6766 3.3163 3.23599 3.16571C3.49682 3.82972 4.24654 4.1565 4.91055 3.89567C5.57456 3.63483 5.90134 2.88506 5.6405 2.2211C5.37967 1.55715 4.62989 1.23031 3.96594 1.49115C3.60616 1.63252 3.32856 1.92754 3.20941 2.2953C2.18231 2.4708 1.43028 3.35969 1.42744 4.4017V9.97304H0.570312V10.8645C0.570312 13.5451 2.53528 15.9078 5.28453 16.6094V17.6872C5.28453 18.9511 5.9488 19.4015 6.57022 19.4015V20.133C6.57022 23.3044 8.97318 25.8827 11.9273 25.8827C14.8814 25.8827 17.2843 23.3014 17.2843 20.133V11.7079C17.3272 10.0815 18.5778 8.75806 20.07 8.75806C21.606 8.75806 22.8557 10.1226 22.8557 11.8009V12.5787C21.2158 12.8154 20.0784 14.3366 20.315 15.9765C20.5517 17.6163 22.073 18.7538 23.7128 18.5171C25.3527 18.2805 26.4901 16.7592 26.2535 15.1194ZM9.57018 3.116C9.3335 3.116 9.14161 2.92411 9.14161 2.68743C9.14161 2.45076 9.3335 2.25887 9.57018 2.25887C9.80685 2.25887 9.99874 2.45076 9.99874 2.68743C9.99874 2.92411 9.80685 3.116 9.57018 3.116ZM4.4274 2.25887C4.66407 2.25887 4.85596 2.45076 4.85596 2.68743C4.85596 2.92411 4.66407 3.116 4.4274 3.116C4.19072 3.116 3.99883 2.92411 3.99883 2.68743C3.99883 2.45076 4.19072 2.25887 4.4274 2.25887ZM1.42744 10.8645V10.8302H2.71314V10.879C2.74528 12.7417 3.98453 14.3673 5.77223 14.8917C6.70902 15.1883 7.71454 15.1883 8.65133 14.8917C10.4399 14.368 11.6803 12.7424 11.713 10.879V10.8302H12.5701V10.8645C12.5701 13.2486 10.7324 15.3464 8.19877 15.8538C7.60381 15.973 6.99439 16.0028 6.39065 15.9425C6.19191 15.9232 5.99434 15.8933 5.7988 15.853C3.26513 15.3464 1.42744 13.2486 1.42744 10.8645ZM6.57022 18.5443C6.18451 18.5443 6.14166 17.9444 6.14166 17.6872V16.7778C6.17594 16.7821 6.21108 16.7838 6.2458 16.7872C6.28865 16.7919 6.33151 16.7954 6.37437 16.7992C6.57708 16.8172 6.7815 16.8292 6.98764 16.8297H7.00907C7.21478 16.8297 7.41878 16.8172 7.6202 16.7992C7.66306 16.7954 7.70849 16.7919 7.75263 16.7872C7.78649 16.7834 7.82163 16.7821 7.85549 16.7778V17.6872C7.85549 17.9444 7.81263 18.5443 7.42692 18.5443H6.57022ZM23.2843 17.6872C22.1008 17.6872 21.1414 16.7278 21.1414 15.5444C21.1414 14.361 22.1008 13.4016 23.2843 13.4016C24.4677 13.4016 25.4271 14.361 25.4271 15.5444C25.4257 16.7273 24.4671 17.6858 23.2843 17.6872Z" fill="black"/>
<path d="M23.2837 14.2588C22.5737 14.2588 21.998 14.8344 21.998 15.5445C21.998 16.2546 22.5737 16.8302 23.2837 16.8302C23.9938 16.8302 24.5694 16.2546 24.5694 15.5445C24.5694 14.8344 23.9938 14.2588 23.2837 14.2588ZM23.2837 15.973C23.0471 15.973 22.8552 15.7812 22.8552 15.5445C22.8552 15.3078 23.0471 15.1159 23.2837 15.1159C23.5204 15.1159 23.7123 15.3078 23.7123 15.5445C23.7123 15.7812 23.5204 15.973 23.2837 15.973Z" fill="black"/>
</g>
</g>
<defs>
<clipPath id="clip0">
<rect width="25.7143" height="25.7143" fill="white" transform="translate(0.570312 0.142578)"/>
</clipPath>
<clipPath id="clip1">
<rect width="25.7143" height="25.7143" fill="white" transform="translate(0.570312 0.785156)"/>
</clipPath>
</defs>
</svg>
