<svg width="26" height="26" viewBox="0 0 26 26" fill="none" xmlns="http://www.w3.org/2000/svg">
<path d="M11.8209 7.42466H13.3025V8.98158C13.3025 9.23084 13.5303 9.43359 13.7796 9.43359H15.0352C15.2844 9.43359 15.4621 9.23084 15.4621 8.98158V7.42466H16.8934C17.1427 7.42466 17.3203 7.22191 17.3203 6.97266V5.7673C17.3203 5.51804 17.1427 5.31529 16.8934 5.31529H15.4621V3.90904C15.4621 3.65978 15.2844 3.45703 15.0352 3.45703H13.7796C13.5303 3.45703 13.3025 3.65978 13.3025 3.90904V5.31529H11.8209C11.5716 5.31529 11.3438 5.51804 11.3438 5.7673V6.97266C11.3438 7.22191 11.5716 7.42466 11.8209 7.42466ZM12.0469 6.01842H13.5787C13.8279 6.01842 14.0056 5.81566 14.0056 5.56641V4.16016H14.7589V5.56641C14.7589 5.81566 14.9868 6.01842 15.236 6.01842H16.6172V6.72154H15.236C14.9868 6.72154 14.7589 6.92429 14.7589 7.17355V8.73047H14.0056V7.17355C14.0056 6.92429 13.8279 6.72154 13.5787 6.72154H12.0469V6.01842Z" fill="black"/>
<path d="M19.6557 3.40695H19.6551C19.6413 2.78997 19.3867 2.20288 18.9457 1.77117C18.5047 1.33946 17.9123 1.09738 17.2952 1.09668H7.83184C7.74426 1.09668 7.65984 1.12936 7.59509 1.18834L4.0883 4.37083C4.05045 4.40316 4.01963 4.4429 3.99772 4.4876C3.97582 4.5323 3.9633 4.58101 3.96094 4.63074V20.2317C3.96094 21.5333 5.04496 22.5922 6.34654 22.5922H6.39732C6.41114 23.2092 6.66576 23.7963 7.10675 24.228C7.54775 24.6597 8.14012 24.9018 8.75725 24.9025H19.6557C19.9643 24.9016 20.2696 24.8398 20.5542 24.7206C20.8388 24.6014 21.0971 24.4271 21.3141 24.2077C21.5311 23.9884 21.7026 23.7283 21.8188 23.4424C21.935 23.1566 21.9935 22.8505 21.9911 22.542V5.76744C21.9935 5.45888 21.935 5.15288 21.8188 4.86701C21.7026 4.58115 21.5311 4.32107 21.3141 4.10172C21.0971 3.88236 20.8388 3.70806 20.5542 3.58883C20.2696 3.4696 19.9643 3.40778 19.6557 3.40695ZM7.47656 2.22449V3.75851C7.47656 4.11851 7.20877 4.41141 6.84877 4.41141H5.1005L7.47656 2.22449ZM6.34654 21.8891C5.43248 21.8891 4.66406 21.1458 4.66406 20.2317V5.11454H6.84877C7.5965 5.11454 8.17969 4.50623 8.17969 3.75851V1.7998H17.2952C18.2093 1.7998 18.9275 2.54311 18.9275 3.45717V20.2317C18.9275 21.1458 18.2093 21.8891 17.2952 21.8891H6.34654ZM21.2879 22.542C21.2879 23.4561 20.5698 24.1994 19.6557 24.1994H8.75725C8.32654 24.1989 7.9129 24.0309 7.60376 23.731C7.29462 23.4311 7.1142 23.0227 7.10064 22.5922H17.2952C17.6038 22.5914 17.9091 22.5296 18.1937 22.4103C18.4783 22.2911 18.7366 22.1168 18.9536 21.8974C19.1706 21.6781 19.3421 21.418 19.4583 21.1321C19.5745 20.8463 19.633 20.5403 19.6306 20.2317V4.11007C20.5848 4.11007 21.2879 4.85338 21.2879 5.76744V22.542Z" fill="black"/>
<path d="M6.64844 10.1875H10.1641C10.2573 10.1875 10.3467 10.1505 10.4127 10.0845C10.4786 10.0186 10.5156 9.92918 10.5156 9.83594C10.5156 9.7427 10.4786 9.65328 10.4127 9.58735C10.3467 9.52141 10.2573 9.48438 10.1641 9.48438H6.64844C6.5552 9.48438 6.46578 9.52141 6.39985 9.58735C6.33391 9.65328 6.29688 9.7427 6.29688 9.83594C6.29688 9.92918 6.33391 10.0186 6.39985 10.0845C6.46578 10.1505 6.5552 10.1875 6.64844 10.1875Z" fill="black"/>
<path d="M6.64844 12.6484H11.9721C12.0653 12.6484 12.1548 12.6114 12.2207 12.5455C12.2866 12.4795 12.3237 12.3901 12.3237 12.2969C12.3237 12.2036 12.2866 12.1142 12.2207 12.0483C12.1548 11.9824 12.0653 11.9453 11.9721 11.9453H6.64844C6.5552 11.9453 6.46578 11.9824 6.39985 12.0483C6.33391 12.1142 6.29688 12.2036 6.29688 12.2969C6.29688 12.3901 6.33391 12.4795 6.39985 12.5455C6.46578 12.6114 6.5552 12.6484 6.64844 12.6484Z" fill="black"/>
<path d="M6.64844 15.1094H11.9721C12.0653 15.1094 12.1548 15.0723 12.2207 15.0064C12.2866 14.9405 12.3237 14.8511 12.3237 14.7578C12.3237 14.6646 12.2866 14.5752 12.2207 14.5092C12.1548 14.4433 12.0653 14.4062 11.9721 14.4062H6.64844C6.5552 14.4062 6.46578 14.4433 6.39985 14.5092C6.33391 14.5752 6.29688 14.6646 6.29688 14.7578C6.29688 14.8511 6.33391 14.9405 6.39985 15.0064C6.46578 15.0723 6.5552 15.1094 6.64844 15.1094Z" fill="black"/>
<path d="M6.64844 17.5703H15.0357C15.129 17.5703 15.2184 17.5333 15.2843 17.4673C15.3502 17.4014 15.3873 17.312 15.3873 17.2188C15.3873 17.1255 15.3502 17.0361 15.2843 16.9702C15.2184 16.9042 15.129 16.8672 15.0357 16.8672H6.64844C6.5552 16.8672 6.46578 16.9042 6.39985 16.9702C6.33391 17.0361 6.29688 17.1255 6.29688 17.2188C6.29688 17.312 6.33391 17.4014 6.39985 17.4673C6.46578 17.5333 6.5552 17.5703 6.64844 17.5703Z" fill="black"/>
<path d="M17.5469 19.6797C17.5469 19.5864 17.5098 19.497 17.4439 19.4311C17.378 19.3652 17.2886 19.3281 17.1953 19.3281H6.64844C6.5552 19.3281 6.46578 19.3652 6.39985 19.4311C6.33391 19.497 6.29688 19.5864 6.29688 19.6797C6.29688 19.7729 6.33391 19.8623 6.39985 19.9283C6.46578 19.9942 6.5552 20.0312 6.64844 20.0312H17.1953C17.2886 20.0312 17.378 19.9942 17.4439 19.9283C17.5098 19.8623 17.5469 19.7729 17.5469 19.6797Z" fill="black"/>
</svg>
