<svg width="572" height="469" viewBox="0 0 572 469" fill="none" xmlns="http://www.w3.org/2000/svg">
<g clip-path="url(#clip0)">
<path d="M327.814 282.994L325.512 282.074C337.022 253.989 360.042 233.117 382.296 212.859C398.256 198.432 414.678 183.392 426.955 165.743C446.446 137.812 455.347 102.514 451.357 68.7503L453.813 68.4434C457.803 102.821 448.748 138.886 428.95 167.125C416.519 184.927 399.945 199.967 383.83 214.547C361.884 234.651 339.171 255.37 327.814 282.994Z" fill="#B6D2FA"/>
<path d="M436.779 137.506C435.705 138.581 434.631 139.808 434.784 141.19C434.938 142.878 436.779 143.952 438.314 144.566C439.849 145.18 441.23 145.947 442.918 145.947C444.453 145.947 446.295 145.18 446.908 143.799C447.369 142.571 447.062 141.19 446.601 139.808C445.988 137.506 445.22 135.204 444.606 132.902C443.992 130.754 441.844 129.526 440.616 132.135C440.309 132.902 440.309 133.67 439.695 134.437C438.928 135.511 437.854 136.586 436.779 137.506Z" fill="#B6D2FA"/>
<path d="M426.035 47.5742C431.713 38.366 441.535 30.846 452.739 28.8509C465.477 26.7023 479.749 32.9946 488.497 43.1236C497.245 53.2526 499.393 66.1441 498.319 78.4217C497.245 90.6993 491.873 102.056 484.66 111.878C476.68 122.928 451.818 146.562 435.55 130.755C422.198 117.71 416.52 93.6152 417.287 77.0404C417.747 66.758 420.663 56.4755 426.035 47.5742Z" fill="url(#paint0_linear)"/>
<path opacity="0.48" d="M453.507 82.5637C461.487 77.6527 467.319 69.6722 470.849 60.9244C473.458 54.4787 474.839 47.4191 474.225 40.3595C473.918 37.2901 473.304 34.2207 472.23 31.3047C465.938 28.6957 459.185 27.7749 452.893 28.8492C441.536 30.8443 431.714 38.3644 426.189 47.5725C420.818 56.3203 417.902 66.4494 417.441 76.8853C419.743 80.2617 422.966 83.1776 426.65 84.8657C434.937 88.856 445.373 87.4747 453.507 82.5637Z" fill="#FE9393"/>
<path opacity="0.48" d="M498.32 78.4205C498.934 71.2074 498.474 63.8409 496.172 56.7812C495.865 58.7764 495.404 60.618 494.944 62.4596C491.107 79.0344 485.889 96.223 474.072 108.04C464.403 117.862 450.591 122.773 438.007 121.085C433.863 120.625 429.873 119.397 426.189 117.555C428.798 122.466 431.868 126.917 435.551 130.6C451.819 146.408 476.681 122.773 484.661 111.724C491.875 102.055 497.246 90.8516 498.32 78.4205Z" fill="#B6D2FA"/>
<path d="M427.414 64.9142C427.107 60.9239 428.028 56.7802 429.716 53.097C431.404 49.4137 433.86 45.8839 436.929 43.1214C439.999 40.359 443.682 38.2104 447.519 36.8291C451.355 35.4479 455.499 34.834 459.489 35.4479C455.806 36.9826 452.43 38.6708 449.207 40.5124C445.984 42.3541 443.068 44.5026 440.459 46.9582C437.85 49.4137 435.394 52.0227 433.246 55.0921C430.944 58.008 429.256 61.3843 427.414 64.9142Z" fill="white"/>
<path d="M358.967 291.589C353.596 261.662 361.73 231.735 369.557 202.73C375.235 182.011 381.067 160.525 381.988 139.039C383.369 105.123 371.859 70.4384 350.373 44.0415L352.368 42.5068C374.161 69.3641 385.978 104.509 384.443 139.193C383.523 160.986 377.691 182.471 372.012 203.497C364.185 232.196 356.205 261.969 361.423 291.282L358.967 291.589Z" fill="url(#paint1_linear)"/>
<path d="M375.084 110.035C374.777 111.416 374.47 113.105 375.391 114.332C376.466 115.714 378.461 115.56 380.302 115.253C381.837 115.1 383.525 114.793 384.906 113.872C386.288 113.105 387.362 111.416 387.055 109.882C386.748 108.5 385.674 107.58 384.753 106.659C382.911 105.124 381.07 103.436 379.228 101.901C377.54 100.367 375.084 100.674 375.545 103.436C375.698 104.357 376.005 104.971 376.005 105.891C375.852 107.119 375.391 108.654 375.084 110.035Z" fill="url(#paint2_linear)"/>
<path d="M317.684 39.899C317.53 29.1561 321.674 17.4924 330.115 9.66539C339.63 0.917604 355.13 -1.38445 367.868 2.4523C380.606 6.28905 389.508 15.9577 395.186 27.0075C400.865 38.0573 402.399 50.4884 401.785 62.6125C401.018 76.1179 392.731 109.574 370.477 104.97C352.215 101.287 334.412 83.7914 326.278 69.5187C321.06 60.464 317.991 50.3349 317.684 39.899Z" fill="url(#paint3_linear)"/>
<path opacity="0.48" d="M359.583 54.7845C363.726 46.3437 364.34 36.5216 362.499 27.1599C361.117 20.2538 358.662 13.5011 354.365 7.97616C352.523 5.52064 350.221 3.21859 347.765 1.37695C341.166 2.60471 334.874 5.36717 330.116 9.66433C321.676 17.3378 317.378 29.0015 317.685 39.8979C317.839 50.1804 320.908 60.3094 326.126 69.3642C329.809 71.0523 334.107 71.6662 338.097 71.2058C347.458 69.978 355.439 63.2253 359.583 54.7845Z" fill="url(#paint4_linear)"/>
<path opacity="0.48" d="M395.341 27.1611C391.964 20.7154 387.514 14.7301 381.835 10.126C382.603 11.9676 383.216 13.8093 383.984 15.6509C389.662 31.6118 394.42 49.1073 390.89 65.3752C387.974 78.8805 379.073 90.3908 367.409 95.9157C363.726 97.6039 359.735 98.8316 355.592 99.292C360.349 102.054 365.414 104.203 370.478 105.277C392.732 109.881 401.019 76.5785 401.786 62.9196C402.554 50.4886 400.865 38.0575 395.341 27.1611Z" fill="url(#paint5_linear)"/>
<path d="M328.123 53.8652C325.667 50.6424 324.286 46.8056 323.672 42.6619C323.058 38.6717 323.365 34.3745 324.44 30.3843C325.514 26.3941 327.509 22.7108 329.965 19.488C332.42 16.2651 335.643 13.6561 339.326 11.8145C337.024 15.1908 335.029 18.2602 333.341 21.6365C331.653 24.8594 330.271 28.2357 329.351 31.7656C328.43 35.2954 327.816 38.8252 327.662 42.5084C327.509 46.0383 327.662 49.875 328.123 53.8652Z" fill="white"/>
<path d="M419.74 242.939C409.15 237.261 400.709 225.904 399.021 213.934C397.026 199.354 404.7 184.774 415.596 174.952C426.492 165.13 440.151 158.991 453.657 153.006C445.83 164.363 440.765 177.715 439.23 191.373C438.156 200.735 438.617 210.25 437.389 219.612C436.315 227.746 431.864 249.539 419.74 242.939ZM492.178 251.38C499.698 260.742 514.277 263.197 525.941 259.668C538.679 255.831 549.575 246.009 557.095 234.499C569.987 215.161 574.744 190.913 569.68 169.427C565.229 181.551 555.254 191.067 544.511 198.433C533.921 205.8 522.258 211.478 511.822 219.305C505.069 224.37 484.811 242.172 492.178 251.38ZM469.771 180.938C465.934 188.458 463.786 197.052 463.632 206.107C463.479 211.632 462.711 230.048 473.147 228.053C483.276 226.211 492.331 218.231 499.084 212.245C506.297 205.8 512.436 198.28 517.5 190.146C528.703 172.497 535.149 152.085 541.748 131.827C536.53 139.654 527.322 144.565 517.807 148.248C508.292 152.085 498.163 155.001 489.569 159.912C480.821 165.13 474.222 172.343 469.771 180.938Z" fill="url(#paint6_linear)"/>
<path d="M420.049 187.076C411.761 196.745 411.608 211.325 415.751 223.295C419.895 235.419 427.569 245.855 434.014 256.752C440.46 267.802 445.831 280.233 444.45 292.817M501.234 170.809C481.437 186.156 473.61 212.092 467.317 236.187C461.025 260.435 454.119 286.218 435.242 302.793C424.346 312.461 409.919 317.986 395.34 318.293L501.234 170.809ZM459.183 264.272C468.085 255.677 480.516 251.534 492.64 248.618C504.917 245.702 517.502 243.86 528.859 238.642C540.216 233.424 550.498 224.216 552.8 211.939L459.183 264.272Z" stroke="url(#paint7_linear)" stroke-width="4.6041" stroke-miterlimit="10" stroke-linecap="round"/>
<path d="M130.762 176.486C118.791 177.714 105.44 172.956 97.4591 164.055C87.637 153.159 85.9488 136.737 89.4786 122.465C93.0085 108.192 100.989 95.454 108.816 83.023C108.662 96.8353 111.885 110.648 118.331 122.925C122.628 131.366 128.307 138.886 132.604 147.327C136.134 154.693 144.574 175.258 130.762 176.486ZM137.668 97.1422C138.589 105.583 141.658 113.87 146.723 121.544C149.792 126.148 159.307 141.955 166.981 134.435C174.348 127.222 177.417 115.559 179.566 106.811C182.021 97.4491 182.788 87.7805 182.481 78.2654C181.868 57.3935 175.882 36.8285 170.05 16.417C170.05 25.9321 165.139 34.9869 159.461 43.4277C153.629 51.8686 146.876 60.0025 142.579 68.9037C138.129 77.9585 136.594 87.6271 137.668 97.1422Z" fill="url(#paint8_linear)"/>
<path d="M99.9137 129.985C98.5325 142.723 106.513 154.847 116.642 162.521C126.771 170.194 139.049 174.645 150.559 180.17C162.069 185.695 173.426 193.061 179.411 204.265M158.232 71.2061C150.405 94.9939 158.386 120.777 166.673 144.411C174.96 168.046 183.555 193.368 177.263 217.616C173.579 231.736 164.831 244.32 152.861 252.761L158.232 71.2061Z" stroke="url(#paint9_linear)" stroke-width="4.6041" stroke-miterlimit="10" stroke-linecap="round"/>
<path d="M149.787 292.968C145.336 288.057 137.049 285.908 131.677 289.899C131.524 278.695 129.836 267.492 126.613 256.749C125.078 251.378 122.93 245.853 118.939 241.862C114.949 237.719 108.657 235.877 102.979 236.951C100.37 237.412 97.9141 238.64 95.919 240.635C94.3843 242.169 92.0822 245.546 93.003 247.848C87.9385 232.654 86.8642 216.233 80.265 201.807C78.2699 197.51 75.6609 193.059 71.5172 190.757C67.3736 188.455 61.3882 188.762 58.4723 192.599C58.7792 183.851 55.7098 173.875 52.6404 165.588C49.571 157.454 42.2045 150.241 33.6102 149.934C26.8575 149.78 20.4117 153.771 16.4215 159.296C12.4313 164.821 10.5897 171.573 9.51538 178.326C7.21333 193.212 8.44109 208.713 13.3521 222.986C9.20844 219.149 2.45576 222.065 0.614125 227.283C-1.07404 232.501 1.07454 238.333 4.2974 242.937C14.1195 257.209 31.0012 264.116 47.4225 269.947C42.358 269.027 36.5261 271.789 33.7636 276.393C30.3873 281.918 31.0012 289.131 33.6102 294.963C38.5212 305.399 49.4176 311.998 60.7743 314.454C71.9777 316.909 83.7948 315.835 95.3051 314.607C80.572 315.988 66.6062 330.415 78.7303 344.227C87.6316 354.356 100.983 359.267 114.028 361.109C126.766 362.95 140.579 362.029 151.936 369.089C157.614 350.673 159.302 331.029 156.847 311.998C155.926 305.246 154.391 298.032 149.787 292.968Z" fill="url(#paint10_linear)"/>
<path d="M11.9746 237.873C23.9453 244.779 38.3714 247.388 52.0303 245.393M31.6188 183.698C31.9257 223.6 59.2434 256.136 85.9471 282.84C112.804 309.697 143.498 336.401 155.623 373.694C161.301 391.19 162.222 410.22 158.538 428.329L31.6188 183.698ZM139.969 341.926C143.191 328.113 144.573 313.994 143.959 299.875L139.969 341.926ZM85.4867 335.634C101.448 341.158 119.404 340.852 135.211 334.713L85.4867 335.634ZM105.591 301.103C109.582 284.681 110.809 267.493 108.968 250.611L105.591 301.103ZM41.2874 289.286C58.6295 294.811 77.5063 296.038 95.4623 292.662L41.2874 289.286ZM61.3919 253.987C65.2287 236.799 67.2238 219.15 67.3773 201.654L61.3919 253.987Z" stroke="url(#paint11_linear)" stroke-width="4.6041" stroke-miterlimit="10" stroke-linecap="round"/>
<path d="M449.82 297.269H422.656V333.794H449.82V297.269Z" fill="#B6D2FA"/>
<path d="M370.785 295.885H204.884C197.671 295.885 191.992 290.053 191.992 282.993V199.812C191.992 192.599 197.824 186.921 204.884 186.921H370.785C377.998 186.921 383.676 192.753 383.676 199.812V282.993C383.676 290.053 377.998 295.885 370.785 295.885ZM217.775 270.102H357.74V212.857H217.775V270.102Z" fill="#68A9FE"/>
<path d="M383.827 230.045H357.891V251.377H383.827V230.045Z" fill="url(#paint12_linear)"/>
<path d="M217.929 230.045H191.992V251.377H217.929V230.045Z" fill="url(#paint13_linear)"/>
<path d="M425.57 242.938H150.092C130.908 242.938 115.254 258.439 115.254 277.776V315.376H460.408V277.776C460.408 258.592 444.754 242.938 425.57 242.938Z" fill="url(#paint14_linear)"/>
<path d="M115.254 433.854C115.254 453.038 130.754 468.691 150.092 468.691H425.724C444.907 468.691 460.561 453.191 460.561 433.854V315.375H115.254V433.854Z" fill="url(#paint15_linear)"/>
<path d="M115.254 433.854C115.254 453.038 130.754 468.691 150.092 468.691H425.724C444.907 468.691 460.561 453.191 460.561 433.854V315.375H115.254V433.854Z" fill="url(#paint16_linear)"/>
<path d="M115.254 433.854C115.254 453.038 130.754 468.691 150.092 468.691H425.724C444.907 468.691 460.561 453.191 460.561 433.854V315.375H115.254V433.854Z" fill="#68A9FE"/>
<g opacity="0.38">
<path opacity="0.38" d="M331.34 334.251V242.937H150.092C130.908 242.937 115.254 258.437 115.254 277.774V315.374V369.089H296.502C315.686 368.935 331.34 353.435 331.34 334.251Z" fill="url(#paint17_linear)"/>
</g>
<path d="M436.466 244.777C438.001 248.614 438.768 252.758 438.768 257.208V294.809V413.287C438.768 432.471 423.268 448.125 403.931 448.125H128.452C124.615 448.125 121.085 447.511 117.709 446.437C122.773 459.482 135.358 468.844 150.245 468.844H425.877C445.06 468.844 460.714 453.343 460.714 434.006V315.374V277.773C460.407 262.273 450.278 249.228 436.466 244.777Z" fill="url(#paint18_linear)"/>
<path d="M460.408 308.775H115.254V321.667H460.408V308.775Z" fill="url(#paint19_linear)"/>
<path d="M193.525 295.425H158.688V335.174H193.525V295.425Z" fill="url(#paint20_linear)"/>
<path opacity="0.7" d="M193.525 295.425H158.688V335.174H193.525V295.425Z" fill="url(#paint21_linear)"/>
<path opacity="0.7" d="M186.619 308.47H165.594C161.757 308.47 158.688 311.539 158.688 315.376C158.688 319.213 161.757 322.282 165.594 322.282H186.619C190.456 322.282 193.525 319.213 193.525 315.376C193.525 311.539 190.456 308.47 186.619 308.47Z" fill="url(#paint22_linear)"/>
<path d="M168.814 302.329C168.814 304.478 167.126 306.166 164.977 306.166C162.829 306.166 161.141 304.478 161.141 302.329C161.141 300.18 162.829 298.492 164.977 298.492C167.126 298.492 168.814 300.18 168.814 302.329Z" fill="white"/>
<path d="M166.208 302.329L167.436 300.947L166.208 299.72L164.98 301.101L163.599 299.72L162.371 300.947L163.752 302.329L162.371 303.556L163.599 304.784L164.98 303.556L166.208 304.784L167.436 303.556L166.208 302.329Z" fill="url(#paint23_linear)"/>
<path d="M191.066 302.329C191.066 304.478 189.378 306.166 187.229 306.166C185.081 306.166 183.393 304.478 183.393 302.329C183.393 300.18 185.081 298.492 187.229 298.492C189.378 298.492 191.066 300.18 191.066 302.329Z" fill="white"/>
<path d="M188.461 302.329L189.842 300.947L188.614 299.72L187.233 301.101L186.005 299.72L184.777 300.947L186.005 302.329L184.777 303.556L186.005 304.784L187.233 303.556L188.614 304.784L189.842 303.556L188.461 302.329Z" fill="url(#paint24_linear)"/>
<path d="M168.814 328.266C168.814 330.415 167.126 332.103 164.977 332.103C162.829 332.103 161.141 330.415 161.141 328.266C161.141 326.118 162.829 324.43 164.977 324.43C167.126 324.43 168.814 326.118 168.814 328.266Z" fill="white"/>
<path d="M166.208 328.115L167.436 326.887L166.208 325.659L164.98 326.887L163.599 325.659L162.371 326.887L163.752 328.115L162.371 329.496L163.599 330.724L164.98 329.342L166.208 330.724L167.436 329.496L166.208 328.115Z" fill="url(#paint25_linear)"/>
<path d="M191.066 328.267C191.066 330.416 189.378 332.104 187.229 332.104C185.081 332.104 183.393 330.416 183.393 328.267C183.393 326.119 185.081 324.431 187.229 324.431C189.378 324.431 191.066 326.119 191.066 328.267Z" fill="white"/>
<path d="M188.461 328.115L189.842 326.887L188.614 325.659L187.233 326.887L186.005 325.659L184.777 326.887L186.005 328.115L184.777 329.496L186.005 330.724L187.233 329.342L188.614 330.724L189.842 329.496L188.461 328.115Z" fill="url(#paint26_linear)"/>
<path d="M416.976 295.426H382.139V335.174H416.976V295.426Z" fill="url(#paint27_linear)"/>
<path opacity="0.7" d="M416.976 295.426H382.139V335.174H416.976V295.426Z" fill="url(#paint28_linear)"/>
<path opacity="0.7" d="M410.07 308.472H389.045C385.208 308.472 382.139 311.541 382.139 315.378C382.139 319.215 385.208 322.284 389.045 322.284H410.07C413.907 322.284 416.976 319.215 416.976 315.378C416.976 311.541 413.907 308.472 410.07 308.472Z" fill="url(#paint29_linear)"/>
<path d="M392.269 302.331C392.269 304.479 390.581 306.168 388.432 306.168C386.284 306.168 384.596 304.479 384.596 302.331C384.596 300.182 386.284 298.494 388.432 298.494C390.581 298.494 392.269 300.182 392.269 302.331Z" fill="white"/>
<path d="M389.661 302.331L390.889 300.949L389.661 299.722L388.433 301.103L387.052 299.722L385.824 300.949L387.205 302.331L385.824 303.558L387.052 304.786L388.433 303.558L389.661 304.786L390.889 303.558L389.661 302.331Z" fill="url(#paint30_linear)"/>
<path d="M414.523 302.33C414.523 304.478 412.835 306.167 410.686 306.167C408.538 306.167 406.85 304.478 406.85 302.33C406.85 300.181 408.538 298.493 410.686 298.493C412.835 298.493 414.523 300.181 414.523 302.33Z" fill="white"/>
<path d="M411.914 302.33L413.295 300.948L412.067 299.721L410.686 301.102L409.458 299.721L408.23 300.948L409.458 302.33L408.23 303.557L409.458 304.785L410.686 303.557L412.067 304.785L413.295 303.557L411.914 302.33Z" fill="url(#paint31_linear)"/>
<path d="M392.269 328.268C392.269 330.417 390.581 332.105 388.432 332.105C386.284 332.105 384.596 330.417 384.596 328.268C384.596 326.12 386.284 324.432 388.432 324.432C390.581 324.432 392.269 326.12 392.269 328.268Z" fill="white"/>
<path d="M389.661 328.116L390.889 326.888L389.661 325.66L388.433 326.888L387.052 325.66L385.824 326.888L387.205 328.116L385.824 329.497L387.052 330.725L388.433 329.343L389.661 330.725L390.889 329.497L389.661 328.116Z" fill="url(#paint32_linear)"/>
<path d="M414.523 328.269C414.523 330.418 412.835 332.106 410.686 332.106C408.538 332.106 406.85 330.418 406.85 328.269C406.85 326.121 408.538 324.433 410.686 324.433C412.835 324.433 414.523 326.121 414.523 328.269Z" fill="white"/>
<path d="M411.914 328.115L413.295 326.887L412.067 325.659L410.686 326.887L409.458 325.659L408.23 326.887L409.458 328.115L408.23 329.496L409.458 330.724L410.686 329.342L412.067 330.724L413.295 329.496L411.914 328.115Z" fill="url(#paint33_linear)"/>
<path d="M291.436 437.23C333.476 437.23 367.557 403.149 367.557 361.108C367.557 319.068 333.476 284.987 291.436 284.987C249.395 284.987 215.314 319.068 215.314 361.108C215.314 403.149 249.395 437.23 291.436 437.23Z" fill="url(#paint34_linear)"/>
<path d="M287.91 433.698C329.951 433.698 364.031 399.618 364.031 357.577C364.031 315.537 329.951 281.456 287.91 281.456C245.87 281.456 211.789 315.537 211.789 357.577C211.789 399.618 245.87 433.698 287.91 433.698Z" fill="white"/>
<path d="M300.798 342.845V315.374H274.862V342.845H247.391V368.782H274.862V396.253H300.798V368.782H328.269V342.845H300.798Z" fill="#FE9393"/>
<path d="M288.22 171.267H287.453C286.685 171.267 285.918 170.653 285.918 169.732V153.158C285.918 152.39 286.532 151.623 287.453 151.623H288.22C288.987 151.623 289.755 152.237 289.755 153.158V169.579C289.755 170.5 288.987 171.267 288.22 171.267Z" fill="url(#paint35_linear)"/>
<path d="M332.725 186.615C331.804 181.244 330.27 176.026 326.893 171.729C322.289 166.05 313.081 160.986 305.715 161.293C300.804 161.446 293.744 162.52 287.759 164.515C281.773 162.52 274.56 161.446 269.803 161.293C262.59 161.139 253.228 166.05 248.624 171.729C245.247 175.872 243.713 181.244 242.792 186.615C240.95 197.972 246.629 211.477 251.079 221.76C255.223 231.428 261.669 241.404 272.412 244.32C277.476 245.701 283.308 245.087 287.759 242.325C292.209 245.241 297.888 245.701 303.106 244.32C313.848 241.404 320.141 231.428 324.438 221.76C328.889 211.477 334.567 197.972 332.725 186.615Z" fill="url(#paint36_linear)"/>
<path opacity="0.5" d="M332.726 186.615C331.806 181.244 330.271 176.026 326.895 171.729C322.29 166.05 313.082 160.986 305.716 161.293C304.181 161.293 302.339 161.446 300.344 161.753C306.79 164.669 312.315 169.426 316.152 175.412C320.602 182.164 322.904 190.298 322.444 198.432C321.984 207.641 318.147 216.388 312.929 224.062C309.859 228.359 306.176 232.503 301.572 235.112C296.968 237.721 291.136 238.488 286.225 236.493C282.388 240.483 277.324 243.092 271.799 244.32C271.952 244.32 272.106 244.473 272.259 244.473C277.324 245.855 283.156 245.241 287.606 242.478C292.057 245.394 297.735 245.855 302.953 244.473C313.696 241.557 319.988 231.582 324.286 221.913C328.89 211.477 334.568 197.972 332.726 186.615Z" fill="#FE9393"/>
<path opacity="0.3" d="M291.442 218.842C303.106 205.029 305.101 183.851 296.353 168.043C295.432 166.355 294.358 164.667 293.13 163.132C291.288 163.593 289.447 164.053 287.759 164.667C281.773 162.672 274.56 161.597 269.803 161.444C262.59 161.29 253.228 166.202 248.624 171.88C245.247 176.024 243.713 181.395 242.792 186.766C240.95 198.123 246.629 211.629 251.079 221.911C253.074 226.362 255.53 230.966 258.599 234.803C271.184 234.035 283.461 228.357 291.442 218.842Z" fill="url(#paint37_linear)"/>
<path opacity="0.3" d="M279.778 175.259C279.011 170.502 277.323 165.898 275.021 161.754C273.179 161.6 271.491 161.447 269.956 161.294C262.743 161.14 253.382 166.051 248.778 171.73C245.401 175.873 243.866 181.245 242.946 186.616C241.564 195.364 244.634 205.493 248.164 214.241C255.377 213.934 262.59 211.785 268.268 207.488C277.783 200.275 281.774 187.076 279.778 175.259Z" fill="#FE9393"/>
<path d="M253.379 207.794C251.231 204.111 250.003 200.12 249.389 195.823C248.775 191.68 249.082 187.229 250.156 183.085C251.231 178.942 253.226 174.951 256.295 171.729C257.83 170.04 259.518 168.659 261.513 167.738C263.508 166.817 265.657 166.357 267.805 166.511C263.815 167.585 260.746 170.347 258.597 173.57C256.449 176.793 254.914 180.323 253.84 184.16C252.919 187.843 252.458 191.833 252.458 195.823C252.458 199.66 252.919 203.65 253.379 207.794Z" fill="white"/>
<path d="M302.341 147.479C301.881 149.782 301.267 152.237 300.039 154.232C298.812 156.227 296.816 157.915 294.514 158.529C291.752 159.297 286.841 157.915 289.603 154.539C291.598 152.084 294.207 150.088 297.277 148.861C298.812 148.093 300.5 147.633 302.341 147.479Z" fill="url(#paint38_linear)"/>
<path d="M517.503 385.668V362.647C519.498 359.885 520.726 356.509 520.726 352.825C520.726 347.914 518.578 343.464 515.201 340.548C518.578 337.478 520.726 333.181 520.726 328.27C520.726 319.062 513.36 311.695 504.151 311.695H443.684C434.476 311.695 427.109 319.062 427.109 328.27C427.109 333.181 429.258 337.632 432.634 340.548C429.258 343.617 427.109 347.914 427.109 352.825C427.109 356.509 428.337 359.885 430.332 362.647V385.668V394.109V417.129C428.337 419.892 427.109 423.268 427.109 426.951C427.109 431.862 429.258 436.313 432.634 439.229C429.258 442.298 427.109 446.595 427.109 451.506C427.109 460.715 434.476 468.081 443.684 468.081H504.151C513.36 468.081 520.726 460.715 520.726 451.506C520.726 446.595 518.578 442.145 515.201 439.229C518.578 436.159 520.726 431.862 520.726 426.951C520.726 423.268 519.498 419.892 517.503 417.129V394.109V385.668Z" fill="url(#paint39_linear)"/>
<path opacity="0.65" d="M517.506 385.667V362.647C519.501 359.884 520.729 356.508 520.729 352.825C520.729 347.914 518.58 343.463 515.204 340.547C518.58 337.478 520.729 333.18 520.729 328.269C520.729 321.67 516.892 315.992 511.214 313.383C512.442 315.685 513.209 318.447 513.209 321.363C513.209 326.274 511.06 330.725 507.684 333.641C511.06 336.71 513.209 341.007 513.209 345.918C513.209 349.602 511.981 352.978 509.986 355.741V378.761V387.202V410.222C511.981 412.985 513.209 416.361 513.209 420.044C513.209 424.956 511.06 429.406 507.684 432.322C511.06 435.391 513.209 439.689 513.209 444.6C513.209 453.808 505.842 461.174 496.634 461.174H436.167C433.712 461.174 431.256 460.561 429.107 459.64C431.87 464.704 437.395 468.234 443.687 468.234H504.154C513.362 468.234 520.729 460.867 520.729 451.659C520.729 446.748 518.58 442.298 515.204 439.382C518.58 436.312 520.729 432.015 520.729 427.104C520.729 423.421 519.501 420.044 517.506 417.282V394.261V385.667Z" fill="#98C0FB"/>
<path d="M491.415 298.803H456.73V286.986C456.73 282.228 460.567 278.392 465.325 278.392H482.82C487.578 278.392 491.415 282.228 491.415 286.986V298.803Z" fill="white"/>
<path d="M486.045 298.803H462.104V316.605H486.045V298.803Z" fill="#98C0FB"/>
<path opacity="0.39" d="M449.361 444.599C456.268 441.99 461.639 436.465 465.322 430.019C469.006 423.573 470.847 416.36 472.075 409.147C477.446 376.458 468.392 343.308 458.109 311.54H443.837C434.628 311.54 427.262 318.907 427.262 328.115C427.262 333.026 429.41 337.476 432.787 340.392C429.41 343.462 427.262 347.759 427.262 352.67C427.262 356.353 428.489 359.73 430.485 362.492V385.513V393.953V416.974C428.489 419.736 427.262 423.113 427.262 426.796C427.262 431.707 429.41 436.158 432.787 439.074C431.405 440.301 430.178 441.836 429.257 443.678C435.549 446.594 442.916 447.054 449.361 444.599Z" fill="#98C0FB"/>
<path d="M430.484 360.958V385.667V394.108V418.816H517.502V394.108V385.667V360.958H430.484Z" fill="white"/>
<path d="M517.655 365.715H430.484V368.324H517.655V365.715Z" fill="#98C0FB"/>
<path d="M517.655 411.449H430.484V414.058H517.655V411.449Z" fill="#98C0FB"/>
<path d="M485.429 391.805C485.276 391.498 485.276 391.191 485.122 390.884C484.355 388.275 483.127 385.819 481.746 383.517C480.058 380.755 475.914 375.383 474.072 372.928C472.077 375.537 467.933 380.755 466.399 383.517C465.017 385.819 463.79 388.275 463.022 390.884C462.869 391.191 462.869 391.498 462.715 391.805C462.408 393.032 462.102 394.26 462.102 395.488C462.102 396.562 462.255 397.636 462.562 398.711C462.715 399.171 462.869 399.785 463.022 400.245C463.483 401.627 464.404 402.854 465.324 403.775C467.473 406.077 470.542 407.458 474.072 407.458C477.449 407.458 480.518 406.077 482.82 403.775C483.894 402.854 484.662 401.627 485.122 400.245C485.276 399.785 485.429 399.325 485.582 398.711C485.889 397.636 486.043 396.562 486.043 395.488C485.889 394.26 485.736 393.032 485.429 391.805Z" fill="#98C0FB"/>
<path opacity="0.65" d="M485.43 391.805C485.276 391.498 485.276 391.191 485.123 390.884C484.355 388.275 483.128 385.819 481.746 383.517C480.058 380.755 475.914 375.383 474.073 372.928C473.919 373.235 473.612 373.542 473.305 373.849C475.147 376.304 477.449 379.22 478.523 381.062C479.905 383.364 481.132 385.819 481.9 388.428C482.053 388.735 482.053 389.042 482.207 389.349C482.514 390.577 482.821 391.805 482.821 393.032C482.821 394.107 482.667 395.181 482.36 396.255C482.207 396.716 482.053 397.329 481.9 397.79C481.439 399.171 480.519 400.399 479.598 401.32C477.449 403.622 474.38 405.003 470.85 405.003C468.855 405.003 467.013 404.543 465.479 403.622C467.627 405.924 470.697 407.305 474.226 407.305C477.603 407.305 480.672 405.924 482.974 403.622C484.048 402.701 484.816 401.473 485.276 400.092C485.43 399.632 485.583 399.171 485.737 398.557C486.044 397.483 486.197 396.409 486.197 395.334C485.89 394.26 485.737 393.032 485.43 391.805Z" fill="#98C0FB"/>
<path d="M158.538 306.936C145.8 297.268 125.235 294.045 107.125 301.412C89.0156 308.778 75.8172 327.501 80.7282 341.928C73.6686 328.422 50.9551 324.892 33.1526 333.026C15.1966 341.007 3.37938 358.042 1.53774 374.003C-0.303905 389.964 6.75572 404.697 17.6521 415.9C28.7019 427.103 43.435 435.084 58.4751 442.297C75.9707 450.584 116.026 462.708 134.903 469.001C143.497 451.045 162.221 413.598 168.36 395.335C173.578 379.374 178.028 363.26 177.568 347.606C177.107 331.799 171.276 316.605 158.538 306.936Z" fill="#FE9393"/>
<path opacity="0.48" d="M158.535 306.935C145.797 297.267 125.232 294.044 107.122 301.411C102.979 303.099 99.142 305.247 95.7656 308.01C110.499 308.01 125.385 314.149 136.128 324.278C150.554 337.936 158.074 358.041 158.228 377.839C158.535 410.528 138.584 442.756 109.118 456.876C107.583 457.643 105.895 458.41 104.36 459.024C116.177 462.861 127.38 466.391 135.054 469C143.648 451.044 162.372 413.597 168.51 395.334C173.728 379.373 178.179 363.259 177.719 347.605C177.105 331.798 171.273 316.604 158.535 306.935Z" fill="url(#paint40_linear)"/>
<path opacity="0.5" d="M84.258 427.255C101.293 413.597 110.348 390.576 107.279 368.937C104.823 352.055 95.1544 336.555 81.4956 326.579C79.5005 331.797 79.1935 337.169 80.7282 342.08C73.6686 328.574 50.9551 325.044 33.1525 333.178C15.1966 341.005 3.37937 358.04 1.53774 374.001C-0.303904 389.962 6.75571 404.695 17.6521 415.899C28.395 426.795 42.6677 434.775 57.5543 441.835C67.0694 437.998 76.2776 433.548 84.258 427.255Z" fill="url(#paint41_linear)"/>
<path opacity="0.7" d="M38.3679 410.835C51.2593 404.849 61.2349 393.186 65.2251 379.68C69.2153 366.175 67.0667 350.828 59.5467 338.857C57.2447 335.174 54.3287 331.798 51.1059 328.882C44.9671 329.189 38.6748 330.57 32.9964 333.179C15.1939 341.006 3.3767 358.041 1.53506 374.002C-0.306575 389.809 6.59957 404.389 17.3425 415.439C18.4168 415.439 19.4911 415.439 20.4119 415.285C26.7041 414.979 32.8429 413.444 38.3679 410.835Z" fill="#FE9393"/>
</g>
<defs>
<linearGradient id="paint0_linear" x1="417.219" y1="82.2355" x2="498.574" y2="82.2355" gradientUnits="userSpaceOnUse">
<stop stop-color="#FAD0C4"/>
<stop offset="0.01" stop-color="#FAD0C4"/>
<stop offset="1" stop-color="#FFD1FF"/>
</linearGradient>
<linearGradient id="paint1_linear" x1="350.373" y1="42.5068" x2="417.514" y2="51.7264" gradientUnits="userSpaceOnUse">
<stop stop-color="#5BA4E5"/>
<stop offset="1" stop-color="#7384FE"/>
</linearGradient>
<linearGradient id="paint2_linear" x1="374.777" y1="100.982" x2="389.071" y2="113.155" gradientUnits="userSpaceOnUse">
<stop stop-color="#5BA4E5"/>
<stop offset="1" stop-color="#7384FE"/>
</linearGradient>
<linearGradient id="paint3_linear" x1="317.68" y1="0.663086" x2="419.98" y2="82.9342" gradientUnits="userSpaceOnUse">
<stop stop-color="#5BA4E5"/>
<stop offset="1" stop-color="#7384FE"/>
</linearGradient>
<linearGradient id="paint4_linear" x1="317.67" y1="1.37695" x2="381.807" y2="43.3673" gradientUnits="userSpaceOnUse">
<stop stop-color="#5BA4E5"/>
<stop offset="1" stop-color="#7384FE"/>
</linearGradient>
<linearGradient id="paint5_linear" x1="355.592" y1="10.126" x2="430.664" y2="46.5442" gradientUnits="userSpaceOnUse">
<stop stop-color="#5BA4E5"/>
<stop offset="1" stop-color="#7384FE"/>
</linearGradient>
<linearGradient id="paint6_linear" x1="398.705" y1="196.517" x2="571.668" y2="196.517" gradientUnits="userSpaceOnUse">
<stop stop-color="#A1C4FD"/>
<stop offset="1" stop-color="#C2E9FB"/>
</linearGradient>
<linearGradient id="paint7_linear" x1="395.34" y1="170.809" x2="542.509" y2="327.932" gradientUnits="userSpaceOnUse">
<stop stop-color="#5BA4E5"/>
<stop offset="1" stop-color="#7384FE"/>
</linearGradient>
<linearGradient id="paint8_linear" x1="87.7871" y1="16.417" x2="228.21" y2="99.4464" gradientUnits="userSpaceOnUse">
<stop stop-color="#5BA4E5"/>
<stop offset="1" stop-color="#7384FE"/>
</linearGradient>
<linearGradient id="paint9_linear" x1="99.7578" y1="161.984" x2="179.431" y2="161.984" gradientUnits="userSpaceOnUse">
<stop stop-color="#A1C4FD"/>
<stop offset="1" stop-color="#C2E9FB"/>
</linearGradient>
<linearGradient id="paint10_linear" x1="0.0234375" y1="259.509" x2="157.942" y2="259.509" gradientUnits="userSpaceOnUse">
<stop stop-color="#A1C4FD"/>
<stop offset="1" stop-color="#C2E9FB"/>
</linearGradient>
<linearGradient id="paint11_linear" x1="11.9746" y1="183.698" x2="229.179" y2="315.784" gradientUnits="userSpaceOnUse">
<stop stop-color="#5BA4E5"/>
<stop offset="1" stop-color="#7384FE"/>
</linearGradient>
<linearGradient id="paint12_linear" x1="357.891" y1="230.045" x2="378.822" y2="255.494" gradientUnits="userSpaceOnUse">
<stop stop-color="#5BA4E5"/>
<stop offset="1" stop-color="#7384FE"/>
</linearGradient>
<linearGradient id="paint13_linear" x1="191.992" y1="230.045" x2="212.924" y2="255.494" gradientUnits="userSpaceOnUse">
<stop stop-color="#5BA4E5"/>
<stop offset="1" stop-color="#7384FE"/>
</linearGradient>
<linearGradient id="paint14_linear" x1="115.254" y1="242.938" x2="144.376" y2="381.702" gradientUnits="userSpaceOnUse">
<stop stop-color="#5BA4E5"/>
<stop offset="1" stop-color="#7384FE"/>
</linearGradient>
<linearGradient id="paint15_linear" x1="115.254" y1="315.375" x2="228.98" y2="571.514" gradientUnits="userSpaceOnUse">
<stop stop-color="#5BA4E5"/>
<stop offset="1" stop-color="#7384FE"/>
</linearGradient>
<linearGradient id="paint16_linear" x1="115.254" y1="315.375" x2="228.98" y2="571.514" gradientUnits="userSpaceOnUse">
<stop stop-color="#5BA4E5"/>
<stop offset="1" stop-color="#7384FE"/>
</linearGradient>
<linearGradient id="paint17_linear" x1="115.254" y1="242.937" x2="225.109" y2="431.107" gradientUnits="userSpaceOnUse">
<stop stop-color="#5BA4E5"/>
<stop offset="1" stop-color="#7384FE"/>
</linearGradient>
<linearGradient id="paint18_linear" x1="117.709" y1="244.777" x2="322.892" y2="558.875" gradientUnits="userSpaceOnUse">
<stop stop-color="#5BA4E5"/>
<stop offset="1" stop-color="#7384FE"/>
</linearGradient>
<linearGradient id="paint19_linear" x1="115.254" y1="308.775" x2="116.216" y2="334.522" gradientUnits="userSpaceOnUse">
<stop stop-color="#5BA4E5"/>
<stop offset="1" stop-color="#7384FE"/>
</linearGradient>
<linearGradient id="paint20_linear" x1="158.688" y1="295.425" x2="198.093" y2="329.962" gradientUnits="userSpaceOnUse">
<stop stop-color="#5BA4E5"/>
<stop offset="1" stop-color="#7384FE"/>
</linearGradient>
<linearGradient id="paint21_linear" x1="158.688" y1="295.425" x2="198.093" y2="329.962" gradientUnits="userSpaceOnUse">
<stop stop-color="#5BA4E5"/>
<stop offset="1" stop-color="#7384FE"/>
</linearGradient>
<linearGradient id="paint22_linear" x1="158.688" y1="308.47" x2="168.152" y2="332.342" gradientUnits="userSpaceOnUse">
<stop stop-color="#5BA4E5"/>
<stop offset="1" stop-color="#7384FE"/>
</linearGradient>
<linearGradient id="paint23_linear" x1="162.371" y1="299.72" x2="167.436" y2="304.784" gradientUnits="userSpaceOnUse">
<stop stop-color="#5BA4E5"/>
<stop offset="1" stop-color="#7384FE"/>
</linearGradient>
<linearGradient id="paint24_linear" x1="184.777" y1="299.72" x2="189.842" y2="304.784" gradientUnits="userSpaceOnUse">
<stop stop-color="#5BA4E5"/>
<stop offset="1" stop-color="#7384FE"/>
</linearGradient>
<linearGradient id="paint25_linear" x1="162.371" y1="325.659" x2="167.436" y2="330.724" gradientUnits="userSpaceOnUse">
<stop stop-color="#5BA4E5"/>
<stop offset="1" stop-color="#7384FE"/>
</linearGradient>
<linearGradient id="paint26_linear" x1="184.777" y1="325.659" x2="189.842" y2="330.724" gradientUnits="userSpaceOnUse">
<stop stop-color="#5BA4E5"/>
<stop offset="1" stop-color="#7384FE"/>
</linearGradient>
<linearGradient id="paint27_linear" x1="382.139" y1="295.426" x2="421.544" y2="329.963" gradientUnits="userSpaceOnUse">
<stop stop-color="#5BA4E5"/>
<stop offset="1" stop-color="#7384FE"/>
</linearGradient>
<linearGradient id="paint28_linear" x1="382.139" y1="295.426" x2="421.544" y2="329.963" gradientUnits="userSpaceOnUse">
<stop stop-color="#5BA4E5"/>
<stop offset="1" stop-color="#7384FE"/>
</linearGradient>
<linearGradient id="paint29_linear" x1="382.139" y1="308.472" x2="391.603" y2="332.344" gradientUnits="userSpaceOnUse">
<stop stop-color="#5BA4E5"/>
<stop offset="1" stop-color="#7384FE"/>
</linearGradient>
<linearGradient id="paint30_linear" x1="385.824" y1="299.722" x2="390.889" y2="304.786" gradientUnits="userSpaceOnUse">
<stop stop-color="#5BA4E5"/>
<stop offset="1" stop-color="#7384FE"/>
</linearGradient>
<linearGradient id="paint31_linear" x1="408.23" y1="299.721" x2="413.295" y2="304.785" gradientUnits="userSpaceOnUse">
<stop stop-color="#5BA4E5"/>
<stop offset="1" stop-color="#7384FE"/>
</linearGradient>
<linearGradient id="paint32_linear" x1="385.824" y1="325.66" x2="390.889" y2="330.725" gradientUnits="userSpaceOnUse">
<stop stop-color="#5BA4E5"/>
<stop offset="1" stop-color="#7384FE"/>
</linearGradient>
<linearGradient id="paint33_linear" x1="408.23" y1="325.659" x2="413.295" y2="330.724" gradientUnits="userSpaceOnUse">
<stop stop-color="#5BA4E5"/>
<stop offset="1" stop-color="#7384FE"/>
</linearGradient>
<linearGradient id="paint34_linear" x1="215.314" y1="284.987" x2="367.557" y2="437.23" gradientUnits="userSpaceOnUse">
<stop stop-color="#5BA4E5"/>
<stop offset="1" stop-color="#7384FE"/>
</linearGradient>
<linearGradient id="paint35_linear" x1="285.918" y1="151.623" x2="293.31" y2="153.067" gradientUnits="userSpaceOnUse">
<stop stop-color="#5BA4E5"/>
<stop offset="1" stop-color="#7384FE"/>
</linearGradient>
<linearGradient id="paint36_linear" x1="242.436" y1="203.173" x2="333.082" y2="203.173" gradientUnits="userSpaceOnUse">
<stop stop-color="#FAD0C4"/>
<stop offset="0.01" stop-color="#FAD0C4"/>
<stop offset="1" stop-color="#FFD1FF"/>
</linearGradient>
<linearGradient id="paint37_linear" x1="242.436" y1="198.122" x2="301.77" y2="198.122" gradientUnits="userSpaceOnUse">
<stop stop-color="#A1C4FD"/>
<stop offset="1" stop-color="#C2E9FB"/>
</linearGradient>
<linearGradient id="paint38_linear" x1="288.787" y1="153.108" x2="302.341" y2="153.108" gradientUnits="userSpaceOnUse">
<stop stop-color="#A1C4FD"/>
<stop offset="1" stop-color="#C2E9FB"/>
</linearGradient>
<linearGradient id="paint39_linear" x1="427.109" y1="389.888" x2="520.726" y2="389.888" gradientUnits="userSpaceOnUse">
<stop stop-color="#A1C4FD"/>
<stop offset="1" stop-color="#C2E9FB"/>
</linearGradient>
<linearGradient id="paint40_linear" x1="95.7656" y1="383.186" x2="177.751" y2="383.186" gradientUnits="userSpaceOnUse">
<stop stop-color="#FAD0C4"/>
<stop offset="0.01" stop-color="#FAD0C4"/>
<stop offset="1" stop-color="#FFD1FF"/>
</linearGradient>
<linearGradient id="paint41_linear" x1="1.24609" y1="384.207" x2="107.87" y2="384.207" gradientUnits="userSpaceOnUse">
<stop stop-color="#FAD0C4"/>
<stop offset="0.01" stop-color="#FAD0C4"/>
<stop offset="1" stop-color="#FFD1FF"/>
</linearGradient>
<clipPath id="clip0">
<rect width="571.676" height="468.237" fill="white" transform="translate(0 0.762695)"/>
</clipPath>
</defs>
</svg>
