<svg width="579" height="561" viewBox="0 0 579 561" fill="none" xmlns="http://www.w3.org/2000/svg">
<g clip-path="url(#clip0)">
<path d="M248.929 98.5577C326.349 92.2515 525.868 136.932 548.141 326.657C570.951 521.211 330.911 568.575 234.17 556.097C107.911 539.862 12.6457 450.098 30.2227 329.34C55.7161 153.57 199.284 102.583 248.929 98.5577Z" fill="url(#paint0_linear)"/>
<path d="M260.468 237.832C260.468 237.832 249.465 204.825 220.215 199.324C190.965 193.823 190.965 206.704 190.965 206.704C190.965 206.704 161.714 160.95 121.327 159.071C81.0747 157.193 70.0723 203.081 70.0723 203.081C70.0723 203.081 46.3231 193.957 29.8195 210.461C13.3159 226.964 20.6956 237.967 20.6956 237.967H260.468V237.832Z" fill="#F9FCFF"/>
<path d="M219.675 292.308C204.379 264.667 179.959 237.698 140.914 222.536" stroke="url(#paint1_linear)" stroke-width="4.02527" stroke-miterlimit="10"/>
<path d="M206.258 273.389C206.258 273.389 156.882 246.285 148.697 263.326C140.378 280.232 206.258 273.389 206.258 273.389Z" fill="url(#paint2_linear)"/>
<path d="M188.28 250.311C188.28 250.311 138.903 223.207 130.719 240.247C122.4 257.154 188.28 250.311 188.28 250.311Z" fill="url(#paint3_linear)"/>
<path d="M177.815 240.784C177.815 240.784 165.605 185.906 147.357 190.871C129.109 195.835 177.815 240.784 177.815 240.784Z" fill="url(#paint4_linear)"/>
<path d="M215.518 282.647C215.518 282.647 236.181 221.194 215.249 215.291C194.318 209.387 215.518 282.647 215.518 282.647Z" fill="url(#paint5_linear)"/>
<path d="M191.5 253.799C191.5 253.799 209.345 200.531 191.232 195.298C173.118 190.2 191.5 253.799 191.5 253.799Z" fill="url(#paint6_linear)"/>
<path d="M157.822 230.721C157.822 230.721 114.349 195.03 103.078 210.058C91.8073 225.22 157.822 230.721 157.822 230.721Z" fill="url(#paint7_linear)"/>
<path d="M376.127 132.102C376.127 132.102 382.702 112.378 400.279 109.024C417.856 105.669 417.856 113.451 417.856 113.451C417.856 113.451 438.519 92.3858 462.67 91.3124C486.822 90.239 490.445 111.305 490.445 111.305C490.445 111.305 504.667 105.803 514.596 115.732C524.525 125.661 520.098 132.236 520.098 132.236H376.127V132.102Z" fill="#F9FCFF"/>
<path d="M416.648 227.903C431.944 200.263 456.364 173.294 495.41 158.132" stroke="url(#paint8_linear)" stroke-width="4.02527" stroke-miterlimit="10"/>
<path d="M430.066 208.985C430.066 208.985 479.443 181.881 487.628 198.921C495.813 215.828 430.066 208.985 430.066 208.985Z" fill="url(#paint9_linear)"/>
<path d="M448.045 185.906C448.045 185.906 497.422 158.803 505.606 175.843C513.925 192.749 448.045 185.906 448.045 185.906Z" fill="url(#paint10_linear)"/>
<path d="M458.51 176.38C458.51 176.38 470.72 121.502 488.968 126.467C507.216 131.431 458.51 176.38 458.51 176.38Z" fill="url(#paint11_linear)"/>
<path d="M420.808 218.243C420.808 218.243 400.145 156.79 421.076 150.886C442.007 144.983 420.808 218.243 420.808 218.243Z" fill="url(#paint12_linear)"/>
<path d="M444.827 189.395C444.827 189.395 426.982 136.127 445.095 130.894C463.209 125.796 444.827 189.395 444.827 189.395Z" fill="url(#paint13_linear)"/>
<path d="M478.502 166.317C478.502 166.317 521.975 130.626 533.246 145.654C544.516 160.816 478.502 166.317 478.502 166.317Z" fill="url(#paint14_linear)"/>
<path d="M331.179 409.175C331.179 409.175 209.079 309.348 208.006 236.222C207.335 187.785 251.344 152.631 292.939 157.193C320.847 160.279 343.255 180.539 353.318 208.045C367.272 183.223 383.373 167.39 423.358 171.549C464.952 175.843 502.253 220.524 489.104 267.217C470.856 331.889 331.179 409.175 331.179 409.175Z" fill="url(#paint15_linear)"/>
<path d="M468.44 194.091C471.124 205.362 471.124 217.304 467.635 229.514C449.387 294.186 309.845 371.472 309.845 371.472C309.845 371.472 253.222 325.181 216.727 272.45C244.769 338.464 331.313 409.175 331.313 409.175C331.313 409.175 470.855 331.756 489.103 267.217C497.02 239.308 486.822 212.205 468.44 194.091Z" fill="#FE9393"/>
<g opacity="0.42">
<path opacity="0.42" d="M292.668 177.051C292.534 177.051 292.4 177.051 292.132 177.051C288.375 176.648 284.484 176.648 280.727 176.917C278.312 177.185 276.165 175.441 275.896 173.026C275.628 170.61 277.372 168.464 279.787 168.195C284.215 167.793 288.643 167.793 292.937 168.329C295.352 168.598 297.096 170.745 296.828 173.16C296.828 175.441 294.949 177.051 292.668 177.051Z" fill="#F9FCFF"/>
<path opacity="0.42" d="M227.191 229.514C227.057 229.514 226.923 229.514 226.655 229.514C224.24 229.245 222.495 227.098 222.764 224.683C225.447 200.532 241.28 180.271 264.09 171.818C266.371 171.013 268.92 172.086 269.725 174.367C270.53 176.648 269.457 179.198 267.176 180.003C247.452 187.248 233.766 204.691 231.485 225.623C231.351 227.904 229.472 229.514 227.191 229.514Z" fill="#F9FCFF"/>
</g>
<path d="M489.504 258.63H492.187" stroke="#F9FCFF" stroke-width="4.93123" stroke-miterlimit="10" stroke-linecap="round" stroke-linejoin="round"/>
<path d="M472.465 258.63H482.796" stroke="#F9FCFF" stroke-width="4.93123" stroke-miterlimit="10" stroke-linecap="round" stroke-linejoin="round"/>
<path d="M212.969 255.946H300.317C308.77 255.946 316.552 260.776 320.309 268.424L333.056 294.455C334.398 297.272 338.557 297.272 339.899 294.32L373.98 219.719C376.126 215.023 382.701 215.157 384.848 219.853L396.119 245.48C399.607 253.531 407.658 258.764 416.379 258.764H466.293" stroke="#F9FCFF" stroke-width="4.93123" stroke-miterlimit="10" stroke-linecap="round" stroke-linejoin="round"/>
<path d="M189.491 244.809L128.039 256.483C120.659 257.824 115.829 264.936 117.304 272.315L124.147 308.006C125.489 315.386 132.601 320.216 139.98 318.74L201.433 307.067C208.812 305.725 213.643 298.614 212.167 291.234L205.324 255.543C203.848 248.298 196.871 243.468 189.491 244.809ZM199.152 286.404C200.091 291.502 196.871 296.333 191.772 297.272L145.213 306.128C140.114 307.067 135.284 303.847 134.345 298.748L130.185 277.146C129.246 272.047 132.466 267.217 137.565 266.277L184.124 257.422C189.223 256.483 194.053 259.703 194.992 264.801L199.152 286.404Z" fill="#68A9FE"/>
<path d="M301.661 418.969L87.7844 459.759C83.4908 460.564 79.4655 457.746 78.6605 453.453L50.6177 306.798C49.8127 302.505 52.6304 298.48 56.924 297.675L270.8 256.885C275.094 256.08 279.119 258.898 279.924 263.191L307.967 409.845C308.772 414.005 305.954 418.164 301.661 418.969Z" fill="url(#paint16_linear)"/>
<path d="M299.111 403.003L84.4297 443.926C80.4045 444.731 76.5134 442.048 75.7083 438.022L50.6174 306.396C49.8124 302.371 52.4959 298.48 56.5212 297.675L271.202 256.751C275.228 255.946 279.119 258.629 279.924 262.655L305.015 394.281C305.82 398.441 303.136 402.332 299.111 403.003Z" fill="#68A9FE"/>
<path d="M123.342 452.916L115.023 454.526C114.083 454.66 113.144 454.123 112.876 453.05L82.6863 294.588C82.5521 293.649 83.0888 292.71 84.1622 292.442L92.4811 290.832C93.4203 290.697 94.3596 291.234 94.6279 292.307L124.952 450.903C124.952 451.842 124.281 452.782 123.342 452.916Z" fill="#F9FCFF"/>
<path d="M275.362 423.934L267.044 425.544C266.104 425.678 265.165 425.142 264.897 424.068L234.573 265.472C234.439 264.533 234.976 263.594 236.049 263.326L244.368 261.715C245.307 261.581 246.246 262.118 246.515 263.191L276.838 421.787C276.973 422.861 276.302 423.8 275.362 423.934Z" fill="#F9FCFF"/>
<path d="M221.819 380.12C237.214 356.276 230.364 324.468 206.521 309.074C182.678 293.68 150.869 300.529 135.475 324.373C120.081 348.216 126.93 380.024 150.774 395.418C174.617 410.813 206.425 403.963 221.819 380.12Z" fill="url(#paint17_linear)"/>
<path d="M183.944 318.489L161.143 322.841L173.218 386.105L196.02 381.753L183.944 318.489Z" fill="#FFECE6"/>
<path d="M144.861 346.911L149.213 369.713L212.477 357.637L208.125 334.836L144.861 346.911Z" fill="#FFECE6"/>
<path d="M373.846 370.935C369.284 370.935 364.857 370.398 360.429 369.459C339.229 364.897 321.652 350.003 311.052 327.462C300.452 305.188 297.903 278.085 303.673 251.25C307.295 234.478 314.138 218.377 323.531 205.093L328.898 208.85C320.042 221.463 313.602 236.625 310.113 252.592C304.612 278.085 307.027 303.713 317.09 324.644C326.885 345.307 342.852 358.993 361.905 363.018C380.958 367.178 401.084 361.274 418.527 346.38C436.238 331.353 448.985 309.08 454.486 283.586C457.975 267.619 458.243 251.116 455.425 235.954L461.866 234.746C464.818 250.713 464.549 268.156 460.926 284.928C455.157 311.897 441.605 335.512 422.821 351.345C407.793 364.226 390.753 370.935 373.846 370.935Z" fill="#68A9FE"/>
<path d="M187.475 478.275C176.472 478.275 165.47 476.665 157.956 471.835C152.723 468.48 149.637 463.65 148.698 457.746C147.893 452.782 149.503 448.354 153.394 444.731C164.799 434.4 195.123 433.461 218.604 434.4C244.634 435.473 274.689 439.767 293.071 444.865C322.724 453.05 356.402 452.916 361.232 444.597C362.977 441.511 360.159 436.278 353.45 429.838C333.861 410.919 343.119 391.866 350.632 376.436C352.108 373.484 353.45 370.666 354.524 367.983L360.561 370.532C359.354 373.484 357.878 376.436 356.536 379.254C349.022 394.818 341.911 409.443 358.012 425.007C367.404 433.997 370.356 441.779 366.868 447.817C358.683 462.174 316.954 458.283 291.327 451.172C256.844 441.645 174.862 434.266 157.822 449.562C155.541 451.574 154.736 453.855 155.273 456.539C155.943 460.564 158.09 463.784 161.713 466.199C179.29 477.873 223.434 467.273 223.836 467.139L225.447 473.579C224.105 473.982 205.857 478.275 187.475 478.275Z" fill="#68A9FE"/>
<path d="M247.183 489.412C265.19 489.412 279.788 482.023 279.788 472.908C279.788 463.794 265.19 456.405 247.183 456.405C229.176 456.405 214.578 463.794 214.578 472.908C214.578 482.023 229.176 489.412 247.183 489.412Z" fill="#68A9FE"/>
<path d="M246.914 475.726C259.141 475.726 269.053 470.74 269.053 464.589C269.053 458.439 259.141 453.453 246.914 453.453C234.687 453.453 224.775 458.439 224.775 464.589C224.775 470.74 234.687 475.726 246.914 475.726Z" fill="url(#paint18_linear)"/>
<path d="M341.24 363.018L343.521 354.968L376.126 364.092L373.442 372.142C373.442 372.142 361.635 369.861 355.329 383.95L348.352 380.998C348.352 380.998 350.767 367.714 341.24 363.018Z" fill="url(#paint19_linear)"/>
<path d="M327.554 199.056L333.323 204.288C335.202 205.899 335.336 208.85 333.592 210.729C331.982 212.607 329.03 212.742 327.151 210.997L321.382 205.764C319.503 204.154 319.369 201.202 321.113 199.324C322.858 197.58 325.675 197.446 327.554 199.056Z" fill="url(#paint20_linear)"/>
<path d="M453.947 231.66L461.461 229.782C463.876 229.245 466.291 230.721 466.962 233.136C467.499 235.551 466.023 237.967 463.607 238.638L456.094 240.516C453.679 241.053 451.263 239.577 450.592 237.162C450.056 234.612 451.532 232.197 453.947 231.66Z" fill="url(#paint21_linear)"/>
<path d="M220.616 467.676H209.748V477.336H220.616V467.676Z" fill="#68A9FE"/>
<path d="M482.395 396.83C478.102 424.068 459.719 445.134 437.178 451.977C429.396 454.392 414.771 441.243 414.771 441.243C414.771 441.243 397.864 449.561 391.558 445.536C371.298 432.387 359.624 406.088 363.918 378.314C369.688 341.818 395.852 339.537 428.591 344.636C461.33 349.735 488.165 360.335 482.395 396.83Z" fill="#FE9393"/>
<path d="M481.323 375.094C481.323 378.18 481.189 381.534 480.518 385.157C476.224 412.395 411.149 433.997 392.767 430.777C377.471 428.093 367.407 413.871 363.248 396.696C365.261 417.225 375.726 435.205 391.425 445.402C397.731 449.562 414.637 441.108 414.637 441.108C414.637 441.108 429.263 454.124 437.045 451.843C459.72 445 478.103 423.934 482.262 396.696C483.738 388.243 483.335 381.132 481.323 375.094Z" fill="url(#paint22_linear)"/>
<path d="M476.089 310.69C476.089 310.69 472.6 329.608 460.122 335.378C447.644 341.013 431.006 331.353 431.006 331.353C431.006 331.353 434.494 312.434 446.973 306.664C459.451 300.895 476.089 310.69 476.089 310.69Z" fill="url(#paint23_linear)"/>
<path opacity="0.39" d="M410.611 352.552C410.477 352.552 410.342 352.552 410.208 352.552C408.061 352.284 405.915 352.15 403.768 352.284C402.426 352.418 401.218 351.345 401.218 350.003C401.084 348.661 402.158 347.454 403.499 347.454C405.915 347.32 408.464 347.454 410.879 347.856C412.221 348.125 413.16 349.332 412.892 350.674C412.892 351.747 411.818 352.552 410.611 352.552Z" fill="#F9FCFF"/>
<path opacity="0.39" d="M372.641 380.327C372.507 380.327 372.372 380.327 372.238 380.327C370.896 380.059 369.957 378.851 370.226 377.509C372.372 363.958 381.765 353.089 394.78 348.93C396.121 348.527 397.463 349.198 397.866 350.54C398.268 351.882 397.597 353.223 396.256 353.626C384.985 357.249 376.934 366.641 375.056 378.314C374.788 379.388 373.848 380.327 372.641 380.327Z" fill="#F9FCFF"/>
<path d="M428.589 346.38C427.516 346.246 426.845 345.441 426.845 344.502C426.845 344.233 428.321 322.9 420.941 307.469C420.539 306.664 420.941 305.591 421.746 305.188C422.551 304.786 423.625 305.188 424.027 305.993C431.809 322.229 430.333 343.831 430.199 344.77C430.333 345.709 429.528 346.38 428.589 346.38Z" fill="#68A9FE"/>
<path d="M384.714 479.751H540.76C540.76 479.751 538.479 459.759 523.183 459.759C507.887 459.759 499.702 435.071 472.733 432.79C445.764 430.509 428.187 457.478 428.187 457.478C428.187 457.478 415.306 453.989 398.802 459.759C382.433 465.663 384.714 479.751 384.714 479.751Z" fill="#F9FCFF"/>
<path d="M81.2098 33.7508H171.913C171.913 33.7508 170.571 22.2117 161.715 22.2117C152.86 22.2117 148.029 7.85488 132.331 6.51312C116.632 5.17136 106.435 20.8699 106.435 20.8699C106.435 20.8699 98.921 18.8573 89.3945 22.2117C79.7338 25.5661 81.2098 33.7508 81.2098 33.7508Z" fill="#F9FCFF"/>
<path d="M549.884 391.195C557.072 391.195 562.899 385.368 562.899 378.18C562.899 370.992 557.072 365.165 549.884 365.165C542.696 365.165 536.869 370.992 536.869 378.18C536.869 385.368 542.696 391.195 549.884 391.195Z" stroke="#F9FCFF" stroke-width="4.02527" stroke-miterlimit="10"/>
<path d="M534.857 303.712C534.857 307.603 531.636 310.689 527.879 310.689C523.988 310.689 520.902 307.469 520.902 303.712C520.902 299.821 524.123 296.735 527.879 296.735C531.636 296.601 534.857 299.821 534.857 303.712Z" stroke="#F9FCFF" stroke-width="4.02527" stroke-miterlimit="10"/>
<path d="M536.87 178.929C536.87 182.82 533.65 185.906 529.893 185.906C526.002 185.906 522.916 182.686 522.916 178.929C522.916 175.038 526.136 171.952 529.893 171.952C533.65 171.818 536.87 175.038 536.87 178.929Z" stroke="#F9FCFF" stroke-width="4.02527" stroke-miterlimit="10"/>
<path d="M192.709 161.754C197.155 161.754 200.759 158.15 200.759 153.704C200.759 149.258 197.155 145.653 192.709 145.653C188.263 145.653 184.658 149.258 184.658 153.704C184.658 158.15 188.263 161.754 192.709 161.754Z" stroke="#F9FCFF" stroke-width="4.02527" stroke-miterlimit="10"/>
<path d="M90.0638 126.6C90.0638 129.418 87.7828 131.565 85.0993 131.565C82.2816 131.565 80.1348 129.284 80.1348 126.6C80.1348 123.783 82.4158 121.636 85.0993 121.636C87.7828 121.502 90.0638 123.783 90.0638 126.6Z" stroke="#F9FCFF" stroke-width="4.02527" stroke-miterlimit="10"/>
<path d="M37.4132 389.511C38.6903 384.103 35.341 378.683 29.9322 377.405C24.5234 376.128 19.1034 379.478 17.8262 384.886C16.549 390.295 19.8984 395.715 25.3072 396.992C30.716 398.269 36.136 394.92 37.4132 389.511Z" stroke="#F9FCFF" stroke-width="4.02527" stroke-miterlimit="10"/>
<path d="M343.658 496.925C343.658 499.743 341.377 501.89 338.693 501.89C335.875 501.89 333.729 499.609 333.729 496.925C333.729 494.108 336.009 491.961 338.693 491.961C341.377 491.827 343.658 494.108 343.658 496.925Z" stroke="#F9FCFF" stroke-width="4.02527" stroke-miterlimit="10"/>
<path d="M218.735 557.275C225.383 554.541 228.555 546.935 225.82 540.288C223.086 533.64 215.481 530.468 208.833 533.202C202.186 535.937 199.013 543.542 201.748 550.189C204.482 556.837 212.088 560.009 218.735 557.275Z" stroke="#F9FCFF" stroke-width="4.02527" stroke-miterlimit="10"/>
<path d="M417.32 535.434C421.766 535.434 425.371 531.829 425.371 527.383C425.371 522.937 421.766 519.333 417.32 519.333C412.874 519.333 409.27 522.937 409.27 527.383C409.27 531.829 412.874 535.434 417.32 535.434Z" stroke="#F9FCFF" stroke-width="4.02527" stroke-miterlimit="10"/>
<path d="M61.8883 501.89C61.8883 505.244 59.2048 507.928 55.8504 507.928C52.496 507.928 49.8125 505.244 49.8125 501.89C49.8125 498.535 52.496 495.852 55.8504 495.852C59.2048 495.852 61.8883 498.535 61.8883 501.89Z" stroke="#F9FCFF" stroke-width="4.02527" stroke-miterlimit="10"/>
<path d="M359.757 150.752C359.757 153.57 357.476 155.716 354.793 155.716C351.975 155.716 349.828 153.435 349.828 150.752C349.828 147.934 352.109 145.787 354.793 145.787C357.476 145.653 359.757 147.934 359.757 150.752Z" stroke="#F9FCFF" stroke-width="4.02527" stroke-miterlimit="10"/>
<path d="M541.565 529.396H529.758V517.454H517.28V529.396H505.338V541.874H517.28V553.682H529.758V541.874H541.565V529.396Z" fill="url(#paint24_linear)"/>
<path d="M28.8802 451.977H19.4879V442.584H9.69308V451.977H0.300781V461.772H9.69308V471.164H19.4879V461.772H28.8802V451.977Z" fill="url(#paint25_linear)"/>
<path d="M474.611 10.136H465.218V0.743652H455.424V10.136H446.031V19.9308H455.424V29.3231H465.218V19.9308H474.611V10.136Z" fill="url(#paint26_linear)"/>
<path d="M90.6023 67.295H76.5138V53.2065H61.7545V67.295H47.666V82.0543H61.7545V96.1428H76.5138V82.0543H90.6023V67.295Z" fill="url(#paint27_linear)"/>
<path d="M579.003 225.756H565.719V212.607H551.899V225.756H538.75V239.576H551.899V252.86H565.719V239.576H579.003V225.756Z" fill="url(#paint28_linear)"/>
<path d="M38.2729 151.96H30.2224V143.909H21.7693V151.96H13.7188V160.413H21.7693V168.463H30.2224V160.413H38.2729V151.96Z" fill="url(#paint29_linear)"/>
</g>
<defs>
<linearGradient id="paint0_linear" x1="28.1289" y1="327.976" x2="549.661" y2="327.976" gradientUnits="userSpaceOnUse">
<stop stop-color="#A1C4FD"/>
<stop offset="1" stop-color="#C2E9FB"/>
</linearGradient>
<linearGradient id="paint1_linear" x1="140.914" y1="257.422" x2="219.675" y2="257.422" gradientUnits="userSpaceOnUse">
<stop stop-color="#FFB19B"/>
<stop offset="0.1875" stop-color="#FFB49E"/>
<stop offset="1" stop-color="#FFD1FF"/>
</linearGradient>
<linearGradient id="paint2_linear" x1="147.971" y1="266.229" x2="206.258" y2="266.229" gradientUnits="userSpaceOnUse">
<stop stop-color="#A4E0EA"/>
<stop offset="0.1875" stop-color="#9DC8FF"/>
<stop offset="1" stop-color="#FFD1FF"/>
</linearGradient>
<linearGradient id="paint3_linear" x1="129.992" y1="243.151" x2="188.28" y2="243.151" gradientUnits="userSpaceOnUse">
<stop stop-color="#A4E0EA"/>
<stop offset="0.1875" stop-color="#9DC8FF"/>
<stop offset="1" stop-color="#FFD1FF"/>
</linearGradient>
<linearGradient id="paint4_linear" x1="143.266" y1="215.669" x2="177.815" y2="215.669" gradientUnits="userSpaceOnUse">
<stop stop-color="#A4E0EA"/>
<stop offset="0.1875" stop-color="#9DC8FF"/>
<stop offset="1" stop-color="#FFD1FF"/>
</linearGradient>
<linearGradient id="paint5_linear" x1="206.016" y1="248.799" x2="224.622" y2="248.799" gradientUnits="userSpaceOnUse">
<stop stop-color="#FFB19B"/>
<stop offset="0.1875" stop-color="#FFB49E"/>
<stop offset="1" stop-color="#FFD1FF"/>
</linearGradient>
<linearGradient id="paint6_linear" x1="183.25" y1="224.403" x2="199.352" y2="224.403" gradientUnits="userSpaceOnUse">
<stop stop-color="#A4E0EA"/>
<stop offset="0.1875" stop-color="#9DC8FF"/>
<stop offset="1" stop-color="#FFD1FF"/>
</linearGradient>
<linearGradient id="paint7_linear" x1="101.783" y1="218.543" x2="157.822" y2="218.543" gradientUnits="userSpaceOnUse">
<stop stop-color="#A4E0EA"/>
<stop offset="0.1875" stop-color="#9DC8FF"/>
<stop offset="1" stop-color="#FFD1FF"/>
</linearGradient>
<linearGradient id="paint8_linear" x1="416.648" y1="193.018" x2="495.41" y2="193.018" gradientUnits="userSpaceOnUse">
<stop stop-color="#FFB19B"/>
<stop offset="0.1875" stop-color="#FFB49E"/>
<stop offset="1" stop-color="#FFD1FF"/>
</linearGradient>
<linearGradient id="paint9_linear" x1="430.066" y1="201.825" x2="488.333" y2="201.825" gradientUnits="userSpaceOnUse">
<stop stop-color="#A4E0EA"/>
<stop offset="0.1875" stop-color="#9DC8FF"/>
<stop offset="1" stop-color="#FFD1FF"/>
</linearGradient>
<linearGradient id="paint10_linear" x1="448.045" y1="178.747" x2="506.333" y2="178.747" gradientUnits="userSpaceOnUse">
<stop stop-color="#A4E0EA"/>
<stop offset="0.1875" stop-color="#9DC8FF"/>
<stop offset="1" stop-color="#FFD1FF"/>
</linearGradient>
<linearGradient id="paint11_linear" x1="458.51" y1="151.264" x2="493.059" y2="151.264" gradientUnits="userSpaceOnUse">
<stop stop-color="#A4E0EA"/>
<stop offset="0.1875" stop-color="#9DC8FF"/>
<stop offset="1" stop-color="#FFD1FF"/>
</linearGradient>
<linearGradient id="paint12_linear" x1="411.703" y1="184.395" x2="430.31" y2="184.395" gradientUnits="userSpaceOnUse">
<stop stop-color="#A4E0EA"/>
<stop offset="0.1875" stop-color="#9DC8FF"/>
<stop offset="1" stop-color="#FFD1FF"/>
</linearGradient>
<linearGradient id="paint13_linear" x1="436.975" y1="159.999" x2="453.077" y2="159.999" gradientUnits="userSpaceOnUse">
<stop stop-color="#A4E0EA"/>
<stop offset="0.1875" stop-color="#9DC8FF"/>
<stop offset="1" stop-color="#FFD1FF"/>
</linearGradient>
<linearGradient id="paint14_linear" x1="478.502" y1="154.139" x2="534.541" y2="154.139" gradientUnits="userSpaceOnUse">
<stop stop-color="#A4E0EA"/>
<stop offset="0.1875" stop-color="#9DC8FF"/>
<stop offset="1" stop-color="#FFD1FF"/>
</linearGradient>
<linearGradient id="paint15_linear" x1="207.998" y1="282.985" x2="491.787" y2="282.985" gradientUnits="userSpaceOnUse">
<stop stop-color="#FFB19B"/>
<stop offset="0.1875" stop-color="#FFB49E"/>
<stop offset="1" stop-color="#FFD1FF"/>
</linearGradient>
<linearGradient id="paint16_linear" x1="50.4805" y1="256.748" x2="248.028" y2="507.269" gradientUnits="userSpaceOnUse">
<stop stop-color="#5BA4E5"/>
<stop offset="1" stop-color="#7384FE"/>
</linearGradient>
<linearGradient id="paint17_linear" x1="150.774" y1="395.418" x2="206.521" y2="309.074" gradientUnits="userSpaceOnUse">
<stop stop-color="#FFB19B"/>
<stop offset="0.1875" stop-color="#FFB49E"/>
<stop offset="1" stop-color="#FFD1FF"/>
</linearGradient>
<linearGradient id="paint18_linear" x1="224.775" y1="453.453" x2="242.658" y2="489.004" gradientUnits="userSpaceOnUse">
<stop stop-color="#5BA4E5"/>
<stop offset="1" stop-color="#7384FE"/>
</linearGradient>
<linearGradient id="paint19_linear" x1="341.24" y1="354.968" x2="369.731" y2="389.262" gradientUnits="userSpaceOnUse">
<stop stop-color="#5BA4E5"/>
<stop offset="1" stop-color="#7384FE"/>
</linearGradient>
<linearGradient id="paint20_linear" x1="319.885" y1="197.927" x2="334.17" y2="212.849" gradientUnits="userSpaceOnUse">
<stop stop-color="#5BA4E5"/>
<stop offset="1" stop-color="#7384FE"/>
</linearGradient>
<linearGradient id="paint21_linear" x1="450.482" y1="229.672" x2="460.556" y2="244.928" gradientUnits="userSpaceOnUse">
<stop stop-color="#5BA4E5"/>
<stop offset="1" stop-color="#7384FE"/>
</linearGradient>
<linearGradient id="paint22_linear" x1="363.248" y1="413.602" x2="483.149" y2="413.602" gradientUnits="userSpaceOnUse">
<stop stop-color="#FFB19B"/>
<stop offset="0.1875" stop-color="#FFB49E"/>
<stop offset="1" stop-color="#FFD1FF"/>
</linearGradient>
<linearGradient id="paint23_linear" x1="431.006" y1="320.994" x2="476.089" y2="320.994" gradientUnits="userSpaceOnUse">
<stop stop-color="#A4E0EA"/>
<stop offset="0.1875" stop-color="#9DC8FF"/>
<stop offset="1" stop-color="#FFD1FF"/>
</linearGradient>
<linearGradient id="paint24_linear" x1="505.338" y1="535.568" x2="541.565" y2="535.568" gradientUnits="userSpaceOnUse">
<stop stop-color="#A1C4FD"/>
<stop offset="1" stop-color="#C2E9FB"/>
</linearGradient>
<linearGradient id="paint25_linear" x1="0.300781" y1="456.874" x2="28.8802" y2="456.874" gradientUnits="userSpaceOnUse">
<stop stop-color="#A1C4FD"/>
<stop offset="1" stop-color="#C2E9FB"/>
</linearGradient>
<linearGradient id="paint26_linear" x1="446.031" y1="15.0334" x2="474.611" y2="15.0334" gradientUnits="userSpaceOnUse">
<stop stop-color="#A1C4FD"/>
<stop offset="1" stop-color="#C2E9FB"/>
</linearGradient>
<linearGradient id="paint27_linear" x1="47.666" y1="74.6747" x2="90.6023" y2="74.6747" gradientUnits="userSpaceOnUse">
<stop stop-color="#A1C4FD"/>
<stop offset="1" stop-color="#C2E9FB"/>
</linearGradient>
<linearGradient id="paint28_linear" x1="538.75" y1="232.733" x2="579.003" y2="232.733" gradientUnits="userSpaceOnUse">
<stop stop-color="#A1C4FD"/>
<stop offset="1" stop-color="#C2E9FB"/>
</linearGradient>
<linearGradient id="paint29_linear" x1="13.7188" y1="156.186" x2="38.2729" y2="156.186" gradientUnits="userSpaceOnUse">
<stop stop-color="#A1C4FD"/>
<stop offset="1" stop-color="#C2E9FB"/>
</linearGradient>
<clipPath id="clip0">
<rect width="578.7" height="559.513" fill="white" transform="translate(0.300781 0.743652)"/>
</clipPath>
</defs>
</svg>
