<svg width="48" height="48" viewBox="0 0 48 48" fill="none" xmlns="http://www.w3.org/2000/svg">
<path d="M12 0C10.35 0 9 1.35 9 3V45C9 46.65 10.35 48 12 48H42C43.65 48 45 46.65 45 45V12L33 0H12Z" fill="#E2E5E7"/>
<path d="M36 12H45L33 0V9C33 10.65 34.35 12 36 12Z" fill="#B0B7BD"/>
<path d="M45 21L36 12H45V21Z" fill="#CAD1D8"/>
<path d="M39 39C39 39.825 38.325 40.5 37.5 40.5H4.5C3.675 40.5 3 39.825 3 39V24C3 23.175 3.675 22.5 4.5 22.5H37.5C38.325 22.5 39 23.175 39 24V39Z" fill="#FE9393"/>
<path d="M9.53906 28.4205C9.53906 28.0245 9.85106 27.5925 10.3536 27.5925H13.1241C14.6841 27.5925 16.0881 28.6365 16.0881 30.6375C16.0881 32.5335 14.6841 33.5895 13.1241 33.5895H11.1216V35.1735C11.1216 35.7015 10.7856 36 10.3536 36C9.95756 36 9.53906 35.7015 9.53906 35.1735V28.4205ZM11.1216 29.103V32.091H13.1241C13.9281 32.091 14.5641 31.3815 14.5641 30.6375C14.5641 29.799 13.9281 29.103 13.1241 29.103H11.1216Z" fill="white"/>
<path d="M18.4374 35.9999C18.0414 35.9999 17.6094 35.7839 17.6094 35.2574V28.4444C17.6094 28.0139 18.0414 27.7004 18.4374 27.7004H21.1839C26.6649 27.7004 26.5449 35.9999 21.2919 35.9999H18.4374ZM19.1934 29.1644V34.5374H21.1839C24.4224 34.5374 24.5664 29.1644 21.1839 29.1644H19.1934Z" fill="white"/>
<path d="M28.4889 29.2605V31.167H31.5474C31.9794 31.167 32.4114 31.599 32.4114 32.0175C32.4114 32.4135 31.9794 32.7375 31.5474 32.7375H28.4889V35.256C28.4889 35.676 28.1904 35.9985 27.7704 35.9985C27.2424 35.9985 26.9199 35.676 26.9199 35.256V28.443C26.9199 28.0125 27.2439 27.699 27.7704 27.699H31.9809C32.5089 27.699 32.8209 28.0125 32.8209 28.443C32.8209 28.827 32.5089 29.259 31.9809 29.259H28.4889V29.2605Z" fill="white"/>
<path d="M37.5 40.5H9V42H37.5C38.325 42 39 41.325 39 40.5V39C39 39.825 38.325 40.5 37.5 40.5Z" fill="#CAD1D8"/>
</svg>
