<svg width="430" height="1004" viewBox="0 0 430 1004" fill="none" xmlns="http://www.w3.org/2000/svg">
<path fill-rule="evenodd" clip-rule="evenodd" d="M430 502L429.999 818.74L429.996 841.472L429.99 855.516L429.983 865.83L429.973 874.034L429.961 880.872L429.947 886.749L429.931 891.912L429.913 896.52L429.892 900.686L429.87 904.49L429.845 907.992L429.818 911.238L429.789 914.263L429.757 917.097L429.724 919.763L429.688 922.28L429.65 924.665L429.61 926.93L429.568 929.087L429.523 931.147L429.476 933.117L429.427 935.005L429.376 936.817L429.322 938.56L429.266 940.238L429.208 941.857L429.148 943.418L429.085 944.928L429.02 946.388L428.952 947.802L428.883 949.172L428.811 950.501L428.736 951.792L428.659 953.045L428.58 954.264L428.499 955.449L428.415 956.602L428.328 957.726L428.239 958.82L428.148 959.887L428.054 960.927L427.958 961.943L427.859 962.934L427.757 963.901L427.653 964.846L427.546 965.77L427.437 966.673L427.325 967.555L427.211 968.418L427.093 969.263L426.973 970.089L426.851 970.898L426.725 971.69L426.597 972.466L426.466 973.225L426.332 973.969L426.195 974.698L426.055 975.412L425.912 976.112L425.766 976.798L425.617 977.471L425.466 978.13L425.311 978.777L425.152 979.411L424.991 980.033L424.826 980.643L424.659 981.241L424.487 981.828L424.313 982.404L424.135 982.969L423.953 983.523L423.768 984.067L423.579 984.601L423.387 985.124L423.191 985.638L422.991 986.142L422.788 986.637L422.58 987.122L422.369 987.598L422.153 988.065L421.934 988.524L421.71 988.973L421.481 989.414L421.249 989.847L421.012 990.272L420.77 990.688L420.524 991.096L420.273 991.497L420.017 991.889L419.756 992.274L419.49 992.652L419.219 993.021L418.943 993.384L418.661 993.739L418.373 994.087L418.08 994.428L417.78 994.762L417.475 995.089L417.163 995.409L416.845 995.723L416.52 996.03L416.189 996.33L415.85 996.623L415.504 996.911L415.151 997.191L414.79 997.466L414.421 997.734L414.044 997.995L413.658 998.251L413.263 998.501L412.859 998.744L412.445 998.982L412.022 999.213L411.588 999.439L411.143 999.658L410.687 999.872L410.219 1000.08L409.739 1000.28L409.246 1000.48L408.74 1000.67L408.219 1000.86L407.683 1001.04L407.132 1001.21L406.564 1001.38L405.979 1001.54L405.374 1001.7L404.751 1001.85L404.106 1002L403.439 1002.14L402.748 1002.28L402.031 1002.41L401.287 1002.53L400.513 1002.65L399.707 1002.77L398.866 1002.88L397.988 1002.98L397.067 1003.08L396.101 1003.18L395.084 1003.26L394.011 1003.35L392.874 1003.43L391.666 1003.5L390.378 1003.57L388.996 1003.63L387.505 1003.69L385.887 1003.74L384.116 1003.79L382.159 1003.84L379.969 1003.87L377.48 1003.91L374.589 1003.94L371.131 1003.96L366.803 1003.98L360.96 1003.99L351.699 1004L320.329 1004L80.4654 1004L70.1981 1003.99L64.0003 1003.98L59.4894 1003.96L55.9181 1003.94L52.9504 1003.91L50.4049 1003.88L48.1725 1003.84L46.1818 1003.8L44.3839 1003.75L42.7434 1003.7L41.2341 1003.64L39.8359 1003.58L38.5331 1003.51L37.3132 1003.44L36.1659 1003.36L35.083 1003.28L34.0575 1003.19L33.0835 1003.1L32.156 1003L31.2708 1002.89L30.4241 1002.79L29.6128 1002.67L28.834 1002.55L28.0853 1002.43L27.3644 1002.3L26.6694 1002.16L25.9986 1002.02L25.3505 1001.88L24.7234 1001.72L24.1163 1001.57L23.528 1001.4L22.9573 1001.24L22.4034 1001.06L21.8654 1000.88L21.3424 1000.7L20.8337 1000.51L20.3386 1000.31L19.8565 1000.11L19.3867 999.906L18.9289 999.693L18.4824 999.474L18.0467 999.249L17.6215 999.019L17.2064 998.782L16.8008 998.54L16.4046 998.291L16.0172 998.037L15.6385 997.776L15.2682 997.509L14.9059 997.235L14.5513 996.956L14.2043 996.67L13.8646 996.377L13.5319 996.078L13.2061 995.772L12.887 995.46L12.5743 995.141L12.2679 994.815L11.9676 994.482L11.6733 994.142L11.3848 993.795L11.1019 993.441L10.8245 993.08L10.5525 992.711L10.2857 992.335L10.024 991.951L9.76733 991.56L9.51555 991.161L9.26855 990.753L9.02622 990.339L8.78847 989.915L8.55521 989.484L8.32633 989.044L8.10176 988.596L7.88141 988.139L7.66521 987.673L7.45307 987.198L7.24492 986.715L7.04068 986.222L6.8403 985.719L6.64371 985.207L6.45083 984.685L6.26162 984.153L6.07601 983.611L5.89394 983.058L5.71536 982.495L5.54023 981.921L5.36848 981.336L5.20006 980.739L5.03494 980.131L4.87306 979.511L4.71439 978.879L4.55888 978.234L4.40648 977.577L4.25716 976.906L4.11088 976.222L3.96761 975.524L3.8273 974.812L3.68992 974.086L3.55545 973.344L3.42384 972.588L3.29508 971.815L3.16911 971.025L3.04593 970.219L2.92549 969.396L2.80778 968.554L2.69276 967.694L2.58042 966.814L2.47072 965.915L2.36364 964.995L2.25917 964.053L2.15727 963.089L2.05793 962.102L1.96112 961.091L1.86683 960.054L1.77504 958.992L1.68572 957.902L1.59887 956.783L1.51446 955.635L1.43247 954.455L1.3529 953.242L1.27572 951.994L1.20093 950.709L1.12849 949.387L1.05842 948.023L0.990676 946.616L0.925263 945.164L0.862164 943.662L0.801368 942.109L0.742863 940.5L0.686639 938.832L0.632686 937.1L0.580993 935.298L0.531552 933.423L0.484354 931.466L0.43939 929.422L0.396653 927.28L0.356134 925.033L0.317827 922.669L0.281724 920.174L0.24782 917.532L0.216109 914.727L0.186585 911.733L0.159243 908.525L0.134079 905.067L0.111087 901.314L0.0902642 897.211L0.071607 892.679L0.055112 887.614L0.0407765 881.865L0.0285979 875.201L0.0185742 867.252L0.0107038 857.349L0.00498517 844.082L0.00141745 823.456L0 765.582L0.000732587 190.707L0.00361533 165.333L0.00864873 150.406L0.0158336 139.645L0.0251713 131.167L0.0366632 124.144L0.0503114 118.133L0.0661183 112.87L0.0840864 108.181L0.104219 103.951L0.126519 100.094L0.150991 96.5473L0.177639 93.2635L0.206468 90.205L0.237482 87.3422L0.270686 84.6508L0.306088 82.111L0.343692 79.7064L0.383506 77.4231L0.425536 75.2492L0.46979 73.1748L0.516275 71.191L0.565001 69.2903L0.615975 67.4661L0.669207 65.7125L0.724707 64.0244L0.782484 62.3971L0.842549 60.8265L0.904913 59.3089L0.969588 57.8411L1.03659 56.42L1.10592 55.0429L1.1776 53.7073L1.25164 52.4109L1.32806 51.1518L1.40687 49.9279L1.48808 48.7375L1.57172 47.579L1.65779 46.451L1.74632 45.352L1.83732 44.2808L1.93081 43.2362L2.02682 42.217L2.12535 41.2223L2.22643 40.2511L2.33008 39.3025L2.43633 38.3755L2.54519 37.4696L2.65669 36.5838L2.77085 35.7175L2.8877 34.87L3.00727 34.0408L3.12957 33.2292L3.25465 32.4346L3.38252 31.6566L3.51322 30.8947L3.64678 30.1483L3.78322 29.4171L3.92259 28.7005L4.06492 27.9983L4.21024 27.3099L4.35858 26.6352L4.51 25.9736L4.66451 25.3249L4.82218 24.6888L4.98303 24.0649L5.14711 23.453L5.31447 22.8528L5.48515 22.264L5.65921 21.6864L5.83668 21.1198L6.01763 20.5638L6.20211 20.0183L6.39017 19.4831L6.58187 18.958L6.77727 18.4427L6.97644 17.9371L7.17944 17.4411L7.38633 16.9543L7.5972 16.4767L7.8121 16.0082L8.03112 15.5484L8.25434 15.0974L8.48183 14.6549L8.71369 14.2209L8.95 13.7951L9.19086 13.3775L9.43636 12.968L9.68661 12.5663L9.94171 12.1725L10.2018 11.7863L10.4669 11.4078L10.7373 11.0367L11.0129 10.673L11.294 10.3166L11.5808 9.96739L11.8732 9.62529L12.1716 9.2902L12.476 8.96205L12.7867 8.64076L13.1038 8.32624L13.4274 8.01843L13.7579 7.71724L14.0953 7.42261L14.44 7.13448L14.7921 6.85277L15.1519 6.57742L15.5197 6.30837L15.8957 6.04556L16.2802 5.78893L16.6736 5.53844L17.0761 5.29402L17.4882 5.05562L17.9102 4.82319L18.3425 4.59669L18.7855 4.37607L19.2396 4.16128L19.7055 3.95228L20.1836 3.74903L20.6745 3.55149L21.1788 3.35962L21.6972 3.17338L22.2304 2.99273L22.7791 2.81765L23.3444 2.64809L23.927 2.48403L24.528 2.32543L25.1485 2.17227L25.7898 2.02451L26.4532 1.88213L27.1403 1.7451L27.8527 1.6134L28.5924 1.48701L29.3613 1.36589L30.162 1.25003L30.9971 1.13942L31.8697 1.03402L32.7832 0.933815L33.7419 0.838796L34.7505 0.748942L35.8144 0.664238L36.9403 0.584668L38.1361 0.510219L39.4112 0.440878L40.7775 0.376632L42.2495 0.317471L43.8456 0.263385L45.5901 0.214363L47.5149 0.170398L49.6638 0.131483L52.1 0.0976095L54.9179 0.0687731L58.2705 0.0449686L62.4295 0.0261917L67.959 0.0124394L76.4071 0.00370935L97.4399 0L347.003 0.00131074L358.554 0.00764181L365.155 0.0189943L369.867 0.03537L373.56 0.0567719L376.609 0.0832036L379.213 0.11467L381.49 0.151175L383.515 0.192726L385.341 0.239331L387.005 0.290996L388.533 0.347732L389.948 0.409546L391.265 0.476452L392.498 0.548459L393.656 0.62558L394.748 0.707829L395.783 0.795221L396.765 0.88777L397.699 0.985492L398.591 1.08841L399.443 1.19653L400.26 1.30988L401.044 1.42848L401.797 1.55235L402.523 1.68151L403.221 1.81599L403.896 1.95581L404.548 2.10099L405.178 2.25157L405.788 2.40757L406.379 2.56902L406.953 2.73595L407.509 2.90839L408.05 3.08637L408.575 3.26993L409.086 3.45911L409.583 3.65394L410.068 3.85446L410.539 4.0607L410.999 4.27272L411.447 4.49055L411.885 4.71424L412.311 4.94382L412.728 5.17936L413.135 5.4209L413.533 5.66849L413.922 5.92218L414.302 6.18202L414.673 6.44808L415.037 6.72041L415.393 6.99908L415.741 7.28414L416.082 7.57565L416.415 7.8737L416.742 8.17834L417.063 8.48964L417.376 8.80769L417.684 9.13255L417.985 9.46432L418.28 9.80306L418.57 10.1489L418.853 10.5018L419.132 10.862L419.405 11.2296L419.672 11.6045L419.935 11.987L420.192 12.3772L420.445 12.7751L420.692 13.1809L420.935 13.5946L421.174 14.0164L421.408 14.4465L421.637 14.8849L421.863 15.3319L422.084 15.7874L422.301 16.2517L422.513 16.725L422.722 17.2073L422.927 17.6989L423.128 18.2L423.325 18.7106L423.519 19.231L423.708 19.7613L423.895 20.3019L424.077 20.8528L424.256 21.4143L424.432 21.9867L424.604 22.5701L424.773 23.1648L424.939 23.7711L425.101 24.3892L425.26 25.0194L425.417 25.6621L425.569 26.3175L425.719 26.9859L425.866 27.6677L426.01 28.3632L426.151 29.0729L426.288 29.7971L426.423 30.5361L426.555 31.2906L426.685 32.0609L426.811 32.8475L426.935 33.6509L427.055 34.4716L427.174 35.3103L427.289 36.1675L427.402 37.0439L427.512 37.9401L427.619 38.8569L427.724 39.7951L427.827 40.7554L427.926 41.7388L428.024 42.7461L428.118 43.7785L428.21 44.8368L428.3 45.9224L428.387 47.0364L428.472 48.1801L428.555 49.355L428.635 50.5627L428.712 51.8048L428.787 53.0831L428.86 54.3997L428.931 55.7567L428.999 57.1565L429.064 58.6016L429.128 60.095L429.189 61.6398L429.248 63.2395L429.305 64.8981L429.359 66.6198L429.411 68.4096L429.461 70.2729L429.508 72.2161L429.554 74.2462L429.597 76.3714L429.638 78.6011L429.676 80.9461L429.713 83.4194L429.747 86.0361L429.779 88.8144L429.809 91.776L429.836 94.948L429.862 98.3638L429.885 102.066L429.907 106.109L429.926 110.566L429.942 115.537L429.957 121.165L429.97 127.663L429.98 135.373L429.988 144.899L429.994 157.475L429.998 176.38L430 219.5L430 502Z" fill="white"/>
</svg>
