<svg width="894" height="1004" viewBox="0 0 894 1004" fill="none" xmlns="http://www.w3.org/2000/svg">
<path fill-rule="evenodd" clip-rule="evenodd" d="M894 502L893.998 871.292L893.994 888.756L893.987 899.351L893.976 907.042L893.963 913.108L893.946 918.131L893.927 922.423L893.905 926.175L893.879 929.511L893.851 932.515L893.819 935.25L893.785 937.759L893.747 940.078L893.707 942.235L893.664 944.25L893.617 946.141L893.567 947.924L893.515 949.609L893.459 951.207L893.4 952.726L893.339 954.174L893.273 955.556L893.205 956.88L893.134 958.148L893.06 959.366L892.982 960.538L892.902 961.666L892.818 962.753L892.731 963.803L892.64 964.817L892.547 965.798L892.45 966.748L892.35 967.669L892.247 968.562L892.14 969.428L892.03 970.269L891.917 971.087L891.8 971.882L891.68 972.656L891.556 973.409L891.429 974.143L891.299 974.858L891.165 975.555L891.027 976.235L890.886 976.898L890.741 977.546L890.593 978.178L890.441 978.796L890.285 979.4L890.125 979.99L889.962 980.566L889.795 981.13L889.624 981.682L889.449 982.222L889.27 982.75L889.088 983.268L888.901 983.774L888.71 984.27L888.515 984.756L888.316 985.231L888.112 985.698L887.905 986.154L887.693 986.602L887.476 987.041L887.255 987.471L887.03 987.892L886.8 988.305L886.565 988.711L886.326 989.108L886.082 989.498L885.833 989.88L885.579 990.254L885.32 990.622L885.056 990.982L884.787 991.336L884.512 991.683L884.232 992.023L883.947 992.357L883.656 992.684L883.359 993.005L883.057 993.32L882.748 993.629L882.434 993.932L882.114 994.229L881.787 994.52L881.454 994.806L881.114 995.086L880.767 995.36L880.414 995.629L880.054 995.893L879.687 996.152L879.312 996.406L878.93 996.654L878.539 996.897L878.142 997.136L877.736 997.37L877.321 997.598L876.898 997.822L876.466 998.042L876.026 998.257L875.576 998.467L875.116 998.672L874.646 998.873L874.166 999.07L873.676 999.263L873.174 999.451L872.661 999.634L872.137 999.814L871.601 999.989L871.052 1000.16L870.49 1000.33L869.914 1000.49L869.324 1000.65L868.72 1000.8L868.101 1000.95L867.465 1001.1L866.813 1001.24L866.144 1001.38L865.457 1001.52L864.75 1001.65L864.024 1001.78L863.276 1001.9L862.507 1002.02L861.714 1002.14L860.896 1002.25L860.052 1002.36L859.181 1002.46L858.28 1002.57L857.348 1002.66L856.382 1002.76L855.381 1002.85L854.341 1002.94L853.26 1003.02L852.134 1003.1L850.96 1003.18L849.733 1003.25L848.448 1003.32L847.101 1003.39L845.684 1003.45L844.19 1003.51L842.61 1003.57L840.934 1003.62L839.149 1003.67L837.24 1003.71L835.187 1003.76L832.967 1003.79L830.549 1003.83L827.895 1003.86L824.951 1003.89L821.643 1003.92L817.864 1003.94L813.452 1003.96L808.139 1003.97L801.435 1003.98L792.28 1003.99L777.516 1004L724.788 1004L119.982 1004L103.549 1003.99L93.8174 1003.99L86.8181 1003.97L81.3246 1003.96L76.7908 1003.94L72.9241 1003.92L69.5492 1003.89L66.5526 1003.87L63.8561 1003.83L61.404 1003.8L59.1549 1003.76L57.0772 1003.72L55.1462 1003.67L53.3424 1003.63L51.6497 1003.57L50.0554 1003.52L48.5484 1003.46L47.1198 1003.4L45.7618 1003.33L44.4678 1003.26L43.232 1003.19L42.0497 1003.11L40.9164 1003.03L39.8283 1002.95L38.7821 1002.86L37.7748 1002.77L36.8036 1002.68L35.8663 1002.58L34.9606 1002.48L34.0846 1002.38L33.2366 1002.27L32.4149 1002.16L31.6181 1002.04L30.8448 1001.92L30.0939 1001.8L29.3641 1001.67L28.6544 1001.54L27.964 1001.41L27.2919 1001.27L26.6372 1001.12L25.9992 1000.98L25.3773 1000.83L24.7707 1000.67L24.1788 1000.52L23.601 1000.35L23.0369 1000.19L22.4858 1000.02L21.9474 999.842L21.4211 999.663L20.9066 999.48L20.4034 999.293L19.9112 999.101L19.4296 998.905L18.9583 998.705L18.497 998.5L18.0453 998.29L17.603 998.076L17.1698 997.858L16.7455 997.634L16.3298 997.406L15.9225 997.173L15.5233 996.936L15.132 996.693L14.7485 996.445L14.3726 996.193L14.004 995.935L13.6426 995.672L13.2882 995.403L12.9408 995.13L12.6 994.851L12.2658 994.566L11.938 994.275L11.6165 993.979L11.3012 993.677L10.9919 993.37L10.6885 993.056L10.3909 992.736L10.099 992.409L9.81277 992.077L9.53198 991.738L9.25658 991.392L8.98647 991.039L8.72158 990.68L8.4618 990.313L8.20706 989.94L7.95728 989.559L7.71237 989.171L7.47227 988.774L7.2369 988.37L7.00619 987.958L6.78007 987.538L6.55848 987.11L6.34136 986.672L6.12864 986.226L5.92027 985.771L5.71619 985.306L5.51634 984.832L5.32068 984.348L5.12915 983.854L4.9417 983.349L4.75829 982.834L4.57887 982.307L4.4034 981.769L4.23183 981.219L4.06412 980.657L3.90023 980.082L3.74013 979.494L3.58377 978.893L3.43112 978.278L3.28215 977.648L3.13682 977.003L2.9951 976.342L2.85695 975.664L2.72235 974.97L2.59127 974.258L2.46368 973.527L2.33956 972.777L2.21886 972.007L2.10158 971.215L1.98769 970.401L1.87716 969.564L1.76997 968.701L1.66609 967.813L1.56552 966.897L1.46822 965.952L1.37418 964.976L1.28338 963.967L1.1958 962.923L1.11142 961.841L1.03024 960.72L0.952221 959.556L0.877362 958.345L0.805647 957.085L0.73706 955.771L0.67159 954.398L0.609223 952.961L0.549948 951.454L0.493754 949.869L0.440631 948.198L0.390568 946.432L0.343557 944.559L0.299588 942.565L0.258653 940.432L0.220746 938.14L0.185858 935.663L0.153985 932.968L0.125119 930.01L0.0992561 926.732L0.0763911 923.053L0.0565199 918.857L0.0396389 913.968L0.0257451 908.097L0.0148361 900.723L0.00690971 890.736L0.00196465 874.948L0 828.722L0.0010154 136.954L0.00501104 117.377L0.0119876 106.091L0.0219464 98.0531L0.0348892 91.7771L0.0508184 86.614L0.0697367 82.2203L0.0916477 78.3916L0.116555 74.996L0.144464 71.9434L0.175379 69.1697L0.209306 66.6271L0.24625 64.2795L0.28622 62.0987L0.329221 60.0622L0.375263 58.152L0.424353 56.3531L0.4765 54.6533L0.531715 53.0422L0.590007 51.5111L0.651388 50.0524L0.715868 48.6596L0.783461 47.3272L0.854178 46.0502L0.928034 44.8244L1.00504 43.6458L1.08522 42.5112L1.16858 41.4174L1.25513 40.3618L1.34491 39.3419L1.43791 38.3556L1.53417 37.4008L1.6337 36.4757L1.73652 35.5787L1.84265 34.7082L1.95212 33.8629L2.06494 33.0415L2.18114 32.2428L2.30074 31.4657L2.42377 30.7092L2.55025 29.9725L2.68022 29.2546L2.81369 28.5547L2.95071 27.8721L3.09129 27.2061L3.23547 26.556L3.38327 25.9213L3.53475 25.3012L3.68992 24.6954L3.84883 24.1034L4.01151 23.5245L4.17799 22.9584L4.34833 22.4047L4.52255 21.8629L4.70071 21.3327L4.88285 20.8137L5.069 20.3056L5.25922 19.8081L5.45356 19.3208L5.65207 18.8435L5.8548 18.3758L6.0618 17.9176L6.27312 17.4686L6.48884 17.0285L6.709 16.5971L6.93367 16.1743L7.16291 15.7597L7.39679 15.3532L7.63538 14.9546L7.87874 14.5638L8.12697 14.1805L8.38012 13.8045L8.63828 13.4359L8.90154 13.0742L9.16997 12.7196L9.44367 12.3717L9.72274 12.0305L10.0073 11.6958L10.2973 11.3675L10.5931 11.0455L10.8946 10.7296L11.202 10.4199L11.5154 10.1161L11.8349 9.81813L12.1607 9.52593L12.4928 9.2394L12.8315 8.95845L13.1768 8.68297L13.529 8.4129L13.8881 8.14815L14.2544 7.88864L14.628 7.63429L15.009 7.38503L15.3978 7.1408L15.7944 6.90151L16.1992 6.66712L16.6122 6.43754L17.0337 6.21273L17.4641 5.99262L17.9034 5.77716L18.3521 5.56629L18.8103 5.35995L19.2784 5.1581L19.7567 4.96068L20.2455 4.76766L20.7451 4.57897L21.256 4.39458L21.7785 4.21444L22.313 4.03851L22.86 3.86675L23.4199 3.69912L23.9932 3.53558L24.5806 3.37609L25.1824 3.22063L25.7994 3.06916L26.4322 2.92164L27.0815 2.77804L27.748 2.63833L28.4325 2.50248L29.1359 2.37046L29.8592 2.24225L30.6033 2.11782L31.3693 1.99714L32.1585 1.88019L32.9721 1.76695L33.8116 1.65739L34.6784 1.55149L35.5745 1.44922L36.5015 1.35058L37.4616 1.25554L38.4572 1.16408L39.4907 1.07618L40.5651 0.991827L41.6836 0.911007L42.8499 0.833702L44.0681 0.759898L45.3429 0.68958L46.6799 0.622736L48.0852 0.559353L49.5663 0.499419L51.1318 0.442923L52.7918 0.389855L54.5587 0.340204L56.4472 0.293962L58.4758 0.25112L60.6673 0.21167L63.0507 0.175605L65.6641 0.142919L68.5579 0.113605L71.8021 0.0876589L75.4967 0.0650751L79.7935 0.0458498L84.9384 0.0299795L91.3722 0.0174613L100.018 0.00829299L113.439 0.0024729L148.103 0L769.901 0.00087383L788.474 0.00509455L798.865 0.0126629L806.188 0.0235803L811.875 0.0378487L816.537 0.0554706L820.497 0.0764493L823.941 0.100788L826.992 0.128493L829.732 0.159567L832.22 0.194016L834.499 0.231848L836.602 0.273068L838.555 0.317685L840.378 0.365706L842.088 0.41714L843.697 0.471997L845.217 0.530287L846.658 0.592021L848.026 0.65721L849.33 0.725866L850.575 0.798003L851.765 0.873634L852.906 0.952772L854.001 1.03543L855.054 1.12164L856.067 1.21139L857.044 1.30472L857.987 1.40164L858.897 1.50217L859.778 1.60633L860.63 1.71414L861.456 1.82563L862.257 1.9408L863.033 2.0597L863.788 2.18233L864.521 2.30873L865.234 2.43893L865.927 2.57294L866.602 2.7108L867.26 2.85254L867.9 2.99818L868.525 3.14776L869.134 3.30132L869.728 3.45887L870.308 3.62047L870.874 3.78614L871.427 3.95592L871.968 4.12985L872.496 4.30798L873.012 4.49033L873.517 4.67696L874.011 4.86791L874.494 5.06323L874.967 5.26295L875.43 5.46714L875.883 5.67584L876.327 5.8891L876.762 6.10698L877.187 6.32954L877.604 6.55683L878.013 6.78891L878.414 7.02585L878.806 7.26771L879.191 7.51456L879.568 7.76647L879.938 8.02351L880.3 8.28575L880.656 8.55327L881.004 8.82615L881.346 9.10447L881.681 9.38833L882.01 9.67781L882.333 9.97299L882.649 10.274L882.959 10.5809L883.263 10.8938L883.562 11.2129L883.855 11.5381L884.142 11.8697L884.424 12.2078L884.7 12.5525L884.971 12.9039L885.237 13.2622L885.497 13.6275L885.753 13.9999L886.003 14.3797L886.249 14.7669L886.49 15.1618L886.726 15.5645L886.957 15.9752L887.184 16.3941L887.406 16.8213L887.624 17.2572L887.838 17.702L888.047 18.1557L888.252 18.6188L888.452 19.0915L888.648 19.574L888.841 20.0666L889.029 20.5696L889.213 21.0833L889.393 21.6081L889.569 22.1443L889.741 22.6923L889.909 23.2524L890.074 23.8252L890.235 24.4109L890.391 25.0101L890.545 25.6232L890.694 26.2509L890.84 26.8935L890.982 27.5519L891.121 28.2264L891.256 28.918L891.388 29.6272L891.516 30.3548L891.641 31.1017L891.762 31.8688L891.88 32.6571L891.994 33.4675L892.105 34.3013L892.213 35.1596L892.318 36.0437L892.419 36.9552L892.516 37.8956L892.611 38.8666L892.702 39.8702L892.79 40.9084L892.875 41.9837L892.957 43.0984L893.035 44.2556L893.111 45.4584L893.183 46.7104L893.252 48.0158L893.318 49.3791L893.381 50.8055L893.441 52.3012L893.497 53.873L893.551 55.5293L893.602 57.2794L893.649 59.1347L893.694 61.1089L893.735 63.2182L893.773 65.483L893.809 67.9285L893.841 70.5866L893.87 73.4991L893.897 76.7214L893.92 80.3298L893.94 84.4335L893.958 89.1969L893.972 94.8849L893.984 101.968L893.992 111.415L893.997 125.837L894 159.826L894 502Z" fill="white"/>
</svg>
