<svg width="36" height="34" viewBox="0 0 36 34" fill="none" xmlns="http://www.w3.org/2000/svg">
<path d="M32.4432 0.521004L11.958 0.479004C9.996 0.479004 8.4 2.075 8.4 4.037V7.1114L3.558 7.1216C1.596 7.1216 0 8.7176 0 10.6796V23.3642C0 25.3262 1.596 26.9216 3.558 26.9216H7.2V32.9216C7.2 33.1694 7.3524 33.392 7.584 33.4814C7.6542 33.5084 7.7274 33.5216 7.8 33.5216C7.9656 33.5216 8.1282 33.4526 8.244 33.3254L14.0664 26.9204L24.042 26.8796C26.004 26.8796 27.6 25.2836 27.6 23.3222V23.2544L30.756 26.726C30.8718 26.8532 31.0344 26.9222 31.2 26.9222C31.2726 26.9222 31.3458 26.909 31.416 26.882C31.6476 26.7926 31.8 26.57 31.8 26.3222V20.3222H32.442C34.404 20.3222 36 18.7262 36 16.7648V4.079C36 2.1176 34.4046 0.521604 32.4432 0.521004ZM26.4 23.3216C26.4 24.6218 25.3422 25.679 24.0396 25.679L13.7976 25.721C13.6296 25.7216 13.4688 25.793 13.356 25.9172L8.4 31.3694V26.321C8.4 25.9898 8.1318 25.721 7.8 25.721H3.558C2.2578 25.721 1.2 24.6632 1.2 23.3636V10.679C1.2 9.3788 2.2578 8.321 3.5592 8.321L9 8.3096C9.0006 8.3096 9.0006 8.3096 9.0012 8.3096L24.042 8.2784C25.3422 8.2784 26.4 9.3362 26.4 10.6364V21.701V23.3216ZM34.8 16.7636C34.8 18.0638 33.7422 19.121 32.442 19.121H31.2C30.8682 19.121 30.6 19.3898 30.6 19.721V24.7694L27.6 21.4694V10.637C27.6 8.675 26.004 7.079 24.0408 7.079L9.6 7.1084V4.0364C9.6 2.7362 10.6578 1.6784 11.9568 1.6784L32.4414 1.7204C32.442 1.7204 32.442 1.7204 32.4426 1.7204C33.7428 1.7204 34.8006 2.7782 34.8006 4.0784V16.7636H34.8Z" fill="#68A9FE"/>
</svg>
