<svg width="318" height="318" viewBox="0 0 318 318" fill="none" xmlns="http://www.w3.org/2000/svg">
<g filter="url(#filter0_d)">
<path fill-rule="evenodd" clip-rule="evenodd" d="M289 155L288.997 175.603L288.99 182.186L288.977 186.972L288.958 190.869L288.935 194.215L288.906 197.179L288.872 199.858L288.833 202.314L288.789 204.591L288.74 206.719L288.685 208.722L288.625 210.616L288.56 212.416L288.49 214.132L288.414 215.775L288.333 217.352L288.247 218.868L288.156 220.33L288.059 221.742L287.957 223.107L287.85 224.431L287.737 225.714L287.62 226.961L287.496 228.174L287.368 229.354L287.234 230.504L287.095 231.625L286.951 232.719L286.801 233.788L286.646 234.832L286.485 235.853L286.319 236.852L286.147 237.829L285.97 238.787L285.788 239.724L285.6 240.644L285.407 241.545L285.208 242.429L285.004 243.296L284.794 244.148L284.578 244.983L284.357 245.804L284.13 246.61L283.898 247.402L283.66 248.18L283.416 248.945L283.167 249.697L282.911 250.437L282.651 251.164L282.384 251.879L282.111 252.583L281.833 253.275L281.549 253.956L281.258 254.626L280.962 255.286L280.66 255.935L280.352 256.574L280.038 257.203L279.718 257.822L279.391 258.431L279.059 259.031L278.72 259.622L278.375 260.204L278.024 260.777L277.666 261.34L277.302 261.896L276.932 262.442L276.555 262.981L276.171 263.511L275.781 264.032L275.384 264.546L274.981 265.052L274.57 265.55L274.153 266.04L273.729 266.523L273.298 266.998L272.86 267.466L272.415 267.926L271.962 268.379L271.503 268.825L271.036 269.263L270.561 269.695L270.079 270.12L269.59 270.537L269.092 270.948L268.587 271.352L268.074 271.749L267.553 272.14L267.023 272.524L266.486 272.902L265.94 273.273L265.385 273.637L264.822 273.995L264.25 274.347L263.669 274.693L263.079 275.032L262.48 275.365L261.871 275.692L261.252 276.013L260.624 276.327L259.986 276.636L259.338 276.938L258.679 277.235L258.01 277.526L257.33 277.81L256.639 278.089L255.936 278.362L255.222 278.629L254.495 278.891L253.757 279.146L253.006 279.396L252.242 279.641L251.465 279.879L250.674 280.112L249.869 280.339L249.049 280.561L248.215 280.777L247.365 280.987L246.499 281.192L245.616 281.391L244.716 281.585L243.798 281.773L242.862 281.956L241.906 282.133L240.93 282.305L239.933 282.472L238.914 282.633L237.872 282.789L236.806 282.939L235.713 283.084L234.594 283.223L233.447 283.358L232.269 283.486L231.059 283.61L229.815 283.728L228.534 283.841L227.214 283.949L225.852 284.051L224.444 284.148L222.987 284.24L221.475 284.326L219.903 284.408L218.266 284.484L216.555 284.555L214.762 284.62L212.876 284.68L210.883 284.736L208.766 284.785L206.502 284.83L204.061 284.87L201.402 284.904L198.464 284.933L195.153 284.957L191.308 284.975L186.614 284.989L180.245 284.997L166.488 285L139.069 284.998L132.252 284.99L127.37 284.978L123.418 284.96L120.035 284.937L117.045 284.909L114.346 284.875L111.874 284.837L109.584 284.793L107.445 284.744L105.433 284.69L103.531 284.63L101.724 284.565L100.001 284.495L98.3528 284.42L96.7713 284.34L95.2503 284.254L93.7844 284.163L92.3688 284.067L90.9995 283.965L89.673 283.859L88.3862 283.746L87.1364 283.629L85.9213 283.506L84.7385 283.378L83.5862 283.245L82.4628 283.106L81.3665 282.962L80.296 282.813L79.25 282.658L78.2273 282.498L77.2269 282.332L76.2476 282.161L75.2888 281.985L74.3494 281.803L73.4287 281.615L72.526 281.422L71.6407 281.224L70.772 281.02L69.9195 280.81L69.0825 280.595L68.2607 280.375L67.4534 280.148L66.6603 279.916L65.8809 279.679L65.1148 279.436L64.3617 279.187L63.6213 278.932L62.8931 278.671L62.177 278.405L61.4725 278.133L60.7794 277.855L60.0975 277.571L59.4265 277.282L58.7661 276.986L58.1162 276.684L57.4765 276.377L56.8468 276.063L56.2269 275.743L55.6166 275.417L55.0158 275.085L54.4243 274.747L53.8419 274.403L53.2685 274.052L52.7039 273.695L52.148 273.331L51.6007 272.961L51.0617 272.585L50.5311 272.202L50.0086 271.812L49.4942 271.416L48.9877 271.013L48.4891 270.603L47.9982 270.187L47.5149 269.763L47.0392 269.333L46.571 268.895L46.1102 268.45L45.6566 267.999L45.2103 267.54L44.7711 267.073L44.3389 266.599L43.9138 266.118L43.4955 265.629L43.0842 265.132L42.6796 264.627L42.2817 264.115L41.8905 263.594L41.5059 263.066L41.1279 262.529L40.7564 261.983L40.3913 261.429L40.0327 260.867L39.6803 260.296L39.3343 259.715L38.9946 259.126L38.661 258.528L38.3337 257.92L38.0125 257.302L37.6973 256.675L37.3883 256.037L37.0852 255.39L36.7881 254.732L36.497 254.064L36.2118 253.384L35.9325 252.694L35.659 251.992L35.3914 251.279L35.1295 250.554L34.8735 249.816L34.6231 249.066L34.3785 248.303L34.1396 247.527L33.9063 246.737L33.6787 245.933L33.4567 245.115L33.2402 244.282L33.0294 243.433L32.8241 242.568L32.6244 241.687L32.4301 240.788L32.2414 239.872L32.0581 238.937L31.8803 237.983L31.708 237.009L31.541 236.013L31.3795 234.996L31.2234 233.956L31.0727 232.891L30.9274 231.801L30.7874 230.684L30.6528 229.539L30.5235 228.364L30.3995 227.157L30.2809 225.915L30.1675 224.638L30.0595 223.321L29.9567 221.962L29.8592 220.558L29.767 219.104L29.68 217.597L29.5983 216.031L29.5219 214.399L29.4507 212.694L29.3847 210.908L29.324 209.03L29.2685 207.046L29.2182 204.939L29.1731 202.688L29.1332 200.263L29.0986 197.623L29.0692 194.71L29.0449 191.433L29.0259 187.64L29.0121 183.032L29.0034 176.858L29 164.881L29.0018 135.778L29.0087 128.701L29.0209 123.718L29.0383 119.709L29.0609 116.288L29.0887 113.271L29.1216 110.552L29.1598 108.064L29.2033 105.76L29.2519 103.61L29.3057 101.589L29.3648 99.679L29.4291 97.8649L29.4986 96.1355L29.5734 94.4815L29.6534 92.8949L29.7387 91.3693L29.8293 89.8991L29.9251 88.4797L30.0262 87.1068L30.1325 85.777L30.2442 84.4872L30.3611 83.2346L30.4834 82.0167L30.611 80.8315L30.7439 79.6768L30.8822 78.5511L31.0258 77.4527L31.1748 76.3802L31.3292 75.3323L31.489 74.3078L31.6542 73.3056L31.8248 72.3248L32.0009 71.3643L32.1824 70.4234L32.3694 69.5013L32.5619 68.5972L32.7599 67.7105L32.9634 66.8405L33.1725 65.9867L33.3871 65.1485L33.6073 64.3255L33.8332 63.5171L34.0647 62.7228L34.3018 61.9424L34.5446 61.1753L34.7931 60.4212L35.0474 59.6797L35.3074 58.9506L35.5732 58.2335L35.8448 57.5281L36.1222 56.8341L36.4055 56.1513L36.6948 55.4794L36.9899 54.8182L37.2911 54.1675L37.5982 53.527L37.9114 52.8965L38.2307 52.2758L38.5561 51.6648L38.8877 51.0633L39.2254 50.471L39.5694 49.8879L39.9198 49.3138L40.2764 48.7485L40.6394 48.1919L41.0089 47.6439L41.3848 47.1042L41.7673 46.5729L42.1564 46.0498L42.5521 45.5347L42.9545 45.0276L43.3638 44.5284L43.7798 44.0369L44.2027 43.5531L44.6327 43.0768L45.0696 42.608L45.5137 42.1465L45.9649 41.6924L46.4234 41.2455L46.8893 40.8057L47.3626 40.373L47.8434 39.9473L48.3319 39.5285L48.828 39.1166L49.332 38.7115L49.8439 38.3131L50.3638 37.9213L50.8918 37.5362L51.4281 37.1577L51.9728 36.7857L52.5259 36.4201L53.0877 36.0609L53.6583 35.7081L54.2378 35.3616L54.8264 35.0213L55.4242 34.6873L56.0315 34.3595L56.6483 34.0377L57.2748 33.7221L57.9113 33.4126L58.558 33.109L59.215 32.8115L59.8826 32.5199L60.561 32.2342L61.2505 31.9544L61.9513 31.6805L62.6637 31.4124L63.388 31.1501L64.1245 30.8936L64.8736 30.6428L65.6354 30.3977L66.4105 30.1583L67.1992 29.9246L68.002 29.6965L68.8191 29.474L69.6512 29.2572L70.4987 29.0459L71.3622 28.8402L72.2422 28.64L73.1393 28.4453L74.0541 28.2561L74.9875 28.0724L75.94 27.8942L76.9127 27.7214L77.9063 27.5541L78.9218 27.3921L79.9602 27.2356L81.0228 27.0844L82.1107 26.9387L83.2253 26.7983L84.3682 26.6632L85.5411 26.5335L86.7457 26.4091L87.9842 26.29L89.2589 26.1763L90.5725 26.0678L91.9277 25.9646L93.3282 25.8667L94.7776 25.7741L96.2805 25.6867L97.8421 25.6046L99.4685 25.5277L101.167 25.4561L102.946 25.3897L104.816 25.3285L106.791 25.2726L108.888 25.2219L111.127 25.1764L113.537 25.1361L116.158 25.1011L119.046 25.0712L122.289 25.0466L126.034 25.0271L130.559 25.0129L136.553 25.0038L147.379 25L177.472 25.0014L184.837 25.0079L189.928 25.0197L193.997 25.0366L197.456 25.0588L200.5 25.0862L203.24 25.1187L205.745 25.1565L208.062 25.1995L210.223 25.2477L212.254 25.3012L214.172 25.3598L215.994 25.4237L217.729 25.4928L219.389 25.5672L220.981 25.6468L222.511 25.7317L223.986 25.8218L225.409 25.9172L226.785 26.0178L228.118 26.1238L229.411 26.235L230.667 26.3515L231.887 26.4734L233.075 26.6006L234.232 26.7331L235.36 26.8709L236.461 27.0141L237.535 27.1627L238.585 27.3167L239.611 27.476L240.615 27.6408L241.598 27.811L242.56 27.9866L243.502 28.1677L244.426 28.3542L245.331 28.5463L246.219 28.7438L247.091 28.9469L247.946 29.1555L248.785 29.3697L249.609 29.5895L250.419 29.8149L251.214 30.0459L251.996 30.2826L252.764 30.525L253.519 30.773L254.261 31.0268L254.992 31.2864L255.71 31.5517L256.416 31.8228L257.111 32.0998L257.794 32.3827L258.467 32.6714L259.129 32.9661L259.781 33.2668L260.422 33.5735L261.053 33.8862L261.675 34.205L262.287 34.5299L262.889 34.861L263.482 35.1982L264.066 35.5417L264.641 35.8915L265.207 36.2477L265.764 36.6102L266.313 36.9791L266.853 37.3546L267.385 37.7365L267.909 38.1251L268.424 38.5203L268.932 38.9222L269.432 39.3308L269.924 39.7463L270.408 40.1687L270.885 40.5981L271.355 41.0345L271.817 41.478L272.271 41.9286L272.719 42.3866L273.159 42.8518L273.593 43.3245L274.019 43.8048L274.438 44.2926L274.851 44.7881L275.256 45.2915L275.655 45.8027L276.047 46.322L276.433 46.8494L276.812 47.385L277.185 47.929L277.551 48.4815L277.911 49.0426L278.264 49.6125L278.611 50.1913L278.952 50.7791L279.286 51.3762L279.614 51.9827L279.937 52.5987L280.253 53.2245L280.563 53.8602L280.867 54.506L281.165 55.1622L281.457 55.829L281.743 56.5065L282.023 57.1951L282.298 57.895L282.566 58.6065L282.829 59.3298L283.086 60.0653L283.337 60.8134L283.583 61.5742L283.823 62.3482L284.057 63.1358L284.285 63.9374L284.508 64.7534L284.726 65.5843L284.937 66.4306L285.143 67.2928L285.344 68.1714L285.539 69.0671L285.729 69.9805L285.913 70.9124L286.092 71.8634L286.265 72.8344L286.433 73.8263L286.595 74.84L286.752 75.8766L286.904 76.9372L287.05 78.023L287.191 79.1355L287.326 80.2761L287.456 81.4465L287.581 82.6485L287.7 83.8842L287.815 85.156L287.924 86.4663L288.027 87.8181L288.125 89.2148L288.219 90.6602L288.306 92.1587L288.389 93.7154L288.466 95.3363L288.538 97.0287L288.605 98.801L288.667 100.664L288.723 102.63L288.774 104.716L288.82 106.942L288.861 109.338L288.896 111.94L288.926 114.804L288.951 118.015L288.971 121.712L288.986 126.159L288.995 131.987L289 141.962L289 155Z" fill="url(#paint0_linear)"/>
</g>
<path d="M159 229C158.548 229 158.095 228.931 157.659 228.793C140.275 223.304 125.39 212.63 114.613 197.925C103.837 183.221 98.1406 165.813 98.1406 147.582V102.234C98.1406 99.7751 100.134 97.7812 102.594 97.7812C115.456 97.7812 127.15 90.7287 133.138 79.3756C133.908 77.9147 135.425 77 137.077 77H180.923C182.575 77 184.091 77.9144 184.862 79.3756C190.85 90.7287 202.544 97.7812 215.38 97.7812C217.839 97.7812 219.859 99.7751 219.859 102.234V147.582C219.859 165.813 214.163 183.221 203.387 197.925C192.61 212.629 177.725 223.303 160.341 228.793C159.905 228.931 159.452 229 159 229Z" fill="#9DDFF6"/>
<path d="M215.38 97.7812C202.544 97.7812 190.85 90.7287 184.862 79.3756C184.092 77.9144 182.575 77 180.923 77H159V229C159.452 229 159.905 228.931 160.341 228.793C177.725 223.304 192.61 212.63 203.387 197.925C214.163 183.221 219.859 165.813 219.859 147.582V102.234C219.859 99.7751 217.839 97.7812 215.38 97.7812Z" fill="#6BA7FF"/>
<path d="M159 210.054C158.417 210.054 157.834 209.94 157.286 209.711C132.177 199.241 115.953 174.854 115.953 147.583V117.204C115.953 115.281 117.188 113.575 119.015 112.974C128.467 109.866 136.792 104.152 143.088 96.4477C143.934 95.4128 145.2 94.8125 146.536 94.8125H171.463C172.8 94.8125 174.066 95.4128 174.912 96.4477C181.208 104.153 189.532 109.869 198.985 112.977C200.812 113.578 202.047 115.284 202.047 117.207V147.583C202.047 174.854 185.823 199.241 160.714 209.711C160.166 209.939 159.583 210.054 159 210.054Z" fill="#F5F5FF"/>
<path d="M198.985 112.977C189.533 109.869 181.208 104.153 174.912 96.4477C174.066 95.4128 172.8 94.8125 171.463 94.8125H159V210.054C159.583 210.054 160.166 209.94 160.714 209.711C185.823 199.241 202.047 174.854 202.047 147.583V117.207C202.047 115.284 200.812 113.578 198.985 112.977Z" fill="#E2E7FA"/>
<path d="M164.938 171.109H153.062C150.603 171.109 148.609 169.116 148.609 166.656V154.781H136.734C134.275 154.781 132.281 152.787 132.281 150.328V138.453C132.281 135.994 134.275 134 136.734 134H148.609V122.125C148.609 119.666 150.603 117.672 153.062 117.672H164.938C167.397 117.672 169.391 119.666 169.391 122.125V134H181.266C183.725 134 185.719 135.994 185.719 138.453V150.328C185.719 152.787 183.725 154.781 181.266 154.781H169.391V166.656C169.391 169.116 167.397 171.109 164.938 171.109ZM169.391 154.781V166.656C169.391 169.116 167.397 171.109 164.938 171.109H153.062C150.603 171.109 148.609 169.116 148.609 166.656V154.781H169.391ZM169.391 134H181.266C183.725 134 185.719 135.994 185.719 138.453V150.328C185.719 152.787 183.725 154.781 181.266 154.781H169.391V134ZM148.609 134V122.125C148.609 119.666 150.603 117.672 153.062 117.672H164.938C167.397 117.672 169.391 119.666 169.391 122.125V134H148.609ZM148.609 154.781H136.734C134.275 154.781 132.281 152.787 132.281 150.328V138.453C132.281 135.994 134.275 134 136.734 134H148.609" fill="#EF5CA2"/>
<path d="M181.266 134H169.391V122.125C169.391 119.666 167.397 117.672 164.938 117.672H159V171.109H164.938C167.397 171.109 169.391 169.116 169.391 166.656V154.781H181.266C183.725 154.781 185.719 152.787 185.719 150.328V138.453C185.719 135.994 183.725 134 181.266 134Z" fill="#EA1C81"/>
<defs>
<filter id="filter0_d" x="0" y="0" width="318" height="318" filterUnits="userSpaceOnUse" color-interpolation-filters="sRGB">
<feFlood flood-opacity="0" result="BackgroundImageFix"/>
<feColorMatrix in="SourceAlpha" type="matrix" values="0 0 0 0 0 0 0 0 0 0 0 0 0 0 0 0 0 0 127 0"/>
<feOffset dy="4"/>
<feGaussianBlur stdDeviation="14.5"/>
<feColorMatrix type="matrix" values="0 0 0 0 0.319514 0 0 0 0 0.464977 0 0 0 0 0.891667 0 0 0 1 0"/>
<feBlend mode="normal" in2="BackgroundImageFix" result="effect1_dropShadow"/>
<feBlend mode="normal" in="SourceGraphic" in2="effect1_dropShadow" result="shape"/>
</filter>
<linearGradient id="paint0_linear" x1="270.5" y1="37.4999" x2="51.5" y2="273.5" gradientUnits="userSpaceOnUse">
<stop stop-color="#99B4FF"/>
<stop offset="1" stop-color="#99CEFF"/>
</linearGradient>
</defs>
</svg>
