<svg width="219" height="56" viewBox="0 0 219 56" fill="none" xmlns="http://www.w3.org/2000/svg">
<path fill-rule="evenodd" clip-rule="evenodd" d="M219 28L218.999 45.6668L218.998 46.9347L218.995 47.718L218.991 48.2933L218.986 48.7509L218.98 49.1323L218.973 49.4601L218.965 49.7481L218.956 50.0051L218.945 50.2375L218.934 50.4496L218.921 50.645L218.907 50.826L218.892 50.9948L218.876 51.1528L218.859 51.3015L218.841 51.4419L218.822 51.5749L218.801 51.7013L218.78 51.8216L218.757 51.9365L218.733 52.0464L218.708 52.1517L218.682 52.2528L218.655 52.35L218.626 52.4436L218.597 52.5338L218.566 52.6209L218.534 52.7051L218.501 52.7866L218.466 52.8654L218.431 52.9419L218.394 53.016L218.356 53.088L218.317 53.1579L218.277 53.2259L218.235 53.292L218.193 53.3563L218.149 53.419L218.103 53.48L218.057 53.5395L218.009 53.5975L217.96 53.6542L217.909 53.7094L217.858 53.7634L217.805 53.8161L217.75 53.8676L217.695 53.918L217.638 53.9672L217.579 54.0154L217.52 54.0625L217.459 54.1086L217.396 54.1537L217.332 54.1979L217.267 54.2411L217.2 54.2835L217.132 54.325L217.062 54.3656L216.991 54.4054L216.918 54.4445L216.844 54.4828L216.768 54.5203L216.691 54.5571L216.612 54.5931L216.531 54.6285L216.449 54.6632L216.365 54.6972L216.28 54.7306L216.192 54.7633L216.103 54.7955L216.013 54.827L215.92 54.8579L215.826 54.8882L215.73 54.918L215.632 54.9472L215.532 54.9758L215.431 55.0039L215.327 55.0315L215.221 55.0586L215.113 55.0852L215.004 55.1112L214.892 55.1368L214.778 55.1619L214.662 55.1865L214.543 55.2106L214.422 55.2343L214.299 55.2575L214.174 55.2803L214.046 55.3026L213.916 55.3245L213.783 55.346L213.647 55.367L213.509 55.3876L213.368 55.4079L213.225 55.4277L213.078 55.4471L212.929 55.4661L212.776 55.4847L212.621 55.503L212.462 55.5208L212.3 55.5383L212.135 55.5554L211.966 55.5722L211.794 55.5886L211.617 55.6046L211.437 55.6202L211.254 55.6355L211.066 55.6505L210.873 55.6651L210.677 55.6793L210.476 55.6933L210.27 55.7068L210.059 55.7201L209.844 55.733L209.623 55.7456L209.396 55.7578L209.164 55.7698L208.926 55.7814L208.681 55.7927L208.43 55.8036L208.172 55.8143L207.907 55.8246L207.634 55.8346L207.353 55.8444L207.064 55.8538L206.766 55.8629L206.458 55.8717L206.14 55.8802L205.812 55.8883L205.472 55.8962L205.12 55.9038L204.755 55.9111L204.376 55.9181L203.982 55.9248L203.572 55.9313L203.144 55.9374L202.696 55.9432L202.227 55.9488L201.735 55.954L201.217 55.959L200.671 55.9637L200.092 55.9681L199.477 55.9722L198.82 55.976L198.116 55.9795L197.357 55.9828L196.533 55.9857L195.631 55.9884L194.635 55.9908L193.519 55.993L192.251 55.9948L190.779 55.9964L189.018 55.9977L186.814 55.9987L183.838 55.9994L179.121 55.9998L163.144 56L40.9812 55.9999L35.752 55.9995L32.5955 55.9988L30.2981 55.9978L28.4792 55.9966L26.9678 55.9951L25.6714 55.9933L24.5344 55.9912L23.5205 55.9888L22.6048 55.9862L21.7693 55.9833L21.0006 55.9801L20.2885 55.9766L19.625 55.9728L19.0037 55.9687L18.4194 55.9644L17.8679 55.9597L17.3456 55.9548L16.8495 55.9496L16.3771 55.9441L15.9263 55.9383L15.4951 55.9323L15.0819 55.9259L14.6852 55.9192L14.3039 55.9123L13.9368 55.905L13.5828 55.8975L13.2412 55.8896L12.911 55.8815L12.5917 55.873L12.2825 55.8643L11.9829 55.8552L11.6922 55.8459L11.4101 55.8362L11.1361 55.8262L10.8697 55.8159L10.6106 55.8053L10.3585 55.7944L10.1129 55.7832L9.87372 55.7716L9.64053 55.7598L9.41312 55.7476L9.19125 55.735L8.97469 55.7222L8.76324 55.709L8.55669 55.6954L8.35488 55.6816L8.15762 55.6674L7.96475 55.6528L7.77612 55.6379L7.59159 55.6227L7.41102 55.6071L7.23428 55.5911L7.06126 55.5748L6.89184 55.5581L6.72591 55.5411L6.56337 55.5237L6.40412 55.5059L6.24808 55.4877L6.09514 55.4691L5.94524 55.4502L5.79829 55.4308L5.65421 55.4111L5.51293 55.3909L5.37439 55.3703L5.23852 55.3493L5.10525 55.3279L4.97453 55.3061L4.84629 55.2839L4.72049 55.2612L4.59708 55.238L4.47599 55.2144L4.35719 55.1903L4.24062 55.1658L4.12625 55.1408L4.01402 55.1153L3.90391 55.0893L3.79586 55.0629L3.68985 55.0359L3.58584 55.0084L3.48378 54.9803L3.38366 54.9518L3.28542 54.9227L3.18906 54.893L3.09452 54.8628L3.0018 54.8319L2.91085 54.8005L2.82165 54.7685L2.73418 54.7359L2.6484 54.7026L2.56431 54.6687L2.48186 54.6341L2.40105 54.5988L2.32185 54.5629L2.24423 54.5262L2.16818 54.4888L2.09368 54.4506L2.02071 54.4117L1.94925 54.372L1.87929 54.3315L1.8108 54.2901L1.74377 54.2479L1.67819 54.2048L1.61404 54.1608L1.5513 54.1158L1.48996 54.0699L1.43001 54.0229L1.37143 53.975L1.31421 53.9259L1.25834 53.8757L1.20381 53.8244L1.1506 53.7719L1.0987 53.7181L1.04811 53.6631L0.998803 53.6067L0.950781 53.5489L0.904031 53.4896L0.858543 53.4288L0.814308 53.3664L0.771317 53.3023L0.729563 53.2365L0.689036 53.1688L0.649729 53.0993L0.611634 53.0276L0.574745 52.9538L0.539054 52.8778L0.504554 52.7993L0.471238 52.7183L0.439102 52.6345L0.408138 52.5479L0.378342 52.4582L0.349707 52.3651L0.322228 52.2685L0.295901 52.168L0.270721 52.0634L0.246683 51.9543L0.223783 51.8402L0.202016 51.7208L0.18138 51.5955L0.16187 51.4636L0.143483 51.3244L0.126215 51.1771L0.110065 51.0206L0.0950283 50.8537L0.0811029 50.6747L0.0682865 50.4818L0.0565768 50.2725L0.0459718 50.0436L0.0364696 49.7909L0.0280687 49.5084L0.0207675 49.1877L0.014565 48.816L0.0094599 48.3726L0.00545146 47.8203L0.00253896 47.0803L0.00072191 45.9298L0 42.7018L0.000373108 10.637L0.0018413 9.22176L0.00440482 8.38919L0.00806411 7.78895L0.0128198 7.3161L0.0186727 6.92439L0.0256237 6.58912L0.0336742 6.29552L0.0428254 6.03403L0.053079 5.79807L0.0644366 5.58292L0.0769003 5.38511L0.0904721 5.20195L0.105155 5.03136L0.12095 4.87168L0.137861 4.72156L0.155891 4.5799L0.175043 4.44578L0.19532 4.31842L0.216726 4.19717L0.239265 4.08146L0.26294 3.97081L0.287756 3.8648L0.313718 3.76305L0.340829 3.66524L0.369095 3.57108L0.398521 3.48031L0.429112 3.39271L0.460874 3.30807L0.493813 3.2262L0.527935 3.14693L0.563246 3.07012L0.599754 2.99563L0.637464 2.92332L0.676383 2.85309L0.716521 2.78482L0.757884 2.71843L0.80048 2.65381L0.844317 2.59089L0.889405 2.5296L0.935752 2.46985L0.983368 2.41158L1.03226 2.35474L1.08244 2.29925L1.13393 2.24508L1.18672 2.19217L1.24083 2.14047L1.29627 2.08994L1.35306 2.04053L1.4112 1.99221L1.47071 1.94494L1.53161 1.89869L1.5939 1.85342L1.6576 1.8091L1.72273 1.76571L1.78929 1.72321L1.85731 1.68158L1.9268 1.64079L1.99779 1.60083L2.07027 1.56166L2.14428 1.52326L2.21984 1.48563L2.29695 1.44873L2.37565 1.41255L2.45595 1.37706L2.53787 1.34227L2.62144 1.30814L2.70667 1.27466L2.7936 1.24182L2.88225 1.2096L2.97264 1.17799L3.06479 1.14698L3.15875 1.11656L3.25453 1.08671L3.35216 1.05742L3.45168 1.02868L3.55312 1.00048L3.65651 0.972808L3.76188 0.945659L3.86927 0.919021L3.97872 0.892886L4.09027 0.867244L4.20395 0.842087L4.31982 0.817407L4.4379 0.793197L4.55826 0.76945L4.68093 0.746158L4.80596 0.723313L4.93341 0.700911L5.06333 0.678944L5.19579 0.657406L5.33082 0.636291L5.46851 0.615593L5.60891 0.595307L5.75208 0.575428L5.89811 0.55595L6.04707 0.536869L6.19903 0.518179L6.35407 0.499875L6.51229 0.481955L6.67377 0.464412L6.83861 0.447243L7.00691 0.430444L7.17877 0.41401L7.35431 0.397939L7.53364 0.382226L7.7169 0.366868L7.90421 0.351861L8.09571 0.337202L8.29156 0.322889L8.4919 0.308917L8.69692 0.295284L8.90679 0.281987L9.1217 0.269023L9.34186 0.256389L9.56748 0.244084L9.7988 0.232103L10.0361 0.220446L10.2796 0.209109L10.5296 0.198091L10.7864 0.187389L11.0504 0.177001L11.322 0.166925L11.6015 0.15716L11.8893 0.147702L12.1861 0.138551L12.4921 0.129705L12.8082 0.121162L13.1348 0.112921L13.4727 0.104979L13.8226 0.0973363L14.1855 0.0899905L14.5622 0.0829406L14.9538 0.0761851L15.3616 0.069723L15.7869 0.0635531L16.2313 0.0576742L16.6966 0.0520853L17.1848 0.0467854L17.6985 0.0417737L18.2404 0.0370491L18.8138 0.032611L19.4228 0.0284584L20.0722 0.0245908L20.7681 0.0210074L21.5177 0.0177076L22.3307 0.0146908L23.2192 0.0119565L24.1994 0.00950429L25.2939 0.00733369L26.5346 0.00544436L27.9698 0.00383595L29.6773 0.00250821L31.7955 0.00146089L34.6117 0.000693833L38.9143 0.000206896L49.6264 0L176.729 7.31092e-05L182.612 0.000426236L185.975 0.00105944L188.374 0.00197283L190.255 0.00316656L191.808 0.00464084L193.134 0.00639591L194.294 0.00843208L195.325 0.0107497L196.255 0.0133491L197.102 0.0162309L197.881 0.0193954L198.601 0.0228432L199.272 0.026575L199.9 0.0305913L200.49 0.0348929L201.046 0.0394805L201.573 0.0443549L202.073 0.049517L202.549 0.0549677L203.003 0.0607079L203.437 0.0667387L203.853 0.073061L204.253 0.0796762L204.636 0.0865853L205.006 0.0937895L205.362 0.10129L205.705 0.109089L206.037 0.117187L206.358 0.125586L206.669 0.134287L206.97 0.143292L207.262 0.152603L207.545 0.162221L207.821 0.172148L208.088 0.182387L208.349 0.192938L208.602 0.203805L208.848 0.21499L209.089 0.226493L209.323 0.238319L209.551 0.250469L209.774 0.262945L209.991 0.275751L210.203 0.288889L210.411 0.302361L210.613 0.316171L210.811 0.330321L211.005 0.344814L211.194 0.359654L211.379 0.374844L211.56 0.390387L211.738 0.406287L211.911 0.422546L212.081 0.43917L212.248 0.456162L212.411 0.473526L212.571 0.491266L212.727 0.509385L212.881 0.52789L213.031 0.546784L213.178 0.566072L213.323 0.585759L213.465 0.60585L213.604 0.62635L213.74 0.647265L213.874 0.6686L214.005 0.690361L214.133 0.712555L214.26 0.735187L214.383 0.758265L214.505 0.781794L214.624 0.805782L214.741 0.830236L214.856 0.855164L214.968 0.880573L215.079 0.906472L215.187 0.932869L215.293 0.959772L215.398 0.987192L215.5 1.01514L215.601 1.04362L215.699 1.07264L215.796 1.10223L215.891 1.13238L215.984 1.1631L216.075 1.19442L216.164 1.22635L216.252 1.25889L216.338 1.29206L216.422 1.32588L216.505 1.36035L216.586 1.39551L216.666 1.43135L216.743 1.46791L216.82 1.50519L216.895 1.54322L216.968 1.58201L217.039 1.6216L217.11 1.66199L217.178 1.70321L217.246 1.74529L217.311 1.78826L217.376 1.83213L217.439 1.87694L217.5 1.92272L217.561 1.9695L217.619 2.01731L217.677 2.06619L217.733 2.11618L217.788 2.16732L217.841 2.21965L217.893 2.27321L217.944 2.32806L217.993 2.38425L218.042 2.44183L218.089 2.50086L218.134 2.56141L218.179 2.62354L218.222 2.68734L218.264 2.75287L218.305 2.82023L218.344 2.88951L218.382 2.96081L218.419 3.03425L218.455 3.10994L218.49 3.18801L218.524 3.26862L218.556 3.35191L218.587 3.43808L218.617 3.5273L218.646 3.61981L218.673 3.71584L218.7 3.81567L218.725 3.91961L218.75 4.02799L218.773 4.14122L218.795 4.25976L218.815 4.38412L218.835 4.51492L218.854 4.65288L218.871 4.79883L218.887 4.95379L218.903 5.11898L218.917 5.29591L218.93 5.48643L218.942 5.69291L218.952 5.91842L218.962 6.16703L218.971 6.44432L218.978 6.75822L218.984 7.12065L218.99 7.55071L218.994 8.08204L218.997 8.78344L218.999 9.8379L219 12.243L219 28Z" fill="#68A9FE"/>
</svg>
