<svg width="648" height="458" viewBox="0 0 648 458" fill="none" xmlns="http://www.w3.org/2000/svg">
<path d="M130.066 450.42C130.066 450.42 87.4766 412.876 31.0195 288.247C-25.4375 163.618 -3.91326 16.8298 97.533 2.71559C198.979 -11.3987 277.737 48.6928 277.737 48.6928C277.737 48.6928 390.898 12.5603 481.194 37.2602C571.49 61.9955 562.633 183.131 562.633 183.131C562.633 183.131 619.584 216.758 642.837 293.187C666.091 369.616 586.133 450.102 586.133 450.102L130.066 450.42Z" fill="#DDE8FE" fill-opacity="0.5"/>
<path d="M627.735 457.618H97.1448C94.2161 457.618 91.8167 455.254 91.8167 452.29V452.149C91.8167 449.22 94.1808 446.821 97.1448 446.821H627.735C630.664 446.821 633.063 449.185 633.063 452.149V452.29C633.063 455.219 630.664 457.618 627.735 457.618Z" fill="#99B4FF"/>
<path d="M521.314 379.707H158.789C152.508 379.707 147.427 374.944 147.427 369.086L140.546 120.922C140.546 115.065 145.627 110.302 151.908 110.302H531.652C537.933 110.302 543.014 115.065 543.014 120.922L532.676 369.086C532.676 374.944 527.594 379.707 521.314 379.707Z" fill="#EAE9F3"/>
<path d="M538.603 112.525C539.803 114.218 540.509 116.23 540.509 118.417L530.17 366.581C530.17 372.439 525.089 377.202 518.808 377.202H156.283C153.672 377.202 151.238 376.391 149.332 374.979C151.379 377.837 154.837 379.708 158.789 379.708H521.278C527.559 379.708 532.64 374.944 532.64 369.087L542.979 120.923C543.014 117.5 541.285 114.465 538.603 112.525Z" fill="#4951EC"/>
<path d="M163.199 350.632L156.319 128.191C156.319 122.334 161.4 117.57 167.681 117.57H519.867C526.148 117.57 531.229 122.334 531.229 128.191L520.89 350.632C520.89 356.489 515.809 361.253 509.528 361.253H174.561C168.281 361.253 163.199 356.489 163.199 350.632Z" fill="#7C9AF2"/>
<path d="M162.67 356.101L155.79 133.661C155.79 127.803 160.871 123.04 167.152 123.04H519.338C525.618 123.04 530.7 127.803 530.7 133.661L520.361 356.101C520.361 361.959 515.28 366.722 508.999 366.722H174.068C167.787 366.722 162.67 361.959 162.67 356.101Z" fill="#92B5F9"/>
<path d="M507.058 353.279H500.707C500.53 353.279 500.354 353.137 500.354 352.926C500.354 352.749 500.495 352.573 500.707 352.573H506.388L506.494 350.667C506.494 350.491 506.67 350.315 506.846 350.35C507.023 350.35 507.199 350.526 507.164 350.703L507.058 353.279ZM492.415 353.279H484.158C483.981 353.279 483.805 353.137 483.805 352.926C483.805 352.749 483.946 352.573 484.158 352.573H492.415C492.591 352.573 492.767 352.714 492.767 352.926C492.767 353.102 492.626 353.279 492.415 353.279ZM475.901 353.279H467.644C467.468 353.279 467.291 353.137 467.291 352.926C467.291 352.749 467.432 352.573 467.644 352.573H475.901C476.077 352.573 476.254 352.714 476.254 352.926C476.218 353.102 476.077 353.279 475.901 353.279ZM459.352 353.279H451.095C450.919 353.279 450.742 353.137 450.742 352.926C450.742 352.749 450.883 352.573 451.095 352.573H459.352C459.528 352.573 459.705 352.714 459.705 352.926C459.705 353.102 459.528 353.279 459.352 353.279ZM442.803 353.279H434.546C434.37 353.279 434.193 353.137 434.193 352.926C434.193 352.749 434.334 352.573 434.546 352.573H442.803C442.979 352.573 443.156 352.714 443.156 352.926C443.156 353.102 442.979 353.279 442.803 353.279ZM426.254 353.279H417.997C417.821 353.279 417.644 353.137 417.644 352.926C417.644 352.749 417.785 352.573 417.997 352.573H426.254C426.43 352.573 426.607 352.714 426.607 352.926C426.607 353.102 426.466 353.279 426.254 353.279ZM409.74 353.279H401.483C401.307 353.279 401.131 353.137 401.131 352.926C401.131 352.749 401.272 352.573 401.483 352.573H409.74C409.917 352.573 410.093 352.714 410.093 352.926C410.058 353.102 409.917 353.279 409.74 353.279ZM393.191 353.279H384.899C384.723 353.279 384.546 353.137 384.546 352.926C384.546 352.749 384.688 352.573 384.899 352.573H393.156C393.333 352.573 393.509 352.714 393.509 352.926C393.544 353.102 393.368 353.279 393.191 353.279ZM376.642 353.279H368.386C368.209 353.279 368.033 353.137 368.033 352.926C368.033 352.749 368.174 352.573 368.386 352.573H376.642C376.819 352.573 376.995 352.714 376.995 352.926C376.995 353.102 376.819 353.279 376.642 353.279ZM360.093 353.279H351.837C351.66 353.279 351.484 353.137 351.484 352.926C351.484 352.749 351.625 352.573 351.837 352.573H360.093C360.27 352.573 360.446 352.714 360.446 352.926C360.446 353.102 360.305 353.279 360.093 353.279ZM343.58 353.279H335.323C335.146 353.279 334.97 353.137 334.97 352.926C334.97 352.749 335.111 352.573 335.323 352.573H343.58C343.756 352.573 343.933 352.714 343.933 352.926C343.897 353.102 343.756 353.279 343.58 353.279ZM327.031 353.279H318.774C318.598 353.279 318.421 353.137 318.421 352.926C318.421 352.749 318.562 352.573 318.774 352.573H327.031C327.207 352.573 327.384 352.714 327.384 352.926C327.384 353.102 327.207 353.279 327.031 353.279ZM310.482 353.279H302.225C302.049 353.279 301.872 353.137 301.872 352.926C301.872 352.749 302.013 352.573 302.225 352.573H310.482C310.658 352.573 310.835 352.714 310.835 352.926C310.835 353.102 310.658 353.279 310.482 353.279ZM293.933 353.279H285.676C285.5 353.279 285.323 353.137 285.323 352.926C285.323 352.749 285.464 352.573 285.676 352.573H293.933C294.109 352.573 294.286 352.714 294.286 352.926C294.286 353.102 294.145 353.279 293.933 353.279ZM277.419 353.279H269.162C268.986 353.279 268.809 353.137 268.809 352.926C268.809 352.749 268.951 352.573 269.162 352.573H277.419C277.596 352.573 277.772 352.714 277.772 352.926C277.737 353.102 277.596 353.279 277.419 353.279ZM260.87 353.279H252.578C252.402 353.279 252.225 353.137 252.225 352.926C252.225 352.749 252.366 352.573 252.578 352.573H260.835C261.011 352.573 261.188 352.714 261.188 352.926C261.223 353.102 261.047 353.279 260.87 353.279ZM244.321 353.279H236.064C235.888 353.279 235.712 353.137 235.712 352.926C235.712 352.749 235.853 352.573 236.064 352.573H244.321C244.498 352.573 244.674 352.714 244.674 352.926C244.674 353.102 244.498 353.279 244.321 353.279ZM227.772 353.279H219.515C219.339 353.279 219.163 353.137 219.163 352.926C219.163 352.749 219.304 352.573 219.515 352.573H227.772C227.949 352.573 228.125 352.714 228.125 352.926C228.125 353.102 227.984 353.279 227.772 353.279ZM211.259 353.279H203.002C202.825 353.279 202.649 353.137 202.649 352.926C202.649 352.749 202.79 352.573 203.002 352.573H211.259C211.435 352.573 211.611 352.714 211.611 352.926C211.576 353.102 211.435 353.279 211.259 353.279ZM194.71 353.279H186.453C186.276 353.279 186.1 353.137 186.1 352.926C186.1 352.749 186.241 352.573 186.453 352.573H194.71C194.886 352.573 195.062 352.714 195.062 352.926C195.062 353.102 194.886 353.279 194.71 353.279ZM178.161 353.279H176.044L175.761 344.669C175.761 344.492 175.902 344.316 176.079 344.316C176.291 344.316 176.432 344.457 176.432 344.634L176.679 352.573H178.125C178.302 352.573 178.478 352.714 178.478 352.926C178.514 353.102 178.337 353.279 178.161 353.279ZM507.199 342.763C506.988 342.763 506.846 342.587 506.846 342.411L507.235 334.154C507.235 333.977 507.411 333.801 507.587 333.836C507.764 333.836 507.94 334.013 507.905 334.189L507.517 342.446C507.552 342.622 507.376 342.763 507.199 342.763ZM175.867 336.73C175.691 336.73 175.514 336.588 175.514 336.412L175.267 328.155C175.267 327.979 175.408 327.802 175.585 327.802C175.797 327.802 175.938 327.943 175.938 328.12L176.185 336.377C176.22 336.553 176.079 336.73 175.867 336.73ZM507.976 326.25C507.764 326.25 507.623 326.073 507.623 325.897L508.011 317.64C508.011 317.464 508.187 317.287 508.364 317.322C508.54 317.322 508.717 317.499 508.681 317.675L508.293 325.932C508.293 326.073 508.152 326.25 507.976 326.25ZM175.338 320.216C175.161 320.216 174.985 320.075 174.985 319.898L174.738 311.641C174.738 311.465 174.879 311.289 175.056 311.289C175.232 311.289 175.408 311.43 175.408 311.606L175.655 319.863C175.691 320.039 175.55 320.181 175.338 320.216C175.373 320.216 175.338 320.216 175.338 320.216ZM508.752 309.701C508.717 309.701 508.717 309.701 508.752 309.701C508.54 309.701 508.399 309.524 508.399 309.348L508.787 301.091C508.787 300.915 508.964 300.738 509.14 300.774C509.316 300.774 509.493 300.95 509.458 301.126L509.069 309.383C509.069 309.56 508.928 309.701 508.752 309.701ZM174.844 303.667C174.667 303.667 174.491 303.526 174.491 303.349L174.244 295.093C174.244 294.916 174.385 294.74 174.562 294.74C174.738 294.74 174.914 294.881 174.914 295.057L175.161 303.314C175.197 303.49 175.02 303.667 174.844 303.667ZM509.493 293.187C509.281 293.187 509.14 293.011 509.14 292.834L509.528 284.577C509.528 284.401 509.705 284.225 509.881 284.26C510.057 284.26 510.234 284.436 510.199 284.613L509.81 292.87C509.846 293.046 509.705 293.187 509.493 293.187ZM174.315 287.153C174.138 287.153 173.962 287.012 173.962 286.836L173.715 278.579C173.715 278.402 173.856 278.226 174.032 278.226C174.244 278.226 174.385 278.367 174.385 278.544L174.632 286.8C174.667 286.977 174.526 287.118 174.315 287.153ZM510.269 276.673C510.057 276.673 509.916 276.497 509.916 276.321L510.304 268.064C510.304 267.887 510.481 267.711 510.657 267.746C510.834 267.746 511.01 267.923 510.975 268.099L510.587 276.356C510.622 276.532 510.446 276.673 510.269 276.673ZM173.821 270.604C173.644 270.604 173.468 270.463 173.468 270.287L173.221 262.03C173.221 261.853 173.362 261.677 173.538 261.677C173.75 261.677 173.891 261.818 173.891 261.995L174.138 270.251C174.173 270.428 173.997 270.604 173.821 270.604ZM511.045 260.16C510.834 260.16 510.693 259.983 510.693 259.807L511.081 251.55C511.081 251.374 511.257 251.197 511.434 251.232C511.61 251.232 511.786 251.409 511.751 251.585L511.363 259.842C511.363 259.983 511.222 260.16 511.045 260.16ZM173.291 254.091C173.115 254.091 172.938 253.949 172.938 253.773L172.691 245.516C172.691 245.34 172.833 245.163 173.009 245.163C173.221 245.163 173.362 245.304 173.362 245.481L173.609 253.738C173.644 253.914 173.503 254.055 173.291 254.091ZM511.822 243.611C511.822 243.611 511.786 243.611 511.822 243.611C511.61 243.611 511.469 243.434 511.469 243.258L511.857 235.001C511.857 234.825 512.033 234.648 512.21 234.683C512.386 234.683 512.563 234.86 512.527 235.036L512.139 243.293C512.139 243.47 511.998 243.611 511.822 243.611ZM172.797 237.542C172.621 237.542 172.444 237.4 172.444 237.224L172.197 228.967C172.197 228.791 172.339 228.614 172.515 228.614C172.727 228.614 172.868 228.755 172.868 228.932L173.115 237.189C173.15 237.365 172.974 237.542 172.797 237.542ZM512.563 227.097C512.351 227.097 512.21 226.921 512.21 226.744L512.598 218.487C512.598 218.311 512.81 218.135 512.951 218.17C513.127 218.17 513.304 218.346 513.268 218.523L512.88 226.78C512.916 226.956 512.774 227.097 512.563 227.097ZM172.268 220.993C172.092 220.993 171.915 220.852 171.915 220.675L171.668 212.418C171.668 212.242 171.809 212.065 171.986 212.065C172.162 212.03 172.339 212.207 172.339 212.383L172.586 220.64C172.621 220.852 172.48 220.993 172.268 220.993ZM513.339 210.583C513.127 210.583 512.986 210.407 512.986 210.231L513.374 201.974C513.374 201.797 513.551 201.621 513.727 201.656C513.904 201.656 514.08 201.833 514.045 202.009L513.657 210.266C513.692 210.442 513.515 210.583 513.339 210.583ZM171.774 204.479C171.598 204.479 171.421 204.338 171.421 204.161L171.174 195.905C171.174 195.728 171.315 195.552 171.492 195.552C171.668 195.552 171.845 195.693 171.845 195.869L172.092 204.126C172.127 204.303 171.95 204.479 171.774 204.479ZM514.115 194.07C513.904 194.07 513.762 193.893 513.762 193.717L514.151 185.46C514.151 185.284 514.327 185.107 514.503 185.142C514.68 185.142 514.856 185.319 514.821 185.495L514.433 193.752C514.468 193.893 514.292 194.07 514.115 194.07ZM171.245 187.93C171.068 187.93 170.892 187.789 170.892 187.612L170.645 179.356C170.645 179.179 170.786 179.003 170.962 179.003C171.139 179.003 171.315 179.144 171.315 179.32L171.562 187.577C171.598 187.789 171.456 187.93 171.245 187.93ZM514.892 177.521C514.892 177.521 514.856 177.521 514.892 177.521C514.68 177.521 514.539 177.344 514.539 177.168L514.927 168.911C514.927 168.735 515.103 168.558 515.28 168.593C515.456 168.593 515.633 168.77 515.597 168.946L515.209 177.203C515.209 177.38 515.068 177.521 514.892 177.521ZM170.751 171.416C170.574 171.416 170.398 171.275 170.398 171.099L170.151 162.842C170.151 162.665 170.292 162.489 170.468 162.489C170.68 162.489 170.821 162.63 170.821 162.807L171.068 171.063C171.104 171.24 170.927 171.416 170.751 171.416ZM515.668 161.007C515.633 161.007 515.633 161.007 515.668 161.007C515.456 161.007 515.315 160.831 515.315 160.654L515.703 152.397C515.703 152.221 515.88 152.044 516.056 152.08C516.232 152.08 516.409 152.256 516.374 152.433L515.985 160.689C515.985 160.866 515.844 161.007 515.668 161.007ZM170.221 154.867C170.045 154.867 169.869 154.726 169.869 154.55L169.622 146.293C169.622 146.117 169.763 145.94 169.939 145.94C170.116 145.94 170.292 146.081 170.292 146.258L170.539 154.514C170.574 154.726 170.433 154.867 170.221 154.867ZM516.409 144.493C516.197 144.493 516.056 144.317 516.056 144.141L516.374 137.189H515.809C515.633 137.189 515.456 137.048 515.456 136.836C515.456 136.66 515.597 136.484 515.809 136.484H517.115L516.762 144.176C516.762 144.352 516.621 144.493 516.409 144.493ZM169.727 138.354C169.551 138.354 169.375 138.213 169.375 138.036L169.339 136.484H176.785C176.961 136.484 177.137 136.625 177.137 136.836C177.137 137.013 176.996 137.189 176.785 137.189H170.045L170.08 138.036C170.045 138.177 169.904 138.354 169.727 138.354ZM507.552 137.154H499.295C499.119 137.154 498.942 137.013 498.942 136.801C498.942 136.625 499.084 136.448 499.295 136.448H507.552C507.729 136.448 507.905 136.589 507.905 136.801C507.905 137.013 507.764 137.154 507.552 137.154ZM491.003 137.154H482.746C482.57 137.154 482.393 137.013 482.393 136.801C482.393 136.625 482.535 136.448 482.746 136.448H491.003C491.18 136.448 491.356 136.589 491.356 136.801C491.356 137.013 491.215 137.154 491.003 137.154ZM474.49 137.154H466.233C466.056 137.154 465.88 137.013 465.88 136.801C465.88 136.625 466.021 136.448 466.233 136.448H474.49C474.666 136.448 474.842 136.589 474.842 136.801C474.807 137.013 474.666 137.154 474.49 137.154ZM457.941 137.154H449.684C449.507 137.154 449.331 137.013 449.331 136.801C449.331 136.625 449.472 136.448 449.684 136.448H457.941C458.117 136.448 458.293 136.589 458.293 136.801C458.293 137.013 458.117 137.154 457.941 137.154ZM441.392 137.154H433.135C432.958 137.154 432.782 137.013 432.782 136.801C432.782 136.625 432.923 136.448 433.135 136.448H441.392C441.568 136.448 441.744 136.589 441.744 136.801C441.744 137.013 441.603 137.154 441.392 137.154ZM424.843 137.154H416.586C416.409 137.154 416.233 137.013 416.233 136.801C416.233 136.625 416.374 136.448 416.586 136.448H424.843C425.019 136.448 425.195 136.589 425.195 136.801C425.195 137.013 425.054 137.154 424.843 137.154ZM408.329 137.154H400.072C399.896 137.154 399.719 137.013 399.719 136.801C399.719 136.625 399.86 136.448 400.072 136.448H408.329C408.505 136.448 408.682 136.589 408.682 136.801C408.646 137.013 408.505 137.154 408.329 137.154ZM391.78 137.154H383.523C383.347 137.154 383.17 137.013 383.17 136.801C383.17 136.625 383.311 136.448 383.523 136.448H391.78C391.956 136.448 392.133 136.589 392.133 136.801C392.133 137.013 391.956 137.154 391.78 137.154ZM375.231 137.154H366.974C366.798 137.154 366.621 137.013 366.621 136.801C366.621 136.625 366.762 136.448 366.974 136.448H375.231C375.407 136.448 375.584 136.589 375.584 136.801C375.584 137.013 375.443 137.154 375.231 137.154ZM358.682 137.154H350.425C350.249 137.154 350.072 137.013 350.072 136.801C350.072 136.625 350.213 136.448 350.425 136.448H358.682C358.858 136.448 359.035 136.589 359.035 136.801C359.035 137.013 358.894 137.154 358.682 137.154ZM342.168 137.154H333.911C333.735 137.154 333.559 137.013 333.559 136.801C333.559 136.625 333.7 136.448 333.911 136.448H342.168C342.345 136.448 342.521 136.589 342.521 136.801C342.486 137.013 342.345 137.154 342.168 137.154ZM325.619 137.154H317.363C317.186 137.154 317.01 137.013 317.01 136.801C317.01 136.625 317.151 136.448 317.363 136.448H325.619C325.796 136.448 325.972 136.589 325.972 136.801C325.972 137.013 325.796 137.154 325.619 137.154ZM309.07 137.154H300.814C300.637 137.154 300.461 137.013 300.461 136.801C300.461 136.625 300.602 136.448 300.814 136.448H309.07C309.247 136.448 309.423 136.589 309.423 136.801C309.423 137.013 309.282 137.154 309.07 137.154ZM292.521 137.154H284.265C284.088 137.154 283.912 137.013 283.912 136.801C283.912 136.625 284.053 136.448 284.265 136.448H292.521C292.698 136.448 292.874 136.589 292.874 136.801C292.874 137.013 292.733 137.154 292.521 137.154ZM276.008 137.154H267.751C267.574 137.154 267.398 137.013 267.398 136.801C267.398 136.625 267.539 136.448 267.751 136.448H276.008C276.184 136.448 276.361 136.589 276.361 136.801C276.325 137.013 276.184 137.154 276.008 137.154ZM259.459 137.154H251.202C251.025 137.154 250.849 137.013 250.849 136.801C250.849 136.625 250.99 136.448 251.202 136.448H259.459C259.635 136.448 259.812 136.589 259.812 136.801C259.812 137.013 259.635 137.154 259.459 137.154ZM242.91 137.154H234.653C234.477 137.154 234.3 137.013 234.3 136.801C234.3 136.625 234.441 136.448 234.653 136.448H242.91C243.086 136.448 243.263 136.589 243.263 136.801C243.263 137.013 243.122 137.154 242.91 137.154ZM226.361 137.154H218.104C217.928 137.154 217.751 137.013 217.751 136.801C217.751 136.625 217.892 136.448 218.104 136.448H226.361C226.537 136.448 226.714 136.589 226.714 136.801C226.714 137.013 226.573 137.154 226.361 137.154ZM209.847 137.154H201.59C201.414 137.154 201.237 137.013 201.237 136.801C201.237 136.625 201.379 136.448 201.59 136.448H209.847C210.024 136.448 210.2 136.589 210.2 136.801C210.165 137.013 210.024 137.154 209.847 137.154ZM193.298 137.154H185.041C184.865 137.154 184.688 137.013 184.688 136.801C184.688 136.625 184.83 136.448 185.041 136.448H193.298C193.475 136.448 193.651 136.589 193.651 136.801C193.651 137.013 193.475 137.154 193.298 137.154Z" fill="#DDE8FE"/>
<path d="M332.147 171.205C332.147 171.205 337.052 220.816 334.935 237.718L322.832 365.911H427.242C427.242 365.911 421.384 256.667 421.384 248.41C421.384 240.153 419.655 171.205 419.655 171.205L403.283 162.948L362.105 162.419L332.147 171.205Z" fill="#BED1F9"/>
<path d="M360.376 163.195L339.769 168.982C339.769 168.982 348.026 210.195 352.93 215.1C357.87 220.04 352.083 223.71 356.212 227.838C360.34 231.966 383.276 263.053 383.276 263.053L360.376 163.195Z" fill="#92B5F9"/>
<path d="M404.306 164.571L383.276 263.053C383.276 263.053 405.612 223.568 407.552 221.628C409.458 219.722 407.552 211.642 407.552 207.831C407.552 204.02 419.444 171.099 419.444 171.099C419.444 171.099 408.611 164.571 404.306 164.571Z" fill="#92B5F9"/>
<path d="M362.105 162.419L340.051 164.642C340.051 164.642 348.026 205.22 352.93 210.125C357.87 215.065 352.084 218.734 356.212 222.863C360.34 226.991 383.276 263.018 383.276 263.018L362.105 162.419Z" fill="#DDE8FE"/>
<path d="M403.283 162.948L383.311 263.053C383.311 263.053 405.647 218.629 407.588 216.723C409.493 214.818 407.588 206.737 407.588 202.926C407.588 199.151 419.691 167.782 419.691 167.782C419.691 167.782 407.553 162.948 403.283 162.948Z" fill="#DDE8FE"/>
<path d="M380.383 365.911L383.311 263.053L382.711 365.911H380.383Z" fill="#92B5F9"/>
<path d="M391.427 379.708H312.846V387.964H391.427V379.708Z" fill="#7C9AF2"/>
<path d="M384.688 426.143H319.55L317.504 387.964H386.734L384.688 426.143Z" fill="#7C9AF2"/>
<path d="M386.734 387.964H317.504L319.586 426.143H328.16C329.007 420.215 330.665 413.864 333.911 408.783C339.734 399.609 368.386 395.974 386.452 394.598L386.734 387.964Z" fill="#99B4FF"/>
<path d="M443.438 446.821H266.304C266.304 435.388 275.549 426.143 286.982 426.143H422.761C434.193 426.143 443.438 435.423 443.438 446.821Z" fill="#99B4FF"/>
<path d="M252.437 176.392L246.403 154.832L219.974 161.607C219.974 161.607 223.75 173.357 226.361 174.945C228.302 176.145 234.124 179.709 237.088 181.508L260.729 228.403L277.737 207.372L252.437 176.392Z" fill="#EF7F7F"/>
<path d="M377.454 55.7147C377.454 55.7147 397.602 53.2447 406.212 57.3731C414.821 61.4662 431.723 78.0858 427.242 110.302C427.242 110.302 430.876 111.466 431.9 116.371C432.923 121.311 433.029 130.097 424.49 138.248C415.95 146.399 401.589 145.481 394.179 145.481C386.769 145.481 365.915 139.236 360.587 127.733C355.224 116.23 377.454 55.7147 377.454 55.7147Z" fill="#0B0754"/>
<path d="M387.193 60.4077C381.794 59.9137 377.277 62.3837 373.678 66.4415C369.091 79.8853 361.787 102.927 360.093 117.147C360.834 122.863 362.74 128.544 365.457 133.026C365.915 133.802 366.445 134.543 366.939 135.249C374.066 140.859 384.582 144.246 391.039 145.199C411.116 142.482 416.797 123.957 416.303 103.491C416.162 97.9869 420.114 80.838 411.575 69.7231C405.823 62.3131 395.979 59.5608 387.193 60.4077Z" fill="#0B0754"/>
<path d="M367.115 130.908C367.115 130.908 368.139 144.881 367.115 151.233C366.092 157.584 362.105 162.418 362.105 162.418L383.311 263.053L403.283 162.948C403.283 162.948 398.308 159.913 396.896 151.233C395.485 142.553 395.52 120.217 395.52 120.217L367.115 130.908Z" fill="#FB9390"/>
<path d="M383.311 263.053L398.872 185.142C387.016 186.448 375.231 184.931 366.48 183.131L383.311 263.053Z" fill="#0B0754"/>
<path d="M398.872 185.142C398.766 185.142 398.66 185.178 398.555 185.178C394.673 201.091 385.746 236.377 382.711 239.412C379.783 242.34 370.891 203.456 366.515 183.131C366.515 183.131 366.515 183.131 366.48 183.131L383.311 263.053L398.872 185.142Z" fill="#0B0754"/>
<path opacity="0.53" d="M371.596 129.215C374.631 141.071 382.006 152.221 396.049 148.516C396.226 148.481 396.367 148.41 396.543 148.375C395.52 138.459 395.52 120.217 395.52 120.217L371.596 129.215Z" fill="#EF7F7F"/>
<path d="M391.039 63.1953C391.039 63.1953 403.283 61.2898 409.987 71.1345C416.691 80.9439 413.622 97.4929 413.622 101.621C413.622 105.75 415.598 135.743 396.049 140.4C376.501 145.058 369.867 123.675 369.867 110.76C369.867 97.8458 374.666 64.8184 391.039 63.1953Z" fill="#FB9390"/>
<path opacity="0.53" d="M377.525 74.7336C376.854 76.2156 376.184 77.8035 375.619 79.4619C382.394 77.4153 389.275 75.8275 396.155 74.7689C398.908 84.3313 404.765 90.8945 414.328 90.8945C414.433 87.0836 414.222 82.7788 413.234 78.7562C402.013 74.1338 389.31 67.5706 377.525 74.7336Z" fill="#FD5E5A"/>
<path d="M248.485 156.173C248.238 155.891 228.69 137.26 224.808 138.424C218.351 140.118 232.677 150.774 234.229 152.785C235.006 153.773 235.711 155.044 236.311 156.243C235.817 156.385 235.323 156.526 234.9 156.632C231.23 157.514 221.385 159.349 219.974 161.642C219.974 161.642 219.692 174.521 223.079 174.592C226.467 174.663 229.889 173.428 233.524 173.78C235.323 173.957 237.193 173.075 238.605 172.122C238.817 171.981 239.028 171.804 239.24 171.663C238.781 172.44 238.64 173.357 239.134 174.31C240.863 177.838 252.86 171.769 253.39 169.511C253.919 167.253 251.237 159.56 248.485 156.173ZM245.733 167.817C244.639 168.099 242.522 168.84 240.898 170.005C240.44 168.805 238.146 162.595 238.534 160.125C240.193 158.361 243.862 158.29 245.627 159.066C245.874 159.278 246.05 159.56 246.121 159.948C246.685 162.277 247.92 167.288 245.733 167.817Z" fill="#FB9390"/>
<path d="M247.003 204.655C247.003 204.655 274.914 276.321 285.605 281.86C296.297 287.365 335.429 227.767 335.429 227.767C335.429 227.767 336.946 171.275 332.112 171.275C327.278 171.275 307.447 194.881 301.731 209.066C295.909 223.498 296.12 230.802 288.322 216.758C280.348 202.432 266.339 183.166 266.339 183.166C258.365 191.176 247.003 204.655 247.003 204.655Z" fill="#DDE8FE"/>
<path d="M406.212 57.5143C406.212 57.5143 399.331 56.6674 395.203 59.9137C391.074 63.1953 381.935 64.7479 376.607 90.0477C371.279 115.383 375.584 118.311 375.584 118.311C375.584 118.311 381.265 130.026 373.925 138.989C366.621 147.951 352.26 144.564 344.215 139.836C332.535 132.99 334.617 109.208 339.522 93.6468C340.192 91.4591 340.545 90.1888 341.357 88.354C342.909 84.8607 343.403 80.8381 345.662 77.1684C352.895 65.2771 366.057 54.3739 389.381 54.9737C389.345 55.009 399.825 54.4092 406.212 57.5143Z" fill="#0B0754"/>
<path d="M341.851 86.4836C340.404 90.859 340.616 90.2239 339.522 93.6819C339.275 94.4229 339.063 95.1639 338.851 95.9402C343.438 93.2937 344.321 92.5527 349.578 89.9063C359.176 85.0016 369.479 81.0496 379.959 78.2268C380.171 77.6622 380.383 77.1329 380.594 76.6036C367.08 77.8386 353.742 80.2733 341.851 86.4836Z" fill="#130025"/>
<path d="M344.779 77.6624C370.326 64.2891 387.51 63.0894 416.833 64.9948V72.052C392.239 72.1578 367.927 78.8268 347.496 89.2361C341.992 92.0589 339.063 93.9643 339.028 93.9996L344.779 77.6624Z" fill="#7C9AF2"/>
<path d="M415.915 90.1181C426.614 90.1181 435.287 80.8447 435.287 69.4054C435.287 57.9661 426.614 48.6927 415.915 48.6927C405.217 48.6927 396.543 57.9661 396.543 69.4054C396.543 80.8447 405.217 90.1181 415.915 90.1181Z" fill="#8792CE"/>
<path d="M416.48 90.1181C426.847 90.1181 435.252 80.8447 435.252 69.4054C435.252 57.9661 426.847 48.6927 416.48 48.6927C406.112 48.6927 397.708 57.9661 397.708 69.4054C397.708 80.8447 406.112 90.1181 416.48 90.1181Z" fill="#EAE9F3"/>
<path d="M415.915 90.118C426.614 90.118 435.287 80.8446 435.287 69.4053C435.287 57.966 426.614 48.6926 415.915 48.6926C405.217 48.6926 396.543 57.966 396.543 69.4053C396.543 80.8446 405.217 90.118 415.915 90.118Z" fill="#4951EC"/>
<path d="M416.48 90.118C426.847 90.118 435.252 80.8446 435.252 69.4053C435.252 57.966 426.847 48.6926 416.48 48.6926C406.112 48.6926 397.708 57.966 397.708 69.4053C397.708 80.8446 406.112 90.118 416.48 90.118Z" fill="#92B5F9"/>
<path d="M409.317 65.4533C409.317 58.5726 412.351 52.4682 417.044 48.7279C416.868 48.7279 416.656 48.7279 416.48 48.7279C406.106 48.7279 397.708 58.008 397.708 69.4406C397.708 80.8731 406.106 90.1533 416.48 90.1533C420.608 90.1533 424.419 88.6712 427.524 86.2013C417.432 85.8131 409.317 76.6741 409.317 65.4533Z" fill="#EAE9F3"/>
<path d="M419.585 68.5233C419.585 70.2171 418.35 71.5932 416.797 71.5932C415.245 71.5932 414.01 70.2171 414.01 68.5233C414.01 66.8296 415.245 65.4535 416.797 65.4535C418.35 65.4535 419.585 66.8296 419.585 68.5233Z" fill="#7C9AF2"/>
<path d="M199.755 163.301C199.508 163.301 199.261 163.23 199.014 163.089C198.415 162.665 198.273 161.889 198.697 161.289L247.779 90.1534C248.203 89.5536 248.979 89.4124 249.579 89.8359C250.179 90.2593 250.32 91.0356 249.896 91.6354L200.814 162.736C200.567 163.089 200.179 163.301 199.755 163.301Z" fill="#4951EC"/>
<path d="M115.529 252.962C115.211 252.962 114.893 252.856 114.646 252.609C114.117 252.115 114.082 251.303 114.576 250.774L196.086 163.654C196.58 163.124 197.391 163.089 197.921 163.583C198.45 164.077 198.485 164.889 197.991 165.418L116.481 252.538C116.199 252.82 115.846 252.962 115.529 252.962Z" fill="#4951EC"/>
<path d="M197.003 165.841C196.756 165.841 196.474 165.771 196.262 165.594L130.701 118.629C130.137 118.206 129.996 117.394 130.419 116.829C130.842 116.265 131.654 116.124 132.219 116.547L197.779 163.512C198.344 163.936 198.485 164.747 198.062 165.312C197.815 165.665 197.391 165.841 197.003 165.841Z" fill="#4951EC"/>
<path d="M231.971 315.77C231.371 315.77 230.842 315.382 230.701 314.782L195.733 164.853C195.556 164.147 196.015 163.477 196.686 163.301C197.391 163.124 198.062 163.583 198.238 164.253L233.206 314.182C233.383 314.888 232.924 315.558 232.254 315.735C232.148 315.77 232.077 315.77 231.971 315.77Z" fill="#4951EC"/>
<path d="M211.076 168.299C213.137 160.539 208.517 152.578 200.757 150.517C192.997 148.456 185.036 153.076 182.975 160.836C180.914 168.596 185.533 176.557 193.293 178.618C201.053 180.679 209.015 176.059 211.076 168.299Z" fill="#99B4FF"/>
<path d="M206.283 163.83C206.283 168.946 202.119 173.11 197.003 173.11C191.887 173.11 187.723 168.946 187.723 163.83C187.723 158.713 191.887 154.55 197.003 154.55C202.119 154.55 206.283 158.713 206.283 163.83Z" fill="#BADCFF"/>
<path d="M128.549 150.386H66.4815C62.7765 150.386 59.7419 147.387 59.7419 143.646V91.4942C59.7419 87.7892 62.7412 84.7546 66.4815 84.7546H128.549C132.254 84.7546 135.289 87.7539 135.289 91.4942V143.682C135.289 147.387 132.254 150.386 128.549 150.386Z" fill="#BED1F9"/>
<path d="M131.548 85.4604C132.007 86.3779 132.254 87.3659 132.254 88.4597V140.647C132.254 144.352 129.255 147.387 125.514 147.387H63.4469C62.3883 147.387 61.3651 147.14 60.4476 146.681C61.5415 148.904 63.8351 150.421 66.4815 150.421H128.549C132.254 150.421 135.288 147.422 135.288 143.682V91.4943C135.288 88.8479 133.771 86.5543 131.548 85.4604Z" fill="#4951EC"/>
<path d="M128.549 279.673H66.4815C62.7765 279.673 59.7419 276.673 59.7419 272.933V220.746C59.7419 217.041 62.7412 214.006 66.4815 214.006H128.549C132.254 214.006 135.289 217.005 135.289 220.746V272.933C135.289 276.638 132.254 279.673 128.549 279.673Z" fill="#BED1F9"/>
<path d="M131.548 214.712C132.007 215.629 132.254 216.617 132.254 217.711V269.898C132.254 273.603 129.255 276.638 125.514 276.638H63.4469C62.3883 276.638 61.3651 276.391 60.4476 275.932C61.5415 278.155 63.8351 279.673 66.4815 279.673H128.549C132.254 279.673 135.288 276.673 135.288 272.933V220.746C135.288 218.099 133.771 215.806 131.548 214.712Z" fill="#4951EC"/>
<path d="M209.882 102.221H281.653C285.641 102.221 288.852 99.01 288.852 95.0228V43.7527C288.852 39.7654 285.641 36.5544 281.653 36.5544H209.882C205.895 36.5544 202.684 39.7654 202.684 43.7527V95.0228C202.684 99.01 205.895 102.221 209.882 102.221Z" fill="#BED1F9"/>
<path d="M206.954 37.2603C206.46 38.1777 206.142 39.1657 206.142 40.2595V92.447C206.142 96.152 209.6 99.1866 213.834 99.1866H284.653C285.888 99.1866 287.017 98.9396 288.075 98.4809C286.805 100.704 284.194 102.221 281.195 102.221H210.376C206.142 102.221 202.684 99.2218 202.684 95.4816V43.2941C202.684 40.6477 204.413 38.3541 206.954 37.2603Z" fill="#4951EC"/>
<path d="M200.814 291.882H272.585C276.572 291.882 279.783 295.093 279.783 299.08V350.35C279.783 354.337 276.572 357.548 272.585 357.548H200.814C196.827 357.548 193.616 354.337 193.616 350.35V299.08C193.616 295.093 196.827 291.882 200.814 291.882Z" fill="#BED1F9"/>
<path d="M197.885 356.807C197.391 355.925 197.074 354.902 197.074 353.808V301.656C197.074 297.951 200.532 294.916 204.766 294.916H275.584C276.819 294.916 277.948 295.163 279.007 295.622C277.737 293.399 275.126 291.882 272.126 291.882H201.308C197.074 291.882 193.616 294.881 193.616 298.621V350.809C193.616 353.42 195.38 355.713 197.885 356.807Z" fill="#4951EC"/>
<path d="M87.0883 104.444C87.0883 105.679 86.1003 106.667 84.8653 106.667C83.6303 106.667 82.6423 105.679 82.6423 104.444C82.6423 103.209 83.6303 102.221 84.8653 102.221C86.1003 102.186 87.0883 103.209 87.0883 104.444Z" fill="#7C9AF2"/>
<path d="M112.071 98.1635C112.071 98.9398 111.436 99.5749 110.659 99.5749C109.883 99.5749 109.248 98.9398 109.248 98.1635C109.248 97.3872 109.883 96.7521 110.659 96.7521C111.471 96.7521 112.071 97.3872 112.071 98.1635Z" fill="#7C9AF2"/>
<path d="M96.0509 138.389C85.3241 138.389 76.6085 129.673 76.6085 118.947C76.6085 114.112 78.3728 109.49 81.5838 105.961L82.0778 105.432L82.4307 106.067C82.6424 106.455 82.9599 106.773 83.3128 107.02L83.8068 107.338L83.4187 107.796C80.7017 110.866 79.1844 114.818 79.1844 118.947C79.1844 128.227 86.7355 135.778 96.0156 135.778C104.837 135.778 112.106 129.003 112.812 120.287C109.565 119.652 107.201 116.794 107.201 113.442V101.092L108.718 98.7985L109.177 99.3631C109.424 99.6806 109.777 99.9276 110.2 100.033L110.906 100.21L109.812 101.868V113.442C109.812 115.841 111.788 117.817 114.188 117.817C116.587 117.817 118.563 115.841 118.563 113.442V101.904L117.328 100.21L118.034 99.9982C118.422 99.857 118.775 99.61 119.022 99.2925L119.445 98.6926L121.21 101.057V113.477C121.21 116.865 118.775 119.723 115.493 120.323C114.752 130.485 106.319 138.389 96.0509 138.389Z" fill="#7C9AF2"/>
<path d="M118.81 98.1635C118.81 98.9398 118.175 99.5749 117.399 99.5749C116.622 99.5749 115.987 98.9398 115.987 98.1635C115.987 97.3872 116.622 96.7521 117.399 96.7521C118.175 96.7521 118.81 97.3872 118.81 98.1635Z" fill="#7C9AF2"/>
<path d="M104.096 115.03H98.8032V109.737H93.0164V115.03H87.7235V120.817H93.0164V126.11H98.8032V120.817H104.096V115.03Z" fill="#7C9AF2"/>
<path d="M258.788 70.3582H257.095L253.601 65.5594L250.955 76.3921L248.944 57.5848L243.51 69.8642L241.11 65.5241L238.076 70.9934L233.912 65.9123L232.042 75.1571L230.277 59.2433L224.314 70.0407H209.918C209.565 70.0407 209.247 70.323 209.247 70.7111C209.247 71.064 209.529 71.3815 209.918 71.3815H225.69L228.937 65.4888L231.442 88.0364L235.076 70.1112L238.428 74.2044L241.11 69.3702L243.721 74.0985L247.779 64.9948L250.249 87.8952L254.625 69.9348L255.895 71.6638H259.635C259.318 71.2404 259.035 70.817 258.788 70.3582Z" fill="#7C9AF2"/>
<path d="M271.491 61.5721C271.491 61.5721 273.714 58.4669 278.125 58.4669C282.077 58.4669 284.758 61.6426 284.758 65.3476C284.758 69.6172 281.053 74.6983 271.456 79.109C261.858 74.6983 258.153 69.6172 258.153 65.3476C258.153 61.6426 260.87 58.4669 264.787 58.4669C269.268 58.4669 271.491 61.5721 271.491 61.5721Z" fill="#FA7167"/>
<path opacity="0.66" d="M252.543 335.424L218.351 331.049C216.163 330.766 214.646 328.79 214.928 326.603L217.257 308.536C217.539 306.349 219.515 304.831 221.703 305.114L255.895 309.489C258.082 309.771 259.6 311.747 259.317 313.935L256.989 332.001C256.706 334.154 254.73 335.706 252.543 335.424Z" fill="white"/>
<path d="M231.689 312.03L230.771 309.913C230.489 309.313 229.889 308.925 229.219 308.925H213.411C212.493 308.925 211.717 309.666 211.717 310.618V321.345H211.752V341.529C211.752 342.446 212.493 343.222 213.446 343.222H259.988C260.905 343.222 261.682 342.481 261.682 341.529V314.711C261.682 313.794 260.941 313.018 259.988 313.018H233.206C232.536 313.053 231.936 312.665 231.689 312.03Z" fill="#7C9AF2"/>
<path d="M246.897 328.473C246.897 333.625 242.733 337.788 237.582 337.788C232.43 337.788 228.266 333.625 228.266 328.473C228.266 323.321 232.43 319.157 237.582 319.157C242.733 319.157 246.897 323.321 246.897 328.473Z" fill="#EAE9F3"/>
<path d="M244.815 325.932H240.157V321.275H235.006V325.932H230.348V331.084H235.006V335.742H240.157V331.084H244.815V325.932Z" fill="#FA7167"/>
<path d="M97.1066 239.935C98.9117 238.13 98.9117 235.203 97.1066 233.398C95.3014 231.593 92.3747 231.593 90.5695 233.398C88.7644 235.203 88.7644 238.13 90.5695 239.935C92.3747 241.74 95.3014 241.74 97.1066 239.935Z" fill="#FA7167"/>
<path d="M100.878 249.189H107.583V242.732H100.878V249.189Z" fill="#7C9AF2"/>
<path d="M101.867 251.386H106.595V249.587H101.867V251.386Z" fill="#7C9AF2"/>
<path d="M100.144 237.4C100.144 235.954 99.6852 234.578 98.9442 233.448V229.002C100.003 229.002 100.885 228.12 100.885 227.062V223.533H107.589V227.062C107.589 228.12 108.471 229.002 109.53 229.002V240.435C109.53 241.423 108.718 242.235 107.73 242.235H100.744C100.003 242.235 99.3324 241.776 99.0854 241.105C99.7558 240.047 100.144 238.777 100.144 237.4Z" fill="#7C9AF2"/>
<path d="M99.2553 223.561H109.206V221.197H99.2553V223.561Z" fill="#7C9AF2"/>
<path d="M86.0651 236.73C86.0298 236.942 86.0298 237.189 86.0298 237.4C86.0298 240.788 88.4292 243.611 91.6049 244.281C90.6169 244.987 89.8406 245.94 89.4172 247.139C88.6409 249.221 88.9938 251.515 89.9465 253.455C91.0756 255.784 93.0164 257.619 95.2394 258.925L94.3925 261.853C82.8188 258.607 77.8788 245.763 86.0651 236.73Z" fill="#7C9AF2"/>
<path d="M89.0258 265.347H98.6941V258.854H89.0258V265.347Z" fill="#7C9AF2"/>
<path d="M80.9133 268.805H116.869V267.746C116.869 266.441 115.811 265.347 114.47 265.347H83.3127C82.0072 265.347 80.9133 266.405 80.9133 267.746V268.805Z" fill="#7C9AF2"/>
<path d="M95.0584 256.866H113.548V253.62H95.0584V256.866Z" fill="white"/>
<path d="M419.444 171.099C419.444 171.099 415.88 210.478 421.243 240.47C422.584 248.021 443.403 251.338 454.765 259.913C473.713 274.168 486.91 293.434 490.297 301.091C497.99 297.633 497.919 263.018 493.72 249.292C489.168 240.188 419.444 171.099 419.444 171.099Z" fill="#DDE8FE"/>
<path d="M530.099 220.745L456.811 211.889L410.905 299.362H470.361L530.099 220.745Z" fill="#0B0754"/>
<path opacity="0.44" d="M470.361 299.362L530.135 220.745L456.847 211.889L455.541 214.394C467.009 217.393 489.168 224.415 492.45 234.613C495.978 245.481 470.361 283.589 459.281 299.397H470.361V299.362Z" fill="#0B0754"/>
<path d="M454.13 207.902L407.411 297.809L410.905 299.362L456.811 211.889L530.1 220.746L525.654 217.252L454.13 207.902Z" fill="#4951EC"/>
<path d="M584.334 205.961L588.462 221.628L601.659 216.511L599.26 202.644L584.334 205.961Z" fill="#FB9390"/>
<path d="M525.407 170.428C524.277 168.805 516.55 158.89 515.209 159.807C513.904 160.725 518.632 167.394 519.373 168.417C519.373 168.417 516.656 168.205 515.315 171.24C514.433 173.286 520.043 183.025 522.407 186.871C524.454 186.236 527.524 183.766 527.418 181.614C527.418 177.662 526.253 171.663 525.407 170.428Z" fill="#FB9390"/>
<path opacity="0.53" d="M595.872 203.385L584.334 205.961L585.816 211.677C588.709 211.183 591.708 209.595 593.508 206.49C594.002 205.714 594.919 204.62 595.872 203.385Z" fill="#EF7F7F"/>
<path d="M580.488 440.928L578.9 449.926L571.843 450.42L573.042 434.682L580.488 440.928Z" fill="#FB9390"/>
<path d="M580.135 448.514C580.135 448.514 573.607 448.62 572.16 447.491C570.714 446.362 569.232 448.55 566.903 451.478C564.574 454.407 555.964 454.054 554.906 456.348C554.094 458.112 579.711 457.583 581.017 457.547C581.934 457.547 580.135 448.514 580.135 448.514Z" fill="#0B0754"/>
<path d="M599.683 439.516L598.095 448.514L591.038 449.008L592.238 433.271L599.683 439.516Z" fill="#FB9390"/>
<path d="M599.33 447.138C599.33 447.138 592.802 447.244 591.356 446.115C589.909 444.986 588.427 447.173 586.098 450.102C583.769 453.031 575.618 453.454 574.489 455.713C573.325 457.971 599.083 457.618 599.648 456.877C600.212 456.171 599.33 447.138 599.33 447.138Z" fill="#0B0754"/>
<path d="M584.722 317.322L585.463 381.613L590.473 444.139L599.859 445.727C599.859 445.727 607.658 335.283 615.738 323.109C623.818 310.936 614.679 290.787 614.609 290.752L584.722 317.322Z" fill="#97AAE8"/>
<path d="M611.292 320.886C614.785 315.629 617.326 308.677 616.691 300.773C616.479 298.197 612.351 295.375 611.857 293.187L584.722 317.322L585.463 381.613L588.25 416.44C593.261 386.447 602.541 343.398 604.411 331.048C605.188 329.919 607.869 326.073 611.292 320.886Z" fill="#4951EC"/>
<path d="M573.924 287.294C573.924 287.294 569.161 345.939 568.773 365.558C568.385 385.6 570.89 445.691 570.89 445.691L581.934 445.727C581.934 445.727 598.342 347.986 601.059 329.708C601.059 329.708 599.507 332.354 607.587 320.145C615.667 307.972 609.739 290.787 609.704 290.752L595.343 296.116L573.924 287.294Z" fill="#99B4FF"/>
<path d="M623.713 258.819L613.515 275.932L617.961 286.13C617.961 286.13 644.99 264.853 642.696 259.03C640.755 254.126 613.727 225.121 606.423 217.146C605.117 215.7 603.035 215.206 601.2 215.841L588.674 220.181C588.639 220.146 624.806 255.043 623.713 258.819Z" fill="#E8605D"/>
<path d="M577.665 215.594C577.665 215.594 574.454 298.127 566.232 314.852C566.232 314.852 603.6 309.348 620.748 309.348C620.748 309.348 620.36 239.447 612.068 223.956C603.741 208.431 585.71 211.289 577.665 215.594Z" fill="#FE9393"/>
<path d="M596.542 246.01C604.552 241.776 607.093 235.883 607.269 228.402C607.375 222.968 589.132 225.791 577.135 226.568C576.924 230.802 576.606 236.024 576.253 241.846C580.84 246.892 590.756 249.08 596.542 246.01Z" fill="#E8605D"/>
<path d="M535.463 219.087C535.463 219.087 561.327 241.246 581.934 240.435C602.541 239.623 605.258 234.648 607.022 229.143C608.787 223.639 597.037 216.123 585.251 213.865C573.466 211.606 552.435 211.818 549.224 208.854C546.013 205.89 529.394 183.484 528.018 179.602L518.032 183.872L535.463 219.087Z" fill="#FE9393"/>
<path d="M589.697 180.414C589.697 180.414 586.204 182.143 583.205 186.554C580.241 190.964 577.03 193.328 577.03 193.328L578.441 195.587C578.441 195.587 575.265 197.88 575.548 201.374C576.218 209.066 588.145 210.442 594.073 205.961C595.696 204.761 600.671 203.208 602.329 200.491C606.74 193.187 605.434 181.861 589.697 180.414Z" fill="#FB9390"/>
<path d="M595.554 196.892C595.554 196.892 591.602 189.553 593.473 184.401C593.473 184.401 589.132 184.331 585.639 182.355C579.358 178.791 586.98 165.594 596.437 175.015C596.437 175.015 595.625 168.629 602.294 169.758C608.963 170.887 611.398 173.569 610.198 179.92C608.998 186.271 611.75 183.449 613.797 187.154C615.844 190.859 605.117 204.161 600.106 204.655C595.096 205.149 595.096 205.149 595.096 205.149C595.096 205.149 602.259 201.127 600.247 198.092C598.236 195.058 595.554 196.892 595.554 196.892Z" fill="#0B0754"/>
<path d="M440.897 269.157C442.238 268.099 453.389 275.015 459.811 279.179C459.811 279.108 459.846 279.002 459.846 278.932C453.812 274.45 443.262 269.122 445.661 267.57C446.896 266.793 473.396 277.45 473.431 277.45C476.218 278.72 476.36 278.826 479.218 280.096C478.547 278.438 471.596 267.146 476.289 267.711L491.779 287.965C494.39 292.27 494.32 294.881 493.649 297.139C492.838 299.891 488.956 307.301 482.64 308.819C476.536 310.265 460.022 300.915 457.446 298.515C454.659 296.116 435.71 279.567 438.745 274.944C438.745 274.944 454.553 290.364 456.211 288.459C456.317 288 440.615 277.591 439.38 273.498C438.498 270.569 452.224 279.461 458.258 283.942C452.859 279.496 439.98 269.898 440.897 269.157Z" fill="#FB9390"/>
<path d="M153.249 457.302H104.625C94.0044 457.302 85.3947 448.692 85.3947 438.072V314.572C85.3947 303.951 94.0044 295.341 104.625 295.341H153.249C163.87 295.341 172.48 303.951 172.48 314.572V438.107C172.48 448.692 163.87 457.302 153.249 457.302Z" fill="#4951EC"/>
<path d="M153.249 295.304H150.779C161.4 295.304 170.01 303.914 170.01 314.535V438.07C170.01 448.691 161.4 457.3 150.779 457.3H153.249C163.87 457.3 172.48 448.691 172.48 438.07V314.57C172.48 303.914 163.87 295.304 153.249 295.304Z" fill="#4951EC"/>
<path d="M104.625 454.83C95.3805 454.83 87.8646 447.315 87.8646 438.07V314.57C87.8646 305.325 95.3805 297.809 104.625 297.809H153.249C162.494 297.809 170.01 305.325 170.01 314.57V438.105C170.01 447.35 162.494 454.866 153.249 454.866H104.625V454.83Z" fill="#BED1F9"/>
<path d="M137.829 306.419H121.456C120.962 306.419 120.539 306.031 120.539 305.502C120.539 305.008 120.927 304.584 121.456 304.584H137.829C138.323 304.584 138.746 304.972 138.746 305.502C138.746 305.996 138.323 306.419 137.829 306.419Z" fill="#7C9AF2"/>
<path d="M139.487 312.418H119.798C119.233 312.418 118.81 311.959 118.81 311.43C118.81 310.865 119.269 310.442 119.798 310.442H139.487C140.052 310.442 140.475 310.9 140.475 311.43C140.475 311.959 140.052 312.418 139.487 312.418Z" fill="#7C9AF2"/>
<path d="M114.329 311.43C114.329 312.171 113.729 312.806 112.953 312.806C112.212 312.806 111.577 312.206 111.577 311.43C111.577 310.689 112.176 310.053 112.953 310.053C113.729 310.053 114.329 310.689 114.329 311.43Z" fill="#7C9AF2"/>
<path d="M128.937 451.69C133.03 451.69 136.347 448.373 136.347 444.28C136.347 440.188 133.03 436.87 128.937 436.87C124.845 436.87 121.527 440.188 121.527 444.28C121.527 448.373 124.845 451.69 128.937 451.69Z" fill="#92B5F9"/>
<path d="M127.737 451.69C131.83 451.69 135.147 448.373 135.147 444.28C135.147 440.188 131.83 436.87 127.737 436.87C123.645 436.87 120.327 440.188 120.327 444.28C120.327 448.373 123.645 451.69 127.737 451.69Z" fill="#DDE8FE"/>
<path d="M161.188 432.601H96.4036C94.2159 432.601 92.4517 430.836 92.4517 428.649V328.684C92.4517 326.497 94.2159 324.732 96.4036 324.732H161.188C163.376 324.732 165.14 326.497 165.14 328.684V428.649C165.14 430.836 163.376 432.601 161.188 432.601Z" fill="#92B5F9"/>
<path d="M94.1101 428.507V328.861C94.1101 327.661 95.0628 326.708 96.2625 326.708H161.329C162.529 326.708 163.482 327.661 163.482 328.861V428.507C163.482 429.707 162.529 430.66 161.329 430.66H96.2625C95.0628 430.66 94.1101 429.707 94.1101 428.507Z" fill="white"/>
<path d="M161.506 326.673H96.0862C94.9924 326.673 94.075 327.732 94.075 329.002V344.069H163.482V329.002C163.482 327.732 162.6 326.673 161.506 326.673Z" fill="#BED1F9"/>
<path d="M149.756 347.28H110.306V349.926H149.756V347.28Z" fill="#7C9AF2"/>
<path d="M100.991 348.621L104.731 351.126V346.08L100.991 348.621Z" fill="#7C9AF2"/>
<path d="M156.319 348.621L152.614 351.126V346.08L156.319 348.621Z" fill="#7C9AF2"/>
<path d="M116.587 339.235H99.4383C97.674 339.235 96.2273 337.788 96.2273 336.024V334.33C96.2273 332.566 97.674 331.119 99.4383 331.119H116.587C118.351 331.119 119.798 332.566 119.798 334.33V336.024C119.798 337.823 118.351 339.235 116.587 339.235Z" fill="#7C9AF2"/>
<path d="M158.401 339.235H154.237C153.319 339.235 152.578 338.494 152.578 337.576V332.777C152.578 331.86 153.319 331.119 154.237 331.119H158.401C159.318 331.119 160.059 331.86 160.059 332.777V337.576C160.059 338.494 159.318 339.235 158.401 339.235Z" fill="#7C9AF2"/>
<path d="M156.919 332.46H155.719V337.718H156.919V332.46Z" fill="white"/>
<path d="M154.083 334.398V335.81H158.564V334.398H154.083Z" fill="white"/>
<path d="M105.26 360.653H97.5681V427.025H105.26V360.653Z" fill="#DDE8FE"/>
<path d="M114.47 360.653H106.778V427.025H114.47V360.653Z" fill="#DDE8FE"/>
<path d="M123.75 360.653H116.058V427.025H123.75V360.653Z" fill="#DDE8FE"/>
<path d="M133.03 360.653H125.338V427.025H133.03V360.653Z" fill="#DDE8FE"/>
<path d="M142.31 360.653H134.618V427.025H142.31V360.653Z" fill="#DDE8FE"/>
<path d="M151.591 360.653H143.898V427.025H151.591V360.653Z" fill="#DDE8FE"/>
<path d="M160.871 360.653H153.178V427.025H160.871V360.653Z" fill="#DDE8FE"/>
<path d="M105.26 353.031H97.5681V358.077H105.26V353.031Z" fill="#7C9AF2"/>
<path d="M114.47 353.031H106.778V358.077H114.47V353.031Z" fill="#7C9AF2"/>
<path d="M123.75 353.031H116.058V358.077H123.75V353.031Z" fill="#7C9AF2"/>
<path d="M133.03 353.031H125.338V358.077H133.03V353.031Z" fill="#7C9AF2"/>
<path d="M142.31 353.031H134.618V358.077H142.31V353.031Z" fill="#7C9AF2"/>
<path d="M151.591 353.031H143.898V358.077H151.591V353.031Z" fill="#FA7167"/>
<path d="M160.871 353.031H153.178V358.077H160.871V353.031Z" fill="#FA7167"/>
<path d="M161.612 368.275H96.2273V369.933H161.612V368.275Z" fill="white"/>
<path d="M161.612 378.19H96.2273V379.849H161.612V378.19Z" fill="white"/>
<path d="M161.612 388.105H96.2273V389.764H161.612V388.105Z" fill="white"/>
<path d="M161.612 398.021H96.2273V399.679H161.612V398.021Z" fill="white"/>
<path d="M161.612 407.901H96.2273V409.559H161.612V407.901Z" fill="white"/>
<path d="M161.47 417.816H96.0862V419.474H161.47V417.816Z" fill="white"/>
<path d="M127.914 380.448L121.633 377.731C121.845 378.014 129.749 387.647 129.537 387.4C131.125 383.836 134.653 375.932 136.276 372.297L127.914 380.448Z" fill="#FA7167"/>
</svg>
