<svg width="216" height="44" viewBox="0 0 216 44" fill="none" xmlns="http://www.w3.org/2000/svg">
<path d="M8.184 0.823999V35H0.024V0.823999H8.184ZM25.9871 9.512C29.8271 9.512 32.9471 10.728 35.3471 13.16C37.7471 15.56 38.9471 18.696 38.9471 22.568C38.9471 26.472 37.7311 29.656 35.2991 32.12C32.8991 34.552 29.7631 35.768 25.8911 35.768C21.9871 35.768 18.8191 34.552 16.3871 32.12C13.9871 29.688 12.7871 26.52 12.7871 22.616C12.7871 18.744 14.0031 15.592 16.4351 13.16C18.8991 10.728 22.0831 9.512 25.9871 9.512ZM25.7951 15.56C24.2591 15.56 23.0591 16.184 22.1951 17.432C21.3631 18.648 20.9471 20.376 20.9471 22.616C20.9471 24.92 21.3791 26.696 22.2431 27.944C23.1071 29.192 24.3231 29.816 25.8911 29.816C27.4591 29.816 28.6591 29.192 29.4911 27.944C30.3551 26.664 30.7871 24.872 30.7871 22.568C30.7871 20.328 30.3551 18.6 29.4911 17.384C28.6271 16.168 27.3951 15.56 25.7951 15.56ZM59.5549 10.232H67.3789V31.736C67.3789 35.96 66.3389 39.016 64.2589 40.904C62.1789 42.824 59.0429 43.784 54.8509 43.784C47.4589 43.784 43.4109 41.128 42.7069 35.816H50.8669C51.3149 37.64 52.6749 38.552 54.9469 38.552C56.7709 38.552 57.9869 38.088 58.5949 37.16C59.2029 36.232 59.5069 34.84 59.5069 32.984V30.248C57.7469 32.584 55.3629 33.752 52.3549 33.752C49.1229 33.752 46.5629 32.68 44.6749 30.536C42.8189 28.36 41.8909 25.432 41.8909 21.752C41.8909 18.072 42.8509 15.128 44.7709 12.92C46.7229 10.68 49.3149 9.56 52.5469 9.56C54.1789 9.56 55.5069 9.848 56.5309 10.424C57.5549 11 58.5629 11.976 59.5549 13.352V10.232ZM54.7069 15.704C53.2029 15.704 52.0189 16.248 51.1549 17.336C50.2909 18.392 49.8589 19.848 49.8589 21.704C49.8589 23.624 50.2909 25.144 51.1549 26.264C52.0509 27.352 53.2509 27.896 54.7549 27.896C56.3229 27.896 57.5229 27.368 58.3549 26.312C59.2189 25.224 59.6509 23.688 59.6509 21.704C59.6509 19.848 59.2029 18.392 58.3069 17.336C57.4429 16.248 56.2429 15.704 54.7069 15.704ZM84.6746 9.512C88.5146 9.512 91.6346 10.728 94.0346 13.16C96.4346 15.56 97.6346 18.696 97.6346 22.568C97.6346 26.472 96.4186 29.656 93.9866 32.12C91.5866 34.552 88.4506 35.768 84.5786 35.768C80.6746 35.768 77.5066 34.552 75.0746 32.12C72.6746 29.688 71.4746 26.52 71.4746 22.616C71.4746 18.744 72.6906 15.592 75.1226 13.16C77.5866 10.728 80.7706 9.512 84.6746 9.512ZM84.4826 15.56C82.9466 15.56 81.7466 16.184 80.8826 17.432C80.0506 18.648 79.6346 20.376 79.6346 22.616C79.6346 24.92 80.0666 26.696 80.9306 27.944C81.7946 29.192 83.0106 29.816 84.5786 29.816C86.1466 29.816 87.3466 29.192 88.1786 27.944C89.0426 26.664 89.4746 24.872 89.4746 22.568C89.4746 20.328 89.0426 18.6 88.1786 17.384C87.3146 16.168 86.0826 15.56 84.4826 15.56ZM111.186 26.36V35H102.498V26.36H111.186ZM124.982 10.232V13.496C126.87 10.872 129.398 9.56 132.566 9.56C135.99 9.56 138.326 10.888 139.574 13.544C140.822 12.136 142.006 11.128 143.126 10.52C144.246 9.88 145.686 9.56 147.446 9.56C150.262 9.56 152.422 10.376 153.926 12.008C155.43 13.64 156.182 15.864 156.182 18.68V35H147.974V20.6C147.974 17.592 146.838 16.088 144.566 16.088C143.35 16.088 142.406 16.488 141.734 17.288C141.062 18.056 140.726 19.112 140.726 20.456V35H132.566V20.312C132.566 18.968 132.342 17.912 131.894 17.144C131.446 16.376 130.582 15.992 129.302 15.992C127.926 15.992 126.918 16.456 126.278 17.384C125.638 18.28 125.318 19.464 125.318 20.936V35H117.158V10.232H124.982ZM186.843 24.584H168.411C168.443 26.408 168.955 27.832 169.947 28.856C170.971 29.848 172.347 30.344 174.075 30.344C176.123 30.344 177.675 29.384 178.731 27.464H186.363C185.563 30.12 184.075 32.168 181.899 33.608C179.755 35.048 177.115 35.768 173.979 35.768C170.043 35.768 166.795 34.616 164.235 32.312C161.707 29.976 160.443 26.84 160.443 22.904C160.443 19 161.675 15.816 164.139 13.352C166.603 10.856 169.787 9.608 173.691 9.608C177.755 9.608 180.955 10.888 183.291 13.448C185.659 15.976 186.843 19.448 186.843 23.864V24.584ZM178.827 19.928C178.699 18.456 178.187 17.288 177.291 16.424C176.427 15.528 175.243 15.08 173.739 15.08C170.763 15.08 169.019 16.696 168.507 19.928H178.827ZM215.707 0.823999V35H207.931V32.072C206.235 34.44 203.867 35.624 200.827 35.624C197.531 35.624 194.875 34.424 192.859 32.024C190.843 29.624 189.835 26.44 189.835 22.472C189.835 18.6 190.795 15.496 192.715 13.16C194.667 10.792 197.243 9.608 200.443 9.608C203.451 9.608 205.835 10.776 207.595 13.112V0.823999H215.707ZM202.939 15.896C201.371 15.896 200.155 16.472 199.291 17.624C198.459 18.776 198.043 20.408 198.043 22.52C198.043 24.632 198.459 26.264 199.291 27.416C200.155 28.568 201.371 29.144 202.939 29.144C204.507 29.144 205.723 28.568 206.587 27.416C207.451 26.264 207.883 24.648 207.883 22.568C207.883 20.488 207.435 18.856 206.539 17.672C205.675 16.488 204.475 15.896 202.939 15.896Z" fill="#585858"/>
</svg>
