<svg width="173" height="36" viewBox="0 0 173 36" fill="none" xmlns="http://www.w3.org/2000/svg">
<path d="M6.9472 0.659198V28H0.4192V0.659198H6.9472ZM21.1897 7.6096C24.2617 7.6096 26.7577 8.5824 28.6777 10.528C30.5977 12.448 31.5577 14.9568 31.5577 18.0544C31.5577 21.1776 30.5849 23.7248 28.6393 25.696C26.7193 27.6416 24.2105 28.6144 21.1129 28.6144C17.9897 28.6144 15.4553 27.6416 13.5097 25.696C11.5897 23.7504 10.6297 21.216 10.6297 18.0928C10.6297 14.9952 11.6025 12.4736 13.5481 10.528C15.5193 8.5824 18.0665 7.6096 21.1897 7.6096ZM21.0361 12.448C19.8073 12.448 18.8473 12.9472 18.1561 13.9456C17.4905 14.9184 17.1577 16.3008 17.1577 18.0928C17.1577 19.936 17.5033 21.3568 18.1945 22.3552C18.8857 23.3536 19.8585 23.8528 21.1129 23.8528C22.3673 23.8528 23.3273 23.3536 23.9929 22.3552C24.6841 21.3312 25.0297 19.8976 25.0297 18.0544C25.0297 16.2624 24.6841 14.88 23.9929 13.9072C23.3017 12.9344 22.3161 12.448 21.0361 12.448ZM48.0439 8.1856H54.3031V25.3888C54.3031 28.768 53.4711 31.2128 51.8071 32.7232C50.1431 34.2592 47.6343 35.0272 44.2807 35.0272C38.3671 35.0272 35.1287 32.9024 34.5655 28.6528H41.0935C41.4519 30.112 42.5399 30.8416 44.3575 30.8416C45.8167 30.8416 46.7895 30.4704 47.2759 29.728C47.7623 28.9856 48.0055 27.872 48.0055 26.3872V24.1984C46.5975 26.0672 44.6903 27.0016 42.2839 27.0016C39.6983 27.0016 37.6503 26.144 36.1399 24.4288C34.6551 22.688 33.9127 20.3456 33.9127 17.4016C33.9127 14.4576 34.6807 12.1024 36.2167 10.336C37.7783 8.544 39.8519 7.648 42.4375 7.648C43.7431 7.648 44.8055 7.8784 45.6247 8.3392C46.4439 8.8 47.2503 9.5808 48.0439 10.6816V8.1856ZM44.1655 12.5632C42.9623 12.5632 42.0151 12.9984 41.3239 13.8688C40.6327 14.7136 40.2871 15.8784 40.2871 17.3632C40.2871 18.8992 40.6327 20.1152 41.3239 21.0112C42.0407 21.8816 43.0007 22.3168 44.2039 22.3168C45.4583 22.3168 46.4183 21.8944 47.0839 21.0496C47.7751 20.1792 48.1207 18.9504 48.1207 17.3632C48.1207 15.8784 47.7623 14.7136 47.0455 13.8688C46.3543 12.9984 45.3943 12.5632 44.1655 12.5632ZM68.1397 7.6096C71.2117 7.6096 73.7077 8.5824 75.6277 10.528C77.5477 12.448 78.5077 14.9568 78.5077 18.0544C78.5077 21.1776 77.5349 23.7248 75.5893 25.696C73.6693 27.6416 71.1605 28.6144 68.0629 28.6144C64.9397 28.6144 62.4053 27.6416 60.4597 25.696C58.5397 23.7504 57.5797 21.216 57.5797 18.0928C57.5797 14.9952 58.5525 12.4736 60.4981 10.528C62.4693 8.5824 65.0165 7.6096 68.1397 7.6096ZM67.9861 12.448C66.7573 12.448 65.7973 12.9472 65.1061 13.9456C64.4405 14.9184 64.1077 16.3008 64.1077 18.0928C64.1077 19.936 64.4533 21.3568 65.1445 22.3552C65.8357 23.3536 66.8085 23.8528 68.0629 23.8528C69.3173 23.8528 70.2773 23.3536 70.9429 22.3552C71.6341 21.3312 71.9797 19.8976 71.9797 18.0544C71.9797 16.2624 71.6341 14.88 70.9429 13.9072C70.2517 12.9344 69.2661 12.448 67.9861 12.448ZM89.3491 21.088V28H82.3987V21.088H89.3491ZM100.386 8.1856V10.7968C101.896 8.6976 103.918 7.648 106.453 7.648C109.192 7.648 111.061 8.7104 112.059 10.8352C113.058 9.7088 114.005 8.9024 114.901 8.416C115.797 7.904 116.949 7.648 118.357 7.648C120.61 7.648 122.338 8.3008 123.541 9.6064C124.744 10.912 125.346 12.6912 125.346 14.944V28H118.779V16.48C118.779 14.0736 117.87 12.8704 116.053 12.8704C115.08 12.8704 114.325 13.1904 113.787 13.8304C113.25 14.4448 112.981 15.2896 112.981 16.3648V28H106.453V16.2496C106.453 15.1744 106.274 14.3296 105.915 13.7152C105.557 13.1008 104.866 12.7936 103.842 12.7936C102.741 12.7936 101.934 13.1648 101.422 13.9072C100.91 14.624 100.654 15.5712 100.654 16.7488V28H94.1263V8.1856H100.386ZM149.875 19.6672H135.129C135.155 21.1264 135.564 22.2656 136.358 23.0848C137.177 23.8784 138.278 24.2752 139.66 24.2752C141.299 24.2752 142.54 23.5072 143.385 21.9712H149.491C148.851 24.096 147.66 25.7344 145.92 26.8864C144.204 28.0384 142.092 28.6144 139.584 28.6144C136.435 28.6144 133.836 27.6928 131.788 25.8496C129.766 23.9808 128.755 21.472 128.755 18.3232C128.755 15.2 129.74 12.6528 131.712 10.6816C133.683 8.6848 136.23 7.6864 139.353 7.6864C142.604 7.6864 145.164 8.7104 147.033 10.7584C148.928 12.7808 149.875 15.5584 149.875 19.0912V19.6672ZM143.462 15.9424C143.36 14.7648 142.95 13.8304 142.233 13.1392C141.542 12.4224 140.595 12.064 139.392 12.064C137.011 12.064 135.616 13.3568 135.206 15.9424H143.462ZM172.966 0.659198V28H166.745V25.6576C165.388 27.552 163.494 28.4992 161.062 28.4992C158.425 28.4992 156.3 27.5392 154.687 25.6192C153.075 23.6992 152.268 21.152 152.268 17.9776C152.268 14.88 153.036 12.3968 154.572 10.528C156.134 8.6336 158.195 7.6864 160.755 7.6864C163.161 7.6864 165.068 8.6208 166.476 10.4896V0.659198H172.966ZM162.751 12.7168C161.497 12.7168 160.524 13.1776 159.833 14.0992C159.167 15.0208 158.835 16.3264 158.835 18.016C158.835 19.7056 159.167 21.0112 159.833 21.9328C160.524 22.8544 161.497 23.3152 162.751 23.3152C164.006 23.3152 164.979 22.8544 165.67 21.9328C166.361 21.0112 166.707 19.7184 166.707 18.0544C166.707 16.3904 166.348 15.0848 165.631 14.1376C164.94 13.1904 163.98 12.7168 162.751 12.7168Z" fill="white"/>
</svg>
