<svg width="430" height="159" viewBox="0 0 430 159" fill="none" xmlns="http://www.w3.org/2000/svg" xmlns:xlink="http://www.w3.org/1999/xlink">
<path fill-rule="evenodd" clip-rule="evenodd" d="M0 159H429.999L429.999 115.109L429.997 94.2791L429.992 84.8447L429.983 78.4723L429.973 73.5948L429.959 69.6159L429.942 66.2413L429.922 63.3031L429.9 60.6957L429.875 58.3485L429.846 56.2118L429.815 54.249L429.781 52.4326L429.744 50.7414L429.705 49.1583L429.662 47.6698L429.616 46.2648L429.568 44.9342L429.516 43.6701L429.462 42.466L429.404 41.3165L429.344 40.2165L429.28 39.1621L429.214 38.1494L429.145 37.1754L429.072 36.2372L428.997 35.3322L428.919 34.4583L428.837 33.6133L428.753 32.7955L428.665 32.0033L428.575 31.2352L428.481 30.4897L428.384 29.7657L428.284 29.0621L428.181 28.3777L428.074 27.7118L427.965 27.0633L427.852 26.4315L427.736 25.8157L427.617 25.215L427.494 24.629L427.368 24.0569L427.239 23.4983L427.106 22.9526L426.97 22.4192L426.831 21.8979L426.688 21.388L426.542 20.8893L426.392 20.4013L426.239 19.9237L426.082 19.4561L425.922 18.9983L425.758 18.5499L425.59 18.1106L425.419 17.6802L425.244 17.2584L425.065 16.845L424.882 16.4397L424.695 16.0423L424.505 15.6527L424.311 15.2705L424.112 14.8957L423.91 14.528L423.703 14.1673L423.493 13.8134L423.278 13.4662L423.059 13.1254L422.835 12.7911L422.608 12.4629L422.375 12.1409L422.139 11.8248L421.898 11.5145L421.652 11.21L421.401 10.9111L421.146 10.6177L420.886 10.3298L420.621 10.0471L420.351 9.76967L420.076 9.49736L419.795 9.2301L419.51 8.9678L419.219 8.71037L418.922 8.45775L418.62 8.20985L418.312 7.9666L417.999 7.72793L417.68 7.49378L417.354 7.26409L417.022 7.03878L416.685 6.8178L416.34 6.60109L415.989 6.3886L415.632 6.18027L415.267 5.97605L414.895 5.77588L414.517 5.57973L414.13 5.38753L413.736 5.19926L413.335 5.01486L412.925 4.83429L412.507 4.6575L412.08 4.48447L411.645 4.31515L411.2 4.14951L410.747 3.9875L410.284 3.8291L409.81 3.67427L409.327 3.52297L408.833 3.37519L408.328 3.23088L407.812 3.09001L407.284 2.95257L406.744 2.81852L406.191 2.68784L405.625 2.56049L405.045 2.43647L404.451 2.31573L403.842 2.19826L403.217 2.08404L402.577 1.97305L401.918 1.86526L401.242 1.76066L400.547 1.65923L399.832 1.56094L399.097 1.46578L398.339 1.37374L397.557 1.2848L396.751 1.19893L395.918 1.11614L395.057 1.03639L394.166 0.95969L393.243 0.886011L392.285 0.815345L391.29 0.74768L390.255 0.683005L389.175 0.621308L388.048 0.56258L386.869 0.506811L385.632 0.45399L384.332 0.40411L382.961 0.357163L381.511 0.31314L379.971 0.272034L378.329 0.233839L376.571 0.198549L374.676 0.166157L372.62 0.136659L370.371 0.110049L367.886 0.0863241L365.105 0.0654794L361.939 0.047512L358.255 0.032419L353.824 0.0201978L348.221 0.0108466L340.469 0.00436383L327.192 0.000748499L118.868 0L95.277 0.00211822L85.449 0.0071035L78.9129 0.0149566L73.9444 0.0256789L69.9071 0.0392719L66.4917 0.055738L63.5231 0.0750798L60.8923 0.0973003L58.5265 0.122403L56.3745 0.150392L54.399 0.181272L52.5718 0.215049L50.8712 0.251726L49.2801 0.291311L47.7845 0.333809L46.3732 0.379229L45.0369 0.427576L43.7678 0.47886L42.5592 0.533089L41.4055 0.590271L40.3018 0.650416L39.2438 0.713534L38.228 0.779637L37.251 0.848734L36.31 0.920838L35.4025 0.995961L34.5261 1.07412L33.6789 1.15532L32.8591 1.23957L32.0648 1.32691L31.2948 1.41733L30.5476 1.51086L29.8219 1.60751L29.1167 1.7073L28.4309 1.81024L27.7635 1.91636L27.1137 2.02568L26.4806 2.13821L25.8635 2.25398L25.2617 2.37301L24.6745 2.49531L24.1013 2.62092L23.5416 2.74986L22.9949 2.88215L22.4606 3.01782L21.9383 3.15689L21.4276 3.2994L20.928 3.44536L20.4391 3.59482L19.9607 3.7478L19.4924 3.90434L19.0338 4.06446L18.5846 4.2282L18.1446 4.39559L17.7135 4.56668L17.291 4.7415L16.8769 4.92009L16.471 5.10248L16.073 5.28873L15.6827 5.47887L15.3 5.67295L14.9246 5.87102L14.5564 6.07311L14.1951 6.27929L13.8407 6.48961L13.4929 6.7041L13.1517 6.92285L12.8168 7.14589L12.4882 7.37328L12.1656 7.6051L11.8491 7.8414L11.5384 8.08224L11.2334 8.32771L10.934 8.57786L10.6402 8.83277L10.3518 9.09251L10.0688 9.35718L9.79092 9.62684L9.51821 9.90158L9.25055 10.1815L8.98785 10.4667L8.73004 10.7572L8.47703 11.0532L8.22876 11.3548L7.98514 11.662L7.74612 11.975L7.51161 12.294L7.28156 12.6189L7.0559 12.95L6.83458 13.2874L6.61754 13.6313L6.40471 13.9817L6.19605 14.3388L5.9915 14.7028L5.79102 15.0739L5.59455 15.4522L5.40204 15.8379L5.21345 16.2312L5.02875 16.6323L4.84787 17.0415L4.67079 17.4589L4.49746 17.8848L4.32785 18.3194L4.16191 18.763L3.99961 19.2159L3.84092 19.6783L3.68581 20.1506L3.53424 20.6332L3.38617 21.1262L3.24159 21.6302L3.10045 22.1455L2.96274 22.6725L2.82842 23.2117L2.69747 23.7636L2.56986 24.3285L2.44556 24.9072L2.32457 25.5001L2.20684 26.108L2.09236 26.7314L1.98112 27.371L1.87307 28.0277L1.76822 28.7024L1.66653 29.3958L1.56799 30.109L1.47259 30.8431L1.3803 31.5993L1.29111 32.3788L1.205 33.183L1.12196 34.0135L1.04198 34.8721L0.965031 35.7606L0.891111 36.6812L0.820206 37.6362L0.752303 38.6283L0.68739 39.6605L0.625456 40.7362L0.566492 41.8593L0.510487 43.0342L0.457432 44.2662L0.407319 45.5612L0.360138 46.9263L0.315882 48.3699L0.274545 49.9021L0.236118 51.535L0.200597 53.2837L0.167974 55.167L0.138246 57.209L0.111406 59.441L0.0874516 61.9053L0.0663777 64.6602L0.0481813 67.7909L0.0328594 71.4276L0.0204097 75.787L0.01083 81.2722L0.00411885 88.7879L0.000275203 101.309L0 159Z" fill="white"/>
</svg>
