<svg width="230" height="165" viewBox="0 0 230 165" fill="none" xmlns="http://www.w3.org/2000/svg">
<path d="M136.135 56.0805C144.552 40.871 157.989 26.0306 179.475 17.6875" stroke="url(#paint0_linear)" stroke-width="2.21498" stroke-miterlimit="10"/>
<path d="M143.517 45.6694C143.517 45.6694 170.687 30.7552 175.191 40.1319C179.769 49.4348 143.517 45.6694 143.517 45.6694Z" fill="url(#paint1_linear)"/>
<path d="M153.411 32.9711C153.411 32.9711 180.582 18.0569 185.086 27.4337C189.663 36.7366 153.411 32.9711 153.411 32.9711Z" fill="url(#paint2_linear)"/>
<path d="M159.169 27.7284C159.169 27.7284 165.888 -2.46915 175.929 0.262661C185.971 2.99447 159.169 27.7284 159.169 27.7284Z" fill="url(#paint3_linear)"/>
<path d="M138.423 50.7645C138.423 50.7645 127.052 16.9491 138.57 13.7005C150.088 10.4518 138.423 50.7645 138.423 50.7645Z" fill="url(#paint4_linear)"/>
<path d="M151.639 34.8892C151.639 34.8892 141.819 5.57767 151.787 2.69819C161.754 -0.107446 151.639 34.8892 151.639 34.8892Z" fill="url(#paint5_linear)"/>
<path d="M170.171 22.19C170.171 22.19 194.092 2.55048 200.294 10.8197C206.496 19.1628 170.171 22.19 170.171 22.19Z" fill="url(#paint6_linear)"/>
<path d="M152.744 29.9425L186.56 36.366C190.62 37.1043 193.278 41.0174 192.466 45.0782L188.701 64.7177C187.962 68.7785 184.049 71.4365 179.989 70.6243L146.173 64.2009C142.112 63.4625 139.454 59.5494 140.267 55.4886L144.032 35.8491C144.844 31.8622 148.683 29.2042 152.744 29.9425ZM147.428 52.8306C146.911 55.6363 148.683 58.2943 151.489 58.8111L177.109 63.684C179.915 64.2009 182.573 62.4289 183.089 59.6232L185.378 47.7362C185.895 44.9305 184.123 42.2726 181.318 41.7557L155.698 36.8828C152.892 36.366 150.234 38.1379 149.717 40.9436L147.428 52.8306Z" fill="url(#paint7_linear)"/>
<path d="M91.0209 125.778L208.71 148.223C211.073 148.666 213.288 147.116 213.731 144.753L229.162 64.054C229.605 61.6913 228.054 59.4764 225.692 59.0334L108.002 36.5882C105.64 36.1452 103.425 37.6957 102.982 40.0584L87.5507 120.757C87.1077 123.046 88.6582 125.335 91.0209 125.778Z" fill="#E3EAFF"/>
<path d="M92.4236 116.992L210.556 139.511C212.771 139.954 214.912 138.477 215.355 136.262L229.162 63.8322C229.605 61.6172 228.128 59.4761 225.913 59.0331L107.781 36.5141C105.566 36.0711 103.425 37.5478 102.982 39.7628L89.1749 112.193C88.7319 114.481 90.2086 116.623 92.4236 116.992Z" fill="url(#paint8_linear)"/>
<path d="M189.144 144.457L193.722 145.343C194.238 145.417 194.755 145.121 194.903 144.531L211.515 57.3343C211.589 56.8175 211.294 56.3007 210.703 56.153L206.125 55.267C205.609 55.1932 205.092 55.4885 204.944 56.0792L188.258 143.349C188.258 143.866 188.627 144.383 189.144 144.457Z" fill="#F9FCFF"/>
<path d="M105.493 128.508L110.071 129.394C110.587 129.468 111.104 129.173 111.252 128.582L127.938 41.3119C128.012 40.795 127.717 40.2782 127.126 40.1305L122.548 39.2445C122.031 39.1707 121.515 39.4661 121.367 40.0567L104.681 127.327C104.607 127.918 104.976 128.434 105.493 128.508Z" fill="#F9FCFF"/>
<path d="M134.953 104.399C126.482 91.2789 130.251 73.7758 143.372 65.3049C156.492 56.834 173.995 60.603 182.466 73.7232C190.937 86.8434 187.168 104.347 174.047 112.817C160.927 121.288 143.424 117.519 134.953 104.399Z" fill="url(#paint9_linear)"/>
<path d="M155.795 70.4849L168.342 72.8799L161.697 107.692L149.15 105.297L155.795 70.4849Z" fill="#FFECE6"/>
<path d="M177.3 86.1244L174.905 98.6714L140.093 92.0264L142.488 79.4795L177.3 86.1244Z" fill="#FFECE6"/>
<path d="M51.3002 99.3455C53.8105 99.3455 56.247 99.0502 58.6834 98.5334C70.349 96.0231 80.0211 87.8277 85.8538 75.4238C91.6866 63.1675 93.0894 48.2533 89.9146 33.4868C87.9212 24.2577 84.1557 15.3978 78.9874 8.08838L76.0341 10.1557C80.9071 17.096 84.451 25.4391 86.3707 34.2251C89.3978 48.2533 88.0688 62.3554 82.5314 73.8733C77.1416 85.2435 68.3555 92.7744 57.8713 94.9894C47.387 97.2782 36.3121 94.0296 26.7139 85.8342C16.968 77.5649 9.95388 65.3087 6.92674 51.2805C5.0071 42.4944 4.85942 33.413 6.4099 25.0699L2.86594 24.4054C1.24162 33.1915 1.3893 42.7897 3.38278 52.0188C6.55759 66.8592 14.0147 79.8537 24.3512 88.566C32.6205 95.6539 41.9973 99.3455 51.3002 99.3455Z" fill="url(#paint10_linear)"/>
<path d="M153.854 158.413C159.908 158.413 165.963 157.527 170.097 154.869C172.977 153.023 174.675 150.365 175.192 147.116C175.635 144.384 174.749 141.948 172.607 139.954C166.332 134.269 149.646 133.753 136.725 134.269C122.401 134.86 105.863 137.223 95.7477 140.028C79.4307 144.532 60.8987 144.458 58.2407 139.881C57.2809 138.182 58.8314 135.303 62.523 131.759C73.3026 121.349 68.2081 110.864 64.0735 102.374C63.2613 100.749 62.523 99.1988 61.9323 97.7222L58.6099 99.125C59.2744 100.749 60.0865 102.374 60.8248 103.924C64.9595 112.489 68.8726 120.536 60.0127 129.101C54.8444 134.048 53.2201 138.33 55.1397 141.653C59.6435 149.553 82.6055 147.412 96.7075 143.498C115.683 138.256 160.794 134.195 170.171 142.612C171.426 143.72 171.869 144.975 171.574 146.452C171.205 148.667 170.023 150.439 168.03 151.768C158.358 158.191 134.067 152.358 133.845 152.285L132.959 155.828C133.698 156.05 143.739 158.413 153.854 158.413Z" fill="url(#paint11_linear)"/>
<path d="M121 164.539C111.091 164.539 103.059 160.473 103.059 155.458C103.059 150.442 111.091 146.376 121 146.376C130.909 146.376 138.941 150.442 138.941 155.458C138.941 160.473 130.909 164.539 121 164.539Z" fill="url(#paint12_linear)"/>
<path d="M121.147 157.008C114.419 157.008 108.964 154.265 108.964 150.88C108.964 147.496 114.419 144.752 121.147 144.752C127.875 144.752 133.329 147.496 133.329 150.88C133.329 154.265 127.875 157.008 121.147 157.008Z" fill="#E3EAFF"/>
<path d="M69.2422 94.989L67.987 90.5591L50.0457 95.5797L51.5223 100.01C51.5223 100.01 58.0196 98.7545 61.4898 106.507L65.3291 104.883C65.3291 104.883 64.0001 97.5732 69.2422 94.989Z" fill="#E3EAFF"/>
<path d="M76.7732 4.76586L73.5984 7.64533C72.5647 8.53132 72.4909 10.1556 73.4507 11.1893C74.3367 12.223 75.961 12.2968 76.9947 11.337L80.1695 8.45749C81.2031 7.5715 81.277 5.94718 80.3171 4.91352C79.3573 3.9537 77.8068 3.87987 76.7732 4.76586Z" fill="#E3EAFF"/>
<path d="M7.22254 22.7075L3.08791 21.6738C1.75892 21.3785 0.42995 22.1907 0.0607872 23.5196C-0.234544 24.8486 0.577616 26.1776 1.9066 26.5468L6.04122 27.5804C7.3702 27.8758 8.6992 27.0636 9.06836 25.7346C9.36369 24.3318 8.55153 23.0028 7.22254 22.7075Z" fill="#E3EAFF"/>
<path d="M135.618 152.578H141.599V157.894H135.618V152.578Z" fill="url(#paint13_linear)"/>
<defs>
<linearGradient id="paint0_linear" x1="179.475" y1="36.884" x2="136.135" y2="36.884" gradientUnits="userSpaceOnUse">
<stop stop-color="#FFB19B"/>
<stop offset="0.1875" stop-color="#FFB49E"/>
<stop offset="1" stop-color="#FFD1FF"/>
</linearGradient>
<linearGradient id="paint1_linear" x1="175.591" y1="41.7296" x2="143.517" y2="41.7296" gradientUnits="userSpaceOnUse">
<stop stop-color="#A4E0EA"/>
<stop offset="0.1875" stop-color="#9DC8FF"/>
<stop offset="1" stop-color="#FFD1FF"/>
</linearGradient>
<linearGradient id="paint2_linear" x1="185.485" y1="29.0313" x2="153.411" y2="29.0313" gradientUnits="userSpaceOnUse">
<stop stop-color="#A4E0EA"/>
<stop offset="0.1875" stop-color="#9DC8FF"/>
<stop offset="1" stop-color="#FFD1FF"/>
</linearGradient>
<linearGradient id="paint3_linear" x1="178.181" y1="13.9081" x2="159.169" y2="13.9081" gradientUnits="userSpaceOnUse">
<stop stop-color="#A4E0EA"/>
<stop offset="0.1875" stop-color="#9DC8FF"/>
<stop offset="1" stop-color="#FFD1FF"/>
</linearGradient>
<linearGradient id="paint4_linear" x1="143.651" y1="32.1393" x2="133.413" y2="32.1393" gradientUnits="userSpaceOnUse">
<stop stop-color="#FFB19B"/>
<stop offset="0.1875" stop-color="#FFB49E"/>
<stop offset="1" stop-color="#FFD1FF"/>
</linearGradient>
<linearGradient id="paint5_linear" x1="156.179" y1="18.7137" x2="147.318" y2="18.7137" gradientUnits="userSpaceOnUse">
<stop stop-color="#A4E0EA"/>
<stop offset="0.1875" stop-color="#9DC8FF"/>
<stop offset="1" stop-color="#FFD1FF"/>
</linearGradient>
<linearGradient id="paint6_linear" x1="201.007" y1="15.4888" x2="170.171" y2="15.4888" gradientUnits="userSpaceOnUse">
<stop stop-color="#A4E0EA"/>
<stop offset="0.1875" stop-color="#9DC8FF"/>
<stop offset="1" stop-color="#FFD1FF"/>
</linearGradient>
<linearGradient id="paint7_linear" x1="192.612" y1="50.2949" x2="140.12" y2="50.2949" gradientUnits="userSpaceOnUse">
<stop stop-color="#A1C4FD"/>
<stop offset="1" stop-color="#C2E9FB"/>
</linearGradient>
<linearGradient id="paint8_linear" x1="229.24" y1="88.0124" x2="89.0963" y2="88.0124" gradientUnits="userSpaceOnUse">
<stop stop-color="#A1C4FD"/>
<stop offset="1" stop-color="#C2E9FB"/>
</linearGradient>
<linearGradient id="paint9_linear" x1="174.047" y1="112.817" x2="143.372" y2="65.3049" gradientUnits="userSpaceOnUse">
<stop stop-color="#FFB19B"/>
<stop offset="0.1875" stop-color="#FFB49E"/>
<stop offset="1" stop-color="#FFD1FF"/>
</linearGradient>
<linearGradient id="paint10_linear" x1="91.5723" y1="53.717" x2="1.75623" y2="53.717" gradientUnits="userSpaceOnUse">
<stop stop-color="#A1C4FD"/>
<stop offset="1" stop-color="#C2E9FB"/>
</linearGradient>
<linearGradient id="paint11_linear" x1="175.303" y1="128.067" x2="54.3599" y2="128.067" gradientUnits="userSpaceOnUse">
<stop stop-color="#A1C4FD"/>
<stop offset="1" stop-color="#C2E9FB"/>
</linearGradient>
<linearGradient id="paint12_linear" x1="138.941" y1="155.458" x2="103.059" y2="155.458" gradientUnits="userSpaceOnUse">
<stop stop-color="#A1C4FD"/>
<stop offset="1" stop-color="#C2E9FB"/>
</linearGradient>
<linearGradient id="paint13_linear" x1="141.599" y1="155.236" x2="135.618" y2="155.236" gradientUnits="userSpaceOnUse">
<stop stop-color="#A1C4FD"/>
<stop offset="1" stop-color="#C2E9FB"/>
</linearGradient>
</defs>
</svg>
