<svg width="17" height="16" viewBox="0 0 17 16" fill="none" xmlns="http://www.w3.org/2000/svg">
<path d="M0.824697 16C0.613938 16 0.403179 15.9198 0.24305 15.7585C-0.0784126 15.437 -0.0784126 14.9159 0.24305 14.5944L14.5964 0.241097C14.9178 -0.0803657 15.439 -0.0803657 15.7605 0.241097C16.0819 0.56256 16.0819 1.08373 15.7605 1.40539L1.40735 15.7585C1.24601 15.9188 1.03525 16 0.824697 16Z" fill="#141414"/>
<path d="M15.179 16C14.9683 16 14.7577 15.9198 14.5974 15.7585L0.24305 1.40539C-0.0784126 1.08373 -0.0784126 0.56256 0.24305 0.241097C0.564513 -0.0803657 1.08568 -0.0803657 1.40735 0.241097L15.7605 14.5944C16.0819 14.9159 16.0819 15.437 15.7605 15.7585C15.5991 15.9188 15.3886 16 15.179 16Z" fill="#141414"/>
</svg>
