<svg width="985" height="829" viewBox="0 0 985 829" fill="none" xmlns="http://www.w3.org/2000/svg">
<circle cx="675" cy="554" r="275" fill="#F3FDFF"/>
<circle cx="301" cy="222" r="179" fill="#E2FBFF"/>
<path d="M436.946 183.473C436.946 186.099 434.713 188.332 432.086 188.332C429.46 188.332 427.227 186.099 427.227 183.473C427.227 180.846 429.46 178.613 432.086 178.613C434.844 178.613 436.946 180.715 436.946 183.473Z" fill="#A4E0EA"/>
<path opacity="0.6" d="M332.799 170.996C332.799 173.623 330.566 175.856 327.939 175.856C325.313 175.856 323.08 173.623 323.08 170.996C323.08 168.37 325.313 166.137 327.939 166.137C330.566 166.006 332.799 168.238 332.799 170.996Z" fill="white"/>
<path opacity="0.6" d="M548.579 347.377C548.579 350.003 546.346 352.236 543.72 352.236C541.093 352.236 538.86 350.003 538.86 347.377C538.86 344.75 541.093 342.517 543.72 342.517C546.478 342.517 548.579 344.619 548.579 347.377Z" fill="white"/>
<path opacity="0.6" d="M761.47 267.789C761.47 269.233 760.288 270.415 758.844 270.415C757.399 270.415 756.217 269.233 756.217 267.789C756.217 266.344 757.399 265.162 758.844 265.162C760.288 265.162 761.47 266.344 761.47 267.789Z" fill="white"/>
<path opacity="0.6" d="M856.293 414.488C856.293 415.933 855.111 417.115 853.667 417.115C852.222 417.115 851.04 415.933 851.04 414.488C851.04 413.043 852.222 411.861 853.667 411.861C855.111 411.861 856.293 413.043 856.293 414.488Z" fill="white"/>
<path opacity="0.6" d="M263.586 414.488C263.586 415.933 262.404 417.115 260.959 417.115C259.515 417.115 258.333 415.933 258.333 414.488C258.333 413.043 259.515 411.861 260.959 411.861C262.404 411.861 263.586 413.043 263.586 414.488Z" fill="white"/>
<path opacity="0.6" d="M154.317 519.817C154.317 521.262 153.135 522.444 151.69 522.444C150.245 522.444 149.063 521.262 149.063 519.817C149.063 518.373 150.245 517.191 151.69 517.191C153.135 517.191 154.317 518.373 154.317 519.817Z" fill="white"/>
<path opacity="0.6" d="M130.414 358.015C130.414 359.459 129.232 360.641 127.787 360.641C126.342 360.641 125.16 359.459 125.16 358.015C125.16 356.57 126.342 355.388 127.787 355.388C129.232 355.388 130.414 356.57 130.414 358.015Z" fill="white"/>
<path opacity="0.6" d="M269.89 259.778C269.89 261.222 268.708 262.404 267.263 262.404C265.819 262.404 264.637 261.222 264.637 259.778C264.637 258.333 265.819 257.151 267.263 257.151C268.708 257.151 269.89 258.333 269.89 259.778Z" fill="white"/>
<path opacity="0.6" d="M207.375 129.889C207.375 131.333 206.193 132.515 204.748 132.515C203.304 132.515 202.122 131.333 202.122 129.889C202.122 128.444 203.304 127.262 204.748 127.262C206.193 127.262 207.375 128.444 207.375 129.889Z" fill="white"/>
<path opacity="0.6" d="M315.2 96.3986C315.2 97.8433 314.018 99.0253 312.573 99.0253C311.129 99.0253 309.947 97.8433 309.947 96.3986C309.947 94.954 311.129 93.772 312.573 93.772C314.018 93.772 315.2 94.954 315.2 96.3986Z" fill="white"/>
<path opacity="0.6" d="M379.816 217.488C379.816 218.933 378.634 220.115 377.189 220.115C375.745 220.115 374.563 218.933 374.563 217.488C374.563 216.043 375.745 214.861 377.189 214.861C378.634 214.73 379.816 215.912 379.816 217.488Z" fill="white"/>
<path opacity="0.6" d="M639.987 146.831C639.987 148.275 638.805 149.457 637.36 149.457C635.916 149.457 634.734 148.275 634.734 146.831C634.734 145.386 635.916 144.204 637.36 144.204C638.674 144.204 639.987 145.386 639.987 146.831Z" fill="white"/>
<path opacity="0.6" d="M474.245 201.203C474.245 202.648 473.063 203.83 471.618 203.83C470.173 203.83 468.991 202.648 468.991 201.203C468.991 199.758 470.173 198.576 471.618 198.576C473.063 198.576 474.245 199.758 474.245 201.203Z" fill="white"/>
<path opacity="0.6" d="M838.826 291.56C838.826 293.005 837.644 294.187 836.199 294.187C834.755 294.187 833.573 293.005 833.573 291.56C833.573 290.115 834.755 288.933 836.199 288.933C837.644 288.933 838.826 290.115 838.826 291.56Z" fill="white"/>
<path d="M574.452 347.377C574.452 350.003 572.219 352.236 569.593 352.236C566.966 352.236 564.733 350.003 564.733 347.377C564.733 344.75 566.966 342.517 569.593 342.517C572.219 342.517 574.452 344.619 574.452 347.377Z" fill="#A4E0EA"/>
<path d="M386.514 272.254C386.514 273.436 385.463 274.487 384.281 274.487C383.099 274.487 382.049 273.436 382.049 272.254C382.049 271.072 383.099 270.021 384.281 270.021C385.595 270.021 386.514 271.072 386.514 272.254Z" fill="#A4E0EA"/>
<path d="M554.752 297.601C554.752 298.783 553.701 299.834 552.519 299.834C551.337 299.834 550.287 298.783 550.287 297.601C550.287 296.419 551.337 295.369 552.519 295.369C553.833 295.369 554.752 296.419 554.752 297.601Z" fill="#A4E0EA"/>
<path d="M272.122 418.034C272.122 419.216 271.072 420.267 269.89 420.267C268.708 420.267 267.657 419.216 267.657 418.034C267.657 416.852 268.708 415.801 269.89 415.801C271.072 415.801 272.122 416.852 272.122 418.034Z" fill="#A4E0EA"/>
<path d="M381.655 174.017C381.655 175.199 380.604 176.249 379.422 176.249C378.24 176.249 377.189 175.199 377.189 174.017C377.189 172.835 378.24 171.784 379.422 171.784C380.735 171.653 381.655 172.703 381.655 174.017Z" fill="#A4E0EA"/>
<path d="M775.26 328.202C775.26 330.829 773.028 333.062 770.401 333.062C767.774 333.062 765.542 330.829 765.542 328.202C765.542 325.576 767.774 323.343 770.401 323.343C773.028 323.212 775.26 325.444 775.26 328.202Z" fill="#A4E0EA"/>
<path d="M199.889 58.9687C199.889 61.5954 197.656 63.828 195.03 63.828C192.403 63.828 190.17 61.5954 190.17 58.9687C190.17 56.342 192.403 54.1094 195.03 54.1094C197.656 54.1094 199.889 56.342 199.889 58.9687Z" fill="#A4E0EA"/>
<path d="M85.7604 178.613C85.7604 181.24 83.5277 183.473 80.9011 183.473C78.2744 183.473 76.0417 181.24 76.0417 178.613C76.0417 175.987 78.2744 173.754 80.9011 173.754C83.6591 173.754 85.7604 175.855 85.7604 178.613Z" fill="#A4E0EA"/>
<path d="M166.268 479.498C166.268 482.125 164.035 484.357 161.409 484.357C158.782 484.357 156.549 482.125 156.549 479.498C156.549 476.871 158.782 474.639 161.409 474.639C164.167 474.639 166.268 476.74 166.268 479.498Z" fill="#A4E0EA"/>
<path d="M851.828 539.78C851.828 542.406 849.595 544.639 846.969 544.639C844.342 544.639 842.109 542.406 842.109 539.78C842.109 537.153 844.342 534.92 846.969 534.92C849.595 534.92 851.828 537.022 851.828 539.78Z" fill="#A4E0EA"/>
<path d="M356.964 385.07V263.324C356.964 259.384 360.116 256.232 364.056 256.232C367.996 256.232 371.148 253.08 371.148 249.14V245.988C371.148 242.048 367.996 238.896 364.056 238.896H295.894C291.954 238.896 288.802 242.048 288.802 245.988V249.14C288.802 253.08 291.954 256.232 295.894 256.232C299.834 256.232 302.986 259.384 302.986 263.324V385.07C302.986 386.383 302.592 387.696 301.935 388.878L188.594 567.492C185.574 572.22 188.988 578.524 194.636 578.524H328.99H330.828H465.182C470.83 578.524 474.244 572.351 471.224 567.492L357.883 388.878C357.358 387.696 356.964 386.383 356.964 385.07Z" fill="#A4E0EA"/>
<path d="M497.884 293.661V296.288C497.884 297.995 497.228 299.44 496.046 300.622C494.995 301.673 493.419 302.461 491.712 302.461C488.297 302.461 485.539 305.219 485.539 308.633V536.891C485.539 559.874 466.89 578.392 444.038 578.392C421.055 578.392 402.536 559.743 402.536 536.891V308.633C402.536 306.926 401.88 305.481 400.698 304.299C399.647 303.249 398.071 302.592 396.495 302.461C393.08 302.461 390.323 299.834 390.323 296.419V293.793C390.323 290.378 393.08 287.62 396.495 287.62H491.843C495.126 287.62 497.884 290.378 497.884 293.661Z" fill="#A4E0EA"/>
<path d="M834.754 470.042C834.754 515.352 811.771 555.277 776.968 578.917H630.268C594.414 554.621 571.168 513.251 572.219 467.153C573.401 414.488 605.446 369.572 651.019 349.741C662.182 344.881 669.406 333.849 669.406 321.635V203.304C669.406 200.809 668.355 198.576 666.779 196.869C665.072 195.293 662.839 194.242 660.344 194.242C655.353 194.242 651.282 190.171 651.282 185.18V181.24C651.282 176.249 655.353 172.178 660.344 172.178H746.63C751.62 172.178 755.692 176.249 755.692 181.24V185.18C755.692 187.675 754.641 189.908 753.065 191.615C751.489 193.191 749.256 194.242 746.892 194.242C741.902 194.373 737.699 198.182 737.699 203.304V321.635C737.699 333.849 744.922 344.881 756.086 349.741C802.315 369.835 834.754 416.195 834.754 470.042Z" fill="#A4E0EA"/>
<path d="M358.409 427.49C357.621 428.409 356.57 428.935 355.519 428.935C354.731 428.935 353.943 428.672 353.287 428.147L311.26 395.445C309.684 394.131 309.29 391.899 310.603 390.191C311.391 389.272 312.442 388.747 313.493 388.747C314.281 388.747 315.069 389.009 315.725 389.535L357.621 422.237C359.328 423.55 359.591 425.914 358.409 427.49Z" fill="#5499DE"/>
<path d="M322.554 399.91C321.504 401.223 319.928 401.88 318.352 401.88C317.17 401.88 316.119 401.486 315.068 400.829L255.706 354.469C253.473 352.63 252.948 349.347 254.786 347.114C255.837 345.801 257.413 345.144 258.989 345.144C260.171 345.144 261.222 345.538 262.272 346.195L321.635 392.555C323.999 394.263 324.393 397.677 322.554 399.91Z" fill="white"/>
<path d="M322.554 399.91L254.918 347.114C255.968 345.801 257.544 345.144 259.12 345.144C260.302 345.144 261.353 345.538 262.404 346.195L321.766 392.555C323.999 394.263 324.393 397.677 322.554 399.91Z" fill="#EDEEEF"/>
<path d="M657.454 328.859C657.454 417.64 585.221 489.742 496.571 489.742C457.434 489.742 420.398 475.69 391.636 450.868C381.129 441.937 371.804 431.43 363.793 419.742C363.136 418.822 362.48 417.903 361.954 416.984L370.228 411.599L397.546 393.738C397.808 394.263 398.202 394.657 398.465 395.051C404.112 403.325 410.548 410.811 417.902 417.246C439.31 436.421 467.152 447.19 496.702 447.19C561.975 447.19 615.165 394 615.165 328.728C615.165 290.772 596.647 255.181 566.572 233.117C561.056 229.046 555.277 225.5 549.104 222.479C548.579 222.216 548.054 221.954 547.528 221.691L565.784 183.342C575.371 187.938 584.433 193.454 592.838 199.627C632.764 229.834 657.454 277.77 657.454 328.859Z" fill="#5499DE"/>
<path d="M639.987 329.778C639.987 407.922 576.29 471.618 498.147 471.618C462.687 471.618 429.328 458.616 403.587 435.502C394.525 427.359 386.382 418.034 379.422 407.396L398.334 394.92L410.679 386.777C415.276 393.869 420.66 400.173 426.57 405.689C445.745 423.682 471.092 433.926 498.016 433.926C555.54 433.926 602.426 387.04 602.426 329.516C602.426 295.238 585.352 263.324 557.772 243.886C553.044 240.603 548.054 237.582 542.669 235.087L548.71 222.348L558.692 201.334C566.572 205.012 573.926 209.477 580.756 214.468C617.398 241.128 639.987 283.943 639.987 329.778Z" fill="#6AB4E5"/>
<path opacity="0.5" d="M426.702 405.951L424.994 408.184L417.902 417.377L403.718 435.633L391.767 450.999C381.26 442.068 371.936 431.561 363.924 419.873L370.228 411.73L397.546 393.869C397.808 394.394 398.202 394.788 398.465 395.182L410.81 387.039C415.407 394 420.66 400.435 426.702 405.951Z" fill="#307AB7"/>
<path opacity="0.5" d="M592.576 199.758L581.019 214.599L566.441 233.248L557.904 244.149C553.176 240.865 548.185 237.845 542.801 235.349L548.842 222.61C548.317 222.347 547.791 222.085 547.266 221.822L565.521 183.473C575.109 188.069 584.171 193.454 592.576 199.758Z" fill="#307AB7"/>
<path d="M433.137 386.777L429.591 391.373L420.66 402.931L377.189 458.616L344.881 433.4L388.352 377.583L397.283 366.157L400.829 361.561L433.137 386.777Z" fill="#94CCF2"/>
<path d="M648.392 96.2673L646.948 98.2373L601.375 156.681L590.212 170.996L564.339 150.639L566.966 147.356L575.371 136.587L621.206 78.012L622.52 76.1733L630.794 82.4773L648.392 96.2673Z" fill="#4A94D1"/>
<path opacity="0.5" d="M601.375 156.681L590.212 170.996L564.339 150.639L566.966 147.356L575.371 136.587L581.018 140.921L599.668 155.367L601.375 156.681Z" fill="#307AB7"/>
<path d="M655.485 96.6614C654.697 97.7121 653.514 98.2374 652.201 98.2374C651.282 98.2374 650.494 97.9747 649.706 97.3181L621.206 74.9914C619.368 73.5467 619.105 71.0514 620.418 69.2127C621.206 68.1621 622.388 67.6367 623.702 67.6367C624.621 67.6367 625.409 67.8994 626.197 68.5561L654.828 90.8827C656.667 92.3274 656.929 94.8227 655.485 96.6614Z" fill="white"/>
<path opacity="0.5" d="M648.393 96.2673L646.948 98.106L621.075 78.012L622.52 76.1733L630.663 82.4773L648.393 96.2673Z" fill="#307AB7"/>
<path d="M601.244 179.533L517.716 286.569L469.648 249.008L470.961 247.432L553.176 141.971C557.772 136.061 566.309 135.011 572.219 139.607L584.696 149.326L599.011 160.489C604.921 165.217 605.84 173.754 601.244 179.533Z" fill="#5499DE"/>
<path d="M527.96 306.663C526.384 308.633 524.151 309.684 521.918 309.684C520.211 309.684 518.504 309.159 517.19 307.977L430.642 240.34C427.358 237.713 426.702 232.854 429.328 229.571C430.904 227.601 433.137 226.55 435.37 226.55C437.077 226.55 438.653 227.075 440.098 228.126L526.646 295.763C530.061 298.389 530.586 303.249 527.96 306.663Z" fill="white"/>
<path d="M400.829 361.561L397.283 366.157L388.353 377.583L409.103 393.869L402.143 402.931L365.763 449.554L377.189 458.616L420.661 402.931L429.591 391.373L433.137 386.777L400.829 361.561Z" fill="#75B8EF"/>
<path d="M444.038 391.505C441.805 394.394 438.391 395.97 434.976 395.97C432.481 395.97 429.985 395.182 427.884 393.475L298.127 292.217C293.136 288.277 292.217 281.053 296.157 276.063C298.389 273.173 301.804 271.597 305.219 271.597C307.714 271.597 310.209 272.385 312.311 274.093L442.068 375.351C447.059 379.291 447.847 386.514 444.038 391.505Z" fill="white"/>
<path d="M619.63 202.254C619.63 218.933 606.103 232.329 589.555 232.329C572.876 232.329 559.48 218.802 559.48 202.254C559.48 185.574 573.007 172.178 589.555 172.178C606.234 172.178 619.63 185.706 619.63 202.254Z" fill="white"/>
<path d="M609.518 202.253C609.518 213.285 600.587 222.216 589.555 222.216C578.523 222.216 569.592 213.285 569.592 202.253C569.592 191.221 578.523 182.291 589.555 182.291C600.587 182.291 609.518 191.221 609.518 202.253Z" fill="#F9CB44"/>
<path d="M520.736 291.166L462.162 245.462L480.942 221.297C483.306 218.276 487.64 217.751 490.661 220.115L538.335 257.282C541.356 259.646 541.881 263.98 539.517 267.001L520.736 291.166Z" fill="#4B85C4"/>
<path d="M444.038 391.505L296.156 276.063C298.389 273.173 301.804 271.597 305.218 271.597C307.714 271.597 310.209 272.385 312.31 274.093L442.068 375.351C447.059 379.291 447.846 386.514 444.038 391.505Z" fill="#EDEEEF"/>
<path d="M527.96 306.663L429.328 229.702C430.904 227.732 433.137 226.681 435.37 226.681C437.077 226.681 438.653 227.207 440.098 228.257L526.646 295.894C530.061 298.389 530.586 303.249 527.96 306.663Z" fill="#DFE5EA"/>
<path d="M655.484 96.6616L621.206 69.8696L620.418 69.3443C621.206 68.2936 622.388 67.7683 623.702 67.7683C624.621 67.7683 625.409 68.031 626.197 68.6876L654.828 91.0143C656.666 92.3277 656.929 94.823 655.484 96.6616Z" fill="#EFEFEF"/>
<path d="M625.409 578.26H340.022C339.234 578.26 338.577 577.604 338.577 576.816V538.86C338.577 532.031 344.093 526.515 350.922 526.515H614.377C621.206 526.515 626.722 532.031 626.722 538.86V576.816C626.854 577.604 626.197 578.26 625.409 578.26Z" fill="#4B85C4"/>
<path d="M626.854 566.309H338.708V578.26H626.854V566.309Z" fill="#3F76A8"/>
<path d="M417.377 526.647C417.377 526.647 464.788 521.919 490.004 495.783C504.057 481.337 514.958 448.109 520.999 429.329C523.232 422.631 527.828 416.983 534.132 413.7C548.448 405.951 566.309 412.124 572.613 427.096L615.428 526.647" fill="#5499DE"/>
<path d="M449.451 262.838L434.957 251.526L414.677 277.512L429.171 288.824L449.451 262.838Z" fill="white"/>
<path d="M449.445 262.839L444.682 259.123L424.402 285.109L429.165 288.825L449.445 262.839Z" fill="#75B8EF"/>
<path d="M455.531 259.834L436.274 244.806L432.477 249.672L451.733 264.7L455.531 259.834Z" fill="#5499DE"/>
<path d="M476.88 284.257L462.386 272.946L442.106 298.932L456.601 310.243L476.88 284.257Z" fill="white"/>
<path d="M476.952 284.156L472.189 280.44L451.91 306.426L456.672 310.142L476.952 284.156Z" fill="#75B8EF"/>
<path d="M483.038 281.151L463.781 266.123L459.984 270.989L479.241 286.017L483.038 281.151Z" fill="#5499DE"/>
<path d="M504.281 305.495L489.787 294.183L469.507 320.169L484.001 331.481L504.281 305.495Z" fill="white"/>
<path d="M504.378 305.577L499.616 301.861L479.336 327.847L484.098 331.563L504.378 305.577Z" fill="#75B8EF"/>
<path d="M510.465 302.572L491.208 287.543L487.411 292.409L506.667 307.437L510.465 302.572Z" fill="#5499DE"/>
<path d="M573.981 455.218C576.391 441.061 566.867 427.63 552.71 425.22C538.552 422.81 525.121 432.334 522.711 446.491C520.301 460.649 529.825 474.08 543.983 476.49C558.14 478.9 571.571 469.376 573.981 455.218Z" fill="#5499DE"/>
<path d="M567.419 453.93C569.135 443.406 561.995 433.484 551.471 431.768C540.947 430.053 531.025 437.193 529.309 447.717C527.594 458.241 534.734 468.163 545.258 469.878C555.782 471.594 565.704 464.453 567.419 453.93Z" fill="#F9CB44"/>
<path d="M365.763 427.49C365.763 431.167 362.874 434.057 359.197 434.057C355.519 434.057 352.63 431.167 352.63 427.49C352.63 423.813 355.519 420.923 359.197 420.923C362.743 420.923 365.763 423.813 365.763 427.49Z" fill="white"/>
<path d="M359.196 431.167C361.227 431.167 362.874 429.521 362.874 427.49C362.874 425.459 361.227 423.813 359.196 423.813C357.165 423.813 355.519 425.459 355.519 427.49C355.519 429.521 357.165 431.167 359.196 431.167Z" fill="#F9CB44"/>
<path d="M287.225 357.752L195.817 366.026C194.241 366.157 192.797 364.975 192.665 363.399L190.301 337.264C190.17 335.688 191.352 334.243 192.928 334.112L284.336 325.838C285.912 325.707 287.357 326.889 287.488 328.465L289.852 354.6C289.983 356.176 288.801 357.621 287.225 357.752Z" fill="#88D5FF"/>
<path d="M261.353 367.602C261.353 367.602 261.484 366.289 261.484 364.844C261.616 363.531 260.959 362.743 260.959 362.349C260.828 361.561 260.959 360.116 260.959 360.116L262.798 359.985C262.798 359.985 263.586 358.934 264.374 357.489C264.636 357.095 264.768 356.701 264.768 356.176C264.768 354.994 264.768 354.863 264.899 354.206C265.03 353.287 265.687 352.893 265.95 354.075C266.212 355.125 266.212 356.439 266.212 356.964C266.212 357.489 265.293 359.853 265.293 359.853C265.293 359.853 268.051 361.429 268.182 361.955C268.314 362.48 267 364.581 265.95 368.521" fill="#FE9393"/>
<path d="M265.818 354.337C265.818 354.337 265.556 353.024 266.081 352.893C266.606 352.761 266.869 353.812 267 354.337C267.132 354.863 267.394 356.701 267.526 357.227C267.657 357.883 266.212 361.298 266.212 361.298L264.636 359.853L265.424 355.782" fill="#FE9393"/>
<path d="M266.869 355.125C266.869 355.125 266.738 354.206 267.263 353.943C267.657 353.681 267.92 354.6 268.051 355.125C268.182 355.651 268.445 357.489 268.576 358.015C268.708 358.671 267.263 362.086 267.263 362.086L265.687 360.641L266.475 356.57" fill="#FE9393"/>
<path d="M268.576 355.651C268.445 356.176 268.708 356.964 268.708 357.358C268.708 357.752 268.314 358.672 268.314 358.672L267.263 361.692L267.788 363.006L269.364 359.197L269.627 358.409C269.758 358.015 269.758 357.49 269.758 356.964C269.496 356.045 269.102 354.469 268.576 355.651Z" fill="#FE9393"/>
<path d="M213.022 372.067C213.022 372.067 214.598 368.127 214.598 367.733C214.598 367.208 213.548 364.712 213.416 364.187C213.285 363.662 213.548 360.51 213.942 359.984C214.336 359.459 214.73 359.853 214.992 360.378C215.124 360.904 215.255 362.086 215.255 362.48C215.255 362.874 216.174 364.187 216.174 364.187L220.771 363.793L222.347 363.662C222.347 363.662 222.084 365.106 221.69 365.894C221.296 366.814 220.64 367.339 220.246 367.733C219.852 368.127 218.538 371.41 218.276 372.724" fill="#FE9393"/>
<path d="M230.359 560.005V566.572C230.359 566.572 232.723 567.36 234.955 566.572L235.875 560.005" fill="#FE9393"/>
<path d="M188.463 555.146L186.756 561.581C186.756 561.581 188.857 562.895 191.221 562.763L193.848 556.591" fill="#FE9393"/>
<path d="M213.022 371.279C213.022 371.279 216.7 371.673 218.801 372.461C218.801 372.461 216.174 388.484 213.679 394.657C211.578 399.647 215.518 412.912 215.518 412.912L208.032 418.034C208.032 418.034 204.486 400.041 204.092 395.576C203.698 390.979 213.022 371.279 213.022 371.279Z" fill="white"/>
<path d="M222.872 463.212C222.872 468.728 221.822 475.689 220.377 483.044C219.195 488.954 217.75 495.258 216.174 501.036C214.598 506.946 213.022 512.331 211.578 516.796C206.981 531.374 193.848 559.48 193.848 559.48C190.564 559.742 186.493 557.247 186.493 557.247C186.493 557.247 193.454 524.545 198.05 514.695C198.444 512.2 198.576 498.278 199.758 488.034C200.414 482.781 200.152 477.528 199.495 472.274C198.576 465.314 200.94 458.747 200.94 458.747L222.872 463.212Z" fill="#2034AA"/>
<path d="M220.377 483.175C219.195 489.085 217.75 495.389 216.174 501.168C211.446 487.378 210.527 472.668 210.527 472.668C210.527 472.668 217.488 480.417 220.377 483.175Z" fill="#102772"/>
<path d="M236.663 460.455C236.663 460.455 240.077 501.168 240.34 516.928C240.603 532.688 236.137 563.551 236.137 563.551C236.137 563.551 233.773 564.471 228.914 563.289C228.914 563.289 224.974 530.061 226.813 517.191C226.813 517.191 218.276 497.622 214.073 484.357C213.285 481.862 211.841 477.003 211.315 474.77C207.638 461.505 217.225 453.231 217.225 453.231" fill="#2034AA"/>
<path d="M260.171 367.077C260.171 367.077 255.574 385.201 251.372 394.919C241.128 401.88 230.884 409.629 230.884 409.629L220.377 406.871C215.124 410.023 211.315 417.115 208.951 429.066C206.587 441.017 183.604 505.371 183.604 505.371C205.274 516.928 244.674 507.866 244.674 507.866C244.674 507.866 239.42 448.372 239.42 435.37C239.42 427.096 242.966 419.216 249.008 413.569C253.604 409.366 258.201 404.507 260.171 401.092C264.505 390.323 266.606 368.259 266.606 368.259C263.98 366.289 260.171 367.077 260.171 367.077Z" fill="#F7F9F9"/>
<path d="M231.409 405.82C231.015 406.87 230.884 408.315 230.884 409.628C230.884 409.628 227.732 410.81 224.711 408.84C221.691 406.739 224.711 402.93 224.711 402.93H232.46C232.722 402.93 231.934 404.112 231.409 405.82Z" fill="#FE9393"/>
<path d="M232.723 402.93C232.723 402.93 232.066 404.112 231.541 405.82C228.914 405.951 227.732 404.9 227.732 404.9C227.732 404.9 228.389 403.85 229.045 402.93H232.723Z" fill="#E15F60"/>
<path d="M232.46 387.696C232.46 387.696 234.693 391.898 235.481 396.626C235.875 399.122 234.824 401.617 232.854 403.062C232.066 403.587 231.278 404.112 230.49 404.375C228.257 405.426 225.499 405.032 223.792 403.193C222.873 402.142 221.691 400.829 220.771 398.859C216.306 390.585 226.025 381.129 232.46 387.696Z" fill="#FE9393"/>
<path d="M228.126 378.896C229.57 379.29 231.278 380.604 231.803 381.654C236.006 388.878 229.833 394.263 226.418 394.919C225.762 398.203 226.156 402.405 226.024 405.294C225.762 410.022 229.964 429.591 221.953 433.268C219.72 434.319 216.962 432.612 212.628 435.238C208.294 437.865 198.05 435.632 200.02 426.045C202.122 416.458 211.972 412.649 214.861 403.456C215.78 400.435 213.679 398.071 213.022 395.838C211.578 390.585 213.285 387.039 214.73 384.938C217.225 381.129 222.741 377.583 228.126 378.896Z" fill="#2437B0"/>
<path d="M226.681 395.313C226.681 395.313 226.025 394 225.105 394.657C223.923 395.576 225.237 399.779 226.287 398.991" fill="#FE9393"/>
<path d="M228.782 568.673C228.782 568.673 228.914 566.834 230.358 565.915C230.358 565.915 231.015 565.258 232.985 565.915C233.642 566.046 234.43 566.834 234.955 566.703C234.955 566.703 236.137 568.542 237.319 570.906C237.844 571.957 238.501 573.401 239.42 574.32C240.471 575.371 241.916 575.634 242.047 576.422C242.178 577.472 242.178 577.735 239.42 577.735C239.42 577.735 235.612 576.816 234.561 575.765C233.51 574.583 228.782 568.673 228.782 568.673Z" fill="#2034AA"/>
<path d="M234.824 577.604C233.642 577.604 232.46 576.947 231.803 575.897C230.621 573.927 229.045 570.906 228.782 569.987C227.732 566.966 231.672 567.229 232.722 568.279C233.51 569.199 234.692 571.563 235.874 573.795C236.925 575.897 237.713 577.21 239.42 577.604H234.824Z" fill="#112977"/>
<path d="M191.09 562.632C191.09 562.632 191.484 563.551 191.484 564.733C191.352 565.784 190.564 576.553 189.251 577.472C188.988 577.604 188.463 577.866 187.281 577.866C185.968 577.866 185.442 575.896 184.26 572.876C183.078 569.724 184.392 564.864 184.786 562.238C184.917 561.844 185.705 560.924 186.362 560.399C186.887 560.005 187.412 559.742 188.069 559.874C188.988 560.005 190.17 560.268 190.039 561.844C190.039 562.106 190.039 562.369 191.09 562.632Z" fill="#2034AA"/>
<path d="M184.26 563.157C184.654 561.844 185.311 561.45 186.362 561.318C187.544 561.187 189.251 562.369 189.12 565.127C188.988 567.885 188.857 575.502 188.594 576.422C188.069 578.654 185.574 577.998 184.786 576.29C184.26 574.583 182.816 568.804 184.26 563.157Z" fill="#112977"/>
<path d="M216.963 382.311C216.963 382.311 215.781 383.493 213.942 384.938C212.103 386.382 210.396 388.352 209.345 390.716C206.719 396.758 210.921 401.748 209.871 403.587C208.82 405.426 204.355 405.82 204.092 409.628C203.829 413.437 205.537 414.356 204.092 418.034C202.647 421.711 209.608 420.792 211.447 418.559C213.285 416.326 215.255 413.962 217.619 410.81C219.983 407.658 221.822 401.617 221.822 400.435C221.822 399.253 220.771 393.737 219.721 392.161C218.67 390.585 216.963 382.311 216.963 382.311Z" fill="#2437B0"/>
<path d="M517.584 508.129L518.241 515.089C518.241 515.089 515.746 517.191 512.331 516.009L510.492 507.209" fill="#FF9393"/>
<path d="M518.241 515.09C518.241 515.09 514.695 516.403 512.331 516.009C512.331 516.009 509.573 518.636 508.26 520.08C507.078 521.525 506.027 522.838 504.714 522.97C503.4 523.101 501.168 524.02 500.774 525.071C500.38 526.122 501.562 526.647 506.421 526.647C506.421 526.647 509.048 526.91 511.149 525.99C513.251 525.071 514.039 523.626 515.089 523.232C516.14 522.707 519.423 522.05 520.211 521.525C520.999 520.868 520.737 516.534 518.241 515.09Z" fill="#0B288A"/>
<path d="M541.881 512.857L541.619 519.949C541.619 519.949 538.861 521.656 535.709 519.949L535.183 511.018" fill="#FF9393"/>
<path d="M541.619 519.818C541.619 519.818 542.801 521 543.063 522.707C543.326 524.414 542.801 525.99 542.801 526.384C542.801 526.778 541.225 526.91 539.123 527.041C537.022 527.041 535.84 526.91 535.052 526.91C533.607 526.91 530.587 527.041 528.748 527.041C526.909 527.041 524.414 526.91 523.626 526.516C522.838 526.122 522.181 524.414 526.515 523.364C528.617 522.838 531.243 521.788 533.082 520.868C534.395 520.212 535.577 519.949 535.577 519.949C535.577 519.949 540.437 520.343 541.619 519.818Z" fill="#1D27A5"/>
<path d="M491.58 423.813C491.58 423.813 490.53 426.833 488.297 428.935C487.64 429.591 485.277 430.773 484.883 431.036C484.489 431.299 480.943 431.693 480.155 431.955C479.235 432.218 479.761 432.743 481.599 433.006C483.569 433.269 487.509 433.925 489.217 433.925C490.924 433.925 492.106 432.875 492.5 432.349C493.419 431.167 493.55 429.591 494.207 428.935" fill="#FF9393"/>
<path d="M546.609 418.428C546.609 418.428 549.498 421.711 549.629 429.066C549.761 436.421 545.952 455.201 544.901 458.616C543.719 462.031 542.931 464.789 540.173 467.284C537.415 469.779 530.849 467.415 529.798 463.213C527.828 455.201 523.625 421.055 523.625 421.055C523.625 421.055 540.042 416.852 546.609 418.428Z" fill="#1D27A5"/>
<path d="M536.759 434.713C535.84 437.603 533.87 441.805 531.506 446.271C529.405 450.342 527.041 454.413 525.202 457.434C524.151 459.273 523.232 460.586 522.707 461.243C520.474 464.132 518.767 466.496 515.483 467.941C512.2 469.385 506.684 465.183 506.947 460.849C507.603 452.706 514.564 418.822 514.564 418.822C514.564 418.822 531.375 420.004 537.153 423.681C537.285 423.681 538.861 427.621 536.759 434.713Z" fill="#1D27A5"/>
<path d="M531.506 446.139C529.404 450.211 527.04 454.282 525.202 457.303C524.676 446.271 524.414 427.753 524.414 427.753L531.506 446.139Z" fill="#04207A"/>
<path d="M542.144 514.301C542.144 514.301 538.204 514.827 534.658 514.564C534.658 514.564 532.951 503.532 532.163 496.834C531.375 490.793 524.545 429.329 524.545 426.177C524.545 423.025 537.416 444.826 547.529 446.533L543.851 472.669C543.851 472.669 543.457 481.599 543.72 488.297C543.983 494.995 542.144 511.412 542.144 514.301Z" fill="#1D27A5"/>
<path d="M507.997 382.968C507.997 382.968 505.239 391.242 503.794 396.889C503.269 398.859 501.693 404.638 501.693 404.638C501.693 404.638 498.672 408.972 497.359 411.599C495.126 415.933 489.216 429.329 489.216 429.329L492.762 430.248C492.762 430.248 506.027 415.67 508.916 412.124C511.674 408.447 515.877 397.809 515.877 397.809" fill="#FF9393"/>
<path d="M504.057 392.03C504.057 392.03 501.43 402.799 500.774 404.375C500.117 405.951 490.136 425.914 490.136 425.914C490.136 425.914 493.288 428.803 495.52 429.591C495.52 429.591 508.654 415.801 511.018 411.993C513.382 408.184 515.614 397.415 515.614 397.415" fill="#F2E9E9"/>
<path d="M468.991 401.88C468.991 401.88 467.021 402.274 464.132 401.486C462.031 400.961 460.849 402.011 458.616 402.799C456.383 403.587 454.282 404.244 454.151 404.638C454.151 405.032 453.888 405.426 454.939 405.426C455.989 405.426 459.535 404.375 459.929 404.244C460.323 404.244 460.586 405.032 461.111 405.557C461.637 405.951 461.374 406.345 461.899 406.739C462.425 407.133 462.293 407.659 462.95 407.921C463.607 408.184 463.738 408.709 465.183 408.447C466.627 408.184 467.547 406.739 469.779 406.345" fill="#FF9393"/>
<path d="M499.067 359.46C500.643 359.722 501.956 360.51 502.876 361.43C504.846 363.268 505.765 365.632 505.765 365.632C505.765 365.632 505.765 366.946 506.816 368.128C507.866 369.31 514.958 367.996 517.06 366.289C519.292 364.582 520.08 362.48 518.767 361.561C518.11 361.167 517.06 360.773 515.484 359.985C513.908 359.328 512.2 358.015 511.544 357.096C511.018 356.57 510.23 354.863 509.968 353.681C509.574 351.186 509.705 349.084 509.705 349.084H505.765C506.028 348.822 494.339 358.803 499.067 359.46Z" fill="#FF9393"/>
<path d="M499.067 359.459C500.643 359.722 501.956 360.51 502.875 361.429C507.472 356.833 507.209 352.63 507.209 352.63L499.592 358.015C499.592 357.883 499.329 358.54 499.067 359.459Z" fill="#FF5F60"/>
<path d="M489.873 343.437C489.873 343.437 491.712 358.672 494.601 362.349C494.601 362.349 500.905 363.006 507.603 355.257C514.301 347.508 506.947 339.76 504.32 338.184C501.825 336.476 491.318 335.426 489.873 343.437Z" fill="#FF9393"/>
<path d="M547.003 423.55C533.738 431.036 514.564 420.004 514.564 420.004C514.564 420.004 513.776 420.004 513.382 418.56C512.331 413.7 510.492 402.143 509.31 398.334C509.179 397.809 509.048 397.284 508.785 396.758C508.128 394.394 507.34 391.768 506.552 389.01C505.633 385.595 504.976 382.18 504.714 378.766C504.451 372.068 505.764 366.552 505.764 366.552C513.119 365.238 515.483 359.854 515.483 359.854C523.1 361.692 529.798 371.805 532.688 379.554C535.052 385.858 543.194 407.922 547.66 416.59C548.842 418.297 547.003 423.55 547.003 423.55Z" fill="#F7F9F9"/>
<path d="M512.462 348.165C511.674 349.478 511.149 350.923 510.755 352.368C510.624 353.156 510.361 353.812 509.836 353.681C508.654 353.55 508.785 351.711 508.26 350.398C507.734 349.084 507.078 349.478 506.29 348.428C505.502 347.377 505.896 345.932 504.845 345.013C503.926 344.094 502.481 344.619 502.612 345.932C502.744 347.246 503.138 349.084 502.612 348.953C501.956 348.69 501.168 346.064 500.642 345.407C500.117 344.75 499.329 345.67 498.016 346.064C496.702 346.458 496.702 345.276 494.732 344.094C492.894 342.78 491.974 344.882 490.136 345.276C488.428 345.67 484.357 341.598 485.67 339.366C486.984 337.133 490.136 338.972 491.186 337.658C492.237 336.476 490.661 332.142 495.52 330.435C499.986 328.859 502.744 333.981 504.32 334.638C506.027 335.426 508.128 333.193 510.755 334.9C513.382 336.608 511.018 341.204 511.543 343.437C511.806 344.225 512.725 346.195 512.725 346.983C512.594 347.64 512.594 347.902 512.462 348.165Z" fill="#1D27A5"/>
<path d="M521.393 380.079C521.393 380.079 519.949 386.252 508.917 396.627C508.26 394.263 507.472 391.636 506.684 388.878C510.099 385.07 515.746 380.736 515.746 380.736L521.393 380.079Z" fill="#E4F9F9"/>
<path d="M520.999 377.584C520.999 377.584 505.633 397.94 501.168 400.042C496.702 402.143 493.288 396.889 494.732 393.081C496.177 389.272 510.23 371.017 510.23 371.017" fill="#FF9393"/>
<path d="M496.046 391.242C496.046 391.242 490.267 393.606 484.751 396.233C479.235 398.86 469.123 401.88 469.123 401.88C469.123 401.88 468.729 405.032 470.042 406.346C470.042 406.346 472.275 405.952 478.447 404.901C484.62 403.85 498.541 402.668 501.956 399.516" fill="#FF9393"/>
<path d="M519.292 367.339C519.292 367.339 523.495 367.733 524.808 373.906C525.859 378.897 510.755 393.475 503.401 400.173C503.007 400.435 487.641 405.032 471.224 407.396C471.224 407.396 468.991 405.032 468.729 401.355C468.729 401.355 494.601 390.454 494.995 389.797C498.804 384.938 511.149 365.632 519.292 367.339Z" fill="white"/>
<path d="M513.644 424.863C513.644 424.863 504.582 462.687 504.188 464.789C503.4 469.648 510.755 511.806 510.755 511.806C510.755 511.806 515.483 511.937 518.504 510.755C518.504 510.755 519.029 492.763 519.029 486.721C519.029 478.841 519.554 469.517 519.16 462.293" fill="#1D27A5"/>
<path d="M512.725 413.175C512.725 413.175 513.776 437.734 514.301 449.291C514.695 458.485 514.433 462.556 514.433 462.556C514.433 462.556 531.637 466.365 552.257 462.293C552.257 462.293 552.913 449.16 551.994 436.158C551.469 428.541 549.63 420.923 546.609 413.963C545.033 410.417 543.589 407.527 542.538 405.032" fill="#F7F9F9"/>
<path d="M641.301 578.523L598.88 262.535H680.832L723.384 578.523" stroke="white" stroke-width="2.62667" stroke-miterlimit="10"/>
<path d="M598.88 262.535H680.832" stroke="white" stroke-width="2.62667" stroke-miterlimit="10"/>
<path d="M604.133 295.369H686.217" stroke="white" stroke-width="2.62667" stroke-miterlimit="10"/>
<path d="M608.073 328.202H690.025" stroke="white" stroke-width="2.62667" stroke-miterlimit="10"/>
<path d="M612.67 360.904H694.622" stroke="white" stroke-width="2.62667" stroke-miterlimit="10"/>
<path d="M616.347 393.737H698.431" stroke="white" stroke-width="2.62667" stroke-miterlimit="10"/>
<path d="M621.338 426.439H703.421" stroke="white" stroke-width="2.62667" stroke-miterlimit="10"/>
<path d="M625.278 459.273H707.362" stroke="white" stroke-width="2.62667" stroke-miterlimit="10"/>
<path d="M629.875 491.975H711.958" stroke="white" stroke-width="2.62667" stroke-miterlimit="10"/>
<path d="M634.734 524.808H716.817" stroke="white" stroke-width="2.62667" stroke-miterlimit="10"/>
<path d="M648.13 346.72L651.019 353.287C651.019 353.287 647.998 355.388 644.846 353.944L640.775 348.296" fill="#FE9393"/>
<path d="M650.363 351.974C650.363 351.974 652.07 354.338 652.464 355.914C652.858 357.49 652.464 358.934 652.464 359.328C652.464 359.722 651.019 360.116 649.049 360.248C647.079 360.379 646.029 359.985 645.109 359.985C644.321 359.985 640.775 360.773 639.068 361.036C637.361 361.167 634.865 361.167 634.209 360.904C633.421 360.642 633.158 358.278 636.704 357.621C638.805 357.227 641.038 355.782 642.745 354.863C644.059 354.075 644.584 354.075 644.584 354.075C644.584 354.075 649.575 353.681 650.363 351.974Z" fill="#252BA2"/>
<path d="M681.095 376.927L683.065 383.362C683.065 383.362 681.095 385.858 677.68 385.201L674.397 377.321" fill="#FE9393"/>
<path d="M685.298 385.463C684.51 384.019 683.196 383.362 683.196 383.362C682.277 384.15 677.811 385.201 677.811 385.201C677.811 385.201 676.892 385.857 675.841 386.908C675.053 387.696 674.134 388.615 673.215 389.535C672.689 389.666 672.164 389.797 671.639 389.797C667.962 390.06 668.093 392.555 668.881 392.818C669.669 393.212 672.033 393.343 673.74 393.212C674.134 393.212 674.922 393.212 675.185 393.081C676.761 392.293 678.731 391.242 679.388 391.111C680.176 390.979 681.358 391.111 683.196 390.323C685.035 389.535 686.348 388.878 686.217 388.484C686.086 388.353 686.086 386.908 685.298 385.463Z" fill="#252BA2"/>
<path d="M657.586 338.709C665.335 358.015 675.973 381.392 675.973 381.392C675.973 381.392 680.307 381.918 682.146 379.554C682.146 379.554 678.862 356.57 676.892 351.054C674.922 345.538 669.932 335.163 669.932 335.163L657.586 338.709Z" fill="#252BA2"/>
<path d="M670.457 312.442C670.326 316.12 669.8 334.638 669.8 334.638L657.061 336.476C656.142 332.405 655.222 328.465 654.434 325.182C653.515 321.373 652.858 318.221 652.333 315.857C652.333 315.594 652.202 315.332 652.202 315.069C649.181 300.885 647.474 288.014 647.474 288.014L667.83 283.024C669.669 286.701 670.457 289.065 670.982 295.632C671.508 302.461 670.588 308.765 670.457 312.442Z" fill="#252BA2"/>
<path d="M641.038 212.103C641.038 212.103 641.038 228.651 643.533 229.439C643.533 229.439 654.565 230.096 658.374 219.458C662.182 208.82 654.565 205.143 650.625 205.274C646.816 205.537 641.301 205.143 641.038 212.103Z" fill="#FE9393"/>
<path d="M659.95 292.086C658.112 295.763 656.798 297.864 651.939 302.461C647.08 306.926 641.958 310.735 638.937 312.836C637.755 313.756 634.34 316.12 630.794 318.484C625.804 321.898 620.682 325.444 620.682 325.444L615.691 320.716C614.509 318.615 614.246 316.514 614.509 314.806C614.772 311.129 617.004 308.371 617.53 307.714C617.53 307.714 617.53 307.583 617.661 307.583C620.55 304.431 622.914 302.33 624.753 300.097C634.34 288.671 643.534 279.084 643.534 279.084L659.95 292.086Z" fill="#252BA2"/>
<path d="M648.524 346.852C647.736 349.478 642.089 351.711 642.089 351.711C642.089 351.711 629.744 337.133 617.398 323.343C616.61 322.424 615.954 321.504 615.56 320.585C614.378 318.484 614.115 316.382 614.377 314.675L621.732 309.29C621.732 309.29 626.723 314.018 630.663 318.352C631.845 319.534 632.896 320.848 633.684 321.898C637.624 326.364 648.524 346.852 648.524 346.852Z" fill="#252BA2"/>
<path d="M647.736 227.601C647.736 227.601 648.918 229.833 648.524 234.693C648.524 234.693 652.727 236.006 657.061 234.693C657.061 234.693 656.01 227.601 657.061 220.246" fill="#FE9393"/>
<path d="M637.229 206.981C637.229 206.981 637.623 214.861 645.766 215.387C645.766 215.387 646.554 215.781 646.685 217.882C646.685 217.882 646.817 215.781 647.999 216.175C649.312 216.569 649.181 219.721 648.655 220.377C647.999 221.034 649.312 226.813 649.837 227.075C650.231 227.338 655.747 227.338 656.798 227.075C657.849 226.813 660.607 221.165 661.526 216.306C662.445 211.447 662.051 210.133 659.425 209.083C659.425 209.083 660.475 205.668 654.959 203.435C649.575 201.071 639.331 206.062 637.229 206.981Z" fill="#21227F"/>
<path d="M673.346 264.637C672.69 266.081 671.376 267.263 669.932 268.051C669.538 268.314 669.275 268.445 668.881 268.577C668.093 268.971 667.305 269.365 666.517 269.627C666.254 269.759 665.86 269.89 665.597 269.89C665.203 270.021 664.809 270.153 664.547 270.153C664.021 270.284 663.759 270.415 663.759 270.415L657.586 255.443L669.012 235.218C669.143 235.349 669.144 235.349 669.275 235.481C669.932 236.4 670.457 237.582 670.851 239.027C670.851 239.289 670.982 239.552 670.982 239.815C672.295 246.644 674.528 261.879 673.346 264.637Z" fill="white"/>
<path d="M669.931 268.051C669.537 268.314 669.275 268.445 668.881 268.577C668.093 268.971 667.305 269.365 666.517 269.627C666.254 269.759 665.86 269.89 665.597 269.89L666.911 246.775L669.931 268.051Z" fill="#DFE5EA"/>
<path d="M670.063 282.629C670.194 284.468 670.326 285.781 669.144 286.438C667.962 287.094 645.766 289.59 636.31 286.963C636.31 286.963 635.26 286.569 635.785 284.993C636.179 283.811 636.31 282.498 636.31 281.316C636.442 272.516 635.654 247.563 637.23 234.167C637.23 234.167 647.211 231.278 656.667 231.803C656.667 231.803 660.082 231.672 664.678 232.854C664.941 232.854 665.204 232.985 665.466 232.985C666.386 233.248 667.83 234.036 669.012 235.743C668.356 237.976 667.305 242.441 666.78 246.381C666.254 250.846 669.669 279.083 670.063 282.629Z" fill="white"/>
<path d="M657.061 336.607C657.061 336.607 657.323 337.921 657.586 338.84C657.98 339.628 664.678 339.759 664.678 339.759L667.436 338.709L669.8 335.163C669.8 335.163 669.669 334.637 669.669 333.718C669.669 332.799 660.213 334.506 660.213 334.506" fill="#252BA2"/>
<path d="M617.003 244.149L616.609 238.895C616.609 238.895 615.69 238.239 615.296 237.188C614.902 236.269 614.639 233.773 614.639 233.773C614.639 233.773 615.165 232.985 615.821 232.591C616.478 232.197 617.923 231.935 618.054 231.803C618.185 231.672 617.923 230.359 617.791 229.833C617.66 229.308 616.741 227.732 617.003 226.813C617.003 226.813 617.135 226.419 617.397 226.419C617.66 226.419 618.973 228.914 619.105 229.177C619.236 229.439 619.63 231.803 619.761 231.935C619.893 232.066 621.075 233.248 621.469 234.43C621.863 235.612 621.075 237.713 620.943 238.895C620.812 240.077 621.731 243.229 621.731 243.229" fill="#FE9393"/>
<path d="M615.559 235.087C615.559 235.087 615.691 236.268 615.691 236.925C615.691 237.45 615.297 237.844 615.034 237.582C614.903 237.319 614.246 236.006 614.246 235.612C614.246 235.218 614.64 233.905 614.64 233.905C614.64 233.905 614.903 232.985 615.034 232.854C615.165 232.723 615.559 232.46 615.822 232.854" fill="#FE9393"/>
<path d="M617.135 232.329C617.004 232.066 616.479 231.935 616.216 231.935C615.953 232.066 615.559 232.591 615.559 232.591L615.822 232.985" fill="#FE9393"/>
<path d="M618.317 231.935C618.186 231.672 617.661 231.541 617.398 231.541C617.135 231.672 616.741 232.197 616.741 232.197L617.004 232.591" fill="#FE9393"/>
<path d="M625.41 258.989C625.147 260.959 618.712 271.991 618.055 269.759C616.216 262.667 616.216 241.653 616.216 241.653C618.712 240.471 621.732 240.865 621.732 240.865C621.732 240.865 623.177 246.25 624.228 251.109C624.622 252.817 624.884 254.524 625.147 255.837C625.41 257.413 625.541 258.464 625.41 258.989Z" fill="white"/>
<path d="M625.278 256.1C623.177 259.909 619.368 266.213 620.156 262.667C621.075 258.464 623.571 253.079 624.359 251.372C624.753 253.079 625.015 254.787 625.278 256.1Z" fill="#DFE5EA"/>
<path d="M637.361 234.036C637.361 234.036 643.665 235.875 644.715 241.128C645.766 246.381 626.985 272.385 621.601 272.385C618.186 272.385 616.61 269.102 618.58 265.425C622.257 258.858 631.713 235.218 637.361 234.036Z" fill="white"/>
<path d="M636.441 274.093C636.441 274.093 636.441 280.265 635.128 288.145C633.027 299.571 630.663 317.564 629.875 325.444C629.875 325.444 640.907 334.769 657.192 333.455C668.749 332.536 676.367 330.041 676.367 330.041L669.8 279.083L636.441 274.093Z" fill="white"/>
<path d="M690.945 212.891H671.113C669.931 212.891 669.012 211.972 669.012 210.79V200.415C669.012 199.233 669.931 198.313 671.113 198.313H690.945C692.127 198.313 693.046 199.233 693.046 200.415V210.79C693.046 211.972 692.127 212.891 690.945 212.891Z" fill="#5499DE"/>
<path d="M674.134 211.578C674.134 211.578 674.659 216.569 671.638 217.094C671.638 217.094 677.811 218.539 677.68 211.578" fill="#5499DE"/>
<path d="M675.185 205.8C675.185 206.588 674.528 207.113 673.871 207.113C673.215 207.113 672.558 206.457 672.558 205.8C672.558 205.012 673.215 204.487 673.871 204.487C674.528 204.487 675.185 205.012 675.185 205.8Z" fill="white"/>
<path d="M682.277 205.799C682.277 206.587 681.62 207.113 680.963 207.113C680.175 207.113 679.65 206.456 679.65 205.799C679.65 205.011 680.307 204.486 680.963 204.486C681.751 204.355 682.277 205.011 682.277 205.799Z" fill="white"/>
<path d="M689.369 205.799C689.369 206.587 688.712 207.113 688.055 207.113C687.399 207.113 686.742 206.456 686.742 205.799C686.742 205.011 687.399 204.486 688.055 204.486C688.712 204.486 689.369 205.011 689.369 205.799Z" fill="white"/>
<path d="M846.574 373.249H817.156C815.448 373.249 814.004 371.805 814.004 370.097V354.863C814.004 353.155 815.448 351.711 817.156 351.711H846.574C848.282 351.711 849.726 353.155 849.726 354.863V370.097C849.858 371.805 848.413 373.249 846.574 373.249Z" fill="#5499DE"/>
<path d="M821.884 371.148C821.884 371.148 822.672 378.634 818.075 379.291C818.075 379.291 827.137 381.392 826.874 371.148" fill="#5499DE"/>
<path d="M823.46 362.612C823.46 363.794 822.54 364.582 821.49 364.582C820.308 364.582 819.52 363.662 819.52 362.612C819.52 361.43 820.439 360.642 821.49 360.642C822.54 360.642 823.46 361.561 823.46 362.612Z" fill="white"/>
<path d="M833.966 362.612C833.966 363.794 833.047 364.582 831.996 364.582C830.814 364.582 830.026 363.662 830.026 362.612C830.026 361.43 830.946 360.642 831.996 360.642C833.047 360.642 833.966 361.561 833.966 362.612Z" fill="white"/>
<path d="M844.473 362.612C844.473 363.794 843.554 364.582 842.503 364.582C841.452 364.582 840.533 363.662 840.533 362.612C840.533 361.43 841.452 360.642 842.503 360.642C843.554 360.642 844.473 361.561 844.473 362.612Z" fill="white"/>
<path d="M171.653 388.878H195.687C197.131 388.878 198.313 387.696 198.313 386.251V373.775C198.313 372.33 197.131 371.148 195.687 371.148H171.653C170.208 371.148 169.026 372.33 169.026 373.775V386.251C169.026 387.827 170.208 388.878 171.653 388.878Z" fill="#5499DE"/>
<path d="M191.878 387.17C191.878 387.17 191.221 393.212 194.899 393.868C194.899 393.868 187.413 395.576 187.675 387.17" fill="#5499DE"/>
<path d="M190.565 380.21C190.565 381.129 191.353 381.917 192.272 381.917C193.192 381.917 193.98 381.129 193.98 380.21C193.98 379.291 193.192 378.503 192.272 378.503C191.353 378.634 190.565 379.291 190.565 380.21Z" fill="white"/>
<path d="M182.028 380.21C182.028 381.129 182.816 381.917 183.736 381.917C184.655 381.917 185.443 381.129 185.443 380.21C185.443 379.291 184.655 378.503 183.736 378.503C182.816 378.634 182.028 379.291 182.028 380.21Z" fill="white"/>
<path d="M173.36 380.21C173.36 381.129 174.148 381.917 175.067 381.917C175.987 381.917 176.775 381.129 176.775 380.21C176.775 379.291 175.987 378.503 175.067 378.503C174.148 378.634 173.36 379.291 173.36 380.21Z" fill="white"/>
<path d="M776.18 564.865V572.745C776.18 572.745 778.544 573.402 781.302 572.745L781.696 563.814" fill="#FE9393"/>
<path d="M781.302 571.694C781.302 571.694 780.645 572.351 778.15 572.351C778.15 572.351 776.837 571.169 775.129 571.826C775.129 571.826 772.634 574.058 770.926 574.321C769.219 574.715 767.118 574.846 766.593 575.634C766.067 576.422 766.33 576.948 766.33 576.948C766.33 576.948 766.198 577.342 768.431 577.342C770.532 577.473 777.493 577.079 778.675 577.21C779.857 577.21 781.433 577.342 782.221 577.079C782.746 576.816 782.615 573.008 781.302 571.694Z" fill="#2034AA"/>
<path d="M820.045 562.764L822.409 570.381C822.409 570.381 824.905 570.25 827.269 568.936L825.036 560.4" fill="#FE9393"/>
<path d="M830.027 571.957C829.501 572.482 828.057 573.27 827.006 573.796C826.35 574.058 824.248 575.24 822.278 576.422C821.49 576.948 820.571 577.079 819.651 577.079H816.237C815.58 577.079 815.318 576.685 815.449 576.422C815.449 575.766 816.105 575.109 817.025 574.978C817.287 574.978 817.55 574.846 817.813 574.715C818.864 574.321 819.783 573.402 820.44 572.482C821.096 571.432 821.49 570.644 821.49 570.644C822.672 569.33 824.38 569.724 824.38 569.724C826.612 568.674 826.875 567.623 826.875 567.623C828.713 568.148 830.552 571.432 830.027 571.957Z" fill="#2034AA"/>
<path d="M794.435 480.812C794.304 482.388 794.173 483.832 794.041 484.883C793.647 487.247 792.728 490.924 791.546 494.996C789.445 502.088 786.818 510.493 785.373 515.352C791.152 527.172 782.878 566.441 781.827 569.724C778.938 570.25 776.705 569.724 775.655 569.462C774.473 551.338 772.24 514.564 772.371 513.776C772.897 495.127 775.129 478.054 775.261 475.296C775.523 472.538 775.786 457.303 777.099 456.778C779.989 455.727 787.475 453.232 790.889 458.091C794.304 463.213 794.961 473.982 794.435 480.812Z" fill="#2034AA"/>
<path d="M794.435 480.811C794.304 482.387 794.172 483.832 794.041 484.883C793.647 487.247 792.728 490.924 791.546 494.995C791.152 489.085 790.495 472.931 790.495 472.931L794.435 480.811Z" fill="#102772"/>
<path d="M732.446 424.732L728.243 423.682C728.243 423.682 727.455 423.156 726.011 421.58C724.566 420.004 722.596 420.135 722.071 420.135C721.677 420.135 721.545 420.661 722.333 421.186C722.859 421.58 723.778 421.318 724.041 422.5C724.172 423.025 722.727 423.025 721.939 422.762C721.151 422.499 718.525 421.318 717.868 420.924C717.211 420.661 716.686 421.055 718.393 422.368C719.969 423.55 720.626 423.813 721.151 424.207C721.151 424.207 721.545 424.995 721.808 425.257C721.939 425.389 721.939 425.389 722.071 425.52C722.202 425.783 722.465 426.308 722.596 426.571L722.727 426.702C722.859 427.096 722.99 427.359 723.121 427.622C723.647 428.672 725.748 428.41 726.667 428.278C727.587 428.147 731.527 429.066 731.527 429.066L732.446 424.732Z" fill="#FE9393"/>
<path d="M722.333 424.469C722.333 424.469 721.282 424.469 719.706 423.944C718.13 423.419 716.16 422.368 715.766 422.237C715.372 422.237 715.372 422.762 715.766 423.156C716.16 423.55 717.474 424.338 718.262 424.601C719.181 424.995 722.858 426.045 722.858 426.045" fill="#FE9393"/>
<path d="M722.99 425.52C722.99 425.52 721.939 425.651 720.363 425.257C718.787 424.863 716.686 424.075 716.292 424.075C715.898 424.075 715.898 424.601 716.423 424.995C716.948 425.389 718.262 425.914 719.05 426.177C719.969 426.571 723.778 427.49 723.778 427.49" fill="#FE9393"/>
<path d="M724.303 427.096C724.303 427.096 723.253 427.228 721.677 426.834C720.101 426.44 717.999 425.652 717.605 425.652C717.211 425.652 717.211 426.177 717.737 426.571C718.262 426.965 719.575 427.49 720.363 427.753C721.283 428.147 725.091 428.672 725.091 428.672" fill="#FE9393"/>
<path d="M775.786 406.871C775.786 406.871 759.895 420.924 755.167 426.834C755.167 426.834 757.137 431.168 760.683 433.006C760.683 433.006 771.452 427.884 776.968 424.076" fill="white"/>
<path d="M755.561 426.308L731.001 424.207L730.082 429.329C730.082 429.329 748.6 436.421 755.561 436.421C761.208 436.421 775.129 425.389 775.129 425.389L755.561 426.308Z" fill="white"/>
<path d="M826.743 565.259C824.248 567.229 821.621 567.229 820.57 567.098C821.096 567.754 803.76 529.142 801.002 521.262C800.87 520.737 800.082 518.636 799.951 517.979C798.638 513.908 794.304 492.894 792.334 484.62L786.555 458.222C786.555 458.222 778.675 459.273 784.322 459.01C791.546 458.616 800.608 454.939 800.608 454.939C812.69 465.183 813.741 477.003 813.216 482.913C812.953 485.277 812.953 487.641 813.084 490.136C813.478 498.936 812.034 510.756 812.428 516.666C825.298 534.79 826.086 558.824 826.743 565.259Z" fill="#2034AA"/>
<path d="M775.786 406.871C777.887 405.032 781.565 403.456 789.182 403.325C791.677 402.931 791.415 402.012 795.749 403.194C800.871 404.507 806.781 405.558 807.569 407.528C808.357 409.366 809.276 428.016 808.094 434.582C807.175 439.442 807.7 456.778 810.983 468.335C811.771 471.093 792.991 462.031 787.737 462.031C783.141 462.031 776.311 461.9 776.18 460.324C775.917 457.04 775.786 454.545 775.786 452.181C775.786 448.372 773.947 408.972 775.786 406.871Z" fill="white"/>
<path d="M804.942 453.363C804.942 453.363 805.205 457.172 807.7 461.243C810.195 465.314 813.347 472.8 814.135 481.468C814.923 489.742 814.923 514.302 814.923 514.302C814.923 514.302 797.981 516.272 783.403 514.302L782.878 456.646L804.942 453.363Z" fill="white"/>
<path d="M818.338 442.2C818.338 435.764 817.55 418.428 810.72 409.497C808.094 406.083 802.052 404.638 802.052 404.638L802.184 420.661C802.315 426.702 806.386 442.856 806.386 442.856H818.206C818.338 442.725 818.338 442.462 818.338 442.2Z" fill="white"/>
<path d="M796.536 455.202L772.896 445.22C772.371 445.089 772.24 444.564 772.371 444.038L783.009 412.518C783.14 411.993 783.797 411.73 784.322 411.993L807.962 421.974C808.488 422.106 808.619 422.631 808.488 423.156L797.85 454.676C797.718 455.202 797.062 455.464 796.536 455.202Z" fill="#6AB4E5"/>
<path d="M787.869 435.896C787.869 435.896 785.111 434.714 784.717 434.451C784.323 434.057 783.141 430.511 781.565 429.855C781.565 429.855 780.514 429.855 779.726 430.643C778.938 431.431 778.019 433.926 777.887 435.371C777.887 436.815 780.251 437.997 780.514 438.26C780.777 438.391 783.797 439.442 785.242 440.361" fill="#FE9393"/>
<path d="M783.403 431.825C783.403 431.825 782.484 430.117 781.433 429.329C780.645 428.804 780.383 428.541 780.12 428.935C779.857 429.329 780.12 430.249 780.645 431.037" fill="#FE9393"/>
<path d="M785.373 437.34C784.585 438.785 784.585 440.755 784.585 440.755C784.585 440.755 805.467 452.838 812.69 454.414L813.741 442.594L787.08 435.37C786.949 435.239 786.161 435.896 785.373 437.34Z" fill="white"/>
<path d="M800.214 404.244C800.214 404.244 795.223 407.921 789.182 403.325C789.182 403.325 789.97 401.88 790.101 401.617C790.495 401.092 791.152 399.779 791.546 397.94C791.546 397.809 791.546 397.677 791.677 397.546C791.809 397.021 791.94 396.364 791.94 395.839C792.071 394.788 792.071 393.606 791.809 392.293L792.334 391.767L801.921 384.15L802.972 383.231C802.972 383.231 802.709 385.069 802.184 387.827C801.921 389.403 801.659 391.111 801.396 393.081C801.002 397.021 800.345 401.223 800.214 404.244Z" fill="#FE9393"/>
<path d="M798.638 393.344C797.193 395.314 794.172 399.385 790.101 401.618C790.495 401.092 791.152 399.779 791.546 397.94C790.889 398.072 790.364 398.203 789.707 398.334C789.707 397.94 789.707 397.415 789.707 396.89L790.364 396.496L791.808 395.839L799.426 392.162C799.426 392.162 799.163 392.556 798.638 393.344Z" fill="#E15F60"/>
<path d="M784.191 378.766C784.191 378.766 782.615 383.1 785.504 385.595L786.817 378.897L784.191 378.766Z" fill="#3F49A5"/>
<path d="M800.214 391.899C799.689 392.556 799.295 393.212 798.769 393.738C797.85 394.657 796.931 395.576 795.749 396.364C794.304 397.284 793.122 397.94 791.94 398.203C791.283 398.334 790.758 398.466 790.233 398.466C787.737 398.728 786.424 397.678 786.424 397.678C784.191 394.263 784.191 388.747 784.717 384.544C784.979 382.837 785.242 381.392 785.373 380.342C785.636 379.422 785.767 378.897 785.767 378.897V378.766C786.818 373.381 794.041 373.118 798.901 376.27C799.163 376.402 799.426 376.664 799.689 376.796C801.133 377.846 802.184 379.028 802.841 380.604C804.023 383.1 803.235 385.989 802.053 388.484C802.053 388.616 801.921 388.747 801.921 388.878C801.527 390.06 800.871 391.111 800.214 391.899Z" fill="#FE9393"/>
<path d="M800.739 377.583C800.739 377.583 794.698 384.938 784.848 380.079C781.302 378.371 780.645 370.36 783.797 370.885C788.262 371.673 793.122 367.208 798.112 369.835C799.688 370.754 801.396 374.431 800.739 377.583Z" fill="#3F49A5"/>
<path d="M798.637 377.058C798.637 377.058 795.223 394.788 798.769 386.646C798.769 386.646 799.688 384.413 801.395 384.544C803.103 384.807 801.658 390.848 801.527 393.475C801.527 393.475 805.335 390.717 806.78 382.706C808.225 374.694 802.709 371.28 799.688 374.826L798.637 377.058Z" fill="#3F49A5"/>
<path d="M801.002 385.858C801.002 385.858 800.082 385.989 799.82 387.696C799.557 389.404 800.739 389.798 801.002 388.878C801.264 387.959 800.345 387.434 800.214 387.828C800.214 387.828 799.951 386.777 801.002 385.858Z" fill="#E15F60"/>
<path d="M818.338 439.704C818.338 439.704 819.651 455.595 812.69 454.282C807.437 451.261 808.75 441.543 808.75 441.543C808.75 441.543 813.478 439.047 814.004 439.31C814.529 439.573 818.338 439.704 818.338 439.704Z" fill="white"/>
<path d="M781.302 431.43C781.302 431.43 779.726 429.854 779.463 429.197C779.2 428.541 778.412 426.045 777.887 425.914C777.624 425.783 777.23 425.783 777.493 427.227C777.756 428.541 778.018 429.723 778.15 430.117C778.281 430.511 780.12 432.744 780.12 432.744" fill="#FE9393"/>
<path d="M780.645 432.743C780.645 432.743 779.069 431.167 778.806 430.511C778.544 429.854 777.756 427.359 777.23 427.227C776.968 427.096 776.574 427.096 776.836 428.541C777.099 429.854 777.362 431.036 777.493 431.43C777.624 431.824 779.463 434.057 779.463 434.057" fill="#FE9393"/>
<path d="M780.12 434.057C780.12 434.057 778.544 432.481 778.281 431.824C778.019 431.167 777.231 428.672 776.705 428.541C776.443 428.409 776.049 428.409 776.311 429.854C776.574 431.167 776.837 432.349 776.968 432.743C777.099 433.137 778.938 435.37 778.938 435.37" fill="#FE9393"/>
<path d="M779.726 435.37C779.726 435.37 778.281 433.926 778.019 433.4C777.756 432.875 777.099 430.642 776.705 430.511C776.574 430.38 776.049 430.38 776.311 431.693C776.443 432.875 776.705 433.794 776.837 434.188C776.968 434.582 778.544 436.552 778.544 436.552" fill="#FE9393"/>
<path d="M775.917 454.282L770.401 512.463C770.401 512.463 775.129 513.776 778.019 513.514L783.534 457.697L775.917 454.282Z" fill="white"/>
<path d="M787.869 403.325L789.576 401.223C789.576 401.223 791.546 402.931 792.597 403.325V405.82C792.597 405.82 789.445 404.638 787.869 403.325Z" fill="white"/>
<path d="M792.597 405.163L793.385 403.587C793.385 403.587 798.769 403.587 800.871 402.537L801.527 404.638C801.527 404.507 797.062 407.133 792.597 405.163Z" fill="white"/>
<path d="M798.9 438.522C800.345 438.785 801.79 439.048 803.103 439.442C804.548 439.836 805.861 440.098 807.306 440.492L806.912 440.886C806.386 439.048 805.992 437.078 805.73 435.108C806.386 436.946 807.043 438.785 807.568 440.755L807.7 441.28L807.174 441.149C805.73 440.755 804.416 440.361 802.972 439.967C801.658 439.442 800.214 439.048 798.9 438.522Z" fill="#DFE5EA"/>
<path d="M106.117 578.26H878.883" stroke="#2A5B87" stroke-width="2.62667" stroke-miterlimit="10"/>
<path d="M147.881 285.913L134.485 262.535L147.881 239.289H174.936L188.332 262.535L174.936 285.913H147.881Z" stroke="#A4E0EA" stroke-width="1.42733" stroke-miterlimit="10"/>
<path d="M215.387 309.29L228.914 285.913H255.837L269.233 309.29" stroke="#A4E0EA" stroke-width="1.42733" stroke-miterlimit="10"/>
<path d="M188.463 262.535L174.936 239.289L188.463 215.912H215.387L228.914 239.289L215.387 262.535H188.463Z" stroke="#A4E0EA" stroke-width="1.42733" stroke-miterlimit="10"/>
<path d="M107.562 215.912H134.485L148.012 239.289L134.485 262.535H107.562" stroke="#A4E0EA" stroke-width="1.42733" stroke-miterlimit="10"/>
<path d="M188.463 309.29L174.936 285.913L188.463 262.535H215.387L228.914 285.913L215.387 309.29H188.463Z" stroke="#A4E0EA" stroke-width="1.42733" stroke-miterlimit="10"/>
<path d="M148.013 243.098C150.116 243.098 151.821 241.393 151.821 239.289C151.821 237.186 150.116 235.481 148.013 235.481C145.909 235.481 144.204 237.186 144.204 239.289C144.204 241.393 145.909 243.098 148.013 243.098Z" fill="#A4E0EA"/>
<path d="M174.936 243.098C177.039 243.098 178.744 241.393 178.744 239.289C178.744 237.186 177.039 235.481 174.936 235.481C172.832 235.481 171.127 237.186 171.127 239.289C171.127 241.393 172.832 243.098 174.936 243.098Z" fill="#A4E0EA"/>
<path d="M188.463 219.721C190.566 219.721 192.272 218.016 192.272 215.912C192.272 213.809 190.566 212.104 188.463 212.104C186.359 212.104 184.654 213.809 184.654 215.912C184.654 218.016 186.359 219.721 188.463 219.721Z" fill="#A4E0EA"/>
<path d="M215.518 219.721C217.621 219.721 219.327 218.016 219.327 215.912C219.327 213.809 217.621 212.104 215.518 212.104C213.414 212.104 211.709 213.809 211.709 215.912C211.709 218.016 213.414 219.721 215.518 219.721Z" fill="#A4E0EA"/>
<path d="M192.141 262.535C192.141 264.637 190.433 266.344 188.332 266.344C186.231 266.344 184.523 264.637 184.523 262.535C184.523 260.434 186.231 258.727 188.332 258.727C190.433 258.858 192.141 260.565 192.141 262.535Z" fill="#A4E0EA"/>
<path d="M228.914 243.098C231.017 243.098 232.723 241.393 232.723 239.289C232.723 237.186 231.017 235.481 228.914 235.481C226.81 235.481 225.105 237.186 225.105 239.289C225.105 241.393 226.81 243.098 228.914 243.098Z" fill="#A4E0EA"/>
<path d="M219.195 262.535C219.195 264.637 217.488 266.344 215.387 266.344C213.285 266.344 211.578 264.637 211.578 262.535C211.578 260.434 213.285 258.727 215.387 258.727C217.488 258.727 219.195 260.565 219.195 262.535Z" fill="#A4E0EA"/>
<path d="M178.744 285.913C178.744 288.014 177.037 289.721 174.936 289.721C172.834 289.721 171.127 288.014 171.127 285.913C171.127 283.811 172.834 282.104 174.936 282.104C177.037 282.235 178.744 283.811 178.744 285.913Z" fill="#A4E0EA"/>
<path d="M232.723 285.913C232.723 288.014 231.015 289.721 228.914 289.721C226.813 289.721 225.105 288.014 225.105 285.913C225.105 283.811 226.813 282.104 228.914 282.104C231.015 282.104 232.723 283.811 232.723 285.913Z" fill="#A4E0EA"/>
<path d="M215.387 313.099C217.49 313.099 219.195 311.394 219.195 309.29C219.195 307.187 217.49 305.482 215.387 305.482C213.283 305.482 211.578 307.187 211.578 309.29C211.578 311.394 213.283 313.099 215.387 313.099Z" fill="#A4E0EA"/>
<path d="M269.233 313.099C271.337 313.099 273.042 311.394 273.042 309.29C273.042 307.187 271.337 305.482 269.233 305.482C267.13 305.482 265.425 307.187 265.425 309.29C265.425 311.394 267.13 313.099 269.233 313.099Z" fill="#A4E0EA"/>
<path d="M188.463 313.099C190.566 313.099 192.272 311.394 192.272 309.29C192.272 307.187 190.566 305.482 188.463 305.482C186.359 305.482 184.654 307.187 184.654 309.29C184.654 311.394 186.359 313.099 188.463 313.099Z" fill="#A4E0EA"/>
<path d="M151.69 285.913C151.69 288.014 149.983 289.721 147.881 289.721C145.78 289.721 144.073 288.014 144.073 285.913C144.073 283.811 145.78 282.104 147.881 282.104C149.983 282.104 151.69 283.811 151.69 285.913Z" fill="#A4E0EA"/>
<path d="M138.163 262.535C138.163 264.637 136.455 266.344 134.354 266.344C132.253 266.344 130.545 264.637 130.545 262.535C130.545 260.434 132.253 258.727 134.354 258.727C136.455 258.727 138.163 260.565 138.163 262.535Z" fill="#A4E0EA"/>
<path d="M716.686 146.83L703.158 123.584L716.686 100.207H743.609L757.136 123.584L743.609 146.83H716.686Z" stroke="#A4E0EA" stroke-width="1.42733" stroke-miterlimit="10"/>
<path d="M784.191 170.208L797.587 146.83H824.511L838.038 170.208" stroke="#A4E0EA" stroke-width="1.42733" stroke-miterlimit="10"/>
<path d="M757.136 123.585L743.74 100.207L757.136 76.8298H784.191L797.587 100.207L784.191 123.585H757.136Z" stroke="#A4E0EA" stroke-width="1.42733" stroke-miterlimit="10"/>
<path d="M703.159 76.8298L716.686 100.207L703.159 123.585H676.235" stroke="#A4E0EA" stroke-width="1.42733" stroke-miterlimit="10"/>
<path d="M743.74 146.83L757.136 123.584H784.191L797.587 146.83L784.191 170.208" stroke="#A4E0EA" stroke-width="1.42733" stroke-miterlimit="10"/>
<path d="M720.363 100.207C720.363 102.308 718.656 104.016 716.554 104.016C714.453 104.016 712.746 102.308 712.746 100.207C712.746 98.1058 714.453 96.3984 716.554 96.3984C718.787 96.3984 720.363 98.1058 720.363 100.207Z" fill="#A4E0EA"/>
<path d="M703.159 81.4267C705.262 81.4267 706.967 79.7215 706.967 77.618C706.967 75.5145 705.262 73.8093 703.159 73.8093C701.055 73.8093 699.35 75.5145 699.35 77.618C699.35 79.7215 701.055 81.4267 703.159 81.4267Z" fill="#A4E0EA"/>
<path d="M743.741 104.016C745.844 104.016 747.549 102.311 747.549 100.207C747.549 98.1036 745.844 96.3984 743.741 96.3984C741.637 96.3984 739.932 98.1036 739.932 100.207C739.932 102.311 741.637 104.016 743.741 104.016Z" fill="#A4E0EA"/>
<path d="M757.268 80.6386C759.371 80.6386 761.077 78.9334 761.077 76.8299C761.077 74.7264 759.371 73.0212 757.268 73.0212C755.164 73.0212 753.459 74.7264 753.459 76.8299C753.459 78.9334 755.164 80.6386 757.268 80.6386Z" fill="#A4E0EA"/>
<path d="M784.191 80.6386C786.295 80.6386 788 78.9334 788 76.8299C788 74.7264 786.295 73.0212 784.191 73.0212C782.088 73.0212 780.383 74.7264 780.383 76.8299C780.383 78.9334 782.088 80.6386 784.191 80.6386Z" fill="#A4E0EA"/>
<path d="M760.814 123.585C760.814 125.686 759.107 127.393 757.005 127.393C754.904 127.393 753.197 125.686 753.197 123.585C753.197 121.483 754.904 119.776 757.005 119.776C759.107 119.776 760.814 121.483 760.814 123.585Z" fill="#A4E0EA"/>
<path d="M797.587 104.016C799.691 104.016 801.396 102.311 801.396 100.207C801.396 98.1036 799.691 96.3984 797.587 96.3984C795.484 96.3984 793.779 98.1036 793.779 100.207C793.779 102.311 795.484 104.016 797.587 104.016Z" fill="#A4E0EA"/>
<path d="M787.868 123.585C787.868 125.686 786.161 127.393 784.06 127.393C781.958 127.393 780.251 125.686 780.251 123.585C780.251 121.483 781.958 119.776 784.06 119.776C786.161 119.776 787.868 121.483 787.868 123.585Z" fill="#A4E0EA"/>
<path d="M747.418 146.831C747.418 148.932 745.711 150.639 743.609 150.639C741.508 150.639 739.801 148.932 739.801 146.831C739.801 144.729 741.508 143.022 743.609 143.022C745.711 143.022 747.418 144.861 747.418 146.831Z" fill="#A4E0EA"/>
<path d="M801.396 146.831C801.396 148.932 799.689 150.639 797.587 150.639C795.486 150.639 793.779 148.932 793.779 146.831C793.779 144.729 795.486 143.022 797.587 143.022C799.689 143.153 801.396 144.861 801.396 146.831Z" fill="#A4E0EA"/>
<path d="M787.868 170.208C787.868 172.309 786.161 174.017 784.06 174.017C781.958 174.017 780.251 172.309 780.251 170.208C780.251 168.107 781.958 166.399 784.06 166.399C786.161 166.531 787.868 168.107 787.868 170.208Z" fill="#A4E0EA"/>
<path d="M838.038 174.017C840.141 174.017 841.847 172.312 841.847 170.208C841.847 168.105 840.141 166.399 838.038 166.399C835.934 166.399 834.229 168.105 834.229 170.208C834.229 172.312 835.934 174.017 838.038 174.017Z" fill="#A4E0EA"/>
<path d="M720.363 146.831C720.363 148.932 718.656 150.639 716.554 150.639C714.453 150.639 712.746 148.932 712.746 146.831C712.746 144.729 714.453 143.022 716.554 143.022C718.787 143.153 720.363 144.861 720.363 146.831Z" fill="#A4E0EA"/>
<path d="M706.967 123.585C706.967 125.686 705.26 127.393 703.159 127.393C701.057 127.393 699.35 125.686 699.35 123.585C699.35 121.483 701.057 119.776 703.159 119.776C705.26 119.776 706.967 121.483 706.967 123.585Z" fill="#A4E0EA"/>
<path d="M417.377 104.016C427.752 114.391 409.103 132.909 419.478 143.153C429.854 153.529 448.372 134.879 458.747 145.255C469.122 155.63 450.473 174.148 460.848 184.523" stroke="#A4E0EA" stroke-width="2.62667" stroke-miterlimit="10" stroke-linecap="round"/>
<path d="M398.728 122.534C409.103 132.909 427.621 114.26 437.865 124.635C448.24 135.011 429.591 153.529 439.966 163.904C450.342 174.279 468.86 155.63 479.235 166.005" stroke="#A4E0EA" stroke-width="2.62667" stroke-miterlimit="10" stroke-linecap="round"/>
<path d="M419.347 143.153L437.997 124.635" stroke="#A4E0EA" stroke-width="2.62667" stroke-miterlimit="10" stroke-linecap="round"/>
<path d="M416.326 137.243L432.086 121.615" stroke="#A4E0EA" stroke-width="2.62667" stroke-miterlimit="10" stroke-linecap="round"/>
<path d="M425.257 146.174L441.017 130.545" stroke="#A4E0EA" stroke-width="2.62667" stroke-miterlimit="10" stroke-linecap="round"/>
<path d="M404.638 125.555L420.398 109.926" stroke="#A4E0EA" stroke-width="2.62667" stroke-miterlimit="10" stroke-linecap="round"/>
<path d="M439.967 163.773L458.616 145.255" stroke="#A4E0EA" stroke-width="2.62667" stroke-miterlimit="10" stroke-linecap="round"/>
<path d="M436.946 157.863L452.706 142.234" stroke="#A4E0EA" stroke-width="2.62667" stroke-miterlimit="10" stroke-linecap="round"/>
<path d="M445.877 166.793L461.637 151.165" stroke="#A4E0EA" stroke-width="2.62667" stroke-miterlimit="10" stroke-linecap="round"/>
<path d="M457.828 178.745L473.457 162.985" stroke="#A4E0EA" stroke-width="2.62667" stroke-miterlimit="10" stroke-linecap="round"/>
<path d="M99.5505 363.925C109.926 374.3 91.2765 392.818 101.652 403.062C112.027 413.437 130.545 394.788 140.92 405.163C151.296 415.539 132.646 434.057 143.022 444.432" stroke="#A4E0EA" stroke-width="2.62667" stroke-miterlimit="10" stroke-linecap="round"/>
<path d="M80.9011 382.443C91.2765 392.818 109.794 374.169 120.038 384.544C130.414 394.919 111.764 413.437 122.14 423.813C132.515 434.188 151.033 415.539 161.408 425.914" stroke="#A4E0EA" stroke-width="2.62667" stroke-miterlimit="10" stroke-linecap="round"/>
<path d="M101.52 403.193L120.17 384.544" stroke="#A4E0EA" stroke-width="2.62667" stroke-miterlimit="10" stroke-linecap="round"/>
<path d="M98.4998 397.283L114.26 381.523" stroke="#A4E0EA" stroke-width="2.62667" stroke-miterlimit="10" stroke-linecap="round"/>
<path d="M107.43 406.214L123.19 390.454" stroke="#A4E0EA" stroke-width="2.62667" stroke-miterlimit="10" stroke-linecap="round"/>
<path d="M86.811 385.594L102.571 369.834" stroke="#A4E0EA" stroke-width="2.62667" stroke-miterlimit="10" stroke-linecap="round"/>
<path d="M122.271 423.813L140.789 405.164" stroke="#A4E0EA" stroke-width="2.62667" stroke-miterlimit="10" stroke-linecap="round"/>
<path d="M119.25 417.903L134.879 402.143" stroke="#A4E0EA" stroke-width="2.62667" stroke-miterlimit="10" stroke-linecap="round"/>
<path d="M128.181 426.833L143.81 411.073" stroke="#A4E0EA" stroke-width="2.62667" stroke-miterlimit="10" stroke-linecap="round"/>
<path d="M140.001 438.653L155.761 423.024" stroke="#A4E0EA" stroke-width="2.62667" stroke-miterlimit="10" stroke-linecap="round"/>
<path d="M274.093 212.235C282.797 212.235 289.853 189.42 289.853 161.277C289.853 133.134 282.797 110.32 274.093 110.32C265.389 110.32 258.333 133.134 258.333 161.277C258.333 189.42 265.389 212.235 274.093 212.235Z" stroke="white" stroke-width="1.13892" stroke-miterlimit="10"/>
<path d="M281.977 174.955C306.346 160.875 322.571 143.351 318.216 135.814C313.862 128.278 290.576 133.582 266.207 147.662C241.838 161.742 225.614 179.266 229.968 186.802C234.323 194.339 257.608 189.035 281.977 174.955Z" stroke="white" stroke-width="1.13892" stroke-miterlimit="10"/>
<path d="M318.22 186.834C322.575 179.297 306.35 161.774 281.981 147.694C257.612 133.614 234.327 128.31 229.972 135.846C225.618 143.383 241.842 160.907 266.211 174.987C290.58 189.067 313.865 194.371 318.22 186.834Z" stroke="white" stroke-width="1.13892" stroke-miterlimit="10"/>
<path d="M281.972 161.277C281.972 165.611 278.426 169.026 274.224 169.026C269.89 169.026 266.475 165.48 266.475 161.277C266.475 157.075 270.021 153.529 274.224 153.529C278.426 153.529 281.972 157.075 281.972 161.277Z" fill="white"/>
<path d="M248.614 137.375C250.572 137.375 252.16 135.787 252.16 133.829C252.16 131.87 250.572 130.283 248.614 130.283C246.655 130.283 245.068 131.87 245.068 133.829C245.068 135.787 246.655 137.375 248.614 137.375Z" fill="white"/>
<path d="M288.014 188.857C289.972 188.857 291.56 187.27 291.56 185.311C291.56 183.353 289.972 181.765 288.014 181.765C286.055 181.765 284.468 183.353 284.468 185.311C284.468 187.27 286.055 188.857 288.014 188.857Z" fill="white"/>
<path d="M313.624 153.529C313.624 155.499 312.048 157.075 310.078 157.075C308.108 157.075 306.532 155.499 306.532 153.529C306.532 151.559 308.108 149.983 310.078 149.983C312.048 149.983 313.624 151.559 313.624 153.529Z" fill="white"/>
<path d="M833.139 230.763C837.36 225.688 836.667 218.153 831.591 213.932C826.516 209.712 818.981 210.405 814.76 215.48C810.54 220.555 811.233 228.091 816.308 232.311C821.383 236.531 828.919 235.839 833.139 230.763Z" fill="white"/>
<path d="M862.203 265.162C859.839 268.708 855.111 269.627 851.697 267.395C848.151 265.031 847.231 260.303 849.464 256.888C851.828 253.342 856.556 252.423 859.971 254.655C863.517 257.019 864.567 261.747 862.203 265.162Z" fill="white"/>
<path d="M816.278 275.868C818.054 274.263 818.193 271.523 816.588 269.747C814.983 267.971 812.242 267.832 810.466 269.437C808.691 271.042 808.552 273.783 810.157 275.559C811.762 277.334 814.502 277.473 816.278 275.868Z" fill="white"/>
<path d="M823.985 223.135L827.137 256.232L855.768 261.091" stroke="white" stroke-width="2.02726" stroke-miterlimit="10"/>
<path d="M827.137 256.232L813.347 272.648" stroke="white" stroke-width="2.02726" stroke-miterlimit="10"/>
<path d="M833.835 260.697C831.471 264.374 826.48 265.425 822.803 263.061C819.126 260.697 818.075 255.706 820.439 252.029C822.803 248.352 827.794 247.301 831.471 249.665C835.148 252.029 836.33 256.888 833.835 260.697Z" fill="#F9CB44"/>
<path d="M127.656 491.318C126.736 486.459 129.888 481.862 134.616 480.943C139.476 480.023 144.072 483.175 144.992 487.903C145.911 492.763 142.759 497.359 138.031 498.279C133.303 499.198 128.575 496.046 127.656 491.318Z" fill="white"/>
<path d="M94.2971 486.984C93.6404 483.963 95.7417 480.943 98.7624 480.286C101.783 479.629 104.804 481.731 105.46 484.751C106.117 487.772 104.016 490.793 100.995 491.449C97.8431 491.975 94.8224 490.005 94.2971 486.984Z" fill="white"/>
<path d="M113.34 458.353C112.946 456.646 114.128 454.939 115.836 454.545C117.543 454.151 119.25 455.333 119.644 457.04C120.038 458.747 118.856 460.455 117.149 460.849C115.31 461.243 113.734 460.061 113.34 458.353Z" fill="white"/>
<path d="M136.324 489.611L117.543 473.588L99.813 485.802" stroke="white" stroke-width="1.506" stroke-miterlimit="10"/>
<path d="M117.543 473.588L116.492 457.697" stroke="white" stroke-width="1.506" stroke-miterlimit="10"/>
<path d="M111.764 474.77C111.107 471.618 113.209 468.466 116.492 467.809C119.644 467.152 122.796 469.254 123.453 472.537C124.109 475.689 122.008 478.841 118.725 479.498C115.441 480.023 112.289 477.922 111.764 474.77Z" fill="#F9CB44"/>
<path d="M296.419 478.71C299.965 479.104 302.592 482.387 302.198 485.933C301.804 489.479 298.521 492.106 294.975 491.712C291.429 491.318 288.802 488.035 289.196 484.489C289.59 480.943 292.873 478.316 296.419 478.71Z" fill="white"/>
<path d="M306.926 455.989C309.29 456.252 310.866 458.353 310.603 460.586C310.341 462.95 308.239 464.526 306.007 464.263C303.643 464.001 302.067 461.899 302.329 459.667C302.592 457.434 304.693 455.727 306.926 455.989Z" fill="white"/>
<path d="M322.948 475.952C324.262 476.083 325.181 477.265 325.05 478.579C324.918 479.892 323.736 480.811 322.423 480.68C321.11 480.549 320.19 479.367 320.322 478.053C320.453 476.74 321.635 475.689 322.948 475.952Z" fill="white"/>
<path d="M295.762 485.145L311.26 475.427L306.532 460.192" stroke="white" stroke-width="1.11515" stroke-miterlimit="10"/>
<path d="M311.26 475.427L322.686 478.316" stroke="white" stroke-width="1.11515" stroke-miterlimit="10"/>
<path d="M311.654 471.093C314.018 471.355 315.725 473.588 315.463 475.952C315.2 478.316 312.967 480.023 310.603 479.761C308.239 479.498 306.532 477.265 306.795 474.901C307.057 472.537 309.29 470.83 311.654 471.093Z" fill="#F9CB44"/>
</svg>
