<svg width="940" height="940" viewBox="0 0 940 940" fill="none" xmlns="http://www.w3.org/2000/svg">
<g clip-path="url(#clip0)">
<circle cx="237.5" cy="682.5" r="247.5" fill="#F3FDFF"/>
<path d="M474.324 798.624C657.479 798.624 805.956 650.147 805.956 466.992C805.956 283.837 657.479 135.36 474.324 135.36C291.169 135.36 142.692 283.837 142.692 466.992C142.692 650.147 291.169 798.624 474.324 798.624Z" fill="#DCEEFF"/>
<path d="M500.832 179.728C500.456 178.976 499.704 178.224 498.764 177.848C496.508 176.72 493.312 175.404 493.124 175.968C492.936 176.532 495.568 178.036 495.568 178.036C495.568 178.036 492.748 178.036 491.244 178.224C489.74 178.412 487.86 178.976 488.048 179.54C488.236 180.104 491.432 179.728 491.432 179.728C491.432 179.728 487.672 180.104 487.86 180.856C488.048 181.608 491.996 180.856 491.996 180.856C491.996 180.856 488.8 181.608 489.176 182.548C489.552 183.3 493.124 182.172 493.124 182.172C493.124 182.172 490.868 183.112 491.244 183.864C491.432 184.428 494.816 183.488 496.696 183.3C498.576 183.112 499.892 182.548 500.08 182.548C501.772 182.36 501.584 180.48 500.832 179.728Z" fill="#EEBDAE"/>
<path d="M531.476 181.044C531.476 181.044 516.248 183.488 499.704 182.36C497.636 181.232 496.508 178.036 498.952 177.472C508.728 175.216 526.024 170.704 529.408 170.704C532.792 170.892 533.356 176.344 531.476 181.044Z" fill="#E8E8E8"/>
<path d="M463.044 826.448C621.696 826.448 750.308 819.21 750.308 810.28C750.308 801.351 621.696 794.112 463.044 794.112C304.393 794.112 175.78 801.351 175.78 810.28C175.78 819.21 304.393 826.448 463.044 826.448Z" fill="#9EC6EC"/>
<path d="M393.108 586.56L405.892 591.26L418.864 607.428L393.86 679.808C393.86 679.808 414.54 688.268 426.196 691.84C437.852 695.412 560.804 718.16 611.188 552.72C661.76 386.904 553.848 319.788 536.176 314.524C505.156 354.944 504.78 405.892 504.78 405.892C504.78 405.892 534.484 418.488 534.484 454.396C534.484 480.152 523.58 539.936 502.148 580.544C490.68 602.164 475.076 614.384 456.088 613.068C433.34 611.564 428.64 589.568 428.64 589.568L396.116 577.16L393.108 586.56Z" fill="#466DA2"/>
<path d="M399.056 659.878L368.123 649.237L366.411 654.215L397.343 664.856L399.056 659.878Z" fill="#6397E2"/>
<path d="M401.365 658.225L398.343 657.185L395.163 666.429L398.185 667.469L401.365 658.225Z" fill="#39577F"/>
<path d="M536.285 314.304L477.442 294.061L446.008 385.436L504.851 405.679L536.285 314.304Z" fill="#6397E2"/>
<path d="M536.175 314.388L533.509 313.471L502.074 404.846L504.741 405.763L536.175 314.388Z" fill="#39577F"/>
<path d="M491.465 299.057L477.421 294.226L445.987 385.601L460.031 390.433L491.465 299.057Z" fill="#466DA2"/>
<path opacity="0.21" d="M568.7 532.04C598.78 418.3 557.232 373.556 520.948 359.832C499.14 351.748 466.24 340.28 462.104 338.776L446.124 385.4L504.968 405.704C504.968 405.704 534.672 418.3 534.672 454.208C534.672 479.964 523.768 539.748 502.336 580.356C490.868 601.976 475.264 614.196 456.276 612.88C433.528 611.376 428.828 589.38 428.828 589.38L396.304 576.972L393.108 586.372L405.892 591.072L418.864 607.24L406.456 643.336C418.112 647.284 434.092 652.548 449.696 657.06C484.852 666.836 541.252 635.628 568.7 532.04Z" fill="#466DA2"/>
<path d="M370.36 593.704L335.392 581.672C324.864 578.1 319.224 566.444 322.796 555.916L323.924 552.72L397.244 577.912L396.116 581.108C392.544 591.636 381.076 597.276 370.36 593.704Z" fill="#39577F"/>
<path d="M514.914 173.96L478.649 161.484L444.646 260.325L480.911 272.801L514.914 173.96Z" fill="#5784C6"/>
<path d="M519.256 167.696L479.024 153.784C478.272 153.596 477.52 153.972 477.332 154.724L474.512 163.184C474.324 163.936 474.7 164.688 475.452 164.876L515.684 178.788C516.436 178.976 517.188 178.6 517.376 177.848L520.196 169.388C520.384 168.636 520.008 167.884 519.256 167.696Z" fill="#466DA2"/>
<path d="M474.271 292.292L438.006 279.816L378.439 452.966L414.705 465.442L474.271 292.292Z" fill="#6397E2"/>
<path d="M474.255 292.21L437.989 279.734L386.006 430.841L422.272 443.317L474.255 292.21Z" fill="#5784C6"/>
<path d="M417.548 461.916L378.444 448.38C377.504 448.004 376.376 448.568 376 449.696L373.556 457.028C373.18 457.968 373.744 459.096 374.872 459.472L413.976 473.008C414.916 473.384 416.044 472.82 416.42 471.692L418.864 464.36C419.052 463.232 418.676 462.104 417.548 461.916Z" fill="#466DA2"/>
<path d="M498.993 257.065L440.15 236.822L380.584 409.973L439.426 430.216L498.993 257.065Z" fill="#6397E2"/>
<path d="M491.056 243.836L454.396 231.428L440.296 236.692L498.952 256.996L491.056 243.836Z" fill="#466DA2"/>
<path d="M446.312 425.256L378.256 401.944C376.94 401.568 375.436 402.132 374.872 403.636L371.676 412.66C371.3 413.976 371.864 415.48 373.368 416.044L441.424 439.356C442.74 439.732 444.244 439.168 444.808 437.664L448.004 428.64C448.38 427.136 447.628 425.632 446.312 425.256Z" fill="#466DA2"/>
<path d="M510.946 350.495C512.214 342.707 506.927 335.366 499.139 334.098C491.35 332.831 484.009 338.117 482.742 345.906C481.474 353.694 486.761 361.035 494.549 362.303C502.338 363.57 509.679 358.284 510.946 350.495Z" fill="#466DA2"/>
<path opacity="0.21" d="M416.232 471.692L418.676 464.36C419.052 463.42 418.488 462.292 417.36 461.916L415.856 461.352L422.06 443.304L425.444 433.716L441.236 439.168C442.552 439.544 444.056 438.98 444.62 437.476L447.816 428.452C448.192 427.136 447.628 425.632 446.124 425.068L441.612 423.564L498.952 256.808L491.056 243.836H490.868L513.428 178.036L515.496 178.788C516.248 178.976 517 178.6 517.188 177.848L520.008 169.388C520.196 168.636 519.82 167.884 519.068 167.696L500.456 161.304L395.364 466.804L413.412 473.008C414.728 473.384 415.856 472.82 416.232 471.692Z" fill="#466DA2"/>
<path d="M369.232 660.444L300.8 636.944C299.484 636.568 298.92 635.252 299.296 633.936L302.492 624.536C302.868 623.22 304.184 622.656 305.5 623.032L373.932 646.532C375.248 646.908 375.812 648.224 375.436 649.54L372.24 658.94C371.864 660.068 370.548 660.82 369.232 660.444Z" fill="#39577F"/>
<path d="M436.912 568.888L298.168 521.136C291.964 519.068 285.196 522.264 283.128 528.468C281.06 534.672 284.256 541.44 290.46 543.508L429.204 591.26C435.408 593.328 442.176 590.132 444.244 583.928C446.5 577.724 443.116 571.144 436.912 568.888Z" fill="#6397E2"/>
<path opacity="0.21" d="M290.648 543.696L429.392 591.448C435.032 593.328 441.048 590.884 443.68 585.808L282.94 530.536C281.812 535.988 285.008 541.628 290.648 543.696Z" fill="#466DA2"/>
<path d="M507.052 309.019C510.017 296.384 502.179 283.738 489.544 280.772C476.909 277.806 464.263 285.645 461.297 298.279C458.332 310.914 466.17 323.561 478.805 326.526C491.439 329.492 504.086 321.654 507.052 309.019Z" fill="#466DA2"/>
<path d="M484.1 314.524C489.707 314.524 494.252 309.979 494.252 304.372C494.252 298.766 489.707 294.22 484.1 294.22C478.493 294.22 473.948 298.766 473.948 304.372C473.948 309.979 478.493 314.524 484.1 314.524Z" fill="#39577F"/>
<path d="M502.9 348.176C502.9 351.56 500.08 354.38 496.696 354.38C493.312 354.38 490.492 351.56 490.492 348.176C490.492 344.792 493.312 341.972 496.696 341.972C500.268 341.784 502.9 344.604 502.9 348.176Z" fill="#39577F"/>
<path d="M436.912 604.044L408.9 685.448C409.84 685.824 410.592 686.2 411.532 686.388L439.168 606.112C438.416 605.548 437.664 604.796 436.912 604.044Z" fill="#39577F"/>
<path d="M507.788 663.64C517 687.704 548.772 776.252 548.772 776.252H438.416C438.416 776.252 436.16 701.992 435.784 678.492C435.408 658.188 444.432 639.012 464.36 635.064C484.288 631.116 498.764 639.388 507.788 663.64Z" fill="#6397E2"/>
<path d="M471.128 680.56C480.992 680.56 488.988 672.564 488.988 662.7C488.988 652.836 480.992 644.84 471.128 644.84C461.264 644.84 453.268 652.836 453.268 662.7C453.268 672.564 461.264 680.56 471.128 680.56Z" fill="#466DA2"/>
<path d="M471.128 670.408C475.385 670.408 478.836 666.957 478.836 662.7C478.836 658.443 475.385 654.992 471.128 654.992C466.871 654.992 463.42 658.443 463.42 662.7C463.42 666.957 466.871 670.408 471.128 670.408Z" fill="#39577F"/>
<path d="M657.624 808.024H283.316V803.136C283.316 787.156 296.288 774.372 312.08 774.372H628.672C644.652 774.372 657.436 787.344 657.436 803.136V808.024H657.624Z" fill="#39577F"/>
<path d="M638.072 706.128H564V711.016H638.072V706.128Z" fill="#304767"/>
<path d="M632.056 651.608H557.984V656.496H632.056V651.608Z" fill="#304767"/>
<path d="M626.04 597.088H551.968V601.976H626.04V597.088Z" fill="#304767"/>
<path d="M620.024 542.568H545.952V547.456H620.024V542.568Z" fill="#304767"/>
<path d="M578.664 824.568L544.448 496.32C544.26 494.628 542.944 493.5 541.252 493.5C539.372 493.5 537.868 495.192 538.056 497.072L572.46 825.32C572.648 827.012 573.964 828.14 575.656 828.14C577.348 827.952 578.852 826.448 578.664 824.568Z" fill="#304767"/>
<path d="M654.428 824.568L620.024 496.32C619.836 494.628 618.52 493.5 616.828 493.5C614.948 493.5 613.444 495.192 613.632 497.072L648.036 825.32C648.224 827.012 649.54 828.14 651.232 828.14C653.112 827.952 654.616 826.448 654.428 824.568Z" fill="#304767"/>
<path d="M644.088 760.836H570.016V765.724H644.088V760.836Z" fill="#304767"/>
<path d="M620.212 571.52C622.092 570.392 623.784 569.264 625.288 567.76C626.604 566.256 627.544 564.376 627.356 562.308C627.732 562.308 628.296 562.684 628.484 563.06C628.86 563.624 628.86 564.188 628.672 564.94C628.672 565.504 628.484 565.88 628.484 566.444C628.86 566.82 629.048 567.384 629.236 567.948C629.236 568.7 629.236 569.452 629.424 570.016C629.612 570.768 629.988 571.52 630.176 572.084C630.74 573.776 629.988 575.844 630.364 577.536C630.74 578.852 631.116 579.98 631.492 581.108C629.8 581.484 628.296 581.86 626.604 582.236C625.664 581.108 624.724 579.98 623.784 578.852C622.468 577.348 621.152 576.22 619.46 575.28C619.272 575.092 619.084 575.092 618.896 574.904C617.58 572.46 617.016 569.452 616.64 566.444C616.64 566.256 616.64 565.88 616.64 565.692C616.828 565.504 617.204 565.504 617.58 565.692C618.52 566.256 619.084 567.572 619.272 568.7C619.46 569.828 619.648 570.768 620.212 571.52Z" fill="#DEA38D"/>
<path d="M630.928 579.604C634.312 585.996 634.124 605.548 628.108 609.872C621.152 604.42 623.408 581.296 623.408 581.296C623.408 581.296 628.108 576.784 630.928 579.604Z" fill="#E8E8E8"/>
<path d="M611 551.749H607.053C604.421 551.749 602.353 553.817 602.353 556.449V569.422C602.353 572.054 604.421 574.122 607.053 574.122H611C613.632 574.122 615.7 572.054 615.7 569.422V556.449C615.7 554.005 613.444 551.749 611 551.749Z" fill="#E49B82"/>
<path d="M593.705 752.721L594.645 760.805H580.171L589.758 752.721H593.705Z" fill="#2E343B"/>
<path d="M587.124 642.929C587.124 642.929 587.69 629.958 600.85 629.958C614.01 629.958 612.13 642.929 612.13 642.929L594.457 754.225H587.69L587.124 642.929Z" fill="#394C5B"/>
<path d="M592.2 541.785C592.2 551.937 601.037 563.969 611.753 563.969C622.469 563.969 631.305 551.937 631.305 541.785C631.305 531.633 629.989 524.114 611.753 524.114C593.705 524.114 592.2 531.633 592.2 541.785Z" fill="#54363F"/>
<path d="M627.358 752.721L628.298 760.805H613.82L623.411 752.721H627.358Z" fill="#2E343B"/>
<path d="M606.678 644.434C606.678 644.434 605.739 631.649 618.711 631.649C631.683 631.649 631.493 644.434 631.493 644.434L627.733 754.225H620.965L606.678 644.434Z" fill="#2B3943"/>
<path d="M631.871 631.274V644.058C631.871 644.058 627.357 661.918 609.873 662.294C609.121 662.294 608.557 662.294 607.993 662.294C591.449 661.354 587.125 644.058 587.125 644.058V631.274H631.871Z" fill="#394C5B"/>
<path d="M608.933 529.941C601.413 529.941 595.585 533.138 592.953 540.094C592.201 541.974 590.508 551.749 590.32 554.005C589.38 562.653 597.652 566.225 607.24 566.225C616.828 566.225 624.914 558.142 625.478 548.178C625.666 538.026 618.333 529.941 608.933 529.941Z" fill="#E9A890"/>
<path d="M600.851 527.874C615.703 527.874 621.531 533.138 621.531 533.138L627.545 544.981L625.291 556.261C625.291 556.261 621.717 561.902 619.085 563.218C616.453 564.534 610.625 565.286 605.925 563.218C601.413 561.15 596.713 550.998 596.713 550.998L595.02 540.469C595.02 540.469 585.056 540.093 590.32 537.461C593.328 535.957 592.576 530.881 595.96 527.685C597.652 527.873 599.159 527.874 600.851 527.874Z" fill="#54363F"/>
<path d="M597.091 544.042C595.211 544.042 593.706 546.486 593.518 549.494C593.33 552.502 594.833 554.945 596.713 554.945C598.593 554.945 600.097 552.502 600.285 549.494C600.285 546.486 598.971 544.042 597.091 544.042Z" fill="#E9A890"/>
<path d="M621.905 529.565C621.905 533.325 628.484 548.554 629.8 548.554C631.116 548.554 631.871 536.522 631.871 532.762C631.871 529.002 629.237 525.618 626.605 525.618C621.905 525.618 621.905 525.805 621.905 529.565Z" fill="#54363F"/>
<path d="M594.08 531.068C594.08 532.384 604.609 532.385 611.565 532.385C618.521 532.385 624.16 531.821 624.16 526.745C624.16 521.669 618.521 521.105 611.565 521.105C598.781 520.917 594.08 529.752 594.08 531.068Z" fill="#54363F"/>
<path d="M536.22 582.55C540.331 584.557 543.479 587.263 545.707 586.081C548.044 584.746 541.37 574.678 539.816 572.647C538.263 570.616 534.788 571.602 532.585 576.958C531.953 578.817 532.831 580.827 536.22 582.55Z" fill="#E9A890"/>
<path d="M539.689 576.712C539.952 576.668 540.215 576.625 540.586 576.428C541.176 575.925 541.306 575.094 540.912 574.351L535.505 567.034C535.001 566.444 534.171 566.314 533.428 566.708C532.839 567.211 532.708 568.042 533.102 568.784L538.51 576.102C538.816 576.32 539.274 576.647 539.689 576.712Z" fill="#E9A890"/>
<path d="M592.256 582.323L566.401 603.373C563.082 606.086 562.67 610.871 565.296 613.666C567.921 616.461 572.314 616.13 575.633 613.416L606.863 590.658C612.803 585.888 609.826 580.995 606.567 578.441C601.165 574.359 595.575 579.61 592.256 582.323Z" fill="white"/>
<path d="M562.715 614.367L537.795 583.904L544.019 578.412L571.579 602.907C574.772 605.876 576.33 612.759 573.709 614.815C570.936 616.763 565.691 617.642 562.715 614.367Z" fill="white"/>
<path d="M606.865 569.045C615.325 567.917 621.529 569.985 624.913 580.325C628.861 592.357 632.058 686.734 632.058 686.734C632.058 686.734 625.665 693.69 614.385 694.254C614.009 692.374 611.94 678.085 611.94 678.085C611.94 678.085 610.249 691.997 609.685 694.065C599.721 692.937 584.68 687.485 584.68 687.485C584.68 687.485 586.185 632.778 588.253 610.218C590.133 590.478 591.073 571.113 606.865 569.045Z" fill="white"/>
<path d="M144.008 856.339C144.008 861.227 169.2 865.175 200.22 865.175C231.24 865.175 256.432 861.227 256.432 856.339C256.432 851.451 231.24 847.503 200.22 847.503C169.012 847.503 144.008 851.451 144.008 856.339Z" fill="#9EC6EC"/>
<path d="M222.968 639.951C222.968 649.539 214.696 660.819 204.544 660.819C194.392 660.819 186.12 649.539 186.12 639.951C186.12 630.363 187.436 623.407 204.544 623.407C221.652 623.407 222.968 630.551 222.968 639.951Z" fill="#D16E28"/>
<path d="M191.199 647.63C192.157 656.403 200.548 662.685 209.94 661.659C219.333 660.634 226.171 652.691 225.214 643.917C224.256 635.144 215.865 628.863 206.473 629.888C197.08 630.913 190.242 638.856 191.199 647.63Z" fill="#E9A890"/>
<path d="M205.484 649.352H209.244C211.688 649.352 213.568 651.232 213.568 653.676V665.896C213.568 668.34 211.688 670.22 209.244 670.22H205.484C203.04 670.22 201.16 668.34 201.16 665.896V653.676C201.16 651.42 203.04 649.352 205.484 649.352Z" fill="#E49B82"/>
<path d="M215.072 626.979C201.16 626.979 195.708 631.867 195.708 631.867L190.068 642.959L192.136 653.487C192.136 653.487 195.332 658.939 197.964 660.067C200.408 661.383 205.86 661.947 210.184 660.067C214.508 658.187 218.832 648.599 218.832 648.599L220.336 638.823C220.336 638.823 229.736 638.447 224.66 636.003C221.84 634.499 222.592 629.799 219.396 626.979C217.892 626.979 216.576 626.979 215.072 626.979Z" fill="#D16E28"/>
<path d="M218.456 642.019C220.148 642.019 221.652 644.275 221.84 647.095C222.028 649.915 220.712 652.171 218.832 652.171C216.952 652.171 215.636 649.915 215.448 647.095C215.448 644.275 216.764 642.019 218.456 642.019Z" fill="#E9A890"/>
<path d="M195.144 628.483C195.144 632.055 188.94 646.343 187.812 646.343C186.684 646.343 185.744 635.063 185.744 631.491C185.744 627.919 188.188 624.723 190.632 624.723C195.144 624.723 195.144 624.911 195.144 628.483Z" fill="#D16E28"/>
<path d="M221.276 629.799C221.276 630.927 211.312 631.115 204.92 631.115C198.528 631.115 193.264 630.551 193.264 625.851C193.264 621.151 198.528 620.587 204.92 620.587C216.952 620.399 221.276 628.671 221.276 629.799Z" fill="#D16E28"/>
<path d="M228.608 787.343L224.848 713.271H204.356C204.168 731.131 207.552 773.808 211.5 790.728L228.608 787.343Z" fill="#394C5B"/>
<path d="M211.688 789.787C208.868 810.467 210.372 829.267 213.756 852.579H217.704L228.796 787.343L211.688 789.787Z" fill="#394C5B"/>
<path d="M179.916 786.967C172.396 807.271 169.952 826.071 167.696 850.323L171.456 851.451L196.272 788.283L179.916 786.967Z" fill="#394C5B"/>
<path d="M196.46 788.283L213.756 737.523L214.32 713.271H199.28C181.984 728.687 185.932 754.819 179.728 788.283H196.46Z" fill="#394C5B"/>
<path d="M229.172 783.772C227.668 758.768 225.976 676.988 225.6 668.528C212.816 662.7 204.168 661.76 190.256 668.528C189.88 679.996 195.896 701.992 198.34 710.264C199.28 713.46 178.976 729.064 177.848 788.284C179.728 791.48 187.248 793.548 195.896 794.112C197.212 790.916 200.408 784.9 202.852 777.192C203.228 783.02 205.296 790.164 206.612 794.3C214.696 792.796 225.224 788.848 229.172 783.772Z" fill="white"/>
<path d="M182.548 608.556L178.412 641.456L169.764 643.336C168.26 633.936 174.652 616.452 179.164 606.676L182.548 608.556Z" fill="#E9A890"/>
<path d="M169.952 643.336C169.952 643.336 183.488 666.459 191.196 676.987L203.98 671.723L178.6 639.011L169.952 643.336Z" fill="white"/>
<path d="M167.696 850.323L171.456 851.451L174.84 855.775L179.728 856.527L179.54 858.971H171.08L164.688 857.279L167.696 850.323Z" fill="#804E20"/>
<path d="M213.568 851.64H217.704L222.968 855.776L228.044 856.528L227.668 858.972H212.816L213.568 851.64Z" fill="#804E20"/>
<path d="M182.736 596.899C182.736 598.215 183.676 599.908 183.676 599.908C183.676 599.908 183.864 596.147 183.864 595.583C183.864 595.019 184.616 594.644 184.616 595.208C184.616 595.772 185.368 601.036 185.18 601.788C185.18 602.54 182.736 608.556 182.736 608.556L179.352 606.863V601.788C179.352 601.788 180.104 597.463 180.48 596.711C180.668 595.959 182.736 593.327 183.112 592.763C183.488 592.199 184.052 592.387 183.676 593.139C183.3 593.891 182.736 595.583 182.736 596.899Z" fill="#E9A890"/>
<path d="M186.12 636.003C187.624 650.667 184.992 672.475 179.916 688.455C187.248 692.027 207.176 694.471 213.192 686.575C218.644 679.431 218.456 662.511 216.388 651.795C202.476 653.111 186.12 636.003 186.12 636.003Z" fill="#D16E28"/>
<path d="M243.46 656.496L249.1 620.776L252.296 620.964C254.74 628.296 254.928 650.856 250.604 660.256L243.46 656.496Z" fill="#E9A890"/>
<path d="M250.604 660.444C250.604 660.444 232.368 678.492 222.968 686.012L218.456 674.168L243.836 654.616L250.604 660.444Z" fill="white"/>
<path d="M250.604 613.068C250.416 614.384 249.476 615.7 249.476 615.7C249.476 615.7 249.852 612.316 249.852 611.752C250.04 611.188 249.288 610.812 249.1 611.376C248.912 611.94 247.784 616.64 247.596 617.204C247.596 617.956 248.912 623.596 248.912 623.596L252.296 622.468L253.048 617.768C253.048 617.768 252.86 613.82 252.672 613.068C252.484 612.316 250.98 609.684 250.792 609.308C250.604 608.744 250.04 608.744 250.228 609.496C250.416 610.248 250.604 611.94 250.604 613.068Z" fill="#E9A890"/>
<path d="M545.764 147.016C545.388 153.972 539.184 171.832 537.304 176.72C534.108 184.992 523.768 182.736 526.024 172.396C528.468 161.868 532.98 150.024 535.236 146.452C538.056 142.316 546.14 139.684 545.764 147.016Z" fill="#E8E8E8"/>
<path d="M550.088 214.884C550.088 214.884 517.376 232.556 512.112 235.94C506.66 239.512 497.636 235.188 504.028 227.668C512.488 217.704 527.34 203.228 527.34 203.228C527.34 203.228 546.14 200.22 550.088 214.884Z" fill="#24355F"/>
<path d="M527.34 203.416L529.408 199.468L561.556 200.784C561.556 200.784 563.06 204.544 562.496 208.116C558.172 212.252 535.048 207.552 527.34 203.416Z" fill="#24355F"/>
<path d="M562.496 205.672C563.06 211.5 567.008 321.856 567.008 321.856C567.008 321.856 564 322.42 559.3 322.044C555.728 294.408 541.252 206.048 541.252 206.048L562.496 205.672Z" fill="#24355F"/>
<path d="M507.788 291.212C507.788 291.212 510.044 288.392 509.856 286.512C509.668 284.444 506.472 285.196 506.472 285.196L505.908 286.324L507.788 291.212Z" fill="#222B48"/>
<path d="M508.54 291.024L505.532 294.408L493.688 282.564C493.688 282.564 493.688 280.872 495.192 280.872C496.696 280.872 506.284 285.948 506.284 285.948L508.54 291.024Z" fill="#F8E67D"/>
<path d="M515.496 232.368L510.608 288.58C510.608 288.58 507.036 287.264 505.72 285.008C505.532 268.276 500.832 233.12 502.148 231.616C505.156 228.42 515.496 232.368 515.496 232.368Z" fill="#24355F"/>
<path d="M551.968 139.872C545.012 138.932 543.32 139.308 540.312 141.188C535.8 144.008 532.98 150.588 532.04 160.176C530.724 174.464 529.972 185.932 529.032 200.032C531.476 201.16 551.592 203.416 561.932 201.348C562.872 189.128 563.624 170.516 563.06 158.108C562.496 145.888 558.924 140.812 551.968 139.872Z" fill="#007BC1"/>
<path d="M541.252 140.248C541.44 140.812 541.816 142.504 541.816 148.144C541.628 157.92 537.868 200.972 536.74 214.884C535.612 228.984 534.296 241.58 534.296 241.58C534.296 241.58 518.88 221.464 507.976 219.584C514.368 210.372 527.904 199.844 527.904 199.844C527.904 199.844 531.288 163.936 532.228 156.228C533.356 148.332 536.552 142.504 541.252 140.248Z" fill="white"/>
<path d="M559.864 321.856L560.24 324.488C560.24 324.488 563.624 326.368 566.444 324.676C566.444 323.736 566.068 321.856 566.068 321.856H559.864Z" fill="#222B48"/>
<path d="M566.444 324.3L567.572 328.624L558.736 332.76L550.84 332.384C550.84 332.384 549.712 331.82 550.464 330.504C550.84 329.94 553.66 329.564 555.728 328.248C558.548 326.368 560.052 324.112 560.052 324.112C561.932 324.676 564.188 324.676 566.444 324.3Z" fill="#F8E67D"/>
<path d="M533.168 132.916C533.168 132.916 526.588 123.892 527.528 112.612C528.468 100.392 536.552 95.8802 545.764 96.6322C556.104 97.5722 560.428 101.332 563.06 108.288C565.316 114.492 563.812 120.508 560.992 125.772C556.292 133.856 548.208 134.608 533.168 132.916Z" fill="#381C14"/>
<path d="M550.464 133.292C550.464 133.292 551.216 137.24 551.78 139.872C552.344 142.504 542.38 144.76 541.44 141.188C541.064 139.308 540.312 136.488 540.312 136.488L550.464 133.292Z" fill="#D69E8E"/>
<path d="M551.968 139.872C551.968 139.872 548.772 142.128 547.644 145.136C546.516 148.332 545.576 153.972 545.576 159.988C545.576 164.312 542.004 237.82 541.816 250.98C557.608 254.364 569.264 244.588 569.264 244.588C569.264 244.588 566.068 220.524 564.376 195.332C563.436 179.728 561.932 150.964 560.428 145.512C558.924 141.188 553.472 139.684 551.968 139.872Z" fill="white"/>
<path d="M561.744 146.452C565.692 152.092 571.332 170.328 572.836 175.404C575.28 184.052 565.504 188.376 561.18 178.788C556.856 169.012 553.472 156.416 552.532 153.408C551.028 148.332 557.608 140.248 561.744 146.452Z" fill="#E8E8E8"/>
<path d="M534.296 188.94C533.544 188.188 532.416 187.436 531.1 187.06C527.904 186.308 523.392 185.556 523.204 186.308C523.016 187.06 527.152 188.188 527.152 188.188C527.152 188.188 523.58 188.94 521.7 189.88C519.82 190.632 517.752 191.948 518.128 192.512C518.504 193.076 522.64 191.76 522.64 191.76C522.64 191.76 517.94 193.452 518.316 194.392C518.88 195.332 523.768 193.076 523.768 193.076C523.768 193.076 520.008 195.144 520.76 196.084C521.512 197.024 525.648 194.392 525.648 194.392C525.648 194.392 523.204 196.46 523.768 197.212C524.332 197.776 528.28 195.52 530.536 194.768C532.98 193.828 534.484 192.888 534.672 192.7C536.364 191.76 535.424 189.692 534.296 188.94Z" fill="#EEBDAE"/>
<path d="M569.64 183.676C569.64 183.676 554.788 191.196 534.484 192.7C533.544 191.572 531.852 189.504 532.792 187.436C545.576 181.608 560.24 174.088 564.752 173.9C568.888 173.524 571.708 177.472 569.64 183.676Z" fill="#E8E8E8"/>
<path d="M529.032 113.74C527.904 124.268 526.588 127.652 528.092 131.036C529.408 134.044 533.732 138.556 545.012 136.864C553.096 135.736 555.728 129.72 555.728 129.72C555.728 129.72 556.668 130.472 558.172 130.472C559.3 130.472 560.992 129.532 560.992 127.464C560.992 124.644 559.864 123.704 558.736 123.328C556.856 122.576 555.352 124.268 555.352 124.268C555.352 124.268 555.728 120.32 555.54 117.312C555.352 114.304 555.164 111.108 541.252 108.852C537.868 108.288 533.168 107.724 531.288 108.476C529.596 109.04 529.408 110.92 529.032 113.74Z" fill="#EEBDAE"/>
<path d="M535.988 123.328C535.424 123.14 535.048 122.952 534.484 122.764C533.92 122.764 533.356 122.764 532.98 123.14C532.604 123.516 532.792 124.08 532.98 124.456C533.168 124.832 533.732 125.396 534.108 125.772C533.732 125.396 533.168 125.208 532.792 124.644C532.416 124.268 532.228 123.516 532.792 122.952C533.168 122.576 533.92 122.388 534.484 122.576C535.048 122.576 535.612 122.952 535.988 123.328Z" fill="#936053"/>
<path d="M542.004 129.908C542.192 130.472 541.816 131.224 541.44 131.788C541.064 132.352 540.312 132.728 539.748 132.728C538.996 132.728 538.432 132.728 537.868 132.54C537.304 132.352 536.74 131.976 536.176 131.6C537.304 132.164 538.62 132.54 539.748 132.352C540.312 132.352 540.876 131.976 541.252 131.6C541.628 131.224 542.004 130.66 542.004 129.908Z" fill="#936053"/>
<path d="M538.244 116.184C537.868 117.5 536.176 121.636 539.56 122.952C542.944 124.08 543.132 119.004 543.132 119.004C543.132 119.004 539.748 116.748 538.244 116.184Z" fill="url(#paint0_linear)"/>
<path d="M538.996 115.996C542.944 117.312 544.636 119.756 542.192 119.004C539.748 118.44 536.364 115.244 538.996 115.996Z" fill="#5E443D"/>
<path d="M537.68 122.576C538.432 121.072 539.936 121.448 540.312 123.14" stroke="#452F20" stroke-width="0.527152" stroke-miterlimit="10"/>
<path d="M533.92 115.62C534.108 116.748 534.86 120.884 532.04 121.636C529.22 122.388 529.596 117.124 529.596 117.124C529.596 117.124 532.792 115.808 533.92 115.62Z" fill="url(#paint1_linear)"/>
<path d="M533.356 115.432C530.348 115.808 528.28 117.876 531.1 117.312C533.732 116.748 534.86 115.244 533.356 115.432Z" fill="#5E443D"/>
<path d="M531.288 121.26C532.04 119.38 533.732 119.756 533.732 121.26" stroke="#452F20" stroke-width="0.527152" stroke-miterlimit="10"/>
<path d="M558.36 104.528C557.044 94.9402 540.876 92.6842 540.876 92.6842C532.98 86.6682 535.424 93.6242 535.424 93.6242C521.7 87.2322 527.34 100.58 527.34 100.58C522.076 99.8282 526.964 105.28 526.964 105.28C526.964 105.28 535.8 110.544 538.62 111.296C541.44 111.86 554.036 107.348 554.036 107.348L558.36 104.528Z" fill="#381C14"/>
<path d="M601.976 568.136C601.976 568.136 608.932 568.888 615.888 567.76C616.64 568.888 617.016 570.204 617.016 570.204C617.016 570.204 611.188 572.836 601.224 570.956C600.848 569.828 601.976 568.136 601.976 568.136Z" fill="#E8E8E8"/>
<path d="M551.968 139.872C551.028 140.248 548.02 143.256 547.268 145.512C545.952 149.272 545.576 154.912 545.2 160.552C545.2 164.5 545.012 169.764 545.012 169.764C545.012 169.764 548.772 155.1 549.524 150.588C549.148 150.024 548.208 148.896 548.208 148.896L550.088 148.52C550.088 148.52 554.036 141.752 554.036 140.06C553.848 138.744 551.592 138.744 551.592 138.744L551.968 139.872Z" fill="#E8E8E8"/>
<path d="M540.312 169.952C540.312 169.952 541.628 154.724 541.816 150.024C542.004 145.324 542.192 144.008 541.252 140.248C541.252 139.872 541.064 139.496 541.064 139.496C541.064 139.496 540.312 139.684 539.372 140.624C538.432 141.564 538.244 145.512 538.808 148.708C539.372 148.708 540.5 148.708 540.5 148.708L538.808 150.964C538.808 150.964 539.372 166.38 540.312 169.952Z" fill="#E8E8E8"/>
<path d="M547.832 231.804C547.832 231.804 556.292 232.368 561.18 228.984C562.684 239.512 560.24 241.58 555.728 244.024C549.712 242.332 548.584 240.828 547.832 231.804Z" fill="#E8E8E8"/>
<path d="M737.712 252.108C742.488 252.108 746.36 248.236 746.36 243.46C746.36 238.684 742.488 234.812 737.712 234.812C732.936 234.812 729.064 238.684 729.064 243.46C729.064 248.236 732.936 252.108 737.712 252.108Z" fill="#99B4FF"/>
<path d="M769.108 372.24C779.906 372.24 788.66 363.487 788.66 352.688C788.66 341.89 779.906 333.136 769.108 333.136C758.31 333.136 749.556 341.89 749.556 352.688C749.556 363.487 758.31 372.24 769.108 372.24Z" fill="#99B4FF"/>
<path d="M651.044 294.596C651.044 298.356 648.036 301.364 644.276 301.364C640.516 301.364 637.508 298.356 637.508 294.596C637.508 290.836 640.516 287.828 644.276 287.828C648.036 287.828 651.044 290.836 651.044 294.596Z" fill="#99B4FF"/>
<path d="M735.08 248.724L718.536 296.1" stroke="#99B4FF" stroke-width="1.95238" stroke-miterlimit="10"/>
<path d="M648.224 296.1L686.952 311.516" stroke="#99B4FF" stroke-width="1.95238" stroke-miterlimit="10"/>
<path d="M755.76 344.416L729.816 329.376" stroke="#99B4FF" stroke-width="1.95238" stroke-miterlimit="10"/>
<path d="M719.819 341.78C733.42 336.088 739.832 320.449 734.141 306.848C728.45 293.247 712.81 286.834 699.209 292.525C685.608 298.217 679.196 313.856 684.887 327.457C690.578 341.058 706.217 347.471 719.819 341.78Z" fill="#7F9DE3"/>
<path d="M216.952 205.86C220.482 205.86 223.344 202.998 223.344 199.468C223.344 195.938 220.482 193.076 216.952 193.076C213.422 193.076 210.56 195.938 210.56 199.468C210.56 202.998 213.422 205.86 216.952 205.86Z" fill="#99B4FF"/>
<path d="M326.556 251.92C326.556 254.74 324.3 256.996 321.48 256.996C318.66 256.996 316.404 254.74 316.404 251.92C316.404 249.1 318.66 246.844 321.48 246.844C324.3 246.844 326.556 249.1 326.556 251.92Z" fill="#99B4FF"/>
<path d="M255.68 354.38C255.68 360.96 250.416 366.224 243.836 366.224C237.256 366.224 231.992 360.96 231.992 354.38C231.992 347.8 237.256 342.536 243.836 342.536C250.416 342.536 255.68 347.8 255.68 354.38Z" fill="#99B4FF"/>
<path d="M173.524 293.656C178.3 293.656 182.172 289.784 182.172 285.008C182.172 280.232 178.3 276.36 173.524 276.36C168.748 276.36 164.876 280.232 164.876 285.008C164.876 289.784 168.748 293.656 173.524 293.656Z" fill="#99B4FF"/>
<path d="M218.644 202.476L235.94 256.996" stroke="#99B4FF" stroke-width="1.95238" stroke-miterlimit="10"/>
<path d="M259.816 268.088L319.036 252.86" stroke="#99B4FF" stroke-width="1.95238" stroke-miterlimit="10"/>
<path d="M242.332 345.92V289.52" stroke="#99B4FF" stroke-width="1.95238" stroke-miterlimit="10"/>
<path d="M179.54 285.008L228.42 276.36" stroke="#99B4FF" stroke-width="1.95238" stroke-miterlimit="10"/>
<path d="M243.836 292.904C255.154 292.904 264.328 283.729 264.328 272.412C264.328 261.094 255.154 251.92 243.836 251.92C232.519 251.92 223.344 261.094 223.344 272.412C223.344 283.729 232.519 292.904 243.836 292.904Z" fill="#7F9DE3"/>
<path d="M732.824 490.492C737.289 490.492 740.908 486.873 740.908 482.408C740.908 477.943 737.289 474.324 732.824 474.324C728.359 474.324 724.74 477.943 724.74 482.408C724.74 486.873 728.359 490.492 732.824 490.492Z" fill="#99B4FF"/>
<path d="M815.168 562.496C815.168 569.264 809.716 574.716 802.948 574.716C796.18 574.716 790.728 569.264 790.728 562.496C790.728 555.728 796.18 550.276 802.948 550.276C809.716 550.276 815.168 555.728 815.168 562.496Z" fill="#99B4FF"/>
<path d="M703.496 599.908C703.496 605.924 698.608 611 692.404 611C686.388 611 681.312 606.112 681.312 599.908C681.312 593.892 686.2 588.816 692.404 588.816C698.608 589.004 703.496 593.892 703.496 599.908Z" fill="#99B4FF"/>
<path d="M733.012 488.612L732.072 521.324" stroke="#99B4FF" stroke-width="1.95238" stroke-miterlimit="10"/>
<path d="M748.616 543.884L793.548 559.488" stroke="#99B4FF" stroke-width="1.95238" stroke-miterlimit="10"/>
<path d="M696.164 593.328L725.68 551.968" stroke="#99B4FF" stroke-width="1.95238" stroke-miterlimit="10"/>
<path d="M751.933 543.631C754.427 533.018 747.844 522.393 737.231 519.899C726.618 517.406 715.993 523.989 713.5 534.602C711.006 545.215 717.589 555.84 728.202 558.333C738.815 560.826 749.44 554.244 751.933 543.631Z" fill="#7F9DE3"/>
<path d="M200.596 436.16C200.596 437.664 199.28 438.98 197.776 438.98C196.272 438.98 194.956 437.664 194.956 436.16C194.956 434.656 196.272 433.34 197.776 433.34C199.28 433.34 200.596 434.656 200.596 436.16Z" fill="white"/>
<path d="M133.104 380.7C133.104 385.4 129.344 389.16 124.644 389.16C119.944 389.16 116.184 385.4 116.184 380.7C116.184 376 119.944 372.24 124.644 372.24C129.156 372.24 133.104 376.188 133.104 380.7Z" fill="white"/>
<path d="M120.132 563.248C120.132 565.692 118.064 567.76 115.62 567.76C113.176 567.76 111.108 565.692 111.108 563.248C111.108 560.804 113.176 558.736 115.62 558.736C118.252 558.924 120.132 560.804 120.132 563.248Z" fill="white"/>
<path d="M316.216 418.112C316.216 420.368 314.336 422.06 312.268 422.06C310.2 422.06 308.32 420.18 308.32 418.112C308.32 415.856 310.2 414.164 312.268 414.164C314.336 414.164 316.216 415.856 316.216 418.112Z" fill="white"/>
<path d="M377.316 213.192C378.666 213.192 379.76 212.098 379.76 210.748C379.76 209.398 378.666 208.304 377.316 208.304C375.966 208.304 374.872 209.398 374.872 210.748C374.872 212.098 375.966 213.192 377.316 213.192Z" fill="white"/>
<path d="M432.024 162.996C432.024 165.44 429.956 167.508 427.512 167.508C425.068 167.508 423 165.44 423 162.996C423 160.552 425.068 158.484 427.512 158.484C430.144 158.484 432.024 160.552 432.024 162.996Z" fill="white"/>
<path d="M343.664 125.584C343.664 127.84 341.784 129.532 339.716 129.532C337.648 129.532 335.768 127.652 335.768 125.584C335.768 123.516 337.648 121.636 339.716 121.636C341.784 121.636 343.664 123.328 343.664 125.584Z" fill="white"/>
<path d="M717.784 106.032C717.784 107.724 716.28 109.228 714.588 109.228C712.896 109.228 711.392 107.724 711.392 106.032C711.392 104.34 712.896 102.836 714.588 102.836C716.468 102.836 717.784 104.152 717.784 106.032Z" fill="white"/>
<path d="M627.544 240.076C627.544 241.768 626.04 243.272 624.348 243.272C622.656 243.272 621.152 241.768 621.152 240.076C621.152 238.384 622.656 236.88 624.348 236.88C626.04 236.88 627.544 238.384 627.544 240.076Z" fill="white"/>
<path d="M815.544 225.976C815.544 227.292 814.416 228.42 813.1 228.42C811.784 228.42 810.656 227.292 810.656 225.976C810.656 224.66 811.784 223.532 813.1 223.532C814.416 223.532 815.544 224.66 815.544 225.976Z" fill="white"/>
<path d="M669.28 429.392C669.28 432.024 667.212 434.28 664.392 434.28C661.76 434.28 659.504 432.212 659.504 429.392C659.504 426.76 661.572 424.504 664.392 424.504C667.024 424.504 669.28 426.76 669.28 429.392Z" fill="white"/>
<path d="M765.348 443.116C766.49 443.116 767.416 442.19 767.416 441.048C767.416 439.906 766.49 438.98 765.348 438.98C764.206 438.98 763.28 439.906 763.28 441.048C763.28 442.19 764.206 443.116 765.348 443.116Z" fill="white"/>
<path d="M873.448 417.736C873.448 421.12 870.816 423.752 867.432 423.752C864.048 423.752 861.416 421.12 861.416 417.736C861.416 414.352 864.048 411.72 867.432 411.72C870.628 411.72 873.448 414.352 873.448 417.736Z" fill="white"/>
<path d="M835.284 613.444C835.284 614.76 834.156 615.888 832.84 615.888C831.524 615.888 830.396 614.76 830.396 613.444C830.396 612.128 831.524 611 832.84 611C834.156 610.812 835.284 611.94 835.284 613.444Z" fill="white"/>
<path d="M688.456 677.364C688.456 679.808 686.388 681.876 683.944 681.876C681.5 681.876 679.432 679.808 679.432 677.364C679.432 674.92 681.5 672.852 683.944 672.852C686.388 672.852 688.456 674.92 688.456 677.364Z" fill="white"/>
<path d="M800.316 712.708C800.316 716.092 797.684 718.724 794.3 718.724C790.916 718.724 788.284 716.092 788.284 712.708C788.284 709.324 790.916 706.692 794.3 706.692C797.684 706.692 800.316 709.512 800.316 712.708Z" fill="white"/>
<path d="M313.02 691.464C313.02 692.78 311.892 693.908 310.576 693.908C309.26 693.908 308.132 692.78 308.132 691.464C308.132 690.148 309.26 689.02 310.576 689.02C311.892 689.02 313.02 690.148 313.02 691.464Z" fill="white"/>
<path d="M137.052 698.796C137.052 700.112 135.924 701.24 134.608 701.24C133.292 701.24 132.164 700.112 132.164 698.796C132.164 697.48 133.292 696.352 134.608 696.352C135.924 696.352 137.052 697.292 137.052 698.796Z" fill="white"/>
<path d="M80.84 750.496C80.84 752.94 78.772 755.008 76.328 755.008C73.884 755.008 71.816 752.94 71.816 750.496C71.816 748.052 73.884 745.984 76.328 745.984C78.772 745.984 80.84 748.052 80.84 750.496Z" fill="white"/>
<path d="M147.58 494.44C147.58 498.952 143.82 502.712 139.308 502.712C134.796 502.712 131.036 498.952 131.036 494.44C131.036 489.928 134.796 486.168 139.308 486.168C143.82 486.168 147.58 489.74 147.58 494.44Z" fill="white"/>
<path d="M139.308 533.544C146.472 533.544 152.28 516.036 152.28 494.44C152.28 472.843 146.472 455.336 139.308 455.336C132.144 455.336 126.336 472.843 126.336 494.44C126.336 516.036 132.144 533.544 139.308 533.544Z" stroke="white" stroke-width="0.734516" stroke-miterlimit="10"/>
<path d="M145.901 505.612C164.526 494.68 176.685 480.809 173.058 474.631C169.432 468.452 151.393 472.306 132.769 483.238C114.144 494.17 101.985 508.041 105.612 514.22C109.238 520.398 127.277 516.545 145.901 505.612Z" stroke="white" stroke-width="0.734516" stroke-miterlimit="10"/>
<path d="M132.728 505.532C151.34 516.436 169.388 520.384 173.148 514.18C176.72 507.976 164.688 494.064 145.888 483.16C127.276 472.256 109.228 468.308 105.468 474.512C101.896 480.716 114.116 494.628 132.728 505.532Z" stroke="white" stroke-width="0.734516" stroke-miterlimit="10"/>
<path d="M122.952 497.636C122.952 498.952 121.824 499.892 120.696 499.892C119.568 499.892 118.44 498.764 118.44 497.636C118.44 496.32 119.568 495.38 120.696 495.38C121.824 495.38 122.952 496.32 122.952 497.636Z" fill="white"/>
<path d="M159.048 473.008C159.048 474.324 157.92 475.264 156.792 475.264C155.476 475.264 154.536 474.136 154.536 473.008C154.536 471.88 155.664 470.752 156.792 470.752C157.92 470.752 159.048 471.692 159.048 473.008Z" fill="white"/>
<path d="M661.196 178.412C666.803 178.412 671.348 173.867 671.348 168.26C671.348 162.653 666.803 158.108 661.196 158.108C655.589 158.108 651.044 162.653 651.044 168.26C651.044 173.867 655.589 178.412 661.196 178.412Z" fill="white"/>
<path d="M661.196 216.576C670.022 216.576 677.176 194.944 677.176 168.26C677.176 141.576 670.022 119.944 661.196 119.944C652.371 119.944 645.216 141.576 645.216 168.26C645.216 194.944 652.371 216.576 661.196 216.576Z" stroke="white" stroke-width="0.904468" stroke-miterlimit="10"/>
<path d="M669.284 182.024C692.297 168.516 707.33 151.396 702.863 143.785C698.395 136.174 676.118 140.954 653.106 154.461C630.094 167.969 615.06 185.089 619.527 192.7C623.995 200.311 646.272 195.531 669.284 182.024Z" stroke="white" stroke-width="0.904468" stroke-miterlimit="10"/>
<path d="M702.84 192.653C707.308 185.042 692.274 167.922 669.261 154.414C646.249 140.907 623.972 136.127 619.505 143.738C615.037 151.349 630.071 168.469 653.083 181.976C676.096 195.484 698.373 200.264 702.84 192.653Z" stroke="white" stroke-width="0.904468" stroke-miterlimit="10"/>
<path d="M640.892 172.396C640.892 173.9 639.576 175.216 638.072 175.216C636.568 175.216 635.252 173.9 635.252 172.396C635.252 170.892 636.568 169.576 638.072 169.576C639.576 169.576 640.892 170.704 640.892 172.396Z" fill="white"/>
<path d="M685.448 141.94C685.448 143.444 684.132 144.76 682.628 144.76C681.124 144.76 679.808 143.444 679.808 141.94C679.808 140.436 681.124 139.12 682.628 139.12C684.132 139.12 685.448 140.436 685.448 141.94Z" fill="white"/>
<path d="M764.596 635.628C764.596 639.764 761.212 643.148 757.076 643.148C752.94 643.148 749.556 639.764 749.556 635.628C749.556 631.492 752.94 628.108 757.076 628.108C761.212 628.108 764.596 631.492 764.596 635.628Z" fill="white"/>
<path d="M757.076 670.972C763.513 670.972 768.732 655.148 768.732 635.628C768.732 616.108 763.513 600.284 757.076 600.284C750.639 600.284 745.42 616.108 745.42 635.628C745.42 655.148 750.639 670.972 757.076 670.972Z" stroke="white" stroke-width="0.66082" stroke-miterlimit="10"/>
<path d="M763.092 645.78C746.36 655.556 730.004 659.128 726.808 653.488C723.612 647.848 734.516 635.44 751.248 625.476C767.98 615.7 784.336 612.128 787.532 617.768C790.916 623.408 779.824 635.816 763.092 645.78Z" stroke="white" stroke-width="0.66082" stroke-miterlimit="10"/>
<path d="M751.248 645.78C767.98 655.556 784.336 659.128 787.532 653.488C790.728 647.848 779.824 635.44 763.092 625.476C746.36 615.7 730.004 612.128 726.808 617.768C723.424 623.408 734.328 635.816 751.248 645.78Z" stroke="white" stroke-width="0.66082" stroke-miterlimit="10"/>
<path d="M742.412 638.636C742.412 639.764 741.472 640.704 740.344 640.704C739.216 640.704 738.276 639.764 738.276 638.636C738.276 637.508 739.216 636.568 740.344 636.568C741.472 636.38 742.412 637.32 742.412 638.636Z" fill="white"/>
<path d="M774.936 616.452C774.936 617.58 773.996 618.52 772.868 618.52C771.74 618.52 770.8 617.58 770.8 616.452C770.8 615.324 771.74 614.384 772.868 614.384C773.996 614.196 774.936 615.324 774.936 616.452Z" fill="white"/>
</g>
<defs>
<linearGradient id="paint0_linear" x1="540.595" y1="117.384" x2="539.699" y2="122.894" gradientUnits="userSpaceOnUse">
<stop stop-color="#E0A295"/>
<stop offset="1" stop-color="#E0A295" stop-opacity="0"/>
</linearGradient>
<linearGradient id="paint1_linear" x1="532.298" y1="116.035" x2="531.402" y2="121.545" gradientUnits="userSpaceOnUse">
<stop stop-color="#E0A295"/>
<stop offset="1" stop-color="#E0A295" stop-opacity="0"/>
</linearGradient>
<clipPath id="clip0">
<rect width="940" height="940" fill="white"/>
</clipPath>
</defs>
</svg>
