<svg width="506" height="351" viewBox="0 0 506 351" fill="none" xmlns="http://www.w3.org/2000/svg">
<g opacity="0.5">
<path opacity="0.5" d="M452.887 336.664L59.114 335.724L58.7615 335.489C58.2915 335.136 17.3983 301.294 49.0082 256.288C80.9707 210.694 86.6112 176.499 70.5124 125.265C64.7545 106.933 61.3467 87.5444 60.9942 70.7405C60.5241 49.2364 64.7545 32.315 73.5677 20.2116C83.4384 6.81554 98.9497 0 119.631 0C128.444 0 138.198 1.2926 148.891 3.64279C164.52 7.28557 179.561 10.8108 194.015 14.3361C254.532 28.9073 306.941 41.4807 356.295 41.4807C369.808 41.4807 382.499 40.5407 394.955 38.778C399.421 38.073 403.886 37.7205 407.999 37.7205C431.148 37.7205 449.01 47.5912 459.82 66.2752C476.977 96.1225 471.924 143.009 446.894 185.547C421.512 228.908 430.678 249.237 441.371 272.856C449.127 289.895 457.118 307.522 453.005 335.489L452.887 336.664ZM60.0541 333.374L450.89 334.314C454.533 307.522 446.777 290.483 439.256 273.914C428.798 250.765 418.81 228.908 444.897 184.489C469.456 142.656 474.509 96.7101 457.823 67.5678C447.482 49.5889 430.326 40.1881 408.116 40.1881C404.004 40.1881 399.773 40.5407 395.425 41.1282C382.734 43.0084 369.926 43.9484 356.412 43.9484C306.706 43.9484 254.297 31.375 193.545 16.6863C179.091 13.161 164.05 9.63575 148.421 5.99297C137.845 3.52528 128.209 2.35018 119.631 2.35018C99.6547 2.35018 84.8485 8.81319 75.4478 21.7392C57.3514 46.2986 62.2868 90.9521 72.8626 124.56C88.9614 175.911 83.0859 211.987 51.0059 257.698C38.3149 275.794 35.9647 294.126 44.1904 312.104C49.5958 324.09 58.2915 331.964 60.0541 333.374Z" fill="url(#paint0_linear)"/>
</g>
<path opacity="0.5" d="M62.1698 334.666C62.1698 334.666 21.7466 304.349 52.7691 263.22C83.674 222.21 90.372 189.895 74.1557 141.716C57.9395 93.5371 51.594 10.1056 149.949 31.2572C248.304 52.4089 320.808 73.5605 393.193 63.5723C465.579 53.584 486.848 127.967 443.37 197.063C399.891 266.158 458.763 274.149 449.363 335.371L62.1698 334.666Z" fill="url(#paint1_linear)"/>
<path d="M253.474 351C385.867 351 493.192 346.528 493.192 341.012C493.192 335.495 385.867 331.023 253.474 331.023C121.081 331.023 13.7549 335.495 13.7549 341.012C13.7549 346.528 121.081 351 253.474 351Z" fill="url(#paint2_linear)"/>
<path d="M155.121 251.235C155.121 251.235 155.121 250.53 154.886 249.472C154.768 248.297 154.533 246.652 154.063 244.654C153.593 242.656 153.006 240.189 152.301 237.486C151.478 234.783 150.538 231.846 149.363 228.79C147.013 222.68 143.605 215.864 139.492 209.166C135.379 202.468 130.444 195.77 124.921 189.542C119.398 183.314 113.405 177.556 107.295 172.621C101.184 167.686 94.8386 163.573 89.0807 160.4C83.3227 157.227 77.9173 154.995 73.922 153.702C71.9243 152.997 70.2792 152.527 69.2216 152.292C68.0465 152.057 67.459 151.822 67.459 151.822C67.459 151.822 67.459 152.527 67.694 153.584C67.8115 154.76 68.0465 156.405 68.5166 158.52C69.3391 162.633 70.8668 168.156 73.3344 174.384C75.6846 180.612 79.0924 187.31 83.2052 194.008C87.318 200.706 92.3709 207.404 97.7764 213.632C103.299 219.86 109.292 225.618 115.403 230.553C121.513 235.488 127.859 239.601 133.617 242.774C136.554 244.302 139.257 245.712 141.842 246.769C144.428 247.827 146.66 248.767 148.658 249.472C150.656 250.177 152.301 250.647 153.358 250.882C154.533 251.117 155.121 251.235 155.121 251.235Z" fill="url(#paint3_linear)"/>
<path d="M44.4263 171.563L45.1314 170.623C45.3664 170.741 68.1632 184.019 93.4277 182.022L81.2067 168.156C55.2372 170.623 31.6178 156.757 31.3828 156.64L32.0879 155.7C32.3229 155.817 55.1197 169.096 80.3841 167.098L58.5274 142.539L59.4675 141.716L81.0892 166.275C86.2596 141.481 75.9188 117.157 75.8013 116.922L76.8589 116.334C76.9764 116.569 87.6697 141.716 82.0293 167.215L94.2502 181.082C99.4206 156.287 89.0798 131.963 88.9623 131.728L90.0199 131.14C90.1374 131.375 100.831 156.522 95.1903 182.022L107.411 195.888C112.582 171.093 102.241 146.769 102.123 146.534L103.181 145.946C103.298 146.181 113.992 171.328 108.351 196.828L120.572 210.694C125.743 185.899 115.402 161.575 115.284 161.34L116.342 160.752C116.459 160.987 127.153 186.134 121.512 211.634L133.733 225.5C138.904 200.706 128.563 176.381 128.445 176.146L129.503 175.559C129.62 175.794 140.314 200.941 134.673 226.44L146.894 240.306C152.065 215.512 141.724 191.187 141.606 190.952L142.664 190.365C142.782 190.6 153.475 215.747 147.834 241.246L167.223 263.22L166.401 264.043L146.659 242.539C120.69 245.007 97.0704 231.14 96.8354 231.023L97.5405 230.083C97.7755 230.2 120.572 243.479 145.837 241.481L133.616 227.615C107.646 230.083 84.0269 216.217 83.7919 216.099L84.497 215.159C84.732 215.277 107.529 228.555 132.793 226.558L120.572 212.692C94.6028 215.159 70.9834 201.293 70.7484 201.176L71.4534 200.236C71.6885 200.353 94.4852 213.632 119.75 211.634L107.529 197.768C81.5592 200.236 57.9399 186.369 57.7049 186.252L58.4099 185.312C58.6449 185.429 81.4417 198.708 106.706 196.71L94.4852 182.844C68.2807 185.429 44.6614 171.681 44.4263 171.563Z" fill="#FE9393"/>
<path opacity="0.2" d="M82.9699 193.89C78.857 187.192 75.5668 180.376 73.0991 174.266C70.6314 168.155 69.2213 162.515 68.2812 158.402C67.8112 156.404 67.5762 154.642 67.4586 153.467C67.3411 152.292 67.2236 151.704 67.2236 151.704L155.003 251.234C155.003 251.234 154.415 251.117 153.24 250.764C152.065 250.412 150.42 250.059 148.54 249.354C146.542 248.649 144.192 247.827 141.724 246.652C139.139 245.594 136.437 244.184 133.499 242.656C127.623 239.483 121.395 235.371 115.285 230.435C109.057 225.5 103.181 219.742 97.6585 213.514C92.1356 207.286 87.0827 200.705 82.9699 193.89Z" fill="#68A9FE"/>
<path d="M98.1276 95.5351C96.835 95.1826 95.3074 94.7125 93.7798 94.0075C91.3121 93.0674 88.4918 91.7748 85.5541 90.1297C84.144 89.3071 82.6164 88.4845 81.2063 87.5445C79.7962 86.6044 78.386 85.6643 76.9759 84.6067C75.5658 83.5492 74.2732 82.4916 72.8631 81.434C71.5705 80.3764 70.2779 79.2013 69.1028 78.0262C66.7526 75.7935 64.6375 73.4434 62.9923 71.3282C61.3472 69.213 60.0546 67.3329 59.2321 65.8053C58.4095 64.3952 57.9395 63.4551 57.9395 63.4551C57.9395 63.4551 58.8795 63.5726 60.5247 63.9251C62.1698 64.2776 64.4025 64.9827 66.8702 65.9228C69.3378 66.8628 72.1581 68.1554 75.0958 69.8006C76.5059 70.6231 78.0335 71.4457 79.4436 72.3858C80.8538 73.3258 82.2639 74.2659 83.674 75.3235C85.0841 76.3811 86.3767 77.4387 87.7868 78.4963C89.0794 79.5538 90.372 80.7289 91.5471 81.904C93.8973 84.1367 96.0124 86.4869 97.6576 88.602C99.3027 90.7172 100.595 92.5974 101.418 94.0075C101.77 94.7125 102.123 95.3001 102.358 95.6526C110.819 103.408 118.574 111.986 125.39 121.27C124.45 119.977 123.157 117.979 121.982 115.629C120.689 113.279 119.514 110.459 118.339 107.286C117.752 105.758 117.282 104.113 116.812 102.468C116.342 100.823 115.871 99.1779 115.519 97.4152C115.166 95.7701 114.814 94.0075 114.579 92.3623C114.344 90.7172 114.109 88.9546 113.991 87.3094C113.639 84.0192 113.639 80.9639 113.756 78.2612C113.874 75.5585 114.226 73.3259 114.461 71.6807C114.814 70.0356 115.049 69.0955 115.049 69.0955C115.049 69.0955 115.754 69.8006 116.694 71.2107C117.634 72.5033 118.927 74.5009 120.219 76.8511C121.512 79.2013 122.687 82.0215 123.862 85.1943C124.45 86.7219 124.92 88.367 125.39 90.0122C125.86 91.6573 126.33 93.3024 126.682 95.0651C127.035 96.7102 127.387 98.4728 127.622 100.118C127.857 101.763 128.092 103.526 128.21 105.171C128.562 108.461 128.562 111.516 128.445 114.219C128.327 116.922 127.975 119.154 127.74 120.8C127.387 122.445 127.152 123.385 127.152 123.385C127.152 123.385 126.8 122.915 126.095 122.092C131.618 129.613 136.553 137.603 140.901 145.947C140.666 144.771 140.313 143.361 140.196 141.951C139.843 139.249 139.491 136.193 139.491 132.903C139.491 131.258 139.491 129.613 139.608 127.85C139.726 126.087 139.843 124.442 140.078 122.68C140.313 120.917 140.548 119.272 140.901 117.509C141.253 115.864 141.606 114.219 141.959 112.574C142.781 109.401 143.721 106.463 144.779 103.996C145.836 101.528 146.894 99.4129 147.716 98.0028C148.539 96.5927 149.127 95.7701 149.127 95.7701C149.127 95.7701 149.479 96.7102 149.949 98.2378C150.419 99.7654 151.007 102.116 151.359 104.701C151.712 107.404 152.064 110.459 152.064 113.749C152.064 115.394 152.064 117.039 151.947 118.802C151.829 120.565 151.712 122.21 151.477 123.972C151.242 125.735 151.007 127.38 150.654 129.143C150.302 130.788 149.949 132.433 149.597 134.078C148.774 137.251 147.834 140.189 146.776 142.656C145.719 145.124 144.661 147.239 143.839 148.649C143.486 149.237 143.251 149.589 143.016 149.942C146.659 157.345 149.949 164.983 152.652 172.739C152.534 171.799 152.534 170.741 152.417 169.566C152.299 166.863 152.417 163.808 152.769 160.518C152.887 158.873 153.239 157.227 153.474 155.582C153.827 153.937 154.179 152.175 154.532 150.529C155.002 148.884 155.355 147.122 155.942 145.594C156.412 143.949 157 142.421 157.587 140.894C158.762 137.838 160.055 135.018 161.348 132.668C162.64 130.318 163.933 128.438 164.873 127.028C165.813 125.735 166.518 125.03 166.518 125.03C166.518 125.03 166.753 125.97 167.105 127.615C167.341 129.26 167.693 131.493 167.693 134.196C167.811 136.898 167.693 139.954 167.341 143.244C167.106 144.889 166.87 146.534 166.635 148.179C166.283 149.824 165.93 151.587 165.578 153.232C165.108 154.877 164.755 156.64 164.168 158.167C163.698 159.813 163.11 161.34 162.523 162.868C161.348 165.923 160.055 168.743 158.762 171.094C157.47 173.444 156.177 175.324 155.237 176.734C154.885 177.204 154.532 177.557 154.297 177.909C156.882 185.782 159.115 193.89 160.878 202.233C160.995 200.588 161.23 198.943 161.583 197.181C161.818 195.535 162.17 193.89 162.64 192.245C162.993 190.6 163.463 188.955 164.05 187.31C164.52 185.665 165.108 184.02 165.813 182.374C166.4 180.729 167.105 179.202 167.811 177.792C169.221 174.854 170.631 172.151 172.158 169.801C173.569 167.568 174.979 165.688 176.154 164.513C177.211 163.22 177.916 162.633 177.916 162.633C177.916 162.633 178.151 163.573 178.269 165.218C178.386 166.863 178.504 169.213 178.386 171.916C178.269 174.619 177.916 177.674 177.446 180.964C177.211 182.609 176.859 184.255 176.389 185.9C175.919 187.545 175.449 189.19 174.979 190.835C174.509 192.48 173.921 194.125 173.216 195.77C172.628 197.416 171.923 198.943 171.218 200.353C169.808 203.291 168.398 205.994 166.87 208.344C165.46 210.577 164.05 212.457 162.875 213.749C162.875 213.749 162.875 213.749 162.758 213.867C163.698 220.682 164.285 227.615 164.285 234.313C164.285 235.959 161.7 235.959 161.7 234.313C161.7 224.09 160.407 213.749 158.292 203.644C158.057 203.644 157.94 203.644 157.705 203.644C156.06 203.761 153.709 203.761 151.124 203.526C148.422 203.291 145.366 202.821 142.194 202.116C140.548 201.763 139.021 201.293 137.376 200.823C135.731 200.353 134.085 199.766 132.44 199.178C130.795 198.591 129.15 197.886 127.622 197.181C126.095 196.475 124.567 195.77 123.04 194.948C120.102 193.42 117.517 191.775 115.284 190.247C113.051 188.72 111.289 187.192 110.114 186.017C108.938 184.842 108.233 184.137 108.233 184.137C108.233 184.137 109.173 184.02 110.819 183.902C112.464 183.785 114.814 183.785 117.517 184.02C120.219 184.255 123.275 184.725 126.447 185.43C128.092 185.782 129.62 186.252 131.265 186.722C132.91 187.192 134.555 187.78 136.201 188.367C137.846 188.955 139.373 189.66 141.018 190.365C142.546 191.07 144.074 191.775 145.601 192.598C148.539 194.125 151.124 195.77 153.357 197.298C155.12 198.591 156.53 199.766 157.705 200.823C156.177 193.89 154.297 186.957 152.182 180.259C151.242 177.204 150.184 174.149 149.009 171.094C148.892 171.094 148.774 171.093 148.657 171.211C147.011 171.564 144.779 171.916 142.076 172.034C139.373 172.269 136.318 172.269 133.028 171.916C131.383 171.799 129.738 171.681 127.975 171.446C126.33 171.211 124.567 170.858 122.922 170.623C121.277 170.271 119.514 169.918 117.869 169.448C116.224 168.978 114.579 168.508 113.051 167.921C109.996 166.863 107.058 165.688 104.708 164.395C102.358 163.22 100.36 161.928 98.9502 160.988C97.5401 160.048 96.835 159.343 96.835 159.343C96.835 159.343 97.7751 158.99 99.4202 158.755C101.065 158.403 103.298 158.05 106.001 157.932C108.703 157.697 111.759 157.697 115.049 158.05C116.694 158.167 118.339 158.285 120.102 158.52C121.747 158.755 123.51 159.108 125.155 159.46C126.8 159.813 128.562 160.165 130.208 160.635C131.853 161.105 133.498 161.575 135.025 162.163C138.081 163.22 141.018 164.395 143.369 165.688C145.131 166.628 146.659 167.451 147.951 168.273C144.191 158.52 139.726 149.119 134.438 140.071C133.968 140.189 133.38 140.306 132.675 140.424C131.03 140.776 128.798 141.129 126.095 141.246C123.392 141.481 120.337 141.481 117.047 141.129C115.401 141.011 113.756 140.776 111.994 140.659C110.349 140.424 108.586 140.189 106.941 139.836C105.296 139.484 103.533 139.131 101.888 138.661C100.243 138.191 98.5976 137.721 97.07 137.133C94.0148 136.076 91.077 134.901 88.7269 133.608C86.3767 132.433 84.379 131.14 82.9689 130.2C81.5588 129.26 80.8537 128.555 80.8537 128.555C80.8537 128.555 81.7938 128.203 83.4389 127.968C85.0841 127.615 87.3168 127.263 90.0195 127.145C92.7222 126.91 95.7774 126.91 99.0677 127.263C100.713 127.38 102.358 127.498 104.121 127.733C105.766 127.968 107.528 128.32 109.173 128.673C110.819 129.025 112.581 129.378 114.226 129.848C115.871 130.318 117.517 130.788 119.044 131.375C122.099 132.433 125.037 133.608 127.387 134.901C129.738 136.076 131.735 137.368 133.145 138.308C133.263 138.426 133.38 138.543 133.498 138.543C128.562 130.2 122.922 122.21 116.694 114.807C116.459 114.924 115.636 115.159 114.226 115.512C112.581 115.864 110.349 116.334 107.646 116.687C104.943 116.922 101.888 117.157 98.5976 117.039C96.9525 117.039 95.3074 116.922 93.5447 116.687C91.8996 116.569 90.137 116.334 88.3743 115.982C86.6117 115.747 84.9666 115.394 83.3214 115.042C81.6763 114.689 80.0312 114.219 78.5036 113.749C75.3308 112.809 72.5106 111.751 70.0429 110.576C67.5752 109.519 65.5775 108.344 64.1674 107.404C62.7573 106.463 62.0523 105.876 62.0523 105.876C62.0523 105.876 62.9923 105.523 64.6375 105.171C66.2826 104.818 68.5153 104.348 71.218 103.996C73.9207 103.761 76.9759 103.526 80.2662 103.643C81.9113 103.643 83.5565 103.761 85.3191 103.996C86.9642 104.113 88.7269 104.348 90.4895 104.701C92.2521 104.936 93.8973 105.288 95.5424 105.641C97.1875 105.993 98.8327 106.463 100.36 106.933C103.533 107.874 106.353 108.931 108.821 110.106C111.289 111.164 113.286 112.339 114.696 113.279C115.636 113.867 116.342 114.337 116.577 114.572C110.936 107.874 104.708 101.411 98.1276 95.5351Z" fill="url(#paint4_linear)"/>
<path d="M351.359 251.235C351.359 251.235 351.359 250.53 351.594 249.472C351.712 248.297 351.947 246.652 352.417 244.655C352.887 242.657 353.475 240.189 354.18 237.486C355.002 234.784 355.942 231.846 357.117 228.791C359.468 222.68 362.875 215.865 366.988 209.167C371.101 202.469 376.036 195.771 381.559 189.543C387.082 183.315 393.075 177.557 399.186 172.621C405.296 167.686 411.642 163.573 417.4 160.4C423.157 157.228 428.563 154.995 432.558 153.702C434.556 152.997 436.201 152.527 437.259 152.292C438.434 152.057 439.021 151.822 439.021 151.822C439.021 151.822 439.021 152.527 438.786 153.585C438.669 154.76 438.434 156.405 437.964 158.52C437.141 162.633 435.613 168.156 433.146 174.384C430.796 180.612 427.388 187.31 423.275 194.008C419.162 200.706 414.109 207.404 408.704 213.632C403.181 219.86 397.188 225.618 391.077 230.553C384.967 235.489 378.621 239.602 372.864 242.774C369.926 244.302 367.223 245.712 364.638 246.77C362.053 247.827 359.82 248.767 357.822 249.472C355.825 250.177 354.18 250.648 353.122 250.883C351.947 251.118 351.359 251.235 351.359 251.235Z" fill="url(#paint5_linear)"/>
<path d="M462.054 171.564L461.349 170.624C461.114 170.741 438.317 184.02 413.052 182.022L425.273 168.156C451.243 170.624 474.862 156.758 475.097 156.64L474.392 155.7C474.157 155.818 451.36 169.096 426.096 167.098L447.717 142.539L446.777 141.716L425.156 166.276C419.985 141.481 430.326 117.157 430.444 116.922L429.386 116.334C429.269 116.569 418.575 141.716 424.216 167.216L411.995 181.082C406.824 156.288 417.165 131.963 417.283 131.728L416.225 131.141C416.107 131.376 405.414 156.523 411.055 182.022L398.834 195.888C393.663 171.094 404.004 146.769 404.122 146.534L403.064 145.947C402.946 146.182 392.253 171.329 397.894 196.828L385.673 210.694C380.502 185.9 390.843 161.576 390.961 161.34L389.903 160.753C389.785 160.988 379.092 186.135 384.733 211.634L372.512 225.501C367.341 200.706 377.682 176.382 377.8 176.147L376.742 175.559C376.624 175.794 365.931 200.941 371.572 226.441L359.351 240.307C354.18 215.512 364.521 191.188 364.638 190.953L363.581 190.365C363.463 190.6 352.77 215.747 358.411 241.247L339.021 263.221L339.844 264.044L359.233 242.069C385.203 244.537 408.822 230.671 409.057 230.553L408.352 229.613C408.117 229.731 385.32 243.009 360.056 241.012L372.277 227.146C398.246 229.613 421.865 215.747 422.1 215.63L421.395 214.69C421.16 214.807 398.364 228.086 373.099 226.088L385.32 212.222C411.29 214.69 434.909 200.824 435.144 200.706L434.439 199.766C434.204 199.884 411.407 213.162 386.143 211.164L398.364 197.298C424.333 199.766 447.953 185.9 448.188 185.782L447.482 184.842C447.247 184.96 424.451 198.238 399.186 196.241L411.407 182.375C438.199 185.43 461.819 171.681 462.054 171.564Z" fill="#FE9393"/>
<path opacity="0.2" d="M423.51 193.89C427.623 187.192 430.913 180.377 433.38 174.266C435.848 168.156 437.258 162.515 438.198 158.403C438.668 156.405 438.903 154.642 439.021 153.467C439.138 152.292 439.256 151.705 439.256 151.705L351.477 251.235C351.477 251.235 352.064 251.117 353.239 250.765C354.414 250.412 356.059 250.06 357.94 249.355C359.937 248.65 362.287 247.827 364.755 246.652C367.34 245.594 370.043 244.184 372.981 242.657C378.856 239.484 385.084 235.371 391.195 230.436C397.423 225.5 403.298 219.742 408.821 213.514C414.344 207.286 419.397 200.706 423.51 193.89Z" fill="#68A9FE"/>
<path d="M408.47 95.5351C409.762 95.1826 411.29 94.7125 412.817 94.0075C415.285 93.0674 418.105 91.7748 421.043 90.1297C422.453 89.3071 423.981 88.4845 425.391 87.5445C426.801 86.6044 428.211 85.6643 429.621 84.6067C431.031 83.5492 432.324 82.4916 433.734 81.434C435.027 80.3764 436.319 79.2013 437.494 78.0262C439.845 75.7935 441.96 73.4434 443.605 71.3282C445.25 69.213 446.543 67.3329 447.365 65.8053C448.188 64.3952 448.658 63.4551 448.658 63.4551C448.658 63.4551 447.718 63.5726 446.072 63.9251C444.427 64.2776 442.195 64.9827 439.727 65.9228C437.259 66.8628 434.439 68.1554 431.501 69.8006C430.091 70.6231 428.564 71.4457 427.154 72.3858C425.743 73.3258 424.333 74.2659 422.923 75.3235C421.513 76.3811 420.22 77.4387 418.81 78.4963C417.518 79.5538 416.225 80.7289 415.05 81.904C412.7 84.1367 410.585 86.4869 408.94 88.602C407.294 90.7172 406.002 92.5974 405.179 94.0075C404.827 94.7125 404.474 95.3001 404.239 95.6526C395.779 103.408 388.023 111.986 381.207 121.27C382.148 119.977 383.44 117.979 384.615 115.629C385.908 113.279 387.083 110.459 388.258 107.286C388.846 105.758 389.316 104.113 389.786 102.468C390.256 100.823 390.726 99.1779 391.078 97.4152C391.431 95.7701 391.783 94.0075 392.018 92.3623C392.253 90.7172 392.488 88.9546 392.606 87.3094C392.958 84.0192 392.958 80.9639 392.841 78.2612C392.723 75.5585 392.371 73.3259 392.136 71.6807C391.783 70.0356 391.548 69.0955 391.548 69.0955C391.548 69.0955 390.843 69.8006 389.903 71.2107C388.963 72.5033 387.67 74.5009 386.378 76.8511C385.085 79.2013 383.91 82.0215 382.735 85.1943C382.147 86.7219 381.677 88.367 381.207 90.0122C380.737 91.6573 380.267 93.3024 379.915 95.0651C379.562 96.7102 379.21 98.4728 378.975 100.118C378.74 101.763 378.505 103.526 378.387 105.171C378.035 108.461 378.035 111.516 378.152 114.219C378.27 116.922 378.622 119.154 378.857 120.8C379.21 122.445 379.445 123.385 379.445 123.385C379.445 123.385 379.797 122.915 380.502 122.092C374.979 129.613 370.044 137.603 365.696 145.947C365.931 144.771 366.284 143.361 366.401 141.951C366.754 139.249 367.106 136.193 367.106 132.903C367.106 131.258 367.106 129.613 366.989 127.85C366.871 126.087 366.754 124.442 366.519 122.68C366.284 120.917 366.049 119.272 365.696 117.509C365.344 115.864 364.991 114.219 364.639 112.574C363.816 109.401 362.876 106.463 361.818 103.996C360.761 101.528 359.703 99.4129 358.881 98.0028C358.058 96.5927 357.471 95.7701 357.471 95.7701C357.471 95.7701 357.118 96.7102 356.648 98.2378C356.178 99.7654 355.59 102.116 355.238 104.701C354.885 107.404 354.533 110.459 354.533 113.749C354.533 115.394 354.533 117.039 354.65 118.802C354.768 120.565 354.885 122.21 355.12 123.972C355.355 125.735 355.59 127.38 355.943 129.143C356.295 130.788 356.648 132.433 357.001 134.078C357.823 137.251 358.763 140.189 359.821 142.656C360.878 145.124 361.936 147.239 362.758 148.649C363.111 149.237 363.346 149.589 363.581 149.942C359.938 157.345 356.648 164.983 353.945 172.739C354.063 171.799 354.063 170.741 354.18 169.566C354.298 166.863 354.18 163.808 353.828 160.518C353.71 158.873 353.358 157.227 353.123 155.582C352.77 153.937 352.418 152.175 352.065 150.529C351.595 148.884 351.243 147.122 350.655 145.594C350.185 143.949 349.597 142.421 349.01 140.894C347.835 137.838 346.542 135.018 345.25 132.668C343.957 130.318 342.664 128.438 341.724 127.028C340.784 125.735 340.079 125.03 340.079 125.03C340.079 125.03 339.844 125.97 339.492 127.615C339.257 129.26 338.904 131.493 338.904 134.196C338.787 136.898 338.904 139.954 339.257 143.244C339.492 144.889 339.727 146.534 339.962 148.179C340.314 149.824 340.667 151.587 341.019 153.232C341.489 154.877 341.842 156.64 342.429 158.167C342.899 159.813 343.487 161.34 344.075 162.868C345.25 165.923 346.542 168.743 347.835 171.094C349.127 173.444 350.42 175.324 351.36 176.734C351.713 177.204 352.065 177.557 352.3 177.909C349.715 185.782 347.482 193.89 345.72 202.233C345.602 200.588 345.367 198.943 345.015 197.181C344.78 195.535 344.427 193.89 343.957 192.245C343.604 190.6 343.134 188.955 342.547 187.31C342.077 185.665 341.489 184.02 340.784 182.374C340.197 180.729 339.492 179.202 338.787 177.792C337.376 174.854 335.966 172.151 334.439 169.801C333.029 167.568 331.619 165.688 330.443 164.513C329.386 163.22 328.681 162.633 328.681 162.633C328.681 162.633 328.446 163.573 328.328 165.218C328.211 166.863 328.093 169.213 328.211 171.916C328.328 174.619 328.681 177.674 329.151 180.964C329.386 182.609 329.738 184.255 330.208 185.9C330.678 187.545 331.149 189.19 331.619 190.835C332.089 192.48 332.676 194.125 333.381 195.77C333.969 197.416 334.674 198.943 335.379 200.353C336.789 203.291 338.199 205.994 339.727 208.344C341.137 210.577 342.547 212.457 343.722 213.749C343.722 213.749 343.722 213.749 343.839 213.867C342.899 220.682 342.312 227.615 342.312 234.313C342.312 235.959 344.897 235.959 344.897 234.313C344.897 224.09 346.19 213.749 348.305 203.644C348.54 203.644 348.657 203.644 348.892 203.644C350.538 203.761 352.888 203.761 355.473 203.526C358.176 203.291 361.231 202.821 364.404 202.116C366.049 201.763 367.576 201.293 369.221 200.823C370.867 200.353 372.512 199.766 374.157 199.178C375.802 198.591 377.447 197.886 378.975 197.181C380.502 196.475 382.03 195.77 383.558 194.948C386.495 193.42 389.081 191.775 391.313 190.247C393.546 188.72 395.309 187.192 396.484 186.017C397.659 184.842 398.364 184.137 398.364 184.137C398.364 184.137 397.424 184.02 395.779 183.902C394.133 183.785 391.783 183.785 389.081 184.02C386.378 184.255 383.323 184.725 380.15 185.43C378.505 185.782 376.977 186.252 375.332 186.722C373.687 187.192 372.042 187.78 370.397 188.367C368.751 188.955 367.224 189.66 365.579 190.365C364.051 191.07 362.523 191.775 360.996 192.598C358.058 194.125 355.473 195.77 353.24 197.298C351.478 198.591 350.067 199.766 348.892 200.823C350.42 193.89 352.3 186.957 354.415 180.259C355.355 177.204 356.413 174.149 357.588 171.094C357.706 171.094 357.823 171.093 357.941 171.211C359.586 171.564 361.818 171.916 364.521 172.034C367.224 172.269 370.279 172.269 373.569 171.916C375.214 171.799 376.86 171.681 378.622 171.446C380.267 171.211 382.03 170.858 383.675 170.623C385.32 170.271 387.083 169.918 388.728 169.448C390.373 168.978 392.018 168.508 393.546 167.921C396.601 166.863 399.539 165.688 401.889 164.395C404.239 163.22 406.237 161.928 407.647 160.988C409.057 160.048 409.762 159.343 409.762 159.343C409.762 159.343 408.822 158.99 407.177 158.755C405.532 158.403 403.299 158.05 400.596 157.932C397.894 157.697 394.838 157.697 391.548 158.05C389.903 158.167 388.258 158.285 386.495 158.52C384.85 158.755 383.088 159.108 381.442 159.46C379.797 159.813 378.035 160.165 376.39 160.635C374.744 161.105 373.099 161.575 371.572 162.163C368.516 163.22 365.579 164.395 363.229 165.688C361.466 166.628 359.938 167.451 358.646 168.273C362.406 158.52 366.871 149.119 372.159 140.071C372.629 140.189 373.217 140.306 373.922 140.424C375.567 140.776 377.8 141.129 380.502 141.246C383.205 141.481 386.26 141.481 389.551 141.129C391.196 141.011 392.841 140.776 394.603 140.659C396.249 140.424 398.011 140.189 399.656 139.836C401.301 139.484 403.064 139.131 404.709 138.661C406.354 138.191 408 137.721 409.527 137.133C412.582 136.076 415.52 134.901 417.87 133.608C420.22 132.433 422.218 131.14 423.628 130.2C425.038 129.26 425.743 128.555 425.743 128.555C425.743 128.555 424.803 128.203 423.158 127.968C421.513 127.615 419.28 127.263 416.578 127.145C413.875 126.91 410.82 126.91 407.529 127.263C405.884 127.38 404.239 127.498 402.477 127.733C400.831 127.968 399.069 128.32 397.424 128.673C395.779 129.025 394.016 129.378 392.371 129.848C390.726 130.318 389.081 130.788 387.553 131.375C384.498 132.433 381.56 133.608 379.21 134.901C376.86 136.076 374.862 137.368 373.452 138.308C373.334 138.426 373.217 138.543 373.099 138.543C378.035 130.2 383.675 122.21 389.903 114.807C390.138 114.924 390.961 115.159 392.371 115.512C394.016 115.864 396.249 116.334 398.951 116.687C401.654 116.922 404.709 117.157 408 117.039C409.645 117.039 411.29 116.922 413.052 116.687C414.698 116.569 416.46 116.334 418.223 115.982C419.985 115.747 421.631 115.394 423.276 115.042C424.921 114.689 426.566 114.219 428.094 113.749C431.266 112.809 434.087 111.751 436.554 110.576C439.022 109.519 441.02 108.344 442.43 107.404C443.84 106.463 444.545 105.876 444.545 105.876C444.545 105.876 443.605 105.523 441.96 105.171C440.315 104.818 438.082 104.348 435.379 103.996C432.676 103.761 429.621 103.526 426.331 103.643C424.686 103.643 423.041 103.761 421.278 103.996C419.633 104.113 417.87 104.348 416.108 104.701C414.345 104.936 412.7 105.288 411.055 105.641C409.41 105.993 407.765 106.463 406.237 106.933C403.064 107.874 400.244 108.931 397.776 110.106C395.309 111.164 393.311 112.339 391.901 113.279C390.961 113.867 390.256 114.337 390.021 114.572C395.544 107.874 401.772 101.411 408.47 95.5351Z" fill="url(#paint6_linear)"/>
<path d="M352.064 309.754C352.064 322.327 341.841 332.55 329.267 332.55H177.681C165.107 332.55 154.884 322.327 154.884 309.754V86.3686C154.884 73.7951 165.107 63.5718 177.681 63.5718H329.15C341.723 63.5718 351.947 73.7951 351.947 86.3686V309.754H352.064Z" fill="url(#paint7_linear)"/>
<path d="M336.553 75.4395H170.395V316.568H336.553V75.4395Z" fill="white"/>
<path d="M298.598 59.6939H265.225V42.185C265.225 35.722 259.937 30.4341 253.474 30.4341C247.011 30.4341 241.723 35.722 241.723 42.185V59.6939H208.351C201.888 59.6939 196.6 64.9818 196.6 71.4448C196.6 77.9078 201.888 83.1957 208.351 83.1957H298.598C305.061 83.1957 310.348 77.9078 310.348 71.4448C310.348 64.9818 305.061 59.6939 298.598 59.6939Z" fill="url(#paint8_linear)"/>
<path opacity="0.2" d="M298.598 71.4443H208.351C204.003 71.4443 200.242 69.0941 198.127 65.5688C197.07 67.3315 196.6 69.3291 196.6 71.4443C196.6 77.9073 201.888 83.1952 208.351 83.1952H298.598C305.061 83.1952 310.348 77.9073 310.348 71.4443C310.348 69.3291 309.761 67.3315 308.821 65.5688C306.706 69.0941 302.945 71.4443 298.598 71.4443Z" fill="url(#paint9_linear)"/>
<path d="M300.007 132.666C300.007 119.27 289.196 108.459 275.8 108.459C265.812 108.459 257.233 114.452 253.473 123.148C249.713 114.57 241.135 108.459 231.146 108.459C217.75 108.459 206.939 119.27 206.939 132.666C206.939 136.427 207.88 140.069 209.407 143.36C215.283 160.164 253.473 189.188 253.473 189.188C253.473 189.188 291.664 160.164 297.539 143.36C299.067 140.187 300.007 136.544 300.007 132.666Z" fill="#FE9393"/>
<path d="M312.933 151.585C301.065 151.585 289.196 151.585 277.328 151.585C274.155 151.585 270.865 150.645 268.75 153.348C265.577 157.226 262.522 161.103 259.349 164.981C255.001 151.703 250.771 138.424 246.423 125.028C245.953 123.5 243.838 123.5 243.25 125.028C240.195 134.311 237.14 143.594 234.084 152.76C220.688 152.76 207.175 152.76 193.779 152.76C191.664 152.76 191.664 156.05 193.779 156.05C207.645 156.05 221.511 156.05 235.259 156.05C235.965 156.05 236.552 155.58 236.787 154.875C239.49 146.767 242.075 138.777 244.778 130.668C248.891 143.359 253.003 156.05 257.116 168.741C257.469 169.799 258.996 170.504 259.819 169.447C263.344 165.099 266.752 160.751 270.277 156.403C270.747 155.815 271.1 155.345 271.57 154.758C273.92 154.758 276.153 154.758 278.503 154.758C289.901 154.758 301.3 154.758 312.698 154.758C315.048 154.875 315.048 151.585 312.933 151.585Z" fill="url(#paint10_linear)"/>
<path d="M310.349 208.931H196.482V213.279H310.349V208.931Z" fill="url(#paint11_linear)"/>
<path d="M310.349 232.433H196.482V236.78H310.349V232.433Z" fill="url(#paint12_linear)"/>
<path d="M310.349 255.934H196.482V260.282H310.349V255.934Z" fill="url(#paint13_linear)"/>
<path d="M310.348 279.436H196.481V283.784H310.348V279.436Z" fill="url(#paint14_linear)"/>
<path opacity="0.1" d="M329.15 332.55C341.724 332.55 351.947 322.327 351.947 309.754V86.3686C351.947 73.7951 341.724 63.5718 329.15 63.5718H326.447C325.155 204.465 262.992 295.77 231.853 332.55H329.15Z" fill="url(#paint15_linear)"/>
<path d="M352.417 263.219C332.558 263.219 316.342 246.416 316.342 225.734C316.342 205.052 332.558 188.249 352.417 188.249C372.276 188.249 388.492 205.052 388.492 225.734C388.375 246.533 372.276 263.219 352.417 263.219ZM352.417 197.767C337.728 197.767 325.743 210.34 325.743 225.851C325.743 241.363 337.728 253.936 352.417 253.936C367.106 253.936 379.092 241.363 379.092 225.851C378.974 210.34 367.106 197.767 352.417 197.767Z" fill="url(#paint16_linear)"/>
<path d="M438.787 327.616C438.787 334.079 433.499 339.367 427.036 339.367H277.8C271.337 339.367 266.049 334.079 266.049 327.616V232.551C266.049 226.088 271.337 220.8 277.8 220.8H427.036C433.499 220.8 438.787 226.088 438.787 232.551V327.616Z" fill="url(#paint17_linear)"/>
<path d="M427.037 220.681H277.8C273.217 220.681 269.222 223.384 267.342 227.144C274.275 267.802 309.763 298.825 352.418 298.825C395.074 298.825 430.562 267.802 437.495 227.144C435.497 223.384 431.502 220.681 427.037 220.681Z" fill="url(#paint18_linear)"/>
<path d="M311.875 278.026H300.829V296.827H311.875V278.026Z" fill="white"/>
<path d="M403.886 278.026H392.84V296.827H403.886V278.026Z" fill="white"/>
<path opacity="0.1" d="M438.788 327.615V232.55C438.788 226.087 433.5 220.799 427.037 220.799H387.202C377.801 307.168 307.648 328.32 267.46 333.255C269.458 336.898 273.335 339.366 277.801 339.366H427.037C433.5 339.366 438.788 334.078 438.788 327.615Z" fill="#68A9FE"/>
<path d="M368.517 254.641H358.294V244.417H347.836V254.641H337.612V265.099H347.836V275.322H358.294V265.099H368.517V254.641Z" fill="url(#paint19_linear)"/>
<path d="M247.365 326.44C247.365 333.49 241.489 339.366 234.439 339.366H202.006C194.956 339.366 189.08 333.49 189.08 326.44V272.856C189.08 265.805 194.956 259.93 202.006 259.93H234.439C241.489 259.93 247.365 265.805 247.365 272.856V326.44Z" fill="#FE9393"/>
<path d="M243.84 274.854H192.488V322.797H243.84V274.854Z" fill="white"/>
<path d="M234.322 294.712H224.099V284.489H213.64V294.712H203.417V305.17H213.64V315.511H224.099V305.17H234.322V294.712Z" fill="#FE9393"/>
<path opacity="0.1" d="M234.439 259.93H228.211C231.031 297.768 204.357 320.682 189.668 330.318C191.313 335.488 196.248 339.248 202.006 339.248H234.439C241.49 339.248 247.365 333.373 247.365 326.322V272.738C247.365 265.688 241.49 259.93 234.439 259.93Z" fill="#68A9FE"/>
<path d="M240.902 250.999C240.902 256.522 236.437 261.105 230.796 261.105H205.532C200.009 261.105 195.426 256.639 195.426 250.999V245.946C195.426 240.423 199.891 235.84 205.532 235.84H230.796C236.319 235.84 240.902 240.306 240.902 245.946V250.999Z" fill="url(#paint20_linear)"/>
<g opacity="0.5">
<g opacity="0.5">
<path opacity="0.5" d="M203.886 255.229C203.886 256.404 202.946 257.344 201.77 257.344C200.595 257.344 199.655 256.404 199.655 255.229V241.01C199.655 239.835 200.595 238.895 201.77 238.895C202.946 238.895 203.886 239.835 203.886 241.01V255.229Z" fill="url(#paint21_linear)"/>
<path opacity="0.5" d="M212.111 255.229C212.111 256.404 211.171 257.344 209.996 257.344C208.821 257.344 207.881 256.404 207.881 255.229V241.01C207.881 239.835 208.821 238.895 209.996 238.895C211.171 238.895 212.111 239.835 212.111 241.01V255.229Z" fill="url(#paint22_linear)"/>
</g>
<g opacity="0.5">
<path opacity="0.5" d="M220.338 255.23C220.338 256.405 219.398 257.345 218.223 257.345C217.047 257.345 216.107 256.405 216.107 255.23V241.011C216.107 239.836 217.047 238.896 218.223 238.896C219.398 238.896 220.338 239.836 220.338 241.011V255.23Z" fill="url(#paint23_linear)"/>
<path opacity="0.5" d="M228.563 255.229C228.563 256.404 227.623 257.344 226.448 257.344C225.273 257.344 224.333 256.404 224.333 255.229V241.01C224.333 239.835 225.273 238.895 226.448 238.895C227.623 238.895 228.563 239.835 228.563 241.01V255.229Z" fill="url(#paint24_linear)"/>
<path opacity="0.5" d="M236.789 255.229C236.789 256.404 235.849 257.344 234.674 257.344C233.499 257.344 232.559 256.404 232.559 255.229V241.01C232.559 239.835 233.499 238.895 234.674 238.895C235.849 238.895 236.789 239.835 236.789 241.01V255.229Z" fill="url(#paint25_linear)"/>
</g>
</g>
<path opacity="0.1" d="M232.325 236.076C233.147 237.603 233.735 239.248 233.735 241.129V246.181C233.735 251.704 229.152 256.287 223.629 256.287H198.365C197.895 256.287 197.424 256.287 196.837 256.17C198.6 259.107 201.772 261.105 205.533 261.105H230.797C236.32 261.105 240.903 256.64 240.903 250.999V245.946C240.903 240.894 237.143 236.781 232.325 236.076Z" fill="#68A9FE"/>
<path d="M162.405 311.281C153.357 292.127 144.308 273.091 135.143 253.937C152.417 242.891 154.179 219.036 146.071 201.175C143.838 196.357 136.788 200.588 139.021 205.288C145.954 220.564 143.721 242.538 126.095 249.354C109.996 255.464 94.1321 242.773 87.3165 229.142C84.9663 224.442 77.9158 228.555 80.266 233.255C88.7266 250.294 108.586 263.925 127.857 257.462C135.965 274.383 143.956 291.305 152.064 308.343C153.357 311.164 154.767 313.984 156.059 316.804C159.585 324.207 154.767 331.61 147.481 333.725C134.908 337.486 129.385 317.627 125.507 309.401C123.274 304.583 116.106 308.813 118.456 313.514C124.214 325.735 128.327 340.659 143.956 342.186C153.122 343.126 161.112 336.311 164.403 328.32C166.635 322.797 164.873 316.687 162.405 311.281Z" fill="url(#paint26_linear)"/>
<path d="M96.5993 224.794C98.0094 227.614 96.8343 231.14 94.014 232.55L87.6686 235.605C84.8483 237.015 81.3231 235.84 79.9129 233.02C78.5028 230.199 79.6779 226.674 82.4981 225.264L88.8436 222.209C91.7814 220.799 95.1891 221.974 96.5993 224.794Z" fill="url(#paint27_linear)"/>
<path d="M145.836 200.353C147.246 203.173 146.071 206.698 143.25 208.108L136.905 211.163C134.085 212.574 130.559 211.398 129.149 208.578C127.739 205.758 128.914 202.233 131.734 200.823L138.08 197.767C141.018 196.357 144.425 197.532 145.836 200.353Z" fill="url(#paint28_linear)"/>
<path d="M119.279 322.797C127.067 322.797 133.38 316.484 133.38 308.696C133.38 300.909 127.067 294.595 119.279 294.595C111.491 294.595 105.178 300.909 105.178 308.696C105.178 316.484 111.491 322.797 119.279 322.797Z" fill="url(#paint29_linear)"/>
<path d="M119.279 315.395C122.978 315.395 125.977 312.396 125.977 308.697C125.977 304.997 122.978 301.999 119.279 301.999C115.58 301.999 112.581 304.997 112.581 308.697C112.581 312.396 115.58 315.395 119.279 315.395Z" fill="white"/>
<path opacity="0.3" d="M467.341 199.059C467.341 196.474 465.225 194.477 462.64 194.477C460.76 194.477 459.115 195.652 458.41 197.297C457.705 195.652 456.06 194.477 454.18 194.477C451.594 194.477 449.597 196.592 449.597 199.059C449.597 199.764 449.714 200.47 450.067 201.057C451.242 204.23 458.527 209.87 458.527 209.87C458.527 209.87 465.813 204.347 466.988 201.057C467.223 200.47 467.341 199.764 467.341 199.059Z" fill="url(#paint30_linear)"/>
<path opacity="0.3" d="M506.002 140.305C506.002 134.547 501.301 129.847 495.543 129.847C491.195 129.847 487.553 132.432 485.908 136.192C484.262 132.432 480.62 129.847 476.272 129.847C470.514 129.847 465.813 134.547 465.813 140.305C465.813 141.95 466.166 143.478 466.871 144.888C469.456 152.173 485.908 164.747 485.908 164.747C485.908 164.747 502.359 152.173 504.944 144.888C505.532 143.478 506.002 141.95 506.002 140.305Z" fill="url(#paint31_linear)"/>
<path opacity="0.3" d="M497.893 253.231C497.893 249.823 495.073 247.003 491.665 247.003C489.08 247.003 486.847 248.531 485.907 250.763C484.967 248.531 482.734 247.003 480.149 247.003C476.741 247.003 473.921 249.823 473.921 253.231C473.921 254.171 474.156 255.111 474.508 255.934C476.036 260.281 485.907 267.802 485.907 267.802C485.907 267.802 495.778 260.281 497.305 255.934C497.658 255.111 497.893 254.171 497.893 253.231Z" fill="url(#paint32_linear)"/>
<path opacity="0.3" d="M405.531 22.5609C405.531 19.9757 403.416 17.978 400.831 17.978C398.95 17.978 397.305 19.1531 396.6 20.7982C395.895 19.1531 394.25 17.978 392.37 17.978C389.785 17.978 387.787 20.0932 387.787 22.5609C387.787 23.2659 387.905 23.971 388.257 24.5585C389.432 27.7313 396.718 33.3717 396.718 33.3717C396.718 33.3717 404.003 27.8488 405.178 24.5585C405.296 23.971 405.531 23.2659 405.531 22.5609Z" fill="url(#paint33_linear)"/>
<path opacity="0.3" d="M480.503 58.9883C480.503 57.1082 478.975 55.5806 477.095 55.5806C475.685 55.5806 474.51 56.4031 473.922 57.6957C473.335 56.5206 472.16 55.5806 470.75 55.5806C468.869 55.5806 467.342 57.1082 467.342 58.9883C467.342 59.5759 467.459 60.0459 467.694 60.516C468.517 62.8661 473.922 66.979 473.922 66.979C473.922 66.979 479.328 62.8661 480.15 60.516C480.385 60.0459 480.503 59.5759 480.503 58.9883Z" fill="url(#paint34_linear)"/>
<path opacity="0.3" d="M39.4893 199.06C39.4893 196.475 41.6044 194.478 44.1896 194.478C46.0698 194.478 47.7149 195.653 48.42 197.298C49.125 195.653 50.7701 194.478 52.6503 194.478C55.2355 194.478 57.2332 196.593 57.2332 199.06C57.2332 199.765 57.1156 200.471 56.7631 201.058C55.588 204.231 48.3024 209.871 48.3024 209.871C48.3024 209.871 41.0169 204.348 39.8418 201.058C39.7243 200.471 39.4893 199.765 39.4893 199.06Z" fill="url(#paint35_linear)"/>
<path opacity="0.3" d="M0.946289 140.305C0.946289 134.547 5.64666 129.847 11.4046 129.847C15.7524 129.847 19.3952 132.432 21.0404 136.192C22.6855 132.432 26.3283 129.847 30.6761 129.847C36.4341 129.847 41.1344 134.547 41.1344 140.305C41.1344 141.95 40.7819 143.478 40.0769 144.888C37.4916 152.173 21.0404 164.747 21.0404 164.747C21.0404 164.747 4.58907 152.173 2.00387 144.888C1.29882 143.478 0.946289 141.95 0.946289 140.305Z" fill="url(#paint36_linear)"/>
<path opacity="0.3" d="M9.05469 253.231C9.05469 249.824 11.8749 247.003 15.2827 247.003C17.8679 247.003 20.1006 248.531 21.0406 250.764C21.9807 248.531 24.2134 247.003 26.7986 247.003C30.2063 247.003 33.0266 249.824 33.0266 253.231C33.0266 254.171 32.7915 255.112 32.439 255.934C30.9114 260.282 21.0406 267.803 21.0406 267.803C21.0406 267.803 11.1699 260.282 9.64223 255.934C9.28971 255.112 9.05469 254.171 9.05469 253.231Z" fill="url(#paint37_linear)"/>
<path opacity="0.3" d="M101.416 22.5609C101.416 19.9757 103.531 17.978 106.116 17.978C107.997 17.978 109.642 19.1531 110.347 20.7982C111.052 19.1531 112.697 17.978 114.577 17.978C117.162 17.978 119.16 20.0932 119.16 22.5609C119.16 23.2659 119.042 23.971 118.69 24.5585C117.515 27.7313 110.229 33.3717 110.229 33.3717C110.229 33.3717 102.944 27.8488 101.769 24.5585C101.534 23.971 101.416 23.2659 101.416 22.5609Z" fill="url(#paint38_linear)"/>
<path opacity="0.3" d="M26.4463 58.9888C26.4463 57.1087 27.9739 55.5811 29.8541 55.5811C31.2642 55.5811 32.4393 56.4036 33.0268 57.6962C33.6143 56.5211 34.7894 55.5811 36.1996 55.5811C38.0797 55.5811 39.6073 57.1087 39.6073 58.9888C39.6073 59.5764 39.4898 60.0464 39.2548 60.5164C38.4322 62.8666 33.0268 66.9794 33.0268 66.9794C33.0268 66.9794 27.6214 62.8666 26.7988 60.5164C26.5638 60.0464 26.4463 59.5764 26.4463 58.9888Z" fill="url(#paint39_linear)"/>
<defs>
<linearGradient id="paint0_linear" x1="37.0293" y1="168.332" x2="469.893" y2="168.332" gradientUnits="userSpaceOnUse">
<stop stop-color="#FAD0C4"/>
<stop offset="0.01" stop-color="#FAD0C4"/>
<stop offset="1" stop-color="#FFD1FF"/>
</linearGradient>
<linearGradient id="paint1_linear" x1="41.0576" y1="181.629" x2="465.812" y2="181.629" gradientUnits="userSpaceOnUse">
<stop stop-color="#FAD0C4"/>
<stop offset="0.01" stop-color="#FAD0C4"/>
<stop offset="1" stop-color="#FFD1FF"/>
</linearGradient>
<linearGradient id="paint2_linear" x1="13.7549" y1="341.012" x2="493.192" y2="341.012" gradientUnits="userSpaceOnUse">
<stop stop-color="#FAD0C4"/>
<stop offset="0.01" stop-color="#FAD0C4"/>
<stop offset="1" stop-color="#FFD1FF"/>
</linearGradient>
<linearGradient id="paint3_linear" x1="67.459" y1="201.528" x2="155.121" y2="201.528" gradientUnits="userSpaceOnUse">
<stop stop-color="#FAD0C4"/>
<stop offset="0.01" stop-color="#FAD0C4"/>
<stop offset="1" stop-color="#FFD1FF"/>
</linearGradient>
<linearGradient id="paint4_linear" x1="57.9395" y1="149.501" x2="178.435" y2="149.501" gradientUnits="userSpaceOnUse">
<stop stop-color="#A1C4FD"/>
<stop offset="1" stop-color="#C2E9FB"/>
</linearGradient>
<linearGradient id="paint5_linear" x1="351.359" y1="201.529" x2="439.021" y2="201.529" gradientUnits="userSpaceOnUse">
<stop stop-color="#FAD0C4"/>
<stop offset="0.01" stop-color="#FAD0C4"/>
<stop offset="1" stop-color="#FFD1FF"/>
</linearGradient>
<linearGradient id="paint6_linear" x1="328.162" y1="149.501" x2="448.658" y2="149.501" gradientUnits="userSpaceOnUse">
<stop stop-color="#A1C4FD"/>
<stop offset="1" stop-color="#C2E9FB"/>
</linearGradient>
<linearGradient id="paint7_linear" x1="154.884" y1="63.5718" x2="411.396" y2="251.614" gradientUnits="userSpaceOnUse">
<stop stop-color="#5BA4E5"/>
<stop offset="1" stop-color="#7384FE"/>
</linearGradient>
<linearGradient id="paint8_linear" x1="196.6" y1="56.8149" x2="310.348" y2="56.8149" gradientUnits="userSpaceOnUse">
<stop stop-color="#FAD0C4"/>
<stop offset="0.01" stop-color="#FAD0C4"/>
<stop offset="1" stop-color="#FFD1FF"/>
</linearGradient>
<linearGradient id="paint9_linear" x1="196.6" y1="65.5688" x2="201.934" y2="99.995" gradientUnits="userSpaceOnUse">
<stop stop-color="#5BA4E5"/>
<stop offset="1" stop-color="#7384FE"/>
</linearGradient>
<linearGradient id="paint10_linear" x1="192.192" y1="146.926" x2="314.491" y2="146.926" gradientUnits="userSpaceOnUse">
<stop stop-color="#FAD0C4"/>
<stop offset="0.01" stop-color="#FAD0C4"/>
<stop offset="1" stop-color="#FFD1FF"/>
</linearGradient>
<linearGradient id="paint11_linear" x1="196.482" y1="211.105" x2="310.349" y2="211.105" gradientUnits="userSpaceOnUse">
<stop stop-color="#FAD0C4"/>
<stop offset="0.01" stop-color="#FAD0C4"/>
<stop offset="1" stop-color="#FFD1FF"/>
</linearGradient>
<linearGradient id="paint12_linear" x1="196.482" y1="234.607" x2="310.349" y2="234.607" gradientUnits="userSpaceOnUse">
<stop stop-color="#FAD0C4"/>
<stop offset="0.01" stop-color="#FAD0C4"/>
<stop offset="1" stop-color="#FFD1FF"/>
</linearGradient>
<linearGradient id="paint13_linear" x1="196.482" y1="258.108" x2="310.349" y2="258.108" gradientUnits="userSpaceOnUse">
<stop stop-color="#FAD0C4"/>
<stop offset="0.01" stop-color="#FAD0C4"/>
<stop offset="1" stop-color="#FFD1FF"/>
</linearGradient>
<linearGradient id="paint14_linear" x1="196.481" y1="281.61" x2="310.348" y2="281.61" gradientUnits="userSpaceOnUse">
<stop stop-color="#FAD0C4"/>
<stop offset="0.01" stop-color="#FAD0C4"/>
<stop offset="1" stop-color="#FFD1FF"/>
</linearGradient>
<linearGradient id="paint15_linear" x1="231.853" y1="198.061" x2="351.947" y2="198.061" gradientUnits="userSpaceOnUse">
<stop stop-color="#A1C4FD"/>
<stop offset="1" stop-color="#C2E9FB"/>
</linearGradient>
<linearGradient id="paint16_linear" x1="316.342" y1="225.734" x2="388.492" y2="225.734" gradientUnits="userSpaceOnUse">
<stop stop-color="#A1C4FD"/>
<stop offset="1" stop-color="#C2E9FB"/>
</linearGradient>
<linearGradient id="paint17_linear" x1="266.049" y1="280.084" x2="438.787" y2="280.084" gradientUnits="userSpaceOnUse">
<stop stop-color="#A1C4FD"/>
<stop offset="1" stop-color="#C2E9FB"/>
</linearGradient>
<linearGradient id="paint18_linear" x1="267.342" y1="220.681" x2="326.616" y2="349.747" gradientUnits="userSpaceOnUse">
<stop stop-color="#5BA4E5"/>
<stop offset="1" stop-color="#7384FE"/>
</linearGradient>
<linearGradient id="paint19_linear" x1="337.612" y1="259.87" x2="368.517" y2="259.87" gradientUnits="userSpaceOnUse">
<stop stop-color="#A1C4FD"/>
<stop offset="1" stop-color="#C2E9FB"/>
</linearGradient>
<linearGradient id="paint20_linear" x1="195.426" y1="235.84" x2="216.877" y2="274.452" gradientUnits="userSpaceOnUse">
<stop stop-color="#5BA4E5"/>
<stop offset="1" stop-color="#7384FE"/>
</linearGradient>
<linearGradient id="paint21_linear" x1="199.655" y1="248.119" x2="203.886" y2="248.119" gradientUnits="userSpaceOnUse">
<stop stop-color="#A1C4FD"/>
<stop offset="1" stop-color="#C2E9FB"/>
</linearGradient>
<linearGradient id="paint22_linear" x1="207.881" y1="248.119" x2="212.111" y2="248.119" gradientUnits="userSpaceOnUse">
<stop stop-color="#A1C4FD"/>
<stop offset="1" stop-color="#C2E9FB"/>
</linearGradient>
<linearGradient id="paint23_linear" x1="216.107" y1="248.12" x2="220.338" y2="248.12" gradientUnits="userSpaceOnUse">
<stop stop-color="#A1C4FD"/>
<stop offset="1" stop-color="#C2E9FB"/>
</linearGradient>
<linearGradient id="paint24_linear" x1="224.333" y1="248.119" x2="228.563" y2="248.119" gradientUnits="userSpaceOnUse">
<stop stop-color="#A1C4FD"/>
<stop offset="1" stop-color="#C2E9FB"/>
</linearGradient>
<linearGradient id="paint25_linear" x1="232.559" y1="248.119" x2="236.789" y2="248.119" gradientUnits="userSpaceOnUse">
<stop stop-color="#A1C4FD"/>
<stop offset="1" stop-color="#C2E9FB"/>
</linearGradient>
<linearGradient id="paint26_linear" x1="79.793" y1="270.66" x2="165.426" y2="270.66" gradientUnits="userSpaceOnUse">
<stop stop-color="#A1C4FD"/>
<stop offset="1" stop-color="#C2E9FB"/>
</linearGradient>
<linearGradient id="paint27_linear" x1="79.3154" y1="221.611" x2="93.6099" y2="239.129" gradientUnits="userSpaceOnUse">
<stop stop-color="#5BA4E5"/>
<stop offset="1" stop-color="#7384FE"/>
</linearGradient>
<linearGradient id="paint28_linear" x1="128.552" y1="197.17" x2="142.846" y2="214.688" gradientUnits="userSpaceOnUse">
<stop stop-color="#5BA4E5"/>
<stop offset="1" stop-color="#7384FE"/>
</linearGradient>
<linearGradient id="paint29_linear" x1="105.178" y1="294.595" x2="133.38" y2="322.797" gradientUnits="userSpaceOnUse">
<stop stop-color="#5BA4E5"/>
<stop offset="1" stop-color="#7384FE"/>
</linearGradient>
<linearGradient id="paint30_linear" x1="449.597" y1="202.173" x2="467.341" y2="202.173" gradientUnits="userSpaceOnUse">
<stop stop-color="#A1C4FD"/>
<stop offset="1" stop-color="#C2E9FB"/>
</linearGradient>
<linearGradient id="paint31_linear" x1="465.813" y1="147.297" x2="506.002" y2="147.297" gradientUnits="userSpaceOnUse">
<stop stop-color="#A1C4FD"/>
<stop offset="1" stop-color="#C2E9FB"/>
</linearGradient>
<linearGradient id="paint32_linear" x1="473.921" y1="257.402" x2="497.893" y2="257.402" gradientUnits="userSpaceOnUse">
<stop stop-color="#A1C4FD"/>
<stop offset="1" stop-color="#C2E9FB"/>
</linearGradient>
<linearGradient id="paint33_linear" x1="387.787" y1="25.6749" x2="405.531" y2="25.6749" gradientUnits="userSpaceOnUse">
<stop stop-color="#A1C4FD"/>
<stop offset="1" stop-color="#C2E9FB"/>
</linearGradient>
<linearGradient id="paint34_linear" x1="467.342" y1="61.2798" x2="480.503" y2="61.2798" gradientUnits="userSpaceOnUse">
<stop stop-color="#A1C4FD"/>
<stop offset="1" stop-color="#C2E9FB"/>
</linearGradient>
<linearGradient id="paint35_linear" x1="39.4893" y1="202.174" x2="57.2332" y2="202.174" gradientUnits="userSpaceOnUse">
<stop stop-color="#A1C4FD"/>
<stop offset="1" stop-color="#C2E9FB"/>
</linearGradient>
<linearGradient id="paint36_linear" x1="0.946289" y1="147.297" x2="41.1344" y2="147.297" gradientUnits="userSpaceOnUse">
<stop stop-color="#A1C4FD"/>
<stop offset="1" stop-color="#C2E9FB"/>
</linearGradient>
<linearGradient id="paint37_linear" x1="9.05469" y1="257.403" x2="33.0266" y2="257.403" gradientUnits="userSpaceOnUse">
<stop stop-color="#A1C4FD"/>
<stop offset="1" stop-color="#C2E9FB"/>
</linearGradient>
<linearGradient id="paint38_linear" x1="101.416" y1="25.6749" x2="119.16" y2="25.6749" gradientUnits="userSpaceOnUse">
<stop stop-color="#A1C4FD"/>
<stop offset="1" stop-color="#C2E9FB"/>
</linearGradient>
<linearGradient id="paint39_linear" x1="26.4463" y1="61.2803" x2="39.6073" y2="61.2803" gradientUnits="userSpaceOnUse">
<stop stop-color="#A1C4FD"/>
<stop offset="1" stop-color="#C2E9FB"/>
</linearGradient>
</defs>
</svg>
