<svg width="266" height="58" viewBox="0 0 266 58" fill="none" xmlns="http://www.w3.org/2000/svg">
<path fill-rule="evenodd" clip-rule="evenodd" d="M265 29L264.999 44.1527L264.996 45.6198L264.992 46.5428L264.986 47.2285L264.978 47.7786L264.968 48.2402L264.957 48.6392L264.944 48.9913L264.929 49.307L264.912 49.5934L264.893 49.8558L264.873 50.0981L264.851 50.3233L264.827 50.5337L264.801 50.7313L264.774 50.9176L264.745 51.0939L264.714 51.2612L264.681 51.4204L264.646 51.5723L264.61 51.7175L264.571 51.8567L264.531 51.9902L264.489 52.1186L264.445 52.2423L264.4 52.3615L264.352 52.4766L264.303 52.5878L264.251 52.6954L264.198 52.7996L264.143 52.9006L264.086 52.9986L264.027 53.0938L263.967 53.1862L263.904 53.2761L263.839 53.3636L263.772 53.4488L263.704 53.5318L263.633 53.6126L263.561 53.6915L263.486 53.7684L263.409 53.8434L263.331 53.9167L263.25 53.9883L263.167 54.0583L263.082 54.1267L262.995 54.1936L262.906 54.259L262.815 54.323L262.722 54.3856L262.626 54.4469L262.528 54.5069L262.428 54.5657L262.326 54.6233L262.221 54.6797L262.115 54.735L262.006 54.7892L261.894 54.8423L261.78 54.8944L261.664 54.9454L261.546 54.9955L261.425 55.0446L261.301 55.0928L261.175 55.1401L261.047 55.1864L260.916 55.2319L260.782 55.2766L260.646 55.3204L260.507 55.3634L260.365 55.4056L260.221 55.447L260.073 55.4876L259.923 55.5275L259.77 55.5667L259.615 55.6051L259.456 55.6428L259.294 55.6799L259.129 55.7162L258.961 55.7519L258.79 55.7869L258.616 55.8213L258.438 55.855L258.257 55.8881L258.073 55.9206L257.885 55.9524L257.694 55.9837L257.499 56.0144L257.301 56.0445L257.098 56.074L256.892 56.103L256.682 56.1314L256.468 56.1592L256.249 56.1865L256.027 56.2133L255.8 56.2395L255.569 56.2652L255.333 56.2904L255.093 56.3151L254.848 56.3393L254.598 56.363L254.343 56.3861L254.082 56.4088L253.817 56.431L253.546 56.4528L253.269 56.474L252.987 56.4948L252.698 56.5151L252.403 56.5349L252.102 56.5543L251.795 56.5733L251.48 56.5918L251.158 56.6098L250.829 56.6274L250.492 56.6446L250.147 56.6613L249.794 56.6776L249.432 56.6934L249.061 56.7089L248.68 56.7239L248.29 56.7385L247.889 56.7526L247.478 56.7664L247.055 56.7797L246.62 56.7927L246.173 56.8052L245.712 56.8173L245.237 56.829L244.747 56.8403L244.241 56.8512L243.718 56.8617L243.177 56.8719L242.616 56.8816L242.035 56.8909L241.432 56.8998L240.804 56.9084L240.15 56.9165L239.468 56.9243L238.754 56.9317L238.007 56.9387L237.221 56.9453L236.394 56.9516L235.519 56.9574L234.592 56.9629L233.605 56.968L232.55 56.9727L231.414 56.977L230.186 56.981L228.845 56.9846L227.369 56.9878L225.724 56.9906L223.863 56.9931L221.714 56.9952L219.16 56.9969L215.991 56.9982L211.759 56.9992L205.168 56.9998L183.978 57L62.3517 56.9998L55.0729 56.9993L50.5943 56.9984L47.2957 56.9971L44.6614 56.9955L42.4573 56.9934L40.5561 56.991L38.8805 56.9883L37.3801 56.9851L36.0199 56.9816L34.7746 56.9777L33.6254 56.9734L32.5578 56.9688L31.5605 56.9637L30.6244 56.9583L29.7422 56.9525L28.9077 56.9463L28.1158 56.9398L27.3624 56.9328L26.6436 56.9255L25.9565 56.9178L25.2983 56.9097L24.6666 56.9012L24.0594 56.8924L23.4748 56.8831L22.9112 56.8734L22.3673 56.8634L21.8415 56.8529L21.3329 56.8421L20.8404 56.8308L20.363 56.8192L19.8999 56.8071L19.4502 56.7947L19.0133 56.7818L18.5885 56.7685L18.1753 56.7549L17.7729 56.7407L17.381 56.7262L16.999 56.7113L16.6266 56.6959L16.2633 56.6801L15.9087 56.6639L15.5625 56.6473L15.2243 56.6302L14.8939 56.6126L14.5709 56.5947L14.2551 56.5763L13.9462 56.5574L13.644 56.5381L13.3483 56.5183L13.0588 56.4981L12.7753 56.4773L12.4977 56.4562L12.2258 56.4345L11.9594 56.4124L11.6984 56.3898L11.4425 56.3667L11.1917 56.3431L10.9458 56.319L10.7047 56.2944L10.4683 56.2693L10.2364 56.2437L10.0089 56.2175L9.78576 56.1908L9.56684 56.1636L9.35203 56.1358L9.14126 56.1075L8.93442 56.0787L8.73144 56.0492L8.53223 56.0192L8.33672 55.9886L8.14482 55.9575L7.95647 55.9257L7.77159 55.8933L7.59013 55.8603L7.41202 55.8267L7.23719 55.7924L7.06559 55.7575L6.89716 55.7219L6.73185 55.6857L6.5696 55.6488L6.41037 55.6112L6.2541 55.5728L6.10075 55.5338L5.95027 55.494L5.80263 55.4535L5.65777 55.4122L5.51566 55.3701L5.37627 55.3273L5.23954 55.2836L5.10545 55.2391L4.97397 55.1937L4.84505 55.1475L4.71866 55.1004L4.59478 55.0524L4.47338 55.0034L4.35442 54.9535L4.23787 54.9026L4.12371 54.8507L4.01192 54.7977L3.90246 54.7437L3.79531 54.6886L3.69045 54.6324L3.58786 54.575L3.4875 54.5164L3.38937 54.4565L3.29344 54.3954L3.19969 54.333L3.10811 54.2693L3.01866 54.2041L2.93134 54.1375L2.84612 54.0693L2.76299 53.9996L2.68193 53.9283L2.60294 53.8552L2.52598 53.7805L2.45105 53.7038L2.37813 53.6253L2.30722 53.5448L2.23829 53.4622L2.17133 53.3773L2.10633 53.2902L2.04328 53.2007L1.98217 53.1087L1.92298 53.014L1.86571 52.9164L1.81035 52.8159L1.75688 52.7122L1.7053 52.6051L1.6556 52.4945L1.60776 52.3801L1.56179 52.2616L1.51767 52.1386L1.47539 52.011L1.43495 51.8783L1.39635 51.7401L1.35956 51.5958L1.3246 51.445L1.29145 51.287L1.26011 51.1211L1.23057 50.9463L1.20283 50.7617L1.17688 50.566L1.15272 50.3577L1.13034 50.135L1.10975 49.8956L1.09093 49.6367L1.07389 49.3544L1.05861 49.0438L1.04511 48.6981L1.03338 48.3075L1.02341 47.8572L1.0152 47.3236L1.00876 46.6642L1.00408 45.7904L1.00116 44.4542L1 40.8606L1.0006 14.1937L1.00296 12.5631L1.00708 11.5843L1.01296 10.8699L1.0206 10.3022L1.03001 9.82858L1.04118 9.42087L1.05412 9.06208L1.06883 8.74116L1.08531 8.45048L1.10356 8.18454L1.12359 7.93927L1.1454 7.71153L1.16899 7.49888L1.19437 7.29934L1.22154 7.11134L1.25051 6.93355L1.28127 6.7649L1.31385 6.60446L1.34823 6.45144L1.38443 6.30517L1.42246 6.16508L1.46231 6.03066L1.504 5.90146L1.54753 5.77708L1.59291 5.6572L1.64016 5.54148L1.68926 5.42967L1.74025 5.32151L1.79311 5.21677L1.84787 5.11525L1.90453 5.01678L1.96311 4.92117L2.0236 4.82829L2.08603 4.73798L2.15041 4.65013L2.21674 4.5646L2.28505 4.48129L2.35533 4.40011L2.42761 4.32095L2.50189 4.24373L2.5782 4.16837L2.65655 4.09479L2.73695 4.02292L2.81941 3.9527L2.90396 3.88407L2.99061 3.81696L3.07938 3.75132L3.17029 3.68711L3.26335 3.62427L3.35858 3.56276L3.45601 3.50253L3.55565 3.44355L3.65753 3.38578L3.76166 3.32918L3.86808 3.27371L3.9768 3.21936L4.08785 3.16607L4.20125 3.11383L4.31703 3.06261L4.43522 3.01238L4.55585 2.96311L4.67893 2.91478L4.80452 2.86738L4.93263 2.82087L5.06329 2.77523L5.19655 2.73046L5.33243 2.68652L5.47097 2.6434L5.61221 2.60108L5.75619 2.55954L5.90294 2.51878L6.05251 2.47876L6.20494 2.43949L6.36027 2.40094L6.51855 2.3631L6.67984 2.32596L6.84417 2.28951L7.0116 2.25373L7.18218 2.21861L7.35598 2.18414L7.53304 2.15031L7.71343 2.11712L7.89721 2.08454L8.08444 2.05257L8.2752 2.02121L8.46956 1.99043L8.66758 1.96024L8.86935 1.93063L9.07495 1.90158L9.28446 1.87309L9.49797 1.84516L9.71558 1.81777L9.93737 1.79092L10.1634 1.7646L10.3939 1.7388L10.6289 1.71353L10.8685 1.68876L11.1129 1.66451L11.3621 1.64076L11.6163 1.6175L11.8757 1.59473L12.1404 1.57245L12.4105 1.55065L12.6863 1.52932L12.9678 1.50847L13.2554 1.48809L13.5491 1.46816L13.8492 1.4487L14.156 1.42969L14.4695 1.41113L14.7902 1.39302L15.1182 1.37535L15.4539 1.35812L15.7975 1.34133L16.1494 1.32497L16.5099 1.30904L16.8794 1.29354L17.2583 1.27847L17.647 1.26381L18.0459 1.24957L18.4557 1.23575L18.8767 1.22235L19.3097 1.20935L19.7552 1.19676L20.214 1.18458L20.6868 1.17281L21.1744 1.16143L21.6777 1.15046L22.1979 1.13988L22.7359 1.12971L23.2931 1.11992L23.8708 1.11053L24.4706 1.10153L25.0943 1.09293L25.7438 1.08471L26.4215 1.07687L27.1298 1.06943L27.8718 1.06236L28.651 1.05568L29.4714 1.04939L30.3379 1.04347L31.2561 1.03794L32.233 1.03278L33.2771 1.02801L34.3989 1.02361L35.6117 1.01959L36.933 1.01594L38.3855 1.01267L40.0007 1.00978L41.8232 1.00726L43.9201 1.00511L46.3988 1.00334L49.4493 1.00195L53.4622 1.00093L59.4961 1.00028L73.9796 1L201.881 1.0001L210.033 1.00057L214.792 1.00141L218.232 1.00263L220.952 1.00422L223.214 1.00619L225.158 1.00853L226.865 1.01124L228.391 1.01433L229.772 1.0178L231.034 1.02164L232.197 1.02586L233.277 1.03045L234.285 1.03543L235.23 1.04078L236.121 1.04651L236.962 1.05263L237.761 1.05912L238.52 1.066L239.244 1.07327L239.936 1.08091L240.599 1.08895L241.234 1.09737L241.845 1.10618L242.433 1.11539L243 1.12498L243.547 1.13497L244.076 1.14536L244.587 1.15614L245.082 1.16732L245.562 1.17891L246.027 1.19089L246.479 1.20329L246.918 1.21609L247.345 1.2293L247.76 1.24292L248.164 1.25696L248.557 1.27141L248.941 1.28629L249.315 1.30158L249.679 1.31731L250.035 1.33346L250.383 1.35004L250.722 1.36706L251.054 1.38452L251.378 1.40242L251.695 1.42077L252.005 1.43956L252.308 1.45881L252.605 1.47851L252.895 1.49867L253.18 1.5193L253.458 1.5404L253.731 1.56197L253.998 1.58402L254.26 1.60656L254.517 1.62958L254.769 1.6531L255.015 1.67711L255.257 1.70163L255.494 1.72666L255.727 1.75221L255.955 1.77828L256.179 1.80487L256.399 1.832L256.614 1.85968L256.825 1.8879L257.033 1.91668L257.236 1.94602L257.436 1.97593L257.632 2.00643L257.825 2.03751L258.014 2.06919L258.199 2.10147L258.381 2.13437L258.56 2.1679L258.735 2.20206L258.907 2.23687L259.076 2.27233L259.242 2.30846L259.405 2.34527L259.564 2.38277L259.721 2.42098L259.875 2.45991L260.026 2.49956L260.174 2.53997L260.319 2.58113L260.462 2.62308L260.602 2.66581L260.739 2.70936L260.873 2.75373L261.005 2.79896L261.135 2.84504L261.261 2.89202L261.386 2.9399L261.507 2.98872L261.627 3.03848L261.744 3.08923L261.858 3.14098L261.97 3.19376L262.08 3.24761L262.188 3.30254L262.293 3.35859L262.396 3.4158L262.497 3.4742L262.595 3.53382L262.691 3.59472L262.785 3.65692L262.877 3.72047L262.967 3.78542L263.055 3.85182L263.14 3.91971L263.224 3.98917L263.305 4.06024L263.385 4.13299L263.462 4.20749L263.537 4.28382L263.61 4.36204L263.682 4.44224L263.751 4.52452L263.818 4.60898L263.883 4.69571L263.947 4.78483L264.008 4.87646L264.068 4.97075L264.125 5.06783L264.181 5.16787L264.235 5.27105L264.287 5.37755L264.337 5.48759L264.385 5.60141L264.431 5.71926L264.475 5.84145L264.518 5.9683L264.559 6.10018L264.598 6.2375L264.635 6.38075L264.67 6.53046L264.703 6.68727L264.735 6.85189L264.765 7.02519L264.793 7.20816L264.819 7.40201L264.844 7.60818L264.866 7.82844L264.887 8.06499L264.906 8.3206L264.923 8.59888L264.939 8.90455L264.953 9.24412L264.965 9.62678L264.975 10.0663L264.984 10.5844L264.99 11.2196L264.995 12.0495L264.998 13.2782L265 15.991L265 29Z" stroke="white"/>
</svg>
