<svg width="160" height="154" viewBox="0 0 160 154" fill="none" xmlns="http://www.w3.org/2000/svg">
<path fill-rule="evenodd" clip-rule="evenodd" d="M133.003 98.6965C133.014 104.078 130.141 109.054 125.475 111.735L87.3816 133.62C82.7448 136.284 77.0404 136.278 72.4092 133.604L34.1119 111.493C29.4807 108.819 26.6233 103.882 26.6119 98.5347L26.5185 54.6021C26.5071 49.2204 29.3796 44.2449 34.0461 41.564L72.1395 19.6786C76.7763 17.0146 82.4807 17.0207 87.1119 19.6945L125.409 41.8055C130.04 44.4793 132.898 49.4164 132.909 54.764L133.003 98.6965Z" fill="#FE9393"/>
<path d="M111.957 67.8802C111.956 66.9092 111.67 65.9245 111.039 65.1128L105.971 58.6287C105.122 57.5509 103.831 57.0021 102.54 57C101.772 57 100.99 57.1969 100.299 57.6278L95.3577 60.702C94.838 61.0334 93.9471 61.2609 93.0866 61.255C92.418 61.2579 91.7719 61.1241 91.3454 60.9134L86.5066 58.5696C85.7261 58.1938 84.8561 58.0398 83.9812 58.0383C82.7246 58.0442 81.4521 58.353 80.4295 59.0616L79.8649 59.4577C79.4136 59.2325 78.7239 58.8894 77.9427 58.5006C77.0058 58.0413 75.9042 57.8561 74.7914 57.8524C73.7862 57.8553 72.7813 58.0102 71.8989 58.3829L68.6031 59.7893C68.0667 60.0219 67.2135 60.1738 66.3661 60.17C65.5186 60.1736 64.667 60.0217 64.1306 59.7893L60.8318 58.3822C60.2301 58.1256 59.5869 58.0159 58.9494 58.0152C58.2154 58.0159 57.4858 58.1606 56.8076 58.4353C56.1303 58.7115 55.5016 59.1192 55.0009 59.6787L48.995 66.405C48.3293 67.1483 47.9986 68.0845 48 69.006C47.9986 70.1049 48.4688 71.2072 49.3757 71.9798L54.9782 76.7596L52.3205 79.5322C51.5879 80.2968 51.2231 81.2881 51.2231 82.2683C51.2217 83.3113 51.6359 84.3643 52.4564 85.1397L52.9955 85.6519C53.5036 86.1339 54.114 86.4404 54.7529 86.6039C54.4324 87.1933 54.2573 87.8395 54.2587 88.4869C54.2573 89.5306 54.6715 90.5829 55.4905 91.3591L55.4891 91.3584L56.0299 91.8729C56.7996 92.6025 57.7974 92.9659 58.7805 92.9653C59.3089 92.966 59.838 92.8599 60.3351 92.652C60.5096 93.3599 60.87 94.0328 61.4369 94.5706L61.9776 95.0851C62.7474 95.8148 63.7436 96.1781 64.7283 96.1775C65.498 96.1783 66.2713 95.9514 66.9369 95.5111C67.1317 96.1375 67.4653 96.7313 67.9733 97.2138L68.514 97.7284C69.2821 98.458 70.28 98.8214 71.2633 98.8207C72.3105 98.8215 73.368 98.4101 74.1491 97.5947L76.498 95.1418L79.6893 98.0954C80.4531 98.8039 81.4336 99.1564 82.4015 99.1543C83.4648 99.1565 84.5374 98.7306 85.3201 97.8926L85.8295 97.3469C86.2692 96.8745 86.5563 96.3156 86.7228 95.7321L87.959 96.8731C88.7242 97.5787 89.7033 97.9297 90.6698 97.929C91.7345 97.9297 92.8101 97.5038 93.5936 96.6652L94.1001 96.1201C94.6851 95.4951 95.0144 94.721 95.1161 93.9304C95.4424 94.014 95.773 94.0707 96.1065 94.0707C97.1712 94.0707 98.2439 93.6455 99.0281 92.8076L99.5361 92.2625C100.246 91.5015 100.599 90.5256 100.598 89.5633C100.598 89.2646 100.555 88.9675 100.489 88.6738C101.372 88.5567 102.228 88.1629 102.879 87.4637L103.389 86.918C104.099 86.157 104.45 85.181 104.45 84.218C104.452 83.1585 104.024 82.0893 103.181 81.3103L102.229 80.4303L110.828 70.9229C111.6 70.067 111.956 68.9652 111.957 67.8802ZM55.7466 84.5809C55.291 84.5795 54.8454 84.4166 54.4973 84.0867L53.9573 83.5745C53.5836 83.2212 53.3991 82.7511 53.3976 82.2685C53.3991 81.8158 53.5612 81.3738 53.8948 81.0257L59.3382 75.3453C59.6928 74.9753 60.166 74.7901 60.6514 74.7895C61.1056 74.7902 61.5497 74.9537 61.9007 75.2844L62.4385 75.7974C62.4385 75.7974 62.9952 76.6207 62.9966 77.104C62.9952 77.4659 62.8862 77.8184 62.6747 78.1237C62.6566 78.1418 56.7996 84.2459 56.7996 84.2459C56.4886 84.466 56.1208 84.5793 55.7466 84.5809ZM60.0939 90.2467C59.74 90.6152 59.2676 90.7997 58.7822 90.8012C58.3266 90.8005 57.8824 90.637 57.5329 90.3071L56.9921 89.7932L56.9907 89.7924C56.6201 89.4407 56.434 88.9691 56.434 88.4864C56.434 88.0337 56.5975 87.5918 56.9295 87.2436C56.9295 87.2436 64.1854 79.6906 64.2465 79.6177C64.5933 79.2842 65.0401 79.1119 65.5015 79.1112C65.9571 79.1119 66.4013 79.2747 66.7508 79.6054L67.2916 80.1199C67.6636 80.4717 67.8483 80.9426 67.8497 81.4259C67.8482 81.8786 67.6848 82.3212 67.3525 82.6693L60.0939 90.2467ZM66.0408 93.4581C65.6877 93.8275 65.2153 94.0122 64.7298 94.0136C64.2742 94.0128 63.83 93.8493 63.4805 93.5187L62.9382 93.0048C62.5662 92.6523 62.3801 92.1814 62.3801 91.6988C62.3801 91.2948 62.5175 90.9029 62.7805 90.5766L67.8336 85.3026C68.1745 84.9951 68.6017 84.8331 69.0444 84.8331C69.5 84.8339 69.9442 84.9966 70.2937 85.3273L70.836 85.8418C71.2066 86.1936 71.3927 86.6645 71.3941 87.1471C71.3926 87.6006 71.2277 88.0432 70.8969 88.3905L66.0408 93.4581ZM75.6421 92.9015L72.5759 96.1016C72.2227 96.4707 71.7496 96.6554 71.2642 96.6568C70.8086 96.6561 70.3644 96.4926 70.0149 96.1619L69.4741 95.648C69.1035 95.2962 68.9174 94.8247 68.916 94.342C68.9174 93.8884 69.0809 93.4458 69.4132 93.0992L72.478 89.8992C72.8326 89.5301 73.3058 89.3447 73.7912 89.344C74.2454 89.3447 74.691 89.5075 75.0405 89.8389L75.5828 90.3528C75.9534 90.7046 76.138 91.1755 76.1395 91.658C76.1378 92.1115 75.9743 92.5541 75.6421 92.9015ZM102.279 84.2209C102.278 84.6654 102.119 85.1007 101.796 85.4466L101.288 85.9917C100.934 86.3711 100.453 86.563 99.96 86.5637C99.513 86.563 99.0754 86.4059 98.7282 86.0849L90.167 78.1676L88.6866 79.7526L97.8502 88.2418C98.2319 88.5951 98.4236 89.0748 98.4265 89.5646C98.4236 90.0108 98.2658 90.4454 97.9439 90.7914L97.4374 91.3365C97.0828 91.7159 96.6016 91.907 96.1089 91.9085C95.662 91.9071 95.223 91.7494 94.8785 91.4303L86.3151 83.5131L84.8362 85.0982L92.4359 92.126C92.8021 92.477 92.9897 92.9443 92.9897 93.4239C92.9897 93.8687 92.832 94.3039 92.5101 94.6492L92.002 95.1943C91.6488 95.5737 91.1662 95.7655 90.6722 95.7669C90.2237 95.7655 89.7863 95.6078 89.4404 95.2887L81.856 88.2864H81.8546L81.8532 88.285L80.3772 89.873L80.3787 89.8744L80.4071 89.9012L84.2058 93.4071C84.5423 93.753 84.7167 94.1963 84.718 94.6549C84.7167 95.0975 84.5603 95.5306 84.2384 95.876L83.7303 96.4217C83.3757 96.8011 82.896 96.9915 82.4047 96.993C81.9578 96.9916 81.5202 96.8346 81.1743 96.5142L77.8669 93.4516C78.1547 92.887 78.3153 92.2743 78.3153 91.6594C78.3167 90.6165 77.9025 89.5649 77.0835 88.7881L76.5413 88.2736C75.7732 87.5445 74.7767 87.1805 73.7935 87.1819C73.7172 87.1819 73.6402 87.1994 73.5654 87.2038C73.5654 87.1857 73.5696 87.1667 73.5696 87.1486C73.571 86.1056 72.3378 84.2757 72.3378 84.2757L71.7971 83.7627C71.2222 83.2176 70.5208 82.8775 69.7913 82.7409C69.9417 82.315 70.0268 81.8717 70.0268 81.4276C70.0268 80.3847 69.6139 79.3323 68.795 78.5563L68.2542 78.0418C67.4845 77.3121 66.4882 76.948 65.5049 76.9488C65.3901 76.9488 65.2768 76.972 65.1626 76.9822C65.1314 75.9808 64.7281 74.9801 63.9432 74.2345V74.2337L63.4039 73.7214C62.6342 72.991 61.638 72.6269 60.6547 72.6277C59.6059 72.6269 58.5499 73.0383 57.7688 73.8537L56.4839 75.1946L50.792 70.3398C50.3829 69.9896 50.1787 69.5055 50.1772 69.0085C50.1785 68.592 50.3203 68.1843 50.6226 67.8457L56.6285 61.1196C56.8668 60.8522 57.2193 60.6102 57.6322 60.4422C58.045 60.2743 58.5137 60.1821 58.9519 60.1827C59.3335 60.1827 59.6917 60.2518 59.9781 60.3754L63.2754 61.7823C64.2049 62.174 65.2841 62.3347 66.3686 62.3382C67.4543 62.3346 68.5321 62.1739 69.4618 61.7823L72.7575 60.376C73.2656 60.1544 74.0322 60.017 74.7946 60.0199C75.6376 60.0147 76.4821 60.1892 76.9719 60.4392C77.2829 60.594 77.5779 60.7409 77.8519 60.8782L74.4906 63.2409C73.4106 64.0004 72.8285 65.2083 72.83 66.4271C72.8286 67.2338 73.0843 68.055 73.6047 68.7519L73.6034 68.7504L74.0473 69.347C74.8904 70.4677 76.205 71.044 77.519 71.0468C78.261 71.0468 79.0169 70.8593 79.6905 70.4552L81.7007 69.248C82.1107 68.9973 82.7297 68.8389 83.3699 68.8418C84.1222 68.8374 84.8802 69.0599 85.3359 69.3948L90.897 73.3818C92.1347 74.2684 94.1506 75.9131 95.2677 76.948L101.705 82.8994C102.086 83.2528 102.278 83.7304 102.279 84.2209ZM109.214 69.4761L100.639 78.958L96.7455 75.3592C95.5261 74.2335 93.5151 72.5918 92.1663 71.623L86.6066 67.636C85.664 66.9682 84.5099 66.6795 83.3689 66.6753C82.398 66.6781 81.4198 66.8898 80.5753 67.3925L78.5667 68.5997C78.2585 68.785 77.8952 68.8795 77.5179 68.8803C76.8433 68.8825 76.1683 68.5678 75.7919 68.0553L75.3493 67.4595L75.3478 67.458C75.1123 67.1405 75.0027 66.7843 75.001 66.4238C75.0039 65.8787 75.2554 65.3497 75.7424 65.0059L81.6858 60.8299C82.1997 60.4579 83.114 60.197 83.9824 60.2035C84.5856 60.2006 85.1619 60.3219 85.5565 60.5168L90.3951 62.8606C91.2201 63.2567 92.1511 63.4187 93.0877 63.421C94.2911 63.4151 95.5077 63.1535 96.51 62.5379L101.453 59.4631C101.768 59.2662 102.147 59.1644 102.541 59.1644C103.209 59.1631 103.877 59.4653 104.256 59.9588L109.323 66.4429C109.616 66.8143 109.785 67.3382 109.785 67.8812C109.786 68.4884 109.571 69.0859 109.214 69.4761Z" fill="white"/>
</svg>
