<svg width="161" height="154" viewBox="0 0 161 154" fill="none" xmlns="http://www.w3.org/2000/svg">
<path fill-rule="evenodd" clip-rule="evenodd" d="M133.703 98.6965C133.714 104.078 130.841 109.054 126.175 111.735L88.0816 133.62C83.4447 136.284 77.7403 136.278 73.1092 133.604L34.8118 111.493C30.1807 108.819 27.3232 103.882 27.3119 98.5347L27.2185 54.6021C27.207 49.2204 30.0796 44.2449 34.7461 41.564L72.8395 19.6786C77.4763 17.0146 83.1807 17.0207 87.8118 19.6945L126.109 41.8055C130.74 44.4793 133.598 49.4164 133.609 54.764L133.703 98.6965Z" fill="#FE9393"/>
<path d="M112.888 79.9877C112.445 76.918 110.034 74.5065 106.964 74.0634V72.2466C106.964 67.234 103.153 63.1527 98.4696 63.1527C93.9206 63.1527 90.1121 67.1101 89.9752 71.9748H90.0332L89.9752 71.9848V91.6786C89.9752 97.9744 85.2684 103.087 79.4823 103.087C73.6961 103.087 68.9893 97.9674 68.9893 91.6786V89.9728C70.4383 89.9728 71.9873 88.9225 71.9873 85.9754V83.4621C78.401 81.8222 82.9799 76.3149 82.9799 70.0711V67.9875H80.9813L80.9393 54.9812C80.9248 52.5737 79.1972 50.5181 76.828 50.0895C76.317 48.5239 74.6335 47.669 73.0678 48.1801C71.5022 48.6912 70.6473 50.3747 71.1585 51.9404C71.6695 53.5059 73.353 54.3609 74.9187 53.8497C75.757 53.576 76.4312 52.9453 76.7601 52.1271C78.0404 52.4914 78.9273 53.6561 78.9376 54.9872L78.9826 67.9875H76.9839V70.1001C76.9042 73.5761 74.5738 76.5968 71.2318 77.5561C69.4436 78.1234 67.5236 78.1234 65.7355 77.5561C62.3973 76.5936 60.0721 73.5734 59.9953 70.1001V67.9875H56.9973V54.9962C57.0031 53.6455 57.9115 52.4653 59.2158 52.1141C59.8241 53.6625 61.5723 54.4244 63.1206 53.8162C64.6689 53.208 65.4309 51.4597 64.8227 49.9115C64.2145 48.3633 62.4662 47.6011 60.9179 48.2094C60.079 48.539 59.4317 49.2269 59.1539 50.0845C56.7589 50.4937 55.0053 52.5664 54.9987 54.9962V67.9875H53V70.0661C53 76.3169 57.5819 81.8262 63.9926 83.4621V85.9754C63.9926 88.9225 65.5416 89.9728 66.9906 89.9728V91.6786C66.9906 99.0737 72.5939 105.086 79.4823 105.086C86.3707 105.086 91.9739 99.0667 91.9739 91.6786V72.0328C92.0738 68.2403 94.9899 65.1544 98.4696 65.1544C102.051 65.1544 104.965 68.3363 104.965 72.2496V74.0634C101.141 74.6153 98.489 78.1625 99.0409 81.9864C99.5928 85.8102 103.14 88.4625 106.964 87.9106C110.788 87.3588 113.44 83.8114 112.888 79.9877ZM73.9859 51.9982C73.4341 51.9982 72.9866 51.5507 72.9866 50.9989C72.9866 50.447 73.4341 49.9995 73.9859 49.9995C74.5378 49.9995 74.9853 50.447 74.9853 50.9989C74.9853 51.5507 74.5378 51.9982 73.9859 51.9982ZM61.994 49.9995C62.5459 49.9995 62.9933 50.447 62.9933 50.9989C62.9933 51.5507 62.5459 51.9982 61.994 51.9982C61.4421 51.9982 60.9946 51.5507 60.9946 50.9989C60.9946 50.447 61.4421 49.9995 61.994 49.9995ZM54.9987 70.0661V69.9861H57.9967V70.1001C58.0716 74.4435 60.9613 78.2341 65.1299 79.4568C67.3143 80.1485 69.659 80.1485 71.8434 79.4568C76.014 78.2357 78.9063 74.445 78.9826 70.1001V69.9861H80.9813V70.0661C80.9813 75.6254 76.6961 80.5171 70.7881 81.7003C69.4008 81.9781 67.9797 82.0478 66.5719 81.9072C66.1085 81.8622 65.6478 81.7925 65.1918 81.6983C59.2838 80.5171 54.9987 75.6254 54.9987 70.0661ZM66.9906 87.9741C66.0912 87.9741 65.9913 86.575 65.9913 85.9754V83.8549C66.0712 83.8649 66.1532 83.8689 66.2341 83.8768C66.3341 83.8878 66.434 83.8958 66.5339 83.9048C67.0066 83.9468 67.4833 83.9748 67.964 83.9758H68.0139C68.4936 83.9758 68.9693 83.9468 69.439 83.9048C69.5389 83.8958 69.6449 83.8878 69.7478 83.8768C69.8267 83.8679 69.9087 83.8649 69.9876 83.8549V85.9754C69.9876 86.575 69.8877 87.9741 68.9883 87.9741H66.9906ZM105.965 85.9754C103.205 85.9754 100.968 83.7383 100.968 80.9788C100.968 78.2193 103.205 75.9821 105.965 75.9821C108.724 75.9821 110.961 78.2193 110.961 80.9788C110.958 83.7371 108.723 85.9722 105.965 85.9754Z" fill="white"/>
<path d="M105.965 77.981C104.309 77.981 102.967 79.3232 102.967 80.979C102.967 82.6347 104.309 83.9769 105.965 83.9769C107.62 83.9769 108.963 82.6347 108.963 80.979C108.963 79.3232 107.62 77.981 105.965 77.981ZM105.965 81.9783C105.413 81.9783 104.965 81.5308 104.965 80.979C104.965 80.4271 105.413 79.9796 105.965 79.9796C106.516 79.9796 106.964 80.4271 106.964 80.979C106.964 81.5308 106.516 81.9783 105.965 81.9783Z" fill="white"/>
</svg>
