<svg width="160" height="154" viewBox="0 0 160 154" fill="none" xmlns="http://www.w3.org/2000/svg">
<path fill-rule="evenodd" clip-rule="evenodd" d="M133.303 98.6965C133.314 104.078 130.442 109.054 125.775 111.735L87.6817 133.62C83.0448 136.284 77.3404 136.278 72.7093 133.604L34.4119 111.493C29.7808 108.819 26.9233 103.882 26.912 98.5347L26.8186 54.6021C26.8071 49.2204 29.6797 44.2449 34.3462 41.564L72.4396 19.6786C77.0764 17.0146 82.7808 17.0207 87.4119 19.6945L125.709 41.8055C130.34 44.4793 133.198 49.4164 133.209 54.764L133.303 98.6965Z" fill="#FE9393"/>
<path d="M103.857 53.4762H98.4634V48.0823C98.4636 46.3869 97.0764 45 95.3819 45H56.0822C54.3869 45 53 46.3869 53 48.0823V97.3987C53 99.0939 54.3869 100.481 56.0823 100.481H61.4763V105.875C61.4763 107.57 62.8626 108.957 64.5586 108.957H90.7572C92.4517 108.957 94.8497 108.006 96.0834 106.845L104.694 98.7404C105.929 97.5792 106.938 95.2412 106.938 93.546L106.94 56.5588C106.94 54.8633 105.553 53.4762 103.857 53.4762ZM61.4761 56.5586V98.1693H56.0822C55.6646 98.1693 55.3117 97.8164 55.3117 97.3988V48.0823C55.3117 47.6647 55.6646 47.3118 56.0822 47.3118H95.382C95.7988 47.3118 96.1525 47.6647 96.1525 48.0823V53.4763H64.5584C62.8624 53.4763 61.4761 54.8633 61.4761 56.5586ZM103.109 97.0573L94.499 105.161C94.3226 105.327 94.0929 105.49 93.8393 105.645V98.5545C93.8393 98.0251 94.0528 97.5488 94.4049 97.1944C94.7602 96.8423 95.2363 96.6282 95.7657 96.6282H103.475C103.356 96.7906 103.233 96.9401 103.109 97.0573ZM104.626 93.5457C104.626 93.7746 104.585 94.0397 104.522 94.3162H95.7656C93.4271 94.3208 91.5322 96.2157 91.5275 98.5544V106.552C91.2524 106.608 90.9873 106.645 90.757 106.645H64.5584V106.645C64.1399 106.645 63.7879 106.292 63.7879 105.875V56.5585C63.7879 56.1409 64.14 55.788 64.5584 55.788H103.857C104.275 55.788 104.628 56.1409 104.628 56.5585L104.626 93.5457Z" fill="white"/>
<path d="M95.3819 64.2642H73.0355C72.3967 64.2642 71.8796 64.7812 71.8796 65.42C71.8796 66.0588 72.3968 66.5759 73.0355 66.5759H95.3819C96.02 66.5759 96.5378 66.0588 96.5378 65.42C96.5378 64.7812 96.02 64.2642 95.3819 64.2642Z" fill="white"/>
<path d="M95.3819 79.6755H73.0355C72.3967 79.6755 71.8796 80.1926 71.8796 80.8314C71.8796 81.4702 72.3968 81.9872 73.0355 81.9872H95.3819C96.02 81.9872 96.5378 81.4702 96.5378 80.8314C96.5378 80.1924 96.02 79.6755 95.3819 79.6755Z" fill="white"/>
<path d="M85.3647 87.3813H73.0357C72.3969 87.3813 71.8799 87.8984 71.8799 88.5372C71.8799 89.176 72.3969 89.693 73.0357 89.693H85.3647C86.0028 89.693 86.5198 89.176 86.5198 88.5372C86.5198 87.8984 86.0028 87.3813 85.3647 87.3813Z" fill="white"/>
<path d="M95.3819 71.9697H73.0355C72.3967 71.9697 71.8796 72.4868 71.8796 73.1256C71.8796 73.7644 72.3968 74.2814 73.0355 74.2814H95.3819C96.02 74.2814 96.5378 73.7644 96.5378 73.1256C96.5378 72.4868 96.02 71.9697 95.3819 71.9697Z" fill="white"/>
</svg>
