<svg width="682" height="427" viewBox="0 0 682 427" fill="none" xmlns="http://www.w3.org/2000/svg">
<path d="M83.7838 418.054C43.9585 374.329 -22.7033 296.793 8.16538 237.237C20.46 213.474 69.4401 199.99 79.0907 175.07C94.7233 134.815 30.0775 109.367 69.374 53.6116C139.969 -46.5299 271.97 56.7183 367.849 54.5039C428.099 53.1158 500.511 -27.0635 560.332 81.3736C572.23 102.922 568.793 146.019 587.466 162.049C627.39 196.388 681.328 222.134 662.754 289.324C644.014 357.077 608.684 390.292 558.283 418.583C558.283 418.616 83.7838 418.054 83.7838 418.054Z" fill="#E3EAFF"/>
<path d="M172.557 418.583C172.557 418.583 169.351 418.682 166.773 420.268C162.642 415.146 130.286 386.293 97.9628 386.326C108.01 383.252 118.751 382.79 129.096 384.773C153.85 389.499 165.484 406.619 172.557 418.583Z" fill="#7C9AF2"/>
<path d="M131.144 399.91C131.475 399.744 131.607 399.348 131.475 399.017L126.551 387.582C126.385 387.218 125.989 387.086 125.658 387.218C125.328 387.384 125.162 387.78 125.295 388.111L130.219 399.546C130.384 399.91 130.781 400.042 131.111 399.91H131.144Z" fill="#92B5F8"/>
<path d="M142.811 404.074C143.142 403.909 143.274 403.512 143.142 403.182L138.217 391.746C138.052 391.383 137.655 391.251 137.325 391.383C136.994 391.548 136.829 391.945 136.961 392.275L141.886 403.71C142.051 404.074 142.447 404.206 142.778 404.074C142.778 404.107 142.778 404.107 142.811 404.074Z" fill="#92B5F8"/>
<path d="M167.037 410.849C167.202 411.047 167.334 411.279 167.499 411.477C167.367 411.279 167.202 411.047 167.037 410.849Z" fill="#92B5F8"/>
<path d="M97.9292 386.326C102.721 393.927 107.778 398.257 107.778 398.257L116.9 395.811L112.075 401.099C112.075 401.099 138.415 426.118 159.898 424.565C162.013 423.474 164.459 421.656 166.772 420.268C162.608 415.146 130.252 386.293 97.9292 386.326Z" fill="#92B5F8"/>
<path d="M188.95 418.616C188.95 418.616 185.876 418.616 182.075 418.484C181.183 410.221 166.575 357.539 132.269 335.495C145.026 339.098 157.056 345.608 166.377 355.127C168.227 357.011 169.979 358.994 171.565 361.043V368.942L175.631 366.76C185.182 381.765 189.644 401.099 188.95 418.616Z" fill="#7C9AF2"/>
<path d="M158.179 372.577C158.642 372.61 159.039 372.313 159.105 371.85L161.683 356.35C161.749 355.887 161.451 355.424 160.955 355.358C160.493 355.292 160.03 355.59 159.964 356.052L157.386 371.553C157.32 372.015 157.617 372.478 158.113 372.544C158.146 372.577 158.179 372.577 158.179 372.577Z" fill="#92B5F8"/>
<path d="M188.784 408.701C188.817 409.031 188.817 409.362 188.85 409.692C188.85 409.362 188.817 409.031 188.784 408.701Z" fill="#92B5F8"/>
<path d="M132.235 335.495C132.136 346.831 134.516 354.862 134.516 354.862L145.852 358.498L137.126 360.811C137.126 360.811 147.967 405.33 171.796 418.384C174.77 418.682 178.637 418.417 182.041 418.517C181.149 410.221 166.541 357.539 132.235 335.495Z" fill="#92B5F8"/>
<path d="M611.625 183.928C610.733 183.928 609.973 183.234 609.94 182.308C609.907 181.383 610.634 180.623 611.559 180.59C615.69 180.424 619.59 179.995 623.127 179.235C624.019 179.036 624.911 179.631 625.11 180.524C625.308 181.416 624.713 182.308 623.821 182.507C620.086 183.3 616.021 183.763 611.691 183.928C611.658 183.928 611.625 183.928 611.625 183.928ZM599.694 183.597C599.661 183.597 599.595 183.597 599.562 183.597C595.695 183.267 591.663 182.738 587.565 181.978C586.673 181.813 586.045 180.953 586.21 180.028C586.375 179.136 587.234 178.508 588.16 178.673C592.126 179.4 596.059 179.929 599.826 180.259C600.752 180.325 601.413 181.152 601.347 182.077C601.281 182.936 600.554 183.597 599.694 183.597ZM576.229 179.367C576.097 179.367 575.931 179.334 575.799 179.301C571.899 178.243 568.032 177.053 564.265 175.698C563.405 175.401 562.943 174.442 563.24 173.55C563.538 172.691 564.496 172.228 565.388 172.526C569.057 173.848 572.858 175.004 576.658 176.029C577.551 176.26 578.079 177.186 577.848 178.078C577.65 178.871 576.956 179.367 576.229 179.367ZM634.727 178.673C634.132 178.673 633.537 178.342 633.24 177.747C632.81 176.921 633.141 175.93 633.967 175.5C637.536 173.682 640.511 171.402 642.824 168.659C643.419 167.965 644.477 167.865 645.171 168.46C645.865 169.055 645.964 170.113 645.369 170.807C642.758 173.881 639.42 176.458 635.487 178.441C635.256 178.64 634.992 178.673 634.727 178.673ZM553.755 171.336C553.523 171.336 553.292 171.303 553.061 171.171C549.227 169.419 545.657 167.535 542.485 165.585C541.691 165.122 541.427 164.065 541.923 163.305C542.386 162.511 543.443 162.247 544.203 162.743C547.277 164.627 550.747 166.411 554.449 168.13C555.275 168.526 555.639 169.518 555.275 170.344C555.011 170.972 554.416 171.336 553.755 171.336ZM649.633 160.991C649.467 160.991 649.335 160.958 649.17 160.925C648.278 160.661 647.782 159.735 648.013 158.843C648.344 157.719 648.608 156.529 648.806 155.307C649.17 153.191 649.335 151.109 649.335 149.126C649.335 148.597 649.335 148.102 649.302 147.573C649.269 146.647 649.963 145.854 650.889 145.821C651.814 145.788 652.607 146.482 652.64 147.408C652.673 147.969 652.673 148.531 652.673 149.126C652.673 151.307 652.475 153.555 652.078 155.835C651.847 157.19 651.55 158.512 651.186 159.768C651.054 160.495 650.36 160.991 649.633 160.991ZM623.094 138.682C622.4 138.682 621.739 138.253 621.507 137.559C621.21 136.699 621.672 135.741 622.565 135.443C625.605 134.419 629.01 132.469 632.414 129.825C633.141 129.263 634.198 129.395 634.76 130.122C635.322 130.849 635.19 131.907 634.463 132.469C630.695 135.377 627.06 137.426 623.655 138.616C623.457 138.682 623.259 138.682 623.094 138.682ZM648.179 137.691C647.551 137.691 646.956 137.327 646.658 136.732C645.039 133.394 642.725 130.42 639.817 127.941C639.123 127.346 639.024 126.289 639.619 125.595C640.214 124.9 641.271 124.801 641.965 125.396C645.237 128.206 647.848 131.544 649.666 135.278C650.062 136.104 649.732 137.096 648.873 137.526C648.674 137.625 648.41 137.691 648.179 137.691ZM611.857 137.393C611.427 137.393 611.03 137.228 610.7 136.931C609.708 135.972 608.915 134.782 608.287 133.361C607.395 131.279 606.932 129.329 606.932 127.511C606.932 126.289 607.13 125.165 607.527 124.107C607.858 123.248 608.816 122.818 609.675 123.149C610.535 123.479 610.964 124.438 610.634 125.297C610.369 125.958 610.237 126.718 610.237 127.511C610.237 128.867 610.601 130.387 611.328 132.039C611.757 133.064 612.352 133.923 613.013 134.551C613.674 135.179 613.674 136.237 613.046 136.898C612.716 137.228 612.286 137.393 611.857 137.393ZM642.13 124.669C641.734 124.669 641.337 124.537 641.007 124.239C640.313 123.612 640.247 122.554 640.874 121.893C643.419 119.051 645.832 115.944 648.013 112.639C648.509 111.879 649.567 111.647 650.327 112.176C651.087 112.705 651.318 113.73 650.789 114.49C648.509 117.927 645.997 121.166 643.353 124.14C643.023 124.471 642.593 124.669 642.13 124.669ZM630.596 122.422C630.398 122.422 630.232 122.389 630.034 122.323C626.894 121.199 623.655 120.604 620.648 120.604C620.086 120.604 619.524 120.637 618.995 120.67C618.07 120.736 617.277 120.042 617.211 119.15C617.145 118.224 617.839 117.431 618.731 117.365C619.359 117.332 619.987 117.299 620.648 117.299C624.019 117.299 627.655 117.96 631.158 119.216C632.017 119.513 632.48 120.472 632.182 121.364C631.918 121.992 631.29 122.422 630.596 122.422ZM655.317 104.839C655.086 104.839 654.822 104.773 654.59 104.674C653.764 104.277 653.4 103.286 653.797 102.426C655.516 98.8901 656.97 95.2216 658.127 91.553C658.391 90.6607 659.349 90.198 660.209 90.4624C661.101 90.7268 661.564 91.6852 661.299 92.5445C660.077 96.3453 658.589 100.146 656.805 103.848C656.54 104.509 655.945 104.839 655.317 104.839ZM662.456 82.1669C662.357 82.1669 662.291 82.1668 662.192 82.1338C661.266 82.0016 660.638 81.1423 660.804 80.2169C661.332 76.7136 661.597 73.2103 661.597 69.74C661.597 69.3434 661.597 68.9799 661.597 68.5833C661.597 67.6579 662.324 66.8977 663.249 66.8977C664.175 66.8977 664.935 67.6248 664.935 68.5502C664.935 68.9468 664.935 69.3434 664.935 69.74C664.935 73.3425 664.637 77.0441 664.076 80.7126C663.976 81.5719 663.282 82.1669 662.456 82.1669ZM662.026 58.4039C661.233 58.4039 660.539 57.8421 660.374 57.0489C659.614 53.2812 658.523 49.5134 657.102 45.911C656.772 45.0517 657.201 44.0932 658.06 43.7297C658.92 43.3992 659.878 43.8288 660.242 44.6881C661.729 48.4889 662.886 52.4549 663.679 56.4209C663.844 57.3132 663.282 58.2056 662.357 58.3708C662.225 58.4039 662.126 58.4039 662.026 58.4039ZM653.467 36.2273C652.872 36.2273 652.31 35.9299 652.012 35.368C650.029 31.8647 647.881 28.5597 645.601 25.6183C645.039 24.8912 645.171 23.8336 645.898 23.2717C646.625 22.7099 647.683 22.8421 648.245 23.5692C650.624 26.6428 652.872 30.08 654.921 33.7155C655.383 34.5087 655.086 35.5333 654.293 35.996C654.028 36.1612 653.731 36.2273 653.467 36.2273ZM563.306 19.6362C562.876 19.6362 562.48 19.471 562.149 19.1735C561.488 18.5456 561.455 17.488 562.083 16.827C564.793 13.9847 568.032 11.3737 571.668 9.06024C572.461 8.56449 573.486 8.79585 573.981 9.58905C574.477 10.3822 574.246 11.4068 573.453 11.9025C570.048 14.0508 567.041 16.4965 564.529 19.1405C564.199 19.4379 563.736 19.6362 563.306 19.6362ZM638.858 17.488C638.462 17.488 638.065 17.3558 637.735 17.0583C634.826 14.4143 631.687 12.1008 628.448 10.1839C627.655 9.72124 627.39 8.69669 627.853 7.90349C628.316 7.11029 629.34 6.8459 630.133 7.3086C633.57 9.32465 636.908 11.7703 639.982 14.5796C640.676 15.2075 640.709 16.2651 640.081 16.9261C639.751 17.2897 639.321 17.488 638.858 17.488ZM583.235 6.87894C582.541 6.87894 581.913 6.4493 581.682 5.7883C581.351 4.929 581.814 3.97055 582.673 3.64005C586.54 2.2189 590.539 1.19434 594.538 0.599442C595.464 0.467242 596.29 1.0952 596.422 2.0206C596.554 2.946 595.927 3.77224 595.001 3.90444C591.2 4.46629 587.433 5.42475 583.797 6.7798C583.632 6.8459 583.434 6.87894 583.235 6.87894ZM618.4 5.58999C618.235 5.58999 618.07 5.55694 617.905 5.52389C614.236 4.40019 610.435 3.67309 606.569 3.40869C605.643 3.34259 604.949 2.54939 605.015 1.62399C605.081 0.698594 605.875 0.0045395 606.8 0.0706395C610.931 0.368089 614.996 1.12825 618.896 2.31805C619.789 2.58245 620.284 3.54089 619.987 4.40019C619.756 5.12729 619.095 5.58999 618.4 5.58999Z" fill="#0B0754"/>
<path d="M533.693 391.978C537.098 381.269 546.021 373.767 560.398 369.438C553.722 382.889 544.831 390.424 533.693 391.978Z" fill="#7C9AF2"/>
<path d="M582.938 370.726C575.039 380.674 566.347 385.335 556.861 384.674C561.588 376.411 570.313 371.751 582.938 370.726Z" fill="#7C9AF2"/>
<path d="M598.934 377.237C590.936 384.277 583.103 386.822 575.403 384.872C580.492 378.791 588.358 376.246 598.934 377.237Z" fill="#7C9AF2"/>
<path d="M581.55 390.49C588.49 386.623 596.753 387.053 606.271 391.779C596.29 395.481 588.061 395.051 581.55 390.49Z" fill="#7C9AF2"/>
<path d="M529.76 399.546C540.469 399.348 549.987 405.065 558.316 416.732C544.137 414.815 534.619 409.097 529.76 399.546Z" fill="#7C9AF2"/>
<path d="M571.767 409.329C559.406 407.676 551.111 402.686 546.913 394.357C556.2 394.192 564.496 399.149 571.767 409.329Z" fill="#7C9AF2"/>
<path d="M565.058 392.506C574.378 392.341 582.64 397.332 589.911 407.478C577.551 405.793 569.288 400.835 565.058 392.506Z" fill="#7C9AF2"/>
<path d="M509.203 408.404C520.705 405.859 532.239 409.957 543.807 420.698C528.075 421.789 516.54 417.658 509.203 408.404Z" fill="#7C9AF2"/>
<path d="M578.641 390.523C578.575 390.755 578.443 390.92 578.245 391.052L577.815 391.284C577.584 391.317 577.319 391.317 577.088 391.25L577.022 391.35L576.526 391.184C570.676 390.127 562.315 390.689 551.375 392.903C541.824 394.721 532.504 397.596 523.58 401.43C519.085 403.314 514.657 405.429 510.393 407.775L509.269 408.403C500.346 413.328 496.711 414.782 491.389 418.087H487.688C495.289 412.997 498.727 411.907 509.468 406.057C513.963 403.611 518.424 401.397 522.82 399.48C531.876 395.679 541.328 392.837 550.979 391.085C562.249 388.772 570.875 388.21 576.824 389.433L577.584 389.301C577.782 389.168 578.047 389.201 578.212 389.4C578.443 389.466 578.641 389.598 578.741 389.796C578.708 390.061 578.674 390.292 578.641 390.523Z" fill="#7C9AF2"/>
<path d="M548.5 357.672L527.612 362.1L542.815 367.785C542.815 367.785 536.47 401.959 491.555 420.963C486.167 420.963 478.963 420.533 472.848 420.103C466.007 419.607 460.521 419.079 460.521 419.079C460.521 419.079 442.806 343.758 556.101 323.498C554.217 343.725 548.5 357.672 548.5 357.672Z" fill="#92B5F8"/>
<path d="M556.101 323.498C490.828 356.647 475.922 405.528 472.848 420.103C466.007 419.607 460.521 419.079 460.521 419.079C460.521 419.079 442.806 343.725 556.101 323.498Z" fill="#7C9AF2"/>
<path d="M503.056 385.004C502.23 385.004 501.569 384.376 501.503 383.55L499.718 355.424C499.652 354.565 500.313 353.838 501.172 353.772C502.032 353.706 502.759 354.367 502.825 355.226L504.61 383.352C504.676 384.211 504.015 384.938 503.155 385.004C503.122 385.004 503.089 385.004 503.056 385.004Z" fill="#92B5F8"/>
<path d="M483.788 396.373C482.962 396.373 482.301 395.745 482.235 394.919L480.45 366.794C480.384 365.934 481.045 365.207 481.904 365.141C482.763 365.075 483.491 365.736 483.557 366.595L485.341 394.721C485.408 395.58 484.747 396.307 483.887 396.373C483.854 396.373 483.821 396.373 483.788 396.373Z" fill="#92B5F8"/>
<path d="M338.864 329.083C338.864 329.083 336.154 338.172 346.432 351.095C356.909 364.216 357.834 374.792 357.834 374.792L365.7 378.989C365.7 378.989 363.552 363.092 354.629 352.946C343.425 340.221 338.864 329.083 338.864 329.083Z" fill="#7C9AF2"/>
<path d="M320.223 337.941C320.223 337.941 320.488 344.947 330.601 352.549C340.913 360.283 343.986 367.752 343.986 367.752L350.464 370.958C350.464 370.958 345.176 358.366 336.649 352.516C326.007 345.179 320.223 337.941 320.223 337.941Z" fill="#7C9AF2"/>
<path d="M356.678 341.345C356.678 341.345 363.618 344.187 371.22 360.316C377.4 373.437 375.847 381.369 379.68 389.4L369.104 382.096C367.254 376.213 370.261 371.387 365.205 359.225C360.511 347.79 356.678 341.345 356.678 341.345Z" fill="#7C9AF2"/>
<path d="M422.017 380.608C422.017 380.608 426.215 386.888 423.505 404.471C421.323 418.814 414.813 422.086 414.152 425.424L409.723 419.409C412.268 413.394 416.564 413.097 419.175 400.207C421.621 388.111 422.017 380.608 422.017 380.608Z" fill="#7C9AF2"/>
<path d="M373.07 348.814C373.07 348.814 379.846 359.853 382.49 367.289C386.257 377.832 383.25 384.607 386.323 395.646L393.925 401.595C393.925 401.595 396.602 388.706 391.446 375.882C382.754 354.334 373.07 348.814 373.07 348.814Z" fill="#7C9AF2"/>
<path d="M395.049 349.839C395.412 357.11 396.833 364.282 399.279 371.156C406.814 391.878 400.403 409.858 400.403 409.858L404.567 413.857C404.567 413.857 415.87 399.513 409.029 382.294C401.791 364.05 395.049 349.839 395.049 349.839Z" fill="#7C9AF2"/>
<path d="M369.865 383.484C369.865 383.484 364.411 382.823 344.086 390.193C331.064 394.919 333.84 388.97 322.041 395.646C331.857 394.324 336.715 400.637 349.109 396.935C358.991 393.961 369.104 391.812 379.35 390.424L369.865 383.484Z" fill="#7C9AF2"/>
<path d="M332.353 406.222C332.353 406.222 342.896 414.716 361.172 409.23C372.409 405.859 384.142 404.404 395.875 404.834L388.174 396.737C388.174 396.737 379.218 392.87 360.776 400.405C348.085 405.594 332.353 406.222 332.353 406.222Z" fill="#7C9AF2"/>
<path d="M347.358 421.392C347.358 421.392 357.9 429.886 376.177 424.4C387.414 421.028 399.147 419.574 410.88 420.004L403.179 411.907C403.179 411.907 394.222 408.04 375.781 415.575C363.122 420.764 347.358 421.392 347.358 421.392Z" fill="#7C9AF2"/>
<path d="M311.597 375.155C311.597 375.155 318.736 379.187 330.138 375.287C341.706 371.321 351.026 371.916 351.026 371.916L346.895 369.173C346.895 369.173 341.243 366.727 329.577 371.487C321.545 374.792 311.597 375.155 311.597 375.155Z" fill="#7C9AF2"/>
<path d="M357.339 376.51C357.339 376.51 347.985 377.634 334.832 381.831C326.503 384.442 314.109 381.897 314.109 381.897C314.109 381.897 325.544 392.077 337.773 387.384C351.819 381.963 366.626 380.708 366.626 380.708L357.339 376.51Z" fill="#7C9AF2"/>
<path d="M348.085 370.396C348.085 370.396 337.806 360.184 324.553 360.679C316.687 360.911 308.821 359.82 301.319 357.473C301.319 357.473 311.135 368.182 323.264 366.397C334.468 364.777 343.755 370.33 343.755 370.33L348.085 370.396Z" fill="#7C9AF2"/>
<path d="M413.193 425.887L414.912 424.664C407.343 413.956 376.508 380.608 344.251 367.752L343.458 369.735C375.252 382.393 405.691 415.311 413.193 425.887Z" fill="#7C9AF2"/>
<path d="M558.283 426.68H75.8186C73.4721 426.68 71.5552 424.763 71.5552 422.416C71.5552 420.07 73.4721 418.153 75.8186 418.153H558.283C560.629 418.153 562.546 420.07 562.546 422.416C562.546 424.763 560.629 426.68 558.283 426.68Z" fill="#95A6DB"/>
<path d="M526.422 308.626H123.576C111.711 308.626 102.093 299.008 102.093 287.143V88.3803C102.093 76.5154 111.711 66.8978 123.576 66.8978H526.422C538.287 66.8978 547.905 76.5154 547.905 88.3803V287.176C547.872 299.041 538.254 308.626 526.422 308.626Z" fill="#78A5FF"/>
<g opacity="0.74">
<path opacity="0.74" d="M390.719 166.808H275.804C263.543 166.808 253.595 156.86 253.595 144.598V95.0233C253.595 82.7618 263.543 72.8137 275.804 72.8137H390.719C402.981 72.8137 412.929 82.7618 412.929 95.0233V144.598C412.896 156.86 402.981 166.808 390.719 166.808Z" fill="#95A6DB"/>
<path opacity="0.74" d="M386.72 162.214H279.77C268.566 162.214 259.478 153.125 259.478 141.921V97.6673C259.478 86.4634 268.566 77.3746 279.77 77.3746H386.72C397.924 77.3746 407.013 86.4634 407.013 97.6673V141.921C407.013 153.125 397.924 162.214 386.72 162.214Z" fill="white"/>
<path opacity="0.74" d="M490.861 299.669H175.63C174.44 299.669 173.481 298.71 173.481 297.521C173.481 296.331 174.44 295.372 175.63 295.372H490.828C492.017 295.372 492.976 296.331 492.976 297.521C493.009 298.71 492.05 299.669 490.861 299.669Z" fill="#E3EAFF"/>
<g opacity="0.74">
<g opacity="0.74">
<path opacity="0.74" d="M186.966 219.853C183.363 212.087 192.419 202.337 188.089 194.967C185.412 190.373 178.373 188.72 177.58 183.465C177.348 181.912 177.778 180.325 177.976 178.772C178.835 172.658 176.489 166.18 171.862 162.082C167.268 157.984 160.592 156.331 154.643 157.851C154.643 157.851 154.643 157.851 154.61 157.851C154.61 157.851 154.61 157.851 154.577 157.851C148.826 160.033 143.968 165.255 142.547 171.237C141.125 177.252 142.877 183.895 147.074 188.423C148.132 189.579 149.388 190.637 150.082 192.058C152.429 196.817 147.603 202.205 148 207.493C148.661 216.019 161.683 218.895 163.137 227.29C163.533 229.504 163.005 231.784 162.972 234.032C162.773 243.881 173.448 252.308 183 249.863L183.496 249.697C192.716 246.293 196.682 233.272 190.932 225.273C189.61 223.489 187.891 221.902 186.966 219.853Z" fill="#97AAE8"/>
<g opacity="0.74">
<path opacity="0.74" d="M155.238 158.314L192.65 273.361C192.948 274.287 192.452 275.278 191.527 275.576C190.601 275.873 189.61 275.377 189.312 274.452V274.419L154.378 158.579C154.312 158.347 154.445 158.083 154.676 158.017C154.907 157.951 155.139 158.083 155.238 158.314Z" fill="#859CE8"/>
<path opacity="0.74" d="M158.411 211.789C161.187 211.459 163.732 211.69 166.343 212.946C168.854 214.136 170.904 215.986 172.721 218.069C173.911 219.457 174.969 220.944 175.927 222.464C176.291 223.026 176.125 223.753 175.564 224.117C174.969 224.48 174.176 224.282 173.845 223.654C173.085 222.134 172.226 220.646 171.234 219.225C169.78 217.143 168.061 215.226 165.847 213.904C163.5 212.483 161.088 212.053 158.444 212.087C158.378 212.087 158.312 212.02 158.312 211.954C158.312 211.855 158.345 211.789 158.411 211.789Z" fill="#859CE8"/>
<path opacity="0.74" d="M147.041 175.5C150.743 175.104 153.949 175.732 157.254 178.144C160.129 180.226 162.443 183.267 164.327 186.274C164.591 186.704 164.459 187.299 164.029 187.563C163.599 187.828 163.005 187.696 162.74 187.266C162.74 187.233 162.707 187.233 162.707 187.2C161.154 184.225 159.171 181.152 156.593 178.97C153.618 176.459 150.644 175.665 147.041 175.732C146.975 175.732 146.909 175.665 146.909 175.599C146.942 175.566 146.975 175.533 147.041 175.5Z" fill="#859CE8"/>
<path opacity="0.74" d="M179.001 194.14C177.547 195.099 176.258 196.189 175.233 197.644C174.242 199.032 173.581 200.651 173.184 202.304C172.787 203.956 172.622 205.675 172.589 207.393C172.589 209.112 172.721 210.831 172.92 212.549C172.986 213.045 172.622 213.475 172.159 213.541C171.664 213.607 171.234 213.243 171.168 212.781C171.168 212.748 171.168 212.748 171.168 212.714C171.069 210.93 171.069 209.145 171.201 207.36C171.366 205.576 171.631 203.791 172.193 202.072C172.754 200.354 173.548 198.701 174.704 197.313C175.861 195.892 177.249 194.867 178.836 193.975C178.902 193.942 178.968 193.975 179.001 194.008C179.067 194.008 179.067 194.107 179.001 194.14Z" fill="#859CE8"/>
</g>
</g>
<g opacity="0.74">
<path opacity="0.74" d="M205.408 219.82C208.382 213.706 201.343 205.774 204.879 199.957C207.093 196.355 212.712 195.132 213.406 190.968C213.604 189.712 213.307 188.456 213.141 187.2C212.547 182.309 214.53 177.186 218.231 173.98C221.933 170.774 227.287 169.584 232.013 170.873C232.013 170.873 232.013 170.873 232.046 170.873C232.046 170.873 232.046 170.873 232.079 170.873C236.64 172.691 240.408 176.921 241.465 181.714C242.523 186.506 241.036 191.794 237.598 195.33C236.739 196.223 235.715 197.049 235.153 198.173C233.203 201.94 236.97 206.303 236.574 210.5C235.913 217.275 225.535 219.358 224.213 226.034C223.883 227.785 224.246 229.603 224.246 231.421C224.246 239.254 215.62 245.831 208.085 243.715L207.688 243.583C200.384 240.741 197.41 230.297 202.136 224.018C203.226 222.663 204.615 221.44 205.408 219.82Z" fill="#97AAE8"/>
<g opacity="0.74">
<path opacity="0.74" d="M231.583 171.27L200.087 262.323C199.822 263.05 200.219 263.843 200.946 264.107C201.673 264.372 202.466 263.975 202.731 263.248V263.215L232.244 171.501C232.311 171.303 232.211 171.105 232.013 171.071C231.848 171.005 231.65 171.105 231.583 171.27Z" fill="#859CE8"/>
<path opacity="0.74" d="M228.245 213.805C226.031 213.508 224.015 213.64 221.9 214.598C219.884 215.524 218.231 216.945 216.744 218.564C215.785 219.655 214.926 220.812 214.1 222.002C213.802 222.431 213.935 223.026 214.364 223.324C214.794 223.621 215.389 223.489 215.686 223.059C215.719 223.026 215.719 222.993 215.719 222.993C216.347 221.77 217.074 220.614 217.868 219.523C219.057 217.87 220.479 216.383 222.263 215.359C224.147 214.268 226.064 213.937 228.212 214.003C228.278 214.003 228.311 213.97 228.311 213.904C228.344 213.871 228.311 213.838 228.245 213.805Z" fill="#859CE8"/>
<path opacity="0.74" d="M237.83 185.085C235.616 184.82 233.599 184.986 231.517 185.944C228.311 187.431 225.8 190.439 223.883 193.413C223.651 193.777 223.751 194.24 224.114 194.438C224.478 194.669 224.973 194.537 225.172 194.173C226.758 191.232 228.906 188.224 231.848 186.572C233.732 185.481 235.649 185.217 237.83 185.283C237.896 185.283 237.929 185.25 237.929 185.184C237.929 185.151 237.896 185.118 237.83 185.085Z" fill="#859CE8"/>
<path opacity="0.74" d="M212.117 199.461C213.274 200.255 214.265 201.147 215.058 202.304C216.612 204.551 217.008 207.36 217.008 210.104C217.008 211.459 216.876 212.847 216.678 214.202C216.612 214.598 216.876 214.929 217.273 214.995C217.669 215.061 218 214.797 218.066 214.4C218.066 214.4 218.066 214.367 218.066 214.334C218.165 212.913 218.198 211.492 218.099 210.07C217.901 207.195 217.24 204.254 215.455 202.006C214.563 200.85 213.472 200.023 212.216 199.296C212.183 199.263 212.117 199.296 212.084 199.329C212.051 199.362 212.084 199.428 212.117 199.461Z" fill="#859CE8"/>
</g>
</g>
<g opacity="0.74">
<path opacity="0.74" d="M209.142 206.766C208.019 198.305 219.586 191.662 217.669 183.333C216.479 178.144 210.266 174.476 211.092 169.221C211.324 167.667 212.216 166.279 212.877 164.858C215.521 159.273 215.191 152.398 212.051 147.11C208.911 141.822 203.028 138.253 196.881 137.922C196.881 137.922 196.881 137.922 196.848 137.922C196.848 137.922 196.848 137.922 196.815 137.922C190.667 138.253 184.487 141.822 181.347 147.11C178.175 152.398 177.877 159.306 180.521 164.858C181.215 166.279 182.074 167.667 182.306 169.221C183.132 174.476 176.919 178.177 175.729 183.333C173.812 191.662 185.379 198.272 184.256 206.766C183.958 209.013 182.802 210.996 182.074 213.144C178.935 222.464 186.635 233.734 196.451 234.23H196.947C206.763 233.734 214.463 222.497 211.324 213.144C210.597 210.996 209.44 209.013 209.142 206.766Z" fill="#AEBCE8"/>
<g opacity="0.74">
<path opacity="0.74" d="M197.277 138.55L198.599 259.513C198.599 260.472 197.839 261.265 196.848 261.298C195.889 261.298 195.096 260.538 195.063 259.546V259.513L196.385 138.55C196.385 138.319 196.583 138.121 196.848 138.121C197.079 138.121 197.277 138.319 197.277 138.55Z" fill="#97AAE8"/>
<path opacity="0.74" d="M184.322 190.538C187.065 191.067 189.445 192.025 191.56 194.008C193.609 195.892 194.997 198.272 196.121 200.783C196.848 202.469 197.41 204.188 197.872 205.939C198.038 206.567 197.674 207.228 197.046 207.393C196.352 207.592 195.658 207.129 195.559 206.435C195.261 204.749 194.898 203.064 194.402 201.444C193.609 198.999 192.551 196.685 190.833 194.735C189.015 192.686 186.867 191.563 184.289 190.769C184.223 190.736 184.19 190.67 184.19 190.604C184.19 190.571 184.256 190.538 184.322 190.538Z" fill="#97AAE8"/>
<path opacity="0.74" d="M184.322 152.53C187.032 153.092 189.379 154.084 191.494 156.067C193.477 157.951 194.865 160.33 195.922 162.842C196.616 164.528 197.178 166.246 197.608 167.965C197.74 168.461 197.443 168.989 196.947 169.122C196.451 169.254 195.922 168.956 195.79 168.461C195.79 168.427 195.79 168.427 195.79 168.394C195.493 166.709 195.096 165.023 194.567 163.371C193.741 160.925 192.651 158.612 190.899 156.662C189.048 154.613 186.867 153.489 184.289 152.762C184.223 152.729 184.19 152.663 184.19 152.597C184.19 152.53 184.256 152.497 184.322 152.53Z" fill="#97AAE8"/>
<path opacity="0.74" d="M209.242 179.83C207.556 180.292 206.003 180.986 204.581 182.044C203.226 183.069 202.103 184.424 201.243 185.878C199.525 188.72 198.533 192.29 197.938 195.561C197.839 196.024 197.41 196.355 196.914 196.256C196.451 196.156 196.121 195.727 196.22 195.231C196.22 195.198 196.22 195.198 196.22 195.165C197.079 191.761 198.368 188.158 200.384 185.283C201.409 183.796 202.698 182.474 204.218 181.482C205.738 180.458 207.391 179.896 209.175 179.532C209.242 179.532 209.308 179.565 209.308 179.631C209.341 179.764 209.308 179.83 209.242 179.83Z" fill="#97AAE8"/>
</g>
</g>
<path opacity="0.74" d="M208.25 254.357H179.497C177.249 254.357 175.498 256.374 175.762 258.687L179.629 291.902C179.86 293.852 181.447 295.306 183.363 295.306H204.383C206.3 295.306 207.887 293.852 208.118 291.902L211.985 258.687C212.249 256.374 210.531 254.357 208.25 254.357Z" fill="#5A5D8C"/>
</g>
<g opacity="0.74">
<path opacity="0.74" d="M382.027 248.673C391.38 247.285 394.123 233.272 403.113 238.46C393.396 256.77 389.43 263.116 389.43 263.116C387.348 261.992 381.498 260.835 379.747 259.414L382.027 248.673Z" fill="#494C7F"/>
<path opacity="0.74" d="M409.326 266.487L423.339 294.976C423.703 295.736 424.331 296.199 424.992 296.199C426.215 296.199 427.173 294.678 426.975 292.993L423.934 266.487H409.326Z" fill="#7C9AF2"/>
<path opacity="0.74" d="M422.315 273.593H258.354C254.685 273.593 251.711 270.618 251.711 266.95V266.421C251.711 262.752 254.685 259.778 258.354 259.778H422.315C425.983 259.778 428.958 262.752 428.958 266.421V266.95C428.958 270.618 425.983 273.593 422.315 273.593Z" fill="#92B5F8"/>
<path opacity="0.74" d="M279.44 260.703L246.224 199.858C245.134 197.875 243.052 196.917 241.036 197.247H198.765L235.781 268.205H271.541C273.094 269.329 275.209 269.494 276.961 268.437L277.622 268.04C280.002 266.553 280.828 263.281 279.44 260.703Z" fill="#92B5F8"/>
<g opacity="0.74">
<g opacity="0.74">
<g opacity="0.74">
<g opacity="0.74">
<g opacity="0.74">
<path opacity="0.74" d="M291.04 184.424L286.248 181.185C284.695 182.738 278.779 195.099 273.755 203.262C264.171 204.055 249.43 207.294 246.952 209.41C246.952 209.41 243.25 211.987 246.291 216.581C249.001 220.68 255.049 218.63 255.049 218.63C255.049 218.63 280.795 212.615 282.943 209.542C287.405 203.097 290.181 188.522 291.04 184.424Z" fill="#F37A50"/>
</g>
</g>
</g>
<g opacity="0.74">
<g opacity="0.74">
<g opacity="0.74">
<g opacity="0.74">
<path opacity="0.74" d="M295.7 184.292C293.783 184.325 291.503 183.267 290.677 184.92L286.248 181.185C288.297 175.699 298.311 174.575 299.105 174.542C301.121 174.476 302.079 174.311 302.211 174.575C302.343 174.839 302.773 176.69 299.799 176.888C296.097 177.153 298.377 180.193 306.012 177.781C307.929 177.186 311.399 178.277 310.044 179.565C308.59 180.987 304.392 184.192 295.7 184.292Z" fill="#F37A50"/>
</g>
</g>
</g>
</g>
</g>
<g opacity="0.74">
<g opacity="0.74">
<g opacity="0.74">
<path opacity="0.74" d="M291.734 185.415L285.587 182.044C284.034 183.597 278.746 195.099 273.755 203.262C274.119 203.229 248.406 205.08 245.762 207.228C245.762 207.228 243.25 211.987 246.258 216.581C248.968 220.68 255.016 218.63 255.016 218.63C255.016 218.63 280.993 215.887 283.141 212.814C287.636 206.369 290.875 189.513 291.734 185.415Z" fill="#8A284C"/>
</g>
</g>
</g>
<path opacity="0.74" d="M284.827 233.734C284.827 233.734 313.415 218.796 325.016 216.978C334.865 219.391 364.378 242.493 364.378 242.493L283.207 242.195L284.827 233.734Z" fill="#060534"/>
<path opacity="0.74" d="M273.623 236.444C273.623 236.444 319.827 228.678 329.742 231.289C339.987 233.999 354.794 240.08 384.638 247.45L380.903 261.331C380.903 261.331 347.357 256.506 330.667 249.103C297.749 261.794 275.97 261.562 275.97 261.562L273.623 236.444Z" fill="#0B0754"/>
<path opacity="0.74" d="M231.385 209.41C225.304 212.186 221.701 213.442 224.048 220.845C226.394 228.248 228.113 250.491 276.135 261.562C283.34 251.053 286.777 234.395 286.777 234.395C286.777 234.395 267.971 225.736 264.071 217.639C260.138 209.575 253.396 206.204 246.819 205.741C240.738 205.377 233.996 208.22 231.385 209.41Z" fill="#FD7166"/>
<g opacity="0.74">
<g opacity="0.74">
<g opacity="0.74">
<path opacity="0.74" d="M222.263 192.785C226.295 201.61 235.186 206.204 242.126 203.031C249.067 199.858 251.413 190.141 247.348 181.317C243.316 172.493 234.426 167.899 227.485 171.071C220.578 174.244 218.231 183.961 222.263 192.785Z" fill="#F37A50"/>
<path opacity="0.74" d="M244.44 184.391C244.902 184.986 245.729 185.085 246.291 184.622C246.885 184.159 246.985 183.333 246.522 182.771C246.059 182.176 245.233 182.077 244.671 182.54C244.109 182.97 244.01 183.829 244.44 184.391Z" fill="black"/>
<path opacity="0.74" d="M234.723 188.919C235.219 189.547 236.111 189.679 236.739 189.183C237.367 188.687 237.499 187.795 237.003 187.167C236.508 186.539 235.615 186.407 234.987 186.903C234.359 187.398 234.227 188.291 234.723 188.919Z" fill="black"/>
<path opacity="0.74" d="M242.523 186.605C244.374 187.927 246.687 189.513 246.687 189.513C246.687 189.513 246.819 191.662 244.341 192.719C245.2 191.86 245.96 190.703 244.936 189.48C243.977 188.291 242.523 186.605 242.523 186.605Z" fill="#DE623C"/>
<g opacity="0.74">
<path opacity="0.74" d="M232.079 188.191C232.013 188.191 231.914 188.191 231.848 188.158C231.517 188.059 231.319 187.696 231.418 187.365C231.616 186.374 232.509 184.523 234.492 184.424C234.888 184.424 235.219 184.721 235.186 185.118C235.153 185.448 234.888 185.713 234.558 185.746C233.071 185.845 232.74 187.63 232.707 187.63C232.641 187.96 232.377 188.191 232.079 188.191Z" fill="#060534"/>
</g>
<g opacity="0.74">
<path opacity="0.74" d="M242.919 181.648C242.82 181.648 242.721 181.648 242.622 181.581C242.358 181.449 242.258 181.119 242.391 180.854C242.424 180.821 242.953 179.83 244.043 179.565C244.77 179.4 245.563 179.598 246.357 180.16C246.588 180.326 246.654 180.59 246.555 180.854C246.39 181.185 245.993 181.284 245.729 181.086C245.2 180.689 244.704 180.557 244.308 180.656C243.713 180.788 243.382 181.383 243.382 181.383C243.283 181.548 243.118 181.648 242.919 181.648Z" fill="#060534"/>
</g>
<path opacity="0.74" d="M216.083 187.035C212.613 178.508 220.743 172.427 220.743 172.427C220.743 172.427 218.727 172.36 218.363 169.551C219.884 169.948 221.536 169.816 222.99 169.221C232.707 165.156 239.515 164.858 239.714 169.122C239.78 170.642 246.258 169.287 246.225 179.433C246.225 178.706 243.151 174.872 240.937 174.542C238.689 174.244 241.366 176.888 236.805 177.748C232.178 178.607 228.708 177.648 225.998 180.425C223.883 182.804 224.412 197.412 225.172 197.247C222.495 197.776 217.603 190.769 216.083 187.035Z" fill="#060534"/>
<g opacity="0.74">
<path opacity="0.74" d="M223.949 191.265C225.998 192.289 226.956 194.471 226.13 196.123C225.304 197.809 222.957 198.338 220.908 197.313C218.859 196.289 217.901 194.107 218.727 192.455C219.586 190.769 221.933 190.24 223.949 191.265Z" fill="#F37A50"/>
<g opacity="0.74">
<path opacity="0.74" d="M223.883 196.156C223.949 196.123 223.982 196.057 224.015 195.991C224.511 194.967 224.378 193.942 223.651 193.248C222.924 192.554 221.767 192.389 220.908 192.851C220.677 192.984 220.578 193.248 220.644 193.479C220.743 193.777 221.106 193.909 221.371 193.744C221.834 193.479 222.528 193.579 222.957 193.975C223.354 194.339 223.42 194.901 223.123 195.529C223.023 195.76 223.056 196.024 223.288 196.19C223.486 196.289 223.717 196.256 223.883 196.156Z" fill="#DE623C"/>
</g>
</g>
<g opacity="0.74">
<path opacity="0.74" d="M241.895 196.817C241.135 196.685 240.309 196.421 239.482 196.024C239.251 195.925 239.152 195.661 239.251 195.462C239.35 195.231 239.614 195.132 239.846 195.231C241.73 196.123 243.382 196.322 244.77 195.826C246.489 195.198 247.216 193.711 247.216 193.711C247.315 193.479 247.58 193.38 247.811 193.512C248.042 193.612 248.141 193.876 248.009 194.107C247.976 194.173 247.15 195.958 245.101 196.685C244.109 196.983 243.052 197.049 241.895 196.817Z" fill="#DE623C"/>
</g>
</g>
</g>
<path opacity="0.74" d="M225.039 196.784C225.634 199.726 229.138 206.402 232.872 210.632C234.293 212.219 236.508 212.88 238.557 212.252C238.623 212.219 238.689 212.219 238.755 212.186C242.192 211.128 243.746 207.162 241.928 204.055C241.432 203.196 241.069 202.436 241.069 201.973C237.367 200.783 225.039 196.784 225.039 196.784Z" fill="#F37A50"/>
</g>
</g>
<path opacity="0.74" d="M230.36 270.155L193.939 205.741C192.452 203.163 193.344 199.825 195.922 198.338L196.517 198.007C199.095 196.52 202.433 197.412 203.92 199.99L239.912 262.323C241.399 264.9 240.507 268.239 237.929 269.726L237.334 270.056C234.723 271.544 231.881 272.733 230.36 270.155Z" fill="#7C9AF2"/>
<path opacity="0.74" d="M376.838 273.593H236.376C232.707 273.593 229.733 270.618 229.733 266.95V266.421C229.733 262.752 232.707 259.778 236.376 259.778H376.838C380.507 259.778 383.481 262.752 383.481 266.421V266.95C383.448 270.618 380.507 273.593 376.838 273.593Z" fill="#7C9AF2"/>
<path opacity="0.74" d="M245.663 266.487L231.65 294.976C231.286 295.736 230.658 296.199 229.997 296.199C228.774 296.199 227.816 294.678 228.014 292.993L231.055 266.487H245.663Z" fill="#7C9AF2"/>
<path opacity="0.74" d="M363.684 266.487L377.697 294.976C378.061 295.736 378.689 296.199 379.35 296.199C380.573 296.199 381.531 294.678 381.333 292.993L378.292 266.487H363.684Z" fill="#7C9AF2"/>
<g opacity="0.74">
<g opacity="0.74">
<g opacity="0.74">
<path opacity="0.74" d="M296.956 233.14H293.255C292.66 233.14 292.197 232.677 292.197 232.082C292.197 231.487 292.66 231.024 293.255 231.024H295.899V224.051H293.255C292.66 224.051 292.197 223.588 292.197 222.993C292.197 222.398 292.66 221.936 293.255 221.936H296.956C297.551 221.936 298.014 222.398 298.014 222.993V232.082C298.047 232.644 297.551 233.14 296.956 233.14Z" fill="#92B5F8"/>
</g>
<path opacity="0.74" d="M290.577 237.337H282.084C280.596 237.337 279.374 236.114 279.374 234.627V220.382C279.374 218.895 280.596 217.672 282.084 217.672H290.577C292.065 217.672 293.288 218.895 293.288 220.382V234.627C293.255 236.114 292.065 237.337 290.577 237.337Z" fill="#92B5F8"/>
</g>
<path opacity="0.74" d="M272.665 228.975L275.474 227.422C275.474 227.422 276.73 223.456 279.374 223.456L279.473 227.488C279.473 227.488 281.654 229.239 286.909 226.397C292.032 225.34 289.784 229.008 291.47 229.306C293.949 229.735 289.553 234.561 284.463 235.222C277.853 236.081 277.093 234.726 277.093 234.726L273.359 235.949L272.665 228.975Z" fill="#F37A50"/>
<path opacity="0.74" d="M247.613 242.922C254.322 236.477 272.995 227.488 272.995 227.488C275.903 231.355 275.903 235.222 275.903 235.222C264.964 251.02 247.712 259.381 240.639 261.298C234.194 263.05 217.636 230.661 223.949 214.334C236.343 216.086 247.613 242.922 247.613 242.922Z" fill="#8A284C"/>
<path opacity="0.74" d="M284.959 215.821C284.959 215.821 280.464 214.003 281.852 210.698C283.24 207.393 288.297 207.823 285.422 203.064C288.892 204.981 289.421 209.244 286.711 210.269C284.034 211.293 283.901 213.937 284.959 215.821Z" fill="white"/>
<path opacity="0.74" d="M289.189 215.821C289.189 215.821 285.984 214.532 286.975 212.186C287.967 209.839 291.569 210.137 289.52 206.766C291.999 208.121 292.362 211.161 290.445 211.888C288.528 212.615 288.429 214.466 289.189 215.821Z" fill="white"/>
</g>
</g>
<g opacity="0.74">
<g opacity="0.74">
<path opacity="0.74" d="M425.157 296.43C423.802 296.43 422.712 295.339 422.712 293.984V250.755H427.603V293.984C427.603 295.339 426.512 296.43 425.157 296.43Z" fill="#EB695F"/>
<path opacity="0.74" d="M442.31 296.43C440.955 296.43 439.864 295.339 439.864 293.984V250.755H444.756V293.984C444.723 295.339 443.632 296.43 442.31 296.43Z" fill="#EB695F"/>
<path opacity="0.74" d="M464.784 296.43C463.429 296.43 462.338 295.339 462.338 293.984V250.755H467.23V293.984C467.197 295.339 466.106 296.43 464.784 296.43Z" fill="#EB695F"/>
<path opacity="0.74" d="M481.904 296.43C480.549 296.43 479.458 295.339 479.458 293.984V250.755H484.35V293.984C484.35 295.339 483.259 296.43 481.904 296.43Z" fill="#EB695F"/>
<path opacity="0.74" d="M454.902 186.539V237.998C454.902 238.593 454.439 239.055 453.845 239.055H421.951C418.745 239.055 416.135 241.666 416.135 244.872C416.135 248.078 418.745 250.689 421.951 250.689H454.935H460.752C463.958 250.689 466.569 248.078 466.569 244.872V239.055V186.539C466.569 183.333 463.958 180.722 460.752 180.722C457.513 180.722 454.902 183.333 454.902 186.539Z" fill="#FD7166"/>
<path opacity="0.74" d="M485.936 180.722H460.719V240.014H485.936V180.722Z" fill="#FD7166"/>
<path opacity="0.74" d="M480.119 186.539V237.998C480.119 238.593 479.657 239.055 479.062 239.055H447.169C443.963 239.055 441.352 241.666 441.352 244.872C441.352 248.078 443.963 250.689 447.169 250.689H480.152H485.969C489.175 250.689 491.786 248.078 491.786 244.872V239.055V186.539C491.786 183.333 489.175 180.722 485.969 180.722C482.73 180.722 480.119 183.333 480.119 186.539Z" fill="#EB695F"/>
</g>
<g opacity="0.74">
<path opacity="0.74" d="M473.344 135.609C473.344 140.765 469.18 144.929 464.024 144.929C458.868 144.929 454.671 140.765 454.671 135.609C454.671 130.453 458.835 126.289 463.991 126.289C469.147 126.289 473.344 130.453 473.344 135.609Z" fill="#211E42"/>
<path opacity="0.74" d="M447.565 158.744C445.219 156.794 441.286 149.358 444.789 141.591C448.292 133.824 453.613 131.973 458.637 134.353C463.396 133.394 467.164 133.361 470.337 136.369C473.509 139.377 480.417 155.802 466.536 160.958C455.96 162.148 447.565 158.744 447.565 158.744Z" fill="#0B0754"/>
<g opacity="0.74">
<path opacity="0.74" d="M429.222 183.234C429.619 185.779 423.339 191.827 421.29 191.067C412.73 183.862 407.343 166.841 407.343 166.841L411.111 163.47C411.078 163.47 419.406 172.988 429.222 183.234Z" fill="#F37A50"/>
<path opacity="0.74" d="M454.439 183.135C447.631 186.704 423.769 192.257 421.257 191.067L425.157 181.416C425.157 181.416 448.061 172.228 452.126 170.84C459.166 168.427 465.544 177.318 454.439 183.135Z" fill="#F37A50"/>
</g>
<g opacity="0.74">
<g opacity="0.74">
<g opacity="0.74">
<path opacity="0.74" d="M444.326 206.17C444.491 203.295 439.831 191.529 442.277 185.58C444.062 180.821 447.169 172.459 450.804 171.137C452.523 170.509 454.935 169.981 457.084 169.386C457.084 169.386 455.068 175.831 457.579 176.029C462.405 176.425 466.536 168.097 466.536 168.097C469.147 167.832 477.641 170.08 480.053 171.435C480.02 179.136 473.807 191.695 471.758 200.023C470.965 209.013 474.104 219.754 474.104 220.779C474.104 220.779 454.869 226.199 443.434 219.919C443.203 219.027 444.128 210.136 444.326 206.17Z" fill="#92B5F8"/>
</g>
</g>
</g>
<path opacity="0.74" d="M472.353 211.525C472.353 211.525 475.492 222.233 476.517 229.008C477.541 235.75 471.692 240.08 471.692 240.08H423.075C423.075 240.08 417.853 231.652 419.373 225.802C420.861 219.985 421.885 218.498 421.885 218.498L472.353 211.525Z" fill="#0B0754"/>
<path opacity="0.74" d="M422.414 218.762C428.627 217.87 442.806 224.877 450.474 240.08H432.825L422.414 218.762Z" fill="#DE623C"/>
<g opacity="0.74">
<path opacity="0.74" d="M429.222 224.348C428.429 223.456 427.702 222.398 427.041 221.241C425.223 218.035 420.861 217.507 418.382 220.217C409.425 230.099 390.323 252.639 386.059 255.415C384.869 256.208 377.83 260.24 371.154 259.447C371.154 259.447 367.848 260.703 370.063 263.314C371.187 264.669 388.174 266.057 388.174 266.057L389.496 261.066C399.378 253.762 411.673 254.291 422.084 240.906C427.834 233.602 429.222 224.348 429.222 224.348Z" fill="#DE623C"/>
<path opacity="0.74" d="M384.737 268.932L377.896 273.361L376.97 272.237L382.523 267.082C379.383 264.603 372.079 266.685 372.079 266.685C369.699 265.132 365.039 260.141 364.577 257.464C366.097 255.547 371.187 259.48 371.187 259.48C370.988 260.339 372.608 263.281 373.897 263.777C379.449 264.966 385.001 263.413 389.529 261.1C389.496 261.067 393.264 266.817 384.737 268.932Z" fill="#060534"/>
</g>
<g opacity="0.74">
<path opacity="0.74" d="M429.322 225.703C430.577 226.034 431.503 227.091 431.668 228.347C432.164 231.784 434.676 238.791 431.271 246.095C422.943 264.041 418.018 275.873 417.126 280.533C419.307 284.598 410.615 295.769 410.483 296.496L404.104 295.439C404.104 295.439 407.806 289.192 409.095 287.11C412.169 282.119 412.664 276.038 413.16 271.279C415.308 251.085 411.64 238.328 426.248 226.463C427.14 225.736 428.231 225.406 429.322 225.703Z" fill="#F37A50"/>
<path opacity="0.74" d="M420.233 289.886L419.605 298.016L418.151 298.082L417.39 290.547C413.524 291.539 410.747 298.578 410.747 298.578C408.07 299.537 401.262 300.198 398.849 298.975C398.254 296.595 404.468 294.943 404.468 294.943C405.03 295.604 408.335 296.099 409.525 295.405C413.854 291.704 416.201 285.523 417.126 280.533C417.126 280.5 423.736 281.822 420.233 289.886Z" fill="#060534"/>
</g>
<g opacity="0.74">
<g opacity="0.74">
<g opacity="0.74">
<path opacity="0.74" d="M457.976 163.8L466.569 160.528V168.097C466.569 168.097 462.834 177.086 457.877 176.492C454.902 176.128 456.555 171.171 456.951 169.419C457.282 168.031 457.976 163.8 457.976 163.8Z" fill="#F37A50"/>
</g>
</g>
</g>
<g opacity="0.74">
<path opacity="0.74" d="M469.345 151.01C469.477 159.306 464.288 166.147 457.778 166.246C451.267 166.345 445.846 159.702 445.714 151.407C445.582 143.111 450.771 136.27 457.282 136.171C463.793 136.038 469.213 142.681 469.345 151.01Z" fill="#F37A50"/>
<path opacity="0.74" d="M449.118 152.696C448.986 153.323 448.391 153.687 447.763 153.555C447.135 153.423 446.772 152.828 446.904 152.2C447.036 151.572 447.631 151.208 448.259 151.34C448.854 151.473 449.251 152.068 449.118 152.696Z" fill="black"/>
<path opacity="0.74" d="M458.306 152.596C458.174 153.257 457.513 153.687 456.852 153.555C456.191 153.423 455.761 152.762 455.894 152.101C456.026 151.44 456.687 151.01 457.348 151.142C458.009 151.308 458.439 151.935 458.306 152.596Z" fill="black"/>
<g opacity="0.74">
<path opacity="0.74" d="M459.364 151.274C459.265 151.241 459.199 151.208 459.133 151.142C458.207 150.019 456.522 150.184 456.522 150.184C456.29 150.217 456.092 150.052 456.059 149.82C456.026 149.589 456.191 149.391 456.423 149.358C456.522 149.358 458.571 149.126 459.794 150.647C459.959 150.845 459.926 151.109 459.728 151.241C459.628 151.274 459.496 151.308 459.364 151.274Z" fill="#0B0754"/>
</g>
<g opacity="0.74">
<path opacity="0.74" d="M446.309 151.704C446.276 151.704 446.21 151.671 446.177 151.638C445.979 151.506 445.913 151.241 446.045 151.043C447.003 149.457 448.689 149.589 448.755 149.589C448.986 149.622 449.152 149.82 449.152 150.052C449.119 150.283 448.92 150.448 448.689 150.448C448.623 150.448 447.433 150.382 446.772 151.473C446.673 151.671 446.474 151.737 446.309 151.704Z" fill="#0B0754"/>
</g>
<path opacity="0.74" d="M450.44 154.91C450.011 155.67 449.647 156.463 449.152 156.959C448.986 157.124 448.986 157.422 449.152 157.587C449.813 158.281 451.366 158.612 452.291 158.777C452.423 158.81 452.49 158.612 452.357 158.545C451.333 158.017 450.837 157.587 450.606 157.323C450.507 157.19 450.44 157.025 450.474 156.86C450.573 156.463 450.738 155.703 450.804 155.042C450.837 154.811 450.54 154.712 450.44 154.91Z" fill="#DE623C"/>
<g opacity="0.74">
<path opacity="0.74" d="M455.596 162.214C453.547 162.743 451.729 162.115 451.696 162.115C451.399 162.016 451.267 161.685 451.366 161.421C451.465 161.123 451.795 160.991 452.06 161.09C452.225 161.156 456.026 162.445 458.505 158.81C458.67 158.545 459 158.479 459.265 158.678C459.529 158.843 459.595 159.173 459.397 159.438C458.306 161.123 456.918 161.884 455.596 162.214Z" fill="#DE623C"/>
</g>
</g>
<path opacity="0.74" d="M469.312 150.283C461.711 151.175 449.548 146.35 447.73 142.715C447.962 137.757 454.935 133.494 459.761 134.518C464.553 135.543 470.931 143.673 469.312 150.283Z" fill="#0B0754"/>
<path opacity="0.74" d="M426.215 216.614C427.074 215.92 427.206 214.631 426.479 213.772L401.361 183.267C400.667 182.408 399.378 182.275 398.519 183.002C397.66 183.697 397.527 184.985 398.255 185.845L423.373 216.35C424.1 217.209 425.389 217.341 426.215 216.614Z" fill="#92B5F8"/>
<path opacity="0.74" d="M459.562 203.196C462.272 204.254 463.429 212.946 462.636 213.574C450.672 217.672 427.239 212.979 427.239 212.979L427.372 207.36C427.339 207.393 443.93 206.798 459.562 203.196Z" fill="#F37A50"/>
<path opacity="0.74" d="M482.829 183.432C479.855 191.331 465.544 212.714 462.603 213.607L456.687 204.452C456.687 204.452 469.576 179.103 471.923 174.971C475.955 167.866 487.721 170.543 482.829 183.432Z" fill="#F37A50"/>
<g opacity="0.74">
<path opacity="0.74" d="M407.178 156.001C406.715 155.34 403.377 153.489 402.419 153.489C401.295 153.489 397.924 154.679 397.197 154.943C396.47 155.207 396.833 155.902 397.825 156.166C399.147 156.463 400.535 156.331 401.791 155.835C403.245 156.629 404.237 157.29 404.369 157.422C405.195 158.017 405.393 159.207 404.798 160.033C404.402 160.595 403.741 160.859 403.08 160.793L402.915 160.76C403.245 162.346 403.377 163.966 403.278 165.585C404.633 166.345 405.625 167.403 407.542 166.742L411.21 163.602C410.946 162.346 407.905 157.091 407.178 156.001Z" fill="#F37A50"/>
<g opacity="0.74">
<path opacity="0.74" d="M392.867 155.935L392.372 155.736C392.239 155.67 392.14 155.505 392.206 155.373C392.239 155.207 392.405 155.108 392.57 155.141L393.099 155.24C393.264 155.274 393.396 155.439 393.363 155.637L393.33 155.769C393.231 155.902 393.033 156.001 392.867 155.935Z" fill="#0B0754"/>
<path opacity="0.74" d="M419.241 163.272L417.192 162.809C417.093 162.776 417.06 162.71 417.06 162.611L417.258 161.751C417.291 161.652 417.357 161.619 417.457 161.619L419.506 162.082C419.605 162.115 419.638 162.181 419.638 162.28L419.44 163.139C419.407 163.239 419.34 163.305 419.241 163.272Z" fill="#0B0754"/>
<path opacity="0.74" d="M418.481 161.685L418.283 162.478L418.085 163.272C418.052 163.404 417.886 163.503 417.754 163.437L399.18 158.38C398.618 158.215 392.636 156.265 392.735 155.902L392.867 155.505L392.967 155.174C393.033 154.91 399.18 156.166 399.742 156.298L418.25 161.355C418.382 161.355 418.481 161.487 418.481 161.619C418.481 161.652 418.481 161.685 418.481 161.685Z" fill="#0B0754"/>
</g>
<path opacity="0.74" d="M400.899 157.984C400.37 157.521 399.477 157.025 398.783 157.025C396.47 157.124 398.519 158.843 398.982 159.768C399.477 160.727 399.94 164.891 405.922 166.874C406.12 167.205 405.195 160.826 403.774 160.694C402.419 160.628 401.427 158.446 400.899 157.984Z" fill="#F37A50"/>
</g>
<g opacity="0.74">
<path opacity="0.74" d="M415.804 207.459C416.068 206.831 416.531 206.567 416.994 206.468C418.712 206.104 420.596 207.195 420.332 206.798C420.134 206.534 419.803 205.939 418.878 204.948C417.589 203.56 418.316 202.601 418.944 202.998C420.563 203.989 422.216 204.088 423.604 205.443C424.926 206.732 425.752 207.129 427.339 207.393L427.206 213.012C425.422 213.111 425.884 213.838 423.835 214.962C422.15 215.887 420.101 215.623 418.679 215.524C415.507 215.292 413.887 211.987 415.804 207.459Z" fill="#F37A50"/>
</g>
<path opacity="0.74" d="M466.965 150.977C466.04 152.696 466.437 154.712 467.858 155.472C469.279 156.232 471.163 155.439 472.088 153.72C473.014 152.002 472.617 149.985 471.196 149.225C469.775 148.465 467.891 149.258 466.965 150.977Z" fill="#F37A50"/>
<g opacity="0.74">
<path opacity="0.74" d="M468.75 154.679C468.684 154.679 468.618 154.646 468.585 154.58C467.825 153.952 467.527 153.125 467.858 152.332C468.188 151.506 469.015 150.977 469.841 151.01C470.072 151.01 470.237 151.241 470.237 151.473C470.237 151.704 470.006 151.869 469.775 151.869C469.312 151.836 468.816 152.167 468.651 152.63C468.486 153.059 468.651 153.522 469.114 153.919C469.312 154.051 469.312 154.348 469.18 154.513C469.081 154.646 468.915 154.712 468.75 154.679Z" fill="#DE623C"/>
</g>
</g>
</g>
<path opacity="0.74" d="M238.78 178.765C246.369 171.176 246.369 158.871 238.78 151.282C231.191 143.693 218.886 143.693 211.297 151.282C203.708 158.871 203.708 171.176 211.297 178.765C218.886 186.354 231.191 186.354 238.78 178.765Z" fill="white"/>
<g opacity="0.74">
<path opacity="0.74" d="M212.018 171.336C215.488 175.533 220.512 179.697 226.328 178.375C230.757 177.384 233.93 173.583 235.748 169.617C237.532 165.717 238.557 160.925 237.334 156.728C236.838 155.009 235.88 153.456 234.393 152.464C232.641 151.308 230.427 151.208 228.41 151.572C225.139 152.134 222.131 153.72 219.355 155.505C216.711 157.19 213.439 159.306 212.282 162.379C210.563 166.973 216.711 168.626 220.049 168.56C224.973 168.46 230.36 165.684 230.493 160.165C230.526 158.512 230.129 156.86 229.534 155.307C229.237 154.546 228.972 153.621 228.477 152.96C227.948 152.233 227.155 151.704 226.394 151.308C224.742 150.448 222.594 149.952 220.743 150.481C220.016 150.68 219.289 151.076 218.925 151.737C218.429 152.63 218.628 154.018 218.727 154.976C219.355 161.289 223.618 166.94 228.51 170.675C229.699 171.6 230.988 172.426 232.31 173.154C233.467 173.782 234.756 174.476 236.012 174.74C237.499 175.037 238.887 174.244 239.317 172.79C239.846 171.071 239.449 169.055 238.92 167.403C238.359 165.684 237.4 163.9 235.814 162.941C230.625 159.801 224.709 162.016 219.19 162.71C216.281 163.073 213.174 163.073 210.894 161.024C209.043 159.339 207.556 157.257 206.763 154.877C205.242 150.349 206.3 145.425 208.614 141.393C211.059 137.063 214.893 133.394 219.355 131.213C221.602 130.122 224.048 129.395 226.56 129.23C227.122 129.197 227.683 129.23 228.278 129.197C228.873 129.164 229.435 128.999 230.03 128.966C230.955 128.933 231.881 128.999 232.74 129.296C235.186 130.122 237.003 132.866 236.144 135.444C235.847 136.336 235.252 136.964 234.359 136.898C232.74 136.732 230.427 135.179 230.063 133.626C228.939 128.569 233.632 124.636 238.16 123.777C240.672 123.281 242.919 123.81 245.2 124.934C247.745 126.223 250.422 127.974 253.396 127.842C255.776 127.71 257.825 126.355 258.618 124.107C259.345 122.025 259.213 119.745 259.676 117.597C259.907 116.572 260.238 115.514 260.998 114.787C261.923 113.928 262.915 114.126 264.038 114.424C266.451 115.052 268.5 116.605 270.384 118.191C273.887 121.133 277.523 125.066 282.447 125.198C284.496 125.264 286.843 124.471 288.661 123.579C290.115 122.851 291.437 121.86 292.461 120.571C295.899 116.142 294.544 109.433 291.866 104.971C291.172 103.815 289.784 101.766 288.198 102.823C287.57 103.253 287.537 104.046 287.57 104.74C287.603 105.368 287.702 105.996 287.834 106.591C288.066 107.781 288.628 108.706 289.289 109.764C291.536 113.3 294.61 116.836 298.84 117.927C302.013 118.753 305.384 117.927 308.094 116.175C313.415 112.738 317.348 105.798 317.15 99.419C317.084 96.8081 316.059 94.3293 313.779 92.9412C313.448 92.7429 312.49 92.9412 312.457 93.4039C311.465 101.931 311.63 110.623 312.457 119.15C313.349 128.106 315.035 137.03 317.811 145.59C318.901 148.928 319.893 152.497 322.933 154.546C325.28 156.133 328.255 156.463 330.932 155.538C333.939 154.48 335.592 152.134 336.748 149.291C337.74 146.879 337.839 144.202 337.905 141.624C337.971 138.418 337.839 135.146 338.5 132.006C339.095 129.197 340.582 126.851 343.656 126.52C343.458 126.487 343.259 126.421 343.061 126.388C344.35 127.974 344.614 130.023 344.978 131.973C345.308 133.824 345.837 135.609 346.696 137.261C347.952 139.674 350.299 141.227 353.042 141.26C355.686 141.293 358.297 140.037 359.916 137.922C362.263 134.849 361.899 130.585 361.47 126.983C360.875 122.223 359.553 117.596 358.991 112.87C358.594 109.664 358.396 106.062 360.148 103.187C360.313 102.922 360.511 102.658 360.743 102.46C360.776 102.427 360.941 102.294 360.908 102.36C360.974 102.327 360.974 102.327 360.941 102.327C361.371 102.36 361.833 102.658 362.23 103.021C363.585 104.277 364.444 106.062 365.204 107.715C367.154 111.912 368.576 116.506 369.27 121.1C369.567 123.05 369.435 124.768 369.336 126.718C369.137 130.056 369.137 133.394 369.468 136.699C369.732 139.277 370.162 141.855 370.988 144.334C371.517 145.92 372.211 147.639 373.368 148.862C374.194 149.754 375.285 150.25 376.474 149.952C377.863 149.622 378.788 148.498 379.416 147.275C380.54 145.127 381.035 142.681 381.432 140.302C381.729 138.484 381.928 136.666 382.06 134.849C382.126 133.824 382.192 132.799 382.225 131.775C382.291 130.585 382.027 128.933 382.589 127.875C382.985 127.181 383.613 126.289 384.44 126.057C385.134 125.892 385.927 126.256 386.489 126.619C387.91 127.512 389 128.9 389.992 130.222C390.455 130.883 390.752 131.213 391.545 131.478C392.206 131.709 392.933 131.742 393.627 131.676C395.247 131.544 396.734 130.85 398.221 130.255C399.709 129.66 401.394 128.933 403.014 129.495C403.344 129.627 403.774 129.561 404.071 129.362C404.236 129.263 404.567 128.9 404.203 128.767C401.89 127.941 399.576 128.833 397.428 129.693C396.304 130.155 395.181 130.684 393.958 130.817C393.396 130.883 392.735 130.816 392.206 130.519C391.677 130.222 391.347 129.528 390.95 129.032C389.661 127.379 387.91 125.33 385.662 125.132C384.638 125.033 383.646 125.33 382.82 125.958C382.357 126.289 381.994 126.718 381.63 127.181C381.399 127.512 381.135 127.875 380.969 128.239C380.804 128.668 380.837 129.098 380.837 129.561C380.738 134.716 380.507 140.17 378.887 145.094C378.49 146.284 377.995 147.606 377.135 148.531C377.003 148.663 376.838 148.796 376.739 148.895C376.574 149.027 376.474 149.06 376.474 149.06C376.375 149.093 376.408 149.126 376.243 149.093C376.177 149.093 376.012 149.06 375.88 148.994C373.797 148.168 372.872 144.995 372.31 143.078C371.054 138.881 370.724 134.419 370.757 130.056C370.79 127.974 371.054 125.892 371.087 123.843C371.12 122.521 370.922 121.199 370.691 119.91C370.063 116.407 369.038 112.969 367.749 109.631C366.758 107.087 365.568 103.914 363.387 102.129C361.503 100.576 359.421 101.766 358.495 103.749C357.504 105.831 357.239 108.012 357.339 110.326C357.504 113.961 358.264 117.53 358.991 121.1C359.718 124.702 360.412 128.338 360.346 132.006C360.28 134.617 359.718 137.129 357.636 138.914C356.149 140.17 354.166 140.698 352.249 140.203C349.935 139.575 348.646 137.79 347.754 135.675C347.159 134.287 346.762 132.932 346.498 131.411C346.234 129.99 346.002 128.569 345.407 127.247C345.209 126.817 344.879 125.991 344.449 125.76C344.019 125.528 343.358 125.727 342.929 125.826C342.036 126.024 341.177 126.322 340.384 126.817C337.178 128.833 336.748 133.097 336.583 136.534C336.418 140.5 336.914 144.863 335.625 148.697C334.898 150.812 333.84 152.927 331.89 154.183C330.105 155.34 327.891 155.505 325.941 154.778C323.727 153.952 321.975 152.134 321.05 149.986C319.827 147.143 318.934 144.136 318.108 141.161C314.539 128.47 312.952 115.085 313.316 101.931C313.415 99.0224 313.613 96.114 313.944 93.2386C313.514 93.4039 313.051 93.5361 312.622 93.7013C317.91 96.8741 315.431 105.037 313.052 109.202C310.077 114.457 304.26 119.513 297.981 116.44C296.163 115.547 294.61 114.192 293.288 112.672C292.461 111.714 291.701 110.689 291.007 109.631C290.313 108.574 289.652 107.582 289.388 106.326C289.189 105.401 288.991 104.376 289.189 103.418C289.189 103.352 289.289 103.187 289.289 103.187C289.355 103.286 288.859 103.352 288.727 103.385C288.661 103.418 288.694 103.352 288.793 103.418C288.892 103.517 288.991 103.517 289.09 103.616C290.578 104.806 291.47 106.987 292.065 108.706C292.957 111.251 293.42 114.06 292.858 116.737C292.23 119.778 290.214 122.091 287.372 123.281C285.356 124.107 283.174 124.603 281.059 123.975C278.812 123.314 276.895 121.86 275.11 120.373C271.673 117.497 268.269 113.829 263.576 113.3C261.527 113.069 259.709 114.126 258.816 115.977C257.957 117.861 257.99 120.009 257.693 122.025C257.362 124.339 256.503 126.884 253.727 126.95C250.818 127.049 248.141 124.934 245.596 123.777C241.465 121.926 236.607 122.62 232.872 125.132C231.154 126.289 229.699 127.842 228.939 129.792C228.543 130.783 228.41 131.874 228.477 132.932C228.51 133.46 228.609 133.956 228.741 134.452C228.906 135.047 229.27 135.344 229.732 135.741C231.649 137.393 234.954 138.914 236.97 136.534C238.458 134.783 237.929 132.039 236.574 130.387C235.648 129.263 234.326 128.569 232.905 128.272C232.013 128.073 231.054 128.04 230.129 128.106C229.005 128.173 227.882 128.272 226.758 128.338C217.603 128.966 208.977 135.939 205.771 144.4C204.218 148.465 204.053 153.059 206.036 156.992C207.093 159.107 208.713 161.09 210.63 162.445C212.646 163.866 215.752 163.833 218.066 163.602C223.519 163.073 229.369 160.528 234.492 163.536C236.078 164.461 237.003 166.312 237.532 167.998C238.028 169.551 238.425 171.6 237.764 173.154C237.532 173.682 237.334 173.947 236.772 173.815C235.483 173.55 234.095 172.724 232.971 172.063C230.228 170.51 227.783 168.46 225.7 166.081C223.651 163.734 221.966 161.024 220.974 158.083C220.512 156.695 220.214 155.274 220.148 153.786C220.115 153.026 219.917 151.671 220.743 151.208C222.164 150.448 224.643 151.506 225.866 152.299C227.419 153.291 227.948 155.075 228.444 156.761C229.204 159.306 229.303 162.148 227.683 164.362C225.238 167.733 219.751 168.427 216.116 166.808C214.629 166.147 213.307 164.891 213.505 163.139C213.802 160.396 216.711 158.314 218.76 156.86C221.437 155.009 224.378 153.191 227.584 152.431C229.369 152.002 231.352 152.002 232.971 152.96C236.177 154.877 236.541 159.405 236.177 162.71C235.715 166.973 233.996 171.402 230.988 174.509C229.666 175.897 228.047 177.02 226.229 177.45C224.246 177.946 222.098 177.483 220.247 176.558C217.504 175.203 215.257 172.955 213.307 170.609C213.042 170.344 211.621 170.873 212.018 171.336Z" fill="#060534"/>
</g>
<g opacity="0.74">
<g opacity="0.74">
<path opacity="0.74" d="M235.351 290.25V294.15H236.409C236.937 294.15 237.334 294.579 237.334 295.075V295.24C237.334 295.769 236.904 296.166 236.409 296.166H191.229C190.634 296.166 190.139 295.67 190.139 295.075V289.457C190.139 288.862 190.634 288.366 191.229 288.366H236.409C236.937 288.366 237.334 288.796 237.334 289.291C237.334 289.82 236.904 290.217 236.409 290.217H235.351V290.25Z" fill="#FD7166"/>
<path opacity="0.74" d="M235.483 294.117H197.079C196.055 294.117 195.195 293.29 195.195 292.233V292.101C195.195 291.076 196.022 290.217 197.079 290.217H235.516V294.117H235.483Z" fill="white"/>
</g>
<g opacity="0.74">
<path opacity="0.74" d="M186.173 281.822V286.119H185.115C184.586 286.119 184.19 286.581 184.19 287.143V287.308C184.19 287.87 184.619 288.333 185.115 288.333H230.261C230.856 288.333 231.352 287.804 231.352 287.143V280.93C231.352 280.269 230.856 279.74 230.261 279.74H185.115C184.586 279.74 184.19 280.203 184.19 280.764C184.19 281.326 184.619 281.789 185.115 281.789H186.173V281.822Z" fill="#92B5F8"/>
<path opacity="0.74" d="M186.04 286.152H224.279C225.436 286.152 226.361 285.226 226.361 284.069V283.904C226.361 282.747 225.436 281.822 224.279 281.822H186.04V286.152Z" fill="white"/>
</g>
<path opacity="0.74" d="M228.972 275.774H191.229C189.378 275.774 187.858 274.254 187.858 272.403V272.138C187.858 270.288 189.378 268.767 191.229 268.767H229.005C230.856 268.767 232.377 270.288 232.377 272.138V272.403C232.343 274.287 230.823 275.774 228.972 275.774Z" fill="#FD7166"/>
<path opacity="0.74" d="M233.335 279.773H192.683C191.626 279.773 190.767 278.914 190.767 277.856V277.691C190.767 276.633 191.626 275.774 192.683 275.774H233.335C234.393 275.774 235.252 276.633 235.252 277.691V277.856C235.252 278.914 234.393 279.773 233.335 279.773Z" fill="#768FDB"/>
</g>
<g opacity="0.74">
<path opacity="0.74" d="M260.238 172.129C261.196 171.402 262.32 171.038 263.642 171.038C266.517 171.038 268.037 172.592 268.037 174.806C268.037 176.062 267.443 177.351 266.187 178.64C264.6 180.292 263.477 181.119 262.749 181.119C262.055 181.119 261.56 180.557 261.56 179.929C261.56 179.334 262.121 178.739 263.047 177.88C263.113 177.814 263.179 177.747 263.212 177.747C264.303 176.756 264.633 176.194 264.633 175.533C264.633 174.674 264.071 174.211 263.245 174.211C262.882 174.211 262.419 174.31 261.89 174.476C261.361 174.641 260.998 174.74 260.766 174.74C260.172 174.74 259.511 174.244 259.511 173.385C259.477 172.922 259.709 172.493 260.238 172.129ZM263.113 186.208C261.824 186.208 260.965 185.25 260.965 184.06C260.965 183.035 261.824 182.077 263.113 182.077C264.237 182.077 265.096 183.035 265.096 184.06C265.096 185.217 264.27 186.208 263.113 186.208Z" fill="white"/>
</g>
<g opacity="0.74">
<path opacity="0.74" d="M425.223 112.474C426.182 111.747 427.305 111.383 428.627 111.383C431.503 111.383 433.023 112.937 433.023 115.151C433.023 116.407 432.428 117.696 431.172 118.985C429.586 120.637 428.462 121.463 427.735 121.463C427.041 121.463 426.545 120.902 426.545 120.274C426.545 119.679 427.107 119.084 428.033 118.225C428.099 118.158 428.165 118.092 428.198 118.092C429.288 117.101 429.619 116.539 429.619 115.878C429.619 115.019 429.057 114.556 428.231 114.556C427.867 114.556 427.405 114.655 426.876 114.82C426.347 114.986 425.983 115.085 425.752 115.085C425.157 115.085 424.496 114.589 424.496 113.73C424.463 113.3 424.728 112.87 425.223 112.474ZM428.132 126.553C426.843 126.553 425.983 125.595 425.983 124.405C425.983 123.38 426.843 122.422 428.132 122.422C429.255 122.422 430.115 123.38 430.115 124.405C430.115 125.562 429.288 126.553 428.132 126.553Z" fill="white"/>
</g>
<g opacity="0.74">
<path opacity="0.74" d="M364.114 197.974C360.28 197.974 357.14 194.867 357.14 191.001C357.14 187.167 360.247 184.027 364.114 184.027C367.948 184.027 371.087 187.134 371.087 191.001C371.087 194.867 367.981 197.974 364.114 197.974ZM364.114 185.977C361.338 185.977 359.057 188.224 359.057 191.034C359.057 193.81 361.305 196.09 364.114 196.09C366.89 196.09 369.171 193.843 369.171 191.034C369.171 188.224 366.923 185.977 364.114 185.977Z" fill="white"/>
</g>
<g opacity="0.74">
<path opacity="0.74" d="M504.444 181.052C501.932 181.052 499.883 179.003 499.883 176.492C499.883 173.98 501.932 171.931 504.444 171.931C506.956 171.931 509.005 173.98 509.005 176.492C509.005 179.003 506.956 181.052 504.444 181.052ZM504.444 173.154C502.626 173.154 501.139 174.641 501.139 176.459C501.139 178.276 502.626 179.764 504.444 179.764C506.262 179.764 507.749 178.276 507.749 176.459C507.749 174.641 506.262 173.154 504.444 173.154Z" fill="white"/>
</g>
<g opacity="0.74">
<path opacity="0.74" d="M239.218 94.8912C236.706 94.8912 234.657 92.8421 234.657 90.2972C234.657 87.7854 236.706 85.7363 239.218 85.7363C241.73 85.7363 243.779 87.7854 243.779 90.2972C243.779 92.8421 241.73 94.8912 239.218 94.8912ZM239.218 86.9922C237.4 86.9922 235.913 88.4795 235.913 90.2972C235.913 92.115 237.4 93.6022 239.218 93.6022C241.036 93.6022 242.523 92.115 242.523 90.2972C242.523 88.4795 241.036 86.9922 239.218 86.9922Z" fill="#E3EAFF"/>
</g>
<g opacity="0.74">
<path opacity="0.74" d="M327.561 124.372C325.049 124.372 323 122.323 323 119.811C323 117.299 325.049 115.25 327.561 115.25C330.072 115.25 332.121 117.299 332.121 119.811C332.121 122.323 330.072 124.372 327.561 124.372ZM327.561 116.506C325.743 116.506 324.256 117.993 324.256 119.811C324.256 121.629 325.743 123.116 327.561 123.116C329.378 123.116 330.866 121.629 330.866 119.811C330.866 117.993 329.378 116.506 327.561 116.506Z" fill="#E3EAFF"/>
</g>
<g opacity="0.74">
<path opacity="0.74" d="M382.49 97.1387C379.35 97.1387 376.772 94.5608 376.772 91.421C376.772 88.2813 379.35 85.7034 382.49 85.7034C385.629 85.7034 388.207 88.2813 388.207 91.421C388.207 94.5608 385.662 97.1387 382.49 97.1387ZM382.49 87.2898C380.209 87.2898 378.358 89.1406 378.358 91.421C378.358 93.7015 380.209 95.5523 382.49 95.5523C384.77 95.5523 386.621 93.7015 386.621 91.421C386.621 89.1406 384.77 87.2898 382.49 87.2898Z" fill="#E3EAFF"/>
</g>
<path opacity="0.74" d="M233.269 104.476C233.269 108.309 230.162 111.416 226.328 111.416C222.495 111.416 219.388 108.309 219.388 104.476C219.388 100.642 222.495 97.5352 226.328 97.5352C230.162 97.5352 233.269 100.642 233.269 104.476Z" fill="#E3EAFF"/>
<path opacity="0.74" d="M298.708 146.482C298.708 150.316 295.601 153.423 291.767 153.423C287.934 153.423 284.827 150.316 284.827 146.482C284.827 142.648 287.934 139.542 291.767 139.542C295.601 139.542 298.708 142.648 298.708 146.482Z" fill="#E3EAFF"/>
<path opacity="0.74" d="M397.891 104.443C397.891 106.822 395.941 108.772 393.561 108.772C391.182 108.772 389.232 106.822 389.232 104.443C389.232 102.063 391.182 100.113 393.561 100.113C395.974 100.113 397.891 102.03 397.891 104.443Z" fill="#E3EAFF"/>
<path opacity="0.74" d="M379.713 179.929C379.713 182.11 377.929 183.895 375.747 183.895C373.566 183.895 371.781 182.11 371.781 179.929C371.781 177.748 373.566 175.963 375.747 175.963C377.962 175.963 379.713 177.748 379.713 179.929Z" fill="white"/>
<path opacity="0.74" d="M324.454 196.883L329.147 199.792L323.661 199.23C322.934 199.164 322.206 199.527 321.843 200.188L317.943 207.426L319.298 199.296C319.43 198.569 319.1 197.842 318.472 197.445L313.911 194.57L319.265 195.066C319.992 195.132 320.719 194.768 321.05 194.107L324.95 186.836L323.595 194.967C323.495 195.76 323.826 196.487 324.454 196.883Z" fill="white"/>
<path opacity="0.74" d="M492.546 150.547L496.182 152.828L491.918 152.398C491.356 152.332 490.795 152.63 490.53 153.158L487.523 158.777L488.58 152.464C488.679 151.902 488.415 151.341 487.919 151.01L484.383 148.763L488.547 149.159C489.109 149.225 489.671 148.928 489.935 148.399L492.943 142.748L491.885 149.06C491.786 149.655 492.05 150.25 492.546 150.547Z" fill="white"/>
<path opacity="0.74" d="M280.53 89.504L285.554 89.2396L281.158 91.6853C280.563 92.0158 280.233 92.6768 280.299 93.3378L281.191 100.774L277.953 93.9988C277.655 93.4039 277.027 93.0073 276.366 93.0403L271.442 93.2717L275.705 90.859C276.3 90.5285 276.631 89.8675 276.531 89.2065L275.639 81.7703L278.878 88.5455C279.241 89.1404 279.869 89.537 280.53 89.504Z" fill="#E3EAFF"/>
</g>
<path d="M424.595 214.631L438.84 208.385C440.03 209.905 456.456 214.334 463.561 247.979C465.049 254.985 453.184 274.088 445.847 279.938C438.509 285.755 434.543 273.031 434.543 273.031L444.822 249.169L424.595 214.631Z" fill="#D4DEFF"/>
<path d="M411.541 405.991C404.435 416.005 386.951 409.858 387.513 423.408C414.085 423.243 425.124 423.408 425.124 423.408C425.091 420.301 424.562 412.931 423.934 410.023L411.541 405.991Z" fill="black"/>
<path d="M452.787 405.991C445.681 416.005 428.198 409.858 428.76 423.408C455.332 423.243 466.371 423.408 466.371 423.408C466.338 420.301 465.809 412.931 465.181 410.023L452.787 405.991Z" fill="black"/>
<path d="M426.182 208.55L411.508 207.36L410.086 192.918L423.042 186.043L426.182 208.55Z" fill="#F37A50"/>
<path d="M410.913 163.206C403.113 163.206 397.164 170.344 395.776 178.012C393.264 191.893 401.46 200.816 403.609 201.577C407.707 202.998 416.531 198.569 416.531 198.569C416.531 198.569 426.711 189.315 426.711 183.531C426.744 175.732 418.713 163.206 410.913 163.206Z" fill="#F37A50"/>
<path d="M434.907 176.525C438.576 170.906 435.898 167.238 430.941 165.354C425.983 163.47 425.389 161.024 423.339 157.719C421.39 154.613 412.4 151.308 408.269 156.133C402.121 163.338 400.866 157.389 395.478 162.776C390.62 167.634 391.81 173.517 393.892 176.227C395.941 178.871 400.832 174.145 400.502 177.615C400.238 180.325 404.204 180.392 405.526 183.168C406.517 185.25 408.236 186.142 407.971 187.464C407.442 190.042 405.459 193.81 410.681 197.445C413.656 199.527 415.341 196.52 418.679 198.47C424.992 202.238 427.239 197.71 430.677 193.975C434.114 190.273 438.543 190.472 434.973 184.225C434.841 183.961 432.197 180.656 434.907 176.525Z" fill="#0B0754"/>
<path d="M404.303 181.714C402.915 183.697 403.113 186.241 404.766 187.365C406.385 188.489 408.831 187.795 410.219 185.812C411.607 183.829 411.409 181.284 409.756 180.16C408.137 179.004 405.691 179.698 404.303 181.714Z" fill="#F37A50"/>
<path d="M406.848 186.208C406.782 186.208 406.682 186.175 406.616 186.109C405.625 185.382 405.228 184.358 405.559 183.366C405.889 182.342 406.914 181.581 407.938 181.614C408.236 181.614 408.467 181.846 408.467 182.143C408.467 182.441 408.236 182.672 407.938 182.672C407.376 182.672 406.782 183.102 406.583 183.697C406.385 184.258 406.649 184.82 407.244 185.25C407.476 185.415 407.542 185.746 407.376 185.977C407.244 186.175 407.046 186.241 406.848 186.208Z" fill="#DE623C"/>
<path d="M442.376 294.315C442.376 294.315 449.251 328.687 453.613 353.045C458.141 360.646 467.362 398.984 467.263 410.948L447.4 409.527C447.4 409.527 435.337 374.032 432.362 362.728C428.66 348.616 420.2 328.885 416.498 300.528L415.606 292.596L442.376 294.315Z" fill="#060534"/>
<path d="M400.932 303.304L425.455 304.296L422.712 354.598C425.422 362.861 428.727 400.009 426.017 411.543L405.492 410.089C405.459 410.056 394.288 337.082 400.932 303.304Z" fill="#0B0754"/>
<path d="M401.758 205.708C401.758 205.708 435.535 205.014 439.765 208.98C455.497 223.786 443.632 270.42 458.736 341.114C454.208 339.527 438.774 328.489 419.836 336.784C407.244 342.303 398.618 344.551 387.414 340.552C382.291 296.529 396.668 237.7 396.668 237.7L401.758 205.708Z" fill="white"/>
<path d="M338.236 219.39C340.417 219.523 343.127 218.432 343.953 220.415L348.25 218.3L348.514 215.689C344.813 209.773 335.79 208.087 334.898 207.988C332.584 207.79 331.493 207.559 331.328 207.856C331.163 208.153 330.568 210.236 333.939 210.632C338.17 211.128 335.36 214.532 326.8 211.293C324.652 210.5 320.62 211.525 322.074 213.111C323.661 214.863 328.288 218.796 338.236 219.39Z" fill="#F37A50"/>
<path d="M342.301 220.415C343.226 226.926 353.604 256.638 362.23 260.439C367.188 256.77 368.609 248.441 367.188 242.592C364.544 231.652 348.514 215.689 348.514 215.689L342.301 220.415Z" fill="white"/>
<path d="M401.923 205.741C401.923 205.741 411.474 209.641 406.484 222.134C401.493 234.626 376.475 266.982 361.767 260.207C353.009 243.286 394.487 205.212 401.923 205.741Z" fill="white"/>
<path d="M407.013 205.939C409.591 203.923 417.721 200.42 427.008 201.378C428.099 203.394 428.032 206.633 428.032 206.633L407.013 205.939Z" fill="white"/>
<path d="M240.11 416.567C254.09 418.054 267.211 411.675 279.473 397.398C260.667 398.257 247.546 404.669 240.11 416.567Z" fill="#7C9AF2"/>
<path d="M255.445 394.126C268.269 393.564 279.175 385.996 288.231 371.421C271.442 374.792 260.502 382.36 255.445 394.126Z" fill="#7C9AF2"/>
<path d="M269.988 370.826C281.952 368.479 291.173 359.853 297.65 344.914C282.282 350.401 273.094 359.06 269.988 370.826Z" fill="#7C9AF2"/>
<path d="M299.105 320.49C287.372 327.761 281.291 336.52 280.795 346.831C290.28 342.766 296.394 333.975 299.105 320.49Z" fill="#7C9AF2"/>
<path d="M294.081 302.445C285.488 310.179 281.786 318.276 282.91 326.836C290.115 322.11 293.85 313.98 294.081 302.445Z" fill="#7C9AF2"/>
<path d="M277.622 319.499C282.679 312.492 283.241 303.569 279.341 292.728C274.119 303.007 273.524 311.93 277.622 319.499Z" fill="#7C9AF2"/>
<path d="M234.954 415.113C234.624 416.137 234.227 417.162 233.765 418.153H231.055C223.288 407.544 223.453 393.2 229.237 376.444C236.871 390.887 238.788 403.776 234.954 415.113Z" fill="#7C9AF2"/>
<path d="M261.361 374.097C262.948 362.596 257.957 351.623 246.456 341.18C246.72 356.713 251.678 367.686 261.361 374.097Z" fill="#7C9AF2"/>
<path d="M256.106 327.662C256.338 341.18 260.667 350.731 269.062 356.317C270.483 346.302 266.154 336.751 256.106 327.662Z" fill="#7C9AF2"/>
<path d="M273.392 336.982C274.747 326.968 270.417 317.45 260.436 308.328C260.634 321.845 264.964 331.397 273.392 336.982Z" fill="#7C9AF2"/>
<path d="M249.232 395.117C240.176 386.062 237.202 373.139 240.342 356.317C250.455 370.132 253.429 383.054 249.232 395.117Z" fill="#7C9AF2"/>
<path d="M273.127 352.417C269.987 362.596 265.79 372.412 260.535 381.666C257.924 386.161 255.016 390.689 251.777 395.216C243.812 406.487 242.391 409.891 235.219 418.12H232.344C233.335 417.029 234.194 416.005 234.988 415.08C240.408 408.602 242.093 405.131 249.265 395.117L250.058 393.994C253.132 389.664 255.974 385.202 258.552 380.575C263.807 371.454 268.071 361.77 271.243 351.723C274.978 340.221 277.159 331.232 276.267 324.853C276.168 324.258 275.771 322.672 277.258 322.639C278.019 322.606 278.151 324.225 278.184 324.787C278.514 331.364 277.027 340.585 273.127 352.417Z" fill="#7C9AF2"/>
<path d="M587.333 334.735C588.424 337.676 586.937 340.948 583.995 342.072C581.054 343.163 577.782 341.675 576.658 338.734C575.568 335.793 577.055 332.521 579.996 331.397C582.938 330.306 586.21 331.794 587.333 334.735Z" fill="#92B5F8"/>
<path d="M583.665 312.393C585.45 312.624 586.739 314.277 586.507 316.062C586.276 317.846 584.624 319.135 582.839 318.904C581.054 318.673 579.765 317.02 579.996 315.235C580.228 313.451 581.88 312.162 583.665 312.393Z" fill="#92B5F8"/>
<path d="M597.182 310.311C598.108 309.617 599.397 309.782 600.124 310.708C600.818 311.633 600.653 312.922 599.727 313.649C598.802 314.343 597.513 314.178 596.786 313.252C596.092 312.327 596.257 311.005 597.182 310.311Z" fill="#92B5F8"/>
<path d="M103.118 354.598C106.192 353.97 109.199 355.953 109.827 359.06C110.455 362.133 108.472 365.141 105.365 365.769C102.292 366.397 99.2842 364.414 98.6563 361.307C98.0283 358.234 100.044 355.226 103.118 354.598Z" fill="#92B5F8"/>
<path d="M80.4788 354.664C81.0076 352.912 82.8253 351.921 84.577 352.45C86.3286 352.979 87.3201 354.796 86.7913 356.548C86.2625 358.3 84.4448 359.291 82.6931 358.762C80.9415 358.233 79.95 356.416 80.4788 354.664Z" fill="#92B5F8"/>
<path d="M80.5449 340.981C79.983 339.957 80.3796 338.701 81.3711 338.139C82.3957 337.577 83.6516 337.974 84.2134 338.965C84.7753 339.99 84.3787 341.246 83.3872 341.808C82.3626 342.403 81.1067 342.006 80.5449 340.981Z" fill="#92B5F8"/>
<path d="M284.166 188.654C282.613 190.505 281.423 192.686 278.25 192.62C278.25 192.62 275.507 199.792 272.664 205.41C272.664 205.41 269.459 195.231 269.459 195.198C270.88 193.05 273.127 188.786 273.854 186.142C274.053 185.448 274.218 184.754 274.383 184.06C274.813 182.375 275.11 180.59 276.862 179.07C279.77 176.591 283.042 171.832 283.703 171.699C284.86 171.435 284.463 174.905 282.646 176.624C279.77 179.4 280.762 180.59 280.762 180.59C280.762 180.59 283.802 181.317 284.331 182.738C284.629 183.432 285.951 186.506 284.166 188.654Z" fill="#F37A50"/>
<path d="M235.682 346.6L219.454 347.195C219.454 347.195 216.413 359.919 215.554 370.859C214.86 379.848 217.901 394.655 217.901 406.354C217.901 408.536 216.38 411.94 216.116 413.559C215.191 419.475 232.344 416.435 232.344 416.435C231.286 415.906 226.725 409.858 226.56 407.776C226.064 400.934 228.906 384.773 231.683 370.793C234.161 358.432 235.682 346.6 235.682 346.6Z" fill="#F37A50"/>
<path d="M189.412 339.759C189.412 339.759 186.107 359.886 185.247 370.826C184.553 379.815 186.569 393.068 186.569 404.801C186.569 406.982 185.049 410.386 184.785 412.006C183.859 417.922 187.329 413.592 188.982 415.245C190.634 416.897 192.981 415.873 192.981 415.873L201.838 416.071C201.838 416.071 201.508 415.608 199.624 414.881C198.732 414.385 195.294 408.337 195.228 406.255C194.567 381.666 215.951 342.006 215.951 342.006L189.412 339.759Z" fill="#F37A50"/>
<path d="M194.534 415.013C191.163 415.311 188.949 413.097 186.272 411.378C186.404 413.394 186.239 414.187 186.272 416.203C187.693 417.129 188.651 418.285 189.147 418.979C189.445 419.376 189.874 419.64 190.37 419.673L198.071 420.268C198.038 420.301 195.592 414.914 194.534 415.013Z" fill="#18161A"/>
<path d="M199.459 414.749C199.459 414.749 199.261 415.08 198.633 414.914C196.782 414.352 194.468 412.469 192.023 410.75C190.172 409.428 187.693 407.412 186.074 407.61C184.917 407.742 183.033 410.585 183.33 413.295C183.463 414.419 183.793 415.311 184.917 416.633C186.041 417.955 186.702 422.417 186.702 422.417L188.024 422.384C188.024 422.384 188.024 414.518 192.155 416.335C195.129 417.624 195.823 420.929 198.467 420.268C200.649 419.574 203.227 418.219 202.797 416.633C202.599 415.707 201.706 415.41 199.459 414.749Z" fill="#FD7166"/>
<path d="M225.833 416.633C222.462 416.93 220.247 414.716 217.57 412.997C217.702 415.013 217.537 415.807 217.57 417.823C218.991 418.748 219.95 419.905 220.446 420.599C220.743 420.995 221.173 421.26 221.668 421.293L230.03 421.789C230.03 421.789 226.89 416.534 225.833 416.633Z" fill="#18161A"/>
<path d="M234.062 417.129C232.608 416.633 232.277 416.468 232.277 416.468C230.228 417.162 226.262 414.352 223.354 412.336C221.503 411.014 218.958 408.932 217.339 409.131C216.182 409.263 214.496 413.03 214.265 414.749C214.1 415.873 214.496 417.063 215.157 418.649C216.116 421.029 217.273 424.069 217.273 424.069L218.595 424.036C218.595 424.036 218.595 416.17 222.726 417.988C225.7 419.277 226.097 421.822 229.832 421.855C233.798 421.888 240.11 419.145 234.062 417.129Z" fill="#FD7166"/>
<path d="M220.181 180.557C218.033 176.26 214.926 174.608 214.926 174.608L214.364 174.443L191.593 179.433C191.593 179.433 200.252 196.916 200.715 197.379C201.144 197.809 214.397 210.467 214.397 210.467C214.397 210.467 220.974 212.119 223.486 206.567C228.014 196.421 222.329 184.886 220.181 180.557Z" fill="#F37A50"/>
<path d="M200.88 233.305L185.677 235.486C185.148 236.808 178.571 259.513 180.158 264.504C181.744 269.494 192.684 280.797 198.996 283.441C205.309 286.085 205.573 276.336 205.573 276.336L193.576 261.628L200.88 233.305Z" fill="#D4DEFF"/>
<path d="M249.926 290.878C246.952 272.403 242.027 263.512 242.027 263.512C240.639 253.994 239.846 236.973 237.136 231.09L219.652 214.036L193.212 216.978C193.212 216.978 199.624 274.088 199.723 274.154C190.403 290.25 186.602 306.51 183.198 316.194C178.042 330.802 166.012 344.881 166.012 344.881C177.745 340.188 193.84 355.556 207.258 357.242C220.677 358.928 230.658 356.548 236.012 355.755C244.506 354.499 250.223 360.679 250.223 360.679C250.851 359.556 254.322 318.21 249.926 290.878Z" fill="white"/>
<path d="M270.748 187.695L252.868 217.242C252.868 217.242 233.467 213.772 227.915 213.375C220.346 212.846 218.826 214.499 218.826 214.499C218.826 214.499 220.346 236.841 232.476 237.436C231.616 235.552 255.214 234.428 262.088 229.966C268.963 225.505 279.076 197.28 278.977 196.85C271.838 192.256 270.748 187.695 270.748 187.695Z" fill="white"/>
<path d="M211.291 169.65C204.78 170.873 195.823 163.635 186.735 171.171C174.837 181.053 184.355 193.182 175.795 200.42C168.458 206.633 140.894 218.432 157.882 232.974C151.305 235.056 147.306 253.069 166.012 252.903C164.459 258.257 175.035 270.221 191.659 256.704C200.483 269.858 215.554 250.821 215.224 238.163C215.091 233.8 213.505 228.281 211.588 223.423C224.246 230.165 220.611 202.799 216.909 189.811C220.545 189.315 231.121 165.916 211.291 169.65Z" fill="#060534"/>
<path d="M662.456 199.528C667.713 199.528 671.975 195.266 671.975 190.009C671.975 184.752 667.713 180.491 662.456 180.491C657.199 180.491 652.938 184.752 652.938 190.009C652.938 195.266 657.199 199.528 662.456 199.528Z" fill="#E3EAFF"/>
<path d="M674.552 204.386C676.965 204.386 678.948 206.369 678.948 208.781C678.948 211.194 676.965 213.177 674.552 213.177C672.14 213.177 670.157 211.194 670.157 208.781C670.157 206.336 672.107 204.386 674.552 204.386ZM674.552 201.775C670.686 201.775 667.546 204.915 667.546 208.781C667.546 212.648 670.686 215.788 674.552 215.788C678.419 215.788 681.559 212.648 681.559 208.781C681.526 204.915 678.419 201.775 674.552 201.775Z" fill="#E3EAFF"/>
<path d="M23.7319 272.271C26.2106 267.511 32.0605 265.661 36.8197 268.139C41.5789 270.618 43.4297 276.468 40.9509 281.227C38.4722 285.986 32.6223 287.837 27.8631 285.358C23.1039 282.88 21.2531 277.03 23.7319 272.271Z" fill="white"/>
<path d="M43.6281 170.113C46.1068 165.354 51.9567 163.503 56.7159 165.982C61.4751 168.46 63.3259 174.31 60.8471 179.069C58.3684 183.829 52.5185 185.679 47.7593 183.201C43.0332 180.722 41.1493 174.872 43.6281 170.113Z" fill="#E3EAFF"/>
<path d="M630.332 377.601C633.339 371.817 640.445 369.57 646.229 372.577C652.012 375.585 654.26 382.691 651.252 388.474C648.245 394.258 641.139 396.505 635.355 393.498C629.605 390.523 627.324 383.385 630.332 377.601Z" fill="#E3EAFF"/>
<path d="M46.4704 147.705C43.595 148.597 40.5544 147.011 39.629 144.169C38.7367 141.293 40.3231 138.253 43.1654 137.327C46.0407 136.435 49.0813 138.021 50.0067 140.864C50.8991 143.739 49.3127 146.78 46.4704 147.705ZM47.4288 150.746C51.9897 149.291 54.5015 144.433 53.0804 139.872C51.6262 135.311 46.7678 132.8 42.2069 134.221C37.646 135.675 35.1342 140.533 36.5554 145.094C38.0096 149.688 42.8679 152.2 47.4288 150.746Z" fill="#E3EAFF"/>
<path d="M577.088 263.678C574.213 264.57 571.172 262.983 570.247 260.141C569.354 257.266 570.941 254.225 573.783 253.3C576.658 252.407 579.699 253.994 580.624 256.836C581.517 259.711 579.93 262.785 577.088 263.678ZM578.047 266.751C582.607 265.297 585.119 260.439 583.698 255.878C582.244 251.317 577.385 248.805 572.825 250.226C568.264 251.68 565.752 256.539 567.173 261.1C568.627 265.661 573.486 268.205 578.047 266.751Z" fill="white"/>
<path d="M275.54 22.9743C272.664 23.8667 269.624 22.2803 268.698 19.438C267.806 16.5626 269.393 13.522 272.235 12.5966C275.11 11.7043 278.151 13.2907 279.076 16.133C279.969 18.9753 278.382 22.0489 275.54 22.9743ZM276.498 26.0149C281.059 24.5607 283.571 19.7024 282.15 15.1415C280.696 10.5806 275.837 8.06879 271.276 9.48994C266.715 10.9441 264.204 15.8025 265.625 20.3634C267.079 24.9573 271.937 27.4691 276.498 26.0149Z" fill="#E3EAFF"/>
</svg>
