<svg width="199" height="56" viewBox="0 0 199 56" fill="none" xmlns="http://www.w3.org/2000/svg">
<mask id="path-1-inside-1" fill="white">
<path fill-rule="evenodd" clip-rule="evenodd" d="M199 28L198.999 45.6668L198.998 46.9347L198.996 47.718L198.992 48.2933L198.988 48.7509L198.982 49.1323L198.976 49.4601L198.968 49.7481L198.96 50.0051L198.95 50.2375L198.94 50.4496L198.928 50.645L198.916 50.826L198.902 50.9948L198.888 51.1528L198.872 51.3015L198.856 51.4419L198.838 51.5749L198.819 51.7013L198.8 51.8216L198.779 51.9365L198.758 52.0464L198.735 52.1517L198.711 52.2528L198.686 52.35L198.66 52.4436L198.634 52.5338L198.606 52.6209L198.577 52.7051L198.546 52.7866L198.515 52.8654L198.483 52.9419L198.45 53.016L198.415 53.088L198.38 53.1579L198.343 53.2259L198.305 53.292L198.266 53.3563L198.226 53.419L198.185 53.48L198.143 53.5395L198.099 53.5975L198.055 53.6542L198.009 53.7094L197.962 53.7634L197.914 53.8161L197.865 53.8676L197.814 53.918L197.762 53.9672L197.709 54.0154L197.655 54.0625L197.599 54.1086L197.543 54.1537L197.484 54.1979L197.425 54.2411L197.364 54.2835L197.302 54.325L197.239 54.3656L197.174 54.4054L197.108 54.4445L197.041 54.4828L196.972 54.5203L196.902 54.5571L196.83 54.5931L196.757 54.6285L196.682 54.6632L196.606 54.6972L196.528 54.7306L196.449 54.7633L196.368 54.7955L196.286 54.827L196.202 54.8579L196.116 54.8882L196.029 54.918L195.94 54.9472L195.849 54.9758L195.757 55.0039L195.662 55.0315L195.566 55.0586L195.468 55.0852L195.369 55.1112L195.267 55.1368L195.163 55.1619L195.058 55.1865L194.95 55.2106L194.84 55.2343L194.729 55.2575L194.615 55.2803L194.498 55.3026L194.38 55.3245L194.259 55.346L194.136 55.367L194.011 55.3876L193.883 55.4079L193.752 55.4277L193.619 55.4471L193.483 55.4661L193.345 55.4847L193.203 55.503L193.059 55.5208L192.912 55.5383L192.762 55.5554L192.608 55.5722L192.452 55.5886L192.292 55.6046L192.128 55.6202L191.961 55.6355L191.79 55.6505L191.616 55.6651L191.437 55.6793L191.254 55.6933L191.067 55.7068L190.876 55.7201L190.68 55.733L190.479 55.7456L190.273 55.7578L190.062 55.7698L189.846 55.7814L189.623 55.7927L189.395 55.8036L189.161 55.8143L188.92 55.8246L188.672 55.8346L188.417 55.8444L188.154 55.8538L187.883 55.8629L187.604 55.8717L187.315 55.8802L187.017 55.8883L186.708 55.8962L186.388 55.9038L186.056 55.9111L185.712 55.9181L185.354 55.9248L184.981 55.9313L184.592 55.9374L184.185 55.9432L183.759 55.9488L183.312 55.954L182.841 55.959L182.344 55.9637L181.818 55.9681L181.26 55.9722L180.663 55.976L180.024 55.9795L179.334 55.9828L178.585 55.9857L177.765 55.9884L176.86 55.9908L175.846 55.993L174.694 55.9948L173.356 55.9964L171.756 55.9977L169.753 55.9987L167.049 55.9994L162.763 55.9998L148.245 56L37.2386 55.9999L32.487 55.9995L29.6187 55.9988L27.5311 55.9978L25.8784 55.9966L24.5049 55.9951L23.3269 55.9933L22.2938 55.9912L21.3725 55.9888L20.5405 55.9862L19.7812 55.9833L19.0828 55.9801L18.4357 55.9766L17.8328 55.9728L17.2682 55.9687L16.7373 55.9644L16.2361 55.9597L15.7615 55.9548L15.3107 55.9496L14.8815 55.9441L14.4718 55.9383L14.08 55.9323L13.7045 55.9259L13.3441 55.9192L12.9976 55.9123L12.664 55.905L12.3424 55.8975L12.0319 55.8896L11.732 55.8815L11.4418 55.873L11.1608 55.8643L10.8885 55.8552L10.6244 55.8459L10.3681 55.8362L10.1191 55.8262L9.87705 55.8159L9.64162 55.8053L9.4125 55.7944L9.18939 55.7832L8.97201 55.7716L8.76011 55.7598L8.55347 55.7476L8.35186 55.735L8.15508 55.7222L7.96294 55.709L7.77526 55.6954L7.59188 55.6816L7.41263 55.6674L7.23737 55.6528L7.06597 55.6379L6.89829 55.6227L6.73421 55.6071L6.57362 55.5911L6.4164 55.5748L6.26245 55.5581L6.11167 55.5411L5.96398 55.5237L5.81927 55.5059L5.67748 55.4877L5.53851 55.4691L5.4023 55.4502L5.26876 55.4308L5.13784 55.4111L5.00947 55.3909L4.88358 55.3703L4.76011 55.3493L4.63902 55.3279L4.52023 55.3061L4.40371 55.2839L4.2894 55.2612L4.17725 55.238L4.06722 55.2144L3.95927 55.1903L3.85335 55.1658L3.74942 55.1408L3.64745 55.1153L3.54739 55.0893L3.44921 55.0629L3.35288 55.0359L3.25836 55.0084L3.16563 54.9803L3.07465 54.9518L2.98539 54.9227L2.89782 54.893L2.81192 54.8628L2.72766 54.8319L2.64502 54.8005L2.56397 54.7685L2.48448 54.7359L2.40654 54.7026L2.33012 54.6687L2.25521 54.6341L2.18178 54.5988L2.1098 54.5629L2.03928 54.5262L1.97017 54.4888L1.90248 54.4506L1.83617 54.4117L1.77124 54.372L1.70766 54.3315L1.64543 54.2901L1.58452 54.2479L1.52493 54.2048L1.46664 54.1608L1.40963 54.1158L1.35389 54.0699L1.29941 54.0229L1.24619 53.975L1.19419 53.9259L1.14343 53.8757L1.09387 53.8244L1.04552 53.7719L0.998364 53.7181L0.952389 53.6631L0.907588 53.6067L0.863952 53.5489L0.821471 53.4896L0.780137 53.4288L0.739942 53.3664L0.700878 53.3023L0.662936 53.2365L0.62611 53.1688L0.590393 53.0993L0.555778 53.0276L0.522257 52.9538L0.489825 52.8778L0.458476 52.7993L0.428203 52.7183L0.399001 52.6345L0.370865 52.5479L0.34379 52.4582L0.31777 52.3651L0.292801 52.2685L0.268878 52.168L0.245998 52.0634L0.224155 51.9543L0.203346 51.8402L0.183567 51.7208L0.164815 51.5955L0.147087 51.4636L0.130379 51.3244L0.114689 51.1771L0.100013 51.0206L0.0863499 50.8537L0.0736963 50.6747L0.0620503 50.4818L0.05141 50.2725L0.0417734 50.0436L0.033139 49.7909L0.0255053 49.5084L0.018871 49.1877L0.0132348 48.816L0.00859599 48.3726L0.00495361 47.8203L0.00230709 47.0803L0.000655982 45.9298L0 42.7018L0.000339035 10.637L0.00167314 9.22176L0.00400255 8.38919L0.00732766 7.78895L0.011649 7.3161L0.0169674 6.92439L0.0232837 6.58912L0.0305989 6.29552L0.0389144 6.03403L0.0482316 5.79807L0.058552 5.58292L0.0698774 5.38511L0.0822098 5.20195L0.0955514 5.03136L0.109904 4.87168L0.125271 4.72156L0.141655 4.5799L0.159058 4.44578L0.177483 4.31842L0.196934 4.19717L0.217414 4.08146L0.238927 3.97081L0.261477 3.8648L0.285068 3.76305L0.309703 3.66524L0.335388 3.57108L0.362126 3.48031L0.389924 3.39271L0.418785 3.30807L0.448716 3.2262L0.479722 3.14693L0.511808 3.07012L0.544982 2.99563L0.579248 2.92332L0.614613 2.85309L0.651085 2.78482L0.68867 2.71843L0.727376 2.65381L0.767211 2.59089L0.808181 2.5296L0.850296 2.46985L0.893563 2.41158L0.937992 2.35474L0.983591 2.29925L1.03037 2.24508L1.07834 2.19217L1.12751 2.14047L1.17789 2.08994L1.22949 2.04053L1.28232 1.99221L1.3364 1.94494L1.39174 1.89869L1.44834 1.85342L1.50622 1.8091L1.5654 1.76571L1.62589 1.72321L1.68769 1.68158L1.75084 1.64079L1.81534 1.60083L1.88121 1.56166L1.94846 1.52326L2.01711 1.48563L2.08718 1.44873L2.15869 1.41255L2.23166 1.37706L2.3061 1.34227L2.38204 1.30814L2.45949 1.27466L2.53848 1.24182L2.61903 1.2096L2.70116 1.17799L2.7849 1.14698L2.87028 1.11656L2.95731 1.08671L3.04603 1.05742L3.13646 1.02868L3.22863 1.00048L3.32258 0.972808L3.41833 0.945659L3.51591 0.919021L3.61537 0.892886L3.71673 0.867244L3.82003 0.842087L3.92531 0.817407L4.03261 0.793197L4.14198 0.76945L4.25344 0.746158L4.36706 0.723313L4.48287 0.700911L4.60093 0.678944L4.72129 0.657406L4.84399 0.636291L4.9691 0.615593L5.09668 0.595307L5.22678 0.575428L5.35947 0.55595L5.49483 0.536869L5.63291 0.518179L5.77379 0.499875L5.91756 0.481955L6.0643 0.464412L6.21408 0.447243L6.36701 0.430444L6.52318 0.41401L6.68268 0.397939L6.84564 0.382226L7.01216 0.366868L7.18236 0.351861L7.35638 0.337202L7.53434 0.322889L7.71639 0.308917L7.90268 0.295284L8.09338 0.281987L8.28867 0.269023L8.48872 0.256389L8.69373 0.244084L8.90393 0.232103L9.11953 0.220446L9.34079 0.209109L9.56797 0.198091L9.80136 0.187389L10.0413 0.177001L10.288 0.166925L10.542 0.15716L10.8036 0.147702L11.0732 0.138551L11.3513 0.129705L11.6385 0.121162L11.9353 0.112921L12.2423 0.104979L12.5603 0.0973363L12.89 0.0899905L13.2323 0.0829406L13.5881 0.0761851L13.9587 0.069723L14.3452 0.0635531L14.749 0.0576742L15.1718 0.0520853L15.6155 0.0467854L16.0822 0.0417737L16.5746 0.0370491L17.0956 0.032611L17.649 0.0284584L18.2391 0.0245908L18.8714 0.0210074L19.5527 0.0177076L20.2914 0.0146908L21.0987 0.0119565L21.9894 0.00950429L22.984 0.00733369L24.1114 0.00544436L25.4155 0.00383595L26.967 0.00250821L28.8918 0.00146089L31.4508 0.000693833L35.3605 0.000206896L45.0943 0L160.59 7.31092e-05L165.935 0.000426236L168.991 0.00105944L171.171 0.00197283L172.88 0.00316656L174.291 0.00464084L175.496 0.00639591L176.55 0.00843208L177.487 0.0107497L178.332 0.0133491L179.102 0.0162309L179.81 0.0193954L180.464 0.0228432L181.074 0.026575L181.644 0.0305913L182.18 0.0348929L182.686 0.0394805L183.165 0.0443549L183.619 0.049517L184.051 0.0549677L184.464 0.0607079L184.859 0.0667387L185.237 0.073061L185.599 0.0796762L185.948 0.0865853L186.284 0.0937895L186.607 0.10129L186.919 0.109089L187.221 0.117187L187.513 0.125586L187.795 0.134287L188.069 0.143292L188.334 0.152603L188.592 0.162221L188.842 0.172148L189.085 0.182387L189.321 0.192938L189.551 0.203805L189.775 0.21499L189.994 0.226493L190.206 0.238319L190.414 0.250469L190.616 0.262945L190.814 0.275751L191.007 0.288889L191.195 0.302361L191.379 0.316171L191.559 0.330321L191.735 0.344814L191.907 0.359654L192.075 0.374844L192.24 0.390387L192.401 0.406287L192.559 0.422546L192.713 0.43917L192.865 0.456162L193.013 0.473526L193.158 0.491266L193.3 0.509385L193.44 0.52789L193.576 0.546784L193.71 0.566072L193.841 0.585759L193.97 0.60585L194.097 0.62635L194.22 0.647265L194.342 0.6686L194.461 0.690361L194.578 0.712555L194.693 0.735187L194.805 0.758265L194.915 0.781794L195.024 0.805782L195.13 0.830236L195.234 0.855164L195.336 0.880573L195.437 0.906472L195.535 0.932869L195.632 0.959772L195.727 0.987192L195.82 1.01514L195.911 1.04362L196 1.07264L196.088 1.10223L196.175 1.13238L196.259 1.1631L196.342 1.19442L196.423 1.22635L196.503 1.25889L196.581 1.29206L196.658 1.32588L196.733 1.36035L196.807 1.39551L196.879 1.43135L196.95 1.46791L197.019 1.50519L197.087 1.54322L197.153 1.58201L197.218 1.6216L197.282 1.66199L197.345 1.70321L197.406 1.74529L197.466 1.78826L197.524 1.83213L197.581 1.87694L197.637 1.92272L197.692 1.9695L197.745 2.01731L197.798 2.06619L197.849 2.11618L197.898 2.16732L197.947 2.21965L197.994 2.27321L198.04 2.32806L198.085 2.38425L198.129 2.44183L198.172 2.50086L198.213 2.56141L198.254 2.62354L198.293 2.68734L198.331 2.75287L198.368 2.82023L198.404 2.88951L198.439 2.96081L198.472 3.03425L198.505 3.10994L198.537 3.18801L198.567 3.26862L198.596 3.35191L198.625 3.43808L198.652 3.5273L198.678 3.61981L198.703 3.71584L198.727 3.81567L198.75 3.91961L198.772 4.02799L198.793 4.14122L198.813 4.25976L198.832 4.38412L198.85 4.51492L198.867 4.65288L198.883 4.79883L198.898 4.95379L198.912 5.11898L198.924 5.29591L198.936 5.48643L198.947 5.69291L198.957 5.91842L198.966 6.16703L198.973 6.44432L198.98 6.75822L198.986 7.12065L198.991 7.55071L198.995 8.08204L198.997 8.78344L198.999 9.8379L199 12.243L199 28Z"/>
</mask>
<path fill-rule="evenodd" clip-rule="evenodd" d="M199 28L198.999 45.6668L198.998 46.9347L198.996 47.718L198.992 48.2933L198.988 48.7509L198.982 49.1323L198.976 49.4601L198.968 49.7481L198.96 50.0051L198.95 50.2375L198.94 50.4496L198.928 50.645L198.916 50.826L198.902 50.9948L198.888 51.1528L198.872 51.3015L198.856 51.4419L198.838 51.5749L198.819 51.7013L198.8 51.8216L198.779 51.9365L198.758 52.0464L198.735 52.1517L198.711 52.2528L198.686 52.35L198.66 52.4436L198.634 52.5338L198.606 52.6209L198.577 52.7051L198.546 52.7866L198.515 52.8654L198.483 52.9419L198.45 53.016L198.415 53.088L198.38 53.1579L198.343 53.2259L198.305 53.292L198.266 53.3563L198.226 53.419L198.185 53.48L198.143 53.5395L198.099 53.5975L198.055 53.6542L198.009 53.7094L197.962 53.7634L197.914 53.8161L197.865 53.8676L197.814 53.918L197.762 53.9672L197.709 54.0154L197.655 54.0625L197.599 54.1086L197.543 54.1537L197.484 54.1979L197.425 54.2411L197.364 54.2835L197.302 54.325L197.239 54.3656L197.174 54.4054L197.108 54.4445L197.041 54.4828L196.972 54.5203L196.902 54.5571L196.83 54.5931L196.757 54.6285L196.682 54.6632L196.606 54.6972L196.528 54.7306L196.449 54.7633L196.368 54.7955L196.286 54.827L196.202 54.8579L196.116 54.8882L196.029 54.918L195.94 54.9472L195.849 54.9758L195.757 55.0039L195.662 55.0315L195.566 55.0586L195.468 55.0852L195.369 55.1112L195.267 55.1368L195.163 55.1619L195.058 55.1865L194.95 55.2106L194.84 55.2343L194.729 55.2575L194.615 55.2803L194.498 55.3026L194.38 55.3245L194.259 55.346L194.136 55.367L194.011 55.3876L193.883 55.4079L193.752 55.4277L193.619 55.4471L193.483 55.4661L193.345 55.4847L193.203 55.503L193.059 55.5208L192.912 55.5383L192.762 55.5554L192.608 55.5722L192.452 55.5886L192.292 55.6046L192.128 55.6202L191.961 55.6355L191.79 55.6505L191.616 55.6651L191.437 55.6793L191.254 55.6933L191.067 55.7068L190.876 55.7201L190.68 55.733L190.479 55.7456L190.273 55.7578L190.062 55.7698L189.846 55.7814L189.623 55.7927L189.395 55.8036L189.161 55.8143L188.92 55.8246L188.672 55.8346L188.417 55.8444L188.154 55.8538L187.883 55.8629L187.604 55.8717L187.315 55.8802L187.017 55.8883L186.708 55.8962L186.388 55.9038L186.056 55.9111L185.712 55.9181L185.354 55.9248L184.981 55.9313L184.592 55.9374L184.185 55.9432L183.759 55.9488L183.312 55.954L182.841 55.959L182.344 55.9637L181.818 55.9681L181.26 55.9722L180.663 55.976L180.024 55.9795L179.334 55.9828L178.585 55.9857L177.765 55.9884L176.86 55.9908L175.846 55.993L174.694 55.9948L173.356 55.9964L171.756 55.9977L169.753 55.9987L167.049 55.9994L162.763 55.9998L148.245 56L37.2386 55.9999L32.487 55.9995L29.6187 55.9988L27.5311 55.9978L25.8784 55.9966L24.5049 55.9951L23.3269 55.9933L22.2938 55.9912L21.3725 55.9888L20.5405 55.9862L19.7812 55.9833L19.0828 55.9801L18.4357 55.9766L17.8328 55.9728L17.2682 55.9687L16.7373 55.9644L16.2361 55.9597L15.7615 55.9548L15.3107 55.9496L14.8815 55.9441L14.4718 55.9383L14.08 55.9323L13.7045 55.9259L13.3441 55.9192L12.9976 55.9123L12.664 55.905L12.3424 55.8975L12.0319 55.8896L11.732 55.8815L11.4418 55.873L11.1608 55.8643L10.8885 55.8552L10.6244 55.8459L10.3681 55.8362L10.1191 55.8262L9.87705 55.8159L9.64162 55.8053L9.4125 55.7944L9.18939 55.7832L8.97201 55.7716L8.76011 55.7598L8.55347 55.7476L8.35186 55.735L8.15508 55.7222L7.96294 55.709L7.77526 55.6954L7.59188 55.6816L7.41263 55.6674L7.23737 55.6528L7.06597 55.6379L6.89829 55.6227L6.73421 55.6071L6.57362 55.5911L6.4164 55.5748L6.26245 55.5581L6.11167 55.5411L5.96398 55.5237L5.81927 55.5059L5.67748 55.4877L5.53851 55.4691L5.4023 55.4502L5.26876 55.4308L5.13784 55.4111L5.00947 55.3909L4.88358 55.3703L4.76011 55.3493L4.63902 55.3279L4.52023 55.3061L4.40371 55.2839L4.2894 55.2612L4.17725 55.238L4.06722 55.2144L3.95927 55.1903L3.85335 55.1658L3.74942 55.1408L3.64745 55.1153L3.54739 55.0893L3.44921 55.0629L3.35288 55.0359L3.25836 55.0084L3.16563 54.9803L3.07465 54.9518L2.98539 54.9227L2.89782 54.893L2.81192 54.8628L2.72766 54.8319L2.64502 54.8005L2.56397 54.7685L2.48448 54.7359L2.40654 54.7026L2.33012 54.6687L2.25521 54.6341L2.18178 54.5988L2.1098 54.5629L2.03928 54.5262L1.97017 54.4888L1.90248 54.4506L1.83617 54.4117L1.77124 54.372L1.70766 54.3315L1.64543 54.2901L1.58452 54.2479L1.52493 54.2048L1.46664 54.1608L1.40963 54.1158L1.35389 54.0699L1.29941 54.0229L1.24619 53.975L1.19419 53.9259L1.14343 53.8757L1.09387 53.8244L1.04552 53.7719L0.998364 53.7181L0.952389 53.6631L0.907588 53.6067L0.863952 53.5489L0.821471 53.4896L0.780137 53.4288L0.739942 53.3664L0.700878 53.3023L0.662936 53.2365L0.62611 53.1688L0.590393 53.0993L0.555778 53.0276L0.522257 52.9538L0.489825 52.8778L0.458476 52.7993L0.428203 52.7183L0.399001 52.6345L0.370865 52.5479L0.34379 52.4582L0.31777 52.3651L0.292801 52.2685L0.268878 52.168L0.245998 52.0634L0.224155 51.9543L0.203346 51.8402L0.183567 51.7208L0.164815 51.5955L0.147087 51.4636L0.130379 51.3244L0.114689 51.1771L0.100013 51.0206L0.0863499 50.8537L0.0736963 50.6747L0.0620503 50.4818L0.05141 50.2725L0.0417734 50.0436L0.033139 49.7909L0.0255053 49.5084L0.018871 49.1877L0.0132348 48.816L0.00859599 48.3726L0.00495361 47.8203L0.00230709 47.0803L0.000655982 45.9298L0 42.7018L0.000339035 10.637L0.00167314 9.22176L0.00400255 8.38919L0.00732766 7.78895L0.011649 7.3161L0.0169674 6.92439L0.0232837 6.58912L0.0305989 6.29552L0.0389144 6.03403L0.0482316 5.79807L0.058552 5.58292L0.0698774 5.38511L0.0822098 5.20195L0.0955514 5.03136L0.109904 4.87168L0.125271 4.72156L0.141655 4.5799L0.159058 4.44578L0.177483 4.31842L0.196934 4.19717L0.217414 4.08146L0.238927 3.97081L0.261477 3.8648L0.285068 3.76305L0.309703 3.66524L0.335388 3.57108L0.362126 3.48031L0.389924 3.39271L0.418785 3.30807L0.448716 3.2262L0.479722 3.14693L0.511808 3.07012L0.544982 2.99563L0.579248 2.92332L0.614613 2.85309L0.651085 2.78482L0.68867 2.71843L0.727376 2.65381L0.767211 2.59089L0.808181 2.5296L0.850296 2.46985L0.893563 2.41158L0.937992 2.35474L0.983591 2.29925L1.03037 2.24508L1.07834 2.19217L1.12751 2.14047L1.17789 2.08994L1.22949 2.04053L1.28232 1.99221L1.3364 1.94494L1.39174 1.89869L1.44834 1.85342L1.50622 1.8091L1.5654 1.76571L1.62589 1.72321L1.68769 1.68158L1.75084 1.64079L1.81534 1.60083L1.88121 1.56166L1.94846 1.52326L2.01711 1.48563L2.08718 1.44873L2.15869 1.41255L2.23166 1.37706L2.3061 1.34227L2.38204 1.30814L2.45949 1.27466L2.53848 1.24182L2.61903 1.2096L2.70116 1.17799L2.7849 1.14698L2.87028 1.11656L2.95731 1.08671L3.04603 1.05742L3.13646 1.02868L3.22863 1.00048L3.32258 0.972808L3.41833 0.945659L3.51591 0.919021L3.61537 0.892886L3.71673 0.867244L3.82003 0.842087L3.92531 0.817407L4.03261 0.793197L4.14198 0.76945L4.25344 0.746158L4.36706 0.723313L4.48287 0.700911L4.60093 0.678944L4.72129 0.657406L4.84399 0.636291L4.9691 0.615593L5.09668 0.595307L5.22678 0.575428L5.35947 0.55595L5.49483 0.536869L5.63291 0.518179L5.77379 0.499875L5.91756 0.481955L6.0643 0.464412L6.21408 0.447243L6.36701 0.430444L6.52318 0.41401L6.68268 0.397939L6.84564 0.382226L7.01216 0.366868L7.18236 0.351861L7.35638 0.337202L7.53434 0.322889L7.71639 0.308917L7.90268 0.295284L8.09338 0.281987L8.28867 0.269023L8.48872 0.256389L8.69373 0.244084L8.90393 0.232103L9.11953 0.220446L9.34079 0.209109L9.56797 0.198091L9.80136 0.187389L10.0413 0.177001L10.288 0.166925L10.542 0.15716L10.8036 0.147702L11.0732 0.138551L11.3513 0.129705L11.6385 0.121162L11.9353 0.112921L12.2423 0.104979L12.5603 0.0973363L12.89 0.0899905L13.2323 0.0829406L13.5881 0.0761851L13.9587 0.069723L14.3452 0.0635531L14.749 0.0576742L15.1718 0.0520853L15.6155 0.0467854L16.0822 0.0417737L16.5746 0.0370491L17.0956 0.032611L17.649 0.0284584L18.2391 0.0245908L18.8714 0.0210074L19.5527 0.0177076L20.2914 0.0146908L21.0987 0.0119565L21.9894 0.00950429L22.984 0.00733369L24.1114 0.00544436L25.4155 0.00383595L26.967 0.00250821L28.8918 0.00146089L31.4508 0.000693833L35.3605 0.000206896L45.0943 0L160.59 7.31092e-05L165.935 0.000426236L168.991 0.00105944L171.171 0.00197283L172.88 0.00316656L174.291 0.00464084L175.496 0.00639591L176.55 0.00843208L177.487 0.0107497L178.332 0.0133491L179.102 0.0162309L179.81 0.0193954L180.464 0.0228432L181.074 0.026575L181.644 0.0305913L182.18 0.0348929L182.686 0.0394805L183.165 0.0443549L183.619 0.049517L184.051 0.0549677L184.464 0.0607079L184.859 0.0667387L185.237 0.073061L185.599 0.0796762L185.948 0.0865853L186.284 0.0937895L186.607 0.10129L186.919 0.109089L187.221 0.117187L187.513 0.125586L187.795 0.134287L188.069 0.143292L188.334 0.152603L188.592 0.162221L188.842 0.172148L189.085 0.182387L189.321 0.192938L189.551 0.203805L189.775 0.21499L189.994 0.226493L190.206 0.238319L190.414 0.250469L190.616 0.262945L190.814 0.275751L191.007 0.288889L191.195 0.302361L191.379 0.316171L191.559 0.330321L191.735 0.344814L191.907 0.359654L192.075 0.374844L192.24 0.390387L192.401 0.406287L192.559 0.422546L192.713 0.43917L192.865 0.456162L193.013 0.473526L193.158 0.491266L193.3 0.509385L193.44 0.52789L193.576 0.546784L193.71 0.566072L193.841 0.585759L193.97 0.60585L194.097 0.62635L194.22 0.647265L194.342 0.6686L194.461 0.690361L194.578 0.712555L194.693 0.735187L194.805 0.758265L194.915 0.781794L195.024 0.805782L195.13 0.830236L195.234 0.855164L195.336 0.880573L195.437 0.906472L195.535 0.932869L195.632 0.959772L195.727 0.987192L195.82 1.01514L195.911 1.04362L196 1.07264L196.088 1.10223L196.175 1.13238L196.259 1.1631L196.342 1.19442L196.423 1.22635L196.503 1.25889L196.581 1.29206L196.658 1.32588L196.733 1.36035L196.807 1.39551L196.879 1.43135L196.95 1.46791L197.019 1.50519L197.087 1.54322L197.153 1.58201L197.218 1.6216L197.282 1.66199L197.345 1.70321L197.406 1.74529L197.466 1.78826L197.524 1.83213L197.581 1.87694L197.637 1.92272L197.692 1.9695L197.745 2.01731L197.798 2.06619L197.849 2.11618L197.898 2.16732L197.947 2.21965L197.994 2.27321L198.04 2.32806L198.085 2.38425L198.129 2.44183L198.172 2.50086L198.213 2.56141L198.254 2.62354L198.293 2.68734L198.331 2.75287L198.368 2.82023L198.404 2.88951L198.439 2.96081L198.472 3.03425L198.505 3.10994L198.537 3.18801L198.567 3.26862L198.596 3.35191L198.625 3.43808L198.652 3.5273L198.678 3.61981L198.703 3.71584L198.727 3.81567L198.75 3.91961L198.772 4.02799L198.793 4.14122L198.813 4.25976L198.832 4.38412L198.85 4.51492L198.867 4.65288L198.883 4.79883L198.898 4.95379L198.912 5.11898L198.924 5.29591L198.936 5.48643L198.947 5.69291L198.957 5.91842L198.966 6.16703L198.973 6.44432L198.98 6.75822L198.986 7.12065L198.991 7.55071L198.995 8.08204L198.997 8.78344L198.999 9.8379L199 12.243L199 28Z" stroke="white" stroke-width="2" mask="url(#path-1-inside-1)"/>
</svg>
