<svg width="171" height="50" viewBox="0 0 171 50" fill="none" xmlns="http://www.w3.org/2000/svg">
<path fill-rule="evenodd" clip-rule="evenodd" d="M170 25L170 40.1429L169.998 41.2297L169.996 41.9012L169.993 42.3942L169.989 42.7865L169.985 43.1134L169.979 43.3944L169.973 43.6412L169.966 43.8615L169.958 44.0607L169.949 44.2426L169.939 44.41L169.928 44.5652L169.917 44.7098L169.905 44.8453L169.891 44.9727L169.877 45.0931L169.862 45.2071L169.847 45.3154L169.83 45.4185L169.812 45.517L169.794 45.6112L169.775 45.7014L169.755 45.7881L169.734 45.8714L169.712 45.9516L169.689 46.029L169.665 46.1037L169.64 46.1758L169.615 46.2456L169.588 46.3132L169.561 46.3788L169.533 46.4423L169.503 46.504L169.473 46.5639L169.442 46.6222L169.41 46.6788L169.377 46.734L169.343 46.7877L169.308 46.84L169.272 46.891L169.235 46.9408L169.197 46.9893L169.158 47.0367L169.119 47.0829L169.078 47.1281L169.036 47.1723L168.993 47.2154L168.949 47.2576L168.904 47.2989L168.858 47.3393L168.81 47.3788L168.762 47.4174L168.713 47.4553L168.662 47.4924L168.611 47.5287L168.558 47.5643L168.504 47.5991L168.45 47.6332L168.393 47.6667L168.336 47.6995L168.278 47.7317L168.218 47.7632L168.157 47.7941L168.095 47.8244L168.031 47.8542L167.967 47.8833L167.901 47.9119L167.833 47.94L167.765 47.9675L167.695 47.9946L167.623 48.021L167.551 48.0471L167.477 48.0726L167.401 48.0976L167.324 48.1222L167.245 48.1462L167.165 48.1699L167.084 48.1931L167.001 48.2159L166.916 48.2382L166.83 48.2601L166.742 48.2816L166.652 48.3027L166.561 48.3234L166.467 48.3437L166.373 48.3636L166.276 48.3831L166.177 48.4022L166.077 48.421L165.974 48.4394L165.869 48.4575L165.763 48.4751L165.654 48.4925L165.543 48.5095L165.43 48.5261L165.315 48.5424L165.197 48.5584L165.077 48.574L164.955 48.5893L164.83 48.6043L164.702 48.619L164.572 48.6333L164.439 48.6473L164.303 48.6611L164.164 48.6745L164.022 48.6876L163.877 48.7004L163.729 48.7129L163.577 48.7252L163.422 48.7371L163.263 48.7487L163.101 48.7601L162.934 48.7711L162.764 48.7819L162.589 48.7924L162.41 48.8027L162.226 48.8126L162.037 48.8223L161.843 48.8317L161.644 48.8408L161.44 48.8497L161.229 48.8583L161.012 48.8666L160.789 48.8747L160.559 48.8825L160.322 48.89L160.076 48.8973L159.823 48.9043L159.561 48.9111L159.289 48.9176L159.008 48.9238L158.715 48.9298L158.411 48.9356L158.094 48.9411L157.764 48.9463L157.418 48.9513L157.057 48.9561L156.677 48.9606L156.277 48.9648L155.855 48.9689L155.409 48.9726L154.934 48.9761L154.427 48.9794L153.884 48.9825L153.299 48.9852L152.663 48.9878L151.967 48.9901L151.197 48.9922L150.337 48.994L149.358 48.9956L148.222 48.9969L146.863 48.998L145.162 48.9989L142.866 48.9995L139.226 48.9999L126.897 49L32.6248 48.9999L28.5895 48.9996L26.1536 48.999L24.3807 48.9982L22.9771 48.9971L21.8107 48.9958L20.8103 48.9942L19.9329 48.9925L19.1505 48.9904L18.4439 48.9882L17.7991 48.9857L17.206 48.9829L16.6564 48.9799L16.1444 48.9767L15.6649 48.9732L15.2141 48.9695L14.7885 48.9655L14.3854 48.9613L14.0026 48.9568L13.6381 48.9521L13.2901 48.9472L12.9574 48.9419L12.6385 48.9365L12.3324 48.9308L12.0382 48.9248L11.7548 48.9186L11.4817 48.9121L11.2181 48.9054L10.9633 48.8984L10.7169 48.8912L10.4783 48.8837L10.2471 48.8759L10.0228 48.8679L9.80507 48.8596L9.5936 48.8511L9.38805 48.8422L9.18811 48.8332L8.99353 48.8238L8.80405 48.8142L8.61944 48.8043L8.43949 48.7941L8.264 48.7836L8.09279 48.7729L7.92567 48.7619L7.7625 48.7506L7.60311 48.739L7.44737 48.7271L7.29515 48.7149L7.14631 48.7024L7.00075 48.6897L6.85835 48.6766L6.719 48.6632L6.58262 48.6496L6.4491 48.6356L6.31836 48.6213L6.19031 48.6066L6.06488 48.5917L5.942 48.5765L5.82158 48.5609L5.70356 48.545L5.58788 48.5287L5.47448 48.5121L5.36329 48.4952L5.25427 48.4779L5.14736 48.4603L5.04251 48.4423L4.93967 48.424L4.83879 48.4053L4.73983 48.3862L4.64276 48.3667L4.54752 48.3469L4.45407 48.3266L4.3624 48.306L4.27244 48.285L4.18418 48.2636L4.09758 48.2417L4.01261 48.2194L3.92923 48.1968L3.84742 48.1736L3.76715 48.15L3.6884 48.126L3.61113 48.1015L3.53533 48.0766L3.46096 48.0511L3.38801 48.0252L3.31646 47.9988L3.24627 47.9719L3.17744 47.9444L3.10994 47.9165L3.04375 47.8879L2.97885 47.8589L2.91523 47.8292L2.85287 47.799L2.79174 47.7682L2.73185 47.7367L2.67316 47.7047L2.61567 47.672L2.55936 47.6386L2.50422 47.6046L2.45023 47.5699L2.39737 47.5344L2.34565 47.4982L2.29504 47.4613L2.24554 47.4235L2.19712 47.385L2.14979 47.3456L2.10352 47.3054L2.05832 47.2643L2.01416 47.2222L1.97105 47.1792L1.92897 47.1352L1.88791 47.0902L1.84786 47.0441L1.80881 46.9969L1.77077 46.9486L1.73371 46.899L1.69763 46.8482L1.66253 46.7961L1.62839 46.7426L1.59522 46.6877L1.563 46.6313L1.53172 46.5733L1.50139 46.5137L1.47199 46.4523L1.44352 46.389L1.41598 46.3238L1.38936 46.2566L1.36365 46.1871L1.33885 46.1153L1.31496 46.0411L1.29196 45.9642L1.26987 45.8844L1.24866 45.8016L1.22834 45.7155L1.20891 45.6258L1.19036 45.5323L1.17269 45.4345L1.15589 45.3321L1.13997 45.2247L1.12491 45.1117L1.11072 44.9924L1.0974 44.8661L1.08494 44.732L1.07333 44.5889L1.06259 44.4355L1.0527 44.2701L1.04366 44.0907L1.03548 43.8946L1.02814 43.6779L1.02166 43.4358L1.01603 43.1609L1.01124 42.8423L1.0073 42.4623L1.00421 41.9888L1.00196 41.3545L1.00056 40.3684L1 37.6015L1.00029 10.1175L1.00142 8.90437L1.0034 8.19074L1.00622 7.67624L1.00989 7.27095L1.01441 6.93519L1.01977 6.64782L1.02599 6.39616L1.03305 6.17202L1.04096 5.96977L1.04973 5.78536L1.05934 5.61581L1.06982 5.45881L1.08115 5.31259L1.09334 5.17572L1.10639 5.04705L1.1203 4.92563L1.13508 4.81066L1.15073 4.7015L1.16725 4.59757L1.18464 4.4984L1.20291 4.40355L1.22206 4.31269L1.24209 4.22547L1.26301 4.14164L1.28483 4.06093L1.30753 3.98313L1.33114 3.90804L1.35565 3.83549L1.38107 3.76531L1.4074 3.69737L1.43465 3.63153L1.46282 3.56768L1.49192 3.5057L1.52196 3.4455L1.55293 3.38699L1.58485 3.33008L1.61772 3.2747L1.65155 3.22077L1.68634 3.16822L1.72211 3.11701L1.75885 3.06707L1.79659 3.01835L1.83531 2.97079L1.87504 2.92436L1.91578 2.879L1.95753 2.83469L2.00032 2.79137L2.04414 2.74903L2.08901 2.70761L2.13493 2.66709L2.18193 2.62745L2.23 2.58865L2.27915 2.55066L2.32941 2.51346L2.38078 2.47704L2.43327 2.44135L2.4869 2.40639L2.54167 2.37214L2.59761 2.33856L2.65472 2.30566L2.71302 2.2734L2.77253 2.24177L2.83326 2.21075L2.89523 2.18034L2.95845 2.15051L3.02293 2.12126L3.08871 2.09256L3.15579 2.06442L3.2242 2.0368L3.29395 2.00971L3.36507 1.98313L3.43757 1.95705L3.51148 1.93146L3.58683 1.90636L3.66363 1.88172L3.7419 1.85755L3.82169 1.83384L3.903 1.81057L3.98588 1.78773L4.07034 1.76533L4.15642 1.74335L4.24415 1.72179L4.33356 1.70063L4.42468 1.67988L4.51756 1.65953L4.61222 1.63956L4.70871 1.61998L4.80706 1.60078L4.90732 1.58195L5.00953 1.56349L5.11374 1.54539L5.21999 1.52765L5.32833 1.51026L5.43882 1.49322L5.55151 1.47653L5.66646 1.46017L5.78373 1.44415L5.90337 1.42846L6.02547 1.4131L6.15008 1.39807L6.27728 1.38335L6.40716 1.36895L6.53978 1.35487L6.67524 1.34109L6.81363 1.32762L6.95505 1.31446L7.0996 1.3016L7.24738 1.28903L7.39851 1.27676L7.55311 1.26479L7.71132 1.2531L7.87328 1.2417L8.03912 1.23059L8.20901 1.21976L8.38312 1.20921L8.56163 1.19895L8.74473 1.18895L8.93263 1.17924L9.12556 1.16979L9.32377 1.16062L9.5275 1.15172L9.73705 1.14308L9.95273 1.13471L10.1749 1.1266L10.4039 1.11876L10.6401 1.11118L10.8839 1.10385L11.136 1.09679L11.3967 1.08998L11.6668 1.08343L11.9468 1.07713L12.2375 1.07109L12.5397 1.0653L12.8544 1.05976L13.1826 1.05447L13.5255 1.04943L13.8846 1.04464L14.2614 1.0401L14.6577 1.03581L15.0759 1.03176L15.5184 1.02795L15.9884 1.02439L16.4895 1.02108L17.0265 1.01801L17.605 1.01518L18.2324 1.01259L18.918 1.01025L19.6744 1.00815L20.519 1.00629L21.4765 1.00467L22.584 1.00329L23.9017 1.00215L25.5362 1.00125L27.7095 1.00059L31.0298 1.00018L39.2962 1L137.38 1.00006L141.92 1.00037L144.515 1.00091L146.366 1.00169L147.818 1.00271L149.016 1.00398L150.039 1.00548L150.934 1.00723L151.73 1.00921L152.448 1.01144L153.102 1.01391L153.703 1.01662L154.259 1.01958L154.776 1.02278L155.261 1.02622L155.716 1.02991L156.145 1.03384L156.552 1.03802L156.938 1.04244L157.305 1.04712L157.655 1.05204L157.991 1.0572L158.312 1.06262L158.62 1.06829L158.916 1.07422L159.201 1.08039L159.475 1.08682L159.741 1.0935L159.997 1.10045L160.244 1.10764L160.484 1.1151L160.717 1.12282L160.942 1.1308L161.161 1.13905L161.373 1.14756L161.58 1.15633L161.78 1.16538L161.976 1.17469L162.166 1.18428L162.351 1.19414L162.532 1.20427L162.708 1.21469L162.88 1.22538L163.048 1.23636L163.212 1.24762L163.372 1.25917L163.528 1.271L163.681 1.28313L163.83 1.29555L163.976 1.30827L164.119 1.32129L164.259 1.33462L164.396 1.34825L164.53 1.36218L164.661 1.37643L164.789 1.391L164.915 1.40588L165.039 1.42108L165.159 1.43662L165.278 1.45248L165.394 1.46867L165.508 1.4852L165.619 1.50208L165.729 1.5193L165.836 1.53687L165.941 1.5548L166.044 1.57309L166.145 1.59174L166.245 1.61076L166.342 1.63016L166.437 1.64994L166.531 1.67011L166.623 1.69067L166.713 1.71163L166.802 1.733L166.889 1.75478L166.974 1.77698L167.058 1.7996L167.14 1.82266L167.22 1.84616L167.299 1.87012L167.377 1.89453L167.453 1.91941L167.527 1.94477L167.6 1.97061L167.672 1.99695L167.743 2.02379L167.812 2.05116L167.879 2.07905L167.946 2.10748L168.011 2.13647L168.075 2.16602L168.137 2.19615L168.199 2.22687L168.259 2.25821L168.318 2.29016L168.375 2.32276L168.432 2.35601L168.487 2.38994L168.541 2.42456L168.594 2.4599L168.646 2.49597L168.697 2.53279L168.747 2.5704L168.795 2.60881L168.843 2.64804L168.889 2.68814L168.935 2.72912L168.979 2.77102L169.022 2.81387L169.064 2.8577L169.106 2.90255L169.146 2.94847L169.185 2.99548L169.223 3.04364L169.26 3.09299L169.297 3.14359L169.332 3.19549L169.366 3.24875L169.4 3.30343L169.432 3.3596L169.463 3.41734L169.494 3.47672L169.523 3.53784L169.552 3.60078L169.58 3.66566L169.606 3.73258L169.632 3.80167L169.657 3.87307L169.681 3.94692L169.704 4.0234L169.727 4.1027L169.748 4.18501L169.768 4.27058L169.788 4.35966L169.807 4.45256L169.825 4.54962L169.841 4.65122L169.858 4.75782L169.873 4.86994L169.887 4.98818L169.901 5.11328L169.913 5.24611L169.925 5.3877L169.936 5.53935L169.946 5.70265L169.955 5.87964L169.963 6.07294L169.971 6.28603L169.977 6.5237L169.983 6.79276L169.988 7.10342L169.992 7.47204L169.995 7.92747L169.998 8.52867L169.999 9.43249L170 11.494L170 25Z" fill="white" stroke="white"/>
</svg>
