<svg width="201" height="58" viewBox="0 0 201 58" fill="none" xmlns="http://www.w3.org/2000/svg">
<path fill-rule="evenodd" clip-rule="evenodd" d="M200 28.9822L199.999 46.6377L199.998 47.9048L199.996 48.6877L199.992 49.2625L199.988 49.7199L199.982 50.101L199.976 50.4286L199.968 50.7164L199.96 50.9733L199.95 51.2055L199.94 51.4175L199.928 51.6127L199.916 51.7936L199.902 51.9623L199.888 52.1203L199.872 52.2689L199.856 52.4092L199.838 52.5421L199.819 52.6684L199.8 52.7886L199.779 52.9034L199.758 53.0132L199.735 53.1185L199.711 53.2195L199.686 53.3167L199.66 53.4102L199.634 53.5004L199.606 53.5875L199.577 53.6716L199.546 53.753L199.515 53.8318L199.483 53.9082L199.45 53.9823L199.415 54.0542L199.38 54.1241L199.343 54.192L199.305 54.258L199.266 54.3223L199.226 54.385L199.185 54.446L199.143 54.5054L199.099 54.5634L199.055 54.62L199.009 54.6753L198.962 54.7292L198.914 54.7819L198.865 54.8334L198.814 54.8837L198.762 54.9329L198.709 54.981L198.655 55.0281L198.599 55.0741L198.543 55.1192L198.484 55.1634L198.425 55.2066L198.364 55.2489L198.302 55.2904L198.239 55.331L198.174 55.3708L198.108 55.4098L198.041 55.4481L197.972 55.4856L197.902 55.5223L197.83 55.5584L197.757 55.5937L197.682 55.6284L197.606 55.6624L197.528 55.6958L197.449 55.7285L197.368 55.7606L197.286 55.7921L197.202 55.823L197.116 55.8533L197.029 55.883L196.94 55.9122L196.849 55.9408L196.757 55.9689L196.662 55.9965L196.566 56.0236L196.468 56.0501L196.369 56.0761L196.267 56.1017L196.163 56.1267L196.058 56.1513L195.95 56.1755L195.84 56.1991L195.729 56.2223L195.615 56.2451L195.498 56.2674L195.38 56.2893L195.259 56.3107L195.136 56.3318L195.011 56.3524L194.883 56.3726L194.752 56.3924L194.619 56.4118L194.483 56.4308L194.345 56.4494L194.203 56.4677L194.059 56.4855L193.912 56.503L193.762 56.5201L193.608 56.5368L193.452 56.5532L193.292 56.5692L193.128 56.5848L192.961 56.6001L192.79 56.6151L192.616 56.6297L192.437 56.6439L192.254 56.6578L192.067 56.6714L191.876 56.6846L191.68 56.6975L191.479 56.7101L191.273 56.7223L191.062 56.7343L190.846 56.7459L190.623 56.7571L190.395 56.7681L190.161 56.7787L189.92 56.7891L189.672 56.7991L189.417 56.8088L189.154 56.8182L188.883 56.8273L188.604 56.8361L188.315 56.8446L188.017 56.8528L187.708 56.8607L187.388 56.8683L187.056 56.8755L186.712 56.8825L186.354 56.8892L185.981 56.8957L185.592 56.9018L185.185 56.9076L184.759 56.9131L184.312 56.9184L183.841 56.9234L183.344 56.928L182.818 56.9324L182.26 56.9365L181.663 56.9404L181.024 56.9439L180.334 56.9471L179.585 56.9501L178.765 56.9528L177.86 56.9552L176.846 56.9573L175.694 56.9592L174.356 56.9607L172.756 56.962L170.753 56.963L168.049 56.9637L163.763 56.9642L149.245 56.9643L38.2386 56.9642L33.487 56.9638L30.6187 56.9632L28.5311 56.9622L26.8784 56.961L25.5049 56.9594L24.3269 56.9576L23.2938 56.9556L22.3725 56.9532L21.5405 56.9506L20.7812 56.9476L20.0828 56.9444L19.4357 56.9409L18.8328 56.9372L18.2682 56.9331L17.7373 56.9288L17.2361 56.9241L16.7615 56.9192L16.3107 56.914L15.8815 56.9085L15.4718 56.9027L15.08 56.8967L14.7045 56.8903L14.3441 56.8836L13.9976 56.8767L13.664 56.8694L13.3424 56.8619L13.0319 56.8541L12.732 56.8459L12.4418 56.8375L12.1608 56.8287L11.8885 56.8197L11.6244 56.8103L11.3681 56.8007L11.1191 56.7907L10.877 56.7804L10.6416 56.7698L10.4125 56.7589L10.1894 56.7477L9.97201 56.7361L9.76011 56.7243L9.55347 56.7121L9.35186 56.6995L9.15508 56.6867L8.96294 56.6735L8.77526 56.66L8.59188 56.6461L8.41263 56.6319L8.23737 56.6174L8.06597 56.6025L7.89829 56.5873L7.73421 56.5717L7.57362 56.5557L7.4164 56.5394L7.26245 56.5228L7.11167 56.5057L6.96398 56.4883L6.81927 56.4705L6.67748 56.4524L6.53851 56.4338L6.4023 56.4149L6.26876 56.3955L6.13784 56.3758L6.00947 56.3556L5.88358 56.3351L5.76011 56.3141L5.63902 56.2927L5.52023 56.2709L5.40371 56.2487L5.2894 56.226L5.17725 56.2028L5.06722 56.1793L4.95927 56.1552L4.85335 56.1307L4.74942 56.1057L4.64745 56.0802L4.54739 56.0543L4.44921 56.0278L4.35288 56.0008L4.25836 55.9734L4.16563 55.9454L4.07465 55.9168L3.98539 55.8877L3.89782 55.8581L3.81192 55.8278L3.72766 55.797L3.64502 55.7656L3.56397 55.7336L3.48448 55.701L3.40654 55.6678L3.33012 55.6339L3.25521 55.5993L3.18178 55.5641L3.1098 55.5281L3.03928 55.4915L2.97017 55.4541L2.90248 55.416L2.83617 55.3771L2.77124 55.3374L2.70766 55.2969L2.64543 55.2556L2.58452 55.2134L2.52493 55.1703L2.46664 55.1263L2.40963 55.0814L2.35389 55.0355L2.29941 54.9886L2.24619 54.9406L2.19419 54.8916L2.14343 54.8414L2.09387 54.7902L2.04552 54.7377L1.99836 54.6839L1.95239 54.6289L1.90759 54.5725L1.86395 54.5148L1.82147 54.4555L1.78014 54.3948L1.73994 54.3324L1.70088 54.2684L1.66294 54.2026L1.62611 54.135L1.59039 54.0655L1.55578 53.9939L1.52226 53.9201L1.48983 53.8441L1.45848 53.7657L1.4282 53.6847L1.399 53.601L1.37087 53.5145L1.34379 53.4248L1.31777 53.3318L1.2928 53.2352L1.26888 53.1348L1.246 53.0303L1.22415 52.9212L1.20335 52.8073L1.18357 52.6879L1.16482 52.5626L1.14709 52.4308L1.13038 52.2918L1.11469 52.1445L1.10001 51.9881L1.08635 51.8213L1.0737 51.6424L1.06205 51.4497L1.05141 51.2405L1.04177 51.0118L1.03314 50.7592L1.02551 50.4769L1.01887 50.1564L1.01323 49.7849L1.0086 49.3418L1.00495 48.7898L1.00231 48.0503L1.00066 46.9006L1 43.6746L1.00034 11.6303L1.00167 10.2159L1.004 9.38385L1.00733 8.78399L1.01165 8.31145L1.01697 7.91998L1.02328 7.58492L1.0306 7.29151L1.03891 7.03019L1.04823 6.79437L1.05855 6.57937L1.06988 6.38168L1.08221 6.19864L1.09555 6.02815L1.1099 5.86857L1.12527 5.71855L1.14165 5.57698L1.15906 5.44295L1.17748 5.31567L1.19693 5.1945L1.21741 5.07886L1.23893 4.96829L1.26148 4.86234L1.28507 4.76066L1.3097 4.66291L1.33539 4.56881L1.36213 4.4781L1.38992 4.39055L1.41879 4.30596L1.44872 4.22414L1.47972 4.14493L1.51181 4.06817L1.54498 3.99372L1.57925 3.92146L1.61461 3.85127L1.65109 3.78305L1.68867 3.7167L1.72738 3.65212L1.76721 3.58924L1.80818 3.52799L1.8503 3.46827L1.89356 3.41005L1.93799 3.35324L1.98359 3.29779L2.03037 3.24365L2.07834 3.19077L2.12751 3.13911L2.17789 3.08861L2.22949 3.03923L2.28232 2.99094L2.3364 2.9437L2.39174 2.89748L2.44834 2.85224L2.50622 2.80795L2.5654 2.76458L2.62589 2.72211L2.68769 2.68051L2.75084 2.63975L2.81534 2.59981L2.88121 2.56066L2.94846 2.52229L3.01711 2.48468L3.08718 2.44781L3.15869 2.41165L3.23166 2.37619L3.3061 2.34141L3.38204 2.3073L3.45949 2.27385L3.53848 2.24103L3.61903 2.20883L3.70116 2.17724L3.7849 2.14625L3.87028 2.11585L3.95731 2.08602L4.04603 2.05674L4.13646 2.02802L4.22863 1.99984L4.32258 1.97219L4.41833 1.94506L4.51591 1.91844L4.61537 1.89232L4.71673 1.86669L4.82003 1.84155L4.92531 1.81689L5.03261 1.79269L5.14198 1.76896L5.25344 1.74568L5.36706 1.72285L5.48287 1.70046L5.60093 1.67851L5.72129 1.65699L5.84399 1.63589L5.9691 1.6152L6.09668 1.59493L6.22678 1.57506L6.35947 1.5556L6.49483 1.53653L6.63291 1.51785L6.77379 1.49956L6.91756 1.48165L7.0643 1.46412L7.21408 1.44696L7.36701 1.43017L7.52318 1.41375L7.68268 1.39769L7.84564 1.38198L8.01216 1.36663L8.18236 1.35164L8.35638 1.33699L8.53434 1.32268L8.71639 1.30872L8.90268 1.2951L9.09338 1.28181L9.28867 1.26885L9.48872 1.25623L9.69373 1.24393L9.90393 1.23196L10.1195 1.22031L10.3408 1.20898L10.568 1.19797L10.8014 1.18727L11.0413 1.17689L11.288 1.16682L11.542 1.15706L11.8036 1.14761L12.0732 1.13846L12.3513 1.12962L12.6385 1.12109L12.9353 1.11285L13.2423 1.10491L13.5603 1.09727L13.89 1.08993L14.2323 1.08289L14.5881 1.07614L14.9587 1.06968L15.3452 1.06351L15.749 1.05764L16.1718 1.05205L16.6155 1.04676L17.0822 1.04175L17.5746 1.03703L18.0956 1.03259L18.649 1.02844L19.2391 1.02458L19.8714 1.02099L20.5527 1.0177L21.2914 1.01468L22.0987 1.01195L22.9894 1.0095L23.984 1.00733L25.1114 1.00544L26.4155 1.00383L27.967 1.00251L29.8918 1.00146L32.4508 1.00069L36.3605 1.00021L46.0943 1L161.59 1.00007L166.935 1.00043L169.991 1.00106L172.171 1.00197L173.88 1.00316L175.291 1.00464L176.496 1.00639L177.55 1.00843L178.487 1.01074L179.332 1.01334L180.102 1.01622L180.81 1.01938L181.464 1.02283L182.074 1.02656L182.644 1.03057L183.18 1.03487L183.686 1.03946L184.165 1.04433L184.619 1.04949L185.051 1.05493L185.464 1.06067L185.859 1.0667L186.237 1.07301L186.599 1.07963L186.948 1.08653L187.284 1.09373L187.607 1.10123L187.919 1.10902L188.221 1.11711L188.513 1.12551L188.795 1.1342L189.069 1.1432L189.334 1.15251L189.592 1.16212L189.842 1.17204L190.085 1.18227L190.321 1.19282L190.551 1.20368L190.775 1.21485L190.994 1.22635L191.206 1.23817L191.414 1.25031L191.616 1.26278L191.814 1.27558L192.007 1.2887L192.195 1.30217L192.379 1.31597L192.559 1.33011L192.735 1.34459L192.907 1.35943L193.075 1.37461L193.24 1.39014L193.401 1.40603L193.559 1.42228L193.713 1.43889L193.865 1.45587L194.013 1.47322L194.158 1.49095L194.3 1.50906L194.44 1.52755L194.576 1.54644L194.71 1.56571L194.841 1.58539L194.97 1.60546L195.097 1.62595L195.22 1.64685L195.342 1.66817L195.461 1.68992L195.578 1.7121L195.693 1.73472L195.805 1.75778L195.915 1.7813L196.024 1.80527L196.13 1.82971L196.234 1.85462L196.336 1.88001L196.437 1.90589L196.535 1.93227L196.632 1.95916L196.727 1.98656L196.82 2.01449L196.911 2.04295L197 2.07196L197.088 2.10152L197.175 2.13166L197.259 2.16236L197.342 2.19366L197.423 2.22557L197.503 2.25809L197.581 2.29124L197.658 2.32503L197.733 2.35949L197.807 2.39462L197.879 2.43044L197.95 2.46697L198.019 2.50423L198.087 2.54223L198.153 2.58101L198.218 2.62056L198.282 2.66093L198.345 2.70213L198.406 2.74418L198.466 2.78712L198.524 2.83096L198.581 2.87575L198.637 2.9215L198.692 2.96824L198.745 3.01603L198.798 3.06488L198.849 3.11483L198.898 3.16594L198.947 3.21823L198.994 3.27176L199.04 3.32658L199.085 3.38273L199.129 3.44027L199.172 3.49927L199.213 3.55978L199.254 3.62187L199.293 3.68563L199.331 3.75112L199.368 3.81844L199.404 3.88767L199.439 3.95893L199.472 4.03232L199.505 4.10796L199.537 4.18598L199.567 4.26654L199.596 4.34978L199.625 4.43589L199.652 4.52506L199.678 4.61751L199.703 4.71348L199.727 4.81324L199.75 4.91711L199.772 5.02543L199.793 5.13859L199.813 5.25705L199.832 5.38133L199.85 5.51205L199.867 5.64992L199.883 5.79577L199.898 5.95064L199.912 6.11572L199.924 6.29253L199.936 6.48294L199.947 6.68929L199.957 6.91466L199.966 7.16311L199.973 7.44021L199.98 7.75392L199.986 8.11612L199.991 8.5459L199.995 9.0769L199.997 9.77785L199.999 10.8316L200 13.2352L200 28.9822Z" stroke="#7D7D7D"/>
</svg>
