<svg width="40" height="40" viewBox="0 0 40 40" fill="none" xmlns="http://www.w3.org/2000/svg">
<path d="M8.4375 14.9219C8.4375 14.694 8.34696 14.4754 8.18579 14.3142C8.02463 14.153 7.80605 14.0625 7.57812 14.0625H4.60938C4.49652 14.0625 4.38477 14.0847 4.28051 14.1279C4.17624 14.1711 4.08151 14.2344 4.00171 14.3142C3.9219 14.394 3.8586 14.4887 3.81542 14.593C3.77223 14.6973 3.75 14.809 3.75 14.9219V17.8906C3.75 18.0035 3.77223 18.1152 3.81542 18.2195C3.8586 18.3238 3.9219 18.4185 4.00171 18.4983C4.08151 18.5781 4.17624 18.6414 4.28051 18.6846C4.38477 18.7278 4.49652 18.75 4.60938 18.75H7.57812C7.80605 18.75 8.02463 18.6595 8.18579 18.4983C8.34696 18.3371 8.4375 18.1185 8.4375 17.8906V14.9219ZM4.84375 15.1562H7.34375V17.6562H4.84375V15.1562Z" fill="#FE9393"/>
<path d="M14.375 14.9219C14.375 14.694 14.2845 14.4754 14.1233 14.3142C13.9621 14.153 13.7435 14.0625 13.5156 14.0625H10.5469C10.319 14.0625 10.1004 14.153 9.93921 14.3142C9.77804 14.4754 9.6875 14.694 9.6875 14.9219V17.8906C9.6875 18.1185 9.77804 18.3371 9.93921 18.4983C10.1004 18.6595 10.319 18.75 10.5469 18.75H13.5156C13.7435 18.75 13.9621 18.6595 14.1233 18.4983C14.2845 18.3371 14.375 18.1185 14.375 17.8906V14.9219ZM10.7812 15.1562H13.2812V17.6562H10.7812V15.1562Z" fill="#FE9393"/>
<path d="M20.3906 14.9219C20.3906 14.694 20.3001 14.4754 20.1389 14.3142C19.9778 14.153 19.7592 14.0625 19.5312 14.0625H16.5625C16.3346 14.0625 16.116 14.153 15.9548 14.3142C15.7937 14.4754 15.7031 14.694 15.7031 14.9219V17.8906C15.7031 18.1185 15.7937 18.3371 15.9548 18.4983C16.116 18.6595 16.3346 18.75 16.5625 18.75H19.5312C19.7592 18.75 19.9778 18.6595 20.1389 18.4983C20.3001 18.3371 20.3906 18.1185 20.3906 17.8906V14.9219ZM16.7969 15.1562H19.2969V17.6562H16.7969V15.1562Z" fill="#FE9393"/>
<path d="M26.3281 14.9219C26.3281 14.694 26.2376 14.4754 26.0764 14.3142C25.9153 14.153 25.6967 14.0625 25.4688 14.0625H22.5C22.2721 14.0625 22.0535 14.153 21.8923 14.3142C21.7312 14.4754 21.6406 14.694 21.6406 14.9219V17.8906C21.6406 18.1185 21.7312 18.3371 21.8923 18.4983C22.0535 18.6595 22.2721 18.75 22.5 18.75H25.4688C25.6967 18.75 25.9153 18.6595 26.0764 18.4983C26.2376 18.3371 26.3281 18.1185 26.3281 17.8906V14.9219ZM22.7344 15.1562H25.2344V17.6562H22.7344V15.1562Z" fill="#FE9393"/>
<path d="M32.3438 14.9219C32.3438 14.694 32.2532 14.4754 32.092 14.3142C31.9309 14.153 31.7123 14.0625 31.4844 14.0625H28.5156C28.2877 14.0625 28.0691 14.153 27.908 14.3142C27.7468 14.4754 27.6563 14.694 27.6562 14.9219V17.8906C27.6563 18.1185 27.7468 18.3371 27.908 18.4983C28.0691 18.6595 28.2877 18.75 28.5156 18.75H31.4844C31.7123 18.75 31.9309 18.6595 32.092 18.4983C32.2532 18.3371 32.3438 18.1185 32.3438 17.8906V14.9219ZM28.75 15.1562H31.25V17.6562H28.75V15.1562Z" fill="#FE9393"/>
<path d="M8.51562 21.5625C8.51562 21.3346 8.42508 21.116 8.26392 20.9548C8.10276 20.7937 7.88417 20.7031 7.65625 20.7031H4.6875C4.45958 20.7031 4.24099 20.7937 4.07983 20.9548C3.91867 21.116 3.82812 21.3346 3.82812 21.5625V24.5312C3.82813 24.7592 3.91867 24.9778 4.07983 25.1389C4.24099 25.3001 4.45958 25.3906 4.6875 25.3906H7.65625C7.88417 25.3906 8.10276 25.3001 8.26392 25.1389C8.42508 24.9778 8.51562 24.7592 8.51562 24.5312V21.5625ZM7.42188 24.2969H4.92188V21.7969H7.42188V24.2969Z" fill="#FE9393"/>
<path d="M14.4531 21.5625C14.4531 21.4496 14.4309 21.3379 14.3877 21.2336C14.3445 21.1294 14.2812 21.0346 14.2014 20.9548C14.1216 20.875 14.0269 20.8117 13.9226 20.7685C13.8184 20.7254 13.7066 20.7031 13.5938 20.7031H10.625C10.3971 20.7031 10.1785 20.7937 10.0173 20.9548C9.85617 21.116 9.76562 21.3346 9.76562 21.5625V24.5312C9.76562 24.7592 9.85617 24.9778 10.0173 25.1389C10.1785 25.3001 10.3971 25.3906 10.625 25.3906H13.5938C13.7066 25.3906 13.8184 25.3684 13.9226 25.3252C14.0269 25.282 14.1216 25.2187 14.2014 25.1389C14.2812 25.0591 14.3445 24.9644 14.3877 24.8601C14.4309 24.7559 14.4531 24.6441 14.4531 24.5312V21.5625ZM13.3594 24.2969H10.8594V21.7969H13.3594V24.2969Z" fill="#FE9393"/>
<path d="M20.4688 21.5625C20.4688 21.3346 20.3782 21.116 20.217 20.9548C20.0559 20.7937 19.8373 20.7031 19.6094 20.7031H16.6406C16.4127 20.7031 16.1941 20.7937 16.033 20.9548C15.8718 21.116 15.7812 21.3346 15.7812 21.5625V24.5312C15.7812 24.7592 15.8718 24.9778 16.033 25.1389C16.1941 25.3001 16.4127 25.3906 16.6406 25.3906H19.6094C19.8373 25.3906 20.0559 25.3001 20.217 25.1389C20.3782 24.9778 20.4688 24.7592 20.4688 24.5312V21.5625ZM19.375 24.2969H16.875V21.7969H19.375V24.2969Z" fill="#FE9393"/>
<path d="M8.51562 27.7344C8.51562 27.5065 8.42508 27.2879 8.26392 27.1267C8.10276 26.9655 7.88417 26.875 7.65625 26.875H4.6875C4.45958 26.875 4.24099 26.9655 4.07983 27.1267C3.91867 27.2879 3.82812 27.5065 3.82812 27.7344V30.7812C3.82813 31.0092 3.91867 31.2278 4.07983 31.3889C4.24099 31.5501 4.45958 31.6406 4.6875 31.6406H7.65625C7.88417 31.6406 8.10276 31.5501 8.26392 31.3889C8.42508 31.2278 8.51562 31.0092 8.51562 30.7812V27.7344ZM7.42188 30.5469H4.92188V27.9688H7.42188V30.5469Z" fill="#FE9393"/>
<path d="M14.4531 27.7344C14.4531 27.6215 14.4309 27.5098 14.3877 27.4055C14.3445 27.3012 14.2812 27.2065 14.2014 27.1267C14.1216 27.0469 14.0269 26.9836 13.9226 26.9404C13.8184 26.8972 13.7066 26.875 13.5938 26.875H10.625C10.3971 26.875 10.1785 26.9655 10.0173 27.1267C9.85617 27.2879 9.76562 27.5065 9.76562 27.7344V30.7812C9.76562 31.0092 9.85617 31.2278 10.0173 31.3889C10.1785 31.5501 10.3971 31.6406 10.625 31.6406H13.5938C13.7066 31.6406 13.8184 31.6184 13.9226 31.5752C14.0269 31.532 14.1216 31.4687 14.2014 31.3889C14.2812 31.3091 14.3445 31.2144 14.3877 31.1101C14.4309 31.0059 14.4531 30.8941 14.4531 30.7812V27.7344ZM13.3594 30.5469H10.8594V27.9688H13.3594V30.5469Z" fill="#FE9393"/>
<path d="M34.6875 22.1026V9.19375C34.6875 7.32984 33.2777 5.85938 31.4624 5.85938H30.3125V4.29945C30.3151 3.78391 30.113 3.2884 29.7506 2.92173C29.3882 2.55505 28.8951 2.34718 28.3795 2.34375H28.0514C27.5333 2.34617 27.037 2.55293 26.6705 2.91912C26.3039 3.28531 26.0967 3.78134 26.0938 4.29945V5.85938H10V4.29945C10.0026 3.7839 9.80047 3.28839 9.43804 2.92172C9.07562 2.55505 8.5825 2.34718 8.06695 2.34375H7.73883C7.22072 2.34619 6.7245 2.55296 6.35797 2.91915C5.99143 3.28533 5.78419 3.78135 5.78125 4.29945V5.85938H4.89383C3.01 5.85938 1.40625 7.39195 1.40625 9.19375V30.8681C1.40625 32.69 3.01 34.2188 4.89383 34.2188H23.3605C24.1388 35.2852 25.1592 36.1515 26.3378 36.7464C27.5164 37.3414 28.8194 37.6478 30.1396 37.6406C31.9634 37.641 33.7382 37.0502 35.1979 35.9568C36.6576 34.8633 37.7236 33.3262 38.2359 31.5758C38.7482 29.8254 38.6793 27.9561 38.0396 26.2481C37.3998 24.5402 36.2237 23.0856 34.6875 22.1026ZM29.2188 7.42969C29.2188 7.65554 29.129 7.87213 28.9693 8.03183C28.8096 8.19153 28.593 8.28125 28.3672 8.28125H28.0391C27.8132 8.28125 27.5966 8.19153 27.4369 8.03183C27.2772 7.87213 27.1875 7.65554 27.1875 7.42969V4.28906C27.1875 4.06321 27.2772 3.84662 27.4369 3.68692C27.5966 3.52722 27.8132 3.4375 28.0391 3.4375H28.3672C28.593 3.4375 28.8096 3.52722 28.9693 3.68692C29.129 3.84662 29.2188 4.06321 29.2188 4.28906V7.42969ZM8.90625 7.42969C8.90625 7.65554 8.81653 7.87213 8.65683 8.03183C8.49713 8.19153 8.28054 8.28125 8.05469 8.28125H7.72656C7.50071 8.28125 7.28412 8.19153 7.12442 8.03183C6.96472 7.87213 6.875 7.65554 6.875 7.42969V4.28906C6.875 4.06321 6.96472 3.84662 7.12442 3.68692C7.28412 3.52722 7.50071 3.4375 7.72656 3.4375H8.05469C8.28054 3.4375 8.49713 3.52722 8.65683 3.68692C8.81653 3.84662 8.90625 4.06321 8.90625 4.28906V7.42969ZM2.5 9.19375C2.5 8.0057 3.625 6.95313 4.89383 6.95313H5.78125V7.44016C5.78501 7.95606 5.99316 8.44943 6.36008 8.81212C6.727 9.17481 7.22276 9.37723 7.73867 9.375H8.0668C8.32099 9.37566 8.57281 9.32605 8.80776 9.22903C9.04271 9.13201 9.25616 8.98949 9.43583 8.80967C9.6155 8.62985 9.75784 8.41628 9.85466 8.18125C9.95148 7.94621 10.0009 7.69435 10 7.44016V6.95313H26.0938V7.44016C26.0975 7.95606 26.3057 8.44943 26.6726 8.81212C27.0395 9.17481 27.5353 9.37723 28.0512 9.375H28.3793C28.6335 9.37567 28.8853 9.32607 29.1203 9.22905C29.3552 9.13204 29.5687 8.98952 29.7484 8.80969C29.928 8.62987 30.0704 8.4163 30.1672 8.18126C30.264 7.94622 30.3134 7.69435 30.3125 7.44016V6.95313H31.4624C32.6641 6.95313 33.5938 7.94313 33.5938 9.19375V11.4063H2.5V9.19375ZM4.89383 33.125C3.625 33.125 2.5 32.0759 2.5 30.8681V12.5H33.5938V21.5069C32.506 21.0102 31.3232 20.756 30.1274 20.762C28.7927 20.762 27.5781 21.0738 26.4062 21.6278V21.5731C26.4091 21.3455 26.3215 21.126 26.1626 20.9629C26.0038 20.7998 25.7867 20.7063 25.5591 20.7031H22.5903C22.3601 20.7053 22.14 20.7975 21.977 20.9601C21.8141 21.1227 21.7214 21.3427 21.7188 21.5729V24.5416C21.7222 24.7697 21.8158 24.987 21.9792 25.1461C22.1425 25.3053 22.3623 25.3932 22.5903 25.3906H22.6041C22.01 26.5704 21.6996 27.8727 21.6979 29.1936C21.6959 30.5639 22.03 31.9138 22.6709 33.125H4.89383ZM23.2667 24.2969H22.8125V21.7969H25.3125V22.2738C24.525 22.8323 23.834 23.5157 23.2667 24.2969ZM30.1396 36.5521C28.6863 36.5521 27.2656 36.1211 26.0572 35.3137C24.8487 34.5063 23.9069 33.3586 23.3507 32.0159C22.7946 30.6732 22.6491 29.1957 22.9326 27.7703C23.2161 26.3449 23.916 25.0356 24.9437 24.0079C25.9713 22.9803 27.2807 22.2804 28.7061 21.9969C30.1315 21.7134 31.609 21.8589 32.9517 22.4151C34.2944 22.9713 35.442 23.9131 36.2495 25.1215C37.0569 26.3299 37.4878 27.7506 37.4878 29.204C37.4856 31.1522 36.7107 33.0199 35.3331 34.3975C33.9555 35.775 32.0878 36.5499 30.1396 36.5521Z" fill="#FE9393"/>
<path d="M30.0787 22.667C29.9336 22.667 29.7945 22.7246 29.692 22.8272C29.5894 22.9297 29.5318 23.0688 29.5318 23.2139V28.8988L26.0137 31.0693C25.9526 31.1074 25.8995 31.157 25.8576 31.2156C25.8156 31.2741 25.7856 31.3403 25.7692 31.4104C25.7529 31.4805 25.7505 31.5532 25.7622 31.6242C25.7739 31.6953 25.7995 31.7633 25.8375 31.8245C25.8755 31.8856 25.9252 31.9387 25.9837 31.9806C26.0422 32.0226 26.1085 32.0526 26.1786 32.069C26.2487 32.0853 26.3214 32.0877 26.3924 32.076C26.4634 32.0643 26.5315 32.0387 26.5926 32.0007L30.3712 29.6699C30.4499 29.6206 30.5147 29.5519 30.5593 29.4704C30.6038 29.3888 30.6266 29.2972 30.6255 29.2043V23.2139C30.6255 23.0688 30.5679 22.9297 30.4653 22.8272C30.3628 22.7246 30.2237 22.667 30.0787 22.667Z" fill="#FE9393"/>
</svg>
