<svg width="32" height="32" viewBox="0 0 32 32" fill="none" xmlns="http://www.w3.org/2000/svg">
<path d="M16 32C24.8366 32 32 24.8366 32 16C32 7.16344 24.8366 0 16 0C7.16344 0 0 7.16344 0 16C0 24.8366 7.16344 32 16 32Z" fill="#4D76A1"/>
<path fill-rule="evenodd" clip-rule="evenodd" d="M15.3956 23.0174H16.6514C16.6514 23.0174 17.0307 22.9758 17.2244 22.767C17.4026 22.5753 17.3969 22.2154 17.3969 22.2154C17.3969 22.2154 17.3724 20.5303 18.1545 20.2822C18.9254 20.0378 19.9154 21.9108 20.9647 22.631C21.7582 23.176 22.3611 23.0565 22.3611 23.0565L25.1668 23.0174C25.1668 23.0174 26.6345 22.927 25.9386 21.773C25.8815 21.6786 25.5333 20.9194 23.8525 19.3593C22.0933 17.7264 22.3289 17.9905 24.448 15.166C25.7386 13.4459 26.2546 12.3957 26.0934 11.9459C25.9397 11.5175 24.9905 11.6308 24.9905 11.6308L21.8315 11.6505C21.8315 11.6505 21.5973 11.6185 21.4236 11.7223C21.2539 11.8242 21.1447 12.0615 21.1447 12.0615C21.1447 12.0615 20.6447 13.3926 19.9778 14.5246C18.5712 16.9132 18.0087 17.0393 17.7788 16.891C17.2441 16.5453 17.3775 15.5023 17.3775 14.7613C17.3775 12.4465 17.7286 11.4813 16.6939 11.2315C16.3505 11.1485 16.0978 11.0937 15.2196 11.0849C14.0924 11.0732 13.1384 11.0883 12.5982 11.353C12.2388 11.529 11.9616 11.9211 12.1304 11.9437C12.3392 11.9716 12.8121 12.0712 13.0628 12.4126C13.3865 12.8529 13.3751 13.8421 13.3751 13.8421C13.3751 13.8421 13.5611 16.567 12.9407 16.9055C12.5149 17.1377 11.9308 16.6637 10.6767 14.4966C10.0341 13.3866 9.54895 12.1596 9.54895 12.1596C9.54895 12.1596 9.4554 11.9303 9.28855 11.8076C9.08605 11.659 8.80312 11.6117 8.80312 11.6117L5.80123 11.6313C5.80123 11.6313 5.35059 11.6439 5.18516 11.8398C5.03799 12.0141 5.17347 12.3746 5.17347 12.3746C5.17347 12.3746 7.52364 17.873 10.1847 20.6439C12.6247 23.1843 15.3956 23.0174 15.3956 23.0174Z" fill="white"/>
</svg>
